ISO-10303-21;
HEADER;
/* Generated by software containing ST-Developer
 * from STEP Tools, Inc. (www.steptools.com) 
 */

FILE_DESCRIPTION(
/* description */ (''),
/* implementation_level */ '2;1');

FILE_NAME(
/* name */ 'Model.step',
/* time_stamp */ '2026-08-22T00:42:39+05:30',
/* author */ (''),
/* organization */ (''),
/* preprocessor_version */ 'ST-DEVELOPER v20.1',
/* originating_system */ 'Autodesk Translation Framework v15.8.0.0',
/* authorisation */ '');

FILE_SCHEMA (('AUTOMOTIVE_DESIGN { 1 0 10303 214 3 1 1 }'));
ENDSEC;

DATA;
#10=MECHANICAL_DESIGN_GEOMETRIC_PRESENTATION_REPRESENTATION('',(#13),#694);
#11=SHAPE_REPRESENTATION_RELATIONSHIP('SRR','None',#701,#12);
#12=ADVANCED_BREP_SHAPE_REPRESENTATION('',(#14),#693);
#13=STYLED_ITEM('',(#711),#14);
#14=MANIFOLD_SOLID_BREP('Body1',#414);
#15=FACE_BOUND('',#67,.T.);
#16=FACE_BOUND('',#68,.T.);
#17=FACE_BOUND('',#77,.T.);
#18=FACE_BOUND('',#78,.T.);
#19=FACE_BOUND('',#79,.T.);
#20=PLANE('',#434);
#21=PLANE('',#438);
#22=PLANE('',#439);
#23=PLANE('',#441);
#24=PLANE('',#443);
#25=PLANE('',#448);
#26=PLANE('',#453);
#27=PLANE('',#454);
#28=PLANE('',#455);
#29=PLANE('',#456);
#30=PLANE('',#457);
#31=PLANE('',#458);
#32=PLANE('',#459);
#33=PLANE('',#460);
#34=PLANE('',#461);
#35=FACE_OUTER_BOUND('',#55,.T.);
#36=FACE_OUTER_BOUND('',#56,.T.);
#37=FACE_OUTER_BOUND('',#57,.T.);
#38=FACE_OUTER_BOUND('',#58,.T.);
#39=FACE_OUTER_BOUND('',#59,.T.);
#40=FACE_OUTER_BOUND('',#60,.T.);
#41=FACE_OUTER_BOUND('',#61,.T.);
#42=FACE_OUTER_BOUND('',#62,.T.);
#43=FACE_OUTER_BOUND('',#63,.T.);
#44=FACE_OUTER_BOUND('',#64,.T.);
#45=FACE_OUTER_BOUND('',#65,.T.);
#46=FACE_OUTER_BOUND('',#66,.T.);
#47=FACE_OUTER_BOUND('',#69,.T.);
#48=FACE_OUTER_BOUND('',#70,.T.);
#49=FACE_OUTER_BOUND('',#71,.T.);
#50=FACE_OUTER_BOUND('',#72,.T.);
#51=FACE_OUTER_BOUND('',#73,.T.);
#52=FACE_OUTER_BOUND('',#74,.T.);
#53=FACE_OUTER_BOUND('',#75,.T.);
#54=FACE_OUTER_BOUND('',#76,.T.);
#55=EDGE_LOOP('',(#275,#276,#277,#278));
#56=EDGE_LOOP('',(#279,#280,#281,#282));
#57=EDGE_LOOP('',(#283,#284,#285,#286));
#58=EDGE_LOOP('',(#287,#288,#289,#290));
#59=EDGE_LOOP('',(#291,#292,#293,#294));
#60=EDGE_LOOP('',(#295,#296,#297,#298,#299,#300));
#61=EDGE_LOOP('',(#301,#302,#303,#304,#305));
#62=EDGE_LOOP('',(#306,#307,#308,#309,#310));
#63=EDGE_LOOP('',(#311,#312,#313,#314));
#64=EDGE_LOOP('',(#315,#316,#317,#318));
#65=EDGE_LOOP('',(#319,#320,#321,#322,#323,#324,#325,#326,#327,#328,#329,
#330));
#66=EDGE_LOOP('',(#331,#332,#333,#334));
#67=EDGE_LOOP('',(#335));
#68=EDGE_LOOP('',(#336));
#69=EDGE_LOOP('',(#337,#338,#339,#340));
#70=EDGE_LOOP('',(#341,#342,#343,#344));
#71=EDGE_LOOP('',(#345,#346,#347,#348,#349));
#72=EDGE_LOOP('',(#350,#351,#352,#353,#354,#355,#356,#357));
#73=EDGE_LOOP('',(#358,#359,#360,#361,#362,#363,#364,#365,#366,#367));
#74=EDGE_LOOP('',(#368,#369,#370,#371));
#75=EDGE_LOOP('',(#372,#373,#374,#375,#376,#377,#378,#379,#380,#381));
#76=EDGE_LOOP('',(#382,#383,#384,#385));
#77=EDGE_LOOP('',(#386));
#78=EDGE_LOOP('',(#387));
#79=EDGE_LOOP('',(#388));
#80=LINE('',#580,#123);
#81=LINE('',#586,#124);
#82=LINE('',#591,#125);
#83=LINE('',#593,#126);
#84=LINE('',#595,#127);
#85=LINE('',#596,#128);
#86=LINE('',#602,#129);
#87=LINE('',#605,#130);
#88=LINE('',#609,#131);
#89=LINE('',#611,#132);
#90=LINE('',#613,#133);
#91=LINE('',#614,#134);
#92=LINE('',#616,#135);
#93=LINE('',#617,#136);
#94=LINE('',#621,#137);
#95=LINE('',#623,#138);
#96=LINE('',#625,#139);
#97=LINE('',#631,#140);
#98=LINE('',#633,#141);
#99=LINE('',#634,#142);
#100=LINE('',#640,#143);
#101=LINE('',#643,#144);
#102=LINE('',#647,#145);
#103=LINE('',#648,#146);
#104=LINE('',#649,#147);
#105=LINE('',#652,#148);
#106=LINE('',#656,#149);
#107=LINE('',#660,#150);
#108=LINE('',#662,#151);
#109=LINE('',#663,#152);
#110=LINE('',#666,#153);
#111=LINE('',#667,#154);
#112=LINE('',#670,#155);
#113=LINE('',#671,#156);
#114=LINE('',#673,#157);
#115=LINE('',#676,#158);
#116=LINE('',#678,#159);
#117=LINE('',#679,#160);
#118=LINE('',#682,#161);
#119=LINE('',#683,#162);
#120=LINE('',#686,#163);
#121=LINE('',#687,#164);
#122=LINE('',#689,#165);
#123=VECTOR('',#468,5.);
#124=VECTOR('',#475,5.);
#125=VECTOR('',#480,10.);
#126=VECTOR('',#481,10.);
#127=VECTOR('',#482,10.);
#128=VECTOR('',#483,10.);
#129=VECTOR('',#488,10.);
#130=VECTOR('',#491,10.);
#131=VECTOR('',#494,10.);
#132=VECTOR('',#495,10.);
#133=VECTOR('',#496,10.);
#134=VECTOR('',#497,10.);
#135=VECTOR('',#500,10.);
#136=VECTOR('',#501,10.);
#137=VECTOR('',#506,10.);
#138=VECTOR('',#507,10.);
#139=VECTOR('',#508,10.);
#140=VECTOR('',#515,10.);
#141=VECTOR('',#516,10.);
#142=VECTOR('',#517,10.);
#143=VECTOR('',#522,10.);
#144=VECTOR('',#525,10.);
#145=VECTOR('',#528,10.);
#146=VECTOR('',#529,10.);
#147=VECTOR('',#530,10.);
#148=VECTOR('',#533,10.);
#149=VECTOR('',#536,14.);
#150=VECTOR('',#541,10.);
#151=VECTOR('',#544,10.);
#152=VECTOR('',#545,10.);
#153=VECTOR('',#548,10.);
#154=VECTOR('',#549,10.);
#155=VECTOR('',#552,10.);
#156=VECTOR('',#553,10.);
#157=VECTOR('',#556,10.);
#158=VECTOR('',#559,10.);
#159=VECTOR('',#560,10.);
#160=VECTOR('',#561,10.);
#161=VECTOR('',#564,10.);
#162=VECTOR('',#565,10.);
#163=VECTOR('',#568,10.);
#164=VECTOR('',#569,10.);
#165=VECTOR('',#572,10.);
#166=CIRCLE('',#429,5.);
#167=CIRCLE('',#430,5.);
#168=CIRCLE('',#432,5.);
#169=CIRCLE('',#433,5.);
#170=CIRCLE('',#436,40.);
#171=CIRCLE('',#437,40.);
#172=CIRCLE('',#440,14.);
#173=CIRCLE('',#442,14.);
#174=CIRCLE('',#444,14.);
#175=CIRCLE('',#446,60.);
#176=CIRCLE('',#447,60.);
#177=CIRCLE('',#450,14.);
#178=CIRCLE('',#451,14.);
#179=CIRCLE('',#452,14.);
#180=VERTEX_POINT('',#577);
#181=VERTEX_POINT('',#579);
#182=VERTEX_POINT('',#583);
#183=VERTEX_POINT('',#585);
#184=VERTEX_POINT('',#589);
#185=VERTEX_POINT('',#590);
#186=VERTEX_POINT('',#592);
#187=VERTEX_POINT('',#594);
#188=VERTEX_POINT('',#598);
#189=VERTEX_POINT('',#599);
#190=VERTEX_POINT('',#601);
#191=VERTEX_POINT('',#603);
#192=VERTEX_POINT('',#607);
#193=VERTEX_POINT('',#608);
#194=VERTEX_POINT('',#610);
#195=VERTEX_POINT('',#612);
#196=VERTEX_POINT('',#620);
#197=VERTEX_POINT('',#622);
#198=VERTEX_POINT('',#624);
#199=VERTEX_POINT('',#628);
#200=VERTEX_POINT('',#630);
#201=VERTEX_POINT('',#632);
#202=VERTEX_POINT('',#636);
#203=VERTEX_POINT('',#637);
#204=VERTEX_POINT('',#639);
#205=VERTEX_POINT('',#641);
#206=VERTEX_POINT('',#645);
#207=VERTEX_POINT('',#646);
#208=VERTEX_POINT('',#651);
#209=VERTEX_POINT('',#653);
#210=VERTEX_POINT('',#655);
#211=VERTEX_POINT('',#658);
#212=VERTEX_POINT('',#665);
#213=VERTEX_POINT('',#669);
#214=VERTEX_POINT('',#675);
#215=VERTEX_POINT('',#677);
#216=VERTEX_POINT('',#681);
#217=VERTEX_POINT('',#685);
#218=EDGE_CURVE('',#180,#180,#166,.T.);
#219=EDGE_CURVE('',#180,#181,#80,.T.);
#220=EDGE_CURVE('',#181,#181,#167,.T.);
#221=EDGE_CURVE('',#182,#182,#168,.T.);
#222=EDGE_CURVE('',#182,#183,#81,.T.);
#223=EDGE_CURVE('',#183,#183,#169,.T.);
#224=EDGE_CURVE('',#184,#185,#82,.T.);
#225=EDGE_CURVE('',#184,#186,#83,.T.);
#226=EDGE_CURVE('',#187,#186,#84,.T.);
#227=EDGE_CURVE('',#185,#187,#85,.T.);
#228=EDGE_CURVE('',#188,#189,#170,.T.);
#229=EDGE_CURVE('',#188,#190,#86,.T.);
#230=EDGE_CURVE('',#191,#190,#171,.T.);
#231=EDGE_CURVE('',#189,#191,#87,.T.);
#232=EDGE_CURVE('',#192,#193,#88,.T.);
#233=EDGE_CURVE('',#192,#194,#89,.T.);
#234=EDGE_CURVE('',#195,#194,#90,.T.);
#235=EDGE_CURVE('',#193,#195,#91,.T.);
#236=EDGE_CURVE('',#194,#191,#92,.T.);
#237=EDGE_CURVE('',#190,#187,#93,.T.);
#238=EDGE_CURVE('',#186,#195,#172,.T.);
#239=EDGE_CURVE('',#185,#196,#94,.T.);
#240=EDGE_CURVE('',#196,#197,#95,.T.);
#241=EDGE_CURVE('',#197,#198,#96,.T.);
#242=EDGE_CURVE('',#198,#184,#173,.T.);
#243=EDGE_CURVE('',#193,#199,#174,.T.);
#244=EDGE_CURVE('',#199,#200,#97,.T.);
#245=EDGE_CURVE('',#200,#201,#98,.T.);
#246=EDGE_CURVE('',#201,#192,#99,.T.);
#247=EDGE_CURVE('',#202,#203,#175,.T.);
#248=EDGE_CURVE('',#202,#204,#100,.T.);
#249=EDGE_CURVE('',#205,#204,#176,.T.);
#250=EDGE_CURVE('',#203,#205,#101,.T.);
#251=EDGE_CURVE('',#206,#207,#102,.T.);
#252=EDGE_CURVE('',#207,#205,#103,.T.);
#253=EDGE_CURVE('',#204,#206,#104,.T.);
#254=EDGE_CURVE('',#198,#208,#105,.T.);
#255=EDGE_CURVE('',#208,#209,#177,.T.);
#256=EDGE_CURVE('',#209,#210,#106,.T.);
#257=EDGE_CURVE('',#210,#210,#178,.T.);
#258=EDGE_CURVE('',#209,#211,#179,.T.);
#259=EDGE_CURVE('',#199,#211,#107,.T.);
#260=EDGE_CURVE('',#189,#202,#108,.T.);
#261=EDGE_CURVE('',#203,#188,#109,.T.);
#262=EDGE_CURVE('',#212,#197,#110,.T.);
#263=EDGE_CURVE('',#212,#208,#111,.T.);
#264=EDGE_CURVE('',#211,#213,#112,.T.);
#265=EDGE_CURVE('',#200,#213,#113,.T.);
#266=EDGE_CURVE('',#213,#212,#114,.T.);
#267=EDGE_CURVE('',#214,#196,#115,.T.);
#268=EDGE_CURVE('',#215,#214,#116,.T.);
#269=EDGE_CURVE('',#215,#201,#117,.T.);
#270=EDGE_CURVE('',#214,#216,#118,.T.);
#271=EDGE_CURVE('',#216,#207,#119,.T.);
#272=EDGE_CURVE('',#216,#217,#120,.T.);
#273=EDGE_CURVE('',#217,#206,#121,.T.);
#274=EDGE_CURVE('',#217,#215,#122,.T.);
#275=ORIENTED_EDGE('',*,*,#218,.F.);
#276=ORIENTED_EDGE('',*,*,#219,.T.);
#277=ORIENTED_EDGE('',*,*,#220,.F.);
#278=ORIENTED_EDGE('',*,*,#219,.F.);
#279=ORIENTED_EDGE('',*,*,#221,.F.);
#280=ORIENTED_EDGE('',*,*,#222,.T.);
#281=ORIENTED_EDGE('',*,*,#223,.F.);
#282=ORIENTED_EDGE('',*,*,#222,.F.);
#283=ORIENTED_EDGE('',*,*,#224,.F.);
#284=ORIENTED_EDGE('',*,*,#225,.T.);
#285=ORIENTED_EDGE('',*,*,#226,.F.);
#286=ORIENTED_EDGE('',*,*,#227,.F.);
#287=ORIENTED_EDGE('',*,*,#228,.F.);
#288=ORIENTED_EDGE('',*,*,#229,.T.);
#289=ORIENTED_EDGE('',*,*,#230,.F.);
#290=ORIENTED_EDGE('',*,*,#231,.F.);
#291=ORIENTED_EDGE('',*,*,#232,.F.);
#292=ORIENTED_EDGE('',*,*,#233,.T.);
#293=ORIENTED_EDGE('',*,*,#234,.F.);
#294=ORIENTED_EDGE('',*,*,#235,.F.);
#295=ORIENTED_EDGE('',*,*,#234,.T.);
#296=ORIENTED_EDGE('',*,*,#236,.T.);
#297=ORIENTED_EDGE('',*,*,#230,.T.);
#298=ORIENTED_EDGE('',*,*,#237,.T.);
#299=ORIENTED_EDGE('',*,*,#226,.T.);
#300=ORIENTED_EDGE('',*,*,#238,.T.);
#301=ORIENTED_EDGE('',*,*,#224,.T.);
#302=ORIENTED_EDGE('',*,*,#239,.T.);
#303=ORIENTED_EDGE('',*,*,#240,.T.);
#304=ORIENTED_EDGE('',*,*,#241,.T.);
#305=ORIENTED_EDGE('',*,*,#242,.T.);
#306=ORIENTED_EDGE('',*,*,#232,.T.);
#307=ORIENTED_EDGE('',*,*,#243,.T.);
#308=ORIENTED_EDGE('',*,*,#244,.T.);
#309=ORIENTED_EDGE('',*,*,#245,.T.);
#310=ORIENTED_EDGE('',*,*,#246,.T.);
#311=ORIENTED_EDGE('',*,*,#247,.F.);
#312=ORIENTED_EDGE('',*,*,#248,.T.);
#313=ORIENTED_EDGE('',*,*,#249,.F.);
#314=ORIENTED_EDGE('',*,*,#250,.F.);
#315=ORIENTED_EDGE('',*,*,#251,.T.);
#316=ORIENTED_EDGE('',*,*,#252,.T.);
#317=ORIENTED_EDGE('',*,*,#249,.T.);
#318=ORIENTED_EDGE('',*,*,#253,.T.);
#319=ORIENTED_EDGE('',*,*,#254,.T.);
#320=ORIENTED_EDGE('',*,*,#255,.T.);
#321=ORIENTED_EDGE('',*,*,#256,.T.);
#322=ORIENTED_EDGE('',*,*,#257,.F.);
#323=ORIENTED_EDGE('',*,*,#256,.F.);
#324=ORIENTED_EDGE('',*,*,#258,.T.);
#325=ORIENTED_EDGE('',*,*,#259,.F.);
#326=ORIENTED_EDGE('',*,*,#243,.F.);
#327=ORIENTED_EDGE('',*,*,#235,.T.);
#328=ORIENTED_EDGE('',*,*,#238,.F.);
#329=ORIENTED_EDGE('',*,*,#225,.F.);
#330=ORIENTED_EDGE('',*,*,#242,.F.);
#331=ORIENTED_EDGE('',*,*,#228,.T.);
#332=ORIENTED_EDGE('',*,*,#260,.T.);
#333=ORIENTED_EDGE('',*,*,#247,.T.);
#334=ORIENTED_EDGE('',*,*,#261,.T.);
#335=ORIENTED_EDGE('',*,*,#218,.T.);
#336=ORIENTED_EDGE('',*,*,#221,.T.);
#337=ORIENTED_EDGE('',*,*,#241,.F.);
#338=ORIENTED_EDGE('',*,*,#262,.F.);
#339=ORIENTED_EDGE('',*,*,#263,.T.);
#340=ORIENTED_EDGE('',*,*,#254,.F.);
#341=ORIENTED_EDGE('',*,*,#244,.F.);
#342=ORIENTED_EDGE('',*,*,#259,.T.);
#343=ORIENTED_EDGE('',*,*,#264,.T.);
#344=ORIENTED_EDGE('',*,*,#265,.F.);
#345=ORIENTED_EDGE('',*,*,#264,.F.);
#346=ORIENTED_EDGE('',*,*,#258,.F.);
#347=ORIENTED_EDGE('',*,*,#255,.F.);
#348=ORIENTED_EDGE('',*,*,#263,.F.);
#349=ORIENTED_EDGE('',*,*,#266,.F.);
#350=ORIENTED_EDGE('',*,*,#265,.T.);
#351=ORIENTED_EDGE('',*,*,#266,.T.);
#352=ORIENTED_EDGE('',*,*,#262,.T.);
#353=ORIENTED_EDGE('',*,*,#240,.F.);
#354=ORIENTED_EDGE('',*,*,#267,.F.);
#355=ORIENTED_EDGE('',*,*,#268,.F.);
#356=ORIENTED_EDGE('',*,*,#269,.T.);
#357=ORIENTED_EDGE('',*,*,#245,.F.);
#358=ORIENTED_EDGE('',*,*,#270,.F.);
#359=ORIENTED_EDGE('',*,*,#267,.T.);
#360=ORIENTED_EDGE('',*,*,#239,.F.);
#361=ORIENTED_EDGE('',*,*,#227,.T.);
#362=ORIENTED_EDGE('',*,*,#237,.F.);
#363=ORIENTED_EDGE('',*,*,#229,.F.);
#364=ORIENTED_EDGE('',*,*,#261,.F.);
#365=ORIENTED_EDGE('',*,*,#250,.T.);
#366=ORIENTED_EDGE('',*,*,#252,.F.);
#367=ORIENTED_EDGE('',*,*,#271,.F.);
#368=ORIENTED_EDGE('',*,*,#272,.F.);
#369=ORIENTED_EDGE('',*,*,#271,.T.);
#370=ORIENTED_EDGE('',*,*,#251,.F.);
#371=ORIENTED_EDGE('',*,*,#273,.F.);
#372=ORIENTED_EDGE('',*,*,#274,.F.);
#373=ORIENTED_EDGE('',*,*,#273,.T.);
#374=ORIENTED_EDGE('',*,*,#253,.F.);
#375=ORIENTED_EDGE('',*,*,#248,.F.);
#376=ORIENTED_EDGE('',*,*,#260,.F.);
#377=ORIENTED_EDGE('',*,*,#231,.T.);
#378=ORIENTED_EDGE('',*,*,#236,.F.);
#379=ORIENTED_EDGE('',*,*,#233,.F.);
#380=ORIENTED_EDGE('',*,*,#246,.F.);
#381=ORIENTED_EDGE('',*,*,#269,.F.);
#382=ORIENTED_EDGE('',*,*,#274,.T.);
#383=ORIENTED_EDGE('',*,*,#268,.T.);
#384=ORIENTED_EDGE('',*,*,#270,.T.);
#385=ORIENTED_EDGE('',*,*,#272,.T.);
#386=ORIENTED_EDGE('',*,*,#220,.T.);
#387=ORIENTED_EDGE('',*,*,#223,.T.);
#388=ORIENTED_EDGE('',*,*,#257,.T.);
#389=CYLINDRICAL_SURFACE('',#428,5.);
#390=CYLINDRICAL_SURFACE('',#431,5.);
#391=CYLINDRICAL_SURFACE('',#435,40.);
#392=CYLINDRICAL_SURFACE('',#445,60.);
#393=CYLINDRICAL_SURFACE('',#449,14.);
#394=ADVANCED_FACE('',(#35),#389,.F.);
#395=ADVANCED_FACE('',(#36),#390,.F.);
#396=ADVANCED_FACE('',(#37),#20,.T.);
#397=ADVANCED_FACE('',(#38),#391,.T.);
#398=ADVANCED_FACE('',(#39),#21,.T.);
#399=ADVANCED_FACE('',(#40),#22,.T.);
#400=ADVANCED_FACE('',(#41),#23,.T.);
#401=ADVANCED_FACE('',(#42),#24,.T.);
#402=ADVANCED_FACE('',(#43),#392,.F.);
#403=ADVANCED_FACE('',(#44),#25,.T.);
#404=ADVANCED_FACE('',(#45),#393,.F.);
#405=ADVANCED_FACE('',(#46,#15,#16),#26,.T.);
#406=ADVANCED_FACE('',(#47),#27,.F.);
#407=ADVANCED_FACE('',(#48),#28,.F.);
#408=ADVANCED_FACE('',(#49),#29,.T.);
#409=ADVANCED_FACE('',(#50),#30,.T.);
#410=ADVANCED_FACE('',(#51),#31,.T.);
#411=ADVANCED_FACE('',(#52),#32,.T.);
#412=ADVANCED_FACE('',(#53),#33,.T.);
#413=ADVANCED_FACE('',(#54,#17,#18,#19),#34,.F.);
#414=CLOSED_SHELL('',(#394,#395,#396,#397,#398,#399,#400,#401,#402,#403,
#404,#405,#406,#407,#408,#409,#410,#411,#412,#413));
#415=DERIVED_UNIT_ELEMENT(#417,1.);
#416=DERIVED_UNIT_ELEMENT(#696,-3.);
#417=(
MASS_UNIT()
NAMED_UNIT(*)
SI_UNIT(.KILO.,.GRAM.)
);
#418=DERIVED_UNIT((#415,#416));
#419=MEASURE_REPRESENTATION_ITEM('density measure',
POSITIVE_RATIO_MEASURE(7850.),#418);
#420=PROPERTY_DEFINITION_REPRESENTATION(#425,#422);
#421=PROPERTY_DEFINITION_REPRESENTATION(#426,#423);
#422=REPRESENTATION('material name',(#424),#693);
#423=REPRESENTATION('density',(#419),#693);
#424=DESCRIPTIVE_REPRESENTATION_ITEM('Steel','Steel');
#425=PROPERTY_DEFINITION('material property','material name',#703);
#426=PROPERTY_DEFINITION('material property','density of part',#703);
#427=AXIS2_PLACEMENT_3D('',#575,#462,#463);
#428=AXIS2_PLACEMENT_3D('',#576,#464,#465);
#429=AXIS2_PLACEMENT_3D('',#578,#466,#467);
#430=AXIS2_PLACEMENT_3D('',#581,#469,#470);
#431=AXIS2_PLACEMENT_3D('',#582,#471,#472);
#432=AXIS2_PLACEMENT_3D('',#584,#473,#474);
#433=AXIS2_PLACEMENT_3D('',#587,#476,#477);
#434=AXIS2_PLACEMENT_3D('',#588,#478,#479);
#435=AXIS2_PLACEMENT_3D('',#597,#484,#485);
#436=AXIS2_PLACEMENT_3D('',#600,#486,#487);
#437=AXIS2_PLACEMENT_3D('',#604,#489,#490);
#438=AXIS2_PLACEMENT_3D('',#606,#492,#493);
#439=AXIS2_PLACEMENT_3D('',#615,#498,#499);
#440=AXIS2_PLACEMENT_3D('',#618,#502,#503);
#441=AXIS2_PLACEMENT_3D('',#619,#504,#505);
#442=AXIS2_PLACEMENT_3D('',#626,#509,#510);
#443=AXIS2_PLACEMENT_3D('',#627,#511,#512);
#444=AXIS2_PLACEMENT_3D('',#629,#513,#514);
#445=AXIS2_PLACEMENT_3D('',#635,#518,#519);
#446=AXIS2_PLACEMENT_3D('',#638,#520,#521);
#447=AXIS2_PLACEMENT_3D('',#642,#523,#524);
#448=AXIS2_PLACEMENT_3D('',#644,#526,#527);
#449=AXIS2_PLACEMENT_3D('',#650,#531,#532);
#450=AXIS2_PLACEMENT_3D('',#654,#534,#535);
#451=AXIS2_PLACEMENT_3D('',#657,#537,#538);
#452=AXIS2_PLACEMENT_3D('',#659,#539,#540);
#453=AXIS2_PLACEMENT_3D('',#661,#542,#543);
#454=AXIS2_PLACEMENT_3D('',#664,#546,#547);
#455=AXIS2_PLACEMENT_3D('',#668,#550,#551);
#456=AXIS2_PLACEMENT_3D('',#672,#554,#555);
#457=AXIS2_PLACEMENT_3D('',#674,#557,#558);
#458=AXIS2_PLACEMENT_3D('',#680,#562,#563);
#459=AXIS2_PLACEMENT_3D('',#684,#566,#567);
#460=AXIS2_PLACEMENT_3D('',#688,#570,#571);
#461=AXIS2_PLACEMENT_3D('',#690,#573,#574);
#462=DIRECTION('axis',(0.,0.,1.));
#463=DIRECTION('refdir',(1.,0.,0.));
#464=DIRECTION('center_axis',(0.,0.,-1.));
#465=DIRECTION('ref_axis',(-1.,0.,0.));
#466=DIRECTION('center_axis',(0.,0.,-1.));
#467=DIRECTION('ref_axis',(-1.,0.,0.));
#468=DIRECTION('',(0.,0.,-1.));
#469=DIRECTION('center_axis',(0.,0.,1.));
#470=DIRECTION('ref_axis',(-1.,0.,0.));
#471=DIRECTION('center_axis',(0.,0.,-1.));
#472=DIRECTION('ref_axis',(-1.,0.,0.));
#473=DIRECTION('center_axis',(0.,0.,-1.));
#474=DIRECTION('ref_axis',(-1.,0.,0.));
#475=DIRECTION('',(0.,0.,-1.));
#476=DIRECTION('center_axis',(0.,0.,1.));
#477=DIRECTION('ref_axis',(-1.,0.,0.));
#478=DIRECTION('center_axis',(1.,6.66133814775094E-17,0.));
#479=DIRECTION('ref_axis',(-6.66133814775094E-17,1.,0.));
#480=DIRECTION('',(6.66133814775094E-17,-1.,0.));
#481=DIRECTION('',(0.,0.,1.));
#482=DIRECTION('',(-6.66133814775094E-17,1.,0.));
#483=DIRECTION('',(0.,0.,1.));
#484=DIRECTION('center_axis',(0.,0.,1.));
#485=DIRECTION('ref_axis',(-0.7806247497998,0.625,0.));
#486=DIRECTION('center_axis',(0.,0.,-1.));
#487=DIRECTION('ref_axis',(-0.7806247497998,0.625,0.));
#488=DIRECTION('',(0.,0.,1.));
#489=DIRECTION('center_axis',(0.,0.,1.));
#490=DIRECTION('ref_axis',(-0.7806247497998,0.625,0.));
#491=DIRECTION('',(0.,0.,1.));
#492=DIRECTION('center_axis',(1.,6.66133814775094E-17,0.));
#493=DIRECTION('ref_axis',(-6.66133814775094E-17,1.,0.));
#494=DIRECTION('',(6.66133814775094E-17,-1.,0.));
#495=DIRECTION('',(0.,0.,1.));
#496=DIRECTION('',(-6.66133814775094E-17,1.,0.));
#497=DIRECTION('',(0.,0.,1.));
#498=DIRECTION('center_axis',(0.,0.,1.));
#499=DIRECTION('ref_axis',(-1.,0.,0.));
#500=DIRECTION('',(-1.,0.,0.));
#501=DIRECTION('',(1.,0.,0.));
#502=DIRECTION('center_axis',(0.,0.,-1.));
#503=DIRECTION('ref_axis',(-1.,0.,0.));
#504=DIRECTION('center_axis',(0.,0.,1.));
#505=DIRECTION('ref_axis',(1.,0.,0.));
#506=DIRECTION('',(1.,0.,0.));
#507=DIRECTION('',(0.,1.,0.));
#508=DIRECTION('',(-1.,0.,0.));
#509=DIRECTION('center_axis',(0.,0.,-1.));
#510=DIRECTION('ref_axis',(-1.,0.,0.));
#511=DIRECTION('center_axis',(0.,0.,1.));
#512=DIRECTION('ref_axis',(1.,0.,0.));
#513=DIRECTION('center_axis',(0.,0.,-1.));
#514=DIRECTION('ref_axis',(-1.,0.,0.));
#515=DIRECTION('',(1.,0.,0.));
#516=DIRECTION('',(0.,1.,0.));
#517=DIRECTION('',(-1.,0.,0.));
#518=DIRECTION('center_axis',(0.,0.,1.));
#519=DIRECTION('ref_axis',(-0.90905934288631,0.416666666666666,0.));
#520=DIRECTION('center_axis',(0.,0.,1.));
#521=DIRECTION('ref_axis',(-0.90905934288631,0.416666666666666,0.));
#522=DIRECTION('',(0.,0.,1.));
#523=DIRECTION('center_axis',(0.,0.,-1.));
#524=DIRECTION('ref_axis',(-0.90905934288631,0.416666666666666,0.));
#525=DIRECTION('',(0.,0.,1.));
#526=DIRECTION('center_axis',(0.,0.,1.));
#527=DIRECTION('ref_axis',(-1.,0.,0.));
#528=DIRECTION('',(0.,-1.,0.));
#529=DIRECTION('',(1.,0.,0.));
#530=DIRECTION('',(-1.,0.,0.));
#531=DIRECTION('center_axis',(0.,0.,-1.));
#532=DIRECTION('ref_axis',(-1.,0.,0.));
#533=DIRECTION('',(0.,0.,-1.));
#534=DIRECTION('center_axis',(0.,0.,1.));
#535=DIRECTION('ref_axis',(-1.,0.,0.));
#536=DIRECTION('',(0.,0.,-1.));
#537=DIRECTION('center_axis',(0.,0.,1.));
#538=DIRECTION('ref_axis',(-1.,0.,0.));
#539=DIRECTION('center_axis',(0.,0.,1.));
#540=DIRECTION('ref_axis',(-1.,0.,0.));
#541=DIRECTION('',(0.,0.,-1.));
#542=DIRECTION('center_axis',(0.,0.,1.));
#543=DIRECTION('ref_axis',(1.,0.,0.));
#544=DIRECTION('',(-1.,0.,0.));
#545=DIRECTION('',(1.,0.,0.));
#546=DIRECTION('center_axis',(0.,-1.,0.));
#547=DIRECTION('ref_axis',(-1.,0.,0.));
#548=DIRECTION('',(0.,0.,1.));
#549=DIRECTION('',(-1.,0.,0.));
#550=DIRECTION('center_axis',(0.,1.,0.));
#551=DIRECTION('ref_axis',(1.,0.,0.));
#552=DIRECTION('',(1.,0.,0.));
#553=DIRECTION('',(0.,0.,-1.));
#554=DIRECTION('center_axis',(0.,0.,1.));
#555=DIRECTION('ref_axis',(-1.,0.,0.));
#556=DIRECTION('',(0.,-1.,0.));
#557=DIRECTION('center_axis',(1.,0.,0.));
#558=DIRECTION('ref_axis',(0.,1.,0.));
#559=DIRECTION('',(0.,0.,1.));
#560=DIRECTION('',(0.,-1.,0.));
#561=DIRECTION('',(0.,0.,1.));
#562=DIRECTION('center_axis',(0.,-1.,0.));
#563=DIRECTION('ref_axis',(1.,0.,0.));
#564=DIRECTION('',(-1.,0.,0.));
#565=DIRECTION('',(0.,0.,1.));
#566=DIRECTION('center_axis',(-1.,0.,0.));
#567=DIRECTION('ref_axis',(0.,-1.,0.));
#568=DIRECTION('',(0.,1.,0.));
#569=DIRECTION('',(0.,0.,1.));
#570=DIRECTION('center_axis',(0.,1.,0.));
#571=DIRECTION('ref_axis',(-1.,0.,0.));
#572=DIRECTION('',(1.,0.,0.));
#573=DIRECTION('center_axis',(0.,0.,1.));
#574=DIRECTION('ref_axis',(1.,0.,0.));
#575=CARTESIAN_POINT('',(0.,0.,0.));
#576=CARTESIAN_POINT('Origin',(-33.5528258147577,-15.4508497187474,22.));
#577=CARTESIAN_POINT('',(-28.5528258147577,-15.4508497187474,22.));
#578=CARTESIAN_POINT('Origin',(-33.5528258147577,-15.4508497187474,22.));
#579=CARTESIAN_POINT('',(-28.5528258147577,-15.4508497187474,0.));
#580=CARTESIAN_POINT('',(-28.5528258147577,-15.4508497187474,22.));
#581=CARTESIAN_POINT('Origin',(-33.5528258147577,-15.4508497187474,0.));
#582=CARTESIAN_POINT('Origin',(-33.5528258147577,15.4508497187474,22.));
#583=CARTESIAN_POINT('',(-28.5528258147577,15.4508497187474,22.));
#584=CARTESIAN_POINT('Origin',(-33.5528258147577,15.4508497187474,22.));
#585=CARTESIAN_POINT('',(-28.5528258147577,15.4508497187474,0.));
#586=CARTESIAN_POINT('',(-28.5528258147577,15.4508497187474,22.));
#587=CARTESIAN_POINT('Origin',(-33.5528258147577,15.4508497187474,0.));
#588=CARTESIAN_POINT('Origin',(1.,-25.,22.));
#589=CARTESIAN_POINT('',(1.,-5.19615242270663,22.));
#590=CARTESIAN_POINT('',(1.,-25.,22.));
#591=CARTESIAN_POINT('',(1.,-12.5,22.));
#592=CARTESIAN_POINT('',(1.,-5.19615242270663,28.));
#593=CARTESIAN_POINT('',(1.,-5.19615242270663,22.));
#594=CARTESIAN_POINT('',(1.,-25.,28.));
#595=CARTESIAN_POINT('',(1.,-25.,28.));
#596=CARTESIAN_POINT('',(1.,-25.,22.));
#597=CARTESIAN_POINT('Origin',(14.,0.,22.));
#598=CARTESIAN_POINT('',(-17.224989991992,-25.,22.));
#599=CARTESIAN_POINT('',(-17.224989991992,25.,22.));
#600=CARTESIAN_POINT('Origin',(14.,0.,22.));
#601=CARTESIAN_POINT('',(-17.224989991992,-25.,28.));
#602=CARTESIAN_POINT('',(-17.224989991992,-25.,22.));
#603=CARTESIAN_POINT('',(-17.224989991992,25.,28.));
#604=CARTESIAN_POINT('Origin',(14.,0.,28.));
#605=CARTESIAN_POINT('',(-17.224989991992,25.,22.));
#606=CARTESIAN_POINT('Origin',(1.,5.19615242270664,22.));
#607=CARTESIAN_POINT('',(1.,25.,22.));
#608=CARTESIAN_POINT('',(1.,5.19615242270664,22.));
#609=CARTESIAN_POINT('',(1.,2.59807621135332,22.));
#610=CARTESIAN_POINT('',(1.,25.,28.));
#611=CARTESIAN_POINT('',(1.,25.,22.));
#612=CARTESIAN_POINT('',(1.,5.19615242270664,28.));
#613=CARTESIAN_POINT('',(1.,-25.,28.));
#614=CARTESIAN_POINT('',(1.,5.19615242270664,22.));
#615=CARTESIAN_POINT('Origin',(-12.5,0.,28.));
#616=CARTESIAN_POINT('',(54.,25.,28.));
#617=CARTESIAN_POINT('',(-54.,-25.,28.));
#618=CARTESIAN_POINT('Origin',(14.,0.,28.));
#619=CARTESIAN_POINT('Origin',(0.,0.,22.));
#620=CARTESIAN_POINT('',(54.,-25.,22.));
#621=CARTESIAN_POINT('',(54.,-25.,22.));
#622=CARTESIAN_POINT('',(54.,-11.,22.));
#623=CARTESIAN_POINT('',(54.,25.,22.));
#624=CARTESIAN_POINT('',(22.6602540378444,-11.,22.));
#625=CARTESIAN_POINT('',(27.,-11.,22.));
#626=CARTESIAN_POINT('Origin',(14.,0.,22.));
#627=CARTESIAN_POINT('Origin',(0.,0.,22.));
#628=CARTESIAN_POINT('',(22.6602540378444,11.,22.));
#629=CARTESIAN_POINT('Origin',(14.,0.,22.));
#630=CARTESIAN_POINT('',(54.,11.,22.));
#631=CARTESIAN_POINT('',(11.3301270189222,11.,22.));
#632=CARTESIAN_POINT('',(54.,25.,22.));
#633=CARTESIAN_POINT('',(54.,25.,22.));
#634=CARTESIAN_POINT('',(-54.,25.,22.));
#635=CARTESIAN_POINT('Origin',(14.,0.,22.));
#636=CARTESIAN_POINT('',(-40.5435605731786,25.,22.));
#637=CARTESIAN_POINT('',(-40.5435605731786,-25.,22.));
#638=CARTESIAN_POINT('Origin',(14.,0.,22.));
#639=CARTESIAN_POINT('',(-40.5435605731786,25.,28.));
#640=CARTESIAN_POINT('',(-40.5435605731786,25.,22.));
#641=CARTESIAN_POINT('',(-40.5435605731786,-25.,28.));
#642=CARTESIAN_POINT('Origin',(14.,0.,28.));
#643=CARTESIAN_POINT('',(-40.5435605731786,-25.,22.));
#644=CARTESIAN_POINT('Origin',(-47.2717802865893,-8.88178419700125E-15,
28.));
#645=CARTESIAN_POINT('',(-54.,25.,28.));
#646=CARTESIAN_POINT('',(-54.,-25.,28.));
#647=CARTESIAN_POINT('',(-54.,25.,28.));
#648=CARTESIAN_POINT('',(-54.,-25.,28.));
#649=CARTESIAN_POINT('',(54.,25.,28.));
#650=CARTESIAN_POINT('Origin',(14.,0.,22.));
#651=CARTESIAN_POINT('',(22.6602540378444,-11.,16.));
#652=CARTESIAN_POINT('',(22.6602540378444,-11.,22.));
#653=CARTESIAN_POINT('',(28.,-1.71450551880629E-15,16.));
#654=CARTESIAN_POINT('Origin',(14.,0.,16.));
#655=CARTESIAN_POINT('',(28.,-1.71450551880629E-15,0.));
#656=CARTESIAN_POINT('',(28.,-1.71450551880629E-15,22.));
#657=CARTESIAN_POINT('Origin',(14.,0.,0.));
#658=CARTESIAN_POINT('',(22.6602540378444,11.,16.));
#659=CARTESIAN_POINT('Origin',(14.,0.,16.));
#660=CARTESIAN_POINT('',(22.6602540378444,11.,22.));
#661=CARTESIAN_POINT('Origin',(0.,0.,22.));
#662=CARTESIAN_POINT('',(-54.,25.,22.));
#663=CARTESIAN_POINT('',(54.,-25.,22.));
#664=CARTESIAN_POINT('Origin',(54.,-11.,22.));
#665=CARTESIAN_POINT('',(54.,-11.,16.));
#666=CARTESIAN_POINT('',(54.,-11.,11.));
#667=CARTESIAN_POINT('',(54.,-11.,16.));
#668=CARTESIAN_POINT('Origin',(22.6602540378444,11.,22.));
#669=CARTESIAN_POINT('',(54.,11.,16.));
#670=CARTESIAN_POINT('',(54.,11.,16.));
#671=CARTESIAN_POINT('',(54.,11.,11.));
#672=CARTESIAN_POINT('Origin',(0.,-8.88178419700125E-15,16.));
#673=CARTESIAN_POINT('',(54.,-12.5,16.));
#674=CARTESIAN_POINT('Origin',(54.,-25.,0.));
#675=CARTESIAN_POINT('',(54.,-25.,0.));
#676=CARTESIAN_POINT('',(54.,-25.,0.));
#677=CARTESIAN_POINT('',(54.,25.,0.));
#678=CARTESIAN_POINT('',(54.,25.,0.));
#679=CARTESIAN_POINT('',(54.,25.,0.));
#680=CARTESIAN_POINT('Origin',(-54.,-25.,0.));
#681=CARTESIAN_POINT('',(-54.,-25.,0.));
#682=CARTESIAN_POINT('',(54.,-25.,0.));
#683=CARTESIAN_POINT('',(-54.,-25.,0.));
#684=CARTESIAN_POINT('Origin',(-54.,25.,0.));
#685=CARTESIAN_POINT('',(-54.,25.,0.));
#686=CARTESIAN_POINT('',(-54.,-25.,0.));
#687=CARTESIAN_POINT('',(-54.,25.,0.));
#688=CARTESIAN_POINT('Origin',(54.,25.,0.));
#689=CARTESIAN_POINT('',(-54.,25.,0.));
#690=CARTESIAN_POINT('Origin',(0.,0.,0.));
#691=UNCERTAINTY_MEASURE_WITH_UNIT(LENGTH_MEASURE(0.01),#695,
'DISTANCE_ACCURACY_VALUE',
'Maximum model space distance between geometric entities at asserted c
onnectivities');
#692=UNCERTAINTY_MEASURE_WITH_UNIT(LENGTH_MEASURE(0.01),#695,
'DISTANCE_ACCURACY_VALUE',
'Maximum model space distance between geometric entities at asserted c
onnectivities');
#693=(
GEOMETRIC_REPRESENTATION_CONTEXT(3)
GLOBAL_UNCERTAINTY_ASSIGNED_CONTEXT((#691))
GLOBAL_UNIT_ASSIGNED_CONTEXT((#695,#697,#698))
REPRESENTATION_CONTEXT('','3D')
);
#694=(
GEOMETRIC_REPRESENTATION_CONTEXT(3)
GLOBAL_UNCERTAINTY_ASSIGNED_CONTEXT((#692))
GLOBAL_UNIT_ASSIGNED_CONTEXT((#695,#697,#698))
REPRESENTATION_CONTEXT('','3D')
);
#695=(
LENGTH_UNIT()
NAMED_UNIT(*)
SI_UNIT(.MILLI.,.METRE.)
);
#696=(
LENGTH_UNIT()
NAMED_UNIT(*)
SI_UNIT($,.METRE.)
);
#697=(
NAMED_UNIT(*)
PLANE_ANGLE_UNIT()
SI_UNIT($,.RADIAN.)
);
#698=(
NAMED_UNIT(*)
SI_UNIT($,.STERADIAN.)
SOLID_ANGLE_UNIT()
);
#699=SHAPE_DEFINITION_REPRESENTATION(#700,#701);
#700=PRODUCT_DEFINITION_SHAPE('',$,#703);
#701=SHAPE_REPRESENTATION('',(#427),#693);
#702=PRODUCT_DEFINITION_CONTEXT('part definition',#707,'design');
#703=PRODUCT_DEFINITION('2026-08-22-00-16-30-222',
'Pivot-Clevis-Bracket',#704,#702);
#704=PRODUCT_DEFINITION_FORMATION('',$,#709);
#705=PRODUCT_RELATED_PRODUCT_CATEGORY('Pivot-Clevis-Bracket',
'Pivot-Clevis-Bracket',(#709));
#706=APPLICATION_PROTOCOL_DEFINITION('international standard',
'automotive_design',2009,#707);
#707=APPLICATION_CONTEXT(
'Core Data for Automotive Mechanical Design Process');
#708=PRODUCT_CONTEXT('part definition',#707,'mechanical');
#709=PRODUCT('2026-08-22-00-16-30-222','Pivot-Clevis-Bracket',$,(#708));
#710=PRESENTATION_STYLE_ASSIGNMENT((#712));
#711=PRESENTATION_STYLE_ASSIGNMENT((#713));
#712=SURFACE_STYLE_USAGE(.BOTH.,#714);
#713=SURFACE_STYLE_USAGE(.BOTH.,#715);
#714=SURFACE_SIDE_STYLE('',(#716));
#715=SURFACE_SIDE_STYLE('',(#717));
#716=SURFACE_STYLE_FILL_AREA(#718);
#717=SURFACE_STYLE_FILL_AREA(#719);
#718=FILL_AREA_STYLE('Steel - Satin',(#720));
#719=FILL_AREA_STYLE('Aluminum - Cast',(#721));
#720=FILL_AREA_STYLE_COLOUR('Steel - Satin',#722);
#721=FILL_AREA_STYLE_COLOUR('Aluminum - Cast',#723);
#722=COLOUR_RGB('Steel - Satin',0.627450980392157,0.627450980392157,0.627450980392157);
#723=COLOUR_RGB('Aluminum - Cast',0.96078431372549,0.96078431372549,0.964705882352941);
ENDSEC;
END-ISO-10303-21;
