# WaveFront *.obj file (generated by Autodesk ATF)

mtllib Model.mtl

g Body1

v -2.855283 -1.545085 0.000000
v -2.872320 -1.674494 0.000000
v -2.922270 -1.795085 0.000000
v -3.001729 -1.898638 0.000000
v -3.105283 -1.978098 0.000000
v -3.225873 -2.028048 0.000000
v -3.355283 -2.045085 0.000000
v -3.484692 -2.028048 0.000000
v -3.605283 -1.978098 0.000000
v -3.708836 -1.898638 0.000000
v -3.788295 -1.795085 0.000000
v -3.838245 -1.674494 0.000000
v -3.855283 -1.545085 0.000000
v -3.838245 -1.415675 0.000000
v -3.788295 -1.295085 0.000000
v -3.708836 -1.191532 0.000000
v -3.605283 -1.112072 0.000000
v -3.484692 -1.062122 0.000000
v -3.355283 -1.045085 0.000000
v -3.225873 -1.062122 0.000000
v -3.105283 -1.112072 0.000000
v -3.001729 -1.191532 0.000000
v -2.922270 -1.295085 0.000000
v -2.872320 -1.415675 0.000000
v -2.855283 -1.545085 2.200000
v -2.872320 -1.415675 2.200000
v -2.922270 -1.295085 2.200000
v -3.001729 -1.191532 2.200000
v -3.105283 -1.112072 2.200000
v -3.225873 -1.062122 2.200000
v -3.355283 -1.045085 2.200000
v -3.484692 -1.062122 2.200000
v -3.605283 -1.112072 2.200000
v -3.708836 -1.191532 2.200000
v -3.788295 -1.295085 2.200000
v -3.838245 -1.415675 2.200000
v -3.855283 -1.545085 2.200000
v -3.838245 -1.674494 2.200000
v -3.788295 -1.795085 2.200000
v -3.708836 -1.898638 2.200000
v -3.605283 -1.978098 2.200000
v -3.484692 -2.028048 2.200000
v -3.355283 -2.045085 2.200000
v -3.225873 -2.028048 2.200000
v -3.105283 -1.978098 2.200000
v -3.001729 -1.898638 2.200000
v -2.922270 -1.795085 2.200000
v -2.872320 -1.674494 2.200000
v -2.855283 1.545085 0.000000
v -2.872320 1.415675 0.000000
v -2.922270 1.295085 0.000000
v -3.001729 1.191532 0.000000
v -3.105283 1.112072 0.000000
v -3.225873 1.062122 0.000000
v -3.355283 1.045085 0.000000
v -3.484692 1.062122 0.000000
v -3.605283 1.112072 0.000000
v -3.708836 1.191532 0.000000
v -3.788295 1.295085 0.000000
v -3.838245 1.415675 0.000000
v -3.855283 1.545085 0.000000
v -3.838245 1.674494 0.000000
v -3.788295 1.795085 0.000000
v -3.708836 1.898638 0.000000
v -3.605283 1.978098 0.000000
v -3.484692 2.028048 0.000000
v -3.355283 2.045085 0.000000
v -3.225873 2.028048 0.000000
v -3.105283 1.978098 0.000000
v -3.001729 1.898638 0.000000
v -2.922270 1.795085 0.000000
v -2.872320 1.674494 0.000000
v -2.855283 1.545085 2.200000
v -2.872320 1.674494 2.200000
v -2.922270 1.795085 2.200000
v -3.001729 1.898638 2.200000
v -3.105283 1.978098 2.200000
v -3.225873 2.028048 2.200000
v -3.355283 2.045085 2.200000
v -3.484692 2.028048 2.200000
v -3.605283 1.978098 2.200000
v -3.708836 1.898638 2.200000
v -3.788295 1.795085 2.200000
v -3.838245 1.674494 2.200000
v -3.855283 1.545085 2.200000
v -3.838245 1.415675 2.200000
v -3.788295 1.295085 2.200000
v -3.708836 1.191532 2.200000
v -3.605283 1.112072 2.200000
v -3.484692 1.062122 2.200000
v -3.355283 1.045085 2.200000
v -3.225873 1.062122 2.200000
v -3.105283 1.112072 2.200000
v -3.001729 1.191532 2.200000
v -2.922270 1.295085 2.200000
v -2.872320 1.415675 2.200000
v 0.100000 -2.500000 2.200000
v 0.100000 -0.519615 2.200000
v 0.100000 -0.519615 2.800000
v 0.100000 -2.500000 2.800000
v -1.722499 2.500000 2.200000
v -2.061091 2.005206 2.200000
v -2.321923 1.465362 2.200000
v -2.499137 0.892596 2.200000
v -2.588751 0.299777 2.200000
v -2.588751 -0.299777 2.200000
v -2.499137 -0.892596 2.200000
v -2.321923 -1.465362 2.200000
v -2.061091 -2.005206 2.200000
v -1.722499 -2.500000 2.200000
v -1.722499 -2.500000 2.800000
v -2.061091 -2.005206 2.800000
v -2.321923 -1.465362 2.800000
v -2.499137 -0.892596 2.800000
v -2.588751 -0.299777 2.800000
v -2.588751 0.299777 2.800000
v -2.499137 0.892596 2.800000
v -2.321923 1.465362 2.800000
v -2.061091 2.005206 2.800000
v -1.722499 2.500000 2.800000
v 0.100000 0.519615 2.200000
v 0.100000 2.500000 2.200000
v 0.100000 2.500000 2.800000
v 0.100000 0.519615 2.800000
v 0.011231 -0.176976 2.800000
v 0.011231 0.176976 2.800000
v 5.400000 -2.500000 2.200000
v 5.400000 -1.100000 2.200000
v 2.266025 -1.100000 2.200000
v 1.989670 -1.269760 2.200000
v 1.681667 -1.371373 2.200000
v 1.358548 -1.399386 2.200000
v 1.037653 -1.352296 2.200000
v 0.736205 -1.232630 2.200000
v 0.470383 -1.046810 2.200000
v 0.254451 -0.804809 2.200000
v 0.254451 0.804809 2.200000
v 0.470383 1.046810 2.200000
v 0.736205 1.232630 2.200000
v 1.037653 1.352296 2.200000
v 1.358548 1.399386 2.200000
v 1.681667 1.371373 2.200000
v 1.989670 1.269760 2.200000
v 2.266025 1.100000 2.200000
v 5.400000 1.100000 2.200000
v 5.400000 2.500000 2.200000
v -4.054356 -2.500000 2.200000
v -4.319499 -1.813101 2.200000
v -4.498510 -1.098899 2.200000
v -4.588695 -0.368148 2.200000
v -4.588695 0.368148 2.200000
v -4.498510 1.098899 2.200000
v -4.319499 1.813101 2.200000
v -4.054356 2.500000 2.200000
v -4.054356 2.500000 2.800000
v -4.319499 1.813101 2.800000
v -4.498510 1.098899 2.800000
v -4.588695 0.368148 2.800000
v -4.588695 -0.368148 2.800000
v -4.498510 -1.098899 2.800000
v -4.319499 -1.813101 2.800000
v -4.054356 -2.500000 2.800000
v -5.400000 2.500000 2.800000
v -5.400000 -2.500000 2.800000
v 2.266025 -1.100000 1.600000
v 2.518228 -0.842357 1.600000
v 2.696271 -0.528849 1.600000
v 2.788346 -0.180268 1.600000
v 2.788346 0.180268 1.600000
v 2.696271 0.528849 1.600000
v 2.518228 0.842357 1.600000
v 2.266025 1.100000 1.600000
v 2.800000 -0.000000 0.000000
v 2.752296 -0.362347 0.000000
v 2.612436 -0.700000 0.000000
v 2.389949 -0.989949 0.000000
v 2.100000 -1.212436 0.000000
v 1.762347 -1.352296 0.000000
v 1.400000 -1.400000 0.000000
v 1.037653 -1.352296 0.000000
v 0.700000 -1.212436 0.000000
v 0.410051 -0.989949 0.000000
v 0.187564 -0.700000 0.000000
v 0.047704 -0.362347 0.000000
v 0.000000 0.000000 0.000000
v 0.047704 0.362347 0.000000
v 0.187564 0.700000 0.000000
v 0.410051 0.989949 0.000000
v 0.700000 1.212436 0.000000
v 1.037653 1.352296 0.000000
v 1.400000 1.400000 0.000000
v 1.762347 1.352296 0.000000
v 2.100000 1.212436 0.000000
v 2.389949 0.989949 0.000000
v 2.612436 0.700000 0.000000
v 2.752296 0.362347 0.000000
v 5.400000 -1.100000 1.600000
v 5.400000 1.100000 1.600000
v 5.400000 -2.500000 0.000000
v 5.400000 2.500000 0.000000
v -5.400000 -2.500000 0.000000
v -5.400000 2.500000 0.000000
vt 2.200000 -1.439897 0.000000
vt 0.000000 -1.439897 0.000000
vt 2.200000 -1.570796 0.000000
vt 0.000000 -1.570796 0.000000
vt 2.200000 1.570796 0.000000
vt 0.000000 1.570796 0.000000
vt 2.200000 1.439897 0.000000
vt 0.000000 1.439897 0.000000
vt 2.200000 1.308997 0.000000
vt 0.000000 1.308997 0.000000
vt 2.200000 1.178097 0.000000
vt 0.000000 1.178097 0.000000
vt 2.200000 1.047198 0.000000
vt 0.000000 1.047198 0.000000
vt 2.200000 0.916298 0.000000
vt 0.000000 0.916298 0.000000
vt 2.200000 0.785398 0.000000
vt 0.000000 0.785398 0.000000
vt 2.200000 0.654498 0.000000
vt 0.000000 0.654498 0.000000
vt 2.200000 0.523599 0.000000
vt 0.000000 0.523599 0.000000
vt 2.200000 0.392699 0.000000
vt 0.000000 0.392699 0.000000
vt 2.200000 0.261799 0.000000
vt 0.000000 0.261799 0.000000
vt 2.200000 0.130900 0.000000
vt 0.000000 0.130900 0.000000
vt 2.200000 0.000000 0.000000
vt 0.000000 0.000000 0.000000
vt 2.200000 -0.130900 0.000000
vt -0.000000 -0.130900 0.000000
vt 2.200000 -0.261799 0.000000
vt -0.000000 -0.261799 0.000000
vt 2.200000 -0.392699 0.000000
vt 0.000000 -0.392699 0.000000
vt 2.200000 -0.523599 0.000000
vt 0.000000 -0.523599 0.000000
vt 2.200000 -0.654498 0.000000
vt 0.000000 -0.654498 0.000000
vt 2.200000 -0.785398 0.000000
vt 0.000000 -0.785398 0.000000
vt 2.200000 -0.916298 0.000000
vt 0.000000 -0.916298 0.000000
vt 2.200000 -1.047198 0.000000
vt 0.000000 -1.047198 0.000000
vt 2.200000 -1.178097 0.000000
vt 0.000000 -1.178097 0.000000
vt 2.200000 -1.308997 0.000000
vt 0.000000 -1.308997 0.000000
vt 2.200000 -1.439897 0.000000
vt 0.000000 -1.439897 0.000000
vt 2.200000 -1.570796 0.000000
vt 0.000000 -1.570796 0.000000
vt 2.200000 1.570796 0.000000
vt 0.000000 1.570796 0.000000
vt 2.200000 1.439897 0.000000
vt 0.000000 1.439897 0.000000
vt 2.200000 1.308997 0.000000
vt 0.000000 1.308997 0.000000
vt 2.200000 1.178097 0.000000
vt 0.000000 1.178097 0.000000
vt 2.200000 1.047198 0.000000
vt 0.000000 1.047198 0.000000
vt 2.200000 0.916298 0.000000
vt 0.000000 0.916298 0.000000
vt 2.200000 0.785398 0.000000
vt 0.000000 0.785398 0.000000
vt 2.200000 0.654498 0.000000
vt 0.000000 0.654498 0.000000
vt 2.200000 0.523599 0.000000
vt 0.000000 0.523599 0.000000
vt 2.200000 0.392699 0.000000
vt 0.000000 0.392699 0.000000
vt 2.200000 0.261799 0.000000
vt 0.000000 0.261799 0.000000
vt 2.200000 0.130900 0.000000
vt 0.000000 0.130900 0.000000
vt 2.200000 0.000000 0.000000
vt 0.000000 0.000000 0.000000
vt 2.200000 -0.130900 0.000000
vt 0.000000 -0.130900 0.000000
vt 2.200000 -0.261799 0.000000
vt -0.000000 -0.261799 0.000000
vt 2.200000 -0.392699 0.000000
vt 0.000000 -0.392699 0.000000
vt 2.200000 -0.523599 0.000000
vt 0.000000 -0.523599 0.000000
vt 2.200000 -0.654498 0.000000
vt -0.000000 -0.654498 0.000000
vt 2.200000 -0.785398 0.000000
vt 0.000000 -0.785398 0.000000
vt 2.200000 -0.916298 0.000000
vt 0.000000 -0.916298 0.000000
vt 2.200000 -1.047198 0.000000
vt 0.000000 -1.047198 0.000000
vt 2.200000 -1.178097 0.000000
vt 0.000000 -1.178097 0.000000
vt 2.200000 -1.308997 0.000000
vt 0.000000 -1.308997 0.000000
vt 0.000000 0.000000 0.000000
vt 1.980385 0.000000 0.000000
vt 0.000000 0.600000 0.000000
vt 1.980385 0.600000 0.000000
vt -0.600000 0.000000 0.000000
vt -0.000000 0.000000 0.000000
vt -0.600000 0.600117 0.000000
vt -0.000000 0.600117 0.000000
vt -0.600000 1.200234 0.000000
vt -0.000000 1.200234 0.000000
vt -0.600000 1.800351 0.000000
vt -0.000000 1.800351 0.000000
vt -0.600000 2.400468 0.000000
vt -0.000000 2.400468 0.000000
vt -0.600000 3.000585 0.000000
vt -0.000000 3.000585 0.000000
vt -0.600000 3.600702 0.000000
vt -0.000000 3.600702 0.000000
vt -0.600000 4.200818 0.000000
vt -0.000000 4.200818 0.000000
vt -0.600000 4.800935 0.000000
vt -0.000000 4.800935 0.000000
vt -0.600000 5.401052 0.000000
vt -0.000000 5.401052 0.000000
vt 0.000000 0.000000 0.000000
vt 1.980385 0.000000 0.000000
vt 0.000000 0.600000 0.000000
vt 1.980385 0.600000 0.000000
vt -1.350000 -2.500000 0.000000
vt 0.472499 -2.500000 0.000000
vt -1.350000 -0.519615 0.000000
vt -1.261231 -0.176976 0.000000
vt 0.811091 -2.005206 0.000000
vt 1.071923 -1.465362 0.000000
vt -1.261231 0.176976 0.000000
vt 1.249137 -0.892596 0.000000
vt 1.338751 -0.299777 0.000000
vt 1.338751 0.299777 0.000000
vt 1.249137 0.892596 0.000000
vt 1.071923 1.465362 0.000000
vt 0.811091 2.005206 0.000000
vt 0.472499 2.500000 0.000000
vt -1.350000 0.519615 0.000000
vt -1.350000 2.500000 0.000000
vt 0.100000 -0.519615 0.000000
vt 0.100000 -2.500000 0.000000
vt 0.254451 -0.804809 0.000000
vt 0.470383 -1.046810 0.000000
vt 0.736205 -1.232630 0.000000
vt 1.037653 -1.352296 0.000000
vt 1.358548 -1.399386 0.000000
vt 1.681667 -1.371373 0.000000
vt 5.400000 -2.500000 0.000000
vt 1.989670 -1.269760 0.000000
vt 5.400000 -1.100000 0.000000
vt 2.266025 -1.100000 0.000000
vt 0.100000 0.519615 0.000000
vt 0.254451 0.804809 0.000000
vt 0.100000 2.500000 0.000000
vt 0.470383 1.046810 0.000000
vt 0.736205 1.232630 0.000000
vt 1.037653 1.352296 0.000000
vt 1.358548 1.399386 0.000000
vt 1.681667 1.371373 0.000000
vt 5.400000 2.500000 0.000000
vt 1.989670 1.269760 0.000000
vt 5.400000 1.100000 0.000000
vt 2.266025 1.100000 0.000000
vt 0.600000 5.157305 0.000000
vt 0.000000 5.157305 0.000000
vt 0.600000 4.420547 0.000000
vt 0.000000 4.420547 0.000000
vt 0.600000 3.683789 0.000000
vt 0.000000 3.683789 0.000000
vt 0.600000 2.947032 0.000000
vt 0.000000 2.947032 0.000000
vt 0.600000 2.210274 0.000000
vt 0.000000 2.210274 0.000000
vt 0.600000 1.473516 0.000000
vt 0.000000 1.473516 0.000000
vt 0.600000 0.736758 0.000000
vt 0.000000 0.736758 0.000000
vt 0.600000 0.000000 0.000000
vt 0.000000 0.000000 0.000000
vt 0.672822 2.500000 0.000000
vt -0.138483 0.368148 0.000000
vt 0.672822 -2.500000 0.000000
vt -0.138483 -0.368148 0.000000
vt -0.228668 -1.098899 0.000000
vt -0.672822 2.500000 0.000000
vt -0.407679 1.813101 0.000000
vt -0.228668 1.098899 0.000000
vt -0.407679 -1.813101 0.000000
vt -0.672822 -2.500000 0.000000
vt 0.000000 -3.132840 0.000000
vt 0.600000 -3.132840 0.000000
vt 0.000000 -2.807779 0.000000
vt 2.200000 -2.932153 0.000000
vt 2.200000 -2.565634 0.000000
vt 2.200000 -3.298672 0.000000
vt 0.600000 -3.494380 0.000000
vt 2.200000 -3.665191 0.000000
vt 0.600000 -3.855920 0.000000
vt 2.200000 -4.031711 0.000000
vt 0.600000 -4.217460 0.000000
vt 2.200000 -4.398230 0.000000
vt 2.200000 4.398230 0.000000
vt 0.600000 4.579000 0.000000
vt 0.600000 4.217460 0.000000
vt 2.200000 4.031711 0.000000
vt 0.600000 3.855920 0.000000
vt 2.200000 3.665191 0.000000
vt 0.600000 3.494380 0.000000
vt 2.200000 3.298672 0.000000
vt 0.600000 3.132840 0.000000
vt 2.200000 2.932153 0.000000
vt 0.000000 3.132840 0.000000
vt 0.000000 2.807779 0.000000
vt 2.200000 2.565634 0.000000
vt 0.000000 2.482718 0.000000
vt 2.200000 2.199115 0.000000
vt 0.000000 2.157657 0.000000
vt 2.200000 1.832596 0.000000
vt 0.000000 1.832596 0.000000
vt 0.000000 1.507535 0.000000
vt 2.200000 1.466077 0.000000
vt 0.000000 1.182474 0.000000
vt 2.200000 1.099557 0.000000
vt 0.000000 0.857413 0.000000
vt 2.200000 0.733038 0.000000
vt 0.000000 0.532352 0.000000
vt 2.200000 0.366519 0.000000
vt -0.600000 0.532352 0.000000
vt -0.600000 0.177451 0.000000
vt 2.200000 0.000000 0.000000
vt -0.600000 -0.177451 0.000000
vt 2.200000 -0.366519 0.000000
vt -0.000000 -0.532352 0.000000
vt 2.200000 -0.733038 0.000000
vt -0.000000 -0.857413 0.000000
vt 2.200000 -1.099557 0.000000
vt -0.000000 -1.182474 0.000000
vt 2.200000 -1.466077 0.000000
vt -0.000000 -1.507535 0.000000
vt 2.200000 -1.832596 0.000000
vt -0.000000 -1.832596 0.000000
vt -0.000000 -2.157657 0.000000
vt -0.600000 -0.532352 0.000000
vt 2.200000 -2.199115 0.000000
vt 0.000000 -2.482718 0.000000
vt -2.872320 -1.415675 0.000000
vt -2.855283 -1.545085 0.000000
vt -2.321923 -1.465362 0.000000
vt -2.872320 -1.674494 0.000000
vt -2.061091 -2.005206 0.000000
vt -2.922270 -1.795085 0.000000
vt -3.001729 -1.898638 0.000000
vt -1.722499 -2.500000 0.000000
vt -3.105283 -1.978098 0.000000
vt -3.225873 -2.028048 0.000000
vt -4.054356 -2.500000 0.000000
vt -3.355283 -2.045085 0.000000
vt -3.484692 -2.028048 0.000000
vt -3.605283 -1.978098 0.000000
vt -3.708836 -1.898638 0.000000
vt -3.788295 -1.795085 0.000000
vt -3.838245 -1.674494 0.000000
vt -4.319499 -1.813101 0.000000
vt -3.855283 -1.545085 0.000000
vt -3.838245 -1.415675 0.000000
vt -4.498510 -1.098899 0.000000
vt -3.788295 -1.295085 0.000000
vt -4.588695 -0.368148 0.000000
vt -3.708836 -1.191532 0.000000
vt -3.605283 -1.112072 0.000000
vt -3.605283 1.112072 0.000000
vt -3.484692 -1.062122 0.000000
vt -3.484692 1.062122 0.000000
vt -3.355283 -1.045085 0.000000
vt -3.355283 1.045085 0.000000
vt -3.225873 -1.062122 0.000000
vt -3.225873 1.062122 0.000000
vt -2.588751 -0.299777 0.000000
vt -2.588751 0.299777 0.000000
vt -3.105283 -1.112072 0.000000
vt -3.001729 -1.191532 0.000000
vt -2.499137 -0.892596 0.000000
vt -2.922270 -1.295085 0.000000
vt -2.872320 1.674494 0.000000
vt -2.855283 1.545085 0.000000
vt -2.321923 1.465362 0.000000
vt -2.872320 1.415675 0.000000
vt -2.499137 0.892596 0.000000
vt -2.922270 1.295085 0.000000
vt -3.001729 1.191532 0.000000
vt -3.105283 1.112072 0.000000
vt -4.588695 0.368148 0.000000
vt -3.708836 1.191532 0.000000
vt -3.788295 1.295085 0.000000
vt -4.498510 1.098899 0.000000
vt -3.838245 1.415675 0.000000
vt -4.319499 1.813101 0.000000
vt -3.855283 1.545085 0.000000
vt -3.838245 1.674494 0.000000
vt -4.054356 2.500000 0.000000
vt -3.788295 1.795085 0.000000
vt -3.708836 1.898638 0.000000
vt -3.605283 1.978098 0.000000
vt -3.484692 2.028048 0.000000
vt -3.355283 2.045085 0.000000
vt -3.225873 2.028048 0.000000
vt -1.722499 2.500000 0.000000
vt -3.105283 1.978098 0.000000
vt -3.001729 1.898638 0.000000
vt -2.061091 2.005206 0.000000
vt -2.922270 1.795085 0.000000
vt -3.133975 0.000000 0.000000
vt -0.000000 0.000000 0.000000
vt -3.133975 0.600000 0.000000
vt -0.000000 0.600000 0.000000
vt -3.133975 0.000000 0.000000
vt -0.000000 0.000000 0.000000
vt -3.133975 0.600000 0.000000
vt -0.000000 0.600000 0.000000
vt -2.266025 -1.100000 0.000000
vt -2.518228 -0.842357 0.000000
vt -5.400000 -1.100000 0.000000
vt -2.696271 -0.528849 0.000000
vt -2.788346 -0.180268 0.000000
vt -2.788346 0.180268 0.000000
vt -5.400000 1.100000 0.000000
vt -2.696271 0.528849 0.000000
vt -2.518228 0.842357 0.000000
vt -2.266025 1.100000 0.000000
vt 3.600000 2.200000 0.000000
vt 3.600000 1.600000 0.000000
vt 5.000000 2.200000 0.000000
vt 5.000000 0.000000 0.000000
vt 1.400000 1.600000 0.000000
vt 0.000000 0.000000 0.000000
vt 0.000000 2.200000 0.000000
vt 1.400000 2.200000 0.000000
vt 10.800000 0.000000 0.000000
vt 5.500000 2.200000 0.000000
vt 0.000000 0.000000 0.000000
vt 3.677501 2.200000 0.000000
vt 1.345644 2.200000 0.000000
vt 10.800000 2.200000 0.000000
vt 5.500000 2.800000 0.000000
vt 3.677501 2.800000 0.000000
vt 1.345644 2.800000 0.000000
vt 0.000000 2.800000 0.000000
vt -0.000000 0.000000 0.000000
vt 5.000000 0.000000 0.000000
vt -0.000000 2.800000 0.000000
vt 5.000000 2.800000 0.000000
vt -0.000000 2.200000 0.000000
vt -0.000000 0.000000 0.000000
vt 5.300000 2.200000 0.000000
vt 10.800000 0.000000 0.000000
vt 7.122499 2.200000 0.000000
vt 9.454356 2.200000 0.000000
vt 10.800000 2.800000 0.000000
vt 9.454356 2.800000 0.000000
vt 7.122499 2.800000 0.000000
vt 5.300000 2.800000 0.000000
vt 2.872320 -1.415675 0.000000
vt -0.410051 -0.989949 0.000000
vt 2.855283 -1.545085 0.000000
vt -0.700000 -1.212436 0.000000
vt 2.872320 -1.674494 0.000000
vt 2.922270 -1.795085 0.000000
vt -1.037653 -1.352296 0.000000
vt 3.001729 -1.898638 0.000000
vt 3.105283 -1.978098 0.000000
vt -1.400000 -1.400000 0.000000
vt 3.225873 -2.028048 0.000000
vt -5.400000 -2.500000 0.000000
vt 5.400000 -2.500000 0.000000
vt 2.922270 -1.295085 0.000000
vt -0.187564 -0.700000 0.000000
vt 3.001729 -1.191532 0.000000
vt 3.105283 -1.112072 0.000000
vt -0.047704 -0.362347 0.000000
vt 3.225873 -1.062122 0.000000
vt -0.000000 0.000000 0.000000
vt 3.225873 1.062122 0.000000
vt -0.047704 0.362347 0.000000
vt 3.105283 1.112072 0.000000
vt -0.187564 0.700000 0.000000
vt 3.001729 1.191532 0.000000
vt 2.922270 1.295085 0.000000
vt 3.355283 1.045085 0.000000
vt 3.355283 -1.045085 0.000000
vt 3.484692 -1.062122 0.000000
vt 3.484692 1.062122 0.000000
vt 3.605283 -1.112072 0.000000
vt 3.605283 1.112072 0.000000
vt 3.708836 -1.191532 0.000000
vt 3.708836 1.191532 0.000000
vt 5.400000 2.500000 0.000000
vt 3.788295 -1.295085 0.000000
vt 3.838245 -1.415675 0.000000
vt 3.855283 -1.545085 0.000000
vt 3.838245 -1.674494 0.000000
vt 3.788295 -1.795085 0.000000
vt 3.708836 -1.898638 0.000000
vt 3.605283 -1.978098 0.000000
vt 3.484692 -2.028048 0.000000
vt 3.355283 -2.045085 0.000000
vt 2.872320 1.674494 0.000000
vt -0.700000 1.212436 0.000000
vt 2.855283 1.545085 0.000000
vt -0.410051 0.989949 0.000000
vt 2.872320 1.415675 0.000000
vt 2.922270 1.795085 0.000000
vt -1.037653 1.352296 0.000000
vt 3.001729 1.898638 0.000000
vt 3.105283 1.978098 0.000000
vt -1.400000 1.400000 0.000000
vt 3.225873 2.028048 0.000000
vt -5.400000 2.500000 0.000000
vt 3.355283 2.045085 0.000000
vt 3.484692 2.028048 0.000000
vt 3.605283 1.978098 0.000000
vt 3.708836 1.898638 0.000000
vt 3.788295 1.795085 0.000000
vt 3.838245 1.674494 0.000000
vt 3.855283 1.545085 0.000000
vt 3.838245 1.415675 0.000000
vt 3.788295 1.295085 0.000000
vt -2.752296 0.362347 0.000000
vt -2.800000 -0.000000 0.000000
vt -2.752296 -0.362347 0.000000
vt -2.612436 -0.700000 0.000000
vt -2.389949 -0.989949 0.000000
vt -2.100000 -1.212436 0.000000
vt -1.762347 -1.352296 0.000000
vt -2.612436 0.700000 0.000000
vt -2.389949 0.989949 0.000000
vt -2.100000 1.212436 0.000000
vt -1.762347 1.352296 0.000000
vn -0.965926 0.258819 0.000000
vn -0.965926 0.258819 0.000000
vn -1.000000 0.000000 0.000000
vn -1.000000 0.000000 0.000000
vn -0.965926 -0.258819 -0.000000
vn -0.965926 -0.258819 -0.000000
vn -0.866025 -0.500000 -0.000000
vn -0.866025 -0.500000 -0.000000
vn -0.707107 -0.707107 -0.000000
vn -0.707107 -0.707107 -0.000000
vn -0.500000 -0.866025 -0.000000
vn -0.500000 -0.866025 -0.000000
vn -0.258819 -0.965926 -0.000000
vn -0.258819 -0.965926 -0.000000
vn 0.000000 -1.000000 0.000000
vn 0.000000 -1.000000 0.000000
vn 0.258819 -0.965926 0.000000
vn 0.258819 -0.965926 0.000000
vn 0.500000 -0.866025 0.000000
vn 0.500000 -0.866025 0.000000
vn 0.707107 -0.707107 0.000000
vn 0.707107 -0.707107 0.000000
vn 0.866025 -0.500000 0.000000
vn 0.866025 -0.500000 0.000000
vn 0.965926 -0.258819 0.000000
vn 0.965926 -0.258819 0.000000
vn 1.000000 -0.000000 0.000000
vn 1.000000 -0.000000 0.000000
vn 0.965926 0.258819 0.000000
vn 0.965926 0.258819 0.000000
vn 0.866025 0.500000 0.000000
vn 0.866025 0.500000 0.000000
vn 0.707107 0.707107 0.000000
vn 0.707107 0.707107 0.000000
vn 0.500000 0.866025 0.000000
vn 0.500000 0.866025 0.000000
vn 0.258819 0.965926 0.000000
vn 0.258819 0.965926 0.000000
vn 0.000000 1.000000 0.000000
vn 0.000000 1.000000 0.000000
vn -0.258819 0.965926 0.000000
vn -0.258819 0.965926 0.000000
vn -0.500000 0.866025 0.000000
vn -0.500000 0.866025 0.000000
vn -0.707107 0.707107 0.000000
vn -0.707107 0.707107 0.000000
vn -0.866025 0.500000 0.000000
vn -0.866025 0.500000 0.000000
vn -0.965926 0.258819 0.000000
vn -0.965926 0.258819 0.000000
vn -1.000000 0.000000 0.000000
vn -1.000000 0.000000 0.000000
vn -0.965926 -0.258819 -0.000000
vn -0.965926 -0.258819 -0.000000
vn -0.866025 -0.500000 -0.000000
vn -0.866025 -0.500000 -0.000000
vn -0.707107 -0.707107 -0.000000
vn -0.707107 -0.707107 -0.000000
vn -0.500000 -0.866025 -0.000000
vn -0.500000 -0.866025 -0.000000
vn -0.258819 -0.965926 -0.000000
vn -0.258819 -0.965926 -0.000000
vn 0.000000 -1.000000 0.000000
vn 0.000000 -1.000000 0.000000
vn 0.258819 -0.965926 0.000000
vn 0.258819 -0.965926 0.000000
vn 0.500000 -0.866025 0.000000
vn 0.500000 -0.866025 0.000000
vn 0.707107 -0.707107 0.000000
vn 0.707107 -0.707107 0.000000
vn 0.866025 -0.500000 0.000000
vn 0.866025 -0.500000 0.000000
vn 0.965926 -0.258819 0.000000
vn 0.965926 -0.258819 0.000000
vn 1.000000 -0.000000 0.000000
vn 1.000000 -0.000000 0.000000
vn 0.965926 0.258819 0.000000
vn 0.965926 0.258819 0.000000
vn 0.866025 0.500000 0.000000
vn 0.866025 0.500000 0.000000
vn 0.707107 0.707107 0.000000
vn 0.707107 0.707107 0.000000
vn 0.500000 0.866025 0.000000
vn 0.500000 0.866025 0.000000
vn 0.258819 0.965926 0.000000
vn 0.258819 0.965926 0.000000
vn 0.000000 1.000000 0.000000
vn 0.000000 1.000000 0.000000
vn -0.258819 0.965926 0.000000
vn -0.258819 0.965926 0.000000
vn -0.500000 0.866025 0.000000
vn -0.500000 0.866025 0.000000
vn -0.707107 0.707107 0.000000
vn -0.707107 0.707107 0.000000
vn -0.866025 0.500000 0.000000
vn -0.866025 0.500000 0.000000
vn 1.000000 0.000000 -0.000000
vn 1.000000 0.000000 -0.000000
vn 1.000000 0.000000 -0.000000
vn 1.000000 0.000000 -0.000000
vn -0.780625 0.625000 -0.000000
vn -0.780625 0.625000 -0.000000
vn -0.865273 0.501302 -0.000000
vn -0.865273 0.501302 -0.000000
vn -0.930481 0.366341 -0.000000
vn -0.930481 0.366341 -0.000000
vn -0.974784 0.223149 -0.000000
vn -0.974784 0.223149 -0.000000
vn -0.997188 0.074944 -0.000000
vn -0.997188 0.074944 -0.000000
vn -0.997188 -0.074944 0.000000
vn -0.997188 -0.074944 0.000000
vn -0.974784 -0.223149 0.000000
vn -0.974784 -0.223149 0.000000
vn -0.930481 -0.366341 0.000000
vn -0.930481 -0.366341 0.000000
vn -0.865273 -0.501302 0.000000
vn -0.865273 -0.501302 0.000000
vn -0.780625 -0.625000 0.000000
vn -0.780625 -0.625000 0.000000
vn 1.000000 0.000000 -0.000000
vn 1.000000 0.000000 -0.000000
vn 1.000000 0.000000 -0.000000
vn 1.000000 0.000000 -0.000000
vn 0.000000 0.000000 1.000000
vn 0.000000 0.000000 1.000000
vn 0.000000 0.000000 1.000000
vn 0.000000 0.000000 1.000000
vn 0.000000 0.000000 1.000000
vn 0.000000 0.000000 1.000000
vn 0.000000 0.000000 1.000000
vn 0.000000 0.000000 1.000000
vn 0.000000 0.000000 1.000000
vn 0.000000 0.000000 1.000000
vn 0.000000 0.000000 1.000000
vn 0.000000 0.000000 1.000000
vn 0.000000 0.000000 1.000000
vn 0.000000 0.000000 1.000000
vn 0.000000 0.000000 1.000000
vn 0.000000 0.000000 1.000000
vn 0.000000 0.000000 1.000000
vn 0.000000 0.000000 1.000000
vn 0.000000 0.000000 1.000000
vn 0.000000 0.000000 1.000000
vn 0.000000 0.000000 1.000000
vn 0.000000 0.000000 1.000000
vn 0.000000 0.000000 1.000000
vn 0.000000 0.000000 1.000000
vn 0.000000 0.000000 1.000000
vn 0.000000 0.000000 1.000000
vn 0.000000 0.000000 1.000000
vn 0.000000 0.000000 1.000000
vn 0.000000 0.000000 1.000000
vn 0.000000 0.000000 1.000000
vn 0.000000 0.000000 1.000000
vn 0.000000 0.000000 1.000000
vn 0.000000 0.000000 1.000000
vn 0.000000 0.000000 1.000000
vn 0.000000 0.000000 1.000000
vn 0.000000 0.000000 1.000000
vn 0.000000 0.000000 1.000000
vn 0.000000 0.000000 1.000000
vn 0.000000 0.000000 1.000000
vn 0.000000 0.000000 1.000000
vn 0.909059 0.416667 -0.000000
vn 0.909059 0.416667 -0.000000
vn 0.953250 0.302184 -0.000000
vn 0.953250 0.302184 -0.000000
vn 0.983085 0.183150 -0.000000
vn 0.983085 0.183150 -0.000000
vn 0.998116 0.061358 -0.000000
vn 0.998116 0.061358 -0.000000
vn 0.998116 -0.061358 0.000000
vn 0.998116 -0.061358 0.000000
vn 0.983085 -0.183150 0.000000
vn 0.983085 -0.183150 0.000000
vn 0.953250 -0.302184 0.000000
vn 0.953250 -0.302184 0.000000
vn 0.909059 -0.416667 0.000000
vn 0.909059 -0.416667 0.000000
vn 0.000000 0.000000 1.000000
vn 0.000000 0.000000 1.000000
vn 0.000000 0.000000 1.000000
vn 0.000000 0.000000 1.000000
vn 0.000000 0.000000 1.000000
vn 0.000000 0.000000 1.000000
vn 0.000000 0.000000 1.000000
vn 0.000000 0.000000 1.000000
vn 0.000000 0.000000 1.000000
vn 0.000000 0.000000 1.000000
vn -0.618590 0.785714 0.000000
vn -0.618590 0.785714 0.000000
vn -0.421193 0.906971 0.000000
vn -0.500000 0.866025 0.000000
vn -0.258819 0.965926 0.000000
vn -0.707107 0.707107 0.000000
vn -0.798735 0.601683 0.000000
vn -0.866025 0.500000 0.000000
vn -0.925908 0.377749 0.000000
vn -0.965926 0.258819 0.000000
vn -0.991675 0.128763 0.000000
vn -1.000000 0.000000 0.000000
vn -0.991675 -0.128763 -0.000000
vn -0.965926 -0.258819 -0.000000
vn -0.925908 -0.377749 -0.000000
vn -0.866025 -0.500000 -0.000000
vn -0.798735 -0.601683 -0.000000
vn -0.707107 -0.707107 -0.000000
vn -0.618590 -0.785714 -0.000000
vn -0.500000 -0.866025 -0.000000
vn -0.618590 -0.785714 -0.000000
vn -0.421193 -0.906971 -0.000000
vn -0.258819 -0.965926 -0.000000
vn -0.201191 -0.979552 -0.000000
vn 0.000000 -1.000000 0.000000
vn 0.029609 -0.999562 0.000000
vn 0.258819 -0.965926 0.000000
vn 0.258819 -0.965926 0.000000
vn 0.474139 -0.880450 0.000000
vn 0.500000 -0.866025 0.000000
vn 0.664012 -0.747722 0.000000
vn 0.707107 -0.707107 0.000000
vn 0.818249 -0.574864 0.000000
vn 0.866025 -0.500000 0.000000
vn 0.928571 -0.371154 0.000000
vn 0.965926 -0.258819 0.000000
vn 0.928571 -0.371154 0.000000
vn 0.991978 -0.126411 0.000000
vn 1.000000 -0.000000 0.000000
vn 0.991978 0.126411 0.000000
vn 0.965926 0.258819 0.000000
vn 0.928571 0.371154 0.000000
vn 0.866025 0.500000 0.000000
vn 0.818249 0.574864 0.000000
vn 0.707107 0.707107 0.000000
vn 0.664012 0.747722 0.000000
vn 0.500000 0.866025 0.000000
vn 0.474139 0.880450 0.000000
vn 0.258819 0.965926 0.000000
vn 0.258819 0.965926 0.000000
vn 0.029609 0.999562 0.000000
vn 0.928571 0.371154 0.000000
vn 0.000000 1.000000 0.000000
vn -0.201191 0.979552 0.000000
vn 0.000000 0.000000 1.000000
vn 0.000000 0.000000 1.000000
vn 0.000000 0.000000 1.000000
vn 0.000000 0.000000 1.000000
vn 0.000000 0.000000 1.000000
vn 0.000000 0.000000 1.000000
vn 0.000000 0.000000 1.000000
vn 0.000000 0.000000 1.000000
vn 0.000000 0.000000 1.000000
vn 0.000000 0.000000 1.000000
vn 0.000000 0.000000 1.000000
vn 0.000000 0.000000 1.000000
vn 0.000000 0.000000 1.000000
vn 0.000000 0.000000 1.000000
vn 0.000000 0.000000 1.000000
vn 0.000000 0.000000 1.000000
vn 0.000000 0.000000 1.000000
vn 0.000000 0.000000 1.000000
vn 0.000000 0.000000 1.000000
vn 0.000000 0.000000 1.000000
vn 0.000000 0.000000 1.000000
vn 0.000000 0.000000 1.000000
vn 0.000000 0.000000 1.000000
vn 0.000000 0.000000 1.000000
vn 0.000000 0.000000 1.000000
vn 0.000000 0.000000 1.000000
vn 0.000000 0.000000 1.000000
vn 0.000000 0.000000 1.000000
vn 0.000000 0.000000 1.000000
vn 0.000000 0.000000 1.000000
vn 0.000000 0.000000 1.000000
vn 0.000000 0.000000 1.000000
vn 0.000000 0.000000 1.000000
vn 0.000000 0.000000 1.000000
vn 0.000000 0.000000 1.000000
vn 0.000000 0.000000 1.000000
vn 0.000000 0.000000 1.000000
vn 0.000000 0.000000 1.000000
vn 0.000000 0.000000 1.000000
vn 0.000000 0.000000 1.000000
vn 0.000000 0.000000 1.000000
vn 0.000000 0.000000 1.000000
vn 0.000000 0.000000 1.000000
vn 0.000000 0.000000 1.000000
vn 0.000000 0.000000 1.000000
vn 0.000000 0.000000 1.000000
vn 0.000000 0.000000 1.000000
vn 0.000000 0.000000 1.000000
vn 0.000000 0.000000 1.000000
vn 0.000000 0.000000 1.000000
vn 0.000000 0.000000 1.000000
vn 0.000000 0.000000 1.000000
vn 0.000000 0.000000 1.000000
vn 0.000000 0.000000 1.000000
vn 0.000000 0.000000 1.000000
vn 0.000000 0.000000 1.000000
vn 0.000000 0.000000 1.000000
vn 0.000000 0.000000 1.000000
vn 0.000000 0.000000 1.000000
vn 0.000000 0.000000 1.000000
vn 0.000000 0.000000 1.000000
vn 0.000000 0.000000 1.000000
vn 0.000000 0.000000 1.000000
vn 0.000000 0.000000 1.000000
vn 0.000000 0.000000 1.000000
vn 0.000000 0.000000 1.000000
vn 0.000000 1.000000 0.000000
vn 0.000000 1.000000 0.000000
vn 0.000000 1.000000 0.000000
vn 0.000000 1.000000 0.000000
vn -0.000000 -1.000000 -0.000000
vn -0.000000 -1.000000 -0.000000
vn -0.000000 -1.000000 -0.000000
vn -0.000000 -1.000000 -0.000000
vn 0.000000 0.000000 1.000000
vn 0.000000 0.000000 1.000000
vn 0.000000 0.000000 1.000000
vn 0.000000 0.000000 1.000000
vn 0.000000 0.000000 1.000000
vn 0.000000 0.000000 1.000000
vn 0.000000 0.000000 1.000000
vn 0.000000 0.000000 1.000000
vn 0.000000 0.000000 1.000000
vn 0.000000 0.000000 1.000000
vn 1.000000 0.000000 -0.000000
vn 1.000000 0.000000 -0.000000
vn 1.000000 0.000000 -0.000000
vn 1.000000 0.000000 -0.000000
vn 1.000000 0.000000 -0.000000
vn 1.000000 0.000000 -0.000000
vn 1.000000 0.000000 -0.000000
vn 1.000000 0.000000 -0.000000
vn 0.000000 -1.000000 0.000000
vn 0.000000 -1.000000 0.000000
vn 0.000000 -1.000000 0.000000
vn 0.000000 -1.000000 0.000000
vn 0.000000 -1.000000 0.000000
vn 0.000000 -1.000000 0.000000
vn 0.000000 -1.000000 0.000000
vn 0.000000 -1.000000 0.000000
vn 0.000000 -1.000000 0.000000
vn 0.000000 -1.000000 0.000000
vn -1.000000 0.000000 0.000000
vn -1.000000 0.000000 0.000000
vn -1.000000 0.000000 0.000000
vn -1.000000 0.000000 0.000000
vn 0.000000 1.000000 0.000000
vn 0.000000 1.000000 0.000000
vn 0.000000 1.000000 0.000000
vn 0.000000 1.000000 0.000000
vn 0.000000 1.000000 0.000000
vn 0.000000 1.000000 0.000000
vn 0.000000 1.000000 0.000000
vn 0.000000 1.000000 0.000000
vn 0.000000 1.000000 0.000000
vn 0.000000 1.000000 0.000000
vn -0.000000 0.000000 -1.000000
vn -0.000000 0.000000 -1.000000
vn -0.000000 0.000000 -1.000000
vn -0.000000 0.000000 -1.000000
vn -0.000000 0.000000 -1.000000
vn -0.000000 0.000000 -1.000000
vn -0.000000 0.000000 -1.000000
vn -0.000000 0.000000 -1.000000
vn -0.000000 0.000000 -1.000000
vn -0.000000 0.000000 -1.000000
vn -0.000000 0.000000 -1.000000
vn -0.000000 0.000000 -1.000000
vn -0.000000 0.000000 -1.000000
vn -0.000000 0.000000 -1.000000
vn -0.000000 0.000000 -1.000000
vn -0.000000 0.000000 -1.000000
vn -0.000000 0.000000 -1.000000
vn -0.000000 0.000000 -1.000000
vn -0.000000 0.000000 -1.000000
vn -0.000000 0.000000 -1.000000
vn -0.000000 0.000000 -1.000000
vn -0.000000 0.000000 -1.000000
vn -0.000000 0.000000 -1.000000
vn -0.000000 0.000000 -1.000000
vn -0.000000 0.000000 -1.000000
vn -0.000000 0.000000 -1.000000
vn -0.000000 0.000000 -1.000000
vn -0.000000 0.000000 -1.000000
vn -0.000000 0.000000 -1.000000
vn -0.000000 0.000000 -1.000000
vn -0.000000 0.000000 -1.000000
vn -0.000000 0.000000 -1.000000
vn -0.000000 0.000000 -1.000000
vn -0.000000 0.000000 -1.000000
vn -0.000000 0.000000 -1.000000
vn -0.000000 0.000000 -1.000000
vn -0.000000 0.000000 -1.000000
vn -0.000000 0.000000 -1.000000
vn -0.000000 0.000000 -1.000000
vn -0.000000 0.000000 -1.000000
vn -0.000000 0.000000 -1.000000
vn -0.000000 0.000000 -1.000000
vn -0.000000 0.000000 -1.000000
vn -0.000000 0.000000 -1.000000
vn -0.000000 0.000000 -1.000000
vn -0.000000 0.000000 -1.000000
vn -0.000000 0.000000 -1.000000
vn -0.000000 0.000000 -1.000000
vn -0.000000 0.000000 -1.000000
vn -0.000000 0.000000 -1.000000
vn -0.000000 0.000000 -1.000000
vn -0.000000 0.000000 -1.000000
vn -0.000000 0.000000 -1.000000
vn -0.000000 0.000000 -1.000000
vn -0.000000 0.000000 -1.000000
vn -0.000000 0.000000 -1.000000
vn -0.000000 0.000000 -1.000000
vn -0.000000 0.000000 -1.000000
vn -0.000000 0.000000 -1.000000
vn -0.000000 0.000000 -1.000000
vn -0.000000 0.000000 -1.000000
vn -0.000000 0.000000 -1.000000
vn -0.000000 0.000000 -1.000000
vn -0.000000 0.000000 -1.000000
vn -0.000000 0.000000 -1.000000
vn -0.000000 0.000000 -1.000000
vn -0.000000 0.000000 -1.000000
vn -0.000000 0.000000 -1.000000
vn -0.000000 0.000000 -1.000000
vn -0.000000 0.000000 -1.000000
vn -0.000000 0.000000 -1.000000
vn -0.000000 0.000000 -1.000000
vn -0.000000 0.000000 -1.000000
vn -0.000000 0.000000 -1.000000
vn -0.000000 0.000000 -1.000000
vn -0.000000 0.000000 -1.000000
usemtl Aluminum_-_Cast
f 2/1/1 48/2/2 1/3/3
f 1/3/3 48/2/2 25/4/4
f 1/5/3 25/6/4 24/7/5
f 24/7/5 25/6/4 26/8/6
f 24/7/5 26/8/6 23/9/7
f 23/9/7 26/8/6 27/10/8
f 23/9/7 27/10/8 22/11/9
f 22/11/9 27/10/8 28/12/10
f 22/11/9 28/12/10 21/13/11
f 21/13/11 28/12/10 29/14/12
f 21/13/11 29/14/12 20/15/13
f 20/15/13 29/14/12 30/16/14
f 20/15/13 30/16/14 19/17/15
f 19/17/15 30/16/14 31/18/16
f 19/17/15 31/18/16 18/19/17
f 18/19/17 31/18/16 32/20/18
f 18/19/17 32/20/18 17/21/19
f 17/21/19 32/20/18 33/22/20
f 17/21/19 33/22/20 16/23/21
f 16/23/21 33/22/20 34/24/22
f 16/23/21 34/24/22 15/25/23
f 15/25/23 34/24/22 35/26/24
f 15/25/23 35/26/24 14/27/25
f 14/27/25 35/26/24 36/28/26
f 14/27/25 36/28/26 13/29/27
f 13/29/27 36/28/26 37/30/28
f 13/29/27 37/30/28 12/31/29
f 12/31/29 37/30/28 38/32/30
f 12/31/29 38/32/30 11/33/31
f 11/33/31 38/32/30 39/34/32
f 11/33/31 39/34/32 10/35/33
f 10/35/33 39/34/32 40/36/34
f 10/35/33 40/36/34 9/37/35
f 9/37/35 40/36/34 41/38/36
f 9/37/35 41/38/36 8/39/37
f 8/39/37 41/38/36 42/40/38
f 8/39/37 42/40/38 7/41/39
f 7/41/39 42/40/38 43/42/40
f 7/41/39 43/42/40 6/43/41
f 6/43/41 43/42/40 44/44/42
f 6/43/41 44/44/42 5/45/43
f 5/45/43 44/44/42 45/46/44
f 5/45/43 45/46/44 4/47/45
f 4/47/45 45/46/44 46/48/46
f 4/47/45 46/48/46 3/49/47
f 3/49/47 46/48/46 47/50/48
f 3/49/47 47/50/48 2/1/1
f 2/1/1 47/50/48 48/2/2
f 50/51/49 96/52/50 49/53/51
f 49/53/51 96/52/50 73/54/52
f 49/55/51 73/56/52 72/57/53
f 72/57/53 73/56/52 74/58/54
f 72/57/53 74/58/54 71/59/55
f 71/59/55 74/58/54 75/60/56
f 71/59/55 75/60/56 70/61/57
f 70/61/57 75/60/56 76/62/58
f 70/61/57 76/62/58 69/63/59
f 69/63/59 76/62/58 77/64/60
f 69/63/59 77/64/60 68/65/61
f 68/65/61 77/64/60 78/66/62
f 68/65/61 78/66/62 67/67/63
f 67/67/63 78/66/62 79/68/64
f 67/67/63 79/68/64 66/69/65
f 66/69/65 79/68/64 80/70/66
f 66/69/65 80/70/66 65/71/67
f 65/71/67 80/70/66 81/72/68
f 65/71/67 81/72/68 64/73/69
f 64/73/69 81/72/68 82/74/70
f 64/73/69 82/74/70 63/75/71
f 63/75/71 82/74/70 83/76/72
f 63/75/71 83/76/72 62/77/73
f 62/77/73 83/76/72 84/78/74
f 62/77/73 84/78/74 61/79/75
f 61/79/75 84/78/74 85/80/76
f 61/79/75 85/80/76 60/81/77
f 60/81/77 85/80/76 86/82/78
f 60/81/77 86/82/78 59/83/79
f 59/83/79 86/82/78 87/84/80
f 59/83/79 87/84/80 58/85/81
f 58/85/81 87/84/80 88/86/82
f 58/85/81 88/86/82 57/87/83
f 57/87/83 88/86/82 89/88/84
f 57/87/83 89/88/84 56/89/85
f 56/89/85 89/88/84 90/90/86
f 56/89/85 90/90/86 55/91/87
f 55/91/87 90/90/86 91/92/88
f 55/91/87 91/92/88 54/93/89
f 54/93/89 91/92/88 92/94/90
f 54/93/89 92/94/90 53/95/91
f 53/95/91 92/94/90 93/96/92
f 53/95/91 93/96/92 52/97/93
f 52/97/93 93/96/92 94/98/94
f 52/97/93 94/98/94 51/99/95
f 51/99/95 94/98/94 95/100/96
f 51/99/95 95/100/96 50/51/49
f 50/51/49 95/100/96 96/52/50
f 97/101/97 98/102/98 100/103/99
f 100/103/99 98/102/98 99/104/100
f 120/105/101 101/106/102 119/107/103
f 119/107/103 101/106/102 102/108/104
f 119/107/103 102/108/104 118/109/105
f 118/109/105 102/108/104 103/110/106
f 118/109/105 103/110/106 117/111/107
f 117/111/107 103/110/106 104/112/108
f 117/111/107 104/112/108 116/113/109
f 116/113/109 104/112/108 105/114/110
f 116/113/109 105/114/110 115/115/111
f 115/115/111 105/114/110 106/116/112
f 115/115/111 106/116/112 114/117/113
f 114/117/113 106/116/112 107/118/114
f 114/117/113 107/118/114 113/119/115
f 113/119/115 107/118/114 108/120/116
f 113/119/115 108/120/116 112/121/117
f 112/121/117 108/120/116 109/122/118
f 112/121/117 109/122/118 111/123/119
f 111/123/119 109/122/118 110/124/120
f 121/125/121 122/126/122 124/127/123
f 124/127/123 122/126/122 123/128/124
f 123/129/125 120/130/126 124/131/127
f 124/131/127 120/130/126 126/132/128
f 126/132/128 120/130/126 119/133/129
f 126/132/128 119/133/129 118/134/130
f 126/132/128 118/134/130 125/135/131
f 125/135/131 118/134/130 117/136/132
f 125/135/131 117/136/132 116/137/133
f 116/137/133 115/138/134 125/135/131
f 125/135/131 115/138/134 114/139/135
f 125/135/131 114/139/135 113/140/136
f 113/140/136 112/141/137 125/135/131
f 125/135/131 112/141/137 111/142/138
f 125/135/131 111/142/138 99/143/139
f 99/143/139 111/142/138 100/144/140
f 98/145/141 97/146/142 136/147/143
f 136/147/143 97/146/142 135/148/144
f 135/148/144 97/146/142 134/149/145
f 134/149/145 97/146/142 133/150/146
f 133/150/146 97/146/142 132/151/147
f 132/151/147 97/146/142 131/152/148
f 131/152/148 97/146/142 127/153/149
f 131/152/148 127/153/149 130/154/150
f 130/154/150 127/153/149 128/155/151
f 130/154/150 128/155/151 129/156/152
f 121/157/153 137/158/154 122/159/155
f 122/159/155 137/158/154 138/160/156
f 122/159/155 138/160/156 139/161/157
f 139/161/157 140/162/158 122/159/155
f 122/159/155 140/162/158 141/163/159
f 122/159/155 141/163/159 142/164/160
f 122/159/155 142/164/160 146/165/161
f 146/165/161 142/164/160 143/166/162
f 146/165/161 143/166/162 145/167/163
f 145/167/163 143/166/162 144/168/164
f 162/169/165 147/170/166 161/171/167
f 161/171/167 147/170/166 148/172/168
f 161/171/167 148/172/168 160/173/169
f 160/173/169 148/172/168 149/174/170
f 160/173/169 149/174/170 159/175/171
f 159/175/171 149/174/170 150/176/172
f 159/175/171 150/176/172 158/177/173
f 158/177/173 150/176/172 151/178/174
f 158/177/173 151/178/174 157/179/175
f 157/179/175 151/178/174 152/180/176
f 157/179/175 152/180/176 156/181/177
f 156/181/177 152/180/176 153/182/178
f 156/181/177 153/182/178 155/183/179
f 155/183/179 153/182/178 154/184/180
f 164/185/181 159/186/182 163/187/183
f 163/187/183 159/186/182 158/188/184
f 163/187/183 158/188/184 157/189/185
f 162/190/186 161/191/187 164/185/181
f 164/185/181 161/191/187 160/192/188
f 164/185/181 160/192/188 159/186/182
f 157/189/185 156/193/189 163/187/183
f 163/187/183 156/193/189 155/194/190
f 129/195/191 165/196/192 130/197/193
f 130/197/193 165/196/192 177/198/194
f 130/197/193 177/198/194 178/199/195
f 177/198/194 165/196/192 176/200/196
f 176/200/196 165/196/192 166/201/197
f 176/200/196 166/201/197 175/202/198
f 175/202/198 166/201/197 167/203/199
f 175/202/198 167/203/199 174/204/200
f 174/204/200 167/203/199 168/205/201
f 174/204/200 168/205/201 173/206/202
f 173/207/202 168/208/201 169/209/203
f 173/207/202 169/209/203 196/210/204
f 196/210/204 169/209/203 170/211/205
f 196/210/204 170/211/205 195/212/206
f 195/212/206 170/211/205 171/213/207
f 195/212/206 171/213/207 194/214/208
f 194/214/208 171/213/207 172/215/209
f 194/214/208 172/215/209 193/216/210
f 193/216/210 172/215/209 144/217/211
f 193/216/210 144/217/211 143/218/212
f 193/216/210 143/218/212 192/219/213
f 192/219/213 143/218/212 142/220/214
f 192/219/213 142/220/214 191/221/215
f 191/221/215 142/220/214 141/222/216
f 191/221/215 141/222/216 190/223/217
f 190/223/217 141/222/216 140/224/218
f 190/223/217 140/224/218 139/225/219
f 190/223/217 139/225/219 189/226/220
f 189/226/220 139/225/219 138/227/221
f 189/226/220 138/227/221 188/228/222
f 188/228/222 138/227/221 137/229/223
f 188/228/222 137/229/223 187/230/224
f 187/230/224 137/229/223 121/231/225
f 187/230/224 121/231/225 186/232/226
f 186/232/226 121/231/225 124/233/227
f 186/232/226 124/233/227 126/234/228
f 186/232/226 126/234/228 185/235/229
f 185/235/229 126/234/228 125/236/230
f 185/235/229 125/236/230 184/237/231
f 184/237/231 125/236/230 98/238/232
f 184/237/231 98/238/232 183/239/233
f 183/239/233 98/238/232 136/240/234
f 183/239/233 136/240/234 182/241/235
f 182/241/235 136/240/234 135/242/236
f 182/241/235 135/242/236 181/243/237
f 181/243/237 135/242/236 134/244/238
f 181/243/237 134/244/238 180/245/239
f 180/245/239 134/244/238 133/246/240
f 180/245/239 133/246/240 132/247/241
f 125/236/230 99/248/242 98/238/232
f 180/245/239 132/247/241 179/249/243
f 179/249/243 132/247/241 131/250/244
f 179/249/243 131/250/244 178/199/195
f 178/199/195 131/250/244 130/197/193
f 26/251/245 25/252/246 108/253/247
f 108/253/247 25/252/246 48/254/248
f 108/253/247 48/254/248 109/255/249
f 109/255/249 48/254/248 47/256/250
f 109/255/249 47/256/250 46/257/251
f 109/255/249 46/257/251 110/258/252
f 110/258/252 46/257/251 45/259/253
f 110/258/252 45/259/253 44/260/254
f 110/258/252 44/260/254 147/261/255
f 147/261/255 44/260/254 43/262/256
f 147/261/255 43/262/256 42/263/257
f 42/263/257 41/264/258 147/261/255
f 147/261/255 41/264/258 40/265/259
f 147/261/255 40/265/259 39/266/260
f 39/266/260 38/267/261 147/261/255
f 147/261/255 38/267/261 148/268/262
f 148/268/262 38/267/261 37/269/263
f 148/268/262 37/269/263 36/270/264
f 148/268/262 36/270/264 149/271/265
f 149/271/265 36/270/264 35/272/266
f 149/271/265 35/272/266 150/273/267
f 150/273/267 35/272/266 34/274/268
f 150/273/267 34/274/268 33/275/269
f 150/273/267 33/275/269 89/276/270
f 89/276/270 33/275/269 32/277/271
f 89/276/270 32/277/271 90/278/272
f 90/278/272 32/277/271 31/279/273
f 90/278/272 31/279/273 91/280/274
f 91/280/274 31/279/273 30/281/275
f 91/280/274 30/281/275 92/282/276
f 92/282/276 30/281/275 106/283/277
f 92/282/276 106/283/277 105/284/278
f 30/281/275 29/285/279 106/283/277
f 106/283/277 29/285/279 28/286/280
f 106/283/277 28/286/280 107/287/281
f 107/287/281 28/286/280 27/288/282
f 107/287/281 27/288/282 26/251/245
f 107/287/281 26/251/245 108/253/247
f 74/289/283 73/290/284 103/291/285
f 103/291/285 73/290/284 96/292/286
f 103/291/285 96/292/286 104/293/287
f 104/293/287 96/292/286 95/294/288
f 104/293/287 95/294/288 94/295/289
f 104/293/287 94/295/289 105/284/278
f 105/284/278 94/295/289 93/296/290
f 105/284/278 93/296/290 92/282/276
f 150/273/267 89/276/270 151/297/291
f 151/297/291 89/276/270 88/298/292
f 151/297/291 88/298/292 87/299/293
f 151/297/291 87/299/293 152/300/294
f 152/300/294 87/299/293 86/301/295
f 152/300/294 86/301/295 153/302/296
f 153/302/296 86/301/295 85/303/297
f 153/302/296 85/303/297 84/304/298
f 153/302/296 84/304/298 154/305/299
f 154/305/299 84/304/298 83/306/300
f 154/305/299 83/306/300 82/307/301
f 82/307/301 81/308/302 154/305/299
f 154/305/299 81/308/302 80/309/303
f 154/305/299 80/309/303 79/310/304
f 79/310/304 78/311/305 154/305/299
f 154/305/299 78/311/305 101/312/306
f 101/312/306 78/311/305 77/313/307
f 101/312/306 77/313/307 76/314/308
f 101/312/306 76/314/308 102/315/309
f 102/315/309 76/314/308 75/316/310
f 102/315/309 75/316/310 74/289/283
f 102/315/309 74/289/283 103/291/285
f 129/317/311 128/318/312 165/319/313
f 165/319/313 128/318/312 197/320/314
f 145/321/315 144/322/316 198/323/317
f 198/323/317 144/322/316 172/324/318
f 172/325/319 171/326/320 198/327/321
f 198/327/321 171/326/320 170/328/322
f 198/327/321 170/328/322 169/329/323
f 169/329/323 168/330/324 198/327/321
f 198/327/321 168/330/324 197/331/325
f 197/331/325 168/330/324 167/332/326
f 197/331/325 167/332/326 166/333/327
f 166/333/327 165/334/328 197/331/325
f 145/335/329 198/336/330 146/337/331
f 146/337/331 198/336/330 200/338/332
f 200/338/332 198/336/330 197/339/333
f 200/338/332 197/339/333 199/340/334
f 199/340/334 197/339/333 127/341/335
f 127/341/335 197/339/333 128/342/336
f 199/343/337 97/344/338 201/345/339
f 201/345/339 97/344/338 110/346/340
f 201/345/339 110/346/340 147/347/341
f 199/343/337 127/348/342 97/344/338
f 100/349/343 111/350/344 97/344/338
f 97/344/338 111/350/344 110/346/340
f 162/351/345 164/352/346 147/347/341
f 147/347/341 164/352/346 201/345/339
f 202/353/347 201/354/348 163/355/349
f 163/355/349 201/354/348 164/356/350
f 146/357/351 200/358/352 122/359/353
f 122/359/353 200/358/352 202/360/354
f 122/359/353 202/360/354 101/361/355
f 101/361/355 202/360/354 154/362/356
f 154/362/356 202/360/354 163/363/357
f 154/362/356 163/363/357 155/364/358
f 120/365/359 123/366/360 101/361/355
f 101/361/355 123/366/360 122/359/353
f 24/367/361 182/368/362 1/369/363
f 1/369/363 182/368/362 181/370/364
f 1/369/363 181/370/364 2/371/365
f 2/371/365 181/370/364 3/372/366
f 3/372/366 181/370/364 180/373/367
f 3/372/366 180/373/367 4/374/368
f 4/374/368 180/373/367 5/375/369
f 5/375/369 180/373/367 179/376/370
f 5/375/369 179/376/370 6/377/371
f 6/377/371 179/376/370 199/378/372
f 6/377/371 199/378/372 201/379/373
f 24/367/361 23/380/374 182/368/362
f 182/368/362 23/380/374 183/381/375
f 183/381/375 23/380/374 22/382/376
f 183/381/375 22/382/376 21/383/377
f 183/381/375 21/383/377 184/384/378
f 184/384/378 21/383/377 20/385/379
f 184/384/378 20/385/379 185/386/380
f 185/386/380 20/385/379 54/387/381
f 185/386/380 54/387/381 186/388/382
f 186/388/382 54/387/381 53/389/383
f 186/388/382 53/389/383 187/390/384
f 187/390/384 53/389/383 52/391/385
f 187/390/384 52/391/385 51/392/386
f 54/387/381 20/385/379 55/393/387
f 55/393/387 20/385/379 19/394/388
f 55/393/387 19/394/388 18/395/389
f 55/393/387 18/395/389 56/396/390
f 56/396/390 18/395/389 17/397/391
f 56/396/390 17/397/391 57/398/392
f 57/398/392 17/397/391 16/399/393
f 57/398/392 16/399/393 58/400/394
f 58/400/394 16/399/393 201/379/373
f 58/400/394 201/379/373 202/401/395
f 16/399/393 15/402/396 201/379/373
f 201/379/373 15/402/396 14/403/397
f 201/379/373 14/403/397 13/404/398
f 13/404/398 12/405/399 201/379/373
f 201/379/373 12/405/399 11/406/400
f 201/379/373 11/406/400 10/407/401
f 10/407/401 9/408/402 201/379/373
f 201/379/373 9/408/402 8/409/403
f 201/379/373 8/409/403 7/410/404
f 7/410/404 6/377/371 201/379/373
f 72/411/405 189/412/406 49/413/407
f 49/413/407 189/412/406 188/414/408
f 49/413/407 188/414/408 50/415/409
f 50/415/409 188/414/408 51/392/386
f 51/392/386 188/414/408 187/390/384
f 72/411/405 71/416/410 189/412/406
f 189/412/406 71/416/410 190/417/411
f 190/417/411 71/416/410 70/418/412
f 190/417/411 70/418/412 69/419/413
f 190/417/411 69/419/413 191/420/414
f 191/420/414 69/419/413 68/421/415
f 191/420/414 68/421/415 200/422/416
f 200/422/416 68/421/415 202/401/395
f 202/401/395 68/421/415 67/423/417
f 202/401/395 67/423/417 66/424/418
f 66/424/418 65/425/419 202/401/395
f 202/401/395 65/425/419 64/426/420
f 202/401/395 64/426/420 63/427/421
f 63/427/421 62/428/422 202/401/395
f 202/401/395 62/428/422 61/429/423
f 202/401/395 61/429/423 60/430/424
f 60/430/424 59/431/425 202/401/395
f 202/401/395 59/431/425 58/400/394
f 196/432/426 200/422/416 173/433/427
f 173/433/427 200/422/416 199/378/372
f 173/433/427 199/378/372 174/434/428
f 174/434/428 199/378/372 175/435/429
f 175/435/429 199/378/372 176/436/430
f 176/436/430 199/378/372 177/437/431
f 177/437/431 199/378/372 178/438/432
f 178/438/432 199/378/372 179/376/370
f 196/432/426 195/439/433 200/422/416
f 200/422/416 195/439/433 194/440/434
f 200/422/416 194/440/434 193/441/435
f 193/441/435 192/442/436 200/422/416
f 200/422/416 192/442/436 191/420/414
# 202 vertices
# 442 texture params
# 436 normals
# 412 facets

# 1 groups
