ISO-10303-21;
HEADER;
/* Generated by software containing ST-Developer
 * from STEP Tools, Inc. (www.steptools.com) 
 */

FILE_DESCRIPTION(
/* description */ (''),
/* implementation_level */ '2;1');

FILE_NAME(
/* name */ 'Model.step',
/* time_stamp */ '2026-08-27T08:49:34+05:30',
/* author */ (''),
/* organization */ (''),
/* preprocessor_version */ 'ST-DEVELOPER v20.1',
/* originating_system */ 'Autodesk Translation Framework v15.8.0.0',
/* authorisation */ '');

FILE_SCHEMA (('AUTOMOTIVE_DESIGN { 1 0 10303 214 3 1 1 }'));
ENDSEC;

DATA;
#10=MECHANICAL_DESIGN_GEOMETRIC_PRESENTATION_REPRESENTATION('',(#13),#1832);
#11=SHAPE_REPRESENTATION_RELATIONSHIP('SRR','None',#1839,#12);
#12=ADVANCED_BREP_SHAPE_REPRESENTATION('',(#14),#1831);
#13=STYLED_ITEM('',(#1849),#14);
#14=MANIFOLD_SOLID_BREP('Body1',#974);
#15=CONICAL_SURFACE('',#1028,5.,1.02974425867665);
#16=CONICAL_SURFACE('',#1068,5.,1.02974425867665);
#17=FACE_BOUND('',#321,.T.);
#18=FACE_BOUND('',#347,.T.);
#19=FACE_BOUND('',#365,.T.);
#20=FACE_BOUND('',#367,.T.);
#21=PLANE('',#1010);
#22=PLANE('',#1011);
#23=PLANE('',#1014);
#24=PLANE('',#1018);
#25=PLANE('',#1020);
#26=PLANE('',#1023);
#27=PLANE('',#1024);
#28=PLANE('',#1025);
#29=PLANE('',#1026);
#30=PLANE('',#1031);
#31=PLANE('',#1032);
#32=PLANE('',#1048);
#33=PLANE('',#1051);
#34=PLANE('',#1054);
#35=PLANE('',#1055);
#36=PLANE('',#1058);
#37=PLANE('',#1061);
#38=PLANE('',#1062);
#39=PLANE('',#1063);
#40=PLANE('',#1064);
#41=PLANE('',#1069);
#42=PLANE('',#1070);
#43=PLANE('',#1074);
#44=PLANE('',#1075);
#45=PLANE('',#1076);
#46=PLANE('',#1077);
#47=PLANE('',#1078);
#48=PLANE('',#1079);
#49=PLANE('',#1080);
#50=B_SPLINE_CURVE_WITH_KNOTS('',3,(#1405,#1406,#1407,#1408,#1409,#1410),
 .UNSPECIFIED.,.F.,.F.,(4,1,1,4),(-0.722271022332627,-0.619089447713681,
-0.412726298475787,0.),.UNSPECIFIED.);
#51=B_SPLINE_CURVE_WITH_KNOTS('',3,(#1411,#1412,#1413,#1414,#1415,#1416),
 .UNSPECIFIED.,.F.,.F.,(4,1,1,4),(0.,0.412726298475787,0.619089447713681,
0.722271022332627),.UNSPECIFIED.);
#52=B_SPLINE_CURVE_WITH_KNOTS('',3,(#1456,#1457,#1458,#1459,#1460,#1461),
 .UNSPECIFIED.,.F.,.F.,(4,1,1,4),(-0.722258082557896,-0.309539178239099,
-0.2063594521594,-1.36638910776532E-15),.UNSPECIFIED.);
#53=B_SPLINE_CURVE_WITH_KNOTS('',3,(#1462,#1463,#1464,#1465,#1466,#1467),
 .UNSPECIFIED.,.F.,.F.,(4,1,1,4),(1.36638910776532E-15,0.2063594521594,
0.309539178239099,0.722258082557896),.UNSPECIFIED.);
#54=B_SPLINE_CURVE_WITH_KNOTS('',3,(#1490,#1491,#1492,#1493,#1494,#1495),
 .UNSPECIFIED.,.F.,.F.,(4,1,1,4),(0.,0.103181574618947,0.30954472385684,
0.722271022332628),.UNSPECIFIED.);
#55=B_SPLINE_CURVE_WITH_KNOTS('',3,(#1499,#1500,#1501,#1502,#1503,#1504),
 .UNSPECIFIED.,.F.,.F.,(4,1,1,4),(0.,0.309539178239098,0.515898630398497,
0.722258082557896),.UNSPECIFIED.);
#56=B_SPLINE_CURVE_WITH_KNOTS('',3,(#1554,#1555,#1556,#1557,#1558,#1559,
#1560,#1561,#1562,#1563,#1564,#1565,#1566,#1567,#1568,#1569,#1570,#1571),
 .UNSPECIFIED.,.F.,.F.,(4,2,2,2,2,2,2,2,4),(0.245277631251406,0.307046782702824,
0.368815934154242,0.429685598328527,0.490555262502812,0.551424926677097,
0.612294590851382,0.6740637423028,0.735832893754218),.UNSPECIFIED.);
#57=B_SPLINE_CURVE_WITH_KNOTS('',3,(#1645,#1646,#1647,#1648,#1649,#1650),
 .UNSPECIFIED.,.F.,.F.,(4,1,1,4),(-0.722271022332628,-0.30954472385684,
-0.103181574618947,0.),.UNSPECIFIED.);
#58=B_SPLINE_CURVE_WITH_KNOTS('',3,(#1687,#1688,#1689,#1690,#1691,#1692),
 .UNSPECIFIED.,.F.,.F.,(4,1,1,4),(-0.722258082557896,-0.515898630398497,
-0.309539178239098,0.),.UNSPECIFIED.);
#59=B_SPLINE_CURVE_WITH_KNOTS('',3,(#1744,#1745,#1746,#1747,#1748,#1749,
#1750,#1751,#1752,#1753,#1754,#1755,#1756,#1757,#1758,#1759,#1760,#1761),
 .UNSPECIFIED.,.F.,.F.,(4,2,2,2,2,2,2,2,4),(0.245277631251407,0.307046782702825,
0.368815934154243,0.429685598328528,0.490555262502813,0.551424926677098,
0.612294590851382,0.674063742302801,0.735832893754219),.UNSPECIFIED.);
#60=B_SPLINE_SURFACE_WITH_KNOTS('',3,3,((#1372,#1373,#1374,#1375,#1376,
#1377),(#1378,#1379,#1380,#1381,#1382,#1383),(#1384,#1385,#1386,#1387,#1388,
#1389),(#1390,#1391,#1392,#1393,#1394,#1395),(#1396,#1397,#1398,#1399,#1400,
#1401)),.UNSPECIFIED.,.F.,.F.,.F.,(4,1,4),(4,1,1,4),(0.,0.571428571428571,
1.),(0.,0.412726298475787,0.619089447713681,0.722271022332627),
 .UNSPECIFIED.);
#61=B_SPLINE_SURFACE_WITH_KNOTS('',3,3,((#1423,#1424,#1425,#1426,#1427,
#1428),(#1429,#1430,#1431,#1432,#1433,#1434),(#1435,#1436,#1437,#1438,#1439,
#1440),(#1441,#1442,#1443,#1444,#1445,#1446),(#1447,#1448,#1449,#1450,#1451,
#1452)),.UNSPECIFIED.,.F.,.F.,.F.,(4,1,4),(4,1,1,4),(0.,0.571428571428571,
1.),(1.36638910776532E-15,0.2063594521594,0.309539178239099,0.722258082557896),
 .UNSPECIFIED.);
#62=B_SPLINE_SURFACE_WITH_KNOTS('',3,3,((#1614,#1615,#1616,#1617,#1618,
#1619),(#1620,#1621,#1622,#1623,#1624,#1625),(#1626,#1627,#1628,#1629,#1630,
#1631),(#1632,#1633,#1634,#1635,#1636,#1637),(#1638,#1639,#1640,#1641,#1642,
#1643)),.UNSPECIFIED.,.F.,.F.,.F.,(4,1,4),(4,1,1,4),(0.,0.571428571428571,
1.),(0.,0.103181574618947,0.30954472385684,0.722271022332628),
 .UNSPECIFIED.);
#63=B_SPLINE_SURFACE_WITH_KNOTS('',3,3,((#1656,#1657,#1658,#1659,#1660,
#1661),(#1662,#1663,#1664,#1665,#1666,#1667),(#1668,#1669,#1670,#1671,#1672,
#1673),(#1674,#1675,#1676,#1677,#1678,#1679),(#1680,#1681,#1682,#1683,#1684,
#1685)),.UNSPECIFIED.,.F.,.F.,.F.,(4,1,4),(4,1,1,4),(0.,0.571428571428571,
1.),(0.,0.309539178239098,0.515898630398497,0.722258082557896),
 .UNSPECIFIED.);
#64=LINE('',#1370,#151);
#65=LINE('',#1371,#152);
#66=LINE('',#1421,#153);
#67=LINE('',#1422,#154);
#68=LINE('',#1478,#155);
#69=LINE('',#1479,#156);
#70=LINE('',#1482,#157);
#71=LINE('',#1486,#158);
#72=LINE('',#1497,#159);
#73=LINE('',#1508,#160);
#74=LINE('',#1511,#161);
#75=LINE('',#1514,#162);
#76=LINE('',#1515,#163);
#77=LINE('',#1518,#164);
#78=LINE('',#1520,#165);
#79=LINE('',#1521,#166);
#80=LINE('',#1524,#167);
#81=LINE('',#1528,#168);
#82=LINE('',#1532,#169);
#83=LINE('',#1533,#170);
#84=LINE('',#1536,#171);
#85=LINE('',#1538,#172);
#86=LINE('',#1540,#173);
#87=LINE('',#1545,#174);
#88=LINE('',#1547,#175);
#89=LINE('',#1552,#176);
#90=LINE('',#1574,#177);
#91=LINE('',#1576,#178);
#92=LINE('',#1577,#179);
#93=LINE('',#1580,#180);
#94=LINE('',#1581,#181);
#95=LINE('',#1584,#182);
#96=LINE('',#1585,#183);
#97=LINE('',#1591,#184);
#98=LINE('',#1593,#185);
#99=LINE('',#1595,#186);
#100=LINE('',#1597,#187);
#101=LINE('',#1600,#188);
#102=LINE('',#1601,#189);
#103=LINE('',#1606,#190);
#104=LINE('',#1609,#191);
#105=LINE('',#1655,#192);
#106=LINE('',#1702,#193);
#107=LINE('',#1703,#194);
#108=LINE('',#1706,#195);
#109=LINE('',#1708,#196);
#110=LINE('',#1709,#197);
#111=LINE('',#1712,#198);
#112=LINE('',#1716,#199);
#113=LINE('',#1717,#200);
#114=LINE('',#1720,#201);
#115=LINE('',#1724,#202);
#116=LINE('',#1725,#203);
#117=LINE('',#1727,#204);
#118=LINE('',#1730,#205);
#119=LINE('',#1736,#206);
#120=LINE('',#1737,#207);
#121=LINE('',#1742,#208);
#122=LINE('',#1764,#209);
#123=LINE('',#1766,#210);
#124=LINE('',#1767,#211);
#125=LINE('',#1770,#212);
#126=LINE('',#1771,#213);
#127=LINE('',#1774,#214);
#128=LINE('',#1775,#215);
#129=LINE('',#1780,#216);
#130=LINE('',#1783,#217);
#131=LINE('',#1785,#218);
#132=LINE('',#1788,#219);
#133=LINE('',#1789,#220);
#134=LINE('',#1792,#221);
#135=LINE('',#1793,#222);
#136=LINE('',#1798,#223);
#137=LINE('',#1802,#224);
#138=LINE('',#1804,#225);
#139=LINE('',#1805,#226);
#140=LINE('',#1808,#227);
#141=LINE('',#1810,#228);
#142=LINE('',#1811,#229);
#143=LINE('',#1814,#230);
#144=LINE('',#1816,#231);
#145=LINE('',#1817,#232);
#146=LINE('',#1820,#233);
#147=LINE('',#1822,#234);
#148=LINE('',#1823,#235);
#149=LINE('',#1825,#236);
#150=LINE('',#1826,#237);
#151=VECTOR('',#1097,10.);
#152=VECTOR('',#1098,10.);
#153=VECTOR('',#1105,10.);
#154=VECTOR('',#1106,10.);
#155=VECTOR('',#1121,10.);
#156=VECTOR('',#1122,10.);
#157=VECTOR('',#1125,10.);
#158=VECTOR('',#1128,10.);
#159=VECTOR('',#1131,10.);
#160=VECTOR('',#1134,10.);
#161=VECTOR('',#1137,10.);
#162=VECTOR('',#1140,10.);
#163=VECTOR('',#1141,10.);
#164=VECTOR('',#1144,10.);
#165=VECTOR('',#1145,10.);
#166=VECTOR('',#1146,10.);
#167=VECTOR('',#1149,10.);
#168=VECTOR('',#1154,10.);
#169=VECTOR('',#1157,10.);
#170=VECTOR('',#1158,10.);
#171=VECTOR('',#1159,10.);
#172=VECTOR('',#1160,10.);
#173=VECTOR('',#1161,10.);
#174=VECTOR('',#1168,10.);
#175=VECTOR('',#1171,10.);
#176=VECTOR('',#1176,10.);
#177=VECTOR('',#1181,10.);
#178=VECTOR('',#1182,10.);
#179=VECTOR('',#1183,10.);
#180=VECTOR('',#1186,10.);
#181=VECTOR('',#1187,10.);
#182=VECTOR('',#1190,10.);
#183=VECTOR('',#1191,10.);
#184=VECTOR('',#1200,5.);
#185=VECTOR('',#1201,5.);
#186=VECTOR('',#1204,10.);
#187=VECTOR('',#1207,10.);
#188=VECTOR('',#1210,10.);
#189=VECTOR('',#1211,10.);
#190=VECTOR('',#1216,10.);
#191=VECTOR('',#1219,10.);
#192=VECTOR('',#1232,10.);
#193=VECTOR('',#1245,10.);
#194=VECTOR('',#1246,10.);
#195=VECTOR('',#1249,10.);
#196=VECTOR('',#1250,10.);
#197=VECTOR('',#1251,10.);
#198=VECTOR('',#1254,10.);
#199=VECTOR('',#1259,10.);
#200=VECTOR('',#1260,10.);
#201=VECTOR('',#1263,10.);
#202=VECTOR('',#1268,10.);
#203=VECTOR('',#1269,10.);
#204=VECTOR('',#1272,10.);
#205=VECTOR('',#1273,10.);
#206=VECTOR('',#1278,10.);
#207=VECTOR('',#1279,10.);
#208=VECTOR('',#1284,10.);
#209=VECTOR('',#1289,10.);
#210=VECTOR('',#1290,10.);
#211=VECTOR('',#1291,10.);
#212=VECTOR('',#1294,10.);
#213=VECTOR('',#1295,10.);
#214=VECTOR('',#1298,10.);
#215=VECTOR('',#1299,10.);
#216=VECTOR('',#1306,10.);
#217=VECTOR('',#1311,5.);
#218=VECTOR('',#1312,5.);
#219=VECTOR('',#1315,10.);
#220=VECTOR('',#1316,10.);
#221=VECTOR('',#1319,10.);
#222=VECTOR('',#1320,10.);
#223=VECTOR('',#1325,10.);
#224=VECTOR('',#1330,10.);
#225=VECTOR('',#1331,10.);
#226=VECTOR('',#1332,10.);
#227=VECTOR('',#1335,10.);
#228=VECTOR('',#1336,10.);
#229=VECTOR('',#1337,10.);
#230=VECTOR('',#1340,10.);
#231=VECTOR('',#1341,10.);
#232=VECTOR('',#1342,10.);
#233=VECTOR('',#1345,10.);
#234=VECTOR('',#1346,10.);
#235=VECTOR('',#1347,10.);
#236=VECTOR('',#1350,10.);
#237=VECTOR('',#1351,10.);
#238=CYLINDRICAL_SURFACE('',#993,2.);
#239=CYLINDRICAL_SURFACE('',#996,2.);
#240=CYLINDRICAL_SURFACE('',#1003,2.);
#241=CYLINDRICAL_SURFACE('',#1005,20.);
#242=CYLINDRICAL_SURFACE('',#1012,2.);
#243=CYLINDRICAL_SURFACE('',#1019,2.);
#244=CYLINDRICAL_SURFACE('',#1022,20.);
#245=CYLINDRICAL_SURFACE('',#1030,10.);
#246=CYLINDRICAL_SURFACE('',#1033,2.);
#247=CYLINDRICAL_SURFACE('',#1040,2.);
#248=CYLINDRICAL_SURFACE('',#1046,2.);
#249=CYLINDRICAL_SURFACE('',#1049,2.);
#250=CYLINDRICAL_SURFACE('',#1052,2.);
#251=CYLINDRICAL_SURFACE('',#1060,20.);
#252=CYLINDRICAL_SURFACE('',#1066,10.);
#253=CYLINDRICAL_SURFACE('',#1071,10.);
#254=FACE_OUTER_BOUND('',#309,.T.);
#255=FACE_OUTER_BOUND('',#310,.T.);
#256=FACE_OUTER_BOUND('',#311,.T.);
#257=FACE_OUTER_BOUND('',#312,.T.);
#258=FACE_OUTER_BOUND('',#313,.T.);
#259=FACE_OUTER_BOUND('',#314,.T.);
#260=FACE_OUTER_BOUND('',#315,.T.);
#261=FACE_OUTER_BOUND('',#316,.T.);
#262=FACE_OUTER_BOUND('',#317,.T.);
#263=FACE_OUTER_BOUND('',#318,.T.);
#264=FACE_OUTER_BOUND('',#319,.T.);
#265=FACE_OUTER_BOUND('',#320,.T.);
#266=FACE_OUTER_BOUND('',#322,.T.);
#267=FACE_OUTER_BOUND('',#323,.T.);
#268=FACE_OUTER_BOUND('',#324,.T.);
#269=FACE_OUTER_BOUND('',#325,.T.);
#270=FACE_OUTER_BOUND('',#326,.T.);
#271=FACE_OUTER_BOUND('',#327,.T.);
#272=FACE_OUTER_BOUND('',#328,.T.);
#273=FACE_OUTER_BOUND('',#329,.T.);
#274=FACE_OUTER_BOUND('',#330,.T.);
#275=FACE_OUTER_BOUND('',#331,.T.);
#276=FACE_OUTER_BOUND('',#332,.T.);
#277=FACE_OUTER_BOUND('',#333,.T.);
#278=FACE_OUTER_BOUND('',#334,.T.);
#279=FACE_OUTER_BOUND('',#335,.T.);
#280=FACE_OUTER_BOUND('',#336,.T.);
#281=FACE_OUTER_BOUND('',#337,.T.);
#282=FACE_OUTER_BOUND('',#338,.T.);
#283=FACE_OUTER_BOUND('',#339,.T.);
#284=FACE_OUTER_BOUND('',#340,.T.);
#285=FACE_OUTER_BOUND('',#341,.T.);
#286=FACE_OUTER_BOUND('',#342,.T.);
#287=FACE_OUTER_BOUND('',#343,.T.);
#288=FACE_OUTER_BOUND('',#344,.T.);
#289=FACE_OUTER_BOUND('',#345,.T.);
#290=FACE_OUTER_BOUND('',#346,.T.);
#291=FACE_OUTER_BOUND('',#348,.T.);
#292=FACE_OUTER_BOUND('',#349,.T.);
#293=FACE_OUTER_BOUND('',#350,.T.);
#294=FACE_OUTER_BOUND('',#351,.T.);
#295=FACE_OUTER_BOUND('',#352,.T.);
#296=FACE_OUTER_BOUND('',#353,.T.);
#297=FACE_OUTER_BOUND('',#354,.T.);
#298=FACE_OUTER_BOUND('',#355,.T.);
#299=FACE_OUTER_BOUND('',#356,.T.);
#300=FACE_OUTER_BOUND('',#357,.T.);
#301=FACE_OUTER_BOUND('',#358,.T.);
#302=FACE_OUTER_BOUND('',#359,.T.);
#303=FACE_OUTER_BOUND('',#360,.T.);
#304=FACE_OUTER_BOUND('',#361,.T.);
#305=FACE_OUTER_BOUND('',#362,.T.);
#306=FACE_OUTER_BOUND('',#363,.T.);
#307=FACE_OUTER_BOUND('',#364,.T.);
#308=FACE_OUTER_BOUND('',#366,.T.);
#309=EDGE_LOOP('',(#637,#638,#639,#640));
#310=EDGE_LOOP('',(#641,#642,#643,#644));
#311=EDGE_LOOP('',(#645,#646,#647,#648));
#312=EDGE_LOOP('',(#649,#650,#651,#652));
#313=EDGE_LOOP('',(#653,#654,#655,#656));
#314=EDGE_LOOP('',(#657,#658,#659,#660));
#315=EDGE_LOOP('',(#661,#662,#663,#664));
#316=EDGE_LOOP('',(#665,#666,#667,#668,#669,#670,#671,#672,#673,#674,#675,
#676,#677,#678,#679,#680));
#317=EDGE_LOOP('',(#681,#682,#683,#684));
#318=EDGE_LOOP('',(#685,#686,#687,#688,#689));
#319=EDGE_LOOP('',(#690,#691,#692,#693));
#320=EDGE_LOOP('',(#694,#695,#696,#697,#698,#699));
#321=EDGE_LOOP('',(#700,#701,#702,#703,#704));
#322=EDGE_LOOP('',(#705,#706,#707,#708));
#323=EDGE_LOOP('',(#709,#710,#711,#712));
#324=EDGE_LOOP('',(#713,#714));
#325=EDGE_LOOP('',(#715,#716));
#326=EDGE_LOOP('',(#717,#718,#719,#720));
#327=EDGE_LOOP('',(#721,#722,#723,#724));
#328=EDGE_LOOP('',(#725,#726,#727,#728));
#329=EDGE_LOOP('',(#729,#730,#731,#732));
#330=EDGE_LOOP('',(#733,#734,#735,#736,#737,#738,#739));
#331=EDGE_LOOP('',(#740,#741,#742,#743,#744,#745,#746,#747));
#332=EDGE_LOOP('',(#748,#749,#750,#751,#752));
#333=EDGE_LOOP('',(#753,#754,#755,#756));
#334=EDGE_LOOP('',(#757,#758,#759,#760));
#335=EDGE_LOOP('',(#761,#762,#763,#764));
#336=EDGE_LOOP('',(#765,#766,#767,#768));
#337=EDGE_LOOP('',(#769,#770,#771,#772));
#338=EDGE_LOOP('',(#773,#774,#775,#776));
#339=EDGE_LOOP('',(#777,#778,#779,#780));
#340=EDGE_LOOP('',(#781,#782,#783,#784));
#341=EDGE_LOOP('',(#785,#786,#787,#788,#789));
#342=EDGE_LOOP('',(#790,#791,#792,#793));
#343=EDGE_LOOP('',(#794,#795,#796,#797));
#344=EDGE_LOOP('',(#798,#799,#800,#801));
#345=EDGE_LOOP('',(#802,#803,#804,#805,#806));
#346=EDGE_LOOP('',(#807,#808,#809,#810,#811,#812));
#347=EDGE_LOOP('',(#813,#814,#815,#816,#817));
#348=EDGE_LOOP('',(#818,#819));
#349=EDGE_LOOP('',(#820,#821));
#350=EDGE_LOOP('',(#822,#823,#824,#825));
#351=EDGE_LOOP('',(#826,#827,#828,#829));
#352=EDGE_LOOP('',(#830,#831,#832,#833));
#353=EDGE_LOOP('',(#834,#835,#836,#837));
#354=EDGE_LOOP('',(#838,#839,#840,#841,#842,#843,#844,#845));
#355=EDGE_LOOP('',(#846,#847,#848,#849,#850,#851,#852));
#356=EDGE_LOOP('',(#853,#854,#855,#856));
#357=EDGE_LOOP('',(#857,#858,#859,#860));
#358=EDGE_LOOP('',(#861,#862,#863,#864));
#359=EDGE_LOOP('',(#865,#866,#867,#868,#869,#870,#871,#872,#873,#874));
#360=EDGE_LOOP('',(#875,#876,#877,#878));
#361=EDGE_LOOP('',(#879,#880,#881,#882));
#362=EDGE_LOOP('',(#883,#884,#885,#886));
#363=EDGE_LOOP('',(#887,#888,#889,#890,#891,#892,#893,#894,#895,#896));
#364=EDGE_LOOP('',(#897,#898,#899,#900,#901,#902,#903,#904));
#365=EDGE_LOOP('',(#905));
#366=EDGE_LOOP('',(#906,#907,#908,#909,#910,#911,#912,#913));
#367=EDGE_LOOP('',(#914));
#368=CIRCLE('',#989,2.);
#369=CIRCLE('',#990,22.);
#370=CIRCLE('',#991,2.);
#371=CIRCLE('',#992,20.);
#372=CIRCLE('',#994,2.);
#373=CIRCLE('',#995,2.);
#374=CIRCLE('',#997,2.);
#375=CIRCLE('',#998,2.);
#376=CIRCLE('',#1000,2.00000000000001);
#377=CIRCLE('',#1001,22.);
#378=CIRCLE('',#1002,20.);
#379=CIRCLE('',#1004,2.);
#380=CIRCLE('',#1006,20.);
#381=CIRCLE('',#1007,20.);
#382=CIRCLE('',#1008,20.);
#383=CIRCLE('',#1009,20.);
#384=CIRCLE('',#1013,2.);
#385=CIRCLE('',#1015,2.);
#386=CIRCLE('',#1016,10.);
#387=CIRCLE('',#1017,10.);
#388=CIRCLE('',#1021,1.67860258824742);
#389=CIRCLE('',#1027,10.);
#390=CIRCLE('',#1029,10.);
#391=CIRCLE('',#1034,2.);
#392=CIRCLE('',#1035,2.);
#393=CIRCLE('',#1037,2.);
#394=CIRCLE('',#1038,22.);
#395=CIRCLE('',#1039,2.);
#396=CIRCLE('',#1041,1.99999999999999);
#397=CIRCLE('',#1042,1.99999999999999);
#398=CIRCLE('',#1044,2.);
#399=CIRCLE('',#1045,22.);
#400=CIRCLE('',#1047,2.);
#401=CIRCLE('',#1050,2.);
#402=CIRCLE('',#1053,2.);
#403=CIRCLE('',#1056,10.);
#404=CIRCLE('',#1057,10.);
#405=CIRCLE('',#1059,1.67860258824742);
#406=CIRCLE('',#1065,10.);
#407=CIRCLE('',#1067,10.);
#408=CIRCLE('',#1072,10.);
#409=CIRCLE('',#1073,10.);
#410=VERTEX_POINT('',#1358);
#411=VERTEX_POINT('',#1359);
#412=VERTEX_POINT('',#1361);
#413=VERTEX_POINT('',#1363);
#414=VERTEX_POINT('',#1367);
#415=VERTEX_POINT('',#1368);
#416=VERTEX_POINT('',#1402);
#417=VERTEX_POINT('',#1403);
#418=VERTEX_POINT('',#1418);
#419=VERTEX_POINT('',#1419);
#420=VERTEX_POINT('',#1453);
#421=VERTEX_POINT('',#1454);
#422=VERTEX_POINT('',#1469);
#423=VERTEX_POINT('',#1470);
#424=VERTEX_POINT('',#1475);
#425=VERTEX_POINT('',#1476);
#426=VERTEX_POINT('',#1481);
#427=VERTEX_POINT('',#1483);
#428=VERTEX_POINT('',#1485);
#429=VERTEX_POINT('',#1487);
#430=VERTEX_POINT('',#1489);
#431=VERTEX_POINT('',#1496);
#432=VERTEX_POINT('',#1498);
#433=VERTEX_POINT('',#1505);
#434=VERTEX_POINT('',#1507);
#435=VERTEX_POINT('',#1509);
#436=VERTEX_POINT('',#1513);
#437=VERTEX_POINT('',#1517);
#438=VERTEX_POINT('',#1519);
#439=VERTEX_POINT('',#1523);
#440=VERTEX_POINT('',#1527);
#441=VERTEX_POINT('',#1529);
#442=VERTEX_POINT('',#1531);
#443=VERTEX_POINT('',#1534);
#444=VERTEX_POINT('',#1535);
#445=VERTEX_POINT('',#1537);
#446=VERTEX_POINT('',#1539);
#447=VERTEX_POINT('',#1541);
#448=VERTEX_POINT('',#1549);
#449=VERTEX_POINT('',#1550);
#450=VERTEX_POINT('',#1573);
#451=VERTEX_POINT('',#1575);
#452=VERTEX_POINT('',#1579);
#453=VERTEX_POINT('',#1583);
#454=VERTEX_POINT('',#1589);
#455=VERTEX_POINT('',#1592);
#456=VERTEX_POINT('',#1599);
#457=VERTEX_POINT('',#1603);
#458=VERTEX_POINT('',#1605);
#459=VERTEX_POINT('',#1607);
#460=VERTEX_POINT('',#1611);
#461=VERTEX_POINT('',#1644);
#462=VERTEX_POINT('',#1653);
#463=VERTEX_POINT('',#1686);
#464=VERTEX_POINT('',#1695);
#465=VERTEX_POINT('',#1699);
#466=VERTEX_POINT('',#1700);
#467=VERTEX_POINT('',#1705);
#468=VERTEX_POINT('',#1707);
#469=VERTEX_POINT('',#1711);
#470=VERTEX_POINT('',#1715);
#471=VERTEX_POINT('',#1719);
#472=VERTEX_POINT('',#1723);
#473=VERTEX_POINT('',#1728);
#474=VERTEX_POINT('',#1729);
#475=VERTEX_POINT('',#1731);
#476=VERTEX_POINT('',#1733);
#477=VERTEX_POINT('',#1735);
#478=VERTEX_POINT('',#1739);
#479=VERTEX_POINT('',#1740);
#480=VERTEX_POINT('',#1763);
#481=VERTEX_POINT('',#1765);
#482=VERTEX_POINT('',#1769);
#483=VERTEX_POINT('',#1773);
#484=VERTEX_POINT('',#1779);
#485=VERTEX_POINT('',#1784);
#486=VERTEX_POINT('',#1787);
#487=VERTEX_POINT('',#1791);
#488=VERTEX_POINT('',#1795);
#489=VERTEX_POINT('',#1797);
#490=VERTEX_POINT('',#1801);
#491=VERTEX_POINT('',#1803);
#492=VERTEX_POINT('',#1807);
#493=VERTEX_POINT('',#1809);
#494=VERTEX_POINT('',#1813);
#495=VERTEX_POINT('',#1815);
#496=VERTEX_POINT('',#1819);
#497=VERTEX_POINT('',#1821);
#498=EDGE_CURVE('',#410,#411,#368,.T.);
#499=EDGE_CURVE('',#411,#412,#369,.T.);
#500=EDGE_CURVE('',#412,#413,#370,.T.);
#501=EDGE_CURVE('',#413,#410,#371,.T.);
#502=EDGE_CURVE('',#414,#415,#372,.T.);
#503=EDGE_CURVE('',#415,#413,#64,.T.);
#504=EDGE_CURVE('',#412,#414,#65,.T.);
#505=EDGE_CURVE('',#416,#417,#373,.T.);
#506=EDGE_CURVE('',#417,#411,#50,.T.);
#507=EDGE_CURVE('',#410,#416,#51,.T.);
#508=EDGE_CURVE('',#418,#419,#374,.T.);
#509=EDGE_CURVE('',#419,#417,#66,.T.);
#510=EDGE_CURVE('',#416,#418,#67,.T.);
#511=EDGE_CURVE('',#420,#421,#375,.T.);
#512=EDGE_CURVE('',#421,#419,#52,.T.);
#513=EDGE_CURVE('',#418,#420,#53,.T.);
#514=EDGE_CURVE('',#422,#423,#376,.T.);
#515=EDGE_CURVE('',#423,#421,#377,.T.);
#516=EDGE_CURVE('',#420,#422,#378,.T.);
#517=EDGE_CURVE('',#424,#425,#379,.T.);
#518=EDGE_CURVE('',#425,#423,#68,.T.);
#519=EDGE_CURVE('',#422,#424,#69,.T.);
#520=EDGE_CURVE('',#426,#413,#70,.T.);
#521=EDGE_CURVE('',#426,#427,#380,.T.);
#522=EDGE_CURVE('',#427,#428,#71,.T.);
#523=EDGE_CURVE('',#429,#428,#381,.T.);
#524=EDGE_CURVE('',#430,#429,#54,.T.);
#525=EDGE_CURVE('',#431,#430,#72,.T.);
#526=EDGE_CURVE('',#432,#431,#55,.T.);
#527=EDGE_CURVE('',#433,#432,#382,.T.);
#528=EDGE_CURVE('',#433,#434,#73,.T.);
#529=EDGE_CURVE('',#435,#434,#383,.T.);
#530=EDGE_CURVE('',#422,#435,#74,.T.);
#531=EDGE_CURVE('',#436,#415,#75,.T.);
#532=EDGE_CURVE('',#436,#426,#76,.T.);
#533=EDGE_CURVE('',#437,#411,#77,.T.);
#534=EDGE_CURVE('',#437,#438,#78,.T.);
#535=EDGE_CURVE('',#414,#438,#79,.T.);
#536=EDGE_CURVE('',#417,#439,#80,.T.);
#537=EDGE_CURVE('',#439,#437,#384,.T.);
#538=EDGE_CURVE('',#440,#439,#81,.T.);
#539=EDGE_CURVE('',#441,#440,#385,.T.);
#540=EDGE_CURVE('',#442,#441,#82,.T.);
#541=EDGE_CURVE('',#438,#442,#83,.T.);
#542=EDGE_CURVE('',#443,#444,#84,.T.);
#543=EDGE_CURVE('',#444,#445,#85,.T.);
#544=EDGE_CURVE('',#445,#446,#86,.T.);
#545=EDGE_CURVE('',#446,#447,#386,.T.);
#546=EDGE_CURVE('',#447,#443,#387,.T.);
#547=EDGE_CURVE('',#440,#419,#87,.T.);
#548=EDGE_CURVE('',#421,#441,#88,.T.);
#549=EDGE_CURVE('',#448,#449,#388,.T.);
#550=EDGE_CURVE('',#449,#448,#89,.T.);
#551=EDGE_CURVE('',#449,#448,#56,.T.);
#552=EDGE_CURVE('',#444,#450,#90,.T.);
#553=EDGE_CURVE('',#451,#450,#91,.T.);
#554=EDGE_CURVE('',#445,#451,#92,.T.);
#555=EDGE_CURVE('',#452,#451,#93,.T.);
#556=EDGE_CURVE('',#446,#452,#94,.T.);
#557=EDGE_CURVE('',#453,#443,#95,.T.);
#558=EDGE_CURVE('',#450,#453,#96,.T.);
#559=EDGE_CURVE('',#452,#453,#389,.T.);
#560=EDGE_CURVE('',#454,#454,#390,.T.);
#561=EDGE_CURVE('',#454,#448,#97,.T.);
#562=EDGE_CURVE('',#448,#455,#98,.T.);
#563=EDGE_CURVE('',#447,#454,#99,.T.);
#564=EDGE_CURVE('',#425,#442,#100,.T.);
#565=EDGE_CURVE('',#456,#435,#101,.T.);
#566=EDGE_CURVE('',#424,#456,#102,.T.);
#567=EDGE_CURVE('',#457,#428,#391,.T.);
#568=EDGE_CURVE('',#428,#458,#103,.T.);
#569=EDGE_CURVE('',#458,#459,#392,.T.);
#570=EDGE_CURVE('',#459,#457,#104,.T.);
#571=EDGE_CURVE('',#460,#429,#393,.T.);
#572=EDGE_CURVE('',#457,#460,#394,.T.);
#573=EDGE_CURVE('',#460,#461,#57,.T.);
#574=EDGE_CURVE('',#461,#430,#395,.T.);
#575=EDGE_CURVE('',#462,#431,#396,.T.);
#576=EDGE_CURVE('',#461,#462,#105,.T.);
#577=EDGE_CURVE('',#462,#463,#58,.T.);
#578=EDGE_CURVE('',#463,#432,#397,.T.);
#579=EDGE_CURVE('',#464,#433,#398,.T.);
#580=EDGE_CURVE('',#463,#464,#399,.T.);
#581=EDGE_CURVE('',#465,#466,#400,.T.);
#582=EDGE_CURVE('',#466,#433,#106,.T.);
#583=EDGE_CURVE('',#464,#465,#107,.T.);
#584=EDGE_CURVE('',#467,#463,#108,.T.);
#585=EDGE_CURVE('',#468,#467,#109,.T.);
#586=EDGE_CURVE('',#465,#468,#110,.T.);
#587=EDGE_CURVE('',#462,#469,#111,.T.);
#588=EDGE_CURVE('',#469,#467,#401,.T.);
#589=EDGE_CURVE('',#470,#461,#112,.T.);
#590=EDGE_CURVE('',#469,#470,#113,.T.);
#591=EDGE_CURVE('',#460,#471,#114,.T.);
#592=EDGE_CURVE('',#471,#470,#402,.T.);
#593=EDGE_CURVE('',#459,#472,#115,.T.);
#594=EDGE_CURVE('',#471,#472,#116,.T.);
#595=EDGE_CURVE('',#472,#468,#117,.T.);
#596=EDGE_CURVE('',#473,#474,#118,.T.);
#597=EDGE_CURVE('',#474,#475,#403,.T.);
#598=EDGE_CURVE('',#475,#476,#404,.T.);
#599=EDGE_CURVE('',#476,#477,#119,.T.);
#600=EDGE_CURVE('',#477,#473,#120,.T.);
#601=EDGE_CURVE('',#478,#479,#405,.T.);
#602=EDGE_CURVE('',#478,#479,#121,.T.);
#603=EDGE_CURVE('',#479,#478,#59,.T.);
#604=EDGE_CURVE('',#477,#480,#122,.T.);
#605=EDGE_CURVE('',#480,#481,#123,.T.);
#606=EDGE_CURVE('',#473,#481,#124,.T.);
#607=EDGE_CURVE('',#482,#476,#125,.T.);
#608=EDGE_CURVE('',#482,#480,#126,.T.);
#609=EDGE_CURVE('',#481,#483,#127,.T.);
#610=EDGE_CURVE('',#474,#483,#128,.T.);
#611=EDGE_CURVE('',#483,#482,#406,.T.);
#612=EDGE_CURVE('',#475,#484,#129,.T.);
#613=EDGE_CURVE('',#484,#484,#407,.T.);
#614=EDGE_CURVE('',#484,#479,#130,.T.);
#615=EDGE_CURVE('',#479,#485,#131,.T.);
#616=EDGE_CURVE('',#466,#486,#132,.T.);
#617=EDGE_CURVE('',#434,#486,#133,.T.);
#618=EDGE_CURVE('',#427,#487,#134,.T.);
#619=EDGE_CURVE('',#487,#458,#135,.T.);
#620=EDGE_CURVE('',#488,#488,#408,.T.);
#621=EDGE_CURVE('',#488,#489,#136,.T.);
#622=EDGE_CURVE('',#489,#489,#409,.T.);
#623=EDGE_CURVE('',#436,#490,#137,.T.);
#624=EDGE_CURVE('',#491,#456,#138,.T.);
#625=EDGE_CURVE('',#490,#491,#139,.T.);
#626=EDGE_CURVE('',#490,#492,#140,.T.);
#627=EDGE_CURVE('',#493,#491,#141,.T.);
#628=EDGE_CURVE('',#492,#493,#142,.T.);
#629=EDGE_CURVE('',#492,#494,#143,.T.);
#630=EDGE_CURVE('',#495,#493,#144,.T.);
#631=EDGE_CURVE('',#494,#495,#145,.T.);
#632=EDGE_CURVE('',#494,#496,#146,.T.);
#633=EDGE_CURVE('',#497,#495,#147,.T.);
#634=EDGE_CURVE('',#496,#497,#148,.T.);
#635=EDGE_CURVE('',#496,#487,#149,.T.);
#636=EDGE_CURVE('',#486,#497,#150,.T.);
#637=ORIENTED_EDGE('',*,*,#498,.T.);
#638=ORIENTED_EDGE('',*,*,#499,.T.);
#639=ORIENTED_EDGE('',*,*,#500,.T.);
#640=ORIENTED_EDGE('',*,*,#501,.T.);
#641=ORIENTED_EDGE('',*,*,#502,.T.);
#642=ORIENTED_EDGE('',*,*,#503,.T.);
#643=ORIENTED_EDGE('',*,*,#500,.F.);
#644=ORIENTED_EDGE('',*,*,#504,.T.);
#645=ORIENTED_EDGE('',*,*,#505,.T.);
#646=ORIENTED_EDGE('',*,*,#506,.T.);
#647=ORIENTED_EDGE('',*,*,#498,.F.);
#648=ORIENTED_EDGE('',*,*,#507,.T.);
#649=ORIENTED_EDGE('',*,*,#508,.T.);
#650=ORIENTED_EDGE('',*,*,#509,.T.);
#651=ORIENTED_EDGE('',*,*,#505,.F.);
#652=ORIENTED_EDGE('',*,*,#510,.T.);
#653=ORIENTED_EDGE('',*,*,#511,.T.);
#654=ORIENTED_EDGE('',*,*,#512,.T.);
#655=ORIENTED_EDGE('',*,*,#508,.F.);
#656=ORIENTED_EDGE('',*,*,#513,.T.);
#657=ORIENTED_EDGE('',*,*,#514,.T.);
#658=ORIENTED_EDGE('',*,*,#515,.T.);
#659=ORIENTED_EDGE('',*,*,#511,.F.);
#660=ORIENTED_EDGE('',*,*,#516,.T.);
#661=ORIENTED_EDGE('',*,*,#517,.T.);
#662=ORIENTED_EDGE('',*,*,#518,.T.);
#663=ORIENTED_EDGE('',*,*,#514,.F.);
#664=ORIENTED_EDGE('',*,*,#519,.T.);
#665=ORIENTED_EDGE('',*,*,#516,.F.);
#666=ORIENTED_EDGE('',*,*,#513,.F.);
#667=ORIENTED_EDGE('',*,*,#510,.F.);
#668=ORIENTED_EDGE('',*,*,#507,.F.);
#669=ORIENTED_EDGE('',*,*,#501,.F.);
#670=ORIENTED_EDGE('',*,*,#520,.F.);
#671=ORIENTED_EDGE('',*,*,#521,.T.);
#672=ORIENTED_EDGE('',*,*,#522,.T.);
#673=ORIENTED_EDGE('',*,*,#523,.F.);
#674=ORIENTED_EDGE('',*,*,#524,.F.);
#675=ORIENTED_EDGE('',*,*,#525,.F.);
#676=ORIENTED_EDGE('',*,*,#526,.F.);
#677=ORIENTED_EDGE('',*,*,#527,.F.);
#678=ORIENTED_EDGE('',*,*,#528,.T.);
#679=ORIENTED_EDGE('',*,*,#529,.F.);
#680=ORIENTED_EDGE('',*,*,#530,.F.);
#681=ORIENTED_EDGE('',*,*,#503,.F.);
#682=ORIENTED_EDGE('',*,*,#531,.F.);
#683=ORIENTED_EDGE('',*,*,#532,.T.);
#684=ORIENTED_EDGE('',*,*,#520,.T.);
#685=ORIENTED_EDGE('',*,*,#504,.F.);
#686=ORIENTED_EDGE('',*,*,#499,.F.);
#687=ORIENTED_EDGE('',*,*,#533,.F.);
#688=ORIENTED_EDGE('',*,*,#534,.T.);
#689=ORIENTED_EDGE('',*,*,#535,.F.);
#690=ORIENTED_EDGE('',*,*,#506,.F.);
#691=ORIENTED_EDGE('',*,*,#536,.T.);
#692=ORIENTED_EDGE('',*,*,#537,.T.);
#693=ORIENTED_EDGE('',*,*,#533,.T.);
#694=ORIENTED_EDGE('',*,*,#537,.F.);
#695=ORIENTED_EDGE('',*,*,#538,.F.);
#696=ORIENTED_EDGE('',*,*,#539,.F.);
#697=ORIENTED_EDGE('',*,*,#540,.F.);
#698=ORIENTED_EDGE('',*,*,#541,.F.);
#699=ORIENTED_EDGE('',*,*,#534,.F.);
#700=ORIENTED_EDGE('',*,*,#542,.T.);
#701=ORIENTED_EDGE('',*,*,#543,.T.);
#702=ORIENTED_EDGE('',*,*,#544,.T.);
#703=ORIENTED_EDGE('',*,*,#545,.T.);
#704=ORIENTED_EDGE('',*,*,#546,.T.);
#705=ORIENTED_EDGE('',*,*,#509,.F.);
#706=ORIENTED_EDGE('',*,*,#547,.F.);
#707=ORIENTED_EDGE('',*,*,#538,.T.);
#708=ORIENTED_EDGE('',*,*,#536,.F.);
#709=ORIENTED_EDGE('',*,*,#512,.F.);
#710=ORIENTED_EDGE('',*,*,#548,.T.);
#711=ORIENTED_EDGE('',*,*,#539,.T.);
#712=ORIENTED_EDGE('',*,*,#547,.T.);
#713=ORIENTED_EDGE('',*,*,#549,.T.);
#714=ORIENTED_EDGE('',*,*,#550,.T.);
#715=ORIENTED_EDGE('',*,*,#551,.T.);
#716=ORIENTED_EDGE('',*,*,#550,.F.);
#717=ORIENTED_EDGE('',*,*,#543,.F.);
#718=ORIENTED_EDGE('',*,*,#552,.T.);
#719=ORIENTED_EDGE('',*,*,#553,.F.);
#720=ORIENTED_EDGE('',*,*,#554,.F.);
#721=ORIENTED_EDGE('',*,*,#544,.F.);
#722=ORIENTED_EDGE('',*,*,#554,.T.);
#723=ORIENTED_EDGE('',*,*,#555,.F.);
#724=ORIENTED_EDGE('',*,*,#556,.F.);
#725=ORIENTED_EDGE('',*,*,#542,.F.);
#726=ORIENTED_EDGE('',*,*,#557,.F.);
#727=ORIENTED_EDGE('',*,*,#558,.F.);
#728=ORIENTED_EDGE('',*,*,#552,.F.);
#729=ORIENTED_EDGE('',*,*,#558,.T.);
#730=ORIENTED_EDGE('',*,*,#559,.F.);
#731=ORIENTED_EDGE('',*,*,#555,.T.);
#732=ORIENTED_EDGE('',*,*,#553,.T.);
#733=ORIENTED_EDGE('',*,*,#560,.T.);
#734=ORIENTED_EDGE('',*,*,#561,.T.);
#735=ORIENTED_EDGE('',*,*,#562,.T.);
#736=ORIENTED_EDGE('',*,*,#562,.F.);
#737=ORIENTED_EDGE('',*,*,#551,.F.);
#738=ORIENTED_EDGE('',*,*,#549,.F.);
#739=ORIENTED_EDGE('',*,*,#561,.F.);
#740=ORIENTED_EDGE('',*,*,#557,.T.);
#741=ORIENTED_EDGE('',*,*,#546,.F.);
#742=ORIENTED_EDGE('',*,*,#563,.T.);
#743=ORIENTED_EDGE('',*,*,#560,.F.);
#744=ORIENTED_EDGE('',*,*,#563,.F.);
#745=ORIENTED_EDGE('',*,*,#545,.F.);
#746=ORIENTED_EDGE('',*,*,#556,.T.);
#747=ORIENTED_EDGE('',*,*,#559,.T.);
#748=ORIENTED_EDGE('',*,*,#518,.F.);
#749=ORIENTED_EDGE('',*,*,#564,.T.);
#750=ORIENTED_EDGE('',*,*,#540,.T.);
#751=ORIENTED_EDGE('',*,*,#548,.F.);
#752=ORIENTED_EDGE('',*,*,#515,.F.);
#753=ORIENTED_EDGE('',*,*,#519,.F.);
#754=ORIENTED_EDGE('',*,*,#530,.T.);
#755=ORIENTED_EDGE('',*,*,#565,.F.);
#756=ORIENTED_EDGE('',*,*,#566,.F.);
#757=ORIENTED_EDGE('',*,*,#567,.T.);
#758=ORIENTED_EDGE('',*,*,#568,.T.);
#759=ORIENTED_EDGE('',*,*,#569,.T.);
#760=ORIENTED_EDGE('',*,*,#570,.T.);
#761=ORIENTED_EDGE('',*,*,#571,.T.);
#762=ORIENTED_EDGE('',*,*,#523,.T.);
#763=ORIENTED_EDGE('',*,*,#567,.F.);
#764=ORIENTED_EDGE('',*,*,#572,.T.);
#765=ORIENTED_EDGE('',*,*,#571,.F.);
#766=ORIENTED_EDGE('',*,*,#573,.T.);
#767=ORIENTED_EDGE('',*,*,#574,.T.);
#768=ORIENTED_EDGE('',*,*,#524,.T.);
#769=ORIENTED_EDGE('',*,*,#575,.T.);
#770=ORIENTED_EDGE('',*,*,#525,.T.);
#771=ORIENTED_EDGE('',*,*,#574,.F.);
#772=ORIENTED_EDGE('',*,*,#576,.T.);
#773=ORIENTED_EDGE('',*,*,#575,.F.);
#774=ORIENTED_EDGE('',*,*,#577,.T.);
#775=ORIENTED_EDGE('',*,*,#578,.T.);
#776=ORIENTED_EDGE('',*,*,#526,.T.);
#777=ORIENTED_EDGE('',*,*,#579,.T.);
#778=ORIENTED_EDGE('',*,*,#527,.T.);
#779=ORIENTED_EDGE('',*,*,#578,.F.);
#780=ORIENTED_EDGE('',*,*,#580,.T.);
#781=ORIENTED_EDGE('',*,*,#581,.T.);
#782=ORIENTED_EDGE('',*,*,#582,.T.);
#783=ORIENTED_EDGE('',*,*,#579,.F.);
#784=ORIENTED_EDGE('',*,*,#583,.T.);
#785=ORIENTED_EDGE('',*,*,#583,.F.);
#786=ORIENTED_EDGE('',*,*,#580,.F.);
#787=ORIENTED_EDGE('',*,*,#584,.F.);
#788=ORIENTED_EDGE('',*,*,#585,.F.);
#789=ORIENTED_EDGE('',*,*,#586,.F.);
#790=ORIENTED_EDGE('',*,*,#577,.F.);
#791=ORIENTED_EDGE('',*,*,#587,.T.);
#792=ORIENTED_EDGE('',*,*,#588,.T.);
#793=ORIENTED_EDGE('',*,*,#584,.T.);
#794=ORIENTED_EDGE('',*,*,#576,.F.);
#795=ORIENTED_EDGE('',*,*,#589,.F.);
#796=ORIENTED_EDGE('',*,*,#590,.F.);
#797=ORIENTED_EDGE('',*,*,#587,.F.);
#798=ORIENTED_EDGE('',*,*,#573,.F.);
#799=ORIENTED_EDGE('',*,*,#591,.T.);
#800=ORIENTED_EDGE('',*,*,#592,.T.);
#801=ORIENTED_EDGE('',*,*,#589,.T.);
#802=ORIENTED_EDGE('',*,*,#572,.F.);
#803=ORIENTED_EDGE('',*,*,#570,.F.);
#804=ORIENTED_EDGE('',*,*,#593,.T.);
#805=ORIENTED_EDGE('',*,*,#594,.F.);
#806=ORIENTED_EDGE('',*,*,#591,.F.);
#807=ORIENTED_EDGE('',*,*,#592,.F.);
#808=ORIENTED_EDGE('',*,*,#594,.T.);
#809=ORIENTED_EDGE('',*,*,#595,.T.);
#810=ORIENTED_EDGE('',*,*,#585,.T.);
#811=ORIENTED_EDGE('',*,*,#588,.F.);
#812=ORIENTED_EDGE('',*,*,#590,.T.);
#813=ORIENTED_EDGE('',*,*,#596,.T.);
#814=ORIENTED_EDGE('',*,*,#597,.T.);
#815=ORIENTED_EDGE('',*,*,#598,.T.);
#816=ORIENTED_EDGE('',*,*,#599,.T.);
#817=ORIENTED_EDGE('',*,*,#600,.T.);
#818=ORIENTED_EDGE('',*,*,#601,.T.);
#819=ORIENTED_EDGE('',*,*,#602,.F.);
#820=ORIENTED_EDGE('',*,*,#603,.T.);
#821=ORIENTED_EDGE('',*,*,#602,.T.);
#822=ORIENTED_EDGE('',*,*,#600,.F.);
#823=ORIENTED_EDGE('',*,*,#604,.T.);
#824=ORIENTED_EDGE('',*,*,#605,.T.);
#825=ORIENTED_EDGE('',*,*,#606,.F.);
#826=ORIENTED_EDGE('',*,*,#599,.F.);
#827=ORIENTED_EDGE('',*,*,#607,.F.);
#828=ORIENTED_EDGE('',*,*,#608,.T.);
#829=ORIENTED_EDGE('',*,*,#604,.F.);
#830=ORIENTED_EDGE('',*,*,#596,.F.);
#831=ORIENTED_EDGE('',*,*,#606,.T.);
#832=ORIENTED_EDGE('',*,*,#609,.T.);
#833=ORIENTED_EDGE('',*,*,#610,.F.);
#834=ORIENTED_EDGE('',*,*,#609,.F.);
#835=ORIENTED_EDGE('',*,*,#605,.F.);
#836=ORIENTED_EDGE('',*,*,#608,.F.);
#837=ORIENTED_EDGE('',*,*,#611,.F.);
#838=ORIENTED_EDGE('',*,*,#610,.T.);
#839=ORIENTED_EDGE('',*,*,#611,.T.);
#840=ORIENTED_EDGE('',*,*,#607,.T.);
#841=ORIENTED_EDGE('',*,*,#598,.F.);
#842=ORIENTED_EDGE('',*,*,#612,.T.);
#843=ORIENTED_EDGE('',*,*,#613,.T.);
#844=ORIENTED_EDGE('',*,*,#612,.F.);
#845=ORIENTED_EDGE('',*,*,#597,.F.);
#846=ORIENTED_EDGE('',*,*,#613,.F.);
#847=ORIENTED_EDGE('',*,*,#614,.T.);
#848=ORIENTED_EDGE('',*,*,#601,.F.);
#849=ORIENTED_EDGE('',*,*,#603,.F.);
#850=ORIENTED_EDGE('',*,*,#615,.T.);
#851=ORIENTED_EDGE('',*,*,#615,.F.);
#852=ORIENTED_EDGE('',*,*,#614,.F.);
#853=ORIENTED_EDGE('',*,*,#582,.F.);
#854=ORIENTED_EDGE('',*,*,#616,.T.);
#855=ORIENTED_EDGE('',*,*,#617,.F.);
#856=ORIENTED_EDGE('',*,*,#528,.F.);
#857=ORIENTED_EDGE('',*,*,#568,.F.);
#858=ORIENTED_EDGE('',*,*,#522,.F.);
#859=ORIENTED_EDGE('',*,*,#618,.T.);
#860=ORIENTED_EDGE('',*,*,#619,.T.);
#861=ORIENTED_EDGE('',*,*,#620,.F.);
#862=ORIENTED_EDGE('',*,*,#621,.T.);
#863=ORIENTED_EDGE('',*,*,#622,.T.);
#864=ORIENTED_EDGE('',*,*,#621,.F.);
#865=ORIENTED_EDGE('',*,*,#623,.F.);
#866=ORIENTED_EDGE('',*,*,#531,.T.);
#867=ORIENTED_EDGE('',*,*,#502,.F.);
#868=ORIENTED_EDGE('',*,*,#535,.T.);
#869=ORIENTED_EDGE('',*,*,#541,.T.);
#870=ORIENTED_EDGE('',*,*,#564,.F.);
#871=ORIENTED_EDGE('',*,*,#517,.F.);
#872=ORIENTED_EDGE('',*,*,#566,.T.);
#873=ORIENTED_EDGE('',*,*,#624,.F.);
#874=ORIENTED_EDGE('',*,*,#625,.F.);
#875=ORIENTED_EDGE('',*,*,#626,.F.);
#876=ORIENTED_EDGE('',*,*,#625,.T.);
#877=ORIENTED_EDGE('',*,*,#627,.F.);
#878=ORIENTED_EDGE('',*,*,#628,.F.);
#879=ORIENTED_EDGE('',*,*,#629,.F.);
#880=ORIENTED_EDGE('',*,*,#628,.T.);
#881=ORIENTED_EDGE('',*,*,#630,.F.);
#882=ORIENTED_EDGE('',*,*,#631,.F.);
#883=ORIENTED_EDGE('',*,*,#632,.F.);
#884=ORIENTED_EDGE('',*,*,#631,.T.);
#885=ORIENTED_EDGE('',*,*,#633,.F.);
#886=ORIENTED_EDGE('',*,*,#634,.F.);
#887=ORIENTED_EDGE('',*,*,#635,.F.);
#888=ORIENTED_EDGE('',*,*,#634,.T.);
#889=ORIENTED_EDGE('',*,*,#636,.F.);
#890=ORIENTED_EDGE('',*,*,#616,.F.);
#891=ORIENTED_EDGE('',*,*,#581,.F.);
#892=ORIENTED_EDGE('',*,*,#586,.T.);
#893=ORIENTED_EDGE('',*,*,#595,.F.);
#894=ORIENTED_EDGE('',*,*,#593,.F.);
#895=ORIENTED_EDGE('',*,*,#569,.F.);
#896=ORIENTED_EDGE('',*,*,#619,.F.);
#897=ORIENTED_EDGE('',*,*,#565,.T.);
#898=ORIENTED_EDGE('',*,*,#529,.T.);
#899=ORIENTED_EDGE('',*,*,#617,.T.);
#900=ORIENTED_EDGE('',*,*,#636,.T.);
#901=ORIENTED_EDGE('',*,*,#633,.T.);
#902=ORIENTED_EDGE('',*,*,#630,.T.);
#903=ORIENTED_EDGE('',*,*,#627,.T.);
#904=ORIENTED_EDGE('',*,*,#624,.T.);
#905=ORIENTED_EDGE('',*,*,#620,.T.);
#906=ORIENTED_EDGE('',*,*,#532,.F.);
#907=ORIENTED_EDGE('',*,*,#623,.T.);
#908=ORIENTED_EDGE('',*,*,#626,.T.);
#909=ORIENTED_EDGE('',*,*,#629,.T.);
#910=ORIENTED_EDGE('',*,*,#632,.T.);
#911=ORIENTED_EDGE('',*,*,#635,.T.);
#912=ORIENTED_EDGE('',*,*,#618,.F.);
#913=ORIENTED_EDGE('',*,*,#521,.F.);
#914=ORIENTED_EDGE('',*,*,#622,.F.);
#915=TOROIDAL_SURFACE('',#988,22.,2.);
#916=TOROIDAL_SURFACE('',#999,22.,2.);
#917=TOROIDAL_SURFACE('',#1036,22.,2.);
#918=TOROIDAL_SURFACE('',#1043,22.,2.);
#919=ADVANCED_FACE('',(#254),#915,.F.);
#920=ADVANCED_FACE('',(#255),#238,.F.);
#921=ADVANCED_FACE('',(#256),#60,.T.);
#922=ADVANCED_FACE('',(#257),#239,.F.);
#923=ADVANCED_FACE('',(#258),#61,.T.);
#924=ADVANCED_FACE('',(#259),#916,.F.);
#925=ADVANCED_FACE('',(#260),#240,.F.);
#926=ADVANCED_FACE('',(#261),#241,.T.);
#927=ADVANCED_FACE('',(#262),#21,.T.);
#928=ADVANCED_FACE('',(#263),#22,.F.);
#929=ADVANCED_FACE('',(#264),#242,.T.);
#930=ADVANCED_FACE('',(#265,#17),#23,.F.);
#931=ADVANCED_FACE('',(#266),#24,.F.);
#932=ADVANCED_FACE('',(#267),#243,.T.);
#933=ADVANCED_FACE('',(#268),#25,.F.);
#934=ADVANCED_FACE('',(#269),#244,.F.);
#935=ADVANCED_FACE('',(#270),#26,.T.);
#936=ADVANCED_FACE('',(#271),#27,.T.);
#937=ADVANCED_FACE('',(#272),#28,.T.);
#938=ADVANCED_FACE('',(#273),#29,.F.);
#939=ADVANCED_FACE('',(#274),#15,.F.);
#940=ADVANCED_FACE('',(#275),#245,.F.);
#941=ADVANCED_FACE('',(#276),#30,.F.);
#942=ADVANCED_FACE('',(#277),#31,.T.);
#943=ADVANCED_FACE('',(#278),#246,.F.);
#944=ADVANCED_FACE('',(#279),#917,.F.);
#945=ADVANCED_FACE('',(#280),#62,.T.);
#946=ADVANCED_FACE('',(#281),#247,.F.);
#947=ADVANCED_FACE('',(#282),#63,.T.);
#948=ADVANCED_FACE('',(#283),#918,.F.);
#949=ADVANCED_FACE('',(#284),#248,.F.);
#950=ADVANCED_FACE('',(#285),#32,.T.);
#951=ADVANCED_FACE('',(#286),#249,.T.);
#952=ADVANCED_FACE('',(#287),#33,.T.);
#953=ADVANCED_FACE('',(#288),#250,.T.);
#954=ADVANCED_FACE('',(#289),#34,.T.);
#955=ADVANCED_FACE('',(#290,#18),#35,.T.);
#956=ADVANCED_FACE('',(#291),#36,.T.);
#957=ADVANCED_FACE('',(#292),#251,.F.);
#958=ADVANCED_FACE('',(#293),#37,.F.);
#959=ADVANCED_FACE('',(#294),#38,.F.);
#960=ADVANCED_FACE('',(#295),#39,.F.);
#961=ADVANCED_FACE('',(#296),#40,.T.);
#962=ADVANCED_FACE('',(#297),#252,.F.);
#963=ADVANCED_FACE('',(#298),#16,.F.);
#964=ADVANCED_FACE('',(#299),#41,.T.);
#965=ADVANCED_FACE('',(#300),#42,.T.);
#966=ADVANCED_FACE('',(#301),#253,.F.);
#967=ADVANCED_FACE('',(#302),#43,.T.);
#968=ADVANCED_FACE('',(#303),#44,.T.);
#969=ADVANCED_FACE('',(#304),#45,.T.);
#970=ADVANCED_FACE('',(#305),#46,.T.);
#971=ADVANCED_FACE('',(#306),#47,.T.);
#972=ADVANCED_FACE('',(#307,#19),#48,.T.);
#973=ADVANCED_FACE('',(#308,#20),#49,.F.);
#974=CLOSED_SHELL('',(#919,#920,#921,#922,#923,#924,#925,#926,#927,#928,
#929,#930,#931,#932,#933,#934,#935,#936,#937,#938,#939,#940,#941,#942,#943,
#944,#945,#946,#947,#948,#949,#950,#951,#952,#953,#954,#955,#956,#957,#958,
#959,#960,#961,#962,#963,#964,#965,#966,#967,#968,#969,#970,#971,#972,#973));
#975=DERIVED_UNIT_ELEMENT(#977,1.);
#976=DERIVED_UNIT_ELEMENT(#1834,-3.);
#977=(
MASS_UNIT()
NAMED_UNIT(*)
SI_UNIT(.KILO.,.GRAM.)
);
#978=DERIVED_UNIT((#975,#976));
#979=MEASURE_REPRESENTATION_ITEM('density measure',
POSITIVE_RATIO_MEASURE(7850.),#978);
#980=PROPERTY_DEFINITION_REPRESENTATION(#985,#982);
#981=PROPERTY_DEFINITION_REPRESENTATION(#986,#983);
#982=REPRESENTATION('material name',(#984),#1831);
#983=REPRESENTATION('density',(#979),#1831);
#984=DESCRIPTIVE_REPRESENTATION_ITEM('Steel','Steel');
#985=PROPERTY_DEFINITION('material property','material name',#1841);
#986=PROPERTY_DEFINITION('material property','density of part',#1841);
#987=AXIS2_PLACEMENT_3D('',#1356,#1081,#1082);
#988=AXIS2_PLACEMENT_3D('',#1357,#1083,#1084);
#989=AXIS2_PLACEMENT_3D('',#1360,#1085,#1086);
#990=AXIS2_PLACEMENT_3D('',#1362,#1087,#1088);
#991=AXIS2_PLACEMENT_3D('',#1364,#1089,#1090);
#992=AXIS2_PLACEMENT_3D('',#1365,#1091,#1092);
#993=AXIS2_PLACEMENT_3D('',#1366,#1093,#1094);
#994=AXIS2_PLACEMENT_3D('',#1369,#1095,#1096);
#995=AXIS2_PLACEMENT_3D('',#1404,#1099,#1100);
#996=AXIS2_PLACEMENT_3D('',#1417,#1101,#1102);
#997=AXIS2_PLACEMENT_3D('',#1420,#1103,#1104);
#998=AXIS2_PLACEMENT_3D('',#1455,#1107,#1108);
#999=AXIS2_PLACEMENT_3D('',#1468,#1109,#1110);
#1000=AXIS2_PLACEMENT_3D('',#1471,#1111,#1112);
#1001=AXIS2_PLACEMENT_3D('',#1472,#1113,#1114);
#1002=AXIS2_PLACEMENT_3D('',#1473,#1115,#1116);
#1003=AXIS2_PLACEMENT_3D('',#1474,#1117,#1118);
#1004=AXIS2_PLACEMENT_3D('',#1477,#1119,#1120);
#1005=AXIS2_PLACEMENT_3D('',#1480,#1123,#1124);
#1006=AXIS2_PLACEMENT_3D('',#1484,#1126,#1127);
#1007=AXIS2_PLACEMENT_3D('',#1488,#1129,#1130);
#1008=AXIS2_PLACEMENT_3D('',#1506,#1132,#1133);
#1009=AXIS2_PLACEMENT_3D('',#1510,#1135,#1136);
#1010=AXIS2_PLACEMENT_3D('',#1512,#1138,#1139);
#1011=AXIS2_PLACEMENT_3D('',#1516,#1142,#1143);
#1012=AXIS2_PLACEMENT_3D('',#1522,#1147,#1148);
#1013=AXIS2_PLACEMENT_3D('',#1525,#1150,#1151);
#1014=AXIS2_PLACEMENT_3D('',#1526,#1152,#1153);
#1015=AXIS2_PLACEMENT_3D('',#1530,#1155,#1156);
#1016=AXIS2_PLACEMENT_3D('',#1542,#1162,#1163);
#1017=AXIS2_PLACEMENT_3D('',#1543,#1164,#1165);
#1018=AXIS2_PLACEMENT_3D('',#1544,#1166,#1167);
#1019=AXIS2_PLACEMENT_3D('',#1546,#1169,#1170);
#1020=AXIS2_PLACEMENT_3D('',#1548,#1172,#1173);
#1021=AXIS2_PLACEMENT_3D('',#1551,#1174,#1175);
#1022=AXIS2_PLACEMENT_3D('',#1553,#1177,#1178);
#1023=AXIS2_PLACEMENT_3D('',#1572,#1179,#1180);
#1024=AXIS2_PLACEMENT_3D('',#1578,#1184,#1185);
#1025=AXIS2_PLACEMENT_3D('',#1582,#1188,#1189);
#1026=AXIS2_PLACEMENT_3D('',#1586,#1192,#1193);
#1027=AXIS2_PLACEMENT_3D('',#1587,#1194,#1195);
#1028=AXIS2_PLACEMENT_3D('',#1588,#1196,#1197);
#1029=AXIS2_PLACEMENT_3D('',#1590,#1198,#1199);
#1030=AXIS2_PLACEMENT_3D('',#1594,#1202,#1203);
#1031=AXIS2_PLACEMENT_3D('',#1596,#1205,#1206);
#1032=AXIS2_PLACEMENT_3D('',#1598,#1208,#1209);
#1033=AXIS2_PLACEMENT_3D('',#1602,#1212,#1213);
#1034=AXIS2_PLACEMENT_3D('',#1604,#1214,#1215);
#1035=AXIS2_PLACEMENT_3D('',#1608,#1217,#1218);
#1036=AXIS2_PLACEMENT_3D('',#1610,#1220,#1221);
#1037=AXIS2_PLACEMENT_3D('',#1612,#1222,#1223);
#1038=AXIS2_PLACEMENT_3D('',#1613,#1224,#1225);
#1039=AXIS2_PLACEMENT_3D('',#1651,#1226,#1227);
#1040=AXIS2_PLACEMENT_3D('',#1652,#1228,#1229);
#1041=AXIS2_PLACEMENT_3D('',#1654,#1230,#1231);
#1042=AXIS2_PLACEMENT_3D('',#1693,#1233,#1234);
#1043=AXIS2_PLACEMENT_3D('',#1694,#1235,#1236);
#1044=AXIS2_PLACEMENT_3D('',#1696,#1237,#1238);
#1045=AXIS2_PLACEMENT_3D('',#1697,#1239,#1240);
#1046=AXIS2_PLACEMENT_3D('',#1698,#1241,#1242);
#1047=AXIS2_PLACEMENT_3D('',#1701,#1243,#1244);
#1048=AXIS2_PLACEMENT_3D('',#1704,#1247,#1248);
#1049=AXIS2_PLACEMENT_3D('',#1710,#1252,#1253);
#1050=AXIS2_PLACEMENT_3D('',#1713,#1255,#1256);
#1051=AXIS2_PLACEMENT_3D('',#1714,#1257,#1258);
#1052=AXIS2_PLACEMENT_3D('',#1718,#1261,#1262);
#1053=AXIS2_PLACEMENT_3D('',#1721,#1264,#1265);
#1054=AXIS2_PLACEMENT_3D('',#1722,#1266,#1267);
#1055=AXIS2_PLACEMENT_3D('',#1726,#1270,#1271);
#1056=AXIS2_PLACEMENT_3D('',#1732,#1274,#1275);
#1057=AXIS2_PLACEMENT_3D('',#1734,#1276,#1277);
#1058=AXIS2_PLACEMENT_3D('',#1738,#1280,#1281);
#1059=AXIS2_PLACEMENT_3D('',#1741,#1282,#1283);
#1060=AXIS2_PLACEMENT_3D('',#1743,#1285,#1286);
#1061=AXIS2_PLACEMENT_3D('',#1762,#1287,#1288);
#1062=AXIS2_PLACEMENT_3D('',#1768,#1292,#1293);
#1063=AXIS2_PLACEMENT_3D('',#1772,#1296,#1297);
#1064=AXIS2_PLACEMENT_3D('',#1776,#1300,#1301);
#1065=AXIS2_PLACEMENT_3D('',#1777,#1302,#1303);
#1066=AXIS2_PLACEMENT_3D('',#1778,#1304,#1305);
#1067=AXIS2_PLACEMENT_3D('',#1781,#1307,#1308);
#1068=AXIS2_PLACEMENT_3D('',#1782,#1309,#1310);
#1069=AXIS2_PLACEMENT_3D('',#1786,#1313,#1314);
#1070=AXIS2_PLACEMENT_3D('',#1790,#1317,#1318);
#1071=AXIS2_PLACEMENT_3D('',#1794,#1321,#1322);
#1072=AXIS2_PLACEMENT_3D('',#1796,#1323,#1324);
#1073=AXIS2_PLACEMENT_3D('',#1799,#1326,#1327);
#1074=AXIS2_PLACEMENT_3D('',#1800,#1328,#1329);
#1075=AXIS2_PLACEMENT_3D('',#1806,#1333,#1334);
#1076=AXIS2_PLACEMENT_3D('',#1812,#1338,#1339);
#1077=AXIS2_PLACEMENT_3D('',#1818,#1343,#1344);
#1078=AXIS2_PLACEMENT_3D('',#1824,#1348,#1349);
#1079=AXIS2_PLACEMENT_3D('',#1827,#1352,#1353);
#1080=AXIS2_PLACEMENT_3D('',#1828,#1354,#1355);
#1081=DIRECTION('axis',(0.,0.,1.));
#1082=DIRECTION('refdir',(1.,0.,0.));
#1083=DIRECTION('center_axis',(0.,-1.,0.));
#1084=DIRECTION('ref_axis',(0.,0.,-1.));
#1085=DIRECTION('center_axis',(0.545454545454547,9.30522775731073E-16,0.838140405208444));
#1086=DIRECTION('ref_axis',(0.838140405208444,0.,-0.545454545454547));
#1087=DIRECTION('center_axis',(0.,-1.,0.));
#1088=DIRECTION('ref_axis',(-0.948683298050514,0.,0.316227766016838));
#1089=DIRECTION('center_axis',(-5.55111512312578E-16,0.,-1.));
#1090=DIRECTION('ref_axis',(0.,1.,0.));
#1091=DIRECTION('center_axis',(0.,1.,0.));
#1092=DIRECTION('ref_axis',(-0.948683298050514,0.,0.316227766016838));
#1093=DIRECTION('center_axis',(0.,0.,-1.));
#1094=DIRECTION('ref_axis',(0.707106781186548,0.707106781186547,0.));
#1095=DIRECTION('center_axis',(-8.64454513837358E-16,0.,-1.));
#1096=DIRECTION('ref_axis',(0.707106781186548,0.707106781186547,0.));
#1097=DIRECTION('',(0.,0.,1.));
#1098=DIRECTION('',(0.,0.,-1.));
#1099=DIRECTION('center_axis',(1.17642105573971E-15,1.,1.11022302462516E-15));
#1100=DIRECTION('ref_axis',(0.686348585024613,0.,-0.727272727272728));
#1101=DIRECTION('center_axis',(0.,-1.,0.));
#1102=DIRECTION('ref_axis',(0.369274472937998,0.,-0.929320377284585));
#1103=DIRECTION('center_axis',(0.,1.,0.));
#1104=DIRECTION('ref_axis',(0.686348585024613,0.,-0.727272727272728));
#1105=DIRECTION('',(0.,-1.,-1.90323947078598E-16));
#1106=DIRECTION('',(0.,1.,0.));
#1107=DIRECTION('center_axis',(-0.545454545591669,9.48160834844106E-10,
-0.838140405119205));
#1108=DIRECTION('ref_axis',(0.838140405119205,0.,-0.545454545591669));
#1109=DIRECTION('center_axis',(0.,1.,0.));
#1110=DIRECTION('ref_axis',(0.,0.,1.));
#1111=DIRECTION('center_axis',(-5.55111512312576E-16,0.,-1.));
#1112=DIRECTION('ref_axis',(1.,0.,-5.55111512312577E-16));
#1113=DIRECTION('center_axis',(0.,1.,0.));
#1114=DIRECTION('ref_axis',(-0.948683298050514,0.,0.316227766016838));
#1115=DIRECTION('center_axis',(0.,-1.,0.));
#1116=DIRECTION('ref_axis',(-0.948683298050514,0.,0.316227766016838));
#1117=DIRECTION('center_axis',(0.,0.,1.));
#1118=DIRECTION('ref_axis',(0.707106781186546,-0.707106781186549,0.));
#1119=DIRECTION('center_axis',(-8.64454513837358E-16,0.,-1.));
#1120=DIRECTION('ref_axis',(0.707106781186546,-0.707106781186549,0.));
#1121=DIRECTION('',(0.,0.,1.));
#1122=DIRECTION('',(0.,0.,-1.));
#1123=DIRECTION('center_axis',(0.,1.,0.));
#1124=DIRECTION('ref_axis',(-1.,0.,0.));
#1125=DIRECTION('',(0.,1.,0.));
#1126=DIRECTION('center_axis',(0.,1.,0.));
#1127=DIRECTION('ref_axis',(-1.,0.,0.));
#1128=DIRECTION('',(0.,1.,0.));
#1129=DIRECTION('center_axis',(0.,1.,0.));
#1130=DIRECTION('ref_axis',(0.948683298050514,0.,0.316227766016838));
#1131=DIRECTION('',(0.,-1.,0.));
#1132=DIRECTION('center_axis',(0.,-1.,0.));
#1133=DIRECTION('ref_axis',(0.948683298050513,0.,0.316227766016839));
#1134=DIRECTION('',(0.,1.,0.));
#1135=DIRECTION('center_axis',(0.,1.,0.));
#1136=DIRECTION('ref_axis',(-1.,0.,0.));
#1137=DIRECTION('',(0.,1.,0.));
#1138=DIRECTION('center_axis',(-1.,0.,0.));
#1139=DIRECTION('ref_axis',(0.,0.,1.));
#1140=DIRECTION('',(0.,1.,0.));
#1141=DIRECTION('',(0.,0.,1.));
#1142=DIRECTION('center_axis',(0.,1.,0.));
#1143=DIRECTION('ref_axis',(0.,0.,-1.));
#1144=DIRECTION('',(1.,0.,0.));
#1145=DIRECTION('',(0.,0.,-1.));
#1146=DIRECTION('',(-1.,0.,0.));
#1147=DIRECTION('center_axis',(1.,0.,0.));
#1148=DIRECTION('ref_axis',(0.,-0.707106781186548,0.707106781186548));
#1149=DIRECTION('',(-1.,0.,0.));
#1150=DIRECTION('center_axis',(1.,0.,0.));
#1151=DIRECTION('ref_axis',(0.,-0.707106781186548,0.707106781186548));
#1152=DIRECTION('center_axis',(1.,0.,0.));
#1153=DIRECTION('ref_axis',(0.,0.,-1.));
#1154=DIRECTION('',(0.,-1.,-1.90323947078598E-16));
#1155=DIRECTION('center_axis',(1.,0.,0.));
#1156=DIRECTION('ref_axis',(0.,0.707106781186547,0.707106781186548));
#1157=DIRECTION('',(0.,0.,1.));
#1158=DIRECTION('',(0.,1.,0.));
#1159=DIRECTION('',(0.,-0.573576436351046,-0.819152044288992));
#1160=DIRECTION('',(0.,0.819152044288992,-0.573576436351046));
#1161=DIRECTION('',(0.,0.573576436351047,0.819152044288991));
#1162=DIRECTION('center_axis',(1.,0.,0.));
#1163=DIRECTION('ref_axis',(0.,1.,0.));
#1164=DIRECTION('center_axis',(1.,0.,0.));
#1165=DIRECTION('ref_axis',(0.,1.,0.));
#1166=DIRECTION('center_axis',(0.,1.90323947078598E-16,-1.));
#1167=DIRECTION('ref_axis',(0.,-1.,-1.90323947078598E-16));
#1168=DIRECTION('',(1.,0.,0.));
#1169=DIRECTION('center_axis',(1.,0.,0.));
#1170=DIRECTION('ref_axis',(0.,0.707106781186547,0.707106781186548));
#1171=DIRECTION('',(-1.,0.,0.));
#1172=DIRECTION('center_axis',(1.,0.,0.));
#1173=DIRECTION('ref_axis',(0.,1.,0.));
#1174=DIRECTION('center_axis',(-1.,0.,0.));
#1175=DIRECTION('ref_axis',(0.,1.,0.));
#1176=DIRECTION('',(0.,-1.,0.));
#1177=DIRECTION('center_axis',(0.,-1.,0.));
#1178=DIRECTION('ref_axis',(-1.,0.,0.));
#1179=DIRECTION('center_axis',(0.,0.573576436351046,0.819152044288992));
#1180=DIRECTION('ref_axis',(0.,-0.819152044288992,0.573576436351046));
#1181=DIRECTION('',(1.,0.,0.));
#1182=DIRECTION('',(0.,-0.819152044288992,0.573576436351046));
#1183=DIRECTION('',(1.,0.,0.));
#1184=DIRECTION('center_axis',(0.,-0.819152044288991,0.573576436351047));
#1185=DIRECTION('ref_axis',(0.,-0.573576436351047,-0.819152044288991));
#1186=DIRECTION('',(0.,-0.573576436351047,-0.819152044288991));
#1187=DIRECTION('',(1.,0.,0.));
#1188=DIRECTION('center_axis',(0.,0.819152044288992,-0.573576436351046));
#1189=DIRECTION('ref_axis',(0.,0.573576436351046,0.819152044288992));
#1190=DIRECTION('',(-1.,0.,0.));
#1191=DIRECTION('',(0.,0.573576436351046,0.819152044288992));
#1192=DIRECTION('center_axis',(1.,0.,0.));
#1193=DIRECTION('ref_axis',(0.,1.,0.));
#1194=DIRECTION('center_axis',(-1.,0.,0.));
#1195=DIRECTION('ref_axis',(0.,1.,0.));
#1196=DIRECTION('center_axis',(-1.,0.,0.));
#1197=DIRECTION('ref_axis',(0.,1.,0.));
#1198=DIRECTION('center_axis',(-1.,0.,0.));
#1199=DIRECTION('ref_axis',(0.,1.,0.));
#1200=DIRECTION('',(0.515038074910054,0.857167300702112,-1.04972719113862E-16));
#1201=DIRECTION('',(0.515038074910054,0.857167300702112,-1.04972719113862E-16));
#1202=DIRECTION('center_axis',(-1.,0.,0.));
#1203=DIRECTION('ref_axis',(0.,1.,0.));
#1204=DIRECTION('',(1.,0.,0.));
#1205=DIRECTION('center_axis',(0.,-1.,0.));
#1206=DIRECTION('ref_axis',(0.,0.,1.));
#1207=DIRECTION('',(-1.,0.,0.));
#1208=DIRECTION('center_axis',(-1.,0.,0.));
#1209=DIRECTION('ref_axis',(0.,0.,1.));
#1210=DIRECTION('',(0.,0.,1.));
#1211=DIRECTION('',(0.,1.,0.));
#1212=DIRECTION('center_axis',(6.10622663543836E-16,0.,1.));
#1213=DIRECTION('ref_axis',(-0.707106781186548,0.707106781186547,0.));
#1214=DIRECTION('center_axis',(6.31005664386564E-16,0.,1.));
#1215=DIRECTION('ref_axis',(0.,1.,0.));
#1216=DIRECTION('',(-6.10622663543836E-16,0.,-1.));
#1217=DIRECTION('center_axis',(8.6445451383736E-16,0.,-1.));
#1218=DIRECTION('ref_axis',(-0.707106781186548,0.707106781186547,0.));
#1219=DIRECTION('',(6.10622663543836E-16,0.,1.));
#1220=DIRECTION('center_axis',(0.,-1.,0.));
#1221=DIRECTION('ref_axis',(0.,0.,-1.));
#1222=DIRECTION('center_axis',(-0.545454545454546,-2.80629614769098E-16,
0.838140405208444));
#1223=DIRECTION('ref_axis',(-2.22044604925031E-15,1.,-1.11022302462516E-15));
#1224=DIRECTION('center_axis',(0.,-1.,0.));
#1225=DIRECTION('ref_axis',(0.948683298050514,0.,0.316227766016838));
#1226=DIRECTION('center_axis',(-1.17642105573972E-15,1.,1.11022302462516E-15));
#1227=DIRECTION('ref_axis',(0.,1.11022302462516E-15,-1.));
#1228=DIRECTION('center_axis',(0.,1.,0.));
#1229=DIRECTION('ref_axis',(-0.369274472937998,0.,-0.929320377284585));
#1230=DIRECTION('center_axis',(0.,1.,0.));
#1231=DIRECTION('ref_axis',(0.,0.,-1.));
#1232=DIRECTION('',(0.,1.,1.90323947078598E-16));
#1233=DIRECTION('center_axis',(0.54545454559167,9.4815990432133E-10,-0.838140405119205));
#1234=DIRECTION('ref_axis',(0.,-1.,-1.13126619183391E-9));
#1235=DIRECTION('center_axis',(0.,1.,0.));
#1236=DIRECTION('ref_axis',(0.,0.,1.));
#1237=DIRECTION('center_axis',(-1.18611717669914E-15,0.,-1.));
#1238=DIRECTION('ref_axis',(0.,-1.,0.));
#1239=DIRECTION('center_axis',(0.,1.,0.));
#1240=DIRECTION('ref_axis',(0.948683298050514,0.,0.316227766016839));
#1241=DIRECTION('center_axis',(-6.10622663543836E-16,0.,-1.));
#1242=DIRECTION('ref_axis',(-0.707106781186544,-0.707106781186551,1.57009245868377E-15));
#1243=DIRECTION('center_axis',(8.6445451383736E-16,0.,-1.));
#1244=DIRECTION('ref_axis',(-0.707106781186544,-0.707106781186551,1.57009245868377E-15));
#1245=DIRECTION('',(6.10622663543836E-16,0.,1.));
#1246=DIRECTION('',(-6.10622663543836E-16,0.,-1.));
#1247=DIRECTION('center_axis',(0.,1.,0.));
#1248=DIRECTION('ref_axis',(0.,0.,1.));
#1249=DIRECTION('',(-1.,0.,0.));
#1250=DIRECTION('',(0.,0.,1.));
#1251=DIRECTION('',(1.,0.,0.));
#1252=DIRECTION('center_axis',(1.,0.,0.));
#1253=DIRECTION('ref_axis',(0.,0.707106781186547,0.707106781186548));
#1254=DIRECTION('',(1.,0.,0.));
#1255=DIRECTION('center_axis',(-1.,0.,0.));
#1256=DIRECTION('ref_axis',(0.,0.707106781186547,0.707106781186548));
#1257=DIRECTION('center_axis',(0.,-1.90323947078598E-16,1.));
#1258=DIRECTION('ref_axis',(0.,-1.,-1.90323947078598E-16));
#1259=DIRECTION('',(-1.,0.,0.));
#1260=DIRECTION('',(0.,-1.,-1.90323947078598E-16));
#1261=DIRECTION('center_axis',(1.,0.,0.));
#1262=DIRECTION('ref_axis',(0.,-0.707106781186548,0.707106781186548));
#1263=DIRECTION('',(1.,0.,0.));
#1264=DIRECTION('center_axis',(-1.,0.,0.));
#1265=DIRECTION('ref_axis',(0.,-0.707106781186548,0.707106781186548));
#1266=DIRECTION('center_axis',(0.,-1.,0.));
#1267=DIRECTION('ref_axis',(0.,0.,-1.));
#1268=DIRECTION('',(1.,0.,0.));
#1269=DIRECTION('',(0.,0.,-1.));
#1270=DIRECTION('center_axis',(1.,0.,0.));
#1271=DIRECTION('ref_axis',(0.,0.,-1.));
#1272=DIRECTION('',(0.,1.,0.));
#1273=DIRECTION('',(0.,0.573576436351046,0.819152044288992));
#1274=DIRECTION('center_axis',(-1.,0.,0.));
#1275=DIRECTION('ref_axis',(0.,1.,0.));
#1276=DIRECTION('center_axis',(-1.,0.,0.));
#1277=DIRECTION('ref_axis',(0.,1.,0.));
#1278=DIRECTION('',(0.,-0.573576436351047,-0.819152044288991));
#1279=DIRECTION('',(0.,-0.819152044288992,0.573576436351046));
#1280=DIRECTION('center_axis',(1.,0.,0.));
#1281=DIRECTION('ref_axis',(0.,1.,0.));
#1282=DIRECTION('center_axis',(1.,0.,0.));
#1283=DIRECTION('ref_axis',(0.,1.,0.));
#1284=DIRECTION('',(0.,-1.,0.));
#1285=DIRECTION('center_axis',(0.,1.,0.));
#1286=DIRECTION('ref_axis',(1.,0.,0.));
#1287=DIRECTION('center_axis',(0.,-0.573576436351046,-0.819152044288992));
#1288=DIRECTION('ref_axis',(0.,-0.819152044288992,0.573576436351046));
#1289=DIRECTION('',(-1.,0.,0.));
#1290=DIRECTION('',(0.,-0.819152044288992,0.573576436351046));
#1291=DIRECTION('',(-1.,0.,0.));
#1292=DIRECTION('center_axis',(0.,0.819152044288991,-0.573576436351047));
#1293=DIRECTION('ref_axis',(0.,-0.573576436351047,-0.819152044288991));
#1294=DIRECTION('',(1.,0.,0.));
#1295=DIRECTION('',(0.,-0.573576436351047,-0.819152044288991));
#1296=DIRECTION('center_axis',(0.,-0.819152044288992,0.573576436351046));
#1297=DIRECTION('ref_axis',(0.,0.573576436351046,0.819152044288992));
#1298=DIRECTION('',(0.,0.573576436351046,0.819152044288992));
#1299=DIRECTION('',(-1.,0.,0.));
#1300=DIRECTION('center_axis',(1.,0.,0.));
#1301=DIRECTION('ref_axis',(0.,1.,0.));
#1302=DIRECTION('center_axis',(1.,0.,0.));
#1303=DIRECTION('ref_axis',(0.,1.,0.));
#1304=DIRECTION('center_axis',(-1.,0.,0.));
#1305=DIRECTION('ref_axis',(0.,1.,0.));
#1306=DIRECTION('',(-1.,0.,0.));
#1307=DIRECTION('center_axis',(-1.,0.,0.));
#1308=DIRECTION('ref_axis',(0.,1.,0.));
#1309=DIRECTION('center_axis',(1.,0.,0.));
#1310=DIRECTION('ref_axis',(0.,1.,0.));
#1311=DIRECTION('',(-0.515038074910054,0.857167300702112,-1.04972719113862E-16));
#1312=DIRECTION('',(-0.515038074910054,0.857167300702112,-1.04972719113862E-16));
#1313=DIRECTION('center_axis',(1.,0.,-6.10622663543836E-16));
#1314=DIRECTION('ref_axis',(-6.10622663543836E-16,0.,-1.));
#1315=DIRECTION('',(0.,1.,0.));
#1316=DIRECTION('',(-6.10622663543836E-16,0.,-1.));
#1317=DIRECTION('center_axis',(1.,0.,-6.10622663543836E-16));
#1318=DIRECTION('ref_axis',(-6.10622663543836E-16,0.,-1.));
#1319=DIRECTION('',(-6.10622663543836E-16,0.,-1.));
#1320=DIRECTION('',(0.,1.,0.));
#1321=DIRECTION('center_axis',(0.,1.,0.));
#1322=DIRECTION('ref_axis',(1.,0.,0.));
#1323=DIRECTION('center_axis',(0.,-1.,0.));
#1324=DIRECTION('ref_axis',(1.,0.,0.));
#1325=DIRECTION('',(0.,-1.,0.));
#1326=DIRECTION('center_axis',(0.,-1.,0.));
#1327=DIRECTION('ref_axis',(1.,0.,0.));
#1328=DIRECTION('center_axis',(-8.64454513837358E-16,0.,-1.));
#1329=DIRECTION('ref_axis',(-1.,0.,8.64454513837358E-16));
#1330=DIRECTION('',(1.,0.,-8.64454513837358E-16));
#1331=DIRECTION('',(-1.,0.,8.64454513837358E-16));
#1332=DIRECTION('',(0.,1.,0.));
#1333=DIRECTION('center_axis',(0.951056516295154,0.,0.309016994374948));
#1334=DIRECTION('ref_axis',(0.309016994374948,0.,-0.951056516295153));
#1335=DIRECTION('',(-0.309016994374948,0.,0.951056516295153));
#1336=DIRECTION('',(0.309016994374948,0.,-0.951056516295153));
#1337=DIRECTION('',(0.,1.,0.));
#1338=DIRECTION('center_axis',(0.,0.,-1.));
#1339=DIRECTION('ref_axis',(-1.,0.,0.));
#1340=DIRECTION('',(1.,0.,0.));
#1341=DIRECTION('',(-1.,0.,0.));
#1342=DIRECTION('',(0.,1.,0.));
#1343=DIRECTION('center_axis',(-0.951056516295154,0.,0.309016994374946));
#1344=DIRECTION('ref_axis',(0.309016994374946,0.,0.951056516295154));
#1345=DIRECTION('',(-0.309016994374946,0.,-0.951056516295154));
#1346=DIRECTION('',(0.309016994374946,0.,0.951056516295154));
#1347=DIRECTION('',(0.,1.,0.));
#1348=DIRECTION('center_axis',(8.6445451383736E-16,0.,-1.));
#1349=DIRECTION('ref_axis',(-1.,0.,-8.6445451383736E-16));
#1350=DIRECTION('',(1.,0.,8.6445451383736E-16));
#1351=DIRECTION('',(-1.,0.,-8.6445451383736E-16));
#1352=DIRECTION('center_axis',(0.,1.,0.));
#1353=DIRECTION('ref_axis',(1.,0.,0.));
#1354=DIRECTION('center_axis',(0.,1.,0.));
#1355=DIRECTION('ref_axis',(1.,0.,0.));
#1356=CARTESIAN_POINT('',(0.,0.,0.));
#1357=CARTESIAN_POINT('Origin',(0.,8.,0.));
#1358=CARTESIAN_POINT('',(-16.7628081041689,8.,10.9090909090909));
#1359=CARTESIAN_POINT('',(-18.4390889145858,10.,12.));
#1360=CARTESIAN_POINT('Origin',(-18.4390889145858,8.,12.));
#1361=CARTESIAN_POINT('',(-22.,10.,1.11022302462516E-15));
#1362=CARTESIAN_POINT('Origin',(0.,10.,0.));
#1363=CARTESIAN_POINT('',(-20.,8.,0.));
#1364=CARTESIAN_POINT('Origin',(-22.,8.,1.11022302462516E-15));
#1365=CARTESIAN_POINT('Origin',(0.,8.,0.));
#1366=CARTESIAN_POINT('Origin',(-22.,8.,-13.));
#1367=CARTESIAN_POINT('',(-22.,10.,-40.));
#1368=CARTESIAN_POINT('',(-20.,8.,-40.));
#1369=CARTESIAN_POINT('Origin',(-22.,8.,-40.));
#1370=CARTESIAN_POINT('',(-20.,8.,-13.));
#1371=CARTESIAN_POINT('',(-22.,10.,-13.));
#1372=CARTESIAN_POINT('Ctrl Pts',(-18.4390889145858,10.,12.));
#1373=CARTESIAN_POINT('Ctrl Pts',(-17.6886774628116,10.,12.5765376450745));
#1374=CARTESIAN_POINT('Ctrl Pts',(-16.3781507642323,10.352587717084,13.3802520799371));
#1375=CARTESIAN_POINT('Ctrl Pts',(-15.2482765095554,11.3083818685687,13.9295812876725));
#1376=CARTESIAN_POINT('Ctrl Pts',(-15.0996688705415,11.8280307089684,14.));
#1377=CARTESIAN_POINT('Ctrl Pts',(-15.0996688705415,12.,14.));
#1378=CARTESIAN_POINT('Ctrl Pts',(-17.9375468689325,10.,11.6736007632634));
#1379=CARTESIAN_POINT('Ctrl Pts',(-17.258960913557,9.90298294973972,12.2501607027268));
#1380=CARTESIAN_POINT('Ctrl Pts',(-16.0334699666181,10.1456049795307,13.1979061055465));
#1381=CARTESIAN_POINT('Ctrl Pts',(-14.9539457290516,11.2027452368138,13.9083987223549));
#1382=CARTESIAN_POINT('Ctrl Pts',(-14.8114950097154,11.8018001834892,14.));
#1383=CARTESIAN_POINT('Ctrl Pts',(-14.8114950097154,12.,14.));
#1384=CARTESIAN_POINT('Ctrl Pts',(-17.0689522256785,9.49828319402702,11.1083268624037));
#1385=CARTESIAN_POINT('Ctrl Pts',(-16.507252216058,9.34862993720185,11.8310411028782));
#1386=CARTESIAN_POINT('Ctrl Pts',(-15.4309032376237,9.6288278346912,13.0681908992909));
#1387=CARTESIAN_POINT('Ctrl Pts',(-14.4380282111005,10.9820153627732,13.9909769499266));
#1388=CARTESIAN_POINT('Ctrl Pts',(-14.3074722676504,11.746319328259,14.1107749878));
#1389=CARTESIAN_POINT('Ctrl Pts',(-14.3074722676504,12.,14.1107749878));
#1390=CARTESIAN_POINT('Ctrl Pts',(-16.7628081041689,8.44879895051283,10.9090909090909));
#1391=CARTESIAN_POINT('Ctrl Pts',(-16.1403347394954,8.404354304417,11.8670382153912));
#1392=CARTESIAN_POINT('Ctrl Pts',(-15.0144202111531,8.982240567134,13.2778974779943));
#1393=CARTESIAN_POINT('Ctrl Pts',(-14.0158248223711,10.7263944447459,14.2696638901542));
#1394=CARTESIAN_POINT('Ctrl Pts',(-13.884157442761,11.6831332361809,14.3971137542403));
#1395=CARTESIAN_POINT('Ctrl Pts',(-13.884157442761,12.,14.3971137542403));
#1396=CARTESIAN_POINT('Ctrl Pts',(-16.7628081041689,8.,10.9090909090909));
#1397=CARTESIAN_POINT('Ctrl Pts',(-16.0806158752833,8.,11.9573411728627));
#1398=CARTESIAN_POINT('Ctrl Pts',(-14.8892279674839,8.70517543416803,13.4186401453401));
#1399=CARTESIAN_POINT('Ctrl Pts',(-13.8620695541412,10.6167637371373,14.417420523041));
#1400=CARTESIAN_POINT('Ctrl Pts',(-13.7269717004923,11.6560614179369,14.5454545454546));
#1401=CARTESIAN_POINT('Ctrl Pts',(-13.7269717004923,12.,14.5454545454546));
#1402=CARTESIAN_POINT('',(-13.7269717004923,12.,14.5454545454546));
#1403=CARTESIAN_POINT('',(-15.0996688705415,12.,14.));
#1404=CARTESIAN_POINT('Origin',(-15.0996688705415,12.,16.));
#1405=CARTESIAN_POINT('Ctrl Pts',(-15.0996688705415,12.,14.));
#1406=CARTESIAN_POINT('Ctrl Pts',(-15.0996688705415,11.8280307089684,14.));
#1407=CARTESIAN_POINT('Ctrl Pts',(-15.2482765095554,11.3083818685687,13.9295812876725));
#1408=CARTESIAN_POINT('Ctrl Pts',(-16.3781507642323,10.352587717084,13.3802520799371));
#1409=CARTESIAN_POINT('Ctrl Pts',(-17.6886774628116,10.,12.5765376450745));
#1410=CARTESIAN_POINT('Ctrl Pts',(-18.4390889145858,10.,12.));
#1411=CARTESIAN_POINT('Ctrl Pts',(-16.7628081041689,8.,10.9090909090909));
#1412=CARTESIAN_POINT('Ctrl Pts',(-16.0806158752833,8.,11.9573411728627));
#1413=CARTESIAN_POINT('Ctrl Pts',(-14.8892279674839,8.70517543416803,13.4186401453401));
#1414=CARTESIAN_POINT('Ctrl Pts',(-13.8620695541412,10.6167637371373,14.417420523041));
#1415=CARTESIAN_POINT('Ctrl Pts',(-13.7269717004923,11.6560614179369,14.5454545454546));
#1416=CARTESIAN_POINT('Ctrl Pts',(-13.7269717004923,12.,14.5454545454546));
#1417=CARTESIAN_POINT('Origin',(-15.0996688705415,0.,16.));
#1418=CARTESIAN_POINT('',(-13.7269717004923,43.,14.5454545454546));
#1419=CARTESIAN_POINT('',(-15.0996688705415,43.,14.));
#1420=CARTESIAN_POINT('Origin',(-15.0996688705415,43.,16.));
#1421=CARTESIAN_POINT('',(-15.0996688705415,3.80647894157196E-16,14.));
#1422=CARTESIAN_POINT('',(-13.7269717004923,0.,14.5454545454546));
#1423=CARTESIAN_POINT('Ctrl Pts',(-15.0996688705415,43.,14.));
#1424=CARTESIAN_POINT('Ctrl Pts',(-15.0996688705415,43.3439324202657,14.));
#1425=CARTESIAN_POINT('Ctrl Pts',(-15.4014912231266,43.8441637218652,13.8590825476469));
#1426=CARTESIAN_POINT('Ctrl Pts',(-16.5958739799253,44.6997506281907,13.2470482037412));
#1427=CARTESIAN_POINT('Ctrl Pts',(-17.6886909045815,44.9999999995652,12.5765273176186));
#1428=CARTESIAN_POINT('Ctrl Pts',(-18.4390889126225,45.,12.0000000015084));
#1429=CARTESIAN_POINT('Ctrl Pts',(-14.8114950097154,43.,14.));
#1430=CARTESIAN_POINT('Ctrl Pts',(-14.8114950097154,43.3963925313633,14.));
#1431=CARTESIAN_POINT('Ctrl Pts',(-15.101105244708,43.970114184931,13.8150286851239));
#1432=CARTESIAN_POINT('Ctrl Pts',(-16.2370341552208,44.8863140716297,13.0403766460024));
#1433=CARTESIAN_POINT('Ctrl Pts',(-17.2589730687099,45.09701531196,12.2501503750329));
#1434=CARTESIAN_POINT('Ctrl Pts',(-17.937546867154,45.0000000002462,11.6736007647752));
#1435=CARTESIAN_POINT('Ctrl Pts',(-14.3074781174745,43.,14.1107917108115));
#1436=CARTESIAN_POINT('Ctrl Pts',(-14.3074781174745,43.5073522539003,14.1107917108115));
#1437=CARTESIAN_POINT('Ctrl Pts',(-14.5741810860242,44.238688406751,13.8694559417347));
#1438=CARTESIAN_POINT('Ctrl Pts',(-15.6101342758703,45.4079857926561,12.8629557598995));
#1439=CARTESIAN_POINT('Ctrl Pts',(-16.5074258823345,45.6516017152813,11.8311346298907));
#1440=CARTESIAN_POINT('Ctrl Pts',(-17.0691158291079,45.5019511401355,11.1084333369497));
#1441=CARTESIAN_POINT('Ctrl Pts',(-13.884157442761,43.,14.3971137542403));
#1442=CARTESIAN_POINT('Ctrl Pts',(-13.884157442761,43.6337221740481,14.3971137542403));
#1443=CARTESIAN_POINT('Ctrl Pts',(-14.1520324505159,44.5533295396079,14.1413887877543));
#1444=CARTESIAN_POINT('Ctrl Pts',(-15.2015078307857,46.1021267969373,13.0439107976775));
#1445=CARTESIAN_POINT('Ctrl Pts',(-16.1403458895332,46.5956448986736,11.8670210558697));
#1446=CARTESIAN_POINT('Ctrl Pts',(-16.7628081025388,46.5512010496047,10.9090909115956));
#1447=CARTESIAN_POINT('Ctrl Pts',(-13.7269717004923,43.,14.5454545454546));
#1448=CARTESIAN_POINT('Ctrl Pts',(-13.7269717004923,43.6878648405311,14.5454545454546));
#1449=CARTESIAN_POINT('Ctrl Pts',(-14.0013556573878,44.6883274437302,14.2892409957216));
#1450=CARTESIAN_POINT('Ctrl Pts',(-15.0871581635684,46.3995012563812,13.1764512795294));
#1451=CARTESIAN_POINT('Ctrl Pts',(-16.0806280950741,46.9999999991304,11.9573223956701));
#1452=CARTESIAN_POINT('Ctrl Pts',(-16.7628081023841,47.,10.9090909118334));
#1453=CARTESIAN_POINT('',(-16.7628081023841,47.,10.9090909118334));
#1454=CARTESIAN_POINT('',(-18.4390889126225,45.,12.0000000007542));
#1455=CARTESIAN_POINT('Origin',(-18.4390889126225,47.,12.0000000030167));
#1456=CARTESIAN_POINT('Ctrl Pts',(-18.4390889126225,45.,12.0000000015084));
#1457=CARTESIAN_POINT('Ctrl Pts',(-17.6886909045815,44.9999999995652,12.5765273176186));
#1458=CARTESIAN_POINT('Ctrl Pts',(-16.5958739799253,44.6997506281907,13.2470482037412));
#1459=CARTESIAN_POINT('Ctrl Pts',(-15.4014912231266,43.8441637218652,13.8590825476469));
#1460=CARTESIAN_POINT('Ctrl Pts',(-15.0996688705415,43.3439324202657,14.));
#1461=CARTESIAN_POINT('Ctrl Pts',(-15.0996688705415,43.,14.));
#1462=CARTESIAN_POINT('Ctrl Pts',(-13.7269717004923,43.,14.5454545454546));
#1463=CARTESIAN_POINT('Ctrl Pts',(-13.7269717004923,43.6878648405311,14.5454545454546));
#1464=CARTESIAN_POINT('Ctrl Pts',(-14.0013556573878,44.6883274437302,14.2892409957216));
#1465=CARTESIAN_POINT('Ctrl Pts',(-15.0871581635684,46.3995012563812,13.1764512795294));
#1466=CARTESIAN_POINT('Ctrl Pts',(-16.0806280950741,46.9999999991304,11.9573223956701));
#1467=CARTESIAN_POINT('Ctrl Pts',(-16.7628081023841,47.,10.9090909118334));
#1468=CARTESIAN_POINT('Origin',(0.,47.,0.));
#1469=CARTESIAN_POINT('',(-20.,47.,0.));
#1470=CARTESIAN_POINT('',(-22.,45.,1.11022302462516E-15));
#1471=CARTESIAN_POINT('Origin',(-22.,47.,1.11022302462516E-15));
#1472=CARTESIAN_POINT('Origin',(0.,45.,0.));
#1473=CARTESIAN_POINT('Origin',(0.,47.,0.));
#1474=CARTESIAN_POINT('Origin',(-22.,47.,-40.));
#1475=CARTESIAN_POINT('',(-20.,47.,-40.));
#1476=CARTESIAN_POINT('',(-22.,45.,-40.));
#1477=CARTESIAN_POINT('Origin',(-22.,47.,-40.));
#1478=CARTESIAN_POINT('',(-22.,45.,-40.));
#1479=CARTESIAN_POINT('',(-20.,47.,-40.));
#1480=CARTESIAN_POINT('Origin',(0.,0.,0.));
#1481=CARTESIAN_POINT('',(-20.,0.,0.));
#1482=CARTESIAN_POINT('',(-20.,0.,0.));
#1483=CARTESIAN_POINT('',(20.,0.,-9.58434720477186E-16));
#1484=CARTESIAN_POINT('Origin',(0.,0.,0.));
#1485=CARTESIAN_POINT('',(20.,8.,-9.58434720477186E-16));
#1486=CARTESIAN_POINT('',(20.,0.,-9.58434720477186E-16));
#1487=CARTESIAN_POINT('',(16.7628081041689,8.,10.9090909090909));
#1488=CARTESIAN_POINT('Origin',(0.,8.,0.));
#1489=CARTESIAN_POINT('',(13.7269717004923,12.,14.5454545454546));
#1490=CARTESIAN_POINT('Ctrl Pts',(13.7269717004923,12.,14.5454545454546));
#1491=CARTESIAN_POINT('Ctrl Pts',(13.7269717004923,11.6560614179368,14.5454545454546));
#1492=CARTESIAN_POINT('Ctrl Pts',(13.8620695541413,10.6167637371373,14.417420523041));
#1493=CARTESIAN_POINT('Ctrl Pts',(14.889227967484,8.70517543416793,13.4186401453401));
#1494=CARTESIAN_POINT('Ctrl Pts',(16.0806158752833,8.,11.9573411728626));
#1495=CARTESIAN_POINT('Ctrl Pts',(16.7628081041689,8.,10.9090909090909));
#1496=CARTESIAN_POINT('',(13.7269717004923,43.,14.5454545454546));
#1497=CARTESIAN_POINT('',(13.7269717004923,0.,14.5454545454546));
#1498=CARTESIAN_POINT('',(16.7628081023841,47.,10.9090909118334));
#1499=CARTESIAN_POINT('Ctrl Pts',(16.7628081023841,47.,10.9090909118334));
#1500=CARTESIAN_POINT('Ctrl Pts',(16.2511730969016,46.9999999993478,11.6952645247109));
#1501=CARTESIAN_POINT('Ctrl Pts',(15.3073773904937,46.5395440180574,12.9308153066655));
#1502=CARTESIAN_POINT('Ctrl Pts',(14.1020322956277,45.0159115782593,14.1981531480825));
#1503=CARTESIAN_POINT('Ctrl Pts',(13.7269717004923,43.6878648405307,14.5454545454546));
#1504=CARTESIAN_POINT('Ctrl Pts',(13.7269717004923,43.,14.5454545454546));
#1505=CARTESIAN_POINT('',(20.,47.,-9.58434720477186E-16));
#1506=CARTESIAN_POINT('Origin',(0.,47.,0.));
#1507=CARTESIAN_POINT('',(20.,55.,-9.58434720477186E-16));
#1508=CARTESIAN_POINT('',(20.,0.,-9.58434720477186E-16));
#1509=CARTESIAN_POINT('',(-20.,55.,0.));
#1510=CARTESIAN_POINT('Origin',(0.,55.,0.));
#1511=CARTESIAN_POINT('',(-20.,0.,0.));
#1512=CARTESIAN_POINT('Origin',(-20.,0.,-40.));
#1513=CARTESIAN_POINT('',(-20.,0.,-40.));
#1514=CARTESIAN_POINT('',(-20.,0.,-40.));
#1515=CARTESIAN_POINT('',(-20.,0.,-40.));
#1516=CARTESIAN_POINT('Origin',(-20.,10.,14.));
#1517=CARTESIAN_POINT('',(-45.,10.,12.));
#1518=CARTESIAN_POINT('',(-20.,10.,12.));
#1519=CARTESIAN_POINT('',(-45.,10.,-40.));
#1520=CARTESIAN_POINT('',(-45.,10.,-40.));
#1521=CARTESIAN_POINT('',(-20.,10.,-40.));
#1522=CARTESIAN_POINT('Origin',(-20.,12.,12.));
#1523=CARTESIAN_POINT('',(-45.,12.,14.));
#1524=CARTESIAN_POINT('',(-20.,12.,14.));
#1525=CARTESIAN_POINT('Origin',(-45.,12.,12.));
#1526=CARTESIAN_POINT('Origin',(-45.,27.5,-13.));
#1527=CARTESIAN_POINT('',(-45.,43.,14.));
#1528=CARTESIAN_POINT('',(-45.,10.,14.));
#1529=CARTESIAN_POINT('',(-45.,45.,12.));
#1530=CARTESIAN_POINT('Origin',(-45.,43.,12.));
#1531=CARTESIAN_POINT('',(-45.,45.,-40.));
#1532=CARTESIAN_POINT('',(-45.,45.,14.));
#1533=CARTESIAN_POINT('',(-45.,0.,-40.));
#1534=CARTESIAN_POINT('',(-45.,20.241817521246,-6.87886524836093));
#1535=CARTESIAN_POINT('',(-45.,17.3739353394907,-10.9746254698059));
#1536=CARTESIAN_POINT('',(-45.,18.5638146079022,-9.27530176436031));
#1537=CARTESIAN_POINT('',(-45.,20.6505435166467,-13.2689312152101));
#1538=CARTESIAN_POINT('',(-45.,22.8853924899119,-14.8337893130506));
#1539=CARTESIAN_POINT('',(-45.,23.5184256984019,-9.17317099376511));
#1540=CARTESIAN_POINT('',(-45.,23.2743638759358,-9.52172739904202));
#1541=CARTESIAN_POINT('',(-45.,17.5,1.16924638884703E-14));
#1542=CARTESIAN_POINT('Origin',(-45.,27.5,1.04678170893229E-14));
#1543=CARTESIAN_POINT('Origin',(-45.,27.5,1.04678170893229E-14));
#1544=CARTESIAN_POINT('Origin',(-20.,45.,14.));
#1545=CARTESIAN_POINT('',(-20.,43.,14.));
#1546=CARTESIAN_POINT('Origin',(-20.,43.,12.));
#1547=CARTESIAN_POINT('',(-20.,45.,12.));
#1548=CARTESIAN_POINT('Origin',(-20.,27.5,7.00000000000001));
#1549=CARTESIAN_POINT('',(-20.,25.8213974117526,3.94430452610506E-30));
#1550=CARTESIAN_POINT('',(-20.,29.1786025882474,3.94430452610506E-30));
#1551=CARTESIAN_POINT('Origin',(-20.,27.5,1.04678170893229E-14));
#1552=CARTESIAN_POINT('',(-20.,0.,-9.58434720477186E-16));
#1553=CARTESIAN_POINT('Origin',(0.,2750.,0.));
#1554=CARTESIAN_POINT('Ctrl Pts',(-20.,29.1786025882474,1.03736463863413E-14));
#1555=CARTESIAN_POINT('Ctrl Pts',(-20.,29.1786025882474,0.205897171504737));
#1556=CARTESIAN_POINT('Ctrl Pts',(-19.9964905311425,29.1327421337373,0.423658889425778));
#1557=CARTESIAN_POINT('Ctrl Pts',(-19.9842008892559,28.9513750782389,0.819045237419825));
#1558=CARTESIAN_POINT('Ctrl Pts',(-19.9756250233084,28.8159954536029,0.996734423793646));
#1559=CARTESIAN_POINT('Ctrl Pts',(-19.9600687580957,28.5128075644395,1.27050315589817));
#1560=CARTESIAN_POINT('Ctrl Pts',(-19.9520531312108,28.3255202056511,1.38614886360197));
#1561=CARTESIAN_POINT('Ctrl Pts',(-19.9408851383252,27.9205619633961,1.53848380102384));
#1562=CARTESIAN_POINT('Ctrl Pts',(-19.9378718168687,27.7028988805809,1.57520392778629));
#1563=CARTESIAN_POINT('Ctrl Pts',(-19.9378718168687,27.297101119419,1.57520392778629));
#1564=CARTESIAN_POINT('Ctrl Pts',(-19.9408851383252,27.0794380366038,1.53848380102384));
#1565=CARTESIAN_POINT('Ctrl Pts',(-19.9520531312108,26.6744797943489,1.38614886360198));
#1566=CARTESIAN_POINT('Ctrl Pts',(-19.9600687580957,26.4871924355605,1.27050315589817));
#1567=CARTESIAN_POINT('Ctrl Pts',(-19.9756250233084,26.1840045463971,0.996734423793644));
#1568=CARTESIAN_POINT('Ctrl Pts',(-19.9842008892559,26.0486249217611,0.819045237419826));
#1569=CARTESIAN_POINT('Ctrl Pts',(-19.9964905311425,25.8672578662627,0.423658889425777));
#1570=CARTESIAN_POINT('Ctrl Pts',(-20.,25.8213974117526,0.205897171504737));
#1571=CARTESIAN_POINT('Ctrl Pts',(-20.,25.8213974117526,1.04430353253804E-14));
#1572=CARTESIAN_POINT('Origin',(-45.,20.6505435166467,-13.2689312152101));
#1573=CARTESIAN_POINT('',(-37.,17.3739353394907,-10.9746254698059));
#1574=CARTESIAN_POINT('',(-45.,17.3739353394907,-10.9746254698059));
#1575=CARTESIAN_POINT('',(-37.,20.6505435166467,-13.2689312152101));
#1576=CARTESIAN_POINT('',(-37.,17.3739353394907,-10.9746254698059));
#1577=CARTESIAN_POINT('',(-45.,20.6505435166467,-13.2689312152101));
#1578=CARTESIAN_POINT('Origin',(-45.,23.5184256984019,-9.17317099376511));
#1579=CARTESIAN_POINT('',(-37.,23.5184256984019,-9.17317099376511));
#1580=CARTESIAN_POINT('',(-37.,20.6505435166467,-13.2689312152101));
#1581=CARTESIAN_POINT('',(-35.,23.5184256984019,-9.17317099376511));
#1582=CARTESIAN_POINT('Origin',(-45.,17.3739353394907,-10.9746254698059));
#1583=CARTESIAN_POINT('',(-37.,20.241817521246,-6.87886524836093));
#1584=CARTESIAN_POINT('',(-35.,20.2418175212459,-6.87886524836093));
#1585=CARTESIAN_POINT('',(-37.,20.241817521246,-6.87886524836093));
#1586=CARTESIAN_POINT('Origin',(-37.,20.4461805189463,-10.0738982317855));
#1587=CARTESIAN_POINT('Origin',(-37.,27.5,1.04678170893229E-14));
#1588=CARTESIAN_POINT('Origin',(-21.9956969048622,27.5,1.04678170893229E-14));
#1589=CARTESIAN_POINT('',(-25.,17.5,1.16924638884703E-14));
#1590=CARTESIAN_POINT('Origin',(-25.,27.5,1.04678170893229E-14));
#1591=CARTESIAN_POINT('',(-21.9956969048622,22.5,1.10801404888966E-14));
#1592=CARTESIAN_POINT('',(-18.9913938097244,27.5,1.04678170893229E-14));
#1593=CARTESIAN_POINT('',(-21.9956969048622,22.5,1.10801404888966E-14));
#1594=CARTESIAN_POINT('Origin',(-35.,27.5,1.04678170893229E-14));
#1595=CARTESIAN_POINT('',(-35.,17.5,1.16924638884703E-14));
#1596=CARTESIAN_POINT('Origin',(-20.,45.,-40.));
#1597=CARTESIAN_POINT('',(-20.,45.,-40.));
#1598=CARTESIAN_POINT('Origin',(-20.,0.,-40.));
#1599=CARTESIAN_POINT('',(-20.,55.,-40.));
#1600=CARTESIAN_POINT('',(-20.,55.,-40.));
#1601=CARTESIAN_POINT('',(-20.,0.,-40.));
#1602=CARTESIAN_POINT('Origin',(22.,8.,7.));
#1603=CARTESIAN_POINT('',(22.,10.,-2.22044604925031E-15));
#1604=CARTESIAN_POINT('Origin',(22.,8.,-2.22044604925031E-15));
#1605=CARTESIAN_POINT('',(20.,8.,-40.));
#1606=CARTESIAN_POINT('',(20.,8.,7.00000000000001));
#1607=CARTESIAN_POINT('',(22.,10.,-40.));
#1608=CARTESIAN_POINT('Origin',(22.,8.,-40.));
#1609=CARTESIAN_POINT('',(22.,10.,7.));
#1610=CARTESIAN_POINT('Origin',(0.,8.,0.));
#1611=CARTESIAN_POINT('',(18.4390889145858,10.,12.));
#1612=CARTESIAN_POINT('Origin',(18.4390889145858,8.,12.));
#1613=CARTESIAN_POINT('Origin',(0.,10.,0.));
#1614=CARTESIAN_POINT('Ctrl Pts',(15.0996688705415,12.,14.));
#1615=CARTESIAN_POINT('Ctrl Pts',(15.0996688705415,11.8280307089684,14.));
#1616=CARTESIAN_POINT('Ctrl Pts',(15.2482765095554,11.3083818685686,13.9295812876725));
#1617=CARTESIAN_POINT('Ctrl Pts',(16.3781507642323,10.352587717084,13.3802520799371));
#1618=CARTESIAN_POINT('Ctrl Pts',(17.6886774628116,10.,12.5765376450745));
#1619=CARTESIAN_POINT('Ctrl Pts',(18.4390889145858,10.,12.));
#1620=CARTESIAN_POINT('Ctrl Pts',(14.8114950097154,12.,14.));
#1621=CARTESIAN_POINT('Ctrl Pts',(14.8114950097154,11.8018001834892,14.));
#1622=CARTESIAN_POINT('Ctrl Pts',(14.9539457290516,11.2027452368138,13.9083987223549));
#1623=CARTESIAN_POINT('Ctrl Pts',(16.0334699666181,10.1456049795306,13.1979061055465));
#1624=CARTESIAN_POINT('Ctrl Pts',(17.258960913557,9.90298294973972,12.2501607027268));
#1625=CARTESIAN_POINT('Ctrl Pts',(17.9375468689325,10.,11.6736007632634));
#1626=CARTESIAN_POINT('Ctrl Pts',(14.3074722676504,12.,14.1107749878));
#1627=CARTESIAN_POINT('Ctrl Pts',(14.3074722676504,11.7463193282589,14.1107749878));
#1628=CARTESIAN_POINT('Ctrl Pts',(14.4380282111005,10.9820153627731,13.9909769499266));
#1629=CARTESIAN_POINT('Ctrl Pts',(15.4309032376237,9.62882783469115,13.0681908992909));
#1630=CARTESIAN_POINT('Ctrl Pts',(16.507252216058,9.34862993720185,11.8310411028782));
#1631=CARTESIAN_POINT('Ctrl Pts',(17.0689522256785,9.49828319402703,11.1083268624037));
#1632=CARTESIAN_POINT('Ctrl Pts',(13.884157442761,12.,14.3971137542403));
#1633=CARTESIAN_POINT('Ctrl Pts',(13.884157442761,11.6831332361808,14.3971137542403));
#1634=CARTESIAN_POINT('Ctrl Pts',(14.0158248223711,10.7263944447459,14.2696638901542));
#1635=CARTESIAN_POINT('Ctrl Pts',(15.0144202111531,8.98224056713391,13.2778974779943));
#1636=CARTESIAN_POINT('Ctrl Pts',(16.1403347394955,8.404354304417,11.8670382153911));
#1637=CARTESIAN_POINT('Ctrl Pts',(16.7628081041689,8.44879895051283,10.9090909090909));
#1638=CARTESIAN_POINT('Ctrl Pts',(13.7269717004923,12.,14.5454545454546));
#1639=CARTESIAN_POINT('Ctrl Pts',(13.7269717004923,11.6560614179368,14.5454545454546));
#1640=CARTESIAN_POINT('Ctrl Pts',(13.8620695541413,10.6167637371373,14.417420523041));
#1641=CARTESIAN_POINT('Ctrl Pts',(14.889227967484,8.70517543416793,13.4186401453401));
#1642=CARTESIAN_POINT('Ctrl Pts',(16.0806158752833,8.,11.9573411728626));
#1643=CARTESIAN_POINT('Ctrl Pts',(16.7628081041689,8.,10.9090909090909));
#1644=CARTESIAN_POINT('',(15.0996688705415,12.,14.));
#1645=CARTESIAN_POINT('Ctrl Pts',(18.4390889145858,10.,12.));
#1646=CARTESIAN_POINT('Ctrl Pts',(17.6886774628116,10.,12.5765376450745));
#1647=CARTESIAN_POINT('Ctrl Pts',(16.3781507642323,10.352587717084,13.3802520799371));
#1648=CARTESIAN_POINT('Ctrl Pts',(15.2482765095554,11.3083818685686,13.9295812876725));
#1649=CARTESIAN_POINT('Ctrl Pts',(15.0996688705415,11.8280307089684,14.));
#1650=CARTESIAN_POINT('Ctrl Pts',(15.0996688705415,12.,14.));
#1651=CARTESIAN_POINT('Origin',(15.0996688705415,12.,16.));
#1652=CARTESIAN_POINT('Origin',(15.0996688705415,0.,16.));
#1653=CARTESIAN_POINT('',(15.0996688705415,43.,14.));
#1654=CARTESIAN_POINT('Origin',(15.0996688705415,43.,16.));
#1655=CARTESIAN_POINT('',(15.0996688705415,3.80647894157196E-16,14.));
#1656=CARTESIAN_POINT('Ctrl Pts',(18.4390889126225,45.,12.0000000015084));
#1657=CARTESIAN_POINT('Ctrl Pts',(17.8762904065918,44.9999999996739,12.432395488591));
#1658=CARTESIAN_POINT('Ctrl Pts',(16.8381151295431,44.7697720090289,13.111948418666));
#1659=CARTESIAN_POINT('Ctrl Pts',(15.5122355251905,44.0079557891298,13.8089842314454));
#1660=CARTESIAN_POINT('Ctrl Pts',(15.0996688705415,43.3439324202657,14.));
#1661=CARTESIAN_POINT('Ctrl Pts',(15.0996688705415,43.,14.));
#1662=CARTESIAN_POINT('Ctrl Pts',(17.937546867154,45.0000000002462,11.6736007647752));
#1663=CARTESIAN_POINT('Ctrl Pts',(17.4286165183209,45.0727614840315,12.1060129724685));
#1664=CARTESIAN_POINT('Ctrl Pts',(16.4660368733587,44.943440460565,12.8735209908482));
#1665=CARTESIAN_POINT('Ctrl Pts',(15.2075752691584,44.1591945322438,13.7491387045838));
#1666=CARTESIAN_POINT('Ctrl Pts',(14.8114950097154,43.3963925313632,14.));
#1667=CARTESIAN_POINT('Ctrl Pts',(14.8114950097154,43.,14.));
#1668=CARTESIAN_POINT('Ctrl Pts',(17.0691158291079,45.5019511401355,11.1084333369497));
#1669=CARTESIAN_POINT('Ctrl Pts',(16.6478483690279,45.6141890714948,11.6504593066555));
#1670=CARTESIAN_POINT('Ctrl Pts',(15.8156328567657,45.4778708578621,12.6447219916963));
#1671=CARTESIAN_POINT('Ctrl Pts',(14.6727396751051,44.480046417331,13.7841408112793));
#1672=CARTESIAN_POINT('Ctrl Pts',(14.3074781174745,43.5073522539,14.1107917108115));
#1673=CARTESIAN_POINT('Ctrl Pts',(14.3074781174745,43.,14.1107917108115));
#1674=CARTESIAN_POINT('Ctrl Pts',(16.7628081025388,46.5512010496047,10.9090909115956));
#1675=CARTESIAN_POINT('Ctrl Pts',(16.2959614427846,46.5845339364064,11.6275385198012));
#1676=CARTESIAN_POINT('Ctrl Pts',(15.4124144798122,46.2211138656853,12.803242468164));
#1677=CARTESIAN_POINT('Ctrl Pts',(14.2506534063096,44.8550035839414,14.0505836184751));
#1678=CARTESIAN_POINT('Ctrl Pts',(13.884157442761,43.6337221740477,14.3971137542403));
#1679=CARTESIAN_POINT('Ctrl Pts',(13.884157442761,43.,14.3971137542403));
#1680=CARTESIAN_POINT('Ctrl Pts',(16.7628081023841,47.,10.9090909118334));
#1681=CARTESIAN_POINT('Ctrl Pts',(16.2511730969016,46.9999999993478,11.6952645247109));
#1682=CARTESIAN_POINT('Ctrl Pts',(15.3073773904937,46.5395440180574,12.9308153066655));
#1683=CARTESIAN_POINT('Ctrl Pts',(14.1020322956277,45.0159115782593,14.1981531480825));
#1684=CARTESIAN_POINT('Ctrl Pts',(13.7269717004923,43.6878648405307,14.5454545454546));
#1685=CARTESIAN_POINT('Ctrl Pts',(13.7269717004923,43.,14.5454545454546));
#1686=CARTESIAN_POINT('',(18.4390889126225,45.,12.0000000007542));
#1687=CARTESIAN_POINT('Ctrl Pts',(15.0996688705415,43.,14.));
#1688=CARTESIAN_POINT('Ctrl Pts',(15.0996688705415,43.3439324202657,14.));
#1689=CARTESIAN_POINT('Ctrl Pts',(15.5122355251905,44.0079557891298,13.8089842314454));
#1690=CARTESIAN_POINT('Ctrl Pts',(16.8381151295431,44.7697720090289,13.111948418666));
#1691=CARTESIAN_POINT('Ctrl Pts',(17.8762904065918,44.9999999996739,12.432395488591));
#1692=CARTESIAN_POINT('Ctrl Pts',(18.4390889126225,45.,12.0000000015084));
#1693=CARTESIAN_POINT('Origin',(18.4390889126225,47.,12.0000000030167));
#1694=CARTESIAN_POINT('Origin',(0.,47.,0.));
#1695=CARTESIAN_POINT('',(22.,45.,-3.33066907387547E-15));
#1696=CARTESIAN_POINT('Origin',(22.,47.,-3.33066907387547E-15));
#1697=CARTESIAN_POINT('Origin',(0.,45.,0.));
#1698=CARTESIAN_POINT('Origin',(22.,47.,-20.));
#1699=CARTESIAN_POINT('',(22.,45.,-40.));
#1700=CARTESIAN_POINT('',(20.,47.,-40.));
#1701=CARTESIAN_POINT('Origin',(22.,47.,-40.));
#1702=CARTESIAN_POINT('',(20.,47.,-20.));
#1703=CARTESIAN_POINT('',(22.,45.,-20.));
#1704=CARTESIAN_POINT('Origin',(20.,45.,-40.));
#1705=CARTESIAN_POINT('',(45.,45.,12.));
#1706=CARTESIAN_POINT('',(20.,45.,12.));
#1707=CARTESIAN_POINT('',(45.,45.,-40.));
#1708=CARTESIAN_POINT('',(45.,45.,14.));
#1709=CARTESIAN_POINT('',(20.,45.,-40.));
#1710=CARTESIAN_POINT('Origin',(20.,43.,12.));
#1711=CARTESIAN_POINT('',(45.,43.,14.));
#1712=CARTESIAN_POINT('',(20.,43.,14.));
#1713=CARTESIAN_POINT('Origin',(45.,43.,12.));
#1714=CARTESIAN_POINT('Origin',(20.,45.,14.));
#1715=CARTESIAN_POINT('',(45.,12.,14.));
#1716=CARTESIAN_POINT('',(20.,12.,14.));
#1717=CARTESIAN_POINT('',(45.,10.,14.));
#1718=CARTESIAN_POINT('Origin',(20.,12.,12.));
#1719=CARTESIAN_POINT('',(45.,10.,12.));
#1720=CARTESIAN_POINT('',(20.,10.,12.));
#1721=CARTESIAN_POINT('Origin',(45.,12.,12.));
#1722=CARTESIAN_POINT('Origin',(20.,10.,14.));
#1723=CARTESIAN_POINT('',(45.,10.,-40.));
#1724=CARTESIAN_POINT('',(20.,10.,-40.));
#1725=CARTESIAN_POINT('',(45.,10.,-40.));
#1726=CARTESIAN_POINT('Origin',(45.,27.5,-13.));
#1727=CARTESIAN_POINT('',(45.,0.,-40.));
#1728=CARTESIAN_POINT('',(45.,17.3739353394907,-10.9746254698059));
#1729=CARTESIAN_POINT('',(45.,20.241817521246,-6.87886524836093));
#1730=CARTESIAN_POINT('',(45.,18.5638146079022,-9.27530176436031));
#1731=CARTESIAN_POINT('',(45.,17.5,1.16924638884703E-14));
#1732=CARTESIAN_POINT('Origin',(45.,27.5,1.04678170893229E-14));
#1733=CARTESIAN_POINT('',(45.,23.5184256984019,-9.17317099376511));
#1734=CARTESIAN_POINT('Origin',(45.,27.5,1.04678170893229E-14));
#1735=CARTESIAN_POINT('',(45.,20.6505435166467,-13.2689312152101));
#1736=CARTESIAN_POINT('',(45.,23.2743638759358,-9.52172739904202));
#1737=CARTESIAN_POINT('',(45.,22.8853924899119,-14.8337893130506));
#1738=CARTESIAN_POINT('Origin',(20.,27.5,7.00000000000001));
#1739=CARTESIAN_POINT('',(20.,29.1786025882474,-9.58434720477182E-16));
#1740=CARTESIAN_POINT('',(20.,25.8213974117526,-9.58434720477182E-16));
#1741=CARTESIAN_POINT('Origin',(20.,27.5,1.04678170893229E-14));
#1742=CARTESIAN_POINT('',(20.,0.,-9.58434720477186E-16));
#1743=CARTESIAN_POINT('Origin',(0.,2750.,0.));
#1744=CARTESIAN_POINT('Ctrl Pts',(20.,25.8213974117526,9.85322934354826E-15));
#1745=CARTESIAN_POINT('Ctrl Pts',(20.,25.8213974117526,0.205897171504737));
#1746=CARTESIAN_POINT('Ctrl Pts',(19.9964905311425,25.8672578662627,0.42365888942578));
#1747=CARTESIAN_POINT('Ctrl Pts',(19.9842008892559,26.0486249217611,0.819045237419828));
#1748=CARTESIAN_POINT('Ctrl Pts',(19.9756250233084,26.1840045463971,0.996734423793646));
#1749=CARTESIAN_POINT('Ctrl Pts',(19.9600687580957,26.4871924355605,1.27050315589817));
#1750=CARTESIAN_POINT('Ctrl Pts',(19.9520531312108,26.6744797943489,1.38614886360198));
#1751=CARTESIAN_POINT('Ctrl Pts',(19.9408851383252,27.0794380366039,1.53848380102384));
#1752=CARTESIAN_POINT('Ctrl Pts',(19.9378718168687,27.2971011194191,1.57520392778629));
#1753=CARTESIAN_POINT('Ctrl Pts',(19.9378718168687,27.7028988805809,1.57520392778629));
#1754=CARTESIAN_POINT('Ctrl Pts',(19.9408851383252,27.9205619633961,1.53848380102384));
#1755=CARTESIAN_POINT('Ctrl Pts',(19.9520531312108,28.3255202056511,1.38614886360198));
#1756=CARTESIAN_POINT('Ctrl Pts',(19.9600687580957,28.5128075644395,1.27050315589817));
#1757=CARTESIAN_POINT('Ctrl Pts',(19.9756250233084,28.8159954536029,0.996734423793647));
#1758=CARTESIAN_POINT('Ctrl Pts',(19.9842008892559,28.9513750782389,0.819045237419828));
#1759=CARTESIAN_POINT('Ctrl Pts',(19.9964905311425,29.1327421337373,0.42365888942578));
#1760=CARTESIAN_POINT('Ctrl Pts',(20.,29.1786025882474,0.205897171504738));
#1761=CARTESIAN_POINT('Ctrl Pts',(20.,29.1786025882474,1.11022302462516E-14));
#1762=CARTESIAN_POINT('Origin',(45.,20.6505435166467,-13.2689312152101));
#1763=CARTESIAN_POINT('',(37.,20.6505435166467,-13.2689312152101));
#1764=CARTESIAN_POINT('',(45.,20.6505435166467,-13.2689312152101));
#1765=CARTESIAN_POINT('',(37.,17.3739353394907,-10.9746254698059));
#1766=CARTESIAN_POINT('',(37.,17.3739353394907,-10.9746254698059));
#1767=CARTESIAN_POINT('',(45.,17.3739353394907,-10.9746254698059));
#1768=CARTESIAN_POINT('Origin',(45.,23.5184256984019,-9.17317099376511));
#1769=CARTESIAN_POINT('',(37.,23.5184256984019,-9.17317099376511));
#1770=CARTESIAN_POINT('',(35.,23.5184256984019,-9.17317099376511));
#1771=CARTESIAN_POINT('',(37.,20.6505435166467,-13.2689312152101));
#1772=CARTESIAN_POINT('Origin',(45.,17.3739353394907,-10.9746254698059));
#1773=CARTESIAN_POINT('',(37.,20.241817521246,-6.87886524836093));
#1774=CARTESIAN_POINT('',(37.,20.241817521246,-6.87886524836093));
#1775=CARTESIAN_POINT('',(35.,20.2418175212459,-6.87886524836093));
#1776=CARTESIAN_POINT('Origin',(37.,20.4461805189463,-10.0738982317855));
#1777=CARTESIAN_POINT('Origin',(37.,27.5,1.04678170893229E-14));
#1778=CARTESIAN_POINT('Origin',(35.,27.5,1.04678170893229E-14));
#1779=CARTESIAN_POINT('',(25.,17.5,1.16924638884703E-14));
#1780=CARTESIAN_POINT('',(35.,17.5,1.16924638884703E-14));
#1781=CARTESIAN_POINT('Origin',(25.,27.5,1.04678170893229E-14));
#1782=CARTESIAN_POINT('Origin',(21.9956969048622,27.5,1.04678170893229E-14));
#1783=CARTESIAN_POINT('',(21.9956969048622,22.5,1.10801404888966E-14));
#1784=CARTESIAN_POINT('',(18.9913938097244,27.5,1.04678170893229E-14));
#1785=CARTESIAN_POINT('',(21.9956969048622,22.5,1.10801404888966E-14));
#1786=CARTESIAN_POINT('Origin',(20.,0.,-9.58434720477186E-16));
#1787=CARTESIAN_POINT('',(20.,55.,-40.));
#1788=CARTESIAN_POINT('',(20.,0.,-40.));
#1789=CARTESIAN_POINT('',(20.,55.,-9.58434720477186E-16));
#1790=CARTESIAN_POINT('Origin',(20.,0.,-9.58434720477186E-16));
#1791=CARTESIAN_POINT('',(20.,0.,-40.));
#1792=CARTESIAN_POINT('',(20.,0.,-9.58434720477186E-16));
#1793=CARTESIAN_POINT('',(20.,0.,-40.));
#1794=CARTESIAN_POINT('Origin',(0.,0.,0.));
#1795=CARTESIAN_POINT('',(-10.,55.,1.22464679914735E-15));
#1796=CARTESIAN_POINT('Origin',(0.,55.,0.));
#1797=CARTESIAN_POINT('',(-10.,0.,1.22464679914735E-15));
#1798=CARTESIAN_POINT('',(-10.,0.,1.22464679914735E-15));
#1799=CARTESIAN_POINT('Origin',(0.,0.,0.));
#1800=CARTESIAN_POINT('Origin',(-9.72556212636966,0.,-40.));
#1801=CARTESIAN_POINT('',(-9.72556212636966,0.,-40.));
#1802=CARTESIAN_POINT('',(-20.,0.,-40.));
#1803=CARTESIAN_POINT('',(-9.72556212636966,55.,-40.));
#1804=CARTESIAN_POINT('',(-20.,55.,-40.));
#1805=CARTESIAN_POINT('',(-9.72556212636966,0.,-40.));
#1806=CARTESIAN_POINT('Origin',(-12.,0.,-33.));
#1807=CARTESIAN_POINT('',(-12.,0.,-33.));
#1808=CARTESIAN_POINT('',(-9.72556212636966,0.,-40.));
#1809=CARTESIAN_POINT('',(-12.,55.,-33.));
#1810=CARTESIAN_POINT('',(-9.72556212636966,55.,-40.));
#1811=CARTESIAN_POINT('',(-12.,0.,-33.));
#1812=CARTESIAN_POINT('Origin',(12.,0.,-33.));
#1813=CARTESIAN_POINT('',(12.,0.,-33.));
#1814=CARTESIAN_POINT('',(-12.,0.,-33.));
#1815=CARTESIAN_POINT('',(12.,55.,-33.));
#1816=CARTESIAN_POINT('',(-12.,55.,-33.));
#1817=CARTESIAN_POINT('',(12.,0.,-33.));
#1818=CARTESIAN_POINT('Origin',(9.72556212636966,0.,-40.));
#1819=CARTESIAN_POINT('',(9.72556212636966,0.,-40.));
#1820=CARTESIAN_POINT('',(12.,0.,-33.));
#1821=CARTESIAN_POINT('',(9.72556212636966,55.,-40.));
#1822=CARTESIAN_POINT('',(12.,55.,-33.));
#1823=CARTESIAN_POINT('',(9.72556212636966,0.,-40.));
#1824=CARTESIAN_POINT('Origin',(20.,0.,-40.));
#1825=CARTESIAN_POINT('',(9.72556212636966,0.,-40.));
#1826=CARTESIAN_POINT('',(9.72556212636966,55.,-40.));
#1827=CARTESIAN_POINT('Origin',(0.,55.,-10.));
#1828=CARTESIAN_POINT('Origin',(0.,0.,-10.));
#1829=UNCERTAINTY_MEASURE_WITH_UNIT(LENGTH_MEASURE(0.01),#1833,
'DISTANCE_ACCURACY_VALUE',
'Maximum model space distance between geometric entities at asserted c
onnectivities');
#1830=UNCERTAINTY_MEASURE_WITH_UNIT(LENGTH_MEASURE(0.01),#1833,
'DISTANCE_ACCURACY_VALUE',
'Maximum model space distance between geometric entities at asserted c
onnectivities');
#1831=(
GEOMETRIC_REPRESENTATION_CONTEXT(3)
GLOBAL_UNCERTAINTY_ASSIGNED_CONTEXT((#1829))
GLOBAL_UNIT_ASSIGNED_CONTEXT((#1833,#1835,#1836))
REPRESENTATION_CONTEXT('','3D')
);
#1832=(
GEOMETRIC_REPRESENTATION_CONTEXT(3)
GLOBAL_UNCERTAINTY_ASSIGNED_CONTEXT((#1830))
GLOBAL_UNIT_ASSIGNED_CONTEXT((#1833,#1835,#1836))
REPRESENTATION_CONTEXT('','3D')
);
#1833=(
LENGTH_UNIT()
NAMED_UNIT(*)
SI_UNIT(.MILLI.,.METRE.)
);
#1834=(
LENGTH_UNIT()
NAMED_UNIT(*)
SI_UNIT($,.METRE.)
);
#1835=(
NAMED_UNIT(*)
PLANE_ANGLE_UNIT()
SI_UNIT($,.RADIAN.)
);
#1836=(
NAMED_UNIT(*)
SI_UNIT($,.STERADIAN.)
SOLID_ANGLE_UNIT()
);
#1837=SHAPE_DEFINITION_REPRESENTATION(#1838,#1839);
#1838=PRODUCT_DEFINITION_SHAPE('',$,#1841);
#1839=SHAPE_REPRESENTATION('',(#987),#1831);
#1840=PRODUCT_DEFINITION_CONTEXT('part definition',#1845,'design');
#1841=PRODUCT_DEFINITION('2026-08-12-00-22-39-976','Anchor Slide',#1842,
#1840);
#1842=PRODUCT_DEFINITION_FORMATION('',$,#1847);
#1843=PRODUCT_RELATED_PRODUCT_CATEGORY('Anchor Slide','Anchor Slide',(#1847));
#1844=APPLICATION_PROTOCOL_DEFINITION('international standard',
'automotive_design',2009,#1845);
#1845=APPLICATION_CONTEXT(
'Core Data for Automotive Mechanical Design Process');
#1846=PRODUCT_CONTEXT('part definition',#1845,'mechanical');
#1847=PRODUCT('2026-08-12-00-22-39-976','Anchor Slide',$,(#1846));
#1848=PRESENTATION_STYLE_ASSIGNMENT((#1850));
#1849=PRESENTATION_STYLE_ASSIGNMENT((#1851));
#1850=SURFACE_STYLE_USAGE(.BOTH.,#1852);
#1851=SURFACE_STYLE_USAGE(.BOTH.,#1853);
#1852=SURFACE_SIDE_STYLE('',(#1854));
#1853=SURFACE_SIDE_STYLE('',(#1855));
#1854=SURFACE_STYLE_FILL_AREA(#1856);
#1855=SURFACE_STYLE_FILL_AREA(#1857);
#1856=FILL_AREA_STYLE('Steel - Satin',(#1858));
#1857=FILL_AREA_STYLE('Brass - Matte',(#1859));
#1858=FILL_AREA_STYLE_COLOUR('Steel - Satin',#1860);
#1859=FILL_AREA_STYLE_COLOUR('Brass - Matte',#1861);
#1860=COLOUR_RGB('Steel - Satin',0.627450980392157,0.627450980392157,0.627450980392157);
#1861=COLOUR_RGB('Brass - Matte',0.952941176470588,0.796078431372549,0.486274509803922);
ENDSEC;
END-ISO-10303-21;
