ISO-10303-21;
HEADER;
/* Generated by software containing ST-Developer
 * from STEP Tools, Inc. (www.steptools.com) 
 */

FILE_DESCRIPTION(
/* description */ (''),
/* implementation_level */ '2;1');

FILE_NAME(
/* name */ 'Model.step',
/* time_stamp */ '2026-08-27T08:52:19+05:30',
/* author */ (''),
/* organization */ (''),
/* preprocessor_version */ 'ST-DEVELOPER v20.1',
/* originating_system */ 'Autodesk Translation Framework v15.8.0.0',
/* authorisation */ '');

FILE_SCHEMA (('AUTOMOTIVE_DESIGN { 1 0 10303 214 3 1 1 }'));
ENDSEC;

DATA;
#10=MECHANICAL_DESIGN_GEOMETRIC_PRESENTATION_REPRESENTATION('',(#13),#1109);
#11=SHAPE_REPRESENTATION_RELATIONSHIP('SRR','None',#1116,#12);
#12=ADVANCED_BREP_SHAPE_REPRESENTATION('',(#14),#1108);
#13=STYLED_ITEM('',(#1126),#14);
#14=MANIFOLD_SOLID_BREP('Body1',#627);
#15=CONICAL_SURFACE('',#671,19.,0.785398163397447);
#16=CONICAL_SURFACE('',#684,19.,0.785398163397448);
#17=FACE_BOUND('',#178,.T.);
#18=FACE_BOUND('',#179,.T.);
#19=FACE_BOUND('',#180,.T.);
#20=FACE_BOUND('',#184,.T.);
#21=FACE_BOUND('',#185,.T.);
#22=FACE_BOUND('',#186,.T.);
#23=FACE_BOUND('',#190,.T.);
#24=FACE_BOUND('',#191,.T.);
#25=FACE_BOUND('',#192,.T.);
#26=FACE_BOUND('',#196,.T.);
#27=FACE_BOUND('',#197,.T.);
#28=FACE_BOUND('',#198,.T.);
#29=PLANE('',#649);
#30=PLANE('',#664);
#31=PLANE('',#677);
#32=PLANE('',#690);
#33=PLANE('',#703);
#34=PLANE('',#705);
#35=PLANE('',#707);
#36=PLANE('',#709);
#37=PLANE('',#713);
#38=PLANE('',#715);
#39=PLANE('',#717);
#40=PLANE('',#719);
#41=LINE('',#936,#83);
#42=LINE('',#945,#84);
#43=LINE('',#949,#85);
#44=LINE('',#953,#86);
#45=LINE('',#956,#87);
#46=LINE('',#973,#88);
#47=LINE('',#980,#89);
#48=LINE('',#984,#90);
#49=LINE('',#988,#91);
#50=LINE('',#991,#92);
#51=LINE('',#1000,#93);
#52=LINE('',#1007,#94);
#53=LINE('',#1013,#95);
#54=LINE('',#1017,#96);
#55=LINE('',#1021,#97);
#56=LINE('',#1024,#98);
#57=LINE('',#1033,#99);
#58=LINE('',#1039,#100);
#59=LINE('',#1046,#101);
#60=LINE('',#1050,#102);
#61=LINE('',#1054,#103);
#62=LINE('',#1057,#104);
#63=LINE('',#1067,#105);
#64=LINE('',#1069,#106);
#65=LINE('',#1071,#107);
#66=LINE('',#1072,#108);
#67=LINE('',#1074,#109);
#68=LINE('',#1076,#110);
#69=LINE('',#1078,#111);
#70=LINE('',#1080,#112);
#71=LINE('',#1082,#113);
#72=LINE('',#1084,#114);
#73=LINE('',#1087,#115);
#74=LINE('',#1089,#116);
#75=LINE('',#1091,#117);
#76=LINE('',#1092,#118);
#77=LINE('',#1094,#119);
#78=LINE('',#1096,#120);
#79=LINE('',#1098,#121);
#80=LINE('',#1100,#122);
#81=LINE('',#1102,#123);
#82=LINE('',#1104,#124);
#83=VECTOR('',#735,21.5);
#84=VECTOR('',#744,10.);
#85=VECTOR('',#747,10.);
#86=VECTOR('',#750,10.);
#87=VECTOR('',#753,10.);
#88=VECTOR('',#772,21.5);
#89=VECTOR('',#779,10.);
#90=VECTOR('',#782,10.);
#91=VECTOR('',#785,10.);
#92=VECTOR('',#788,10.);
#93=VECTOR('',#797,19.);
#94=VECTOR('',#806,17.5);
#95=VECTOR('',#811,10.);
#96=VECTOR('',#814,10.);
#97=VECTOR('',#817,10.);
#98=VECTOR('',#820,10.);
#99=VECTOR('',#829,19.);
#100=VECTOR('',#836,17.5);
#101=VECTOR('',#843,10.);
#102=VECTOR('',#846,10.);
#103=VECTOR('',#849,10.);
#104=VECTOR('',#852,10.);
#105=VECTOR('',#867,5.5);
#106=VECTOR('',#870,5.5);
#107=VECTOR('',#873,10.);
#108=VECTOR('',#874,10.);
#109=VECTOR('',#877,10.);
#110=VECTOR('',#880,10.);
#111=VECTOR('',#883,10.);
#112=VECTOR('',#886,10.);
#113=VECTOR('',#889,10.);
#114=VECTOR('',#892,10.);
#115=VECTOR('',#897,5.5);
#116=VECTOR('',#900,5.5);
#117=VECTOR('',#903,10.);
#118=VECTOR('',#904,10.);
#119=VECTOR('',#907,10.);
#120=VECTOR('',#910,10.);
#121=VECTOR('',#913,10.);
#122=VECTOR('',#916,10.);
#123=VECTOR('',#919,10.);
#124=VECTOR('',#922,10.);
#125=CYLINDRICAL_SURFACE('',#646,21.5);
#126=CYLINDRICAL_SURFACE('',#661,21.5);
#127=CYLINDRICAL_SURFACE('',#674,17.5);
#128=CYLINDRICAL_SURFACE('',#687,17.5);
#129=CYLINDRICAL_SURFACE('',#701,5.50000000000001);
#130=CYLINDRICAL_SURFACE('',#702,5.50000000000001);
#131=CYLINDRICAL_SURFACE('',#704,25.0000000000042);
#132=CYLINDRICAL_SURFACE('',#706,12.5000001862645);
#133=CYLINDRICAL_SURFACE('',#708,25.);
#134=CYLINDRICAL_SURFACE('',#710,12.5000001862645);
#135=CYLINDRICAL_SURFACE('',#711,5.5);
#136=CYLINDRICAL_SURFACE('',#712,5.5);
#137=CYLINDRICAL_SURFACE('',#714,25.0000000009638);
#138=CYLINDRICAL_SURFACE('',#716,12.5000000002372);
#139=CYLINDRICAL_SURFACE('',#718,25.0068386332248);
#140=CYLINDRICAL_SURFACE('',#720,12.5000000002373);
#141=FACE_OUTER_BOUND('',#175,.T.);
#142=FACE_OUTER_BOUND('',#176,.T.);
#143=FACE_OUTER_BOUND('',#177,.T.);
#144=FACE_OUTER_BOUND('',#181,.T.);
#145=FACE_OUTER_BOUND('',#182,.T.);
#146=FACE_OUTER_BOUND('',#183,.T.);
#147=FACE_OUTER_BOUND('',#187,.T.);
#148=FACE_OUTER_BOUND('',#188,.T.);
#149=FACE_OUTER_BOUND('',#189,.T.);
#150=FACE_OUTER_BOUND('',#193,.T.);
#151=FACE_OUTER_BOUND('',#194,.T.);
#152=FACE_OUTER_BOUND('',#195,.T.);
#153=FACE_OUTER_BOUND('',#199,.T.);
#154=FACE_OUTER_BOUND('',#200,.T.);
#155=FACE_OUTER_BOUND('',#201,.T.);
#156=FACE_OUTER_BOUND('',#202,.T.);
#157=FACE_OUTER_BOUND('',#203,.T.);
#158=FACE_OUTER_BOUND('',#204,.T.);
#159=FACE_OUTER_BOUND('',#205,.T.);
#160=FACE_OUTER_BOUND('',#206,.T.);
#161=FACE_OUTER_BOUND('',#207,.T.);
#162=FACE_OUTER_BOUND('',#208,.T.);
#163=FACE_OUTER_BOUND('',#209,.T.);
#164=FACE_OUTER_BOUND('',#210,.T.);
#165=FACE_OUTER_BOUND('',#211,.T.);
#166=FACE_OUTER_BOUND('',#212,.T.);
#167=FACE_OUTER_BOUND('',#213,.T.);
#168=FACE_OUTER_BOUND('',#214,.T.);
#169=FACE_OUTER_BOUND('',#215,.T.);
#170=FACE_OUTER_BOUND('',#216,.T.);
#171=FACE_OUTER_BOUND('',#217,.T.);
#172=FACE_OUTER_BOUND('',#218,.T.);
#173=FACE_OUTER_BOUND('',#219,.T.);
#174=FACE_OUTER_BOUND('',#220,.T.);
#175=EDGE_LOOP('',(#413,#414,#415,#416,#417));
#176=EDGE_LOOP('',(#418,#419,#420,#421,#422,#423));
#177=EDGE_LOOP('',(#424,#425,#426,#427,#428,#429,#430,#431));
#178=EDGE_LOOP('',(#432));
#179=EDGE_LOOP('',(#433));
#180=EDGE_LOOP('',(#434));
#181=EDGE_LOOP('',(#435,#436,#437,#438,#439));
#182=EDGE_LOOP('',(#440,#441,#442,#443,#444,#445));
#183=EDGE_LOOP('',(#446,#447,#448,#449,#450,#451,#452,#453));
#184=EDGE_LOOP('',(#454));
#185=EDGE_LOOP('',(#455));
#186=EDGE_LOOP('',(#456));
#187=EDGE_LOOP('',(#457,#458,#459,#460));
#188=EDGE_LOOP('',(#461,#462,#463,#464,#465));
#189=EDGE_LOOP('',(#466,#467,#468,#469,#470,#471,#472,#473));
#190=EDGE_LOOP('',(#474));
#191=EDGE_LOOP('',(#475));
#192=EDGE_LOOP('',(#476));
#193=EDGE_LOOP('',(#477,#478,#479,#480));
#194=EDGE_LOOP('',(#481,#482,#483,#484,#485));
#195=EDGE_LOOP('',(#486,#487,#488,#489,#490,#491,#492,#493));
#196=EDGE_LOOP('',(#494));
#197=EDGE_LOOP('',(#495));
#198=EDGE_LOOP('',(#496));
#199=EDGE_LOOP('',(#497,#498,#499,#500,#501,#502));
#200=EDGE_LOOP('',(#503,#504,#505,#506,#507,#508));
#201=EDGE_LOOP('',(#509,#510,#511,#512));
#202=EDGE_LOOP('',(#513,#514,#515,#516));
#203=EDGE_LOOP('',(#517,#518,#519,#520));
#204=EDGE_LOOP('',(#521,#522,#523,#524));
#205=EDGE_LOOP('',(#525,#526,#527,#528));
#206=EDGE_LOOP('',(#529,#530,#531,#532));
#207=EDGE_LOOP('',(#533,#534,#535,#536));
#208=EDGE_LOOP('',(#537,#538,#539,#540));
#209=EDGE_LOOP('',(#541,#542,#543,#544));
#210=EDGE_LOOP('',(#545,#546,#547,#548));
#211=EDGE_LOOP('',(#549,#550,#551,#552));
#212=EDGE_LOOP('',(#553,#554,#555,#556));
#213=EDGE_LOOP('',(#557,#558,#559,#560));
#214=EDGE_LOOP('',(#561,#562,#563,#564));
#215=EDGE_LOOP('',(#565,#566,#567,#568));
#216=EDGE_LOOP('',(#569,#570,#571,#572));
#217=EDGE_LOOP('',(#573,#574,#575,#576));
#218=EDGE_LOOP('',(#577,#578,#579,#580));
#219=EDGE_LOOP('',(#581,#582,#583,#584));
#220=EDGE_LOOP('',(#585,#586,#587,#588));
#221=CIRCLE('',#642,21.5);
#222=CIRCLE('',#643,2.);
#223=CIRCLE('',#644,23.5);
#224=CIRCLE('',#645,21.5);
#225=CIRCLE('',#647,21.5);
#226=CIRCLE('',#648,21.5);
#227=CIRCLE('',#650,12.5000001862645);
#228=CIRCLE('',#651,25.);
#229=CIRCLE('',#652,12.5000001862645);
#230=CIRCLE('',#653,25.0000000000042);
#231=CIRCLE('',#654,5.50000000000001);
#232=CIRCLE('',#655,5.50000000000001);
#233=CIRCLE('',#657,21.5);
#234=CIRCLE('',#658,2.);
#235=CIRCLE('',#659,23.5);
#236=CIRCLE('',#660,21.5);
#237=CIRCLE('',#662,21.5);
#238=CIRCLE('',#663,21.5);
#239=CIRCLE('',#665,12.5000000002373);
#240=CIRCLE('',#666,25.0068386332248);
#241=CIRCLE('',#667,12.5000000002372);
#242=CIRCLE('',#668,25.0000000009638);
#243=CIRCLE('',#669,5.5);
#244=CIRCLE('',#670,5.5);
#245=CIRCLE('',#672,20.5);
#246=CIRCLE('',#673,17.5);
#247=CIRCLE('',#675,17.5);
#248=CIRCLE('',#676,17.5);
#249=CIRCLE('',#678,12.5000001862645);
#250=CIRCLE('',#679,25.0000000000042);
#251=CIRCLE('',#680,12.5000001862645);
#252=CIRCLE('',#681,25.);
#253=CIRCLE('',#682,5.50000000000001);
#254=CIRCLE('',#683,5.50000000000001);
#255=CIRCLE('',#685,17.5);
#256=CIRCLE('',#686,20.5);
#257=CIRCLE('',#688,17.5);
#258=CIRCLE('',#689,17.5);
#259=CIRCLE('',#691,12.5000000002373);
#260=CIRCLE('',#692,25.0000000009638);
#261=CIRCLE('',#693,12.5000000002372);
#262=CIRCLE('',#694,25.0068386332248);
#263=CIRCLE('',#695,5.5);
#264=CIRCLE('',#696,5.5);
#265=CIRCLE('',#698,47.5000000000001);
#266=CIRCLE('',#700,43.5000000000001);
#267=VERTEX_POINT('',#927);
#268=VERTEX_POINT('',#928);
#269=VERTEX_POINT('',#930);
#270=VERTEX_POINT('',#935);
#271=VERTEX_POINT('',#937);
#272=VERTEX_POINT('',#941);
#273=VERTEX_POINT('',#942);
#274=VERTEX_POINT('',#944);
#275=VERTEX_POINT('',#946);
#276=VERTEX_POINT('',#948);
#277=VERTEX_POINT('',#950);
#278=VERTEX_POINT('',#952);
#279=VERTEX_POINT('',#954);
#280=VERTEX_POINT('',#957);
#281=VERTEX_POINT('',#959);
#282=VERTEX_POINT('',#962);
#283=VERTEX_POINT('',#963);
#284=VERTEX_POINT('',#965);
#285=VERTEX_POINT('',#970);
#286=VERTEX_POINT('',#971);
#287=VERTEX_POINT('',#976);
#288=VERTEX_POINT('',#977);
#289=VERTEX_POINT('',#979);
#290=VERTEX_POINT('',#981);
#291=VERTEX_POINT('',#983);
#292=VERTEX_POINT('',#985);
#293=VERTEX_POINT('',#987);
#294=VERTEX_POINT('',#989);
#295=VERTEX_POINT('',#992);
#296=VERTEX_POINT('',#994);
#297=VERTEX_POINT('',#997);
#298=VERTEX_POINT('',#999);
#299=VERTEX_POINT('',#1003);
#300=VERTEX_POINT('',#1004);
#301=VERTEX_POINT('',#1009);
#302=VERTEX_POINT('',#1010);
#303=VERTEX_POINT('',#1012);
#304=VERTEX_POINT('',#1014);
#305=VERTEX_POINT('',#1016);
#306=VERTEX_POINT('',#1018);
#307=VERTEX_POINT('',#1020);
#308=VERTEX_POINT('',#1022);
#309=VERTEX_POINT('',#1025);
#310=VERTEX_POINT('',#1027);
#311=VERTEX_POINT('',#1030);
#312=VERTEX_POINT('',#1032);
#313=VERTEX_POINT('',#1036);
#314=VERTEX_POINT('',#1037);
#315=VERTEX_POINT('',#1042);
#316=VERTEX_POINT('',#1043);
#317=VERTEX_POINT('',#1045);
#318=VERTEX_POINT('',#1047);
#319=VERTEX_POINT('',#1049);
#320=VERTEX_POINT('',#1051);
#321=VERTEX_POINT('',#1053);
#322=VERTEX_POINT('',#1055);
#323=VERTEX_POINT('',#1058);
#324=VERTEX_POINT('',#1060);
#325=EDGE_CURVE('',#267,#268,#221,.T.);
#326=EDGE_CURVE('',#268,#269,#222,.T.);
#327=EDGE_CURVE('',#269,#269,#223,.T.);
#328=EDGE_CURVE('',#268,#267,#224,.T.);
#329=EDGE_CURVE('',#267,#270,#41,.T.);
#330=EDGE_CURVE('',#270,#271,#225,.T.);
#331=EDGE_CURVE('',#271,#270,#226,.T.);
#332=EDGE_CURVE('',#272,#273,#227,.T.);
#333=EDGE_CURVE('',#273,#274,#42,.T.);
#334=EDGE_CURVE('',#274,#275,#228,.T.);
#335=EDGE_CURVE('',#275,#276,#43,.T.);
#336=EDGE_CURVE('',#276,#277,#229,.T.);
#337=EDGE_CURVE('',#277,#278,#44,.T.);
#338=EDGE_CURVE('',#278,#279,#230,.T.);
#339=EDGE_CURVE('',#279,#272,#45,.T.);
#340=EDGE_CURVE('',#280,#280,#231,.T.);
#341=EDGE_CURVE('',#281,#281,#232,.T.);
#342=EDGE_CURVE('',#282,#283,#233,.T.);
#343=EDGE_CURVE('',#283,#284,#234,.T.);
#344=EDGE_CURVE('',#284,#284,#235,.T.);
#345=EDGE_CURVE('',#283,#282,#236,.T.);
#346=EDGE_CURVE('',#285,#286,#237,.T.);
#347=EDGE_CURVE('',#285,#282,#46,.T.);
#348=EDGE_CURVE('',#286,#285,#238,.T.);
#349=EDGE_CURVE('',#287,#288,#239,.T.);
#350=EDGE_CURVE('',#288,#289,#47,.T.);
#351=EDGE_CURVE('',#289,#290,#240,.T.);
#352=EDGE_CURVE('',#290,#291,#48,.T.);
#353=EDGE_CURVE('',#291,#292,#241,.T.);
#354=EDGE_CURVE('',#292,#293,#49,.T.);
#355=EDGE_CURVE('',#293,#294,#242,.T.);
#356=EDGE_CURVE('',#294,#287,#50,.T.);
#357=EDGE_CURVE('',#295,#295,#243,.T.);
#358=EDGE_CURVE('',#296,#296,#244,.T.);
#359=EDGE_CURVE('',#297,#297,#245,.T.);
#360=EDGE_CURVE('',#297,#298,#51,.T.);
#361=EDGE_CURVE('',#298,#298,#246,.T.);
#362=EDGE_CURVE('',#299,#300,#247,.T.);
#363=EDGE_CURVE('',#300,#299,#248,.T.);
#364=EDGE_CURVE('',#300,#298,#52,.T.);
#365=EDGE_CURVE('',#301,#302,#249,.T.);
#366=EDGE_CURVE('',#302,#303,#53,.T.);
#367=EDGE_CURVE('',#303,#304,#250,.T.);
#368=EDGE_CURVE('',#305,#304,#54,.T.);
#369=EDGE_CURVE('',#305,#306,#251,.T.);
#370=EDGE_CURVE('',#306,#307,#55,.T.);
#371=EDGE_CURVE('',#307,#308,#252,.T.);
#372=EDGE_CURVE('',#301,#308,#56,.T.);
#373=EDGE_CURVE('',#309,#309,#253,.T.);
#374=EDGE_CURVE('',#310,#310,#254,.T.);
#375=EDGE_CURVE('',#311,#311,#255,.T.);
#376=EDGE_CURVE('',#311,#312,#57,.T.);
#377=EDGE_CURVE('',#312,#312,#256,.T.);
#378=EDGE_CURVE('',#313,#314,#257,.T.);
#379=EDGE_CURVE('',#314,#311,#58,.T.);
#380=EDGE_CURVE('',#314,#313,#258,.T.);
#381=EDGE_CURVE('',#315,#316,#259,.T.);
#382=EDGE_CURVE('',#315,#317,#59,.T.);
#383=EDGE_CURVE('',#318,#317,#260,.T.);
#384=EDGE_CURVE('',#319,#318,#60,.T.);
#385=EDGE_CURVE('',#320,#319,#261,.T.);
#386=EDGE_CURVE('',#320,#321,#61,.T.);
#387=EDGE_CURVE('',#322,#321,#262,.T.);
#388=EDGE_CURVE('',#316,#322,#62,.T.);
#389=EDGE_CURVE('',#323,#323,#263,.T.);
#390=EDGE_CURVE('',#324,#324,#264,.T.);
#391=EDGE_CURVE('',#313,#299,#265,.T.);
#392=EDGE_CURVE('',#271,#286,#266,.T.);
#393=EDGE_CURVE('',#280,#309,#63,.T.);
#394=EDGE_CURVE('',#281,#310,#64,.T.);
#395=EDGE_CURVE('',#302,#272,#65,.T.);
#396=EDGE_CURVE('',#303,#279,#66,.T.);
#397=EDGE_CURVE('',#304,#278,#67,.T.);
#398=EDGE_CURVE('',#305,#277,#68,.T.);
#399=EDGE_CURVE('',#306,#276,#69,.T.);
#400=EDGE_CURVE('',#307,#275,#70,.T.);
#401=EDGE_CURVE('',#308,#274,#71,.T.);
#402=EDGE_CURVE('',#301,#273,#72,.T.);
#403=EDGE_CURVE('',#295,#323,#73,.T.);
#404=EDGE_CURVE('',#296,#324,#74,.T.);
#405=EDGE_CURVE('',#315,#287,#75,.T.);
#406=EDGE_CURVE('',#317,#294,#76,.T.);
#407=EDGE_CURVE('',#318,#293,#77,.T.);
#408=EDGE_CURVE('',#319,#292,#78,.T.);
#409=EDGE_CURVE('',#320,#291,#79,.T.);
#410=EDGE_CURVE('',#321,#290,#80,.T.);
#411=EDGE_CURVE('',#322,#289,#81,.T.);
#412=EDGE_CURVE('',#316,#288,#82,.T.);
#413=ORIENTED_EDGE('',*,*,#325,.T.);
#414=ORIENTED_EDGE('',*,*,#326,.T.);
#415=ORIENTED_EDGE('',*,*,#327,.T.);
#416=ORIENTED_EDGE('',*,*,#326,.F.);
#417=ORIENTED_EDGE('',*,*,#328,.T.);
#418=ORIENTED_EDGE('',*,*,#325,.F.);
#419=ORIENTED_EDGE('',*,*,#329,.T.);
#420=ORIENTED_EDGE('',*,*,#330,.T.);
#421=ORIENTED_EDGE('',*,*,#331,.T.);
#422=ORIENTED_EDGE('',*,*,#329,.F.);
#423=ORIENTED_EDGE('',*,*,#328,.F.);
#424=ORIENTED_EDGE('',*,*,#332,.T.);
#425=ORIENTED_EDGE('',*,*,#333,.T.);
#426=ORIENTED_EDGE('',*,*,#334,.T.);
#427=ORIENTED_EDGE('',*,*,#335,.T.);
#428=ORIENTED_EDGE('',*,*,#336,.T.);
#429=ORIENTED_EDGE('',*,*,#337,.T.);
#430=ORIENTED_EDGE('',*,*,#338,.T.);
#431=ORIENTED_EDGE('',*,*,#339,.T.);
#432=ORIENTED_EDGE('',*,*,#340,.T.);
#433=ORIENTED_EDGE('',*,*,#341,.T.);
#434=ORIENTED_EDGE('',*,*,#327,.F.);
#435=ORIENTED_EDGE('',*,*,#342,.T.);
#436=ORIENTED_EDGE('',*,*,#343,.T.);
#437=ORIENTED_EDGE('',*,*,#344,.T.);
#438=ORIENTED_EDGE('',*,*,#343,.F.);
#439=ORIENTED_EDGE('',*,*,#345,.T.);
#440=ORIENTED_EDGE('',*,*,#346,.F.);
#441=ORIENTED_EDGE('',*,*,#347,.T.);
#442=ORIENTED_EDGE('',*,*,#345,.F.);
#443=ORIENTED_EDGE('',*,*,#342,.F.);
#444=ORIENTED_EDGE('',*,*,#347,.F.);
#445=ORIENTED_EDGE('',*,*,#348,.F.);
#446=ORIENTED_EDGE('',*,*,#349,.T.);
#447=ORIENTED_EDGE('',*,*,#350,.T.);
#448=ORIENTED_EDGE('',*,*,#351,.T.);
#449=ORIENTED_EDGE('',*,*,#352,.T.);
#450=ORIENTED_EDGE('',*,*,#353,.T.);
#451=ORIENTED_EDGE('',*,*,#354,.T.);
#452=ORIENTED_EDGE('',*,*,#355,.T.);
#453=ORIENTED_EDGE('',*,*,#356,.T.);
#454=ORIENTED_EDGE('',*,*,#357,.T.);
#455=ORIENTED_EDGE('',*,*,#358,.T.);
#456=ORIENTED_EDGE('',*,*,#344,.F.);
#457=ORIENTED_EDGE('',*,*,#359,.T.);
#458=ORIENTED_EDGE('',*,*,#360,.T.);
#459=ORIENTED_EDGE('',*,*,#361,.T.);
#460=ORIENTED_EDGE('',*,*,#360,.F.);
#461=ORIENTED_EDGE('',*,*,#362,.F.);
#462=ORIENTED_EDGE('',*,*,#363,.F.);
#463=ORIENTED_EDGE('',*,*,#364,.T.);
#464=ORIENTED_EDGE('',*,*,#361,.F.);
#465=ORIENTED_EDGE('',*,*,#364,.F.);
#466=ORIENTED_EDGE('',*,*,#365,.T.);
#467=ORIENTED_EDGE('',*,*,#366,.T.);
#468=ORIENTED_EDGE('',*,*,#367,.T.);
#469=ORIENTED_EDGE('',*,*,#368,.F.);
#470=ORIENTED_EDGE('',*,*,#369,.T.);
#471=ORIENTED_EDGE('',*,*,#370,.T.);
#472=ORIENTED_EDGE('',*,*,#371,.T.);
#473=ORIENTED_EDGE('',*,*,#372,.F.);
#474=ORIENTED_EDGE('',*,*,#373,.T.);
#475=ORIENTED_EDGE('',*,*,#374,.T.);
#476=ORIENTED_EDGE('',*,*,#359,.F.);
#477=ORIENTED_EDGE('',*,*,#375,.T.);
#478=ORIENTED_EDGE('',*,*,#376,.T.);
#479=ORIENTED_EDGE('',*,*,#377,.T.);
#480=ORIENTED_EDGE('',*,*,#376,.F.);
#481=ORIENTED_EDGE('',*,*,#378,.T.);
#482=ORIENTED_EDGE('',*,*,#379,.T.);
#483=ORIENTED_EDGE('',*,*,#375,.F.);
#484=ORIENTED_EDGE('',*,*,#379,.F.);
#485=ORIENTED_EDGE('',*,*,#380,.T.);
#486=ORIENTED_EDGE('',*,*,#381,.F.);
#487=ORIENTED_EDGE('',*,*,#382,.T.);
#488=ORIENTED_EDGE('',*,*,#383,.F.);
#489=ORIENTED_EDGE('',*,*,#384,.F.);
#490=ORIENTED_EDGE('',*,*,#385,.F.);
#491=ORIENTED_EDGE('',*,*,#386,.T.);
#492=ORIENTED_EDGE('',*,*,#387,.F.);
#493=ORIENTED_EDGE('',*,*,#388,.F.);
#494=ORIENTED_EDGE('',*,*,#389,.F.);
#495=ORIENTED_EDGE('',*,*,#390,.F.);
#496=ORIENTED_EDGE('',*,*,#377,.F.);
#497=ORIENTED_EDGE('',*,*,#378,.F.);
#498=ORIENTED_EDGE('',*,*,#391,.T.);
#499=ORIENTED_EDGE('',*,*,#362,.T.);
#500=ORIENTED_EDGE('',*,*,#363,.T.);
#501=ORIENTED_EDGE('',*,*,#391,.F.);
#502=ORIENTED_EDGE('',*,*,#380,.F.);
#503=ORIENTED_EDGE('',*,*,#330,.F.);
#504=ORIENTED_EDGE('',*,*,#331,.F.);
#505=ORIENTED_EDGE('',*,*,#392,.T.);
#506=ORIENTED_EDGE('',*,*,#348,.T.);
#507=ORIENTED_EDGE('',*,*,#346,.T.);
#508=ORIENTED_EDGE('',*,*,#392,.F.);
#509=ORIENTED_EDGE('',*,*,#340,.F.);
#510=ORIENTED_EDGE('',*,*,#393,.T.);
#511=ORIENTED_EDGE('',*,*,#373,.F.);
#512=ORIENTED_EDGE('',*,*,#393,.F.);
#513=ORIENTED_EDGE('',*,*,#341,.F.);
#514=ORIENTED_EDGE('',*,*,#394,.T.);
#515=ORIENTED_EDGE('',*,*,#374,.F.);
#516=ORIENTED_EDGE('',*,*,#394,.F.);
#517=ORIENTED_EDGE('',*,*,#366,.F.);
#518=ORIENTED_EDGE('',*,*,#395,.T.);
#519=ORIENTED_EDGE('',*,*,#339,.F.);
#520=ORIENTED_EDGE('',*,*,#396,.F.);
#521=ORIENTED_EDGE('',*,*,#367,.F.);
#522=ORIENTED_EDGE('',*,*,#396,.T.);
#523=ORIENTED_EDGE('',*,*,#338,.F.);
#524=ORIENTED_EDGE('',*,*,#397,.F.);
#525=ORIENTED_EDGE('',*,*,#368,.T.);
#526=ORIENTED_EDGE('',*,*,#397,.T.);
#527=ORIENTED_EDGE('',*,*,#337,.F.);
#528=ORIENTED_EDGE('',*,*,#398,.F.);
#529=ORIENTED_EDGE('',*,*,#369,.F.);
#530=ORIENTED_EDGE('',*,*,#398,.T.);
#531=ORIENTED_EDGE('',*,*,#336,.F.);
#532=ORIENTED_EDGE('',*,*,#399,.F.);
#533=ORIENTED_EDGE('',*,*,#370,.F.);
#534=ORIENTED_EDGE('',*,*,#399,.T.);
#535=ORIENTED_EDGE('',*,*,#335,.F.);
#536=ORIENTED_EDGE('',*,*,#400,.F.);
#537=ORIENTED_EDGE('',*,*,#371,.F.);
#538=ORIENTED_EDGE('',*,*,#400,.T.);
#539=ORIENTED_EDGE('',*,*,#334,.F.);
#540=ORIENTED_EDGE('',*,*,#401,.F.);
#541=ORIENTED_EDGE('',*,*,#372,.T.);
#542=ORIENTED_EDGE('',*,*,#401,.T.);
#543=ORIENTED_EDGE('',*,*,#333,.F.);
#544=ORIENTED_EDGE('',*,*,#402,.F.);
#545=ORIENTED_EDGE('',*,*,#365,.F.);
#546=ORIENTED_EDGE('',*,*,#402,.T.);
#547=ORIENTED_EDGE('',*,*,#332,.F.);
#548=ORIENTED_EDGE('',*,*,#395,.F.);
#549=ORIENTED_EDGE('',*,*,#357,.F.);
#550=ORIENTED_EDGE('',*,*,#403,.T.);
#551=ORIENTED_EDGE('',*,*,#389,.T.);
#552=ORIENTED_EDGE('',*,*,#403,.F.);
#553=ORIENTED_EDGE('',*,*,#358,.F.);
#554=ORIENTED_EDGE('',*,*,#404,.T.);
#555=ORIENTED_EDGE('',*,*,#390,.T.);
#556=ORIENTED_EDGE('',*,*,#404,.F.);
#557=ORIENTED_EDGE('',*,*,#382,.F.);
#558=ORIENTED_EDGE('',*,*,#405,.T.);
#559=ORIENTED_EDGE('',*,*,#356,.F.);
#560=ORIENTED_EDGE('',*,*,#406,.F.);
#561=ORIENTED_EDGE('',*,*,#383,.T.);
#562=ORIENTED_EDGE('',*,*,#406,.T.);
#563=ORIENTED_EDGE('',*,*,#355,.F.);
#564=ORIENTED_EDGE('',*,*,#407,.F.);
#565=ORIENTED_EDGE('',*,*,#384,.T.);
#566=ORIENTED_EDGE('',*,*,#407,.T.);
#567=ORIENTED_EDGE('',*,*,#354,.F.);
#568=ORIENTED_EDGE('',*,*,#408,.F.);
#569=ORIENTED_EDGE('',*,*,#385,.T.);
#570=ORIENTED_EDGE('',*,*,#408,.T.);
#571=ORIENTED_EDGE('',*,*,#353,.F.);
#572=ORIENTED_EDGE('',*,*,#409,.F.);
#573=ORIENTED_EDGE('',*,*,#386,.F.);
#574=ORIENTED_EDGE('',*,*,#409,.T.);
#575=ORIENTED_EDGE('',*,*,#352,.F.);
#576=ORIENTED_EDGE('',*,*,#410,.F.);
#577=ORIENTED_EDGE('',*,*,#387,.T.);
#578=ORIENTED_EDGE('',*,*,#410,.T.);
#579=ORIENTED_EDGE('',*,*,#351,.F.);
#580=ORIENTED_EDGE('',*,*,#411,.F.);
#581=ORIENTED_EDGE('',*,*,#388,.T.);
#582=ORIENTED_EDGE('',*,*,#411,.T.);
#583=ORIENTED_EDGE('',*,*,#350,.F.);
#584=ORIENTED_EDGE('',*,*,#412,.F.);
#585=ORIENTED_EDGE('',*,*,#381,.T.);
#586=ORIENTED_EDGE('',*,*,#412,.T.);
#587=ORIENTED_EDGE('',*,*,#349,.F.);
#588=ORIENTED_EDGE('',*,*,#405,.F.);
#589=TOROIDAL_SURFACE('',#641,23.5,2.);
#590=TOROIDAL_SURFACE('',#656,23.5,2.);
#591=TOROIDAL_SURFACE('',#697,65.0000000000001,17.5);
#592=TOROIDAL_SURFACE('',#699,65.0000000000001,21.5);
#593=ADVANCED_FACE('',(#141),#589,.F.);
#594=ADVANCED_FACE('',(#142),#125,.T.);
#595=ADVANCED_FACE('',(#143,#17,#18,#19),#29,.F.);
#596=ADVANCED_FACE('',(#144),#590,.F.);
#597=ADVANCED_FACE('',(#145),#126,.T.);
#598=ADVANCED_FACE('',(#146,#20,#21,#22),#30,.T.);
#599=ADVANCED_FACE('',(#147),#15,.F.);
#600=ADVANCED_FACE('',(#148),#127,.F.);
#601=ADVANCED_FACE('',(#149,#23,#24,#25),#31,.T.);
#602=ADVANCED_FACE('',(#150),#16,.F.);
#603=ADVANCED_FACE('',(#151),#128,.F.);
#604=ADVANCED_FACE('',(#152,#26,#27,#28),#32,.F.);
#605=ADVANCED_FACE('',(#153),#591,.F.);
#606=ADVANCED_FACE('',(#154),#592,.T.);
#607=ADVANCED_FACE('',(#155),#129,.F.);
#608=ADVANCED_FACE('',(#156),#130,.F.);
#609=ADVANCED_FACE('',(#157),#33,.T.);
#610=ADVANCED_FACE('',(#158),#131,.T.);
#611=ADVANCED_FACE('',(#159),#34,.T.);
#612=ADVANCED_FACE('',(#160),#132,.T.);
#613=ADVANCED_FACE('',(#161),#35,.T.);
#614=ADVANCED_FACE('',(#162),#133,.T.);
#615=ADVANCED_FACE('',(#163),#36,.T.);
#616=ADVANCED_FACE('',(#164),#134,.T.);
#617=ADVANCED_FACE('',(#165),#135,.F.);
#618=ADVANCED_FACE('',(#166),#136,.F.);
#619=ADVANCED_FACE('',(#167),#37,.T.);
#620=ADVANCED_FACE('',(#168),#137,.T.);
#621=ADVANCED_FACE('',(#169),#38,.T.);
#622=ADVANCED_FACE('',(#170),#138,.T.);
#623=ADVANCED_FACE('',(#171),#39,.T.);
#624=ADVANCED_FACE('',(#172),#139,.T.);
#625=ADVANCED_FACE('',(#173),#40,.T.);
#626=ADVANCED_FACE('',(#174),#140,.T.);
#627=CLOSED_SHELL('',(#593,#594,#595,#596,#597,#598,#599,#600,#601,#602,
#603,#604,#605,#606,#607,#608,#609,#610,#611,#612,#613,#614,#615,#616,#617,
#618,#619,#620,#621,#622,#623,#624,#625,#626));
#628=DERIVED_UNIT_ELEMENT(#630,1.);
#629=DERIVED_UNIT_ELEMENT(#1111,-3.);
#630=(
MASS_UNIT()
NAMED_UNIT(*)
SI_UNIT(.KILO.,.GRAM.)
);
#631=DERIVED_UNIT((#628,#629));
#632=MEASURE_REPRESENTATION_ITEM('density measure',
POSITIVE_RATIO_MEASURE(7850.),#631);
#633=PROPERTY_DEFINITION_REPRESENTATION(#638,#635);
#634=PROPERTY_DEFINITION_REPRESENTATION(#639,#636);
#635=REPRESENTATION('material name',(#637),#1108);
#636=REPRESENTATION('density',(#632),#1108);
#637=DESCRIPTIVE_REPRESENTATION_ITEM('Steel','Steel');
#638=PROPERTY_DEFINITION('material property','material name',#1118);
#639=PROPERTY_DEFINITION('material property','density of part',#1118);
#640=AXIS2_PLACEMENT_3D('',#925,#721,#722);
#641=AXIS2_PLACEMENT_3D('',#926,#723,#724);
#642=AXIS2_PLACEMENT_3D('',#929,#725,#726);
#643=AXIS2_PLACEMENT_3D('',#931,#727,#728);
#644=AXIS2_PLACEMENT_3D('',#932,#729,#730);
#645=AXIS2_PLACEMENT_3D('',#933,#731,#732);
#646=AXIS2_PLACEMENT_3D('',#934,#733,#734);
#647=AXIS2_PLACEMENT_3D('',#938,#736,#737);
#648=AXIS2_PLACEMENT_3D('',#939,#738,#739);
#649=AXIS2_PLACEMENT_3D('',#940,#740,#741);
#650=AXIS2_PLACEMENT_3D('',#943,#742,#743);
#651=AXIS2_PLACEMENT_3D('',#947,#745,#746);
#652=AXIS2_PLACEMENT_3D('',#951,#748,#749);
#653=AXIS2_PLACEMENT_3D('',#955,#751,#752);
#654=AXIS2_PLACEMENT_3D('',#958,#754,#755);
#655=AXIS2_PLACEMENT_3D('',#960,#756,#757);
#656=AXIS2_PLACEMENT_3D('',#961,#758,#759);
#657=AXIS2_PLACEMENT_3D('',#964,#760,#761);
#658=AXIS2_PLACEMENT_3D('',#966,#762,#763);
#659=AXIS2_PLACEMENT_3D('',#967,#764,#765);
#660=AXIS2_PLACEMENT_3D('',#968,#766,#767);
#661=AXIS2_PLACEMENT_3D('',#969,#768,#769);
#662=AXIS2_PLACEMENT_3D('',#972,#770,#771);
#663=AXIS2_PLACEMENT_3D('',#974,#773,#774);
#664=AXIS2_PLACEMENT_3D('',#975,#775,#776);
#665=AXIS2_PLACEMENT_3D('',#978,#777,#778);
#666=AXIS2_PLACEMENT_3D('',#982,#780,#781);
#667=AXIS2_PLACEMENT_3D('',#986,#783,#784);
#668=AXIS2_PLACEMENT_3D('',#990,#786,#787);
#669=AXIS2_PLACEMENT_3D('',#993,#789,#790);
#670=AXIS2_PLACEMENT_3D('',#995,#791,#792);
#671=AXIS2_PLACEMENT_3D('',#996,#793,#794);
#672=AXIS2_PLACEMENT_3D('',#998,#795,#796);
#673=AXIS2_PLACEMENT_3D('',#1001,#798,#799);
#674=AXIS2_PLACEMENT_3D('',#1002,#800,#801);
#675=AXIS2_PLACEMENT_3D('',#1005,#802,#803);
#676=AXIS2_PLACEMENT_3D('',#1006,#804,#805);
#677=AXIS2_PLACEMENT_3D('',#1008,#807,#808);
#678=AXIS2_PLACEMENT_3D('',#1011,#809,#810);
#679=AXIS2_PLACEMENT_3D('',#1015,#812,#813);
#680=AXIS2_PLACEMENT_3D('',#1019,#815,#816);
#681=AXIS2_PLACEMENT_3D('',#1023,#818,#819);
#682=AXIS2_PLACEMENT_3D('',#1026,#821,#822);
#683=AXIS2_PLACEMENT_3D('',#1028,#823,#824);
#684=AXIS2_PLACEMENT_3D('',#1029,#825,#826);
#685=AXIS2_PLACEMENT_3D('',#1031,#827,#828);
#686=AXIS2_PLACEMENT_3D('',#1034,#830,#831);
#687=AXIS2_PLACEMENT_3D('',#1035,#832,#833);
#688=AXIS2_PLACEMENT_3D('',#1038,#834,#835);
#689=AXIS2_PLACEMENT_3D('',#1040,#837,#838);
#690=AXIS2_PLACEMENT_3D('',#1041,#839,#840);
#691=AXIS2_PLACEMENT_3D('',#1044,#841,#842);
#692=AXIS2_PLACEMENT_3D('',#1048,#844,#845);
#693=AXIS2_PLACEMENT_3D('',#1052,#847,#848);
#694=AXIS2_PLACEMENT_3D('',#1056,#850,#851);
#695=AXIS2_PLACEMENT_3D('',#1059,#853,#854);
#696=AXIS2_PLACEMENT_3D('',#1061,#855,#856);
#697=AXIS2_PLACEMENT_3D('',#1062,#857,#858);
#698=AXIS2_PLACEMENT_3D('',#1063,#859,#860);
#699=AXIS2_PLACEMENT_3D('',#1064,#861,#862);
#700=AXIS2_PLACEMENT_3D('',#1065,#863,#864);
#701=AXIS2_PLACEMENT_3D('',#1066,#865,#866);
#702=AXIS2_PLACEMENT_3D('',#1068,#868,#869);
#703=AXIS2_PLACEMENT_3D('',#1070,#871,#872);
#704=AXIS2_PLACEMENT_3D('',#1073,#875,#876);
#705=AXIS2_PLACEMENT_3D('',#1075,#878,#879);
#706=AXIS2_PLACEMENT_3D('',#1077,#881,#882);
#707=AXIS2_PLACEMENT_3D('',#1079,#884,#885);
#708=AXIS2_PLACEMENT_3D('',#1081,#887,#888);
#709=AXIS2_PLACEMENT_3D('',#1083,#890,#891);
#710=AXIS2_PLACEMENT_3D('',#1085,#893,#894);
#711=AXIS2_PLACEMENT_3D('',#1086,#895,#896);
#712=AXIS2_PLACEMENT_3D('',#1088,#898,#899);
#713=AXIS2_PLACEMENT_3D('',#1090,#901,#902);
#714=AXIS2_PLACEMENT_3D('',#1093,#905,#906);
#715=AXIS2_PLACEMENT_3D('',#1095,#908,#909);
#716=AXIS2_PLACEMENT_3D('',#1097,#911,#912);
#717=AXIS2_PLACEMENT_3D('',#1099,#914,#915);
#718=AXIS2_PLACEMENT_3D('',#1101,#917,#918);
#719=AXIS2_PLACEMENT_3D('',#1103,#920,#921);
#720=AXIS2_PLACEMENT_3D('',#1105,#923,#924);
#721=DIRECTION('axis',(0.,0.,1.));
#722=DIRECTION('refdir',(1.,0.,0.));
#723=DIRECTION('center_axis',(0.,0.,1.));
#724=DIRECTION('ref_axis',(1.,0.,0.));
#725=DIRECTION('center_axis',(0.,0.,1.));
#726=DIRECTION('ref_axis',(-1.,0.,0.));
#727=DIRECTION('center_axis',(0.,-1.,0.));
#728=DIRECTION('ref_axis',(-1.,0.,0.));
#729=DIRECTION('center_axis',(0.,0.,-1.));
#730=DIRECTION('ref_axis',(-1.,0.,0.));
#731=DIRECTION('center_axis',(0.,0.,1.));
#732=DIRECTION('ref_axis',(-1.,0.,0.));
#733=DIRECTION('center_axis',(0.,0.,1.));
#734=DIRECTION('ref_axis',(-1.,0.,0.));
#735=DIRECTION('',(0.,0.,-1.));
#736=DIRECTION('center_axis',(0.,6.12323399573677E-17,1.));
#737=DIRECTION('ref_axis',(-1.,0.,0.));
#738=DIRECTION('center_axis',(0.,6.12323399573677E-17,1.));
#739=DIRECTION('ref_axis',(-1.,0.,0.));
#740=DIRECTION('center_axis',(0.,0.,1.));
#741=DIRECTION('ref_axis',(1.,0.,0.));
#742=DIRECTION('center_axis',(0.,0.,-1.));
#743=DIRECTION('ref_axis',(-0.934049775650716,-0.357142851821015,0.));
#744=DIRECTION('',(-0.357142809246271,0.934049791929575,0.));
#745=DIRECTION('center_axis',(0.,0.,-1.));
#746=DIRECTION('ref_axis',(-0.934049775650716,0.357142851821015,0.));
#747=DIRECTION('',(0.357142851821015,0.934049775650716,0.));
#748=DIRECTION('center_axis',(0.,0.,-1.));
#749=DIRECTION('ref_axis',(0.934049775650717,0.357142851821013,0.));
#750=DIRECTION('',(0.357142851821018,-0.934049775650714,0.));
#751=DIRECTION('center_axis',(0.,0.,-1.));
#752=DIRECTION('ref_axis',(0.934049791929602,-0.3571428092462,0.));
#753=DIRECTION('',(-0.357142809246389,-0.93404979192953,0.));
#754=DIRECTION('center_axis',(0.,0.,1.));
#755=DIRECTION('ref_axis',(1.,0.,0.));
#756=DIRECTION('center_axis',(0.,0.,1.));
#757=DIRECTION('ref_axis',(1.,0.,0.));
#758=DIRECTION('center_axis',(0.,-1.,0.));
#759=DIRECTION('ref_axis',(0.,0.,-1.));
#760=DIRECTION('center_axis',(0.,-1.,0.));
#761=DIRECTION('ref_axis',(-1.,0.,0.));
#762=DIRECTION('center_axis',(-1.,0.,-1.2246435568381E-16));
#763=DIRECTION('ref_axis',(-1.2246435568381E-16,0.,1.));
#764=DIRECTION('center_axis',(0.,1.,0.));
#765=DIRECTION('ref_axis',(-1.,0.,0.));
#766=DIRECTION('center_axis',(0.,-1.,0.));
#767=DIRECTION('ref_axis',(-1.,0.,0.));
#768=DIRECTION('center_axis',(0.,1.,0.));
#769=DIRECTION('ref_axis',(-1.,0.,0.));
#770=DIRECTION('center_axis',(0.,1.,0.));
#771=DIRECTION('ref_axis',(-1.,0.,0.));
#772=DIRECTION('',(0.,-1.,0.));
#773=DIRECTION('center_axis',(0.,1.,0.));
#774=DIRECTION('ref_axis',(-1.,0.,0.));
#775=DIRECTION('center_axis',(0.,1.,0.));
#776=DIRECTION('ref_axis',(1.,0.,0.));
#777=DIRECTION('center_axis',(0.,1.,0.));
#778=DIRECTION('ref_axis',(0.946756069185634,0.,-0.321951775053605));
#779=DIRECTION('',(-0.35758117146628,0.,0.93388206204681));
#780=DIRECTION('center_axis',(0.,1.,0.));
#781=DIRECTION('ref_axis',(-0.93388206204681,0.,-0.35758117146628));
#782=DIRECTION('',(0.357402261185582,0.,0.933950546709746));
#783=DIRECTION('center_axis',(0.,1.,0.));
#784=DIRECTION('ref_axis',(-0.917332447141178,0.,0.398122068494047));
#785=DIRECTION('',(0.357221794324056,0.,-0.934019587406978));
#786=DIRECTION('center_axis',(0.,1.,0.));
#787=DIRECTION('ref_axis',(0.923700460406458,0.,0.383115464899158));
#788=DIRECTION('',(-0.357402261185582,0.,-0.933950546709746));
#789=DIRECTION('center_axis',(0.,-1.,0.));
#790=DIRECTION('ref_axis',(1.,0.,0.));
#791=DIRECTION('center_axis',(0.,-1.,0.));
#792=DIRECTION('ref_axis',(1.,0.,0.));
#793=DIRECTION('center_axis',(0.,0.,1.));
#794=DIRECTION('ref_axis',(1.,0.,0.));
#795=DIRECTION('center_axis',(0.,0.,1.));
#796=DIRECTION('ref_axis',(1.,0.,0.));
#797=DIRECTION('',(0.707106781186546,8.65956056235492E-17,-0.707106781186549));
#798=DIRECTION('center_axis',(0.,0.,-1.));
#799=DIRECTION('ref_axis',(1.,0.,0.));
#800=DIRECTION('center_axis',(0.,0.,-1.));
#801=DIRECTION('ref_axis',(1.,0.,0.));
#802=DIRECTION('center_axis',(0.,6.12323399573677E-17,1.));
#803=DIRECTION('ref_axis',(-1.,0.,0.));
#804=DIRECTION('center_axis',(0.,6.12323399573677E-17,1.));
#805=DIRECTION('ref_axis',(-1.,0.,0.));
#806=DIRECTION('',(0.,0.,1.));
#807=DIRECTION('center_axis',(0.,0.,1.));
#808=DIRECTION('ref_axis',(1.,0.,0.));
#809=DIRECTION('center_axis',(0.,0.,1.));
#810=DIRECTION('ref_axis',(-0.934049775650716,-0.357142851821015,0.));
#811=DIRECTION('',(0.357142809246389,0.93404979192953,0.));
#812=DIRECTION('center_axis',(0.,0.,1.));
#813=DIRECTION('ref_axis',(0.934049791929602,-0.3571428092462,0.));
#814=DIRECTION('',(0.357142851821018,-0.934049775650714,0.));
#815=DIRECTION('center_axis',(0.,0.,1.));
#816=DIRECTION('ref_axis',(0.934049775650717,0.357142851821013,0.));
#817=DIRECTION('',(-0.357142851821015,-0.934049775650716,0.));
#818=DIRECTION('center_axis',(0.,0.,1.));
#819=DIRECTION('ref_axis',(-0.934049775650716,0.357142851821015,0.));
#820=DIRECTION('',(-0.357142809246271,0.934049791929575,0.));
#821=DIRECTION('center_axis',(0.,0.,-1.));
#822=DIRECTION('ref_axis',(1.,0.,0.));
#823=DIRECTION('center_axis',(0.,0.,-1.));
#824=DIRECTION('ref_axis',(1.,0.,0.));
#825=DIRECTION('center_axis',(0.,-1.,0.));
#826=DIRECTION('ref_axis',(1.,0.,0.));
#827=DIRECTION('center_axis',(0.,1.,0.));
#828=DIRECTION('ref_axis',(1.,0.,0.));
#829=DIRECTION('',(-0.707106781186547,-0.707106781186548,8.65956056235493E-17));
#830=DIRECTION('center_axis',(0.,-1.,0.));
#831=DIRECTION('ref_axis',(1.,0.,0.));
#832=DIRECTION('center_axis',(0.,1.,0.));
#833=DIRECTION('ref_axis',(1.,0.,0.));
#834=DIRECTION('center_axis',(0.,1.,0.));
#835=DIRECTION('ref_axis',(-1.,0.,0.));
#836=DIRECTION('',(0.,-1.,0.));
#837=DIRECTION('center_axis',(0.,1.,0.));
#838=DIRECTION('ref_axis',(-1.,0.,0.));
#839=DIRECTION('center_axis',(0.,1.,0.));
#840=DIRECTION('ref_axis',(1.,0.,0.));
#841=DIRECTION('center_axis',(0.,1.,0.));
#842=DIRECTION('ref_axis',(0.946756069185634,0.,-0.321951775053605));
#843=DIRECTION('',(0.357402261185582,0.,0.933950546709746));
#844=DIRECTION('center_axis',(0.,1.,0.));
#845=DIRECTION('ref_axis',(0.923700460406458,0.,0.383115464899158));
#846=DIRECTION('',(0.357221794324056,0.,-0.934019587406978));
#847=DIRECTION('center_axis',(0.,1.,0.));
#848=DIRECTION('ref_axis',(-0.917332447141178,0.,0.398122068494047));
#849=DIRECTION('',(-0.357402261185582,0.,-0.933950546709746));
#850=DIRECTION('center_axis',(0.,1.,0.));
#851=DIRECTION('ref_axis',(-0.93388206204681,0.,-0.35758117146628));
#852=DIRECTION('',(-0.35758117146628,0.,0.93388206204681));
#853=DIRECTION('center_axis',(0.,-1.,0.));
#854=DIRECTION('ref_axis',(1.,0.,0.));
#855=DIRECTION('center_axis',(0.,-1.,0.));
#856=DIRECTION('ref_axis',(1.,0.,0.));
#857=DIRECTION('center_axis',(1.,0.,0.));
#858=DIRECTION('ref_axis',(0.,0.,-1.));
#859=DIRECTION('center_axis',(1.,0.,0.));
#860=DIRECTION('ref_axis',(0.,0.,-1.));
#861=DIRECTION('center_axis',(1.,0.,0.));
#862=DIRECTION('ref_axis',(0.,0.,-1.));
#863=DIRECTION('center_axis',(-1.,0.,0.));
#864=DIRECTION('ref_axis',(0.,0.,-1.));
#865=DIRECTION('center_axis',(0.,0.,-1.));
#866=DIRECTION('ref_axis',(1.,0.,0.));
#867=DIRECTION('',(0.,0.,1.));
#868=DIRECTION('center_axis',(0.,0.,-1.));
#869=DIRECTION('ref_axis',(1.,0.,0.));
#870=DIRECTION('',(0.,0.,1.));
#871=DIRECTION('center_axis',(0.93404979192953,-0.357142809246389,0.));
#872=DIRECTION('ref_axis',(-0.357142809246389,-0.93404979192953,0.));
#873=DIRECTION('',(0.,0.,-1.));
#874=DIRECTION('',(0.,0.,-1.));
#875=DIRECTION('center_axis',(0.,0.,-1.));
#876=DIRECTION('ref_axis',(0.934049791929602,-0.3571428092462,0.));
#877=DIRECTION('',(0.,0.,-1.));
#878=DIRECTION('center_axis',(0.934049775650714,0.357142851821018,0.));
#879=DIRECTION('ref_axis',(0.357142851821018,-0.934049775650714,0.));
#880=DIRECTION('',(0.,0.,-1.));
#881=DIRECTION('center_axis',(0.,0.,-1.));
#882=DIRECTION('ref_axis',(0.934049775650717,0.357142851821013,0.));
#883=DIRECTION('',(0.,0.,-1.));
#884=DIRECTION('center_axis',(-0.934049775650716,0.357142851821015,0.));
#885=DIRECTION('ref_axis',(0.357142851821015,0.934049775650716,0.));
#886=DIRECTION('',(0.,0.,-1.));
#887=DIRECTION('center_axis',(0.,0.,-1.));
#888=DIRECTION('ref_axis',(-0.934049775650716,0.357142851821015,0.));
#889=DIRECTION('',(0.,0.,-1.));
#890=DIRECTION('center_axis',(-0.934049791929575,-0.357142809246271,0.));
#891=DIRECTION('ref_axis',(-0.357142809246271,0.934049791929575,0.));
#892=DIRECTION('',(0.,0.,-1.));
#893=DIRECTION('center_axis',(0.,0.,-1.));
#894=DIRECTION('ref_axis',(-0.934049775650716,-0.357142851821015,0.));
#895=DIRECTION('center_axis',(0.,1.,0.));
#896=DIRECTION('ref_axis',(1.,0.,0.));
#897=DIRECTION('',(0.,-1.,0.));
#898=DIRECTION('center_axis',(0.,1.,0.));
#899=DIRECTION('ref_axis',(1.,0.,0.));
#900=DIRECTION('',(0.,-1.,0.));
#901=DIRECTION('center_axis',(0.933950546709746,0.,-0.357402261185582));
#902=DIRECTION('ref_axis',(-0.357402261185582,0.,-0.933950546709746));
#903=DIRECTION('',(0.,1.,0.));
#904=DIRECTION('',(0.,1.,0.));
#905=DIRECTION('center_axis',(0.,1.,0.));
#906=DIRECTION('ref_axis',(0.923700460406458,0.,0.383115464899158));
#907=DIRECTION('',(0.,1.,0.));
#908=DIRECTION('center_axis',(0.934019587406978,0.,0.357221794324056));
#909=DIRECTION('ref_axis',(0.357221794324056,0.,-0.934019587406978));
#910=DIRECTION('',(0.,1.,0.));
#911=DIRECTION('center_axis',(0.,1.,0.));
#912=DIRECTION('ref_axis',(-0.917332447141178,0.,0.398122068494047));
#913=DIRECTION('',(0.,1.,0.));
#914=DIRECTION('center_axis',(-0.933950546709746,0.,0.357402261185582));
#915=DIRECTION('ref_axis',(0.357402261185582,0.,0.933950546709746));
#916=DIRECTION('',(0.,1.,0.));
#917=DIRECTION('center_axis',(0.,1.,0.));
#918=DIRECTION('ref_axis',(-0.93388206204681,0.,-0.35758117146628));
#919=DIRECTION('',(0.,1.,0.));
#920=DIRECTION('center_axis',(-0.93388206204681,0.,-0.35758117146628));
#921=DIRECTION('ref_axis',(-0.35758117146628,0.,0.93388206204681));
#922=DIRECTION('',(0.,1.,0.));
#923=DIRECTION('center_axis',(0.,1.,0.));
#924=DIRECTION('ref_axis',(0.946756069185634,0.,-0.321951775053605));
#925=CARTESIAN_POINT('',(0.,0.,0.));
#926=CARTESIAN_POINT('Origin',(-0.00029903104723894,105.000002086163,142.5));
#927=CARTESIAN_POINT('',(21.4997009689528,105.000002086163,142.5));
#928=CARTESIAN_POINT('',(-21.5002990310472,105.000002086163,142.5));
#929=CARTESIAN_POINT('Origin',(-0.00029903104723894,105.000002086163,142.5));
#930=CARTESIAN_POINT('',(-23.5002990310472,105.000002086163,144.5));
#931=CARTESIAN_POINT('Origin',(-23.5002990310472,105.000002086163,142.5));
#932=CARTESIAN_POINT('Origin',(-0.00029903104723894,105.000002086163,144.5));
#933=CARTESIAN_POINT('Origin',(-0.00029903104723894,105.000002086163,142.5));
#934=CARTESIAN_POINT('Origin',(-0.00029903104723894,105.000002086163,65.0000000000001));
#935=CARTESIAN_POINT('',(21.4997009689528,105.000002086163,65.0000000000001));
#936=CARTESIAN_POINT('',(21.4997009689528,105.000002086163,65.0000000000001));
#937=CARTESIAN_POINT('',(-0.000299031047241573,83.5000020861628,65.0000000000001));
#938=CARTESIAN_POINT('Origin',(-0.00029903104723894,105.000002086163,65.0000000000001));
#939=CARTESIAN_POINT('Origin',(-0.00029903104723894,105.000002086163,65.0000000000001));
#940=CARTESIAN_POINT('Origin',(2.07389660999979E-12,105.,144.5));
#941=CARTESIAN_POINT('',(11.6756223696143,65.5357121995517,144.5));
#942=CARTESIAN_POINT('',(-11.6756223696143,65.5357121995517,144.5));
#943=CARTESIAN_POINT('Origin',(0.,69.9999979138374,144.5));
#944=CARTESIAN_POINT('',(-23.3512447982394,96.071431855006,144.5));
#945=CARTESIAN_POINT('',(-11.6756223696143,65.5357121995517,144.5));
#946=CARTESIAN_POINT('',(-23.3512443912679,113.928573381688,144.5));
#947=CARTESIAN_POINT('Origin',(2.52077097130766E-16,105.000002086163,144.5));
#948=CARTESIAN_POINT('',(-11.6756223696143,144.464287800448,144.5));
#949=CARTESIAN_POINT('',(-11.6756223696143,144.464287800448,144.5));
#950=CARTESIAN_POINT('',(11.6756223696143,144.464287800448,144.5));
#951=CARTESIAN_POINT('Origin',(1.38777878078145E-15,140.000002086163,144.5));
#952=CARTESIAN_POINT('',(23.3512443912718,113.928573381689,144.5));
#953=CARTESIAN_POINT('',(11.6756223696143,144.464287800448,144.5));
#954=CARTESIAN_POINT('',(23.3512447982439,96.0714318550063,144.5));
#955=CARTESIAN_POINT('Origin',(2.52077097130766E-16,105.000002086163,144.5));
#956=CARTESIAN_POINT('',(11.6756223696143,65.5357121995517,144.5));
#957=CARTESIAN_POINT('',(-5.5,140.000002086163,144.5));
#958=CARTESIAN_POINT('Origin',(2.01661604082304E-15,140.000002086163,144.5));
#959=CARTESIAN_POINT('',(-5.50000000000001,69.9999979138372,144.5));
#960=CARTESIAN_POINT('Origin',(0.,69.9999979138372,144.5));
#961=CARTESIAN_POINT('Origin',(-0.00029903104723894,10.,0.));
#962=CARTESIAN_POINT('',(21.4997009689528,10.,2.63299061816681E-15));
#963=CARTESIAN_POINT('',(-0.000299031047241573,10.,21.5));
#964=CARTESIAN_POINT('Origin',(-0.00029903104723894,10.,0.));
#965=CARTESIAN_POINT('',(-0.000299031047241818,8.,23.5));
#966=CARTESIAN_POINT('Origin',(-0.000299031047241818,10.,23.5));
#967=CARTESIAN_POINT('Origin',(-0.00029903104723894,8.,0.));
#968=CARTESIAN_POINT('Origin',(-0.00029903104723894,10.,0.));
#969=CARTESIAN_POINT('Origin',(-0.00029903104723894,8.,0.));
#970=CARTESIAN_POINT('',(21.4997009689528,40.0000020861626,-4.44089209850063E-15));
#971=CARTESIAN_POINT('',(-0.000299031047241573,40.0000020861626,21.5));
#972=CARTESIAN_POINT('Origin',(-0.00029903104723894,40.0000020861626,0.));
#973=CARTESIAN_POINT('',(21.4997009689528,8.,-2.63299061816681E-15));
#974=CARTESIAN_POINT('Origin',(-0.00029903104723894,40.0000020861626,0.));
#975=CARTESIAN_POINT('Origin',(-0.00341931613050406,8.,-5.62491508926399E-5));
#976=CARTESIAN_POINT('',(11.8341940440748,8.,-39.0245096865482));
#977=CARTESIAN_POINT('',(-11.8331043804151,8.,-39.0292214123016));
#978=CARTESIAN_POINT('Origin',(-0.000256820970293291,8.,-35.0001124983017));
#979=CARTESIAN_POINT('',(-23.3534380280678,8.,-8.94197465313677));
#980=CARTESIAN_POINT('',(-11.8331043804151,8.,-39.0292214123016));
#981=CARTESIAN_POINT('',(-23.0989830549137,8.,9.58013362417012));
#982=CARTESIAN_POINT('Origin',(0.,8.,0.));
#983=CARTESIAN_POINT('',(-11.4669546205296,8.,39.97652585627));
#984=CARTESIAN_POINT('',(-11.4669546205296,8.,39.97652585627));
#985=CARTESIAN_POINT('',(11.4663565584351,8.,39.97652585627));
#986=CARTESIAN_POINT('Origin',(-0.00029903104724659,8.,35.));
#987=CARTESIAN_POINT('',(23.0925115110517,8.,9.57788662284821));
#988=CARTESIAN_POINT('',(11.4663565584351,8.,39.97652585627));
#989=CARTESIAN_POINT('',(23.3487636686438,8.,-8.93505652998402));
#990=CARTESIAN_POINT('Origin',(0.,8.,0.));
#991=CARTESIAN_POINT('',(11.8341940440748,8.,-39.0245096865482));
#992=CARTESIAN_POINT('',(-5.50029903104724,8.,35.));
#993=CARTESIAN_POINT('Origin',(-0.00029903104724659,8.,35.));
#994=CARTESIAN_POINT('',(-5.50025682097029,8.,-35.0001124983017));
#995=CARTESIAN_POINT('Origin',(-0.000256820970293291,8.,-35.0001124983017));
#996=CARTESIAN_POINT('Origin',(2.52077097130766E-16,105.000002086163,151.));
#997=CARTESIAN_POINT('',(-20.5,105.000002086163,152.5));
#998=CARTESIAN_POINT('Origin',(2.52077097130766E-16,105.000002086163,152.5));
#999=CARTESIAN_POINT('',(-17.5,105.000002086163,149.5));
#1000=CARTESIAN_POINT('',(-19.,105.000002086163,151.));
#1001=CARTESIAN_POINT('Origin',(2.52077097130766E-16,105.000002086163,149.5));
#1002=CARTESIAN_POINT('Origin',(2.52077097130766E-16,105.000002086163,152.5));
#1003=CARTESIAN_POINT('',(-2.14313189850787E-15,87.5000020861628,65.0000000000001));
#1004=CARTESIAN_POINT('',(-17.5,105.000002086163,65.0000000000001));
#1005=CARTESIAN_POINT('Origin',(0.,105.000002086163,65.0000000000001));
#1006=CARTESIAN_POINT('Origin',(0.,105.000002086163,65.0000000000001));
#1007=CARTESIAN_POINT('',(-17.5,105.000002086163,152.5));
#1008=CARTESIAN_POINT('Origin',(2.07389660999979E-12,105.,152.5));
#1009=CARTESIAN_POINT('',(-11.6756223696143,65.5357121995517,152.5));
#1010=CARTESIAN_POINT('',(11.6756223696143,65.5357121995517,152.5));
#1011=CARTESIAN_POINT('Origin',(0.,69.9999979138374,152.5));
#1012=CARTESIAN_POINT('',(23.3512447982439,96.0714318550063,152.5));
#1013=CARTESIAN_POINT('',(11.6756223696143,65.5357121995517,152.5));
#1014=CARTESIAN_POINT('',(23.3512443912718,113.928573381689,152.5));
#1015=CARTESIAN_POINT('Origin',(2.52077097130766E-16,105.000002086163,152.5));
#1016=CARTESIAN_POINT('',(11.6756223696143,144.464287800448,152.5));
#1017=CARTESIAN_POINT('',(11.6756223696143,144.464287800448,152.5));
#1018=CARTESIAN_POINT('',(-11.6756223696143,144.464287800448,152.5));
#1019=CARTESIAN_POINT('Origin',(1.38777878078145E-15,140.000002086163,152.5));
#1020=CARTESIAN_POINT('',(-23.3512443912679,113.928573381688,152.5));
#1021=CARTESIAN_POINT('',(-11.6756223696143,144.464287800448,152.5));
#1022=CARTESIAN_POINT('',(-23.3512447982394,96.071431855006,152.5));
#1023=CARTESIAN_POINT('Origin',(2.52077097130766E-16,105.000002086163,152.5));
#1024=CARTESIAN_POINT('',(-11.6756223696143,65.5357121995517,152.5));
#1025=CARTESIAN_POINT('',(-5.5,140.000002086163,152.5));
#1026=CARTESIAN_POINT('Origin',(2.01661604082304E-15,140.000002086163,152.5));
#1027=CARTESIAN_POINT('',(-5.50000000000001,69.9999979138372,152.5));
#1028=CARTESIAN_POINT('Origin',(0.,69.9999979138372,152.5));
#1029=CARTESIAN_POINT('Origin',(0.,1.5,0.));
#1030=CARTESIAN_POINT('',(-17.5,3.,2.14313189850787E-15));
#1031=CARTESIAN_POINT('Origin',(0.,3.,0.));
#1032=CARTESIAN_POINT('',(-20.5,0.,-2.51052593825207E-15));
#1033=CARTESIAN_POINT('',(-19.,1.5,2.32682891837997E-15));
#1034=CARTESIAN_POINT('Origin',(0.,0.,0.));
#1035=CARTESIAN_POINT('Origin',(0.,0.,0.));
#1036=CARTESIAN_POINT('',(-2.14313189850787E-15,40.0000020861626,17.5));
#1037=CARTESIAN_POINT('',(-17.5,40.0000020861626,2.14313189850787E-15));
#1038=CARTESIAN_POINT('Origin',(0.,40.0000020861626,0.));
#1039=CARTESIAN_POINT('',(-17.5,0.,2.14313189850787E-15));
#1040=CARTESIAN_POINT('Origin',(0.,40.0000020861626,0.));
#1041=CARTESIAN_POINT('Origin',(-0.00341931613050406,0.,-5.62491508926399E-5));
#1042=CARTESIAN_POINT('',(11.8341940440748,0.,-39.0245096865482));
#1043=CARTESIAN_POINT('',(-11.8331043804151,0.,-39.0292214123016));
#1044=CARTESIAN_POINT('Origin',(-0.000256820970293291,0.,-35.0001124983017));
#1045=CARTESIAN_POINT('',(23.3487636686438,0.,-8.93505652998402));
#1046=CARTESIAN_POINT('',(11.8341940440748,0.,-39.0245096865482));
#1047=CARTESIAN_POINT('',(23.0925115110517,0.,9.5778866228482));
#1048=CARTESIAN_POINT('Origin',(0.,0.,0.));
#1049=CARTESIAN_POINT('',(11.4663565584351,0.,39.97652585627));
#1050=CARTESIAN_POINT('',(11.4663565584351,0.,39.97652585627));
#1051=CARTESIAN_POINT('',(-11.4669546205296,0.,39.97652585627));
#1052=CARTESIAN_POINT('Origin',(-0.00029903104724659,0.,35.));
#1053=CARTESIAN_POINT('',(-23.0989830549137,0.,9.58013362417012));
#1054=CARTESIAN_POINT('',(-11.4669546205296,0.,39.97652585627));
#1055=CARTESIAN_POINT('',(-23.3534380280678,0.,-8.94197465313677));
#1056=CARTESIAN_POINT('Origin',(0.,0.,0.));
#1057=CARTESIAN_POINT('',(-11.8331043804151,0.,-39.0292214123016));
#1058=CARTESIAN_POINT('',(-5.50029903104724,0.,35.));
#1059=CARTESIAN_POINT('Origin',(-0.00029903104724659,0.,35.));
#1060=CARTESIAN_POINT('',(-5.50025682097029,0.,-35.0001124983017));
#1061=CARTESIAN_POINT('Origin',(-0.000256820970293291,0.,-35.0001124983017));
#1062=CARTESIAN_POINT('Origin',(0.,40.0000020861626,65.0000000000001));
#1063=CARTESIAN_POINT('Origin',(-2.14313189850787E-15,40.0000020861626,
65.0000000000001));
#1064=CARTESIAN_POINT('Origin',(-0.00029903104723894,40.0000020861626,65.0000000000001));
#1065=CARTESIAN_POINT('Origin',(-0.000299031047241573,40.0000020861626,
65.0000000000001));
#1066=CARTESIAN_POINT('Origin',(2.01661604082304E-15,140.000002086163,152.5));
#1067=CARTESIAN_POINT('',(-5.5,140.000002086163,152.5));
#1068=CARTESIAN_POINT('Origin',(0.,69.9999979138372,152.5));
#1069=CARTESIAN_POINT('',(-5.50000000000001,69.9999979138372,152.5));
#1070=CARTESIAN_POINT('Origin',(23.3512447982439,96.0714318550063,152.5));
#1071=CARTESIAN_POINT('',(11.6756223696143,65.5357121995517,152.5));
#1072=CARTESIAN_POINT('',(23.3512447982439,96.0714318550063,152.5));
#1073=CARTESIAN_POINT('Origin',(2.52077097130766E-16,105.000002086163,152.5));
#1074=CARTESIAN_POINT('',(23.3512443912718,113.928573381689,152.5));
#1075=CARTESIAN_POINT('Origin',(11.6756223696143,144.464287800448,152.5));
#1076=CARTESIAN_POINT('',(11.6756223696143,144.464287800448,152.5));
#1077=CARTESIAN_POINT('Origin',(1.38777878078145E-15,140.000002086163,152.5));
#1078=CARTESIAN_POINT('',(-11.6756223696143,144.464287800448,152.5));
#1079=CARTESIAN_POINT('Origin',(-23.3512443912679,113.928573381688,152.5));
#1080=CARTESIAN_POINT('',(-23.3512443912679,113.928573381688,152.5));
#1081=CARTESIAN_POINT('Origin',(2.52077097130766E-16,105.000002086163,152.5));
#1082=CARTESIAN_POINT('',(-23.3512447982394,96.071431855006,152.5));
#1083=CARTESIAN_POINT('Origin',(-11.6756223696143,65.5357121995517,152.5));
#1084=CARTESIAN_POINT('',(-11.6756223696143,65.5357121995517,152.5));
#1085=CARTESIAN_POINT('Origin',(0.,69.9999979138374,152.5));
#1086=CARTESIAN_POINT('Origin',(-0.00029903104724659,0.,35.));
#1087=CARTESIAN_POINT('',(-5.50029903104724,0.,35.));
#1088=CARTESIAN_POINT('Origin',(-0.000256820970293291,0.,-35.0001124983017));
#1089=CARTESIAN_POINT('',(-5.50025682097029,0.,-35.0001124983017));
#1090=CARTESIAN_POINT('Origin',(23.3487636686438,0.,-8.93505652998402));
#1091=CARTESIAN_POINT('',(11.8341940440748,0.,-39.0245096865482));
#1092=CARTESIAN_POINT('',(23.3487636686438,0.,-8.93505652998402));
#1093=CARTESIAN_POINT('Origin',(0.,0.,0.));
#1094=CARTESIAN_POINT('',(23.0925115110517,0.,9.5778866228482));
#1095=CARTESIAN_POINT('Origin',(11.4663565584351,0.,39.97652585627));
#1096=CARTESIAN_POINT('',(11.4663565584351,0.,39.97652585627));
#1097=CARTESIAN_POINT('Origin',(-0.00029903104724659,0.,35.));
#1098=CARTESIAN_POINT('',(-11.4669546205296,0.,39.97652585627));
#1099=CARTESIAN_POINT('Origin',(-23.0989830549137,0.,9.58013362417012));
#1100=CARTESIAN_POINT('',(-23.0989830549137,0.,9.58013362417012));
#1101=CARTESIAN_POINT('Origin',(0.,0.,0.));
#1102=CARTESIAN_POINT('',(-23.3534380280678,0.,-8.94197465313677));
#1103=CARTESIAN_POINT('Origin',(-11.8331043804151,0.,-39.0292214123016));
#1104=CARTESIAN_POINT('',(-11.8331043804151,0.,-39.0292214123016));
#1105=CARTESIAN_POINT('Origin',(-0.000256820970293291,0.,-35.0001124983017));
#1106=UNCERTAINTY_MEASURE_WITH_UNIT(LENGTH_MEASURE(0.01),#1110,
'DISTANCE_ACCURACY_VALUE',
'Maximum model space distance between geometric entities at asserted c
onnectivities');
#1107=UNCERTAINTY_MEASURE_WITH_UNIT(LENGTH_MEASURE(0.01),#1110,
'DISTANCE_ACCURACY_VALUE',
'Maximum model space distance between geometric entities at asserted c
onnectivities');
#1108=(
GEOMETRIC_REPRESENTATION_CONTEXT(3)
GLOBAL_UNCERTAINTY_ASSIGNED_CONTEXT((#1106))
GLOBAL_UNIT_ASSIGNED_CONTEXT((#1110,#1112,#1113))
REPRESENTATION_CONTEXT('','3D')
);
#1109=(
GEOMETRIC_REPRESENTATION_CONTEXT(3)
GLOBAL_UNCERTAINTY_ASSIGNED_CONTEXT((#1107))
GLOBAL_UNIT_ASSIGNED_CONTEXT((#1110,#1112,#1113))
REPRESENTATION_CONTEXT('','3D')
);
#1110=(
LENGTH_UNIT()
NAMED_UNIT(*)
SI_UNIT(.MILLI.,.METRE.)
);
#1111=(
LENGTH_UNIT()
NAMED_UNIT(*)
SI_UNIT($,.METRE.)
);
#1112=(
NAMED_UNIT(*)
PLANE_ANGLE_UNIT()
SI_UNIT($,.RADIAN.)
);
#1113=(
NAMED_UNIT(*)
SI_UNIT($,.STERADIAN.)
SOLID_ANGLE_UNIT()
);
#1114=SHAPE_DEFINITION_REPRESENTATION(#1115,#1116);
#1115=PRODUCT_DEFINITION_SHAPE('',$,#1118);
#1116=SHAPE_REPRESENTATION('',(#640),#1108);
#1117=PRODUCT_DEFINITION_CONTEXT('part definition',#1122,'design');
#1118=PRODUCT_DEFINITION('2026-08-13-03-35-00-743','Flanged 90 Elbow',#1119,
#1117);
#1119=PRODUCT_DEFINITION_FORMATION('',$,#1124);
#1120=PRODUCT_RELATED_PRODUCT_CATEGORY('Flanged 90 Elbow',
'Flanged 90 Elbow',(#1124));
#1121=APPLICATION_PROTOCOL_DEFINITION('international standard',
'automotive_design',2009,#1122);
#1122=APPLICATION_CONTEXT(
'Core Data for Automotive Mechanical Design Process');
#1123=PRODUCT_CONTEXT('part definition',#1122,'mechanical');
#1124=PRODUCT('2026-08-13-03-35-00-743','Flanged 90 Elbow',$,(#1123));
#1125=PRESENTATION_STYLE_ASSIGNMENT((#1127));
#1126=PRESENTATION_STYLE_ASSIGNMENT((#1128));
#1127=SURFACE_STYLE_USAGE(.BOTH.,#1129);
#1128=SURFACE_STYLE_USAGE(.BOTH.,#1130);
#1129=SURFACE_SIDE_STYLE('',(#1131));
#1130=SURFACE_SIDE_STYLE('',(#1132));
#1131=SURFACE_STYLE_FILL_AREA(#1133);
#1132=SURFACE_STYLE_FILL_AREA(#1134);
#1133=FILL_AREA_STYLE('Steel - Satin',(#1135));
#1134=FILL_AREA_STYLE('Iron - Polished',(#1136));
#1135=FILL_AREA_STYLE_COLOUR('Steel - Satin',#1137);
#1136=FILL_AREA_STYLE_COLOUR('Iron - Polished',#1138);
#1137=COLOUR_RGB('Steel - Satin',0.627450980392157,0.627450980392157,0.627450980392157);
#1138=COLOUR_RGB('Iron - Polished',0.749019607843137,0.741176470588235,
0.733333333333333);
ENDSEC;
END-ISO-10303-21;
