# WaveFront *.obj file (generated by Autodesk ATF)

mtllib Model.mtl

g Body1

v -7.500000 0.000000 -14.000000
v 0.000000 0.000000 -14.000000
v 7.500000 0.000000 -14.000000
v 7.500000 1.200000 -14.000000
v 0.000000 1.200000 -14.000000
v -7.500000 1.200000 -14.000000
v -7.500000 0.000000 14.000000
v -7.500000 0.000000 4.666667
v -7.500000 0.000000 -4.666667
v -7.500000 1.200000 -4.666667
v -7.500000 1.200000 4.666667
v -7.500000 1.200000 14.000000
v 7.500000 0.000000 14.000000
v 0.000000 0.000000 14.000000
v 0.000000 1.200000 14.000000
v 7.500000 1.200000 14.000000
v 7.500000 0.000000 -4.666667
v 7.500000 0.000000 4.666667
v 7.500000 1.200000 4.666667
v 7.500000 1.200000 -4.666667
v 10.000000 0.000000 -12.900000
v 10.000000 0.000000 -16.500000
v 10.000000 1.200000 -16.500000
v 10.000000 1.200000 -12.900000
v 10.300000 0.000000 -12.600000
v 10.222354 0.000000 -12.610222
v 10.150000 0.000000 -12.640192
v 10.087868 0.000000 -12.687868
v 10.040192 0.000000 -12.750000
v 10.010222 0.000000 -12.822354
v 10.010222 1.200000 -12.822354
v 10.040192 1.200000 -12.750000
v 10.087868 1.200000 -12.687868
v 10.150000 1.200000 -12.640192
v 10.222354 1.200000 -12.610222
v 10.300000 1.200000 -12.600000
v 11.700000 0.000000 -12.600000
v 11.700000 1.200000 -12.600000
v 12.000000 0.000000 -12.300000
v 11.989778 0.000000 -12.377646
v 11.959808 0.000000 -12.450000
v 11.912132 0.000000 -12.512132
v 11.850000 0.000000 -12.559808
v 11.777646 0.000000 -12.589778
v 11.777646 1.200000 -12.589778
v 11.850000 1.200000 -12.559808
v 11.912132 1.200000 -12.512132
v 11.959808 1.200000 -12.450000
v 11.989778 1.200000 -12.377646
v 12.000000 1.200000 -12.300000
v 12.000000 0.000000 -11.700000
v 12.000000 1.200000 -11.700000
v 10.390104 0.000000 -11.700000
v 10.390104 1.200000 -11.700000
v 10.390104 0.000000 -10.500000
v 10.234813 0.000000 -10.520445
v 10.090104 0.000000 -10.580385
v 9.965840 0.000000 -10.675736
v 9.870489 0.000000 -10.800000
v 9.810549 0.000000 -10.944709
v 9.790104 0.000000 -11.100000
v 9.810549 0.000000 -11.255291
v 9.870489 0.000000 -11.400000
v 9.965840 0.000000 -11.524264
v 10.090104 0.000000 -11.619615
v 10.234813 0.000000 -11.679555
v 10.234813 1.200000 -11.679555
v 10.090104 1.200000 -11.619615
v 9.965840 1.200000 -11.524264
v 9.870489 1.200000 -11.400000
v 9.810549 1.200000 -11.255291
v 9.790104 1.200000 -11.100000
v 9.810549 1.200000 -10.944709
v 9.870489 1.200000 -10.800000
v 9.965840 1.200000 -10.675736
v 10.090104 1.200000 -10.580385
v 10.234813 1.200000 -10.520445
v 10.390104 1.200000 -10.500000
v 12.000000 0.000000 -10.500000
v 12.000000 1.200000 -10.500000
v 12.000000 0.000000 -9.900000
v 12.000000 1.200000 -9.900000
v 11.700000 0.000000 -9.600000
v 11.777646 0.000000 -9.610222
v 11.850000 0.000000 -9.640192
v 11.912132 0.000000 -9.687868
v 11.959808 0.000000 -9.750000
v 11.989778 0.000000 -9.822354
v 11.989778 1.200000 -9.822354
v 11.959808 1.200000 -9.750000
v 11.912132 1.200000 -9.687868
v 11.850000 1.200000 -9.640192
v 11.777646 1.200000 -9.610222
v 11.700000 1.200000 -9.600000
v 10.300000 0.000000 -9.600000
v 10.300000 1.200000 -9.600000
v 10.000000 0.000000 -9.300000
v 10.010222 0.000000 -9.377646
v 10.040192 0.000000 -9.450000
v 10.087868 0.000000 -9.512132
v 10.150000 0.000000 -9.559808
v 10.222354 0.000000 -9.589778
v 10.222354 1.200000 -9.589778
v 10.150000 1.200000 -9.559808
v 10.087868 1.200000 -9.512132
v 10.040192 1.200000 -9.450000
v 10.010222 1.200000 -9.377646
v 10.000000 1.200000 -9.300000
v 10.000000 0.000000 9.300000
v 10.000000 0.000000 0.000000
v 10.000000 1.200000 0.000000
v 10.000000 1.200000 9.300000
v 10.300000 0.000000 9.600000
v 10.222354 0.000000 9.589778
v 10.150000 0.000000 9.559808
v 10.087868 0.000000 9.512132
v 10.040192 0.000000 9.450000
v 10.010222 0.000000 9.377646
v 10.010222 1.200000 9.377646
v 10.040192 1.200000 9.450000
v 10.087868 1.200000 9.512132
v 10.150000 1.200000 9.559808
v 10.222354 1.200000 9.589778
v 10.300000 1.200000 9.600000
v 11.700000 0.000000 9.600000
v 11.700000 1.200000 9.600000
v 12.000000 0.000000 9.900000
v 11.989778 0.000000 9.822354
v 11.959808 0.000000 9.750000
v 11.912132 0.000000 9.687868
v 11.850000 0.000000 9.640192
v 11.777646 0.000000 9.610222
v 11.777646 1.200000 9.610222
v 11.850000 1.200000 9.640192
v 11.912132 1.200000 9.687868
v 11.959808 1.200000 9.750000
v 11.989778 1.200000 9.822354
v 12.000000 1.200000 9.900000
v 12.000000 0.000000 10.500000
v 12.000000 1.200000 10.500000
v 10.390104 0.000000 10.500000
v 10.390104 1.200000 10.500000
v 10.390104 0.000000 11.700000
v 10.234813 0.000000 11.679555
v 10.090104 0.000000 11.619615
v 9.965840 0.000000 11.524264
v 9.870489 0.000000 11.400000
v 9.810549 0.000000 11.255291
v 9.790104 0.000000 11.100000
v 9.810549 0.000000 10.944709
v 9.870489 0.000000 10.800000
v 9.965840 0.000000 10.675736
v 10.090104 0.000000 10.580385
v 10.234813 0.000000 10.520445
v 10.234813 1.200000 10.520445
v 10.090104 1.200000 10.580385
v 9.965840 1.200000 10.675736
v 9.870489 1.200000 10.800000
v 9.810549 1.200000 10.944709
v 9.790104 1.200000 11.100000
v 9.810549 1.200000 11.255291
v 9.870489 1.200000 11.400000
v 9.965840 1.200000 11.524264
v 10.090104 1.200000 11.619615
v 10.234813 1.200000 11.679555
v 10.390104 1.200000 11.700000
v 12.000000 0.000000 11.700000
v 12.000000 1.200000 11.700000
v 12.000000 0.000000 12.300000
v 12.000000 1.200000 12.300000
v 11.700000 0.000000 12.600000
v 11.777646 0.000000 12.589778
v 11.850000 0.000000 12.559808
v 11.912132 0.000000 12.512132
v 11.959808 0.000000 12.450000
v 11.989778 0.000000 12.377646
v 11.989778 1.200000 12.377646
v 11.959808 1.200000 12.450000
v 11.912132 1.200000 12.512132
v 11.850000 1.200000 12.559808
v 11.777646 1.200000 12.589778
v 11.700000 1.200000 12.600000
v 10.300000 0.000000 12.600000
v 10.300000 1.200000 12.600000
v 10.000000 0.000000 12.900000
v 10.010222 0.000000 12.822354
v 10.040192 0.000000 12.750000
v 10.087868 0.000000 12.687868
v 10.150000 0.000000 12.640192
v 10.222354 0.000000 12.610222
v 10.222354 1.200000 12.610222
v 10.150000 1.200000 12.640192
v 10.087868 1.200000 12.687868
v 10.040192 1.200000 12.750000
v 10.010222 1.200000 12.822354
v 10.000000 1.200000 12.900000
v 10.000000 0.000000 16.500000
v 10.000000 1.200000 16.500000
v -10.000000 0.000000 16.500000
v 0.000000 0.000000 16.500000
v 0.000000 1.200000 16.500000
v -10.000000 1.200000 16.500000
v -10.000000 0.000000 12.900000
v -10.000000 1.200000 12.900000
v -10.300000 0.000000 12.600000
v -10.222354 0.000000 12.610222
v -10.150000 0.000000 12.640192
v -10.087868 0.000000 12.687868
v -10.040192 0.000000 12.750000
v -10.010222 0.000000 12.822354
v -10.010222 1.200000 12.822354
v -10.040192 1.200000 12.750000
v -10.087868 1.200000 12.687868
v -10.150000 1.200000 12.640192
v -10.222354 1.200000 12.610222
v -10.300000 1.200000 12.600000
v -11.700000 0.000000 12.600000
v -11.700000 1.200000 12.600000
v -12.000000 0.000000 12.300000
v -11.989778 0.000000 12.377646
v -11.959808 0.000000 12.450000
v -11.912132 0.000000 12.512132
v -11.850000 0.000000 12.559808
v -11.777646 0.000000 12.589778
v -11.777646 1.200000 12.589778
v -11.850000 1.200000 12.559808
v -11.912132 1.200000 12.512132
v -11.959808 1.200000 12.450000
v -11.989778 1.200000 12.377646
v -12.000000 1.200000 12.300000
v -12.000000 0.000000 11.700000
v -12.000000 1.200000 11.700000
v -10.390104 0.000000 11.700000
v -10.390104 1.200000 11.700000
v -10.390104 0.000000 10.500000
v -10.234813 0.000000 10.520445
v -10.090104 0.000000 10.580385
v -9.965840 0.000000 10.675736
v -9.870489 0.000000 10.800000
v -9.810549 0.000000 10.944709
v -9.790104 0.000000 11.100000
v -9.810549 0.000000 11.255291
v -9.870489 0.000000 11.400000
v -9.965840 0.000000 11.524264
v -10.090104 0.000000 11.619615
v -10.234813 0.000000 11.679555
v -10.234813 1.200000 11.679555
v -10.090104 1.200000 11.619615
v -9.965840 1.200000 11.524264
v -9.870489 1.200000 11.400000
v -9.810549 1.200000 11.255291
v -9.790104 1.200000 11.100000
v -9.810549 1.200000 10.944709
v -9.870489 1.200000 10.800000
v -9.965840 1.200000 10.675736
v -10.090104 1.200000 10.580385
v -10.234813 1.200000 10.520445
v -10.390104 1.200000 10.500000
v -12.000000 0.000000 10.500000
v -12.000000 1.200000 10.500000
v -12.000000 0.000000 9.900000
v -12.000000 1.200000 9.900000
v -11.700000 0.000000 9.600000
v -11.777646 0.000000 9.610222
v -11.850000 0.000000 9.640192
v -11.912132 0.000000 9.687868
v -11.959808 0.000000 9.750000
v -11.989778 0.000000 9.822354
v -11.989778 1.200000 9.822354
v -11.959808 1.200000 9.750000
v -11.912132 1.200000 9.687868
v -11.850000 1.200000 9.640192
v -11.777646 1.200000 9.610222
v -11.700000 1.200000 9.600000
v -10.300000 0.000000 9.600000
v -10.300000 1.200000 9.600000
v -10.000000 0.000000 9.300000
v -10.010222 0.000000 9.377646
v -10.040192 0.000000 9.450000
v -10.087868 0.000000 9.512132
v -10.150000 0.000000 9.559808
v -10.222354 0.000000 9.589778
v -10.222354 1.200000 9.589778
v -10.150000 1.200000 9.559808
v -10.087868 1.200000 9.512132
v -10.040192 1.200000 9.450000
v -10.010222 1.200000 9.377646
v -10.000000 1.200000 9.300000
v -10.000000 0.000000 -9.300000
v -10.000000 0.000000 0.000000
v -10.000000 1.200000 0.000000
v -10.000000 1.200000 -9.300000
v -10.300000 0.000000 -9.600000
v -10.222354 0.000000 -9.589778
v -10.150000 0.000000 -9.559808
v -10.087868 0.000000 -9.512132
v -10.040192 0.000000 -9.450000
v -10.010222 0.000000 -9.377646
v -10.010222 1.200000 -9.377646
v -10.040192 1.200000 -9.450000
v -10.087868 1.200000 -9.512132
v -10.150000 1.200000 -9.559808
v -10.222354 1.200000 -9.589778
v -10.300000 1.200000 -9.600000
v -11.700000 0.000000 -9.600000
v -11.700000 1.200000 -9.600000
v -12.000000 0.000000 -9.900000
v -11.989778 0.000000 -9.822354
v -11.959808 0.000000 -9.750000
v -11.912132 0.000000 -9.687868
v -11.850000 0.000000 -9.640192
v -11.777646 0.000000 -9.610222
v -11.777646 1.200000 -9.610222
v -11.850000 1.200000 -9.640192
v -11.912132 1.200000 -9.687868
v -11.959808 1.200000 -9.750000
v -11.989778 1.200000 -9.822354
v -12.000000 1.200000 -9.900000
v -12.000000 0.000000 -10.500000
v -12.000000 1.200000 -10.500000
v -10.390104 0.000000 -10.500000
v -10.390104 1.200000 -10.500000
v -10.390104 0.000000 -11.700000
v -10.234813 0.000000 -11.679555
v -10.090104 0.000000 -11.619615
v -9.965840 0.000000 -11.524264
v -9.870489 0.000000 -11.400000
v -9.810549 0.000000 -11.255291
v -9.790104 0.000000 -11.100000
v -9.810549 0.000000 -10.944709
v -9.870489 0.000000 -10.800000
v -9.965840 0.000000 -10.675736
v -10.090104 0.000000 -10.580385
v -10.234813 0.000000 -10.520445
v -10.234813 1.200000 -10.520445
v -10.090104 1.200000 -10.580385
v -9.965840 1.200000 -10.675736
v -9.870489 1.200000 -10.800000
v -9.810549 1.200000 -10.944709
v -9.790104 1.200000 -11.100000
v -9.810549 1.200000 -11.255291
v -9.870489 1.200000 -11.400000
v -9.965840 1.200000 -11.524264
v -10.090104 1.200000 -11.619615
v -10.234813 1.200000 -11.679555
v -10.390104 1.200000 -11.700000
v -12.000000 0.000000 -11.700000
v -12.000000 1.200000 -11.700000
v -12.000000 0.000000 -12.300000
v -12.000000 1.200000 -12.300000
v -11.700000 0.000000 -12.600000
v -11.777646 0.000000 -12.589778
v -11.850000 0.000000 -12.559808
v -11.912132 0.000000 -12.512132
v -11.959808 0.000000 -12.450000
v -11.989778 0.000000 -12.377646
v -11.989778 1.200000 -12.377646
v -11.959808 1.200000 -12.450000
v -11.912132 1.200000 -12.512132
v -11.850000 1.200000 -12.559808
v -11.777646 1.200000 -12.589778
v -11.700000 1.200000 -12.600000
v -10.300000 0.000000 -12.600000
v -10.300000 1.200000 -12.600000
v -10.000000 0.000000 -12.900000
v -10.010222 0.000000 -12.822354
v -10.040192 0.000000 -12.750000
v -10.087868 0.000000 -12.687868
v -10.150000 0.000000 -12.640192
v -10.222354 0.000000 -12.610222
v -10.222354 1.200000 -12.610222
v -10.150000 1.200000 -12.640192
v -10.087868 1.200000 -12.687868
v -10.040192 1.200000 -12.750000
v -10.010222 1.200000 -12.822354
v -10.000000 1.200000 -12.900000
v -10.000000 0.000000 -16.500000
v -10.000000 1.200000 -16.500000
v 0.000000 0.000000 -16.500000
v 0.000000 1.200000 -16.500000
vt 0.000000 0.000000 0.000000
vt 7.500000 0.000000 0.000000
vt 0.000000 1.200000 0.000000
vt 7.500000 1.200000 0.000000
vt 15.000000 0.000000 0.000000
vt 15.000000 1.200000 0.000000
vt 0.000000 0.000000 0.000000
vt 9.333333 0.000000 0.000000
vt 0.000000 1.200000 0.000000
vt 9.333333 1.200000 0.000000
vt 18.666667 0.000000 0.000000
vt 18.666667 1.200000 0.000000
vt 28.000000 0.000000 0.000000
vt 28.000000 1.200000 0.000000
vt 0.000000 0.000000 0.000000
vt 7.500000 0.000000 0.000000
vt 0.000000 1.200000 0.000000
vt 7.500000 1.200000 0.000000
vt 15.000000 0.000000 0.000000
vt 15.000000 1.200000 0.000000
vt 0.000000 0.000000 0.000000
vt 9.333333 0.000000 0.000000
vt 0.000000 1.200000 0.000000
vt 9.333333 1.200000 0.000000
vt 18.666667 0.000000 0.000000
vt 18.666667 1.200000 0.000000
vt 28.000000 0.000000 0.000000
vt 28.000000 1.200000 0.000000
vt 0.000000 0.000000 0.000000
vt 3.600000 0.000000 0.000000
vt 0.000000 1.200000 0.000000
vt 3.600000 1.200000 0.000000
vt 1.200000 0.471239 0.000000
vt 0.000000 0.471239 0.000000
vt 1.200000 0.392699 0.000000
vt -0.000000 0.392699 0.000000
vt 1.200000 0.314159 0.000000
vt -0.000000 0.314159 0.000000
vt 1.200000 0.235619 0.000000
vt -0.000000 0.235619 0.000000
vt 1.200000 0.157080 0.000000
vt -0.000000 0.157080 0.000000
vt 1.200000 0.078540 0.000000
vt 0.000000 0.078540 0.000000
vt 1.200000 0.000000 0.000000
vt 0.000000 0.000000 0.000000
vt -0.000000 0.000000 0.000000
vt 1.400000 0.000000 0.000000
vt -0.000000 1.200000 0.000000
vt 1.400000 1.200000 0.000000
vt -1.200000 0.000000 0.000000
vt -0.000000 0.000000 0.000000
vt -1.200000 0.078540 0.000000
vt -0.000000 0.078540 0.000000
vt -1.200000 0.157080 0.000000
vt -0.000000 0.157080 0.000000
vt -1.200000 0.235619 0.000000
vt -0.000000 0.235619 0.000000
vt -1.200000 0.314159 0.000000
vt -0.000000 0.314159 0.000000
vt -1.200000 0.392699 0.000000
vt -0.000000 0.392699 0.000000
vt -1.200000 0.471239 0.000000
vt -0.000000 0.471239 0.000000
vt -0.000000 0.000000 0.000000
vt 0.600000 0.000000 0.000000
vt -0.000000 1.200000 0.000000
vt 0.600000 1.200000 0.000000
vt 0.000000 0.000000 0.000000
vt 1.609896 0.000000 0.000000
vt 0.000000 1.200000 0.000000
vt 1.609896 1.200000 0.000000
vt 1.200000 -1.884956 0.000000
vt 0.000000 -1.884956 0.000000
vt 1.200000 -2.042035 0.000000
vt -0.000000 -2.042035 0.000000
vt 1.200000 -2.199115 0.000000
vt 0.000000 -2.199115 0.000000
vt 1.200000 -2.356194 0.000000
vt 0.000000 -2.356194 0.000000
vt 1.200000 -2.513274 0.000000
vt 0.000000 -2.513274 0.000000
vt 1.200000 -2.670354 0.000000
vt -0.000000 -2.670354 0.000000
vt 1.200000 -2.827433 0.000000
vt 0.000000 -2.827433 0.000000
vt 1.200000 -2.984513 0.000000
vt -0.000000 -2.984513 0.000000
vt 1.200000 -3.141593 0.000000
vt 0.000000 -3.141593 0.000000
vt 1.200000 -3.298672 0.000000
vt 0.000000 -3.298672 0.000000
vt 1.200000 -3.455752 0.000000
vt 0.000000 -3.455752 0.000000
vt 1.200000 -3.612832 0.000000
vt -0.000000 -3.612832 0.000000
vt 1.200000 -3.769911 0.000000
vt 0.000000 -3.769911 0.000000
vt -0.000000 0.000000 0.000000
vt 1.609896 0.000000 0.000000
vt -0.000000 1.200000 0.000000
vt 1.609896 1.200000 0.000000
vt -0.000000 0.000000 0.000000
vt 0.600000 0.000000 0.000000
vt -0.000000 1.200000 0.000000
vt 0.600000 1.200000 0.000000
vt -1.200000 0.000000 0.000000
vt -0.000000 0.000000 0.000000
vt -1.200000 0.078540 0.000000
vt -0.000000 0.078540 0.000000
vt -1.200000 0.157080 0.000000
vt -0.000000 0.157080 0.000000
vt -1.200000 0.235619 0.000000
vt -0.000000 0.235619 0.000000
vt -1.200000 0.314159 0.000000
vt -0.000000 0.314159 0.000000
vt -1.200000 0.392699 0.000000
vt -0.000000 0.392699 0.000000
vt -1.200000 0.471239 0.000000
vt -0.000000 0.471239 0.000000
vt 0.000000 0.000000 0.000000
vt 1.400000 0.000000 0.000000
vt 0.000000 1.200000 0.000000
vt 1.400000 1.200000 0.000000
vt 1.200000 0.471239 0.000000
vt 0.000000 0.471239 0.000000
vt 1.200000 0.392699 0.000000
vt -0.000000 0.392699 0.000000
vt 1.200000 0.314159 0.000000
vt -0.000000 0.314159 0.000000
vt 1.200000 0.235619 0.000000
vt -0.000000 0.235619 0.000000
vt 1.200000 0.157080 0.000000
vt -0.000000 0.157080 0.000000
vt 1.200000 0.078540 0.000000
vt 0.000000 0.078540 0.000000
vt 1.200000 0.000000 0.000000
vt 0.000000 0.000000 0.000000
vt 0.000000 0.000000 0.000000
vt 9.300000 0.000000 0.000000
vt 0.000000 1.200000 0.000000
vt 9.300000 1.200000 0.000000
vt 18.600000 0.000000 0.000000
vt 18.600000 1.200000 0.000000
vt 1.200000 0.471239 0.000000
vt 0.000000 0.471239 0.000000
vt 1.200000 0.392699 0.000000
vt -0.000000 0.392699 0.000000
vt 1.200000 0.314159 0.000000
vt -0.000000 0.314159 0.000000
vt 1.200000 0.235619 0.000000
vt -0.000000 0.235619 0.000000
vt 1.200000 0.157080 0.000000
vt -0.000000 0.157080 0.000000
vt 1.200000 0.078540 0.000000
vt 0.000000 0.078540 0.000000
vt 1.200000 -0.000000 0.000000
vt 0.000000 0.000000 0.000000
vt 0.000000 0.000000 0.000000
vt 1.400000 0.000000 0.000000
vt 0.000000 1.200000 0.000000
vt 1.400000 1.200000 0.000000
vt -1.200000 0.000000 0.000000
vt -0.000000 0.000000 0.000000
vt -1.200000 0.078540 0.000000
vt -0.000000 0.078540 0.000000
vt -1.200000 0.157080 0.000000
vt -0.000000 0.157080 0.000000
vt -1.200000 0.235619 0.000000
vt -0.000000 0.235619 0.000000
vt -1.200000 0.314159 0.000000
vt -0.000000 0.314159 0.000000
vt -1.200000 0.392699 0.000000
vt -0.000000 0.392699 0.000000
vt -1.200000 0.471239 0.000000
vt -0.000000 0.471239 0.000000
vt 0.000000 0.000000 0.000000
vt 0.600000 0.000000 0.000000
vt 0.000000 1.200000 0.000000
vt 0.600000 1.200000 0.000000
vt 0.000000 0.000000 0.000000
vt 1.609896 0.000000 0.000000
vt 0.000000 1.200000 0.000000
vt 1.609896 1.200000 0.000000
vt 1.200000 -1.884956 0.000000
vt 0.000000 -1.884956 0.000000
vt 1.200000 -2.042035 0.000000
vt -0.000000 -2.042035 0.000000
vt 1.200000 -2.199115 0.000000
vt 0.000000 -2.199115 0.000000
vt 1.200000 -2.356194 0.000000
vt 0.000000 -2.356194 0.000000
vt 1.200000 -2.513274 0.000000
vt 0.000000 -2.513274 0.000000
vt 1.200000 -2.670354 0.000000
vt -0.000000 -2.670354 0.000000
vt 1.200000 -2.827433 0.000000
vt 0.000000 -2.827433 0.000000
vt 1.200000 -2.984513 0.000000
vt -0.000000 -2.984513 0.000000
vt 1.200000 -3.141593 0.000000
vt 0.000000 -3.141593 0.000000
vt 1.200000 -3.298672 0.000000
vt 0.000000 -3.298672 0.000000
vt 1.200000 -3.455752 0.000000
vt 0.000000 -3.455752 0.000000
vt 1.200000 -3.612832 0.000000
vt -0.000000 -3.612832 0.000000
vt 1.200000 -3.769911 0.000000
vt 0.000000 -3.769911 0.000000
vt 0.000000 0.000000 0.000000
vt 1.609896 0.000000 0.000000
vt 0.000000 1.200000 0.000000
vt 1.609896 1.200000 0.000000
vt 0.000000 0.000000 0.000000
vt 0.600000 0.000000 0.000000
vt 0.000000 1.200000 0.000000
vt 0.600000 1.200000 0.000000
vt -1.200000 -0.000000 0.000000
vt -0.000000 0.000000 0.000000
vt -1.200000 0.078540 0.000000
vt -0.000000 0.078540 0.000000
vt -1.200000 0.157080 0.000000
vt -0.000000 0.157080 0.000000
vt -1.200000 0.235619 0.000000
vt -0.000000 0.235619 0.000000
vt -1.200000 0.314159 0.000000
vt -0.000000 0.314159 0.000000
vt -1.200000 0.392699 0.000000
vt -0.000000 0.392699 0.000000
vt -1.200000 0.471239 0.000000
vt -0.000000 0.471239 0.000000
vt 0.000000 0.000000 0.000000
vt 1.400000 0.000000 0.000000
vt 0.000000 1.200000 0.000000
vt 1.400000 1.200000 0.000000
vt 1.200000 0.471239 0.000000
vt 0.000000 0.471239 0.000000
vt 1.200000 0.392699 0.000000
vt -0.000000 0.392699 0.000000
vt 1.200000 0.314159 0.000000
vt -0.000000 0.314159 0.000000
vt 1.200000 0.235619 0.000000
vt -0.000000 0.235619 0.000000
vt 1.200000 0.157080 0.000000
vt -0.000000 0.157080 0.000000
vt 1.200000 0.078540 0.000000
vt 0.000000 0.078540 0.000000
vt 1.200000 0.000000 0.000000
vt 0.000000 0.000000 0.000000
vt 0.000000 0.000000 0.000000
vt 3.600000 0.000000 0.000000
vt 0.000000 1.200000 0.000000
vt 3.600000 1.200000 0.000000
vt 0.000000 0.000000 0.000000
vt 10.000000 0.000000 0.000000
vt 0.000000 1.200000 0.000000
vt 10.000000 1.200000 0.000000
vt 20.000000 0.000000 0.000000
vt 20.000000 1.200000 0.000000
vt 0.000000 0.000000 0.000000
vt 3.600000 0.000000 0.000000
vt -0.000000 1.200000 0.000000
vt 3.600000 1.200000 0.000000
vt 1.200000 0.471239 0.000000
vt 0.000000 0.471239 0.000000
vt 1.200000 0.392699 0.000000
vt -0.000000 0.392699 0.000000
vt 1.200000 0.314159 0.000000
vt -0.000000 0.314159 0.000000
vt 1.200000 0.235619 0.000000
vt -0.000000 0.235619 0.000000
vt 1.200000 0.157080 0.000000
vt -0.000000 0.157080 0.000000
vt 1.200000 0.078540 0.000000
vt 0.000000 0.078540 0.000000
vt 1.200000 0.000000 0.000000
vt 0.000000 0.000000 0.000000
vt 0.000000 0.000000 0.000000
vt 1.400000 0.000000 0.000000
vt 0.000000 1.200000 0.000000
vt 1.400000 1.200000 0.000000
vt -1.200000 -0.000000 0.000000
vt -0.000000 0.000000 0.000000
vt -1.200000 0.078540 0.000000
vt -0.000000 0.078540 0.000000
vt -1.200000 0.157080 0.000000
vt -0.000000 0.157080 0.000000
vt -1.200000 0.235619 0.000000
vt -0.000000 0.235619 0.000000
vt -1.200000 0.314159 0.000000
vt -0.000000 0.314159 0.000000
vt -1.200000 0.392699 0.000000
vt -0.000000 0.392699 0.000000
vt -1.200000 0.471239 0.000000
vt -0.000000 0.471239 0.000000
vt 0.000000 0.000000 0.000000
vt 0.600000 0.000000 0.000000
vt 0.000000 1.200000 0.000000
vt 0.600000 1.200000 0.000000
vt -0.000000 0.000000 0.000000
vt 1.609896 0.000000 0.000000
vt -0.000000 1.200000 0.000000
vt 1.609896 1.200000 0.000000
vt 1.200000 -1.884956 0.000000
vt 0.000000 -1.884956 0.000000
vt 1.200000 -2.042035 0.000000
vt -0.000000 -2.042035 0.000000
vt 1.200000 -2.199115 0.000000
vt 0.000000 -2.199115 0.000000
vt 1.200000 -2.356194 0.000000
vt 0.000000 -2.356194 0.000000
vt 1.200000 -2.513274 0.000000
vt 0.000000 -2.513274 0.000000
vt 1.200000 -2.670354 0.000000
vt -0.000000 -2.670354 0.000000
vt 1.200000 -2.827433 0.000000
vt 0.000000 -2.827433 0.000000
vt 1.200000 -2.984513 0.000000
vt -0.000000 -2.984513 0.000000
vt 1.200000 -3.141593 0.000000
vt 0.000000 -3.141593 0.000000
vt 1.200000 -3.298672 0.000000
vt 0.000000 -3.298672 0.000000
vt 1.200000 -3.455752 0.000000
vt 0.000000 -3.455752 0.000000
vt 1.200000 -3.612832 0.000000
vt -0.000000 -3.612832 0.000000
vt 1.200000 -3.769911 0.000000
vt 0.000000 -3.769911 0.000000
vt 0.000000 0.000000 0.000000
vt 1.609896 0.000000 0.000000
vt 0.000000 1.200000 0.000000
vt 1.609896 1.200000 0.000000
vt 0.000000 0.000000 0.000000
vt 0.600000 0.000000 0.000000
vt -0.000000 1.200000 0.000000
vt 0.600000 1.200000 0.000000
vt -1.200000 0.000000 0.000000
vt -0.000000 0.000000 0.000000
vt -1.200000 0.078540 0.000000
vt -0.000000 0.078540 0.000000
vt -1.200000 0.157080 0.000000
vt -0.000000 0.157080 0.000000
vt -1.200000 0.235619 0.000000
vt -0.000000 0.235619 0.000000
vt -1.200000 0.314159 0.000000
vt -0.000000 0.314159 0.000000
vt -1.200000 0.392699 0.000000
vt -0.000000 0.392699 0.000000
vt -1.200000 0.471239 0.000000
vt -0.000000 0.471239 0.000000
vt -0.000000 0.000000 0.000000
vt 1.400000 0.000000 0.000000
vt -0.000000 1.200000 0.000000
vt 1.400000 1.200000 0.000000
vt 1.200000 0.471239 0.000000
vt 0.000000 0.471239 0.000000
vt 1.200000 0.392699 0.000000
vt -0.000000 0.392699 0.000000
vt 1.200000 0.314159 0.000000
vt 0.000000 0.314159 0.000000
vt 1.200000 0.235619 0.000000
vt -0.000000 0.235619 0.000000
vt 1.200000 0.157080 0.000000
vt 0.000000 0.157080 0.000000
vt 1.200000 0.078540 0.000000
vt 0.000000 0.078540 0.000000
vt 1.200000 0.000000 0.000000
vt 0.000000 0.000000 0.000000
vt 0.000000 0.000000 0.000000
vt 9.300000 0.000000 0.000000
vt 0.000000 1.200000 0.000000
vt 9.300000 1.200000 0.000000
vt 18.600000 0.000000 0.000000
vt 18.600000 1.200000 0.000000
vt 1.200000 0.471239 0.000000
vt 0.000000 0.471239 0.000000
vt 1.200000 0.392699 0.000000
vt -0.000000 0.392699 0.000000
vt 1.200000 0.314159 0.000000
vt -0.000000 0.314159 0.000000
vt 1.200000 0.235619 0.000000
vt -0.000000 0.235619 0.000000
vt 1.200000 0.157080 0.000000
vt -0.000000 0.157080 0.000000
vt 1.200000 0.078540 0.000000
vt 0.000000 0.078540 0.000000
vt 1.200000 0.000000 0.000000
vt 0.000000 0.000000 0.000000
vt 0.000000 0.000000 0.000000
vt 1.400000 0.000000 0.000000
vt 0.000000 1.200000 0.000000
vt 1.400000 1.200000 0.000000
vt -1.200000 0.000000 0.000000
vt -0.000000 0.000000 0.000000
vt -1.200000 0.078540 0.000000
vt -0.000000 0.078540 0.000000
vt -1.200000 0.157080 0.000000
vt -0.000000 0.157080 0.000000
vt -1.200000 0.235619 0.000000
vt -0.000000 0.235619 0.000000
vt -1.200000 0.314159 0.000000
vt -0.000000 0.314159 0.000000
vt -1.200000 0.392699 0.000000
vt -0.000000 0.392699 0.000000
vt -1.200000 0.471239 0.000000
vt -0.000000 0.471239 0.000000
vt 0.000000 0.000000 0.000000
vt 0.600000 0.000000 0.000000
vt 0.000000 1.200000 0.000000
vt 0.600000 1.200000 0.000000
vt 0.000000 0.000000 0.000000
vt 1.609896 0.000000 0.000000
vt 0.000000 1.200000 0.000000
vt 1.609896 1.200000 0.000000
vt 1.200000 -1.884956 0.000000
vt -0.000000 -1.884956 0.000000
vt 1.200000 -2.042035 0.000000
vt -0.000000 -2.042035 0.000000
vt 1.200000 -2.199115 0.000000
vt -0.000000 -2.199115 0.000000
vt 1.200000 -2.356194 0.000000
vt 0.000000 -2.356194 0.000000
vt 1.200000 -2.513274 0.000000
vt -0.000000 -2.513274 0.000000
vt 1.200000 -2.670354 0.000000
vt -0.000000 -2.670354 0.000000
vt 1.200000 -2.827433 0.000000
vt 0.000000 -2.827433 0.000000
vt 1.200000 -2.984513 0.000000
vt -0.000000 -2.984513 0.000000
vt 1.200000 -3.141593 0.000000
vt -0.000000 -3.141593 0.000000
vt 1.200000 -3.298672 0.000000
vt 0.000000 -3.298672 0.000000
vt 1.200000 -3.455752 0.000000
vt -0.000000 -3.455752 0.000000
vt 1.200000 -3.612832 0.000000
vt -0.000000 -3.612832 0.000000
vt 1.200000 -3.769911 0.000000
vt 0.000000 -3.769911 0.000000
vt 0.000000 0.000000 0.000000
vt 1.609896 0.000000 0.000000
vt 0.000000 1.200000 0.000000
vt 1.609896 1.200000 0.000000
vt 0.000000 0.000000 0.000000
vt 0.600000 0.000000 0.000000
vt 0.000000 1.200000 0.000000
vt 0.600000 1.200000 0.000000
vt -1.200000 0.000000 0.000000
vt -0.000000 0.000000 0.000000
vt -1.200000 0.078540 0.000000
vt -0.000000 0.078540 0.000000
vt -1.200000 0.157080 0.000000
vt -0.000000 0.157080 0.000000
vt -1.200000 0.235619 0.000000
vt -0.000000 0.235619 0.000000
vt -1.200000 0.314159 0.000000
vt -0.000000 0.314159 0.000000
vt -1.200000 0.392699 0.000000
vt -0.000000 0.392699 0.000000
vt -1.200000 0.471239 0.000000
vt -0.000000 0.471239 0.000000
vt 0.000000 0.000000 0.000000
vt 1.400000 0.000000 0.000000
vt 0.000000 1.200000 0.000000
vt 1.400000 1.200000 0.000000
vt 1.200000 0.471239 0.000000
vt 0.000000 0.471239 0.000000
vt 1.200000 0.392699 0.000000
vt 0.000000 0.392699 0.000000
vt 1.200000 0.314159 0.000000
vt 0.000000 0.314159 0.000000
vt 1.200000 0.235619 0.000000
vt 0.000000 0.235619 0.000000
vt 1.200000 0.157080 0.000000
vt 0.000000 0.157080 0.000000
vt 1.200000 0.078540 0.000000
vt 0.000000 0.078540 0.000000
vt 1.200000 -0.000000 0.000000
vt 0.000000 0.000000 0.000000
vt 0.000000 0.000000 0.000000
vt 3.600000 0.000000 0.000000
vt 0.000000 1.200000 0.000000
vt 3.600000 1.200000 0.000000
vt 0.000000 0.000000 0.000000
vt 10.000000 0.000000 0.000000
vt 0.000000 1.200000 0.000000
vt 10.000000 1.200000 0.000000
vt 20.000000 0.000000 0.000000
vt 20.000000 1.200000 0.000000
vt 7.500000 4.666667 0.000000
vt 9.810549 10.944709 0.000000
vt 7.500000 14.000000 0.000000
vt 9.790104 11.100000 0.000000
vt 9.810549 11.255291 0.000000
vt 7.500000 -4.666667 0.000000
vt 10.000000 0.000000 0.000000
vt 10.000000 9.300000 0.000000
vt 10.010222 9.377646 0.000000
vt 9.870489 10.800000 0.000000
vt 10.040192 9.450000 0.000000
vt 9.965840 10.675736 0.000000
vt 10.087868 9.512132 0.000000
vt 10.090104 10.580385 0.000000
vt 10.150000 9.559808 0.000000
vt 10.234813 10.520445 0.000000
vt 10.222354 9.589778 0.000000
vt 10.300000 9.600000 0.000000
vt 7.500000 -14.000000 0.000000
vt 9.810549 -10.944709 0.000000
vt 10.000000 -9.300000 0.000000
vt 0.000000 -14.000000 0.000000
vt 0.000000 -16.500000 0.000000
vt 10.000000 -16.500000 0.000000
vt 10.000000 -12.900000 0.000000
vt -7.500000 -14.000000 0.000000
vt -10.000000 -16.500000 0.000000
vt -10.000000 -12.900000 0.000000
vt -10.010222 -12.822354 0.000000
vt -9.870489 -11.400000 0.000000
vt -10.040192 -12.750000 0.000000
vt -9.965840 -11.524264 0.000000
vt -10.087868 -12.687868 0.000000
vt -10.090104 -11.619615 0.000000
vt -10.150000 -12.640192 0.000000
vt -10.234813 -11.679555 0.000000
vt -10.222354 -12.610222 0.000000
vt -10.300000 -12.600000 0.000000
vt -10.390104 -11.700000 0.000000
vt -11.700000 -12.600000 0.000000
vt -12.000000 -11.700000 0.000000
vt -12.000000 -12.300000 0.000000
vt -7.500000 -4.666667 0.000000
vt -9.810549 -10.944709 0.000000
vt -9.790104 -11.100000 0.000000
vt -9.810549 -11.255291 0.000000
vt -7.500000 4.666667 0.000000
vt -10.000000 0.000000 0.000000
vt -10.000000 -9.300000 0.000000
vt -10.010222 -9.377646 0.000000
vt -9.870489 -10.800000 0.000000
vt -10.040192 -9.450000 0.000000
vt -9.965840 -10.675736 0.000000
vt -10.087868 -9.512132 0.000000
vt -10.090104 -10.580385 0.000000
vt -10.150000 -9.559808 0.000000
vt -10.234813 -10.520445 0.000000
vt -10.222354 -9.589778 0.000000
vt -10.300000 -9.600000 0.000000
vt -7.500000 14.000000 0.000000
vt -9.810549 10.944709 0.000000
vt -10.000000 9.300000 0.000000
vt 0.000000 14.000000 0.000000
vt 0.000000 16.500000 0.000000
vt -10.000000 16.500000 0.000000
vt -10.000000 12.900000 0.000000
vt 10.000000 16.500000 0.000000
vt 10.000000 12.900000 0.000000
vt 10.010222 12.822354 0.000000
vt 9.870489 11.400000 0.000000
vt 10.040192 12.750000 0.000000
vt 9.965840 11.524264 0.000000
vt 10.087868 12.687868 0.000000
vt 10.090104 11.619615 0.000000
vt 10.150000 12.640192 0.000000
vt 10.234813 11.679555 0.000000
vt 10.222354 12.610222 0.000000
vt 10.300000 12.600000 0.000000
vt 10.390104 11.700000 0.000000
vt 11.700000 12.600000 0.000000
vt 12.000000 11.700000 0.000000
vt 12.000000 12.300000 0.000000
vt -10.010222 12.822354 0.000000
vt -9.870489 11.400000 0.000000
vt -9.810549 11.255291 0.000000
vt -10.040192 12.750000 0.000000
vt -9.965840 11.524264 0.000000
vt -10.087868 12.687868 0.000000
vt -10.090104 11.619615 0.000000
vt -10.150000 12.640192 0.000000
vt -10.234813 11.679555 0.000000
vt -10.222354 12.610222 0.000000
vt -10.300000 12.600000 0.000000
vt -10.390104 11.700000 0.000000
vt -11.700000 12.600000 0.000000
vt -12.000000 11.700000 0.000000
vt -12.000000 12.300000 0.000000
vt -11.777646 12.589778 0.000000
vt -11.850000 12.559808 0.000000
vt -11.912132 12.512132 0.000000
vt -11.959808 12.450000 0.000000
vt -11.989778 12.377646 0.000000
vt -9.790104 11.100000 0.000000
vt -10.010222 9.377646 0.000000
vt -9.870489 10.800000 0.000000
vt -10.040192 9.450000 0.000000
vt -9.965840 10.675736 0.000000
vt -10.087868 9.512132 0.000000
vt -10.090104 10.580385 0.000000
vt -10.150000 9.559808 0.000000
vt -10.234813 10.520445 0.000000
vt -10.222354 9.589778 0.000000
vt -10.300000 9.600000 0.000000
vt -10.390104 10.500000 0.000000
vt -11.700000 9.600000 0.000000
vt -12.000000 10.500000 0.000000
vt -12.000000 9.900000 0.000000
vt -11.989778 9.822354 0.000000
vt -11.959808 9.750000 0.000000
vt -11.912132 9.687868 0.000000
vt -11.850000 9.640192 0.000000
vt -11.777646 9.610222 0.000000
vt -10.390104 -10.500000 0.000000
vt -11.700000 -9.600000 0.000000
vt -12.000000 -10.500000 0.000000
vt -12.000000 -9.900000 0.000000
vt -11.777646 -9.610222 0.000000
vt -11.850000 -9.640192 0.000000
vt -11.912132 -9.687868 0.000000
vt -11.959808 -9.750000 0.000000
vt -11.989778 -9.822354 0.000000
vt -11.989778 -12.377646 0.000000
vt -11.959808 -12.450000 0.000000
vt -11.912132 -12.512132 0.000000
vt -11.850000 -12.559808 0.000000
vt -11.777646 -12.589778 0.000000
vt 10.010222 -12.822354 0.000000
vt 9.870489 -11.400000 0.000000
vt 9.810549 -11.255291 0.000000
vt 10.040192 -12.750000 0.000000
vt 9.965840 -11.524264 0.000000
vt 10.087868 -12.687868 0.000000
vt 10.090104 -11.619615 0.000000
vt 10.150000 -12.640192 0.000000
vt 10.234813 -11.679555 0.000000
vt 10.222354 -12.610222 0.000000
vt 10.300000 -12.600000 0.000000
vt 10.390104 -11.700000 0.000000
vt 11.700000 -12.600000 0.000000
vt 12.000000 -11.700000 0.000000
vt 12.000000 -12.300000 0.000000
vt 11.777646 -12.589778 0.000000
vt 11.850000 -12.559808 0.000000
vt 11.912132 -12.512132 0.000000
vt 11.959808 -12.450000 0.000000
vt 11.989778 -12.377646 0.000000
vt 9.790104 -11.100000 0.000000
vt 10.010222 -9.377646 0.000000
vt 9.870489 -10.800000 0.000000
vt 10.040192 -9.450000 0.000000
vt 9.965840 -10.675736 0.000000
vt 10.087868 -9.512132 0.000000
vt 10.090104 -10.580385 0.000000
vt 10.150000 -9.559808 0.000000
vt 10.234813 -10.520445 0.000000
vt 10.222354 -9.589778 0.000000
vt 10.300000 -9.600000 0.000000
vt 10.390104 -10.500000 0.000000
vt 11.700000 -9.600000 0.000000
vt 12.000000 -10.500000 0.000000
vt 12.000000 -9.900000 0.000000
vt 11.989778 -9.822354 0.000000
vt 11.959808 -9.750000 0.000000
vt 11.912132 -9.687868 0.000000
vt 11.850000 -9.640192 0.000000
vt 11.777646 -9.610222 0.000000
vt 10.390104 10.500000 0.000000
vt 11.700000 9.600000 0.000000
vt 12.000000 10.500000 0.000000
vt 12.000000 9.900000 0.000000
vt 11.777646 9.610222 0.000000
vt 11.850000 9.640192 0.000000
vt 11.912132 9.687868 0.000000
vt 11.959808 9.750000 0.000000
vt 11.989778 9.822354 0.000000
vt 11.989778 12.377646 0.000000
vt 11.959808 12.450000 0.000000
vt 11.912132 12.512132 0.000000
vt 11.850000 12.559808 0.000000
vt 11.777646 12.589778 0.000000
vt -7.500000 -4.666667 0.000000
vt -9.810549 -10.944709 0.000000
vt -7.500000 -14.000000 0.000000
vt -9.790104 -11.100000 0.000000
vt -9.810549 -11.255291 0.000000
vt -7.500000 4.666667 0.000000
vt -10.000000 0.000000 0.000000
vt -10.000000 -9.300000 0.000000
vt -10.010222 -9.377646 0.000000
vt -9.870489 -10.800000 0.000000
vt -10.040192 -9.450000 0.000000
vt -9.965840 -10.675736 0.000000
vt -10.087868 -9.512132 0.000000
vt -10.090104 -10.580385 0.000000
vt -10.150000 -9.559808 0.000000
vt -10.234813 -10.520445 0.000000
vt -10.222354 -9.589778 0.000000
vt -10.300000 -9.600000 0.000000
vt -7.500000 14.000000 0.000000
vt -9.810549 10.944709 0.000000
vt -10.000000 9.300000 0.000000
vt -0.000000 14.000000 0.000000
vt -0.000000 16.500000 0.000000
vt -10.000000 16.500000 0.000000
vt -10.000000 12.900000 0.000000
vt 7.500000 14.000000 0.000000
vt 10.000000 16.500000 0.000000
vt 10.000000 12.900000 0.000000
vt 10.010222 12.822354 0.000000
vt 9.870489 11.400000 0.000000
vt 10.040192 12.750000 0.000000
vt 9.965840 11.524264 0.000000
vt 10.087868 12.687868 0.000000
vt 10.090104 11.619615 0.000000
vt 10.150000 12.640192 0.000000
vt 10.234813 11.679555 0.000000
vt 10.222354 12.610222 0.000000
vt 10.300000 12.600000 0.000000
vt 10.390104 11.700000 0.000000
vt 11.700000 12.600000 0.000000
vt 12.000000 11.700000 0.000000
vt 12.000000 12.300000 0.000000
vt 7.500000 4.666667 0.000000
vt 9.810549 10.944709 0.000000
vt 9.790104 11.100000 0.000000
vt 9.810549 11.255291 0.000000
vt 7.500000 -4.666667 0.000000
vt 10.000000 0.000000 0.000000
vt 10.000000 9.300000 0.000000
vt 10.010222 9.377646 0.000000
vt 9.870489 10.800000 0.000000
vt 10.040192 9.450000 0.000000
vt 9.965840 10.675736 0.000000
vt 10.087868 9.512132 0.000000
vt 10.090104 10.580385 0.000000
vt 10.150000 9.559808 0.000000
vt 10.234813 10.520445 0.000000
vt 10.222354 9.589778 0.000000
vt 10.300000 9.600000 0.000000
vt 7.500000 -14.000000 0.000000
vt 9.810549 -10.944709 0.000000
vt 10.000000 -9.300000 0.000000
vt -0.000000 -14.000000 0.000000
vt -0.000000 -16.500000 0.000000
vt 10.000000 -16.500000 0.000000
vt 10.000000 -12.900000 0.000000
vt -10.000000 -16.500000 0.000000
vt -10.000000 -12.900000 0.000000
vt -10.010222 -12.822354 0.000000
vt -9.870489 -11.400000 0.000000
vt -10.040192 -12.750000 0.000000
vt -9.965840 -11.524264 0.000000
vt -10.087868 -12.687868 0.000000
vt -10.090104 -11.619615 0.000000
vt -10.150000 -12.640192 0.000000
vt -10.234813 -11.679555 0.000000
vt -10.222354 -12.610222 0.000000
vt -10.300000 -12.600000 0.000000
vt -10.390104 -11.700000 0.000000
vt -11.700000 -12.600000 0.000000
vt -12.000000 -11.700000 0.000000
vt -12.000000 -12.300000 0.000000
vt -10.010222 12.822354 0.000000
vt -9.870489 11.400000 0.000000
vt -9.810549 11.255291 0.000000
vt -10.040192 12.750000 0.000000
vt -9.965840 11.524264 0.000000
vt -10.087868 12.687868 0.000000
vt -10.090104 11.619615 0.000000
vt -10.150000 12.640192 0.000000
vt -10.234813 11.679555 0.000000
vt -10.222354 12.610222 0.000000
vt -10.300000 12.600000 0.000000
vt -10.390104 11.700000 0.000000
vt -11.700000 12.600000 0.000000
vt -12.000000 11.700000 0.000000
vt -12.000000 12.300000 0.000000
vt -11.777646 12.589778 0.000000
vt -11.850000 12.559808 0.000000
vt -11.912132 12.512132 0.000000
vt -11.959808 12.450000 0.000000
vt -11.989778 12.377646 0.000000
vt -9.790104 11.100000 0.000000
vt -10.010222 9.377646 0.000000
vt -9.870489 10.800000 0.000000
vt -10.040192 9.450000 0.000000
vt -9.965840 10.675736 0.000000
vt -10.087868 9.512132 0.000000
vt -10.090104 10.580385 0.000000
vt -10.150000 9.559808 0.000000
vt -10.234813 10.520445 0.000000
vt -10.222354 9.589778 0.000000
vt -10.300000 9.600000 0.000000
vt -10.390104 10.500000 0.000000
vt -11.700000 9.600000 0.000000
vt -12.000000 10.500000 0.000000
vt -12.000000 9.900000 0.000000
vt -11.989778 9.822354 0.000000
vt -11.959808 9.750000 0.000000
vt -11.912132 9.687868 0.000000
vt -11.850000 9.640192 0.000000
vt -11.777646 9.610222 0.000000
vt -10.390104 -10.500000 0.000000
vt -11.700000 -9.600000 0.000000
vt -12.000000 -10.500000 0.000000
vt -12.000000 -9.900000 0.000000
vt -11.777646 -9.610222 0.000000
vt -11.850000 -9.640192 0.000000
vt -11.912132 -9.687868 0.000000
vt -11.959808 -9.750000 0.000000
vt -11.989778 -9.822354 0.000000
vt -11.989778 -12.377646 0.000000
vt -11.959808 -12.450000 0.000000
vt -11.912132 -12.512132 0.000000
vt -11.850000 -12.559808 0.000000
vt -11.777646 -12.589778 0.000000
vt 10.010222 -12.822354 0.000000
vt 9.870489 -11.400000 0.000000
vt 9.810549 -11.255291 0.000000
vt 10.040192 -12.750000 0.000000
vt 9.965840 -11.524264 0.000000
vt 10.087868 -12.687868 0.000000
vt 10.090104 -11.619615 0.000000
vt 10.150000 -12.640192 0.000000
vt 10.234813 -11.679555 0.000000
vt 10.222354 -12.610222 0.000000
vt 10.300000 -12.600000 0.000000
vt 10.390104 -11.700000 0.000000
vt 11.700000 -12.600000 0.000000
vt 12.000000 -11.700000 0.000000
vt 12.000000 -12.300000 0.000000
vt 11.777646 -12.589778 0.000000
vt 11.850000 -12.559808 0.000000
vt 11.912132 -12.512132 0.000000
vt 11.959808 -12.450000 0.000000
vt 11.989778 -12.377646 0.000000
vt 9.790104 -11.100000 0.000000
vt 10.010222 -9.377646 0.000000
vt 9.870489 -10.800000 0.000000
vt 10.040192 -9.450000 0.000000
vt 9.965840 -10.675736 0.000000
vt 10.087868 -9.512132 0.000000
vt 10.090104 -10.580385 0.000000
vt 10.150000 -9.559808 0.000000
vt 10.234813 -10.520445 0.000000
vt 10.222354 -9.589778 0.000000
vt 10.300000 -9.600000 0.000000
vt 10.390104 -10.500000 0.000000
vt 11.700000 -9.600000 0.000000
vt 12.000000 -10.500000 0.000000
vt 12.000000 -9.900000 0.000000
vt 11.989778 -9.822354 0.000000
vt 11.959808 -9.750000 0.000000
vt 11.912132 -9.687868 0.000000
vt 11.850000 -9.640192 0.000000
vt 11.777646 -9.610222 0.000000
vt 10.390104 10.500000 0.000000
vt 11.700000 9.600000 0.000000
vt 12.000000 10.500000 0.000000
vt 12.000000 9.900000 0.000000
vt 11.777646 9.610222 0.000000
vt 11.850000 9.640192 0.000000
vt 11.912132 9.687868 0.000000
vt 11.959808 9.750000 0.000000
vt 11.989778 9.822354 0.000000
vt 11.989778 12.377646 0.000000
vt 11.959808 12.450000 0.000000
vt 11.912132 12.512132 0.000000
vt 11.850000 12.559808 0.000000
vt 11.777646 12.589778 0.000000
vn 0.000000 0.000000 1.000000
vn 0.000000 0.000000 1.000000
vn 0.000000 0.000000 1.000000
vn 0.000000 0.000000 1.000000
vn 0.000000 0.000000 1.000000
vn 0.000000 0.000000 1.000000
vn 1.000000 -0.000000 0.000000
vn 1.000000 -0.000000 0.000000
vn 1.000000 -0.000000 0.000000
vn 1.000000 -0.000000 0.000000
vn 1.000000 -0.000000 0.000000
vn 1.000000 -0.000000 0.000000
vn 1.000000 -0.000000 0.000000
vn 1.000000 -0.000000 0.000000
vn -0.000000 0.000000 -1.000000
vn -0.000000 0.000000 -1.000000
vn -0.000000 0.000000 -1.000000
vn -0.000000 0.000000 -1.000000
vn -0.000000 0.000000 -1.000000
vn -0.000000 0.000000 -1.000000
vn -1.000000 0.000000 0.000000
vn -1.000000 0.000000 0.000000
vn -1.000000 0.000000 0.000000
vn -1.000000 0.000000 0.000000
vn -1.000000 0.000000 0.000000
vn -1.000000 0.000000 0.000000
vn -1.000000 0.000000 0.000000
vn -1.000000 0.000000 0.000000
vn 1.000000 0.000000 -0.000000
vn 1.000000 0.000000 -0.000000
vn 1.000000 0.000000 -0.000000
vn 1.000000 0.000000 -0.000000
vn 0.000000 0.000000 -1.000000
vn 0.000000 0.000000 -1.000000
vn 0.258819 0.000000 -0.965926
vn 0.258819 0.000000 -0.965926
vn 0.500000 0.000000 -0.866025
vn 0.500000 0.000000 -0.866025
vn 0.707107 0.000000 -0.707107
vn 0.707107 0.000000 -0.707107
vn 0.866025 0.000000 -0.500000
vn 0.866025 0.000000 -0.500000
vn 0.965926 0.000000 -0.258819
vn 0.965926 0.000000 -0.258819
vn 0.000000 0.000000 -1.000000
vn 0.000000 0.000000 -1.000000
vn 1.000000 -0.000000 -0.000000
vn 1.000000 -0.000000 -0.000000
vn 0.965926 -0.000000 -0.258819
vn 0.965926 -0.000000 -0.258819
vn 0.866025 -0.000000 -0.500000
vn 0.866025 -0.000000 -0.500000
vn 0.707107 -0.000000 -0.707107
vn 0.707107 -0.000000 -0.707107
vn 0.500000 -0.000000 -0.866025
vn 0.500000 -0.000000 -0.866025
vn 0.258819 -0.000000 -0.965926
vn 0.258819 -0.000000 -0.965926
vn 1.000000 0.000000 0.000000
vn 1.000000 0.000000 0.000000
vn 0.000000 -0.000000 1.000000
vn 0.000000 -0.000000 1.000000
vn 0.000000 -0.000000 1.000000
vn 0.000000 -0.000000 1.000000
vn -0.000000 0.000000 -1.000000
vn -0.000000 0.000000 -1.000000
vn 0.258819 0.000000 -0.965926
vn 0.258819 0.000000 -0.965926
vn 0.500000 0.000000 -0.866025
vn 0.500000 0.000000 -0.866025
vn 0.707107 0.000000 -0.707107
vn 0.707107 0.000000 -0.707107
vn 0.866025 0.000000 -0.500000
vn 0.866025 0.000000 -0.500000
vn 0.965926 0.000000 -0.258819
vn 0.965926 0.000000 -0.258819
vn 1.000000 0.000000 -0.000000
vn 1.000000 0.000000 -0.000000
vn 0.965926 -0.000000 0.258819
vn 0.965926 -0.000000 0.258819
vn 0.866025 -0.000000 0.500000
vn 0.866025 -0.000000 0.500000
vn 0.707107 -0.000000 0.707107
vn 0.707107 -0.000000 0.707107
vn 0.500000 -0.000000 0.866025
vn 0.500000 -0.000000 0.866025
vn 0.258819 -0.000000 0.965926
vn 0.258819 -0.000000 0.965926
vn 0.000000 0.000000 -1.000000
vn 0.000000 0.000000 -1.000000
vn 1.000000 0.000000 0.000000
vn 1.000000 0.000000 0.000000
vn 1.000000 0.000000 0.000000
vn 1.000000 0.000000 0.000000
vn 0.000000 -0.000000 1.000000
vn 0.000000 -0.000000 1.000000
vn 0.258819 -0.000000 0.965926
vn 0.258819 -0.000000 0.965926
vn 0.500000 -0.000000 0.866025
vn 0.500000 -0.000000 0.866025
vn 0.707107 -0.000000 0.707107
vn 0.707107 -0.000000 0.707107
vn 0.866025 -0.000000 0.500000
vn 0.866025 -0.000000 0.500000
vn 0.965926 -0.000000 0.258819
vn 0.965926 -0.000000 0.258819
vn 0.000000 -0.000000 1.000000
vn 0.000000 -0.000000 1.000000
vn 1.000000 -0.000000 0.000000
vn 1.000000 -0.000000 0.000000
vn 0.965926 -0.000000 0.258819
vn 0.965926 -0.000000 0.258819
vn 0.866025 -0.000000 0.500000
vn 0.866025 -0.000000 0.500000
vn 0.707107 -0.000000 0.707107
vn 0.707107 -0.000000 0.707107
vn 0.500000 -0.000000 0.866025
vn 0.500000 -0.000000 0.866025
vn 0.258819 -0.000000 0.965926
vn 0.258819 -0.000000 0.965926
vn 1.000000 -0.000000 0.000000
vn 1.000000 -0.000000 0.000000
vn 1.000000 -0.000000 0.000000
vn 1.000000 -0.000000 0.000000
vn 0.000000 0.000000 -1.000000
vn 0.000000 0.000000 -1.000000
vn 0.258819 0.000000 -0.965926
vn 0.258819 0.000000 -0.965926
vn 0.500000 0.000000 -0.866025
vn 0.500000 0.000000 -0.866025
vn 0.707107 0.000000 -0.707107
vn 0.707107 0.000000 -0.707107
vn 0.866025 0.000000 -0.500000
vn 0.866025 0.000000 -0.500000
vn 0.965926 0.000000 -0.258819
vn 0.965926 0.000000 -0.258819
vn 0.000000 0.000000 -1.000000
vn 0.000000 0.000000 -1.000000
vn 1.000000 -0.000000 -0.000000
vn 1.000000 -0.000000 -0.000000
vn 0.965926 -0.000000 -0.258819
vn 0.965926 -0.000000 -0.258819
vn 0.866025 -0.000000 -0.500000
vn 0.866025 -0.000000 -0.500000
vn 0.707107 -0.000000 -0.707107
vn 0.707107 -0.000000 -0.707107
vn 0.500000 -0.000000 -0.866025
vn 0.500000 -0.000000 -0.866025
vn 0.258819 -0.000000 -0.965926
vn 0.258819 -0.000000 -0.965926
vn 1.000000 -0.000000 0.000000
vn 1.000000 -0.000000 0.000000
vn 0.000000 0.000000 1.000000
vn 0.000000 0.000000 1.000000
vn 0.000000 0.000000 1.000000
vn 0.000000 0.000000 1.000000
vn -0.000000 0.000000 -1.000000
vn -0.000000 0.000000 -1.000000
vn 0.258819 0.000000 -0.965926
vn 0.258819 0.000000 -0.965926
vn 0.500000 0.000000 -0.866025
vn 0.500000 0.000000 -0.866025
vn 0.707107 0.000000 -0.707107
vn 0.707107 0.000000 -0.707107
vn 0.866025 0.000000 -0.500000
vn 0.866025 0.000000 -0.500000
vn 0.965926 0.000000 -0.258819
vn 0.965926 0.000000 -0.258819
vn 1.000000 0.000000 -0.000000
vn 1.000000 0.000000 -0.000000
vn 0.965926 -0.000000 0.258819
vn 0.965926 -0.000000 0.258819
vn 0.866025 -0.000000 0.500000
vn 0.866025 -0.000000 0.500000
vn 0.707107 -0.000000 0.707107
vn 0.707107 -0.000000 0.707107
vn 0.500000 -0.000000 0.866025
vn 0.500000 -0.000000 0.866025
vn 0.258819 -0.000000 0.965926
vn 0.258819 -0.000000 0.965926
vn 0.000000 0.000000 -1.000000
vn 0.000000 0.000000 -1.000000
vn 1.000000 -0.000000 0.000000
vn 1.000000 -0.000000 0.000000
vn 1.000000 -0.000000 0.000000
vn 1.000000 -0.000000 0.000000
vn 0.000000 -0.000000 1.000000
vn 0.000000 -0.000000 1.000000
vn 0.258819 -0.000000 0.965926
vn 0.258819 -0.000000 0.965926
vn 0.500000 -0.000000 0.866025
vn 0.500000 -0.000000 0.866025
vn 0.707107 -0.000000 0.707107
vn 0.707107 -0.000000 0.707107
vn 0.866025 -0.000000 0.500000
vn 0.866025 -0.000000 0.500000
vn 0.965926 -0.000000 0.258819
vn 0.965926 -0.000000 0.258819
vn 0.000000 0.000000 1.000000
vn 0.000000 0.000000 1.000000
vn 1.000000 -0.000000 0.000000
vn 1.000000 -0.000000 0.000000
vn 0.965926 -0.000000 0.258819
vn 0.965926 -0.000000 0.258819
vn 0.866025 -0.000000 0.500000
vn 0.866025 -0.000000 0.500000
vn 0.707107 -0.000000 0.707107
vn 0.707107 -0.000000 0.707107
vn 0.500000 -0.000000 0.866025
vn 0.500000 -0.000000 0.866025
vn 0.258819 -0.000000 0.965926
vn 0.258819 -0.000000 0.965926
vn 1.000000 -0.000000 0.000000
vn 1.000000 -0.000000 0.000000
vn 0.000000 0.000000 1.000000
vn 0.000000 0.000000 1.000000
vn 0.000000 0.000000 1.000000
vn 0.000000 0.000000 1.000000
vn 0.000000 0.000000 1.000000
vn 0.000000 0.000000 1.000000
vn -1.000000 0.000000 0.000000
vn -1.000000 0.000000 0.000000
vn -1.000000 0.000000 0.000000
vn -1.000000 0.000000 0.000000
vn -0.000000 0.000000 1.000000
vn -0.000000 0.000000 1.000000
vn -0.258819 0.000000 0.965926
vn -0.258819 0.000000 0.965926
vn -0.500000 0.000000 0.866025
vn -0.500000 0.000000 0.866025
vn -0.707107 0.000000 0.707107
vn -0.707107 0.000000 0.707107
vn -0.866025 0.000000 0.500000
vn -0.866025 0.000000 0.500000
vn -0.965926 0.000000 0.258819
vn -0.965926 0.000000 0.258819
vn 0.000000 -0.000000 1.000000
vn 0.000000 -0.000000 1.000000
vn -1.000000 -0.000000 0.000000
vn -1.000000 -0.000000 0.000000
vn -0.965926 -0.000000 0.258819
vn -0.965926 -0.000000 0.258819
vn -0.866025 -0.000000 0.500000
vn -0.866025 -0.000000 0.500000
vn -0.707107 -0.000000 0.707107
vn -0.707107 -0.000000 0.707107
vn -0.500000 -0.000000 0.866025
vn -0.500000 -0.000000 0.866025
vn -0.258819 -0.000000 0.965926
vn -0.258819 -0.000000 0.965926
vn -1.000000 0.000000 0.000000
vn -1.000000 0.000000 0.000000
vn 0.000000 0.000000 -1.000000
vn 0.000000 0.000000 -1.000000
vn 0.000000 0.000000 -1.000000
vn 0.000000 0.000000 -1.000000
vn 0.000000 -0.000000 1.000000
vn 0.000000 -0.000000 1.000000
vn -0.258819 0.000000 0.965926
vn -0.258819 0.000000 0.965926
vn -0.500000 0.000000 0.866025
vn -0.500000 0.000000 0.866025
vn -0.707107 0.000000 0.707107
vn -0.707107 0.000000 0.707107
vn -0.866025 0.000000 0.500000
vn -0.866025 0.000000 0.500000
vn -0.965926 0.000000 0.258819
vn -0.965926 0.000000 0.258819
vn -1.000000 0.000000 0.000000
vn -1.000000 0.000000 0.000000
vn -0.965926 0.000000 -0.258819
vn -0.965926 0.000000 -0.258819
vn -0.866025 0.000000 -0.500000
vn -0.866025 0.000000 -0.500000
vn -0.707107 0.000000 -0.707107
vn -0.707107 0.000000 -0.707107
vn -0.500000 0.000000 -0.866025
vn -0.500000 0.000000 -0.866025
vn -0.258819 0.000000 -0.965926
vn -0.258819 0.000000 -0.965926
vn 0.000000 -0.000000 1.000000
vn 0.000000 -0.000000 1.000000
vn -1.000000 0.000000 0.000000
vn -1.000000 0.000000 0.000000
vn -1.000000 0.000000 0.000000
vn -1.000000 0.000000 0.000000
vn -0.000000 0.000000 -1.000000
vn -0.000000 0.000000 -1.000000
vn -0.258819 0.000000 -0.965926
vn -0.258819 0.000000 -0.965926
vn -0.500000 0.000000 -0.866025
vn -0.500000 0.000000 -0.866025
vn -0.707107 0.000000 -0.707107
vn -0.707107 0.000000 -0.707107
vn -0.866025 0.000000 -0.500000
vn -0.866025 0.000000 -0.500000
vn -0.965926 0.000000 -0.258819
vn -0.965926 0.000000 -0.258819
vn 0.000000 0.000000 -1.000000
vn 0.000000 0.000000 -1.000000
vn -1.000000 0.000000 0.000000
vn -1.000000 0.000000 0.000000
vn -0.965926 0.000000 -0.258819
vn -0.965926 0.000000 -0.258819
vn -0.866025 0.000000 -0.500000
vn -0.866025 0.000000 -0.500000
vn -0.707107 0.000000 -0.707107
vn -0.707107 0.000000 -0.707107
vn -0.500000 0.000000 -0.866025
vn -0.500000 0.000000 -0.866025
vn -0.258819 0.000000 -0.965926
vn -0.258819 0.000000 -0.965926
vn -1.000000 0.000000 0.000000
vn -1.000000 0.000000 0.000000
vn -1.000000 0.000000 0.000000
vn -1.000000 0.000000 0.000000
vn -0.000000 0.000000 1.000000
vn -0.000000 0.000000 1.000000
vn -0.258819 0.000000 0.965926
vn -0.258819 0.000000 0.965926
vn -0.500000 0.000000 0.866025
vn -0.500000 0.000000 0.866025
vn -0.707107 0.000000 0.707107
vn -0.707107 0.000000 0.707107
vn -0.866025 0.000000 0.500000
vn -0.866025 0.000000 0.500000
vn -0.965926 0.000000 0.258819
vn -0.965926 0.000000 0.258819
vn 0.000000 0.000000 1.000000
vn 0.000000 0.000000 1.000000
vn -1.000000 -0.000000 0.000000
vn -1.000000 -0.000000 0.000000
vn -0.965926 -0.000000 0.258819
vn -0.965926 -0.000000 0.258819
vn -0.866025 -0.000000 0.500000
vn -0.866025 -0.000000 0.500000
vn -0.707107 -0.000000 0.707107
vn -0.707107 -0.000000 0.707107
vn -0.500000 -0.000000 0.866025
vn -0.500000 -0.000000 0.866025
vn -0.258819 -0.000000 0.965926
vn -0.258819 -0.000000 0.965926
vn -1.000000 0.000000 0.000000
vn -1.000000 0.000000 0.000000
vn 0.000000 0.000000 -1.000000
vn 0.000000 0.000000 -1.000000
vn 0.000000 0.000000 -1.000000
vn 0.000000 0.000000 -1.000000
vn 0.000000 -0.000000 1.000000
vn 0.000000 -0.000000 1.000000
vn -0.258819 0.000000 0.965926
vn -0.258819 0.000000 0.965926
vn -0.500000 0.000000 0.866025
vn -0.500000 0.000000 0.866025
vn -0.707107 0.000000 0.707107
vn -0.707107 0.000000 0.707107
vn -0.866025 0.000000 0.500000
vn -0.866025 0.000000 0.500000
vn -0.965926 0.000000 0.258819
vn -0.965926 0.000000 0.258819
vn -1.000000 0.000000 0.000000
vn -1.000000 0.000000 0.000000
vn -0.965926 0.000000 -0.258819
vn -0.965926 0.000000 -0.258819
vn -0.866025 0.000000 -0.500000
vn -0.866025 0.000000 -0.500000
vn -0.707107 0.000000 -0.707107
vn -0.707107 0.000000 -0.707107
vn -0.500000 0.000000 -0.866025
vn -0.500000 0.000000 -0.866025
vn -0.258819 0.000000 -0.965926
vn -0.258819 0.000000 -0.965926
vn 0.000000 0.000000 1.000000
vn 0.000000 0.000000 1.000000
vn -1.000000 0.000000 0.000000
vn -1.000000 0.000000 0.000000
vn -1.000000 0.000000 0.000000
vn -1.000000 0.000000 0.000000
vn -0.000000 0.000000 -1.000000
vn -0.000000 0.000000 -1.000000
vn -0.258819 0.000000 -0.965926
vn -0.258819 0.000000 -0.965926
vn -0.500000 0.000000 -0.866025
vn -0.500000 0.000000 -0.866025
vn -0.707107 0.000000 -0.707107
vn -0.707107 0.000000 -0.707107
vn -0.866025 0.000000 -0.500000
vn -0.866025 0.000000 -0.500000
vn -0.965926 0.000000 -0.258819
vn -0.965926 0.000000 -0.258819
vn -0.000000 0.000000 -1.000000
vn -0.000000 0.000000 -1.000000
vn -1.000000 0.000000 -0.000000
vn -1.000000 0.000000 -0.000000
vn -0.965926 0.000000 -0.258819
vn -0.965926 0.000000 -0.258819
vn -0.866025 0.000000 -0.500000
vn -0.866025 0.000000 -0.500000
vn -0.707107 0.000000 -0.707107
vn -0.707107 0.000000 -0.707107
vn -0.500000 0.000000 -0.866025
vn -0.500000 0.000000 -0.866025
vn -0.258819 0.000000 -0.965926
vn -0.258819 0.000000 -0.965926
vn -1.000000 0.000000 -0.000000
vn -1.000000 0.000000 -0.000000
vn 0.000000 0.000000 -1.000000
vn 0.000000 0.000000 -1.000000
vn 0.000000 0.000000 -1.000000
vn 0.000000 0.000000 -1.000000
vn 0.000000 0.000000 -1.000000
vn 0.000000 0.000000 -1.000000
vn 0.000000 1.000000 0.000000
vn 0.000000 1.000000 0.000000
vn 0.000000 1.000000 0.000000
vn 0.000000 1.000000 0.000000
vn 0.000000 1.000000 0.000000
vn 0.000000 1.000000 0.000000
vn 0.000000 1.000000 0.000000
vn 0.000000 1.000000 0.000000
vn 0.000000 1.000000 0.000000
vn 0.000000 1.000000 0.000000
vn 0.000000 1.000000 0.000000
vn 0.000000 1.000000 0.000000
vn 0.000000 1.000000 0.000000
vn 0.000000 1.000000 0.000000
vn 0.000000 1.000000 0.000000
vn 0.000000 1.000000 0.000000
vn 0.000000 1.000000 0.000000
vn 0.000000 1.000000 0.000000
vn 0.000000 1.000000 0.000000
vn 0.000000 1.000000 0.000000
vn 0.000000 1.000000 0.000000
vn 0.000000 1.000000 0.000000
vn 0.000000 1.000000 0.000000
vn 0.000000 1.000000 0.000000
vn 0.000000 1.000000 0.000000
vn 0.000000 1.000000 0.000000
vn 0.000000 1.000000 0.000000
vn 0.000000 1.000000 0.000000
vn 0.000000 1.000000 0.000000
vn 0.000000 1.000000 0.000000
vn 0.000000 1.000000 0.000000
vn 0.000000 1.000000 0.000000
vn 0.000000 1.000000 0.000000
vn 0.000000 1.000000 0.000000
vn 0.000000 1.000000 0.000000
vn 0.000000 1.000000 0.000000
vn 0.000000 1.000000 0.000000
vn 0.000000 1.000000 0.000000
vn 0.000000 1.000000 0.000000
vn 0.000000 1.000000 0.000000
vn 0.000000 1.000000 0.000000
vn 0.000000 1.000000 0.000000
vn 0.000000 1.000000 0.000000
vn 0.000000 1.000000 0.000000
vn 0.000000 1.000000 0.000000
vn 0.000000 1.000000 0.000000
vn 0.000000 1.000000 0.000000
vn 0.000000 1.000000 0.000000
vn 0.000000 1.000000 0.000000
vn 0.000000 1.000000 0.000000
vn 0.000000 1.000000 0.000000
vn 0.000000 1.000000 0.000000
vn 0.000000 1.000000 0.000000
vn 0.000000 1.000000 0.000000
vn 0.000000 1.000000 0.000000
vn 0.000000 1.000000 0.000000
vn 0.000000 1.000000 0.000000
vn 0.000000 1.000000 0.000000
vn 0.000000 1.000000 0.000000
vn 0.000000 1.000000 0.000000
vn 0.000000 1.000000 0.000000
vn 0.000000 1.000000 0.000000
vn 0.000000 1.000000 0.000000
vn 0.000000 1.000000 0.000000
vn 0.000000 1.000000 0.000000
vn 0.000000 1.000000 0.000000
vn 0.000000 1.000000 0.000000
vn 0.000000 1.000000 0.000000
vn 0.000000 1.000000 0.000000
vn 0.000000 1.000000 0.000000
vn 0.000000 1.000000 0.000000
vn 0.000000 1.000000 0.000000
vn 0.000000 1.000000 0.000000
vn 0.000000 1.000000 0.000000
vn 0.000000 1.000000 0.000000
vn 0.000000 1.000000 0.000000
vn 0.000000 1.000000 0.000000
vn 0.000000 1.000000 0.000000
vn 0.000000 1.000000 0.000000
vn 0.000000 1.000000 0.000000
vn 0.000000 1.000000 0.000000
vn 0.000000 1.000000 0.000000
vn 0.000000 1.000000 0.000000
vn 0.000000 1.000000 0.000000
vn 0.000000 1.000000 0.000000
vn 0.000000 1.000000 0.000000
vn 0.000000 1.000000 0.000000
vn 0.000000 1.000000 0.000000
vn 0.000000 1.000000 0.000000
vn 0.000000 1.000000 0.000000
vn 0.000000 1.000000 0.000000
vn 0.000000 1.000000 0.000000
vn 0.000000 1.000000 0.000000
vn 0.000000 1.000000 0.000000
vn 0.000000 1.000000 0.000000
vn 0.000000 1.000000 0.000000
vn 0.000000 1.000000 0.000000
vn 0.000000 1.000000 0.000000
vn 0.000000 1.000000 0.000000
vn 0.000000 1.000000 0.000000
vn 0.000000 1.000000 0.000000
vn 0.000000 1.000000 0.000000
vn 0.000000 1.000000 0.000000
vn 0.000000 1.000000 0.000000
vn 0.000000 1.000000 0.000000
vn 0.000000 1.000000 0.000000
vn 0.000000 1.000000 0.000000
vn 0.000000 1.000000 0.000000
vn 0.000000 1.000000 0.000000
vn 0.000000 1.000000 0.000000
vn 0.000000 1.000000 0.000000
vn 0.000000 1.000000 0.000000
vn 0.000000 1.000000 0.000000
vn 0.000000 1.000000 0.000000
vn 0.000000 1.000000 0.000000
vn 0.000000 1.000000 0.000000
vn 0.000000 1.000000 0.000000
vn 0.000000 1.000000 0.000000
vn 0.000000 1.000000 0.000000
vn 0.000000 1.000000 0.000000
vn 0.000000 1.000000 0.000000
vn 0.000000 1.000000 0.000000
vn 0.000000 1.000000 0.000000
vn 0.000000 1.000000 0.000000
vn 0.000000 1.000000 0.000000
vn 0.000000 1.000000 0.000000
vn 0.000000 1.000000 0.000000
vn 0.000000 1.000000 0.000000
vn 0.000000 1.000000 0.000000
vn 0.000000 1.000000 0.000000
vn 0.000000 1.000000 0.000000
vn 0.000000 1.000000 0.000000
vn 0.000000 1.000000 0.000000
vn 0.000000 1.000000 0.000000
vn 0.000000 1.000000 0.000000
vn 0.000000 1.000000 0.000000
vn 0.000000 1.000000 0.000000
vn 0.000000 1.000000 0.000000
vn 0.000000 1.000000 0.000000
vn 0.000000 1.000000 0.000000
vn 0.000000 1.000000 0.000000
vn 0.000000 1.000000 0.000000
vn 0.000000 1.000000 0.000000
vn 0.000000 1.000000 0.000000
vn 0.000000 1.000000 0.000000
vn 0.000000 1.000000 0.000000
vn 0.000000 1.000000 0.000000
vn 0.000000 1.000000 0.000000
vn 0.000000 1.000000 0.000000
vn 0.000000 1.000000 0.000000
vn 0.000000 1.000000 0.000000
vn 0.000000 1.000000 0.000000
vn 0.000000 1.000000 0.000000
vn 0.000000 1.000000 0.000000
vn 0.000000 1.000000 0.000000
vn 0.000000 1.000000 0.000000
vn 0.000000 1.000000 0.000000
vn 0.000000 1.000000 0.000000
vn 0.000000 1.000000 0.000000
vn 0.000000 1.000000 0.000000
vn 0.000000 1.000000 0.000000
vn 0.000000 1.000000 0.000000
vn 0.000000 1.000000 0.000000
vn 0.000000 1.000000 0.000000
vn 0.000000 1.000000 0.000000
vn 0.000000 1.000000 0.000000
vn 0.000000 1.000000 0.000000
vn 0.000000 1.000000 0.000000
vn 0.000000 1.000000 0.000000
vn 0.000000 1.000000 0.000000
vn 0.000000 1.000000 0.000000
vn 0.000000 1.000000 0.000000
vn 0.000000 1.000000 0.000000
vn 0.000000 1.000000 0.000000
vn 0.000000 1.000000 0.000000
vn 0.000000 1.000000 0.000000
vn 0.000000 1.000000 0.000000
vn 0.000000 1.000000 0.000000
vn 0.000000 1.000000 0.000000
vn 0.000000 1.000000 0.000000
vn 0.000000 1.000000 0.000000
vn 0.000000 1.000000 0.000000
vn 0.000000 1.000000 0.000000
vn 0.000000 1.000000 0.000000
vn 0.000000 1.000000 0.000000
vn 0.000000 1.000000 0.000000
vn 0.000000 1.000000 0.000000
vn 0.000000 1.000000 0.000000
vn 0.000000 1.000000 0.000000
vn 0.000000 1.000000 0.000000
vn -0.000000 -1.000000 -0.000000
vn -0.000000 -1.000000 -0.000000
vn -0.000000 -1.000000 -0.000000
vn -0.000000 -1.000000 -0.000000
vn -0.000000 -1.000000 -0.000000
vn -0.000000 -1.000000 -0.000000
vn -0.000000 -1.000000 -0.000000
vn -0.000000 -1.000000 -0.000000
vn -0.000000 -1.000000 -0.000000
vn -0.000000 -1.000000 -0.000000
vn -0.000000 -1.000000 -0.000000
vn -0.000000 -1.000000 -0.000000
vn -0.000000 -1.000000 -0.000000
vn -0.000000 -1.000000 -0.000000
vn -0.000000 -1.000000 -0.000000
vn -0.000000 -1.000000 -0.000000
vn -0.000000 -1.000000 -0.000000
vn -0.000000 -1.000000 -0.000000
vn -0.000000 -1.000000 -0.000000
vn -0.000000 -1.000000 -0.000000
vn -0.000000 -1.000000 -0.000000
vn -0.000000 -1.000000 -0.000000
vn -0.000000 -1.000000 -0.000000
vn -0.000000 -1.000000 -0.000000
vn -0.000000 -1.000000 -0.000000
vn -0.000000 -1.000000 -0.000000
vn -0.000000 -1.000000 -0.000000
vn -0.000000 -1.000000 -0.000000
vn -0.000000 -1.000000 -0.000000
vn -0.000000 -1.000000 -0.000000
vn -0.000000 -1.000000 -0.000000
vn -0.000000 -1.000000 -0.000000
vn -0.000000 -1.000000 -0.000000
vn -0.000000 -1.000000 -0.000000
vn -0.000000 -1.000000 -0.000000
vn -0.000000 -1.000000 -0.000000
vn -0.000000 -1.000000 -0.000000
vn -0.000000 -1.000000 -0.000000
vn -0.000000 -1.000000 -0.000000
vn -0.000000 -1.000000 -0.000000
vn -0.000000 -1.000000 -0.000000
vn -0.000000 -1.000000 -0.000000
vn -0.000000 -1.000000 -0.000000
vn -0.000000 -1.000000 -0.000000
vn -0.000000 -1.000000 -0.000000
vn -0.000000 -1.000000 -0.000000
vn -0.000000 -1.000000 -0.000000
vn -0.000000 -1.000000 -0.000000
vn -0.000000 -1.000000 -0.000000
vn -0.000000 -1.000000 -0.000000
vn -0.000000 -1.000000 -0.000000
vn -0.000000 -1.000000 -0.000000
vn -0.000000 -1.000000 -0.000000
vn -0.000000 -1.000000 -0.000000
vn -0.000000 -1.000000 -0.000000
vn -0.000000 -1.000000 -0.000000
vn -0.000000 -1.000000 -0.000000
vn -0.000000 -1.000000 -0.000000
vn -0.000000 -1.000000 -0.000000
vn -0.000000 -1.000000 -0.000000
vn -0.000000 -1.000000 -0.000000
vn -0.000000 -1.000000 -0.000000
vn -0.000000 -1.000000 -0.000000
vn -0.000000 -1.000000 -0.000000
vn -0.000000 -1.000000 -0.000000
vn -0.000000 -1.000000 -0.000000
vn -0.000000 -1.000000 -0.000000
vn -0.000000 -1.000000 -0.000000
vn -0.000000 -1.000000 -0.000000
vn -0.000000 -1.000000 -0.000000
vn -0.000000 -1.000000 -0.000000
vn -0.000000 -1.000000 -0.000000
vn -0.000000 -1.000000 -0.000000
vn -0.000000 -1.000000 -0.000000
vn -0.000000 -1.000000 -0.000000
vn -0.000000 -1.000000 -0.000000
vn -0.000000 -1.000000 -0.000000
vn -0.000000 -1.000000 -0.000000
vn -0.000000 -1.000000 -0.000000
vn -0.000000 -1.000000 -0.000000
vn -0.000000 -1.000000 -0.000000
vn -0.000000 -1.000000 -0.000000
vn -0.000000 -1.000000 -0.000000
vn -0.000000 -1.000000 -0.000000
vn -0.000000 -1.000000 -0.000000
vn -0.000000 -1.000000 -0.000000
vn -0.000000 -1.000000 -0.000000
vn -0.000000 -1.000000 -0.000000
vn -0.000000 -1.000000 -0.000000
vn -0.000000 -1.000000 -0.000000
vn -0.000000 -1.000000 -0.000000
vn -0.000000 -1.000000 -0.000000
vn -0.000000 -1.000000 -0.000000
vn -0.000000 -1.000000 -0.000000
vn -0.000000 -1.000000 -0.000000
vn -0.000000 -1.000000 -0.000000
vn -0.000000 -1.000000 -0.000000
vn -0.000000 -1.000000 -0.000000
vn -0.000000 -1.000000 -0.000000
vn -0.000000 -1.000000 -0.000000
vn -0.000000 -1.000000 -0.000000
vn -0.000000 -1.000000 -0.000000
vn -0.000000 -1.000000 -0.000000
vn -0.000000 -1.000000 -0.000000
vn -0.000000 -1.000000 -0.000000
vn -0.000000 -1.000000 -0.000000
vn -0.000000 -1.000000 -0.000000
vn -0.000000 -1.000000 -0.000000
vn -0.000000 -1.000000 -0.000000
vn -0.000000 -1.000000 -0.000000
vn -0.000000 -1.000000 -0.000000
vn -0.000000 -1.000000 -0.000000
vn -0.000000 -1.000000 -0.000000
vn -0.000000 -1.000000 -0.000000
vn -0.000000 -1.000000 -0.000000
vn -0.000000 -1.000000 -0.000000
vn -0.000000 -1.000000 -0.000000
vn -0.000000 -1.000000 -0.000000
vn -0.000000 -1.000000 -0.000000
vn -0.000000 -1.000000 -0.000000
vn -0.000000 -1.000000 -0.000000
vn -0.000000 -1.000000 -0.000000
vn -0.000000 -1.000000 -0.000000
vn -0.000000 -1.000000 -0.000000
vn -0.000000 -1.000000 -0.000000
vn -0.000000 -1.000000 -0.000000
vn -0.000000 -1.000000 -0.000000
vn -0.000000 -1.000000 -0.000000
vn -0.000000 -1.000000 -0.000000
vn -0.000000 -1.000000 -0.000000
vn -0.000000 -1.000000 -0.000000
vn -0.000000 -1.000000 -0.000000
vn -0.000000 -1.000000 -0.000000
vn -0.000000 -1.000000 -0.000000
vn -0.000000 -1.000000 -0.000000
vn -0.000000 -1.000000 -0.000000
vn -0.000000 -1.000000 -0.000000
vn -0.000000 -1.000000 -0.000000
vn -0.000000 -1.000000 -0.000000
vn -0.000000 -1.000000 -0.000000
vn -0.000000 -1.000000 -0.000000
vn -0.000000 -1.000000 -0.000000
vn -0.000000 -1.000000 -0.000000
vn -0.000000 -1.000000 -0.000000
vn -0.000000 -1.000000 -0.000000
vn -0.000000 -1.000000 -0.000000
vn -0.000000 -1.000000 -0.000000
vn -0.000000 -1.000000 -0.000000
vn -0.000000 -1.000000 -0.000000
vn -0.000000 -1.000000 -0.000000
vn -0.000000 -1.000000 -0.000000
vn -0.000000 -1.000000 -0.000000
vn -0.000000 -1.000000 -0.000000
vn -0.000000 -1.000000 -0.000000
vn -0.000000 -1.000000 -0.000000
vn -0.000000 -1.000000 -0.000000
vn -0.000000 -1.000000 -0.000000
vn -0.000000 -1.000000 -0.000000
vn -0.000000 -1.000000 -0.000000
vn -0.000000 -1.000000 -0.000000
vn -0.000000 -1.000000 -0.000000
vn -0.000000 -1.000000 -0.000000
vn -0.000000 -1.000000 -0.000000
vn -0.000000 -1.000000 -0.000000
vn -0.000000 -1.000000 -0.000000
vn -0.000000 -1.000000 -0.000000
vn -0.000000 -1.000000 -0.000000
vn -0.000000 -1.000000 -0.000000
vn -0.000000 -1.000000 -0.000000
vn -0.000000 -1.000000 -0.000000
vn -0.000000 -1.000000 -0.000000
vn -0.000000 -1.000000 -0.000000
vn -0.000000 -1.000000 -0.000000
vn -0.000000 -1.000000 -0.000000
vn -0.000000 -1.000000 -0.000000
vn -0.000000 -1.000000 -0.000000
vn -0.000000 -1.000000 -0.000000
vn -0.000000 -1.000000 -0.000000
vn -0.000000 -1.000000 -0.000000
vn -0.000000 -1.000000 -0.000000
vn -0.000000 -1.000000 -0.000000
vn -0.000000 -1.000000 -0.000000
vn -0.000000 -1.000000 -0.000000
vn -0.000000 -1.000000 -0.000000
vn -0.000000 -1.000000 -0.000000
vn -0.000000 -1.000000 -0.000000
vn -0.000000 -1.000000 -0.000000
vn -0.000000 -1.000000 -0.000000
vn -0.000000 -1.000000 -0.000000
vn -0.000000 -1.000000 -0.000000
usemtl Polymide_(Kapton)
f 1/1/1 2/2/2 6/3/3
f 6/3/3 2/2/2 5/4/4
f 5/4/4 2/2/2 3/5/5
f 5/4/4 3/5/5 4/6/6
f 7/7/7 8/8/8 12/9/9
f 12/9/9 8/8/8 11/10/10
f 11/10/10 8/8/8 9/11/11
f 11/10/10 9/11/11 10/12/12
f 10/12/12 9/11/11 1/13/13
f 10/12/12 1/13/13 6/14/14
f 13/15/15 14/16/16 16/17/17
f 16/17/17 14/16/16 15/18/18
f 15/18/18 14/16/16 7/19/19
f 15/18/18 7/19/19 12/20/20
f 3/21/21 17/22/22 4/23/23
f 4/23/23 17/22/22 20/24/24
f 20/24/24 17/22/22 18/25/25
f 20/24/24 18/25/25 19/26/26
f 19/26/26 18/25/25 13/27/27
f 19/26/26 13/27/27 16/28/28
f 21/29/29 22/30/30 24/31/31
f 24/31/31 22/30/30 23/32/32
f 36/33/33 25/34/34 35/35/35
f 35/35/35 25/34/34 26/36/36
f 35/35/35 26/36/36 34/37/37
f 34/37/37 26/36/36 27/38/38
f 34/37/37 27/38/38 33/39/39
f 33/39/39 27/38/38 28/40/40
f 33/39/39 28/40/40 32/41/41
f 32/41/41 28/40/40 29/42/42
f 32/41/41 29/42/42 31/43/43
f 31/43/43 29/42/42 30/44/44
f 31/43/43 30/44/44 24/45/31
f 24/45/31 30/44/44 21/46/29
f 37/47/45 25/48/34 38/49/46
f 38/49/46 25/48/34 36/50/33
f 50/51/47 39/52/48 49/53/49
f 49/53/49 39/52/48 40/54/50
f 49/53/49 40/54/50 48/55/51
f 48/55/51 40/54/50 41/56/52
f 48/55/51 41/56/52 47/57/53
f 47/57/53 41/56/52 42/58/54
f 47/57/53 42/58/54 46/59/55
f 46/59/55 42/58/54 43/60/56
f 46/59/55 43/60/56 45/61/57
f 45/61/57 43/60/56 44/62/58
f 45/61/57 44/62/58 38/63/46
f 38/63/46 44/62/58 37/64/45
f 51/65/59 39/66/48 52/67/60
f 52/67/60 39/66/48 50/68/47
f 53/69/61 51/70/62 54/71/63
f 54/71/63 51/70/62 52/72/64
f 78/73/65 55/74/66 77/75/67
f 77/75/67 55/74/66 56/76/68
f 77/75/67 56/76/68 76/77/69
f 76/77/69 56/76/68 57/78/70
f 76/77/69 57/78/70 75/79/71
f 75/79/71 57/78/70 58/80/72
f 75/79/71 58/80/72 74/81/73
f 74/81/73 58/80/72 59/82/74
f 74/81/73 59/82/74 73/83/75
f 73/83/75 59/82/74 60/84/76
f 73/83/75 60/84/76 72/85/77
f 72/85/77 60/84/76 61/86/78
f 72/85/77 61/86/78 71/87/79
f 71/87/79 61/86/78 62/88/80
f 71/87/79 62/88/80 70/89/81
f 70/89/81 62/88/80 63/90/82
f 70/89/81 63/90/82 69/91/83
f 69/91/83 63/90/82 64/92/84
f 69/91/83 64/92/84 68/93/85
f 68/93/85 64/92/84 65/94/86
f 68/93/85 65/94/86 67/95/87
f 67/95/87 65/94/86 66/96/88
f 67/95/87 66/96/88 54/97/63
f 54/97/63 66/96/88 53/98/61
f 79/99/89 55/100/66 80/101/90
f 80/101/90 55/100/66 78/102/65
f 81/103/91 79/104/92 82/105/93
f 82/105/93 79/104/92 80/106/94
f 94/107/95 83/108/96 93/109/97
f 93/109/97 83/108/96 84/110/98
f 93/109/97 84/110/98 92/111/99
f 92/111/99 84/110/98 85/112/100
f 92/111/99 85/112/100 91/113/101
f 91/113/101 85/112/100 86/114/102
f 91/113/101 86/114/102 90/115/103
f 90/115/103 86/114/102 87/116/104
f 90/115/103 87/116/104 89/117/105
f 89/117/105 87/116/104 88/118/106
f 89/117/105 88/118/106 82/119/93
f 82/119/93 88/118/106 81/120/91
f 95/121/107 83/122/96 96/123/108
f 96/123/108 83/122/96 94/124/95
f 108/125/109 97/126/110 107/127/111
f 107/127/111 97/126/110 98/128/112
f 107/127/111 98/128/112 106/129/113
f 106/129/113 98/128/112 99/130/114
f 106/129/113 99/130/114 105/131/115
f 105/131/115 99/130/114 100/132/116
f 105/131/115 100/132/116 104/133/117
f 104/133/117 100/132/116 101/134/118
f 104/133/117 101/134/118 103/135/119
f 103/135/119 101/134/118 102/136/120
f 103/135/119 102/136/120 96/137/108
f 96/137/108 102/136/120 95/138/107
f 109/139/121 110/140/122 112/141/123
f 112/141/123 110/140/122 111/142/124
f 111/142/124 110/140/122 97/143/110
f 111/142/124 97/143/110 108/144/109
f 124/145/125 113/146/126 123/147/127
f 123/147/127 113/146/126 114/148/128
f 123/147/127 114/148/128 122/149/129
f 122/149/129 114/148/128 115/150/130
f 122/149/129 115/150/130 121/151/131
f 121/151/131 115/150/130 116/152/132
f 121/151/131 116/152/132 120/153/133
f 120/153/133 116/152/132 117/154/134
f 120/153/133 117/154/134 119/155/135
f 119/155/135 117/154/134 118/156/136
f 119/155/135 118/156/136 112/157/123
f 112/157/123 118/156/136 109/158/121
f 125/159/137 113/160/126 126/161/138
f 126/161/138 113/160/126 124/162/125
f 138/163/139 127/164/140 137/165/141
f 137/165/141 127/164/140 128/166/142
f 137/165/141 128/166/142 136/167/143
f 136/167/143 128/166/142 129/168/144
f 136/167/143 129/168/144 135/169/145
f 135/169/145 129/168/144 130/170/146
f 135/169/145 130/170/146 134/171/147
f 134/171/147 130/170/146 131/172/148
f 134/171/147 131/172/148 133/173/149
f 133/173/149 131/172/148 132/174/150
f 133/173/149 132/174/150 126/175/138
f 126/175/138 132/174/150 125/176/137
f 139/177/151 127/178/140 140/179/152
f 140/179/152 127/178/140 138/180/139
f 141/181/153 139/182/154 142/183/155
f 142/183/155 139/182/154 140/184/156
f 166/185/157 143/186/158 165/187/159
f 165/187/159 143/186/158 144/188/160
f 165/187/159 144/188/160 164/189/161
f 164/189/161 144/188/160 145/190/162
f 164/189/161 145/190/162 163/191/163
f 163/191/163 145/190/162 146/192/164
f 163/191/163 146/192/164 162/193/165
f 162/193/165 146/192/164 147/194/166
f 162/193/165 147/194/166 161/195/167
f 161/195/167 147/194/166 148/196/168
f 161/195/167 148/196/168 160/197/169
f 160/197/169 148/196/168 149/198/170
f 160/197/169 149/198/170 159/199/171
f 159/199/171 149/198/170 150/200/172
f 159/199/171 150/200/172 158/201/173
f 158/201/173 150/200/172 151/202/174
f 158/201/173 151/202/174 157/203/175
f 157/203/175 151/202/174 152/204/176
f 157/203/175 152/204/176 156/205/177
f 156/205/177 152/204/176 153/206/178
f 156/205/177 153/206/178 155/207/179
f 155/207/179 153/206/178 154/208/180
f 155/207/179 154/208/180 142/209/155
f 142/209/155 154/208/180 141/210/153
f 167/211/181 143/212/158 168/213/182
f 168/213/182 143/212/158 166/214/157
f 169/215/183 167/216/184 170/217/185
f 170/217/185 167/216/184 168/218/186
f 182/219/187 171/220/188 181/221/189
f 181/221/189 171/220/188 172/222/190
f 181/221/189 172/222/190 180/223/191
f 180/223/191 172/222/190 173/224/192
f 180/223/191 173/224/192 179/225/193
f 179/225/193 173/224/192 174/226/194
f 179/225/193 174/226/194 178/227/195
f 178/227/195 174/226/194 175/228/196
f 178/227/195 175/228/196 177/229/197
f 177/229/197 175/228/196 176/230/198
f 177/229/197 176/230/198 170/231/185
f 170/231/185 176/230/198 169/232/183
f 183/233/199 171/234/188 184/235/200
f 184/235/200 171/234/188 182/236/187
f 196/237/201 185/238/202 195/239/203
f 195/239/203 185/238/202 186/240/204
f 195/239/203 186/240/204 194/241/205
f 194/241/205 186/240/204 187/242/206
f 194/241/205 187/242/206 193/243/207
f 193/243/207 187/242/206 188/244/208
f 193/243/207 188/244/208 192/245/209
f 192/245/209 188/244/208 189/246/210
f 192/245/209 189/246/210 191/247/211
f 191/247/211 189/246/210 190/248/212
f 191/247/211 190/248/212 184/249/200
f 184/249/200 190/248/212 183/250/199
f 197/251/213 185/252/202 198/253/214
f 198/253/214 185/252/202 196/254/201
f 199/255/215 200/256/216 202/257/217
f 202/257/217 200/256/216 201/258/218
f 201/258/218 200/256/216 197/259/219
f 201/258/218 197/259/219 198/260/220
f 203/261/221 199/262/222 204/263/223
f 204/263/223 199/262/222 202/264/224
f 216/265/225 205/266/226 215/267/227
f 215/267/227 205/266/226 206/268/228
f 215/267/227 206/268/228 214/269/229
f 214/269/229 206/268/228 207/270/230
f 214/269/229 207/270/230 213/271/231
f 213/271/231 207/270/230 208/272/232
f 213/271/231 208/272/232 212/273/233
f 212/273/233 208/272/232 209/274/234
f 212/273/233 209/274/234 211/275/235
f 211/275/235 209/274/234 210/276/236
f 211/275/235 210/276/236 204/277/223
f 204/277/223 210/276/236 203/278/221
f 217/279/237 205/280/226 218/281/238
f 218/281/238 205/280/226 216/282/225
f 230/283/239 219/284/240 229/285/241
f 229/285/241 219/284/240 220/286/242
f 229/285/241 220/286/242 228/287/243
f 228/287/243 220/286/242 221/288/244
f 228/287/243 221/288/244 227/289/245
f 227/289/245 221/288/244 222/290/246
f 227/289/245 222/290/246 226/291/247
f 226/291/247 222/290/246 223/292/248
f 226/291/247 223/292/248 225/293/249
f 225/293/249 223/292/248 224/294/250
f 225/293/249 224/294/250 218/295/238
f 218/295/238 224/294/250 217/296/237
f 231/297/251 219/298/240 232/299/252
f 232/299/252 219/298/240 230/300/239
f 233/301/253 231/302/254 234/303/255
f 234/303/255 231/302/254 232/304/256
f 258/305/257 235/306/258 257/307/259
f 257/307/259 235/306/258 236/308/260
f 257/307/259 236/308/260 256/309/261
f 256/309/261 236/308/260 237/310/262
f 256/309/261 237/310/262 255/311/263
f 255/311/263 237/310/262 238/312/264
f 255/311/263 238/312/264 254/313/265
f 254/313/265 238/312/264 239/314/266
f 254/313/265 239/314/266 253/315/267
f 253/315/267 239/314/266 240/316/268
f 253/315/267 240/316/268 252/317/269
f 252/317/269 240/316/268 241/318/270
f 252/317/269 241/318/270 251/319/271
f 251/319/271 241/318/270 242/320/272
f 251/319/271 242/320/272 250/321/273
f 250/321/273 242/320/272 243/322/274
f 250/321/273 243/322/274 249/323/275
f 249/323/275 243/322/274 244/324/276
f 249/323/275 244/324/276 248/325/277
f 248/325/277 244/324/276 245/326/278
f 248/325/277 245/326/278 247/327/279
f 247/327/279 245/326/278 246/328/280
f 247/327/279 246/328/280 234/329/255
f 234/329/255 246/328/280 233/330/253
f 259/331/281 235/332/258 260/333/282
f 260/333/282 235/332/258 258/334/257
f 261/335/283 259/336/284 262/337/285
f 262/337/285 259/336/284 260/338/286
f 274/339/287 263/340/288 273/341/289
f 273/341/289 263/340/288 264/342/290
f 273/341/289 264/342/290 272/343/291
f 272/343/291 264/342/290 265/344/292
f 272/343/291 265/344/292 271/345/293
f 271/345/293 265/344/292 266/346/294
f 271/345/293 266/346/294 270/347/295
f 270/347/295 266/346/294 267/348/296
f 270/347/295 267/348/296 269/349/297
f 269/349/297 267/348/296 268/350/298
f 269/349/297 268/350/298 262/351/285
f 262/351/285 268/350/298 261/352/283
f 275/353/299 263/354/288 276/355/300
f 276/355/300 263/354/288 274/356/287
f 288/357/301 277/358/302 287/359/303
f 287/359/303 277/358/302 278/360/304
f 287/359/303 278/360/304 286/361/305
f 286/361/305 278/360/304 279/362/306
f 286/361/305 279/362/306 285/363/307
f 285/363/307 279/362/306 280/364/308
f 285/363/307 280/364/308 284/365/309
f 284/365/309 280/364/308 281/366/310
f 284/365/309 281/366/310 283/367/311
f 283/367/311 281/366/310 282/368/312
f 283/367/311 282/368/312 276/369/300
f 276/369/300 282/368/312 275/370/299
f 289/371/313 290/372/314 292/373/315
f 292/373/315 290/372/314 291/374/316
f 291/374/316 290/372/314 277/375/302
f 291/374/316 277/375/302 288/376/301
f 304/377/317 293/378/318 303/379/319
f 303/379/319 293/378/318 294/380/320
f 303/379/319 294/380/320 302/381/321
f 302/381/321 294/380/320 295/382/322
f 302/381/321 295/382/322 301/383/323
f 301/383/323 295/382/322 296/384/324
f 301/383/323 296/384/324 300/385/325
f 300/385/325 296/384/324 297/386/326
f 300/385/325 297/386/326 299/387/327
f 299/387/327 297/386/326 298/388/328
f 299/387/327 298/388/328 292/389/315
f 292/389/315 298/388/328 289/390/313
f 305/391/329 293/392/318 306/393/330
f 306/393/330 293/392/318 304/394/317
f 318/395/331 307/396/332 317/397/333
f 317/397/333 307/396/332 308/398/334
f 317/397/333 308/398/334 316/399/335
f 316/399/335 308/398/334 309/400/336
f 316/399/335 309/400/336 315/401/337
f 315/401/337 309/400/336 310/402/338
f 315/401/337 310/402/338 314/403/339
f 314/403/339 310/402/338 311/404/340
f 314/403/339 311/404/340 313/405/341
f 313/405/341 311/404/340 312/406/342
f 313/405/341 312/406/342 306/407/330
f 306/407/330 312/406/342 305/408/329
f 319/409/343 307/410/332 320/411/344
f 320/411/344 307/410/332 318/412/331
f 321/413/345 319/414/346 322/415/347
f 322/415/347 319/414/346 320/416/348
f 346/417/349 323/418/350 345/419/351
f 345/419/351 323/418/350 324/420/352
f 345/419/351 324/420/352 344/421/353
f 344/421/353 324/420/352 325/422/354
f 344/421/353 325/422/354 343/423/355
f 343/423/355 325/422/354 326/424/356
f 343/423/355 326/424/356 342/425/357
f 342/425/357 326/424/356 327/426/358
f 342/425/357 327/426/358 341/427/359
f 341/427/359 327/426/358 328/428/360
f 341/427/359 328/428/360 340/429/361
f 340/429/361 328/428/360 329/430/362
f 340/429/361 329/430/362 339/431/363
f 339/431/363 329/430/362 330/432/364
f 339/431/363 330/432/364 338/433/365
f 338/433/365 330/432/364 331/434/366
f 338/433/365 331/434/366 337/435/367
f 337/435/367 331/434/366 332/436/368
f 337/435/367 332/436/368 336/437/369
f 336/437/369 332/436/368 333/438/370
f 336/437/369 333/438/370 335/439/371
f 335/439/371 333/438/370 334/440/372
f 335/439/371 334/440/372 322/441/347
f 322/441/347 334/440/372 321/442/345
f 347/443/373 323/444/350 348/445/374
f 348/445/374 323/444/350 346/446/349
f 349/447/375 347/448/376 350/449/377
f 350/449/377 347/448/376 348/450/378
f 362/451/379 351/452/380 361/453/381
f 361/453/381 351/452/380 352/454/382
f 361/453/381 352/454/382 360/455/383
f 360/455/383 352/454/382 353/456/384
f 360/455/383 353/456/384 359/457/385
f 359/457/385 353/456/384 354/458/386
f 359/457/385 354/458/386 358/459/387
f 358/459/387 354/458/386 355/460/388
f 358/459/387 355/460/388 357/461/389
f 357/461/389 355/460/388 356/462/390
f 357/461/389 356/462/390 350/463/377
f 350/463/377 356/462/390 349/464/375
f 363/465/391 351/466/380 364/467/392
f 364/467/392 351/466/380 362/468/379
f 376/469/393 365/470/394 375/471/395
f 375/471/395 365/470/394 366/472/396
f 375/471/395 366/472/396 374/473/397
f 374/473/397 366/472/396 367/474/398
f 374/473/397 367/474/398 373/475/399
f 373/475/399 367/474/398 368/476/400
f 373/475/399 368/476/400 372/477/401
f 372/477/401 368/476/400 369/478/402
f 372/477/401 369/478/402 371/479/403
f 371/479/403 369/478/402 370/480/404
f 371/479/403 370/480/404 364/481/392
f 364/481/392 370/480/404 363/482/391
f 377/483/405 365/484/394 378/485/406
f 378/485/406 365/484/394 376/486/393
f 22/487/407 379/488/408 23/489/409
f 23/489/409 379/488/408 380/490/410
f 380/490/410 379/488/408 377/491/411
f 380/490/410 377/491/411 378/492/412
f 20/493/413 73/494/414 4/495/415
f 4/495/415 73/494/414 72/496/416
f 4/495/415 72/496/416 71/497/417
f 19/498/418 111/499/419 20/493/413
f 20/493/413 111/499/419 108/500/420
f 20/493/413 108/500/420 73/494/414
f 73/494/414 108/500/420 107/501/421
f 73/494/414 107/501/421 74/502/422
f 74/502/422 107/501/421 106/503/423
f 74/502/422 106/503/423 75/504/424
f 75/504/424 106/503/423 105/505/425
f 75/504/424 105/505/425 76/506/426
f 76/506/426 105/505/425 104/507/427
f 76/506/426 104/507/427 77/508/428
f 77/508/428 104/507/427 103/509/429
f 77/508/428 103/509/429 96/510/430
f 16/511/431 159/512/432 19/498/418
f 19/498/418 159/512/432 112/513/433
f 19/498/418 112/513/433 111/499/419
f 15/514/434 201/515/435 16/511/431
f 16/511/431 201/515/435 198/516/436
f 16/511/431 198/516/436 196/517/437
f 15/514/434 12/518/438 201/515/435
f 201/515/435 12/518/438 202/519/439
f 202/519/439 12/518/438 204/520/440
f 204/520/440 12/518/438 211/521/441
f 211/521/441 12/518/438 250/522/442
f 211/521/441 250/522/442 212/523/443
f 212/523/443 250/522/442 249/524/444
f 212/523/443 249/524/444 213/525/445
f 213/525/445 249/524/444 248/526/446
f 213/525/445 248/526/446 214/527/447
f 214/527/447 248/526/446 247/528/448
f 214/527/447 247/528/448 215/529/449
f 215/529/449 247/528/448 216/530/450
f 216/530/450 247/528/448 234/531/451
f 216/530/450 234/531/451 218/532/452
f 218/532/452 234/531/451 232/533/453
f 218/532/452 232/533/453 230/534/454
f 11/535/455 253/536/456 12/518/438
f 12/518/438 253/536/456 252/537/457
f 12/518/438 252/537/457 251/538/458
f 10/539/459 291/540/460 11/535/455
f 11/535/455 291/540/460 288/541/461
f 11/535/455 288/541/461 253/536/456
f 253/536/456 288/541/461 287/542/462
f 253/536/456 287/542/462 254/543/463
f 254/543/463 287/542/462 286/544/464
f 254/543/463 286/544/464 255/545/465
f 255/545/465 286/544/464 285/546/466
f 255/545/465 285/546/466 256/547/467
f 256/547/467 285/546/466 284/548/468
f 256/547/467 284/548/468 257/549/469
f 257/549/469 284/548/468 283/550/470
f 257/549/469 283/550/470 276/551/471
f 6/552/472 339/553/473 10/539/459
f 10/539/459 339/553/473 292/554/474
f 10/539/459 292/554/474 291/540/460
f 5/555/475 380/556/476 6/552/472
f 6/552/472 380/556/476 378/557/477
f 6/552/472 378/557/477 376/558/478
f 5/555/475 4/495/415 380/556/476
f 380/556/476 4/495/415 23/559/479
f 23/559/479 4/495/415 24/560/480
f 24/560/480 4/495/415 31/561/481
f 31/561/481 4/495/415 70/562/482
f 31/561/481 70/562/482 32/563/483
f 32/563/483 70/562/482 69/564/484
f 32/563/483 69/564/484 33/565/485
f 33/565/485 69/564/484 68/566/486
f 33/565/485 68/566/486 34/567/487
f 34/567/487 68/566/486 67/568/488
f 34/567/487 67/568/488 35/569/489
f 35/569/489 67/568/488 36/570/490
f 36/570/490 67/568/488 54/571/491
f 36/570/490 54/571/491 38/572/492
f 38/572/492 54/571/491 52/573/493
f 38/572/492 52/573/493 50/574/494
f 376/558/478 375/575/495 6/552/472
f 6/552/472 375/575/495 342/576/496
f 6/552/472 342/576/496 341/577/497
f 375/575/495 374/578/498 342/576/496
f 342/576/496 374/578/498 343/579/499
f 343/579/499 374/578/498 373/580/500
f 343/579/499 373/580/500 344/581/501
f 344/581/501 373/580/500 372/582/502
f 344/581/501 372/582/502 345/583/503
f 345/583/503 372/582/502 371/584/504
f 345/583/503 371/584/504 364/585/505
f 345/583/503 364/585/505 346/586/506
f 346/586/506 364/585/505 362/587/507
f 346/586/506 362/587/507 348/588/508
f 348/588/508 362/587/507 350/589/509
f 350/589/509 362/587/507 361/590/510
f 350/589/509 361/590/510 360/591/511
f 360/591/511 359/592/512 350/589/509
f 350/589/509 359/592/512 358/593/513
f 350/589/509 358/593/513 357/594/514
f 341/577/497 340/595/515 6/552/472
f 6/552/472 340/595/515 339/553/473
f 292/554/474 339/553/473 299/596/516
f 299/596/516 339/553/473 338/597/517
f 299/596/516 338/597/517 300/598/518
f 300/598/518 338/597/517 337/599/519
f 300/598/518 337/599/519 301/600/520
f 301/600/520 337/599/519 336/601/521
f 301/600/520 336/601/521 302/602/522
f 302/602/522 336/601/521 335/603/523
f 302/602/522 335/603/523 303/604/524
f 303/604/524 335/603/523 304/605/525
f 304/605/525 335/603/523 322/606/526
f 304/605/525 322/606/526 306/607/527
f 306/607/527 322/606/526 320/608/528
f 306/607/527 320/608/528 318/609/529
f 317/610/530 316/611/531 318/609/529
f 318/609/529 316/611/531 315/612/532
f 318/609/529 315/612/532 314/613/533
f 314/613/533 313/614/534 318/609/529
f 318/609/529 313/614/534 306/607/527
f 257/549/469 276/551/471 258/615/535
f 258/615/535 276/551/471 274/616/536
f 258/615/535 274/616/536 260/617/537
f 260/617/537 274/616/536 262/618/538
f 262/618/538 274/616/536 273/619/539
f 262/618/538 273/619/539 272/620/540
f 272/620/540 271/621/541 262/618/538
f 262/618/538 271/621/541 270/622/542
f 262/618/538 270/622/542 269/623/543
f 251/538/458 250/522/442 12/518/438
f 229/624/544 228/625/545 230/534/454
f 230/534/454 228/625/545 227/626/546
f 230/534/454 227/626/546 226/627/547
f 226/627/547 225/628/548 230/534/454
f 230/534/454 225/628/548 218/532/452
f 196/517/437 195/629/549 16/511/431
f 16/511/431 195/629/549 162/630/550
f 16/511/431 162/630/550 161/631/551
f 195/629/549 194/632/552 162/630/550
f 162/630/550 194/632/552 163/633/553
f 163/633/553 194/632/552 193/634/554
f 163/633/553 193/634/554 164/635/555
f 164/635/555 193/634/554 192/636/556
f 164/635/555 192/636/556 165/637/557
f 165/637/557 192/636/556 191/638/558
f 165/637/557 191/638/558 184/639/559
f 165/637/557 184/639/559 166/640/560
f 166/640/560 184/639/559 182/641/561
f 166/640/560 182/641/561 168/642/562
f 168/642/562 182/641/561 170/643/563
f 170/643/563 182/641/561 181/644/564
f 170/643/563 181/644/564 180/645/565
f 180/645/565 179/646/566 170/643/563
f 170/643/563 179/646/566 178/647/567
f 170/643/563 178/647/567 177/648/568
f 161/631/551 160/649/569 16/511/431
f 16/511/431 160/649/569 159/512/432
f 112/513/433 159/512/432 119/650/570
f 119/650/570 159/512/432 158/651/571
f 119/650/570 158/651/571 120/652/572
f 120/652/572 158/651/571 157/653/573
f 120/652/572 157/653/573 121/654/574
f 121/654/574 157/653/573 156/655/575
f 121/654/574 156/655/575 122/656/576
f 122/656/576 156/655/575 155/657/577
f 122/656/576 155/657/577 123/658/578
f 123/658/578 155/657/577 124/659/579
f 124/659/579 155/657/577 142/660/580
f 124/659/579 142/660/580 126/661/581
f 126/661/581 142/660/580 140/662/582
f 126/661/581 140/662/582 138/663/583
f 137/664/584 136/665/585 138/663/583
f 138/663/583 136/665/585 135/666/586
f 138/663/583 135/666/586 134/667/587
f 134/667/587 133/668/588 138/663/583
f 138/663/583 133/668/588 126/661/581
f 77/508/428 96/510/430 78/669/589
f 78/669/589 96/510/430 94/670/590
f 78/669/589 94/670/590 80/671/591
f 80/671/591 94/670/590 82/672/592
f 82/672/592 94/670/590 93/673/593
f 82/672/592 93/673/593 92/674/594
f 92/674/594 91/675/595 82/672/592
f 82/672/592 91/675/595 90/676/596
f 82/672/592 90/676/596 89/677/597
f 71/497/417 70/562/482 4/495/415
f 49/678/598 48/679/599 50/574/494
f 50/574/494 48/679/599 47/680/600
f 50/574/494 47/680/600 46/681/601
f 46/681/601 45/682/602 50/574/494
f 50/574/494 45/682/602 38/572/492
f 18/683/603 150/684/604 13/685/605
f 13/685/605 150/684/604 149/686/606
f 13/685/605 149/686/606 148/687/607
f 17/688/608 110/689/609 18/683/603
f 18/683/603 110/689/609 109/690/610
f 18/683/603 109/690/610 150/684/604
f 150/684/604 109/690/610 118/691/611
f 150/684/604 118/691/611 151/692/612
f 151/692/612 118/691/611 117/693/613
f 151/692/612 117/693/613 152/694/614
f 152/694/614 117/693/613 116/695/615
f 152/694/614 116/695/615 153/696/616
f 153/696/616 116/695/615 115/697/617
f 153/696/616 115/697/617 154/698/618
f 154/698/618 115/697/617 114/699/619
f 154/698/618 114/699/619 113/700/620
f 3/701/621 60/702/622 17/688/608
f 17/688/608 60/702/622 97/703/623
f 17/688/608 97/703/623 110/689/609
f 2/704/624 379/705/625 3/701/621
f 3/701/621 379/705/625 22/706/626
f 3/701/621 22/706/626 21/707/627
f 2/704/624 1/708/628 379/705/625
f 379/705/625 1/708/628 377/709/629
f 377/709/629 1/708/628 365/710/630
f 365/710/630 1/708/628 366/711/631
f 366/711/631 1/708/628 327/712/632
f 366/711/631 327/712/632 367/713/633
f 367/713/633 327/712/632 326/714/634
f 367/713/633 326/714/634 368/715/635
f 368/715/635 326/714/634 325/716/636
f 368/715/635 325/716/636 369/717/637
f 369/717/637 325/716/636 324/718/638
f 369/717/637 324/718/638 370/719/639
f 370/719/639 324/718/638 363/720/640
f 363/720/640 324/718/638 323/721/641
f 363/720/640 323/721/641 351/722/642
f 351/722/642 323/721/641 347/723/643
f 351/722/642 347/723/643 349/724/644
f 9/725/645 330/726/646 1/708/628
f 1/708/628 330/726/646 329/727/647
f 1/708/628 329/727/647 328/728/648
f 8/729/649 290/730/650 9/725/645
f 9/725/645 290/730/650 289/731/651
f 9/725/645 289/731/651 330/726/646
f 330/726/646 289/731/651 298/732/652
f 330/726/646 298/732/652 331/733/653
f 331/733/653 298/732/652 297/734/654
f 331/733/653 297/734/654 332/735/655
f 332/735/655 297/734/654 296/736/656
f 332/735/655 296/736/656 333/737/657
f 333/737/657 296/736/656 295/738/658
f 333/737/657 295/738/658 334/739/659
f 334/739/659 295/738/658 294/740/660
f 334/739/659 294/740/660 293/741/661
f 7/742/662 240/743/663 8/729/649
f 8/729/649 240/743/663 277/744/664
f 8/729/649 277/744/664 290/730/650
f 14/745/665 200/746/666 7/742/662
f 7/742/662 200/746/666 199/747/667
f 7/742/662 199/747/667 203/748/668
f 14/745/665 13/685/605 200/746/666
f 200/746/666 13/685/605 197/749/669
f 197/749/669 13/685/605 185/750/670
f 185/750/670 13/685/605 186/751/671
f 186/751/671 13/685/605 147/752/672
f 186/751/671 147/752/672 187/753/673
f 187/753/673 147/752/672 146/754/674
f 187/753/673 146/754/674 188/755/675
f 188/755/675 146/754/674 145/756/676
f 188/755/675 145/756/676 189/757/677
f 189/757/677 145/756/676 144/758/678
f 189/757/677 144/758/678 190/759/679
f 190/759/679 144/758/678 183/760/680
f 183/760/680 144/758/678 143/761/681
f 183/760/680 143/761/681 171/762/682
f 171/762/682 143/761/681 167/763/683
f 171/762/682 167/763/683 169/764/684
f 21/707/627 30/765/685 3/701/621
f 3/701/621 30/765/685 63/766/686
f 3/701/621 63/766/686 62/767/687
f 30/765/685 29/768/688 63/766/686
f 63/766/686 29/768/688 64/769/689
f 64/769/689 29/768/688 28/770/690
f 64/769/689 28/770/690 65/771/691
f 65/771/691 28/770/690 27/772/692
f 65/771/691 27/772/692 66/773/693
f 66/773/693 27/772/692 26/774/694
f 66/773/693 26/774/694 25/775/695
f 66/773/693 25/775/695 53/776/696
f 53/776/696 25/775/695 37/777/697
f 53/776/696 37/777/697 51/778/698
f 51/778/698 37/777/697 39/779/699
f 39/779/699 37/777/697 44/780/700
f 39/779/699 44/780/700 43/781/701
f 43/781/701 42/782/702 39/779/699
f 39/779/699 42/782/702 41/783/703
f 39/779/699 41/783/703 40/784/704
f 62/767/687 61/785/705 3/701/621
f 3/701/621 61/785/705 60/702/622
f 97/703/623 60/702/622 98/786/706
f 98/786/706 60/702/622 59/787/707
f 98/786/706 59/787/707 99/788/708
f 99/788/708 59/787/707 58/789/709
f 99/788/708 58/789/709 100/790/710
f 100/790/710 58/789/709 57/791/711
f 100/790/710 57/791/711 101/792/712
f 101/792/712 57/791/711 56/793/713
f 101/792/712 56/793/713 102/794/714
f 102/794/714 56/793/713 95/795/715
f 95/795/715 56/793/713 55/796/716
f 95/795/715 55/796/716 83/797/717
f 83/797/717 55/796/716 79/798/718
f 83/797/717 79/798/718 81/799/719
f 88/800/720 87/801/721 81/799/719
f 81/799/719 87/801/721 86/802/722
f 81/799/719 86/802/722 85/803/723
f 85/803/723 84/804/724 81/799/719
f 81/799/719 84/804/724 83/797/717
f 154/698/618 113/700/620 141/805/725
f 141/805/725 113/700/620 125/806/726
f 141/805/725 125/806/726 139/807/727
f 139/807/727 125/806/726 127/808/728
f 127/808/728 125/806/726 132/809/729
f 127/808/728 132/809/729 131/810/730
f 131/810/730 130/811/731 127/808/728
f 127/808/728 130/811/731 129/812/732
f 127/808/728 129/812/732 128/813/733
f 148/687/607 147/752/672 13/685/605
f 176/814/734 175/815/735 169/764/684
f 169/764/684 175/815/735 174/816/736
f 169/764/684 174/816/736 173/817/737
f 173/817/737 172/818/738 169/764/684
f 169/764/684 172/818/738 171/762/682
f 203/748/668 210/819/739 7/742/662
f 7/742/662 210/819/739 243/820/740
f 7/742/662 243/820/740 242/821/741
f 210/819/739 209/822/742 243/820/740
f 243/820/740 209/822/742 244/823/743
f 244/823/743 209/822/742 208/824/744
f 244/823/743 208/824/744 245/825/745
f 245/825/745 208/824/744 207/826/746
f 245/825/745 207/826/746 246/827/747
f 246/827/747 207/826/746 206/828/748
f 246/827/747 206/828/748 205/829/749
f 246/827/747 205/829/749 233/830/750
f 233/830/750 205/829/749 217/831/751
f 233/830/750 217/831/751 231/832/752
f 231/832/752 217/831/751 219/833/753
f 219/833/753 217/831/751 224/834/754
f 219/833/753 224/834/754 223/835/755
f 223/835/755 222/836/756 219/833/753
f 219/833/753 222/836/756 221/837/757
f 219/833/753 221/837/757 220/838/758
f 242/821/741 241/839/759 7/742/662
f 7/742/662 241/839/759 240/743/663
f 277/744/664 240/743/663 278/840/760
f 278/840/760 240/743/663 239/841/761
f 278/840/760 239/841/761 279/842/762
f 279/842/762 239/841/761 238/843/763
f 279/842/762 238/843/763 280/844/764
f 280/844/764 238/843/763 237/845/765
f 280/844/764 237/845/765 281/846/766
f 281/846/766 237/845/765 236/847/767
f 281/846/766 236/847/767 282/848/768
f 282/848/768 236/847/767 275/849/769
f 275/849/769 236/847/767 235/850/770
f 275/849/769 235/850/770 263/851/771
f 263/851/771 235/850/770 259/852/772
f 263/851/771 259/852/772 261/853/773
f 268/854/774 267/855/775 261/853/773
f 261/853/773 267/855/775 266/856/776
f 261/853/773 266/856/776 265/857/777
f 265/857/777 264/858/778 261/853/773
f 261/853/773 264/858/778 263/851/771
f 334/739/659 293/741/661 321/859/779
f 321/859/779 293/741/661 305/860/780
f 321/859/779 305/860/780 319/861/781
f 319/861/781 305/860/780 307/862/782
f 307/862/782 305/860/780 312/863/783
f 307/862/782 312/863/783 311/864/784
f 311/864/784 310/865/785 307/862/782
f 307/862/782 310/865/785 309/866/786
f 307/862/782 309/866/786 308/867/787
f 328/728/648 327/712/632 1/708/628
f 356/868/788 355/869/789 349/724/644
f 349/724/644 355/869/789 354/870/790
f 349/724/644 354/870/790 353/871/791
f 353/871/791 352/872/792 349/724/644
f 349/724/644 352/872/792 351/722/642
# 380 vertices
# 872 texture params
# 792 normals
# 760 facets

# 1 groups
