ISO-10303-21;
HEADER;
/* Generated by software containing ST-Developer
 * from STEP Tools, Inc. (www.steptools.com) 
 */

FILE_DESCRIPTION(
/* description */ (''),
/* implementation_level */ '2;1');

FILE_NAME(
/* name */ 'Model.step',
/* time_stamp */ '2026-08-11T01:29:54+05:30',
/* author */ (''),
/* organization */ (''),
/* preprocessor_version */ 'ST-DEVELOPER v20.1',
/* originating_system */ 'Autodesk Translation Framework v15.8.0.0',
/* authorisation */ '');

FILE_SCHEMA (('AUTOMOTIVE_DESIGN { 1 0 10303 214 3 1 1 }'));
ENDSEC;

DATA;
#10=MECHANICAL_DESIGN_GEOMETRIC_PRESENTATION_REPRESENTATION('',(#13),#1943);
#11=SHAPE_REPRESENTATION_RELATIONSHIP('SRR','None',#1950,#12);
#12=ADVANCED_BREP_SHAPE_REPRESENTATION('',(#14),#1942);
#13=STYLED_ITEM('',(#1960),#14);
#14=MANIFOLD_SOLID_BREP('Body1',#1163);
#15=FACE_BOUND('',#192,.T.);
#16=FACE_BOUND('',#194,.T.);
#17=CIRCLE('',#1183,3.00000000000004);
#18=CIRCLE('',#1184,3.00000000000004);
#19=CIRCLE('',#1187,3.00000000000004);
#20=CIRCLE('',#1188,3.00000000000004);
#21=CIRCLE('',#1192,6.);
#22=CIRCLE('',#1193,6.);
#23=CIRCLE('',#1197,3.00000000000004);
#24=CIRCLE('',#1198,3.00000000000004);
#25=CIRCLE('',#1201,3.00000000000004);
#26=CIRCLE('',#1202,3.00000000000004);
#27=CIRCLE('',#1205,3.00000000000004);
#28=CIRCLE('',#1206,3.00000000000004);
#29=CIRCLE('',#1209,3.00000000000004);
#30=CIRCLE('',#1210,3.00000000000004);
#31=CIRCLE('',#1214,6.);
#32=CIRCLE('',#1215,6.);
#33=CIRCLE('',#1219,3.00000000000004);
#34=CIRCLE('',#1220,3.00000000000004);
#35=CIRCLE('',#1223,3.00000000000004);
#36=CIRCLE('',#1224,3.00000000000004);
#37=CIRCLE('',#1229,3.00000000000004);
#38=CIRCLE('',#1230,3.00000000000004);
#39=CIRCLE('',#1233,3.00000000000004);
#40=CIRCLE('',#1234,3.00000000000004);
#41=CIRCLE('',#1238,6.);
#42=CIRCLE('',#1239,6.);
#43=CIRCLE('',#1243,3.00000000000004);
#44=CIRCLE('',#1244,3.00000000000004);
#45=CIRCLE('',#1247,3.00000000000004);
#46=CIRCLE('',#1248,3.00000000000004);
#47=CIRCLE('',#1251,3.00000000000004);
#48=CIRCLE('',#1252,3.00000000000004);
#49=CIRCLE('',#1255,3.00000000000004);
#50=CIRCLE('',#1256,3.00000000000004);
#51=CIRCLE('',#1260,5.99999999999994);
#52=CIRCLE('',#1261,5.99999999999994);
#53=CIRCLE('',#1265,3.00000000000004);
#54=CIRCLE('',#1266,3.00000000000004);
#55=CIRCLE('',#1269,2.99999999999997);
#56=CIRCLE('',#1270,2.99999999999997);
#57=CYLINDRICAL_SURFACE('',#1182,3.00000000000004);
#58=CYLINDRICAL_SURFACE('',#1186,3.00000000000004);
#59=CYLINDRICAL_SURFACE('',#1191,6.);
#60=CYLINDRICAL_SURFACE('',#1196,3.00000000000004);
#61=CYLINDRICAL_SURFACE('',#1200,3.00000000000004);
#62=CYLINDRICAL_SURFACE('',#1204,3.00000000000004);
#63=CYLINDRICAL_SURFACE('',#1208,3.00000000000004);
#64=CYLINDRICAL_SURFACE('',#1213,6.);
#65=CYLINDRICAL_SURFACE('',#1218,3.00000000000004);
#66=CYLINDRICAL_SURFACE('',#1222,3.00000000000004);
#67=CYLINDRICAL_SURFACE('',#1228,3.00000000000004);
#68=CYLINDRICAL_SURFACE('',#1232,3.00000000000004);
#69=CYLINDRICAL_SURFACE('',#1237,6.);
#70=CYLINDRICAL_SURFACE('',#1242,3.00000000000004);
#71=CYLINDRICAL_SURFACE('',#1246,3.00000000000004);
#72=CYLINDRICAL_SURFACE('',#1250,3.00000000000004);
#73=CYLINDRICAL_SURFACE('',#1254,3.00000000000004);
#74=CYLINDRICAL_SURFACE('',#1259,5.99999999999994);
#75=CYLINDRICAL_SURFACE('',#1264,3.00000000000004);
#76=CYLINDRICAL_SURFACE('',#1268,2.99999999999997);
#77=FACE_OUTER_BOUND('',#135,.T.);
#78=FACE_OUTER_BOUND('',#136,.T.);
#79=FACE_OUTER_BOUND('',#137,.T.);
#80=FACE_OUTER_BOUND('',#138,.T.);
#81=FACE_OUTER_BOUND('',#139,.T.);
#82=FACE_OUTER_BOUND('',#140,.T.);
#83=FACE_OUTER_BOUND('',#141,.T.);
#84=FACE_OUTER_BOUND('',#142,.T.);
#85=FACE_OUTER_BOUND('',#143,.T.);
#86=FACE_OUTER_BOUND('',#144,.T.);
#87=FACE_OUTER_BOUND('',#145,.T.);
#88=FACE_OUTER_BOUND('',#146,.T.);
#89=FACE_OUTER_BOUND('',#147,.T.);
#90=FACE_OUTER_BOUND('',#148,.T.);
#91=FACE_OUTER_BOUND('',#149,.T.);
#92=FACE_OUTER_BOUND('',#150,.T.);
#93=FACE_OUTER_BOUND('',#151,.T.);
#94=FACE_OUTER_BOUND('',#152,.T.);
#95=FACE_OUTER_BOUND('',#153,.T.);
#96=FACE_OUTER_BOUND('',#154,.T.);
#97=FACE_OUTER_BOUND('',#155,.T.);
#98=FACE_OUTER_BOUND('',#156,.T.);
#99=FACE_OUTER_BOUND('',#157,.T.);
#100=FACE_OUTER_BOUND('',#158,.T.);
#101=FACE_OUTER_BOUND('',#159,.T.);
#102=FACE_OUTER_BOUND('',#160,.T.);
#103=FACE_OUTER_BOUND('',#161,.T.);
#104=FACE_OUTER_BOUND('',#162,.T.);
#105=FACE_OUTER_BOUND('',#163,.T.);
#106=FACE_OUTER_BOUND('',#164,.T.);
#107=FACE_OUTER_BOUND('',#165,.T.);
#108=FACE_OUTER_BOUND('',#166,.T.);
#109=FACE_OUTER_BOUND('',#167,.T.);
#110=FACE_OUTER_BOUND('',#168,.T.);
#111=FACE_OUTER_BOUND('',#169,.T.);
#112=FACE_OUTER_BOUND('',#170,.T.);
#113=FACE_OUTER_BOUND('',#171,.T.);
#114=FACE_OUTER_BOUND('',#172,.T.);
#115=FACE_OUTER_BOUND('',#173,.T.);
#116=FACE_OUTER_BOUND('',#174,.T.);
#117=FACE_OUTER_BOUND('',#175,.T.);
#118=FACE_OUTER_BOUND('',#176,.T.);
#119=FACE_OUTER_BOUND('',#177,.T.);
#120=FACE_OUTER_BOUND('',#178,.T.);
#121=FACE_OUTER_BOUND('',#179,.T.);
#122=FACE_OUTER_BOUND('',#180,.T.);
#123=FACE_OUTER_BOUND('',#181,.T.);
#124=FACE_OUTER_BOUND('',#182,.T.);
#125=FACE_OUTER_BOUND('',#183,.T.);
#126=FACE_OUTER_BOUND('',#184,.T.);
#127=FACE_OUTER_BOUND('',#185,.T.);
#128=FACE_OUTER_BOUND('',#186,.T.);
#129=FACE_OUTER_BOUND('',#187,.T.);
#130=FACE_OUTER_BOUND('',#188,.T.);
#131=FACE_OUTER_BOUND('',#189,.T.);
#132=FACE_OUTER_BOUND('',#190,.T.);
#133=FACE_OUTER_BOUND('',#191,.T.);
#134=FACE_OUTER_BOUND('',#193,.T.);
#135=EDGE_LOOP('',(#731,#732,#733,#734));
#136=EDGE_LOOP('',(#735,#736,#737,#738));
#137=EDGE_LOOP('',(#739,#740,#741,#742));
#138=EDGE_LOOP('',(#743,#744,#745,#746));
#139=EDGE_LOOP('',(#747,#748,#749,#750));
#140=EDGE_LOOP('',(#751,#752,#753,#754));
#141=EDGE_LOOP('',(#755,#756,#757,#758));
#142=EDGE_LOOP('',(#759,#760,#761,#762));
#143=EDGE_LOOP('',(#763,#764,#765,#766));
#144=EDGE_LOOP('',(#767,#768,#769,#770));
#145=EDGE_LOOP('',(#771,#772,#773,#774));
#146=EDGE_LOOP('',(#775,#776,#777,#778));
#147=EDGE_LOOP('',(#779,#780,#781,#782));
#148=EDGE_LOOP('',(#783,#784,#785,#786));
#149=EDGE_LOOP('',(#787,#788,#789,#790));
#150=EDGE_LOOP('',(#791,#792,#793,#794));
#151=EDGE_LOOP('',(#795,#796,#797,#798));
#152=EDGE_LOOP('',(#799,#800,#801,#802));
#153=EDGE_LOOP('',(#803,#804,#805,#806));
#154=EDGE_LOOP('',(#807,#808,#809,#810));
#155=EDGE_LOOP('',(#811,#812,#813,#814));
#156=EDGE_LOOP('',(#815,#816,#817,#818));
#157=EDGE_LOOP('',(#819,#820,#821,#822));
#158=EDGE_LOOP('',(#823,#824,#825,#826));
#159=EDGE_LOOP('',(#827,#828,#829,#830));
#160=EDGE_LOOP('',(#831,#832,#833,#834));
#161=EDGE_LOOP('',(#835,#836,#837,#838));
#162=EDGE_LOOP('',(#839,#840,#841,#842));
#163=EDGE_LOOP('',(#843,#844,#845,#846));
#164=EDGE_LOOP('',(#847,#848,#849,#850));
#165=EDGE_LOOP('',(#851,#852,#853,#854));
#166=EDGE_LOOP('',(#855,#856,#857,#858));
#167=EDGE_LOOP('',(#859,#860,#861,#862));
#168=EDGE_LOOP('',(#863,#864,#865,#866));
#169=EDGE_LOOP('',(#867,#868,#869,#870));
#170=EDGE_LOOP('',(#871,#872,#873,#874));
#171=EDGE_LOOP('',(#875,#876,#877,#878));
#172=EDGE_LOOP('',(#879,#880,#881,#882));
#173=EDGE_LOOP('',(#883,#884,#885,#886));
#174=EDGE_LOOP('',(#887,#888,#889,#890));
#175=EDGE_LOOP('',(#891,#892,#893,#894));
#176=EDGE_LOOP('',(#895,#896,#897,#898));
#177=EDGE_LOOP('',(#899,#900,#901,#902));
#178=EDGE_LOOP('',(#903,#904,#905,#906));
#179=EDGE_LOOP('',(#907,#908,#909,#910));
#180=EDGE_LOOP('',(#911,#912,#913,#914));
#181=EDGE_LOOP('',(#915,#916,#917,#918));
#182=EDGE_LOOP('',(#919,#920,#921,#922));
#183=EDGE_LOOP('',(#923,#924,#925,#926));
#184=EDGE_LOOP('',(#927,#928,#929,#930));
#185=EDGE_LOOP('',(#931,#932,#933,#934));
#186=EDGE_LOOP('',(#935,#936,#937,#938));
#187=EDGE_LOOP('',(#939,#940,#941,#942));
#188=EDGE_LOOP('',(#943,#944,#945,#946));
#189=EDGE_LOOP('',(#947,#948,#949,#950));
#190=EDGE_LOOP('',(#951,#952,#953,#954));
#191=EDGE_LOOP('',(#955,#956,#957,#958,#959,#960,#961,#962,#963,#964,#965,
#966,#967,#968,#969,#970,#971,#972,#973,#974,#975,#976,#977,#978,#979,#980,
#981,#982,#983,#984,#985,#986,#987,#988,#989,#990,#991,#992,#993,#994,#995,
#996,#997,#998,#999,#1000,#1001,#1002,#1003,#1004,#1005,#1006));
#192=EDGE_LOOP('',(#1007,#1008,#1009,#1010));
#193=EDGE_LOOP('',(#1011,#1012,#1013,#1014,#1015,#1016,#1017,#1018,#1019,
#1020,#1021,#1022,#1023,#1024,#1025,#1026,#1027,#1028,#1029,#1030,#1031,
#1032,#1033,#1034,#1035,#1036,#1037,#1038,#1039,#1040,#1041,#1042,#1043,
#1044,#1045,#1046,#1047,#1048,#1049,#1050,#1051,#1052,#1053,#1054,#1055,
#1056,#1057,#1058,#1059,#1060,#1061,#1062));
#194=EDGE_LOOP('',(#1063,#1064,#1065,#1066));
#195=LINE('',#1605,#323);
#196=LINE('',#1607,#324);
#197=LINE('',#1609,#325);
#198=LINE('',#1610,#326);
#199=LINE('',#1613,#327);
#200=LINE('',#1615,#328);
#201=LINE('',#1616,#329);
#202=LINE('',#1619,#330);
#203=LINE('',#1621,#331);
#204=LINE('',#1622,#332);
#205=LINE('',#1624,#333);
#206=LINE('',#1625,#334);
#207=LINE('',#1629,#335);
#208=LINE('',#1631,#336);
#209=LINE('',#1633,#337);
#210=LINE('',#1634,#338);
#211=LINE('',#1640,#339);
#212=LINE('',#1643,#340);
#213=LINE('',#1645,#341);
#214=LINE('',#1646,#342);
#215=LINE('',#1652,#343);
#216=LINE('',#1655,#344);
#217=LINE('',#1657,#345);
#218=LINE('',#1658,#346);
#219=LINE('',#1661,#347);
#220=LINE('',#1663,#348);
#221=LINE('',#1664,#349);
#222=LINE('',#1670,#350);
#223=LINE('',#1673,#351);
#224=LINE('',#1675,#352);
#225=LINE('',#1676,#353);
#226=LINE('',#1679,#354);
#227=LINE('',#1681,#355);
#228=LINE('',#1682,#356);
#229=LINE('',#1688,#357);
#230=LINE('',#1691,#358);
#231=LINE('',#1693,#359);
#232=LINE('',#1694,#360);
#233=LINE('',#1700,#361);
#234=LINE('',#1703,#362);
#235=LINE('',#1705,#363);
#236=LINE('',#1706,#364);
#237=LINE('',#1712,#365);
#238=LINE('',#1715,#366);
#239=LINE('',#1717,#367);
#240=LINE('',#1718,#368);
#241=LINE('',#1724,#369);
#242=LINE('',#1727,#370);
#243=LINE('',#1729,#371);
#244=LINE('',#1730,#372);
#245=LINE('',#1733,#373);
#246=LINE('',#1735,#374);
#247=LINE('',#1736,#375);
#248=LINE('',#1742,#376);
#249=LINE('',#1745,#377);
#250=LINE('',#1747,#378);
#251=LINE('',#1748,#379);
#252=LINE('',#1751,#380);
#253=LINE('',#1753,#381);
#254=LINE('',#1754,#382);
#255=LINE('',#1760,#383);
#256=LINE('',#1763,#384);
#257=LINE('',#1765,#385);
#258=LINE('',#1766,#386);
#259=LINE('',#1772,#387);
#260=LINE('',#1775,#388);
#261=LINE('',#1777,#389);
#262=LINE('',#1778,#390);
#263=LINE('',#1781,#391);
#264=LINE('',#1783,#392);
#265=LINE('',#1784,#393);
#266=LINE('',#1787,#394);
#267=LINE('',#1789,#395);
#268=LINE('',#1790,#396);
#269=LINE('',#1796,#397);
#270=LINE('',#1799,#398);
#271=LINE('',#1801,#399);
#272=LINE('',#1802,#400);
#273=LINE('',#1808,#401);
#274=LINE('',#1811,#402);
#275=LINE('',#1813,#403);
#276=LINE('',#1814,#404);
#277=LINE('',#1817,#405);
#278=LINE('',#1819,#406);
#279=LINE('',#1820,#407);
#280=LINE('',#1826,#408);
#281=LINE('',#1829,#409);
#282=LINE('',#1831,#410);
#283=LINE('',#1832,#411);
#284=LINE('',#1835,#412);
#285=LINE('',#1837,#413);
#286=LINE('',#1838,#414);
#287=LINE('',#1844,#415);
#288=LINE('',#1847,#416);
#289=LINE('',#1849,#417);
#290=LINE('',#1850,#418);
#291=LINE('',#1856,#419);
#292=LINE('',#1859,#420);
#293=LINE('',#1861,#421);
#294=LINE('',#1862,#422);
#295=LINE('',#1868,#423);
#296=LINE('',#1871,#424);
#297=LINE('',#1873,#425);
#298=LINE('',#1874,#426);
#299=LINE('',#1880,#427);
#300=LINE('',#1883,#428);
#301=LINE('',#1885,#429);
#302=LINE('',#1886,#430);
#303=LINE('',#1889,#431);
#304=LINE('',#1891,#432);
#305=LINE('',#1892,#433);
#306=LINE('',#1898,#434);
#307=LINE('',#1901,#435);
#308=LINE('',#1903,#436);
#309=LINE('',#1904,#437);
#310=LINE('',#1907,#438);
#311=LINE('',#1909,#439);
#312=LINE('',#1910,#440);
#313=LINE('',#1916,#441);
#314=LINE('',#1919,#442);
#315=LINE('',#1921,#443);
#316=LINE('',#1922,#444);
#317=LINE('',#1928,#445);
#318=LINE('',#1931,#446);
#319=LINE('',#1933,#447);
#320=LINE('',#1934,#448);
#321=LINE('',#1936,#449);
#322=LINE('',#1937,#450);
#323=VECTOR('',#1279,10.);
#324=VECTOR('',#1280,10.);
#325=VECTOR('',#1281,10.);
#326=VECTOR('',#1282,10.);
#327=VECTOR('',#1285,10.);
#328=VECTOR('',#1286,10.);
#329=VECTOR('',#1287,10.);
#330=VECTOR('',#1290,10.);
#331=VECTOR('',#1291,10.);
#332=VECTOR('',#1292,10.);
#333=VECTOR('',#1295,10.);
#334=VECTOR('',#1296,10.);
#335=VECTOR('',#1299,10.);
#336=VECTOR('',#1300,10.);
#337=VECTOR('',#1301,10.);
#338=VECTOR('',#1302,10.);
#339=VECTOR('',#1309,10.);
#340=VECTOR('',#1312,10.);
#341=VECTOR('',#1313,10.);
#342=VECTOR('',#1314,10.);
#343=VECTOR('',#1321,10.);
#344=VECTOR('',#1324,10.);
#345=VECTOR('',#1325,10.);
#346=VECTOR('',#1326,10.);
#347=VECTOR('',#1329,10.);
#348=VECTOR('',#1330,10.);
#349=VECTOR('',#1331,10.);
#350=VECTOR('',#1338,10.);
#351=VECTOR('',#1341,10.);
#352=VECTOR('',#1342,10.);
#353=VECTOR('',#1343,10.);
#354=VECTOR('',#1346,10.);
#355=VECTOR('',#1347,10.);
#356=VECTOR('',#1348,10.);
#357=VECTOR('',#1355,10.);
#358=VECTOR('',#1358,10.);
#359=VECTOR('',#1359,10.);
#360=VECTOR('',#1360,10.);
#361=VECTOR('',#1367,10.);
#362=VECTOR('',#1370,10.);
#363=VECTOR('',#1371,10.);
#364=VECTOR('',#1372,10.);
#365=VECTOR('',#1379,10.);
#366=VECTOR('',#1382,10.);
#367=VECTOR('',#1383,10.);
#368=VECTOR('',#1384,10.);
#369=VECTOR('',#1391,10.);
#370=VECTOR('',#1394,10.);
#371=VECTOR('',#1395,10.);
#372=VECTOR('',#1396,10.);
#373=VECTOR('',#1399,10.);
#374=VECTOR('',#1400,10.);
#375=VECTOR('',#1401,10.);
#376=VECTOR('',#1408,10.);
#377=VECTOR('',#1411,10.);
#378=VECTOR('',#1412,10.);
#379=VECTOR('',#1413,10.);
#380=VECTOR('',#1416,10.);
#381=VECTOR('',#1417,10.);
#382=VECTOR('',#1418,10.);
#383=VECTOR('',#1425,10.);
#384=VECTOR('',#1428,10.);
#385=VECTOR('',#1429,10.);
#386=VECTOR('',#1430,10.);
#387=VECTOR('',#1437,10.);
#388=VECTOR('',#1440,10.);
#389=VECTOR('',#1441,10.);
#390=VECTOR('',#1442,10.);
#391=VECTOR('',#1445,10.);
#392=VECTOR('',#1446,10.);
#393=VECTOR('',#1447,10.);
#394=VECTOR('',#1450,10.);
#395=VECTOR('',#1451,10.);
#396=VECTOR('',#1452,10.);
#397=VECTOR('',#1459,10.);
#398=VECTOR('',#1462,10.);
#399=VECTOR('',#1463,10.);
#400=VECTOR('',#1464,10.);
#401=VECTOR('',#1471,10.);
#402=VECTOR('',#1474,10.);
#403=VECTOR('',#1475,10.);
#404=VECTOR('',#1476,10.);
#405=VECTOR('',#1479,10.);
#406=VECTOR('',#1480,10.);
#407=VECTOR('',#1481,10.);
#408=VECTOR('',#1488,10.);
#409=VECTOR('',#1491,10.);
#410=VECTOR('',#1492,10.);
#411=VECTOR('',#1493,10.);
#412=VECTOR('',#1496,10.);
#413=VECTOR('',#1497,10.);
#414=VECTOR('',#1498,10.);
#415=VECTOR('',#1505,10.);
#416=VECTOR('',#1508,10.);
#417=VECTOR('',#1509,10.);
#418=VECTOR('',#1510,10.);
#419=VECTOR('',#1517,10.);
#420=VECTOR('',#1520,10.);
#421=VECTOR('',#1521,10.);
#422=VECTOR('',#1522,10.);
#423=VECTOR('',#1529,10.);
#424=VECTOR('',#1532,10.);
#425=VECTOR('',#1533,10.);
#426=VECTOR('',#1534,10.);
#427=VECTOR('',#1541,10.);
#428=VECTOR('',#1544,10.);
#429=VECTOR('',#1545,10.);
#430=VECTOR('',#1546,10.);
#431=VECTOR('',#1549,10.);
#432=VECTOR('',#1550,10.);
#433=VECTOR('',#1551,10.);
#434=VECTOR('',#1558,10.);
#435=VECTOR('',#1561,10.);
#436=VECTOR('',#1562,10.);
#437=VECTOR('',#1563,10.);
#438=VECTOR('',#1566,10.);
#439=VECTOR('',#1567,10.);
#440=VECTOR('',#1568,10.);
#441=VECTOR('',#1575,10.);
#442=VECTOR('',#1578,10.);
#443=VECTOR('',#1579,10.);
#444=VECTOR('',#1580,10.);
#445=VECTOR('',#1587,10.);
#446=VECTOR('',#1590,10.);
#447=VECTOR('',#1591,10.);
#448=VECTOR('',#1592,10.);
#449=VECTOR('',#1595,10.);
#450=VECTOR('',#1596,10.);
#451=VERTEX_POINT('',#1603);
#452=VERTEX_POINT('',#1604);
#453=VERTEX_POINT('',#1606);
#454=VERTEX_POINT('',#1608);
#455=VERTEX_POINT('',#1612);
#456=VERTEX_POINT('',#1614);
#457=VERTEX_POINT('',#1618);
#458=VERTEX_POINT('',#1620);
#459=VERTEX_POINT('',#1627);
#460=VERTEX_POINT('',#1628);
#461=VERTEX_POINT('',#1630);
#462=VERTEX_POINT('',#1632);
#463=VERTEX_POINT('',#1636);
#464=VERTEX_POINT('',#1638);
#465=VERTEX_POINT('',#1642);
#466=VERTEX_POINT('',#1644);
#467=VERTEX_POINT('',#1648);
#468=VERTEX_POINT('',#1650);
#469=VERTEX_POINT('',#1654);
#470=VERTEX_POINT('',#1656);
#471=VERTEX_POINT('',#1660);
#472=VERTEX_POINT('',#1662);
#473=VERTEX_POINT('',#1666);
#474=VERTEX_POINT('',#1668);
#475=VERTEX_POINT('',#1672);
#476=VERTEX_POINT('',#1674);
#477=VERTEX_POINT('',#1678);
#478=VERTEX_POINT('',#1680);
#479=VERTEX_POINT('',#1684);
#480=VERTEX_POINT('',#1686);
#481=VERTEX_POINT('',#1690);
#482=VERTEX_POINT('',#1692);
#483=VERTEX_POINT('',#1696);
#484=VERTEX_POINT('',#1698);
#485=VERTEX_POINT('',#1702);
#486=VERTEX_POINT('',#1704);
#487=VERTEX_POINT('',#1708);
#488=VERTEX_POINT('',#1710);
#489=VERTEX_POINT('',#1714);
#490=VERTEX_POINT('',#1716);
#491=VERTEX_POINT('',#1720);
#492=VERTEX_POINT('',#1722);
#493=VERTEX_POINT('',#1726);
#494=VERTEX_POINT('',#1728);
#495=VERTEX_POINT('',#1732);
#496=VERTEX_POINT('',#1734);
#497=VERTEX_POINT('',#1738);
#498=VERTEX_POINT('',#1740);
#499=VERTEX_POINT('',#1744);
#500=VERTEX_POINT('',#1746);
#501=VERTEX_POINT('',#1750);
#502=VERTEX_POINT('',#1752);
#503=VERTEX_POINT('',#1756);
#504=VERTEX_POINT('',#1758);
#505=VERTEX_POINT('',#1762);
#506=VERTEX_POINT('',#1764);
#507=VERTEX_POINT('',#1768);
#508=VERTEX_POINT('',#1770);
#509=VERTEX_POINT('',#1774);
#510=VERTEX_POINT('',#1776);
#511=VERTEX_POINT('',#1780);
#512=VERTEX_POINT('',#1782);
#513=VERTEX_POINT('',#1786);
#514=VERTEX_POINT('',#1788);
#515=VERTEX_POINT('',#1792);
#516=VERTEX_POINT('',#1794);
#517=VERTEX_POINT('',#1798);
#518=VERTEX_POINT('',#1800);
#519=VERTEX_POINT('',#1804);
#520=VERTEX_POINT('',#1806);
#521=VERTEX_POINT('',#1810);
#522=VERTEX_POINT('',#1812);
#523=VERTEX_POINT('',#1816);
#524=VERTEX_POINT('',#1818);
#525=VERTEX_POINT('',#1822);
#526=VERTEX_POINT('',#1824);
#527=VERTEX_POINT('',#1828);
#528=VERTEX_POINT('',#1830);
#529=VERTEX_POINT('',#1834);
#530=VERTEX_POINT('',#1836);
#531=VERTEX_POINT('',#1840);
#532=VERTEX_POINT('',#1842);
#533=VERTEX_POINT('',#1846);
#534=VERTEX_POINT('',#1848);
#535=VERTEX_POINT('',#1852);
#536=VERTEX_POINT('',#1854);
#537=VERTEX_POINT('',#1858);
#538=VERTEX_POINT('',#1860);
#539=VERTEX_POINT('',#1864);
#540=VERTEX_POINT('',#1866);
#541=VERTEX_POINT('',#1870);
#542=VERTEX_POINT('',#1872);
#543=VERTEX_POINT('',#1876);
#544=VERTEX_POINT('',#1878);
#545=VERTEX_POINT('',#1882);
#546=VERTEX_POINT('',#1884);
#547=VERTEX_POINT('',#1888);
#548=VERTEX_POINT('',#1890);
#549=VERTEX_POINT('',#1894);
#550=VERTEX_POINT('',#1896);
#551=VERTEX_POINT('',#1900);
#552=VERTEX_POINT('',#1902);
#553=VERTEX_POINT('',#1906);
#554=VERTEX_POINT('',#1908);
#555=VERTEX_POINT('',#1912);
#556=VERTEX_POINT('',#1914);
#557=VERTEX_POINT('',#1918);
#558=VERTEX_POINT('',#1920);
#559=VERTEX_POINT('',#1924);
#560=VERTEX_POINT('',#1926);
#561=VERTEX_POINT('',#1930);
#562=VERTEX_POINT('',#1932);
#563=EDGE_CURVE('',#451,#452,#195,.T.);
#564=EDGE_CURVE('',#452,#453,#196,.T.);
#565=EDGE_CURVE('',#454,#453,#197,.T.);
#566=EDGE_CURVE('',#451,#454,#198,.T.);
#567=EDGE_CURVE('',#455,#451,#199,.T.);
#568=EDGE_CURVE('',#456,#454,#200,.T.);
#569=EDGE_CURVE('',#455,#456,#201,.T.);
#570=EDGE_CURVE('',#457,#455,#202,.T.);
#571=EDGE_CURVE('',#458,#456,#203,.T.);
#572=EDGE_CURVE('',#457,#458,#204,.T.);
#573=EDGE_CURVE('',#452,#457,#205,.T.);
#574=EDGE_CURVE('',#453,#458,#206,.T.);
#575=EDGE_CURVE('',#459,#460,#207,.T.);
#576=EDGE_CURVE('',#460,#461,#208,.T.);
#577=EDGE_CURVE('',#462,#461,#209,.T.);
#578=EDGE_CURVE('',#459,#462,#210,.T.);
#579=EDGE_CURVE('',#459,#463,#17,.T.);
#580=EDGE_CURVE('',#464,#462,#18,.T.);
#581=EDGE_CURVE('',#463,#464,#211,.T.);
#582=EDGE_CURVE('',#463,#465,#212,.T.);
#583=EDGE_CURVE('',#466,#464,#213,.T.);
#584=EDGE_CURVE('',#465,#466,#214,.T.);
#585=EDGE_CURVE('',#467,#465,#19,.T.);
#586=EDGE_CURVE('',#468,#466,#20,.T.);
#587=EDGE_CURVE('',#467,#468,#215,.T.);
#588=EDGE_CURVE('',#467,#469,#216,.T.);
#589=EDGE_CURVE('',#470,#468,#217,.T.);
#590=EDGE_CURVE('',#469,#470,#218,.T.);
#591=EDGE_CURVE('',#469,#471,#219,.T.);
#592=EDGE_CURVE('',#472,#470,#220,.T.);
#593=EDGE_CURVE('',#471,#472,#221,.T.);
#594=EDGE_CURVE('',#471,#473,#21,.T.);
#595=EDGE_CURVE('',#474,#472,#22,.T.);
#596=EDGE_CURVE('',#473,#474,#222,.T.);
#597=EDGE_CURVE('',#473,#475,#223,.T.);
#598=EDGE_CURVE('',#476,#474,#224,.T.);
#599=EDGE_CURVE('',#475,#476,#225,.T.);
#600=EDGE_CURVE('',#475,#477,#226,.T.);
#601=EDGE_CURVE('',#478,#476,#227,.T.);
#602=EDGE_CURVE('',#477,#478,#228,.T.);
#603=EDGE_CURVE('',#479,#477,#23,.T.);
#604=EDGE_CURVE('',#480,#478,#24,.T.);
#605=EDGE_CURVE('',#479,#480,#229,.T.);
#606=EDGE_CURVE('',#479,#481,#230,.T.);
#607=EDGE_CURVE('',#482,#480,#231,.T.);
#608=EDGE_CURVE('',#481,#482,#232,.T.);
#609=EDGE_CURVE('',#481,#483,#25,.T.);
#610=EDGE_CURVE('',#484,#482,#26,.T.);
#611=EDGE_CURVE('',#483,#484,#233,.T.);
#612=EDGE_CURVE('',#485,#483,#234,.T.);
#613=EDGE_CURVE('',#486,#484,#235,.T.);
#614=EDGE_CURVE('',#485,#486,#236,.T.);
#615=EDGE_CURVE('',#485,#487,#27,.T.);
#616=EDGE_CURVE('',#488,#486,#28,.T.);
#617=EDGE_CURVE('',#487,#488,#237,.T.);
#618=EDGE_CURVE('',#489,#487,#238,.T.);
#619=EDGE_CURVE('',#490,#488,#239,.T.);
#620=EDGE_CURVE('',#489,#490,#240,.T.);
#621=EDGE_CURVE('',#491,#489,#29,.T.);
#622=EDGE_CURVE('',#492,#490,#30,.T.);
#623=EDGE_CURVE('',#491,#492,#241,.T.);
#624=EDGE_CURVE('',#493,#491,#242,.T.);
#625=EDGE_CURVE('',#494,#492,#243,.T.);
#626=EDGE_CURVE('',#493,#494,#244,.T.);
#627=EDGE_CURVE('',#495,#493,#245,.T.);
#628=EDGE_CURVE('',#496,#494,#246,.T.);
#629=EDGE_CURVE('',#495,#496,#247,.T.);
#630=EDGE_CURVE('',#495,#497,#31,.T.);
#631=EDGE_CURVE('',#498,#496,#32,.T.);
#632=EDGE_CURVE('',#497,#498,#248,.T.);
#633=EDGE_CURVE('',#499,#497,#249,.T.);
#634=EDGE_CURVE('',#500,#498,#250,.T.);
#635=EDGE_CURVE('',#499,#500,#251,.T.);
#636=EDGE_CURVE('',#501,#499,#252,.T.);
#637=EDGE_CURVE('',#502,#500,#253,.T.);
#638=EDGE_CURVE('',#501,#502,#254,.T.);
#639=EDGE_CURVE('',#503,#501,#33,.T.);
#640=EDGE_CURVE('',#504,#502,#34,.T.);
#641=EDGE_CURVE('',#503,#504,#255,.T.);
#642=EDGE_CURVE('',#505,#503,#256,.T.);
#643=EDGE_CURVE('',#506,#504,#257,.T.);
#644=EDGE_CURVE('',#505,#506,#258,.T.);
#645=EDGE_CURVE('',#505,#507,#35,.T.);
#646=EDGE_CURVE('',#508,#506,#36,.T.);
#647=EDGE_CURVE('',#507,#508,#259,.T.);
#648=EDGE_CURVE('',#509,#507,#260,.T.);
#649=EDGE_CURVE('',#510,#508,#261,.T.);
#650=EDGE_CURVE('',#509,#510,#262,.T.);
#651=EDGE_CURVE('',#511,#509,#263,.T.);
#652=EDGE_CURVE('',#512,#510,#264,.T.);
#653=EDGE_CURVE('',#511,#512,#265,.T.);
#654=EDGE_CURVE('',#513,#511,#266,.T.);
#655=EDGE_CURVE('',#514,#512,#267,.T.);
#656=EDGE_CURVE('',#513,#514,#268,.T.);
#657=EDGE_CURVE('',#513,#515,#37,.T.);
#658=EDGE_CURVE('',#516,#514,#38,.T.);
#659=EDGE_CURVE('',#515,#516,#269,.T.);
#660=EDGE_CURVE('',#515,#517,#270,.T.);
#661=EDGE_CURVE('',#518,#516,#271,.T.);
#662=EDGE_CURVE('',#517,#518,#272,.T.);
#663=EDGE_CURVE('',#519,#517,#39,.T.);
#664=EDGE_CURVE('',#520,#518,#40,.T.);
#665=EDGE_CURVE('',#519,#520,#273,.T.);
#666=EDGE_CURVE('',#519,#521,#274,.T.);
#667=EDGE_CURVE('',#522,#520,#275,.T.);
#668=EDGE_CURVE('',#521,#522,#276,.T.);
#669=EDGE_CURVE('',#521,#523,#277,.T.);
#670=EDGE_CURVE('',#524,#522,#278,.T.);
#671=EDGE_CURVE('',#523,#524,#279,.T.);
#672=EDGE_CURVE('',#523,#525,#41,.T.);
#673=EDGE_CURVE('',#526,#524,#42,.T.);
#674=EDGE_CURVE('',#525,#526,#280,.T.);
#675=EDGE_CURVE('',#525,#527,#281,.T.);
#676=EDGE_CURVE('',#528,#526,#282,.T.);
#677=EDGE_CURVE('',#527,#528,#283,.T.);
#678=EDGE_CURVE('',#527,#529,#284,.T.);
#679=EDGE_CURVE('',#530,#528,#285,.T.);
#680=EDGE_CURVE('',#529,#530,#286,.T.);
#681=EDGE_CURVE('',#531,#529,#43,.T.);
#682=EDGE_CURVE('',#532,#530,#44,.T.);
#683=EDGE_CURVE('',#531,#532,#287,.T.);
#684=EDGE_CURVE('',#531,#533,#288,.T.);
#685=EDGE_CURVE('',#534,#532,#289,.T.);
#686=EDGE_CURVE('',#533,#534,#290,.T.);
#687=EDGE_CURVE('',#533,#535,#45,.T.);
#688=EDGE_CURVE('',#536,#534,#46,.T.);
#689=EDGE_CURVE('',#535,#536,#291,.T.);
#690=EDGE_CURVE('',#537,#535,#292,.T.);
#691=EDGE_CURVE('',#538,#536,#293,.T.);
#692=EDGE_CURVE('',#537,#538,#294,.T.);
#693=EDGE_CURVE('',#537,#539,#47,.T.);
#694=EDGE_CURVE('',#540,#538,#48,.T.);
#695=EDGE_CURVE('',#539,#540,#295,.T.);
#696=EDGE_CURVE('',#541,#539,#296,.T.);
#697=EDGE_CURVE('',#542,#540,#297,.T.);
#698=EDGE_CURVE('',#541,#542,#298,.T.);
#699=EDGE_CURVE('',#543,#541,#49,.T.);
#700=EDGE_CURVE('',#544,#542,#50,.T.);
#701=EDGE_CURVE('',#543,#544,#299,.T.);
#702=EDGE_CURVE('',#545,#543,#300,.T.);
#703=EDGE_CURVE('',#546,#544,#301,.T.);
#704=EDGE_CURVE('',#545,#546,#302,.T.);
#705=EDGE_CURVE('',#547,#545,#303,.T.);
#706=EDGE_CURVE('',#548,#546,#304,.T.);
#707=EDGE_CURVE('',#547,#548,#305,.T.);
#708=EDGE_CURVE('',#547,#549,#51,.T.);
#709=EDGE_CURVE('',#550,#548,#52,.T.);
#710=EDGE_CURVE('',#549,#550,#306,.T.);
#711=EDGE_CURVE('',#551,#549,#307,.T.);
#712=EDGE_CURVE('',#552,#550,#308,.T.);
#713=EDGE_CURVE('',#551,#552,#309,.T.);
#714=EDGE_CURVE('',#553,#551,#310,.T.);
#715=EDGE_CURVE('',#554,#552,#311,.T.);
#716=EDGE_CURVE('',#553,#554,#312,.T.);
#717=EDGE_CURVE('',#555,#553,#53,.T.);
#718=EDGE_CURVE('',#556,#554,#54,.T.);
#719=EDGE_CURVE('',#555,#556,#313,.T.);
#720=EDGE_CURVE('',#557,#555,#314,.T.);
#721=EDGE_CURVE('',#558,#556,#315,.T.);
#722=EDGE_CURVE('',#557,#558,#316,.T.);
#723=EDGE_CURVE('',#557,#559,#55,.T.);
#724=EDGE_CURVE('',#560,#558,#56,.T.);
#725=EDGE_CURVE('',#559,#560,#317,.T.);
#726=EDGE_CURVE('',#561,#559,#318,.T.);
#727=EDGE_CURVE('',#562,#560,#319,.T.);
#728=EDGE_CURVE('',#561,#562,#320,.T.);
#729=EDGE_CURVE('',#460,#561,#321,.T.);
#730=EDGE_CURVE('',#461,#562,#322,.T.);
#731=ORIENTED_EDGE('',*,*,#563,.T.);
#732=ORIENTED_EDGE('',*,*,#564,.T.);
#733=ORIENTED_EDGE('',*,*,#565,.F.);
#734=ORIENTED_EDGE('',*,*,#566,.F.);
#735=ORIENTED_EDGE('',*,*,#567,.T.);
#736=ORIENTED_EDGE('',*,*,#566,.T.);
#737=ORIENTED_EDGE('',*,*,#568,.F.);
#738=ORIENTED_EDGE('',*,*,#569,.F.);
#739=ORIENTED_EDGE('',*,*,#570,.T.);
#740=ORIENTED_EDGE('',*,*,#569,.T.);
#741=ORIENTED_EDGE('',*,*,#571,.F.);
#742=ORIENTED_EDGE('',*,*,#572,.F.);
#743=ORIENTED_EDGE('',*,*,#573,.T.);
#744=ORIENTED_EDGE('',*,*,#572,.T.);
#745=ORIENTED_EDGE('',*,*,#574,.F.);
#746=ORIENTED_EDGE('',*,*,#564,.F.);
#747=ORIENTED_EDGE('',*,*,#575,.T.);
#748=ORIENTED_EDGE('',*,*,#576,.T.);
#749=ORIENTED_EDGE('',*,*,#577,.F.);
#750=ORIENTED_EDGE('',*,*,#578,.F.);
#751=ORIENTED_EDGE('',*,*,#579,.F.);
#752=ORIENTED_EDGE('',*,*,#578,.T.);
#753=ORIENTED_EDGE('',*,*,#580,.F.);
#754=ORIENTED_EDGE('',*,*,#581,.F.);
#755=ORIENTED_EDGE('',*,*,#582,.F.);
#756=ORIENTED_EDGE('',*,*,#581,.T.);
#757=ORIENTED_EDGE('',*,*,#583,.F.);
#758=ORIENTED_EDGE('',*,*,#584,.F.);
#759=ORIENTED_EDGE('',*,*,#585,.T.);
#760=ORIENTED_EDGE('',*,*,#584,.T.);
#761=ORIENTED_EDGE('',*,*,#586,.F.);
#762=ORIENTED_EDGE('',*,*,#587,.F.);
#763=ORIENTED_EDGE('',*,*,#588,.F.);
#764=ORIENTED_EDGE('',*,*,#587,.T.);
#765=ORIENTED_EDGE('',*,*,#589,.F.);
#766=ORIENTED_EDGE('',*,*,#590,.F.);
#767=ORIENTED_EDGE('',*,*,#591,.F.);
#768=ORIENTED_EDGE('',*,*,#590,.T.);
#769=ORIENTED_EDGE('',*,*,#592,.F.);
#770=ORIENTED_EDGE('',*,*,#593,.F.);
#771=ORIENTED_EDGE('',*,*,#594,.F.);
#772=ORIENTED_EDGE('',*,*,#593,.T.);
#773=ORIENTED_EDGE('',*,*,#595,.F.);
#774=ORIENTED_EDGE('',*,*,#596,.F.);
#775=ORIENTED_EDGE('',*,*,#597,.F.);
#776=ORIENTED_EDGE('',*,*,#596,.T.);
#777=ORIENTED_EDGE('',*,*,#598,.F.);
#778=ORIENTED_EDGE('',*,*,#599,.F.);
#779=ORIENTED_EDGE('',*,*,#600,.F.);
#780=ORIENTED_EDGE('',*,*,#599,.T.);
#781=ORIENTED_EDGE('',*,*,#601,.F.);
#782=ORIENTED_EDGE('',*,*,#602,.F.);
#783=ORIENTED_EDGE('',*,*,#603,.T.);
#784=ORIENTED_EDGE('',*,*,#602,.T.);
#785=ORIENTED_EDGE('',*,*,#604,.F.);
#786=ORIENTED_EDGE('',*,*,#605,.F.);
#787=ORIENTED_EDGE('',*,*,#606,.F.);
#788=ORIENTED_EDGE('',*,*,#605,.T.);
#789=ORIENTED_EDGE('',*,*,#607,.F.);
#790=ORIENTED_EDGE('',*,*,#608,.F.);
#791=ORIENTED_EDGE('',*,*,#609,.F.);
#792=ORIENTED_EDGE('',*,*,#608,.T.);
#793=ORIENTED_EDGE('',*,*,#610,.F.);
#794=ORIENTED_EDGE('',*,*,#611,.F.);
#795=ORIENTED_EDGE('',*,*,#612,.T.);
#796=ORIENTED_EDGE('',*,*,#611,.T.);
#797=ORIENTED_EDGE('',*,*,#613,.F.);
#798=ORIENTED_EDGE('',*,*,#614,.F.);
#799=ORIENTED_EDGE('',*,*,#615,.F.);
#800=ORIENTED_EDGE('',*,*,#614,.T.);
#801=ORIENTED_EDGE('',*,*,#616,.F.);
#802=ORIENTED_EDGE('',*,*,#617,.F.);
#803=ORIENTED_EDGE('',*,*,#618,.T.);
#804=ORIENTED_EDGE('',*,*,#617,.T.);
#805=ORIENTED_EDGE('',*,*,#619,.F.);
#806=ORIENTED_EDGE('',*,*,#620,.F.);
#807=ORIENTED_EDGE('',*,*,#621,.T.);
#808=ORIENTED_EDGE('',*,*,#620,.T.);
#809=ORIENTED_EDGE('',*,*,#622,.F.);
#810=ORIENTED_EDGE('',*,*,#623,.F.);
#811=ORIENTED_EDGE('',*,*,#624,.T.);
#812=ORIENTED_EDGE('',*,*,#623,.T.);
#813=ORIENTED_EDGE('',*,*,#625,.F.);
#814=ORIENTED_EDGE('',*,*,#626,.F.);
#815=ORIENTED_EDGE('',*,*,#627,.T.);
#816=ORIENTED_EDGE('',*,*,#626,.T.);
#817=ORIENTED_EDGE('',*,*,#628,.F.);
#818=ORIENTED_EDGE('',*,*,#629,.F.);
#819=ORIENTED_EDGE('',*,*,#630,.F.);
#820=ORIENTED_EDGE('',*,*,#629,.T.);
#821=ORIENTED_EDGE('',*,*,#631,.F.);
#822=ORIENTED_EDGE('',*,*,#632,.F.);
#823=ORIENTED_EDGE('',*,*,#633,.T.);
#824=ORIENTED_EDGE('',*,*,#632,.T.);
#825=ORIENTED_EDGE('',*,*,#634,.F.);
#826=ORIENTED_EDGE('',*,*,#635,.F.);
#827=ORIENTED_EDGE('',*,*,#636,.T.);
#828=ORIENTED_EDGE('',*,*,#635,.T.);
#829=ORIENTED_EDGE('',*,*,#637,.F.);
#830=ORIENTED_EDGE('',*,*,#638,.F.);
#831=ORIENTED_EDGE('',*,*,#639,.T.);
#832=ORIENTED_EDGE('',*,*,#638,.T.);
#833=ORIENTED_EDGE('',*,*,#640,.F.);
#834=ORIENTED_EDGE('',*,*,#641,.F.);
#835=ORIENTED_EDGE('',*,*,#642,.T.);
#836=ORIENTED_EDGE('',*,*,#641,.T.);
#837=ORIENTED_EDGE('',*,*,#643,.F.);
#838=ORIENTED_EDGE('',*,*,#644,.F.);
#839=ORIENTED_EDGE('',*,*,#645,.F.);
#840=ORIENTED_EDGE('',*,*,#644,.T.);
#841=ORIENTED_EDGE('',*,*,#646,.F.);
#842=ORIENTED_EDGE('',*,*,#647,.F.);
#843=ORIENTED_EDGE('',*,*,#648,.T.);
#844=ORIENTED_EDGE('',*,*,#647,.T.);
#845=ORIENTED_EDGE('',*,*,#649,.F.);
#846=ORIENTED_EDGE('',*,*,#650,.F.);
#847=ORIENTED_EDGE('',*,*,#651,.T.);
#848=ORIENTED_EDGE('',*,*,#650,.T.);
#849=ORIENTED_EDGE('',*,*,#652,.F.);
#850=ORIENTED_EDGE('',*,*,#653,.F.);
#851=ORIENTED_EDGE('',*,*,#654,.T.);
#852=ORIENTED_EDGE('',*,*,#653,.T.);
#853=ORIENTED_EDGE('',*,*,#655,.F.);
#854=ORIENTED_EDGE('',*,*,#656,.F.);
#855=ORIENTED_EDGE('',*,*,#657,.F.);
#856=ORIENTED_EDGE('',*,*,#656,.T.);
#857=ORIENTED_EDGE('',*,*,#658,.F.);
#858=ORIENTED_EDGE('',*,*,#659,.F.);
#859=ORIENTED_EDGE('',*,*,#660,.F.);
#860=ORIENTED_EDGE('',*,*,#659,.T.);
#861=ORIENTED_EDGE('',*,*,#661,.F.);
#862=ORIENTED_EDGE('',*,*,#662,.F.);
#863=ORIENTED_EDGE('',*,*,#663,.T.);
#864=ORIENTED_EDGE('',*,*,#662,.T.);
#865=ORIENTED_EDGE('',*,*,#664,.F.);
#866=ORIENTED_EDGE('',*,*,#665,.F.);
#867=ORIENTED_EDGE('',*,*,#666,.F.);
#868=ORIENTED_EDGE('',*,*,#665,.T.);
#869=ORIENTED_EDGE('',*,*,#667,.F.);
#870=ORIENTED_EDGE('',*,*,#668,.F.);
#871=ORIENTED_EDGE('',*,*,#669,.F.);
#872=ORIENTED_EDGE('',*,*,#668,.T.);
#873=ORIENTED_EDGE('',*,*,#670,.F.);
#874=ORIENTED_EDGE('',*,*,#671,.F.);
#875=ORIENTED_EDGE('',*,*,#672,.F.);
#876=ORIENTED_EDGE('',*,*,#671,.T.);
#877=ORIENTED_EDGE('',*,*,#673,.F.);
#878=ORIENTED_EDGE('',*,*,#674,.F.);
#879=ORIENTED_EDGE('',*,*,#675,.F.);
#880=ORIENTED_EDGE('',*,*,#674,.T.);
#881=ORIENTED_EDGE('',*,*,#676,.F.);
#882=ORIENTED_EDGE('',*,*,#677,.F.);
#883=ORIENTED_EDGE('',*,*,#678,.F.);
#884=ORIENTED_EDGE('',*,*,#677,.T.);
#885=ORIENTED_EDGE('',*,*,#679,.F.);
#886=ORIENTED_EDGE('',*,*,#680,.F.);
#887=ORIENTED_EDGE('',*,*,#681,.T.);
#888=ORIENTED_EDGE('',*,*,#680,.T.);
#889=ORIENTED_EDGE('',*,*,#682,.F.);
#890=ORIENTED_EDGE('',*,*,#683,.F.);
#891=ORIENTED_EDGE('',*,*,#684,.F.);
#892=ORIENTED_EDGE('',*,*,#683,.T.);
#893=ORIENTED_EDGE('',*,*,#685,.F.);
#894=ORIENTED_EDGE('',*,*,#686,.F.);
#895=ORIENTED_EDGE('',*,*,#687,.F.);
#896=ORIENTED_EDGE('',*,*,#686,.T.);
#897=ORIENTED_EDGE('',*,*,#688,.F.);
#898=ORIENTED_EDGE('',*,*,#689,.F.);
#899=ORIENTED_EDGE('',*,*,#690,.T.);
#900=ORIENTED_EDGE('',*,*,#689,.T.);
#901=ORIENTED_EDGE('',*,*,#691,.F.);
#902=ORIENTED_EDGE('',*,*,#692,.F.);
#903=ORIENTED_EDGE('',*,*,#693,.F.);
#904=ORIENTED_EDGE('',*,*,#692,.T.);
#905=ORIENTED_EDGE('',*,*,#694,.F.);
#906=ORIENTED_EDGE('',*,*,#695,.F.);
#907=ORIENTED_EDGE('',*,*,#696,.T.);
#908=ORIENTED_EDGE('',*,*,#695,.T.);
#909=ORIENTED_EDGE('',*,*,#697,.F.);
#910=ORIENTED_EDGE('',*,*,#698,.F.);
#911=ORIENTED_EDGE('',*,*,#699,.T.);
#912=ORIENTED_EDGE('',*,*,#698,.T.);
#913=ORIENTED_EDGE('',*,*,#700,.F.);
#914=ORIENTED_EDGE('',*,*,#701,.F.);
#915=ORIENTED_EDGE('',*,*,#702,.T.);
#916=ORIENTED_EDGE('',*,*,#701,.T.);
#917=ORIENTED_EDGE('',*,*,#703,.F.);
#918=ORIENTED_EDGE('',*,*,#704,.F.);
#919=ORIENTED_EDGE('',*,*,#705,.T.);
#920=ORIENTED_EDGE('',*,*,#704,.T.);
#921=ORIENTED_EDGE('',*,*,#706,.F.);
#922=ORIENTED_EDGE('',*,*,#707,.F.);
#923=ORIENTED_EDGE('',*,*,#708,.F.);
#924=ORIENTED_EDGE('',*,*,#707,.T.);
#925=ORIENTED_EDGE('',*,*,#709,.F.);
#926=ORIENTED_EDGE('',*,*,#710,.F.);
#927=ORIENTED_EDGE('',*,*,#711,.T.);
#928=ORIENTED_EDGE('',*,*,#710,.T.);
#929=ORIENTED_EDGE('',*,*,#712,.F.);
#930=ORIENTED_EDGE('',*,*,#713,.F.);
#931=ORIENTED_EDGE('',*,*,#714,.T.);
#932=ORIENTED_EDGE('',*,*,#713,.T.);
#933=ORIENTED_EDGE('',*,*,#715,.F.);
#934=ORIENTED_EDGE('',*,*,#716,.F.);
#935=ORIENTED_EDGE('',*,*,#717,.T.);
#936=ORIENTED_EDGE('',*,*,#716,.T.);
#937=ORIENTED_EDGE('',*,*,#718,.F.);
#938=ORIENTED_EDGE('',*,*,#719,.F.);
#939=ORIENTED_EDGE('',*,*,#720,.T.);
#940=ORIENTED_EDGE('',*,*,#719,.T.);
#941=ORIENTED_EDGE('',*,*,#721,.F.);
#942=ORIENTED_EDGE('',*,*,#722,.F.);
#943=ORIENTED_EDGE('',*,*,#723,.F.);
#944=ORIENTED_EDGE('',*,*,#722,.T.);
#945=ORIENTED_EDGE('',*,*,#724,.F.);
#946=ORIENTED_EDGE('',*,*,#725,.F.);
#947=ORIENTED_EDGE('',*,*,#726,.T.);
#948=ORIENTED_EDGE('',*,*,#725,.T.);
#949=ORIENTED_EDGE('',*,*,#727,.F.);
#950=ORIENTED_EDGE('',*,*,#728,.F.);
#951=ORIENTED_EDGE('',*,*,#729,.T.);
#952=ORIENTED_EDGE('',*,*,#728,.T.);
#953=ORIENTED_EDGE('',*,*,#730,.F.);
#954=ORIENTED_EDGE('',*,*,#576,.F.);
#955=ORIENTED_EDGE('',*,*,#730,.T.);
#956=ORIENTED_EDGE('',*,*,#727,.T.);
#957=ORIENTED_EDGE('',*,*,#724,.T.);
#958=ORIENTED_EDGE('',*,*,#721,.T.);
#959=ORIENTED_EDGE('',*,*,#718,.T.);
#960=ORIENTED_EDGE('',*,*,#715,.T.);
#961=ORIENTED_EDGE('',*,*,#712,.T.);
#962=ORIENTED_EDGE('',*,*,#709,.T.);
#963=ORIENTED_EDGE('',*,*,#706,.T.);
#964=ORIENTED_EDGE('',*,*,#703,.T.);
#965=ORIENTED_EDGE('',*,*,#700,.T.);
#966=ORIENTED_EDGE('',*,*,#697,.T.);
#967=ORIENTED_EDGE('',*,*,#694,.T.);
#968=ORIENTED_EDGE('',*,*,#691,.T.);
#969=ORIENTED_EDGE('',*,*,#688,.T.);
#970=ORIENTED_EDGE('',*,*,#685,.T.);
#971=ORIENTED_EDGE('',*,*,#682,.T.);
#972=ORIENTED_EDGE('',*,*,#679,.T.);
#973=ORIENTED_EDGE('',*,*,#676,.T.);
#974=ORIENTED_EDGE('',*,*,#673,.T.);
#975=ORIENTED_EDGE('',*,*,#670,.T.);
#976=ORIENTED_EDGE('',*,*,#667,.T.);
#977=ORIENTED_EDGE('',*,*,#664,.T.);
#978=ORIENTED_EDGE('',*,*,#661,.T.);
#979=ORIENTED_EDGE('',*,*,#658,.T.);
#980=ORIENTED_EDGE('',*,*,#655,.T.);
#981=ORIENTED_EDGE('',*,*,#652,.T.);
#982=ORIENTED_EDGE('',*,*,#649,.T.);
#983=ORIENTED_EDGE('',*,*,#646,.T.);
#984=ORIENTED_EDGE('',*,*,#643,.T.);
#985=ORIENTED_EDGE('',*,*,#640,.T.);
#986=ORIENTED_EDGE('',*,*,#637,.T.);
#987=ORIENTED_EDGE('',*,*,#634,.T.);
#988=ORIENTED_EDGE('',*,*,#631,.T.);
#989=ORIENTED_EDGE('',*,*,#628,.T.);
#990=ORIENTED_EDGE('',*,*,#625,.T.);
#991=ORIENTED_EDGE('',*,*,#622,.T.);
#992=ORIENTED_EDGE('',*,*,#619,.T.);
#993=ORIENTED_EDGE('',*,*,#616,.T.);
#994=ORIENTED_EDGE('',*,*,#613,.T.);
#995=ORIENTED_EDGE('',*,*,#610,.T.);
#996=ORIENTED_EDGE('',*,*,#607,.T.);
#997=ORIENTED_EDGE('',*,*,#604,.T.);
#998=ORIENTED_EDGE('',*,*,#601,.T.);
#999=ORIENTED_EDGE('',*,*,#598,.T.);
#1000=ORIENTED_EDGE('',*,*,#595,.T.);
#1001=ORIENTED_EDGE('',*,*,#592,.T.);
#1002=ORIENTED_EDGE('',*,*,#589,.T.);
#1003=ORIENTED_EDGE('',*,*,#586,.T.);
#1004=ORIENTED_EDGE('',*,*,#583,.T.);
#1005=ORIENTED_EDGE('',*,*,#580,.T.);
#1006=ORIENTED_EDGE('',*,*,#577,.T.);
#1007=ORIENTED_EDGE('',*,*,#574,.T.);
#1008=ORIENTED_EDGE('',*,*,#571,.T.);
#1009=ORIENTED_EDGE('',*,*,#568,.T.);
#1010=ORIENTED_EDGE('',*,*,#565,.T.);
#1011=ORIENTED_EDGE('',*,*,#729,.F.);
#1012=ORIENTED_EDGE('',*,*,#575,.F.);
#1013=ORIENTED_EDGE('',*,*,#579,.T.);
#1014=ORIENTED_EDGE('',*,*,#582,.T.);
#1015=ORIENTED_EDGE('',*,*,#585,.F.);
#1016=ORIENTED_EDGE('',*,*,#588,.T.);
#1017=ORIENTED_EDGE('',*,*,#591,.T.);
#1018=ORIENTED_EDGE('',*,*,#594,.T.);
#1019=ORIENTED_EDGE('',*,*,#597,.T.);
#1020=ORIENTED_EDGE('',*,*,#600,.T.);
#1021=ORIENTED_EDGE('',*,*,#603,.F.);
#1022=ORIENTED_EDGE('',*,*,#606,.T.);
#1023=ORIENTED_EDGE('',*,*,#609,.T.);
#1024=ORIENTED_EDGE('',*,*,#612,.F.);
#1025=ORIENTED_EDGE('',*,*,#615,.T.);
#1026=ORIENTED_EDGE('',*,*,#618,.F.);
#1027=ORIENTED_EDGE('',*,*,#621,.F.);
#1028=ORIENTED_EDGE('',*,*,#624,.F.);
#1029=ORIENTED_EDGE('',*,*,#627,.F.);
#1030=ORIENTED_EDGE('',*,*,#630,.T.);
#1031=ORIENTED_EDGE('',*,*,#633,.F.);
#1032=ORIENTED_EDGE('',*,*,#636,.F.);
#1033=ORIENTED_EDGE('',*,*,#639,.F.);
#1034=ORIENTED_EDGE('',*,*,#642,.F.);
#1035=ORIENTED_EDGE('',*,*,#645,.T.);
#1036=ORIENTED_EDGE('',*,*,#648,.F.);
#1037=ORIENTED_EDGE('',*,*,#651,.F.);
#1038=ORIENTED_EDGE('',*,*,#654,.F.);
#1039=ORIENTED_EDGE('',*,*,#657,.T.);
#1040=ORIENTED_EDGE('',*,*,#660,.T.);
#1041=ORIENTED_EDGE('',*,*,#663,.F.);
#1042=ORIENTED_EDGE('',*,*,#666,.T.);
#1043=ORIENTED_EDGE('',*,*,#669,.T.);
#1044=ORIENTED_EDGE('',*,*,#672,.T.);
#1045=ORIENTED_EDGE('',*,*,#675,.T.);
#1046=ORIENTED_EDGE('',*,*,#678,.T.);
#1047=ORIENTED_EDGE('',*,*,#681,.F.);
#1048=ORIENTED_EDGE('',*,*,#684,.T.);
#1049=ORIENTED_EDGE('',*,*,#687,.T.);
#1050=ORIENTED_EDGE('',*,*,#690,.F.);
#1051=ORIENTED_EDGE('',*,*,#693,.T.);
#1052=ORIENTED_EDGE('',*,*,#696,.F.);
#1053=ORIENTED_EDGE('',*,*,#699,.F.);
#1054=ORIENTED_EDGE('',*,*,#702,.F.);
#1055=ORIENTED_EDGE('',*,*,#705,.F.);
#1056=ORIENTED_EDGE('',*,*,#708,.T.);
#1057=ORIENTED_EDGE('',*,*,#711,.F.);
#1058=ORIENTED_EDGE('',*,*,#714,.F.);
#1059=ORIENTED_EDGE('',*,*,#717,.F.);
#1060=ORIENTED_EDGE('',*,*,#720,.F.);
#1061=ORIENTED_EDGE('',*,*,#723,.T.);
#1062=ORIENTED_EDGE('',*,*,#726,.F.);
#1063=ORIENTED_EDGE('',*,*,#573,.F.);
#1064=ORIENTED_EDGE('',*,*,#563,.F.);
#1065=ORIENTED_EDGE('',*,*,#567,.F.);
#1066=ORIENTED_EDGE('',*,*,#570,.F.);
#1067=PLANE('',#1177);
#1068=PLANE('',#1178);
#1069=PLANE('',#1179);
#1070=PLANE('',#1180);
#1071=PLANE('',#1181);
#1072=PLANE('',#1185);
#1073=PLANE('',#1189);
#1074=PLANE('',#1190);
#1075=PLANE('',#1194);
#1076=PLANE('',#1195);
#1077=PLANE('',#1199);
#1078=PLANE('',#1203);
#1079=PLANE('',#1207);
#1080=PLANE('',#1211);
#1081=PLANE('',#1212);
#1082=PLANE('',#1216);
#1083=PLANE('',#1217);
#1084=PLANE('',#1221);
#1085=PLANE('',#1225);
#1086=PLANE('',#1226);
#1087=PLANE('',#1227);
#1088=PLANE('',#1231);
#1089=PLANE('',#1235);
#1090=PLANE('',#1236);
#1091=PLANE('',#1240);
#1092=PLANE('',#1241);
#1093=PLANE('',#1245);
#1094=PLANE('',#1249);
#1095=PLANE('',#1253);
#1096=PLANE('',#1257);
#1097=PLANE('',#1258);
#1098=PLANE('',#1262);
#1099=PLANE('',#1263);
#1100=PLANE('',#1267);
#1101=PLANE('',#1271);
#1102=PLANE('',#1272);
#1103=PLANE('',#1273);
#1104=PLANE('',#1274);
#1105=ADVANCED_FACE('',(#77),#1067,.T.);
#1106=ADVANCED_FACE('',(#78),#1068,.T.);
#1107=ADVANCED_FACE('',(#79),#1069,.T.);
#1108=ADVANCED_FACE('',(#80),#1070,.T.);
#1109=ADVANCED_FACE('',(#81),#1071,.T.);
#1110=ADVANCED_FACE('',(#82),#57,.F.);
#1111=ADVANCED_FACE('',(#83),#1072,.T.);
#1112=ADVANCED_FACE('',(#84),#58,.T.);
#1113=ADVANCED_FACE('',(#85),#1073,.T.);
#1114=ADVANCED_FACE('',(#86),#1074,.T.);
#1115=ADVANCED_FACE('',(#87),#59,.F.);
#1116=ADVANCED_FACE('',(#88),#1075,.T.);
#1117=ADVANCED_FACE('',(#89),#1076,.T.);
#1118=ADVANCED_FACE('',(#90),#60,.T.);
#1119=ADVANCED_FACE('',(#91),#1077,.T.);
#1120=ADVANCED_FACE('',(#92),#61,.F.);
#1121=ADVANCED_FACE('',(#93),#1078,.T.);
#1122=ADVANCED_FACE('',(#94),#62,.F.);
#1123=ADVANCED_FACE('',(#95),#1079,.T.);
#1124=ADVANCED_FACE('',(#96),#63,.T.);
#1125=ADVANCED_FACE('',(#97),#1080,.T.);
#1126=ADVANCED_FACE('',(#98),#1081,.T.);
#1127=ADVANCED_FACE('',(#99),#64,.F.);
#1128=ADVANCED_FACE('',(#100),#1082,.T.);
#1129=ADVANCED_FACE('',(#101),#1083,.T.);
#1130=ADVANCED_FACE('',(#102),#65,.T.);
#1131=ADVANCED_FACE('',(#103),#1084,.T.);
#1132=ADVANCED_FACE('',(#104),#66,.F.);
#1133=ADVANCED_FACE('',(#105),#1085,.T.);
#1134=ADVANCED_FACE('',(#106),#1086,.T.);
#1135=ADVANCED_FACE('',(#107),#1087,.T.);
#1136=ADVANCED_FACE('',(#108),#67,.F.);
#1137=ADVANCED_FACE('',(#109),#1088,.T.);
#1138=ADVANCED_FACE('',(#110),#68,.T.);
#1139=ADVANCED_FACE('',(#111),#1089,.T.);
#1140=ADVANCED_FACE('',(#112),#1090,.T.);
#1141=ADVANCED_FACE('',(#113),#69,.F.);
#1142=ADVANCED_FACE('',(#114),#1091,.T.);
#1143=ADVANCED_FACE('',(#115),#1092,.T.);
#1144=ADVANCED_FACE('',(#116),#70,.T.);
#1145=ADVANCED_FACE('',(#117),#1093,.T.);
#1146=ADVANCED_FACE('',(#118),#71,.F.);
#1147=ADVANCED_FACE('',(#119),#1094,.T.);
#1148=ADVANCED_FACE('',(#120),#72,.F.);
#1149=ADVANCED_FACE('',(#121),#1095,.T.);
#1150=ADVANCED_FACE('',(#122),#73,.T.);
#1151=ADVANCED_FACE('',(#123),#1096,.T.);
#1152=ADVANCED_FACE('',(#124),#1097,.T.);
#1153=ADVANCED_FACE('',(#125),#74,.F.);
#1154=ADVANCED_FACE('',(#126),#1098,.T.);
#1155=ADVANCED_FACE('',(#127),#1099,.T.);
#1156=ADVANCED_FACE('',(#128),#75,.T.);
#1157=ADVANCED_FACE('',(#129),#1100,.T.);
#1158=ADVANCED_FACE('',(#130),#76,.F.);
#1159=ADVANCED_FACE('',(#131),#1101,.T.);
#1160=ADVANCED_FACE('',(#132),#1102,.T.);
#1161=ADVANCED_FACE('',(#133,#15),#1103,.T.);
#1162=ADVANCED_FACE('',(#134,#16),#1104,.F.);
#1163=CLOSED_SHELL('',(#1105,#1106,#1107,#1108,#1109,#1110,#1111,#1112,
#1113,#1114,#1115,#1116,#1117,#1118,#1119,#1120,#1121,#1122,#1123,#1124,
#1125,#1126,#1127,#1128,#1129,#1130,#1131,#1132,#1133,#1134,#1135,#1136,
#1137,#1138,#1139,#1140,#1141,#1142,#1143,#1144,#1145,#1146,#1147,#1148,
#1149,#1150,#1151,#1152,#1153,#1154,#1155,#1156,#1157,#1158,#1159,#1160,
#1161,#1162));
#1164=DERIVED_UNIT_ELEMENT(#1166,1.);
#1165=DERIVED_UNIT_ELEMENT(#1945,-3.);
#1166=(
MASS_UNIT()
NAMED_UNIT(*)
SI_UNIT(.KILO.,.GRAM.)
);
#1167=DERIVED_UNIT((#1164,#1165));
#1168=MEASURE_REPRESENTATION_ITEM('density measure',
POSITIVE_RATIO_MEASURE(7850.),#1167);
#1169=PROPERTY_DEFINITION_REPRESENTATION(#1174,#1171);
#1170=PROPERTY_DEFINITION_REPRESENTATION(#1175,#1172);
#1171=REPRESENTATION('material name',(#1173),#1942);
#1172=REPRESENTATION('density',(#1168),#1942);
#1173=DESCRIPTIVE_REPRESENTATION_ITEM('Steel','Steel');
#1174=PROPERTY_DEFINITION('material property','material name',#1952);
#1175=PROPERTY_DEFINITION('material property','density of part',#1952);
#1176=AXIS2_PLACEMENT_3D('',#1601,#1275,#1276);
#1177=AXIS2_PLACEMENT_3D('',#1602,#1277,#1278);
#1178=AXIS2_PLACEMENT_3D('',#1611,#1283,#1284);
#1179=AXIS2_PLACEMENT_3D('',#1617,#1288,#1289);
#1180=AXIS2_PLACEMENT_3D('',#1623,#1293,#1294);
#1181=AXIS2_PLACEMENT_3D('',#1626,#1297,#1298);
#1182=AXIS2_PLACEMENT_3D('',#1635,#1303,#1304);
#1183=AXIS2_PLACEMENT_3D('',#1637,#1305,#1306);
#1184=AXIS2_PLACEMENT_3D('',#1639,#1307,#1308);
#1185=AXIS2_PLACEMENT_3D('',#1641,#1310,#1311);
#1186=AXIS2_PLACEMENT_3D('',#1647,#1315,#1316);
#1187=AXIS2_PLACEMENT_3D('',#1649,#1317,#1318);
#1188=AXIS2_PLACEMENT_3D('',#1651,#1319,#1320);
#1189=AXIS2_PLACEMENT_3D('',#1653,#1322,#1323);
#1190=AXIS2_PLACEMENT_3D('',#1659,#1327,#1328);
#1191=AXIS2_PLACEMENT_3D('',#1665,#1332,#1333);
#1192=AXIS2_PLACEMENT_3D('',#1667,#1334,#1335);
#1193=AXIS2_PLACEMENT_3D('',#1669,#1336,#1337);
#1194=AXIS2_PLACEMENT_3D('',#1671,#1339,#1340);
#1195=AXIS2_PLACEMENT_3D('',#1677,#1344,#1345);
#1196=AXIS2_PLACEMENT_3D('',#1683,#1349,#1350);
#1197=AXIS2_PLACEMENT_3D('',#1685,#1351,#1352);
#1198=AXIS2_PLACEMENT_3D('',#1687,#1353,#1354);
#1199=AXIS2_PLACEMENT_3D('',#1689,#1356,#1357);
#1200=AXIS2_PLACEMENT_3D('',#1695,#1361,#1362);
#1201=AXIS2_PLACEMENT_3D('',#1697,#1363,#1364);
#1202=AXIS2_PLACEMENT_3D('',#1699,#1365,#1366);
#1203=AXIS2_PLACEMENT_3D('',#1701,#1368,#1369);
#1204=AXIS2_PLACEMENT_3D('',#1707,#1373,#1374);
#1205=AXIS2_PLACEMENT_3D('',#1709,#1375,#1376);
#1206=AXIS2_PLACEMENT_3D('',#1711,#1377,#1378);
#1207=AXIS2_PLACEMENT_3D('',#1713,#1380,#1381);
#1208=AXIS2_PLACEMENT_3D('',#1719,#1385,#1386);
#1209=AXIS2_PLACEMENT_3D('',#1721,#1387,#1388);
#1210=AXIS2_PLACEMENT_3D('',#1723,#1389,#1390);
#1211=AXIS2_PLACEMENT_3D('',#1725,#1392,#1393);
#1212=AXIS2_PLACEMENT_3D('',#1731,#1397,#1398);
#1213=AXIS2_PLACEMENT_3D('',#1737,#1402,#1403);
#1214=AXIS2_PLACEMENT_3D('',#1739,#1404,#1405);
#1215=AXIS2_PLACEMENT_3D('',#1741,#1406,#1407);
#1216=AXIS2_PLACEMENT_3D('',#1743,#1409,#1410);
#1217=AXIS2_PLACEMENT_3D('',#1749,#1414,#1415);
#1218=AXIS2_PLACEMENT_3D('',#1755,#1419,#1420);
#1219=AXIS2_PLACEMENT_3D('',#1757,#1421,#1422);
#1220=AXIS2_PLACEMENT_3D('',#1759,#1423,#1424);
#1221=AXIS2_PLACEMENT_3D('',#1761,#1426,#1427);
#1222=AXIS2_PLACEMENT_3D('',#1767,#1431,#1432);
#1223=AXIS2_PLACEMENT_3D('',#1769,#1433,#1434);
#1224=AXIS2_PLACEMENT_3D('',#1771,#1435,#1436);
#1225=AXIS2_PLACEMENT_3D('',#1773,#1438,#1439);
#1226=AXIS2_PLACEMENT_3D('',#1779,#1443,#1444);
#1227=AXIS2_PLACEMENT_3D('',#1785,#1448,#1449);
#1228=AXIS2_PLACEMENT_3D('',#1791,#1453,#1454);
#1229=AXIS2_PLACEMENT_3D('',#1793,#1455,#1456);
#1230=AXIS2_PLACEMENT_3D('',#1795,#1457,#1458);
#1231=AXIS2_PLACEMENT_3D('',#1797,#1460,#1461);
#1232=AXIS2_PLACEMENT_3D('',#1803,#1465,#1466);
#1233=AXIS2_PLACEMENT_3D('',#1805,#1467,#1468);
#1234=AXIS2_PLACEMENT_3D('',#1807,#1469,#1470);
#1235=AXIS2_PLACEMENT_3D('',#1809,#1472,#1473);
#1236=AXIS2_PLACEMENT_3D('',#1815,#1477,#1478);
#1237=AXIS2_PLACEMENT_3D('',#1821,#1482,#1483);
#1238=AXIS2_PLACEMENT_3D('',#1823,#1484,#1485);
#1239=AXIS2_PLACEMENT_3D('',#1825,#1486,#1487);
#1240=AXIS2_PLACEMENT_3D('',#1827,#1489,#1490);
#1241=AXIS2_PLACEMENT_3D('',#1833,#1494,#1495);
#1242=AXIS2_PLACEMENT_3D('',#1839,#1499,#1500);
#1243=AXIS2_PLACEMENT_3D('',#1841,#1501,#1502);
#1244=AXIS2_PLACEMENT_3D('',#1843,#1503,#1504);
#1245=AXIS2_PLACEMENT_3D('',#1845,#1506,#1507);
#1246=AXIS2_PLACEMENT_3D('',#1851,#1511,#1512);
#1247=AXIS2_PLACEMENT_3D('',#1853,#1513,#1514);
#1248=AXIS2_PLACEMENT_3D('',#1855,#1515,#1516);
#1249=AXIS2_PLACEMENT_3D('',#1857,#1518,#1519);
#1250=AXIS2_PLACEMENT_3D('',#1863,#1523,#1524);
#1251=AXIS2_PLACEMENT_3D('',#1865,#1525,#1526);
#1252=AXIS2_PLACEMENT_3D('',#1867,#1527,#1528);
#1253=AXIS2_PLACEMENT_3D('',#1869,#1530,#1531);
#1254=AXIS2_PLACEMENT_3D('',#1875,#1535,#1536);
#1255=AXIS2_PLACEMENT_3D('',#1877,#1537,#1538);
#1256=AXIS2_PLACEMENT_3D('',#1879,#1539,#1540);
#1257=AXIS2_PLACEMENT_3D('',#1881,#1542,#1543);
#1258=AXIS2_PLACEMENT_3D('',#1887,#1547,#1548);
#1259=AXIS2_PLACEMENT_3D('',#1893,#1552,#1553);
#1260=AXIS2_PLACEMENT_3D('',#1895,#1554,#1555);
#1261=AXIS2_PLACEMENT_3D('',#1897,#1556,#1557);
#1262=AXIS2_PLACEMENT_3D('',#1899,#1559,#1560);
#1263=AXIS2_PLACEMENT_3D('',#1905,#1564,#1565);
#1264=AXIS2_PLACEMENT_3D('',#1911,#1569,#1570);
#1265=AXIS2_PLACEMENT_3D('',#1913,#1571,#1572);
#1266=AXIS2_PLACEMENT_3D('',#1915,#1573,#1574);
#1267=AXIS2_PLACEMENT_3D('',#1917,#1576,#1577);
#1268=AXIS2_PLACEMENT_3D('',#1923,#1581,#1582);
#1269=AXIS2_PLACEMENT_3D('',#1925,#1583,#1584);
#1270=AXIS2_PLACEMENT_3D('',#1927,#1585,#1586);
#1271=AXIS2_PLACEMENT_3D('',#1929,#1588,#1589);
#1272=AXIS2_PLACEMENT_3D('',#1935,#1593,#1594);
#1273=AXIS2_PLACEMENT_3D('',#1938,#1597,#1598);
#1274=AXIS2_PLACEMENT_3D('',#1939,#1599,#1600);
#1275=DIRECTION('axis',(0.,0.,1.));
#1276=DIRECTION('refdir',(1.,0.,0.));
#1277=DIRECTION('center_axis',(0.,0.,1.));
#1278=DIRECTION('ref_axis',(1.,0.,0.));
#1279=DIRECTION('',(1.,0.,0.));
#1280=DIRECTION('',(0.,1.,0.));
#1281=DIRECTION('',(1.,0.,0.));
#1282=DIRECTION('',(0.,1.,0.));
#1283=DIRECTION('center_axis',(1.,0.,0.));
#1284=DIRECTION('ref_axis',(0.,0.,-1.));
#1285=DIRECTION('',(0.,0.,-1.));
#1286=DIRECTION('',(0.,0.,-1.));
#1287=DIRECTION('',(0.,1.,0.));
#1288=DIRECTION('center_axis',(0.,0.,-1.));
#1289=DIRECTION('ref_axis',(-1.,0.,0.));
#1290=DIRECTION('',(-1.,0.,0.));
#1291=DIRECTION('',(-1.,0.,0.));
#1292=DIRECTION('',(0.,1.,0.));
#1293=DIRECTION('center_axis',(-1.,0.,0.));
#1294=DIRECTION('ref_axis',(0.,0.,1.));
#1295=DIRECTION('',(0.,0.,1.));
#1296=DIRECTION('',(0.,0.,1.));
#1297=DIRECTION('center_axis',(1.,0.,-9.86864910777917E-16));
#1298=DIRECTION('ref_axis',(-9.86864910777917E-16,0.,-1.));
#1299=DIRECTION('',(-9.86864910777917E-16,0.,-1.));
#1300=DIRECTION('',(0.,1.,0.));
#1301=DIRECTION('',(-9.86864910777917E-16,0.,-1.));
#1302=DIRECTION('',(0.,1.,0.));
#1303=DIRECTION('center_axis',(0.,1.,0.));
#1304=DIRECTION('ref_axis',(-1.,0.,1.18423789293348E-14));
#1305=DIRECTION('center_axis',(0.,1.,0.));
#1306=DIRECTION('ref_axis',(-1.,0.,1.18423789293348E-14));
#1307=DIRECTION('center_axis',(0.,-1.,0.));
#1308=DIRECTION('ref_axis',(-1.,0.,1.18423789293348E-14));
#1309=DIRECTION('',(0.,1.,0.));
#1310=DIRECTION('center_axis',(0.,0.,-1.));
#1311=DIRECTION('ref_axis',(-1.,0.,0.));
#1312=DIRECTION('',(1.,0.,0.));
#1313=DIRECTION('',(-1.,0.,0.));
#1314=DIRECTION('',(0.,1.,0.));
#1315=DIRECTION('center_axis',(0.,1.,0.));
#1316=DIRECTION('ref_axis',(1.,0.,-1.18423789293348E-14));
#1317=DIRECTION('center_axis',(0.,1.,0.));
#1318=DIRECTION('ref_axis',(1.,0.,-1.18423789293348E-14));
#1319=DIRECTION('center_axis',(0.,1.,0.));
#1320=DIRECTION('ref_axis',(1.,0.,-1.18423789293348E-14));
#1321=DIRECTION('',(0.,1.,0.));
#1322=DIRECTION('center_axis',(1.,0.,0.));
#1323=DIRECTION('ref_axis',(0.,0.,-1.));
#1324=DIRECTION('',(0.,0.,1.));
#1325=DIRECTION('',(0.,0.,-1.));
#1326=DIRECTION('',(0.,1.,0.));
#1327=DIRECTION('center_axis',(0.,0.,1.));
#1328=DIRECTION('ref_axis',(1.,0.,0.));
#1329=DIRECTION('',(-1.,0.,0.));
#1330=DIRECTION('',(1.,0.,0.));
#1331=DIRECTION('',(0.,1.,0.));
#1332=DIRECTION('center_axis',(0.,1.,0.));
#1333=DIRECTION('ref_axis',(0.,0.,-1.));
#1334=DIRECTION('center_axis',(0.,1.,0.));
#1335=DIRECTION('ref_axis',(0.,0.,-1.));
#1336=DIRECTION('center_axis',(0.,-1.,0.));
#1337=DIRECTION('ref_axis',(0.,0.,-1.));
#1338=DIRECTION('',(0.,1.,0.));
#1339=DIRECTION('center_axis',(0.,0.,-1.));
#1340=DIRECTION('ref_axis',(-1.,0.,0.));
#1341=DIRECTION('',(1.,0.,0.));
#1342=DIRECTION('',(-1.,0.,0.));
#1343=DIRECTION('',(0.,1.,0.));
#1344=DIRECTION('center_axis',(1.,0.,0.));
#1345=DIRECTION('ref_axis',(0.,0.,-1.));
#1346=DIRECTION('',(0.,0.,1.));
#1347=DIRECTION('',(0.,0.,-1.));
#1348=DIRECTION('',(0.,1.,0.));
#1349=DIRECTION('center_axis',(0.,1.,0.));
#1350=DIRECTION('ref_axis',(1.18423789293348E-14,0.,1.));
#1351=DIRECTION('center_axis',(0.,1.,0.));
#1352=DIRECTION('ref_axis',(1.18423789293348E-14,0.,1.));
#1353=DIRECTION('center_axis',(0.,1.,0.));
#1354=DIRECTION('ref_axis',(1.18423789293348E-14,0.,1.));
#1355=DIRECTION('',(0.,1.,0.));
#1356=DIRECTION('center_axis',(0.,0.,1.));
#1357=DIRECTION('ref_axis',(1.,0.,0.));
#1358=DIRECTION('',(-1.,0.,0.));
#1359=DIRECTION('',(1.,0.,0.));
#1360=DIRECTION('',(0.,1.,0.));
#1361=DIRECTION('center_axis',(0.,1.,0.));
#1362=DIRECTION('ref_axis',(-1.18423789293348E-14,0.,-1.));
#1363=DIRECTION('center_axis',(0.,1.,0.));
#1364=DIRECTION('ref_axis',(-1.18423789293348E-14,0.,-1.));
#1365=DIRECTION('center_axis',(0.,-1.,0.));
#1366=DIRECTION('ref_axis',(-1.18423789293348E-14,0.,-1.));
#1367=DIRECTION('',(0.,1.,0.));
#1368=DIRECTION('center_axis',(1.,0.,1.91006111763468E-16));
#1369=DIRECTION('ref_axis',(1.91006111763468E-16,0.,-1.));
#1370=DIRECTION('',(1.91006111763468E-16,0.,-1.));
#1371=DIRECTION('',(1.91006111763468E-16,0.,-1.));
#1372=DIRECTION('',(0.,1.,0.));
#1373=DIRECTION('center_axis',(0.,1.,0.));
#1374=DIRECTION('ref_axis',(-1.,0.,1.18423789293348E-14));
#1375=DIRECTION('center_axis',(0.,1.,0.));
#1376=DIRECTION('ref_axis',(-1.,0.,1.18423789293348E-14));
#1377=DIRECTION('center_axis',(0.,-1.,0.));
#1378=DIRECTION('ref_axis',(-1.,0.,1.18423789293348E-14));
#1379=DIRECTION('',(0.,1.,0.));
#1380=DIRECTION('center_axis',(0.,0.,-1.));
#1381=DIRECTION('ref_axis',(-1.,0.,0.));
#1382=DIRECTION('',(-1.,0.,0.));
#1383=DIRECTION('',(-1.,0.,0.));
#1384=DIRECTION('',(0.,1.,0.));
#1385=DIRECTION('center_axis',(0.,1.,0.));
#1386=DIRECTION('ref_axis',(1.,0.,-1.18423789293348E-14));
#1387=DIRECTION('center_axis',(0.,1.,0.));
#1388=DIRECTION('ref_axis',(1.,0.,-1.18423789293348E-14));
#1389=DIRECTION('center_axis',(0.,1.,0.));
#1390=DIRECTION('ref_axis',(1.,0.,-1.18423789293348E-14));
#1391=DIRECTION('',(0.,1.,0.));
#1392=DIRECTION('center_axis',(1.,0.,0.));
#1393=DIRECTION('ref_axis',(0.,0.,-1.));
#1394=DIRECTION('',(0.,0.,-1.));
#1395=DIRECTION('',(0.,0.,-1.));
#1396=DIRECTION('',(0.,1.,0.));
#1397=DIRECTION('center_axis',(0.,0.,1.));
#1398=DIRECTION('ref_axis',(1.,0.,0.));
#1399=DIRECTION('',(1.,0.,0.));
#1400=DIRECTION('',(1.,0.,0.));
#1401=DIRECTION('',(0.,1.,0.));
#1402=DIRECTION('center_axis',(0.,1.,0.));
#1403=DIRECTION('ref_axis',(0.,0.,-1.));
#1404=DIRECTION('center_axis',(0.,1.,0.));
#1405=DIRECTION('ref_axis',(0.,0.,-1.));
#1406=DIRECTION('center_axis',(0.,-1.,0.));
#1407=DIRECTION('ref_axis',(0.,0.,-1.));
#1408=DIRECTION('',(0.,1.,0.));
#1409=DIRECTION('center_axis',(0.,0.,-1.));
#1410=DIRECTION('ref_axis',(-1.,0.,0.));
#1411=DIRECTION('',(-1.,0.,0.));
#1412=DIRECTION('',(-1.,0.,0.));
#1413=DIRECTION('',(0.,1.,0.));
#1414=DIRECTION('center_axis',(1.,0.,0.));
#1415=DIRECTION('ref_axis',(0.,0.,-1.));
#1416=DIRECTION('',(0.,0.,-1.));
#1417=DIRECTION('',(0.,0.,-1.));
#1418=DIRECTION('',(0.,1.,0.));
#1419=DIRECTION('center_axis',(0.,1.,0.));
#1420=DIRECTION('ref_axis',(1.18423789293348E-14,0.,1.));
#1421=DIRECTION('center_axis',(0.,1.,0.));
#1422=DIRECTION('ref_axis',(1.18423789293348E-14,0.,1.));
#1423=DIRECTION('center_axis',(0.,1.,0.));
#1424=DIRECTION('ref_axis',(1.18423789293348E-14,0.,1.));
#1425=DIRECTION('',(0.,1.,0.));
#1426=DIRECTION('center_axis',(0.,0.,1.));
#1427=DIRECTION('ref_axis',(1.,0.,0.));
#1428=DIRECTION('',(1.,0.,0.));
#1429=DIRECTION('',(1.,0.,0.));
#1430=DIRECTION('',(0.,1.,0.));
#1431=DIRECTION('center_axis',(0.,1.,0.));
#1432=DIRECTION('ref_axis',(-1.18423789293348E-14,0.,-1.));
#1433=DIRECTION('center_axis',(0.,1.,0.));
#1434=DIRECTION('ref_axis',(-1.18423789293348E-14,0.,-1.));
#1435=DIRECTION('center_axis',(0.,-1.,0.));
#1436=DIRECTION('ref_axis',(-1.18423789293348E-14,0.,-1.));
#1437=DIRECTION('',(0.,1.,0.));
#1438=DIRECTION('center_axis',(1.,0.,0.));
#1439=DIRECTION('ref_axis',(0.,0.,-1.));
#1440=DIRECTION('',(0.,0.,-1.));
#1441=DIRECTION('',(0.,0.,-1.));
#1442=DIRECTION('',(0.,1.,0.));
#1443=DIRECTION('center_axis',(0.,0.,1.));
#1444=DIRECTION('ref_axis',(1.,0.,0.));
#1445=DIRECTION('',(1.,0.,0.));
#1446=DIRECTION('',(1.,0.,0.));
#1447=DIRECTION('',(0.,1.,0.));
#1448=DIRECTION('center_axis',(-1.,0.,0.));
#1449=DIRECTION('ref_axis',(0.,0.,1.));
#1450=DIRECTION('',(0.,0.,1.));
#1451=DIRECTION('',(0.,0.,1.));
#1452=DIRECTION('',(0.,1.,0.));
#1453=DIRECTION('center_axis',(0.,1.,0.));
#1454=DIRECTION('ref_axis',(1.,0.,-1.18423789293348E-14));
#1455=DIRECTION('center_axis',(0.,1.,0.));
#1456=DIRECTION('ref_axis',(1.,0.,-1.18423789293348E-14));
#1457=DIRECTION('center_axis',(0.,-1.,0.));
#1458=DIRECTION('ref_axis',(1.,0.,-1.18423789293348E-14));
#1459=DIRECTION('',(0.,1.,0.));
#1460=DIRECTION('center_axis',(0.,0.,1.));
#1461=DIRECTION('ref_axis',(1.,0.,0.));
#1462=DIRECTION('',(-1.,0.,0.));
#1463=DIRECTION('',(1.,0.,0.));
#1464=DIRECTION('',(0.,1.,0.));
#1465=DIRECTION('center_axis',(0.,1.,0.));
#1466=DIRECTION('ref_axis',(-1.,0.,1.18423789293348E-14));
#1467=DIRECTION('center_axis',(0.,1.,0.));
#1468=DIRECTION('ref_axis',(-1.,0.,1.18423789293348E-14));
#1469=DIRECTION('center_axis',(0.,1.,0.));
#1470=DIRECTION('ref_axis',(-1.,0.,1.18423789293348E-14));
#1471=DIRECTION('',(0.,1.,0.));
#1472=DIRECTION('center_axis',(-1.,0.,0.));
#1473=DIRECTION('ref_axis',(0.,0.,1.));
#1474=DIRECTION('',(0.,0.,-1.));
#1475=DIRECTION('',(0.,0.,1.));
#1476=DIRECTION('',(0.,1.,0.));
#1477=DIRECTION('center_axis',(0.,0.,-1.));
#1478=DIRECTION('ref_axis',(-1.,0.,0.));
#1479=DIRECTION('',(1.,0.,0.));
#1480=DIRECTION('',(-1.,0.,0.));
#1481=DIRECTION('',(0.,1.,0.));
#1482=DIRECTION('center_axis',(0.,1.,0.));
#1483=DIRECTION('ref_axis',(0.,0.,1.));
#1484=DIRECTION('center_axis',(0.,1.,0.));
#1485=DIRECTION('ref_axis',(0.,0.,1.));
#1486=DIRECTION('center_axis',(0.,-1.,0.));
#1487=DIRECTION('ref_axis',(0.,0.,1.));
#1488=DIRECTION('',(0.,1.,0.));
#1489=DIRECTION('center_axis',(0.,0.,1.));
#1490=DIRECTION('ref_axis',(1.,0.,0.));
#1491=DIRECTION('',(-1.,0.,0.));
#1492=DIRECTION('',(1.,0.,0.));
#1493=DIRECTION('',(0.,1.,0.));
#1494=DIRECTION('center_axis',(-1.,0.,0.));
#1495=DIRECTION('ref_axis',(0.,0.,1.));
#1496=DIRECTION('',(0.,0.,-1.));
#1497=DIRECTION('',(0.,0.,1.));
#1498=DIRECTION('',(0.,1.,0.));
#1499=DIRECTION('center_axis',(0.,1.,0.));
#1500=DIRECTION('ref_axis',(-1.18423789293348E-14,0.,-1.));
#1501=DIRECTION('center_axis',(0.,1.,0.));
#1502=DIRECTION('ref_axis',(-1.18423789293348E-14,0.,-1.));
#1503=DIRECTION('center_axis',(0.,1.,0.));
#1504=DIRECTION('ref_axis',(-1.18423789293348E-14,0.,-1.));
#1505=DIRECTION('',(0.,1.,0.));
#1506=DIRECTION('center_axis',(1.26882631385732E-15,0.,-1.));
#1507=DIRECTION('ref_axis',(-1.,0.,-1.26882631385732E-15));
#1508=DIRECTION('',(1.,0.,1.26882631385732E-15));
#1509=DIRECTION('',(-1.,0.,-1.26882631385732E-15));
#1510=DIRECTION('',(0.,1.,0.));
#1511=DIRECTION('center_axis',(0.,1.,0.));
#1512=DIRECTION('ref_axis',(1.18423789293348E-14,0.,1.));
#1513=DIRECTION('center_axis',(0.,1.,0.));
#1514=DIRECTION('ref_axis',(1.18423789293348E-14,0.,1.));
#1515=DIRECTION('center_axis',(0.,-1.,0.));
#1516=DIRECTION('ref_axis',(1.18423789293348E-14,0.,1.));
#1517=DIRECTION('',(0.,1.,0.));
#1518=DIRECTION('center_axis',(-1.,0.,1.91006111763468E-16));
#1519=DIRECTION('ref_axis',(1.91006111763468E-16,0.,1.));
#1520=DIRECTION('',(1.91006111763468E-16,0.,1.));
#1521=DIRECTION('',(1.91006111763468E-16,0.,1.));
#1522=DIRECTION('',(0.,1.,0.));
#1523=DIRECTION('center_axis',(0.,1.,0.));
#1524=DIRECTION('ref_axis',(1.,0.,-1.18423789293348E-14));
#1525=DIRECTION('center_axis',(0.,1.,0.));
#1526=DIRECTION('ref_axis',(1.,0.,-1.18423789293348E-14));
#1527=DIRECTION('center_axis',(0.,-1.,0.));
#1528=DIRECTION('ref_axis',(1.,0.,-1.18423789293348E-14));
#1529=DIRECTION('',(0.,1.,0.));
#1530=DIRECTION('center_axis',(0.,0.,1.));
#1531=DIRECTION('ref_axis',(1.,0.,0.));
#1532=DIRECTION('',(1.,0.,0.));
#1533=DIRECTION('',(1.,0.,0.));
#1534=DIRECTION('',(0.,1.,0.));
#1535=DIRECTION('center_axis',(0.,1.,0.));
#1536=DIRECTION('ref_axis',(-1.,0.,1.18423789293348E-14));
#1537=DIRECTION('center_axis',(0.,1.,0.));
#1538=DIRECTION('ref_axis',(-1.,0.,1.18423789293348E-14));
#1539=DIRECTION('center_axis',(0.,1.,0.));
#1540=DIRECTION('ref_axis',(-1.,0.,1.18423789293348E-14));
#1541=DIRECTION('',(0.,1.,0.));
#1542=DIRECTION('center_axis',(-1.,0.,0.));
#1543=DIRECTION('ref_axis',(0.,0.,1.));
#1544=DIRECTION('',(0.,0.,1.));
#1545=DIRECTION('',(0.,0.,1.));
#1546=DIRECTION('',(0.,1.,0.));
#1547=DIRECTION('center_axis',(0.,0.,-1.));
#1548=DIRECTION('ref_axis',(-1.,0.,0.));
#1549=DIRECTION('',(-1.,0.,0.));
#1550=DIRECTION('',(-1.,0.,0.));
#1551=DIRECTION('',(0.,1.,0.));
#1552=DIRECTION('center_axis',(0.,1.,0.));
#1553=DIRECTION('ref_axis',(0.,0.,1.));
#1554=DIRECTION('center_axis',(0.,1.,0.));
#1555=DIRECTION('ref_axis',(0.,0.,1.));
#1556=DIRECTION('center_axis',(0.,-1.,0.));
#1557=DIRECTION('ref_axis',(0.,0.,1.));
#1558=DIRECTION('',(0.,1.,0.));
#1559=DIRECTION('center_axis',(0.,0.,1.));
#1560=DIRECTION('ref_axis',(1.,0.,0.));
#1561=DIRECTION('',(1.,0.,0.));
#1562=DIRECTION('',(1.,0.,0.));
#1563=DIRECTION('',(0.,1.,0.));
#1564=DIRECTION('center_axis',(-1.,0.,0.));
#1565=DIRECTION('ref_axis',(0.,0.,1.));
#1566=DIRECTION('',(0.,0.,1.));
#1567=DIRECTION('',(0.,0.,1.));
#1568=DIRECTION('',(0.,1.,0.));
#1569=DIRECTION('center_axis',(0.,1.,0.));
#1570=DIRECTION('ref_axis',(-1.18423789293348E-14,0.,-1.));
#1571=DIRECTION('center_axis',(0.,1.,0.));
#1572=DIRECTION('ref_axis',(-1.18423789293348E-14,0.,-1.));
#1573=DIRECTION('center_axis',(0.,1.,0.));
#1574=DIRECTION('ref_axis',(-1.18423789293348E-14,0.,-1.));
#1575=DIRECTION('',(0.,1.,0.));
#1576=DIRECTION('center_axis',(-1.26882631385732E-15,0.,-1.));
#1577=DIRECTION('ref_axis',(-1.,0.,1.26882631385732E-15));
#1578=DIRECTION('',(-1.,0.,1.26882631385732E-15));
#1579=DIRECTION('',(-1.,0.,1.26882631385732E-15));
#1580=DIRECTION('',(0.,1.,0.));
#1581=DIRECTION('center_axis',(0.,1.,0.));
#1582=DIRECTION('ref_axis',(-5.92118946466756E-15,0.,1.));
#1583=DIRECTION('center_axis',(0.,1.,0.));
#1584=DIRECTION('ref_axis',(-5.92118946466756E-15,0.,1.));
#1585=DIRECTION('center_axis',(0.,-1.,0.));
#1586=DIRECTION('ref_axis',(-5.92118946466756E-15,0.,1.));
#1587=DIRECTION('',(0.,1.,0.));
#1588=DIRECTION('center_axis',(-1.,0.,-9.86864910777916E-16));
#1589=DIRECTION('ref_axis',(-9.86864910777916E-16,0.,1.));
#1590=DIRECTION('',(-9.86864910777916E-16,0.,1.));
#1591=DIRECTION('',(-9.86864910777916E-16,0.,1.));
#1592=DIRECTION('',(0.,1.,0.));
#1593=DIRECTION('center_axis',(0.,0.,-1.));
#1594=DIRECTION('ref_axis',(-1.,0.,0.));
#1595=DIRECTION('',(-1.,0.,0.));
#1596=DIRECTION('',(-1.,0.,0.));
#1597=DIRECTION('center_axis',(0.,1.,0.));
#1598=DIRECTION('ref_axis',(1.,0.,0.));
#1599=DIRECTION('center_axis',(0.,1.,0.));
#1600=DIRECTION('ref_axis',(1.,0.,0.));
#1601=CARTESIAN_POINT('',(0.,0.,0.));
#1602=CARTESIAN_POINT('Origin',(-75.,0.,-140.));
#1603=CARTESIAN_POINT('',(-75.,0.,-140.));
#1604=CARTESIAN_POINT('',(75.,0.,-140.));
#1605=CARTESIAN_POINT('',(75.,0.,-140.));
#1606=CARTESIAN_POINT('',(75.,12.,-140.));
#1607=CARTESIAN_POINT('',(75.,0.,-140.));
#1608=CARTESIAN_POINT('',(-75.,12.,-140.));
#1609=CARTESIAN_POINT('',(75.,12.,-140.));
#1610=CARTESIAN_POINT('',(-75.,0.,-140.));
#1611=CARTESIAN_POINT('Origin',(-75.,0.,140.));
#1612=CARTESIAN_POINT('',(-75.,0.,140.));
#1613=CARTESIAN_POINT('',(-75.,0.,-140.));
#1614=CARTESIAN_POINT('',(-75.,12.,140.));
#1615=CARTESIAN_POINT('',(-75.,12.,-140.));
#1616=CARTESIAN_POINT('',(-75.,0.,140.));
#1617=CARTESIAN_POINT('Origin',(75.,0.,140.));
#1618=CARTESIAN_POINT('',(75.,0.,140.));
#1619=CARTESIAN_POINT('',(-75.,0.,140.));
#1620=CARTESIAN_POINT('',(75.,12.,140.));
#1621=CARTESIAN_POINT('',(-75.,12.,140.));
#1622=CARTESIAN_POINT('',(75.,0.,140.));
#1623=CARTESIAN_POINT('Origin',(75.,0.,-140.));
#1624=CARTESIAN_POINT('',(75.,0.,140.));
#1625=CARTESIAN_POINT('',(75.,12.,140.));
#1626=CARTESIAN_POINT('Origin',(100.,0.,-129.));
#1627=CARTESIAN_POINT('',(100.,0.,-129.));
#1628=CARTESIAN_POINT('',(100.,0.,-165.));
#1629=CARTESIAN_POINT('',(100.,0.,-129.));
#1630=CARTESIAN_POINT('',(100.,12.,-165.));
#1631=CARTESIAN_POINT('',(100.,0.,-165.));
#1632=CARTESIAN_POINT('',(100.,12.,-129.));
#1633=CARTESIAN_POINT('',(100.,12.,-129.));
#1634=CARTESIAN_POINT('',(100.,0.,-129.));
#1635=CARTESIAN_POINT('Origin',(103.,0.,-129.));
#1636=CARTESIAN_POINT('',(103.,0.,-126.));
#1637=CARTESIAN_POINT('Origin',(103.,0.,-129.));
#1638=CARTESIAN_POINT('',(103.,12.,-126.));
#1639=CARTESIAN_POINT('Origin',(103.,12.,-129.));
#1640=CARTESIAN_POINT('',(103.,0.,-126.));
#1641=CARTESIAN_POINT('Origin',(117.,0.,-126.));
#1642=CARTESIAN_POINT('',(117.,0.,-126.));
#1643=CARTESIAN_POINT('',(103.,0.,-126.));
#1644=CARTESIAN_POINT('',(117.,12.,-126.));
#1645=CARTESIAN_POINT('',(103.,12.,-126.));
#1646=CARTESIAN_POINT('',(117.,0.,-126.));
#1647=CARTESIAN_POINT('Origin',(117.,0.,-123.));
#1648=CARTESIAN_POINT('',(120.,0.,-123.));
#1649=CARTESIAN_POINT('Origin',(117.,0.,-123.));
#1650=CARTESIAN_POINT('',(120.,12.,-123.));
#1651=CARTESIAN_POINT('Origin',(117.,12.,-123.));
#1652=CARTESIAN_POINT('',(120.,0.,-123.));
#1653=CARTESIAN_POINT('Origin',(120.,0.,-117.));
#1654=CARTESIAN_POINT('',(120.,0.,-117.));
#1655=CARTESIAN_POINT('',(120.,0.,-123.));
#1656=CARTESIAN_POINT('',(120.,12.,-117.));
#1657=CARTESIAN_POINT('',(120.,12.,-123.));
#1658=CARTESIAN_POINT('',(120.,0.,-117.));
#1659=CARTESIAN_POINT('Origin',(103.901040007542,0.,-117.));
#1660=CARTESIAN_POINT('',(103.901040007542,0.,-117.));
#1661=CARTESIAN_POINT('',(120.,0.,-117.));
#1662=CARTESIAN_POINT('',(103.901040007542,12.,-117.));
#1663=CARTESIAN_POINT('',(120.,12.,-117.));
#1664=CARTESIAN_POINT('',(103.901040007542,0.,-117.));
#1665=CARTESIAN_POINT('Origin',(103.901040007542,0.,-111.));
#1666=CARTESIAN_POINT('',(103.901040007542,0.,-105.));
#1667=CARTESIAN_POINT('Origin',(103.901040007542,0.,-111.));
#1668=CARTESIAN_POINT('',(103.901040007542,12.,-105.));
#1669=CARTESIAN_POINT('Origin',(103.901040007542,12.,-111.));
#1670=CARTESIAN_POINT('',(103.901040007542,0.,-105.));
#1671=CARTESIAN_POINT('Origin',(120.,0.,-105.));
#1672=CARTESIAN_POINT('',(120.,0.,-105.));
#1673=CARTESIAN_POINT('',(103.901040007542,0.,-105.));
#1674=CARTESIAN_POINT('',(120.,12.,-105.));
#1675=CARTESIAN_POINT('',(103.901040007542,12.,-105.));
#1676=CARTESIAN_POINT('',(120.,0.,-105.));
#1677=CARTESIAN_POINT('Origin',(120.,0.,-99.));
#1678=CARTESIAN_POINT('',(120.,0.,-99.));
#1679=CARTESIAN_POINT('',(120.,0.,-105.));
#1680=CARTESIAN_POINT('',(120.,12.,-99.));
#1681=CARTESIAN_POINT('',(120.,12.,-105.));
#1682=CARTESIAN_POINT('',(120.,0.,-99.));
#1683=CARTESIAN_POINT('Origin',(117.,0.,-99.));
#1684=CARTESIAN_POINT('',(117.,0.,-96.));
#1685=CARTESIAN_POINT('Origin',(117.,0.,-99.));
#1686=CARTESIAN_POINT('',(117.,12.,-96.));
#1687=CARTESIAN_POINT('Origin',(117.,12.,-99.));
#1688=CARTESIAN_POINT('',(117.,0.,-96.));
#1689=CARTESIAN_POINT('Origin',(103.,0.,-96.));
#1690=CARTESIAN_POINT('',(103.,0.,-96.));
#1691=CARTESIAN_POINT('',(117.,0.,-96.));
#1692=CARTESIAN_POINT('',(103.,12.,-96.));
#1693=CARTESIAN_POINT('',(117.,12.,-96.));
#1694=CARTESIAN_POINT('',(103.,0.,-96.));
#1695=CARTESIAN_POINT('Origin',(103.,0.,-92.9999999999999));
#1696=CARTESIAN_POINT('',(100.,0.,-93.));
#1697=CARTESIAN_POINT('Origin',(103.,0.,-92.9999999999999));
#1698=CARTESIAN_POINT('',(100.,12.,-93.));
#1699=CARTESIAN_POINT('Origin',(103.,12.,-92.9999999999999));
#1700=CARTESIAN_POINT('',(100.,0.,-93.));
#1701=CARTESIAN_POINT('Origin',(100.,0.,93.));
#1702=CARTESIAN_POINT('',(100.,0.,93.));
#1703=CARTESIAN_POINT('',(100.,0.,93.));
#1704=CARTESIAN_POINT('',(100.,12.,92.9999999999999));
#1705=CARTESIAN_POINT('',(100.,12.,93.));
#1706=CARTESIAN_POINT('',(100.,0.,93.));
#1707=CARTESIAN_POINT('Origin',(103.,0.,92.9999999999999));
#1708=CARTESIAN_POINT('',(103.,0.,96.));
#1709=CARTESIAN_POINT('Origin',(103.,0.,92.9999999999999));
#1710=CARTESIAN_POINT('',(103.,12.,96.));
#1711=CARTESIAN_POINT('Origin',(103.,12.,92.9999999999999));
#1712=CARTESIAN_POINT('',(103.,0.,96.));
#1713=CARTESIAN_POINT('Origin',(117.,0.,96.));
#1714=CARTESIAN_POINT('',(117.,0.,96.));
#1715=CARTESIAN_POINT('',(117.,0.,96.));
#1716=CARTESIAN_POINT('',(117.,12.,96.));
#1717=CARTESIAN_POINT('',(117.,12.,96.));
#1718=CARTESIAN_POINT('',(117.,0.,96.));
#1719=CARTESIAN_POINT('Origin',(117.,0.,99.));
#1720=CARTESIAN_POINT('',(120.,0.,99.));
#1721=CARTESIAN_POINT('Origin',(117.,0.,99.));
#1722=CARTESIAN_POINT('',(120.,12.,98.9999999999999));
#1723=CARTESIAN_POINT('Origin',(117.,12.,99.));
#1724=CARTESIAN_POINT('',(120.,0.,99.));
#1725=CARTESIAN_POINT('Origin',(120.,0.,105.));
#1726=CARTESIAN_POINT('',(120.,0.,105.));
#1727=CARTESIAN_POINT('',(120.,0.,105.));
#1728=CARTESIAN_POINT('',(120.,12.,105.));
#1729=CARTESIAN_POINT('',(120.,12.,105.));
#1730=CARTESIAN_POINT('',(120.,0.,105.));
#1731=CARTESIAN_POINT('Origin',(103.901040007542,0.,105.));
#1732=CARTESIAN_POINT('',(103.901040007542,0.,105.));
#1733=CARTESIAN_POINT('',(103.901040007542,0.,105.));
#1734=CARTESIAN_POINT('',(103.901040007542,12.,105.));
#1735=CARTESIAN_POINT('',(103.901040007542,12.,105.));
#1736=CARTESIAN_POINT('',(103.901040007542,0.,105.));
#1737=CARTESIAN_POINT('Origin',(103.901040007542,0.,111.));
#1738=CARTESIAN_POINT('',(103.901040007542,0.,117.));
#1739=CARTESIAN_POINT('Origin',(103.901040007542,0.,111.));
#1740=CARTESIAN_POINT('',(103.901040007542,12.,117.));
#1741=CARTESIAN_POINT('Origin',(103.901040007542,12.,111.));
#1742=CARTESIAN_POINT('',(103.901040007542,0.,117.));
#1743=CARTESIAN_POINT('Origin',(120.,0.,117.));
#1744=CARTESIAN_POINT('',(120.,0.,117.));
#1745=CARTESIAN_POINT('',(120.,0.,117.));
#1746=CARTESIAN_POINT('',(120.,12.,117.));
#1747=CARTESIAN_POINT('',(120.,12.,117.));
#1748=CARTESIAN_POINT('',(120.,0.,117.));
#1749=CARTESIAN_POINT('Origin',(120.,0.,123.));
#1750=CARTESIAN_POINT('',(120.,0.,123.));
#1751=CARTESIAN_POINT('',(120.,0.,123.));
#1752=CARTESIAN_POINT('',(120.,12.,123.));
#1753=CARTESIAN_POINT('',(120.,12.,123.));
#1754=CARTESIAN_POINT('',(120.,0.,123.));
#1755=CARTESIAN_POINT('Origin',(117.,0.,123.));
#1756=CARTESIAN_POINT('',(117.,0.,126.));
#1757=CARTESIAN_POINT('Origin',(117.,0.,123.));
#1758=CARTESIAN_POINT('',(117.,12.,126.));
#1759=CARTESIAN_POINT('Origin',(117.,12.,123.));
#1760=CARTESIAN_POINT('',(117.,0.,126.));
#1761=CARTESIAN_POINT('Origin',(103.,0.,126.));
#1762=CARTESIAN_POINT('',(103.,0.,126.));
#1763=CARTESIAN_POINT('',(103.,0.,126.));
#1764=CARTESIAN_POINT('',(103.,12.,126.));
#1765=CARTESIAN_POINT('',(103.,12.,126.));
#1766=CARTESIAN_POINT('',(103.,0.,126.));
#1767=CARTESIAN_POINT('Origin',(103.,0.,129.));
#1768=CARTESIAN_POINT('',(100.,0.,129.));
#1769=CARTESIAN_POINT('Origin',(103.,0.,129.));
#1770=CARTESIAN_POINT('',(100.,12.,129.));
#1771=CARTESIAN_POINT('Origin',(103.,12.,129.));
#1772=CARTESIAN_POINT('',(100.,0.,129.));
#1773=CARTESIAN_POINT('Origin',(100.,0.,165.));
#1774=CARTESIAN_POINT('',(100.,0.,165.));
#1775=CARTESIAN_POINT('',(100.,0.,165.));
#1776=CARTESIAN_POINT('',(100.,12.,165.));
#1777=CARTESIAN_POINT('',(100.,12.,165.));
#1778=CARTESIAN_POINT('',(100.,0.,165.));
#1779=CARTESIAN_POINT('Origin',(-100.,0.,165.));
#1780=CARTESIAN_POINT('',(-100.,0.,165.));
#1781=CARTESIAN_POINT('',(-100.,0.,165.));
#1782=CARTESIAN_POINT('',(-100.,12.,165.));
#1783=CARTESIAN_POINT('',(-100.,12.,165.));
#1784=CARTESIAN_POINT('',(-100.,0.,165.));
#1785=CARTESIAN_POINT('Origin',(-100.,0.,129.));
#1786=CARTESIAN_POINT('',(-100.,0.,129.));
#1787=CARTESIAN_POINT('',(-100.,0.,129.));
#1788=CARTESIAN_POINT('',(-100.,12.,129.));
#1789=CARTESIAN_POINT('',(-100.,12.,129.));
#1790=CARTESIAN_POINT('',(-100.,0.,129.));
#1791=CARTESIAN_POINT('Origin',(-103.,0.,129.));
#1792=CARTESIAN_POINT('',(-103.,0.,126.));
#1793=CARTESIAN_POINT('Origin',(-103.,0.,129.));
#1794=CARTESIAN_POINT('',(-103.,12.,126.));
#1795=CARTESIAN_POINT('Origin',(-103.,12.,129.));
#1796=CARTESIAN_POINT('',(-103.,0.,126.));
#1797=CARTESIAN_POINT('Origin',(-117.,0.,126.));
#1798=CARTESIAN_POINT('',(-117.,0.,126.));
#1799=CARTESIAN_POINT('',(-103.,0.,126.));
#1800=CARTESIAN_POINT('',(-117.,12.,126.));
#1801=CARTESIAN_POINT('',(-103.,12.,126.));
#1802=CARTESIAN_POINT('',(-117.,0.,126.));
#1803=CARTESIAN_POINT('Origin',(-117.,0.,123.));
#1804=CARTESIAN_POINT('',(-120.,0.,123.));
#1805=CARTESIAN_POINT('Origin',(-117.,0.,123.));
#1806=CARTESIAN_POINT('',(-120.,12.,123.));
#1807=CARTESIAN_POINT('Origin',(-117.,12.,123.));
#1808=CARTESIAN_POINT('',(-120.,0.,123.));
#1809=CARTESIAN_POINT('Origin',(-120.,0.,117.));
#1810=CARTESIAN_POINT('',(-120.,0.,117.));
#1811=CARTESIAN_POINT('',(-120.,0.,123.));
#1812=CARTESIAN_POINT('',(-120.,12.,117.));
#1813=CARTESIAN_POINT('',(-120.,12.,123.));
#1814=CARTESIAN_POINT('',(-120.,0.,117.));
#1815=CARTESIAN_POINT('Origin',(-103.901040007542,0.,117.));
#1816=CARTESIAN_POINT('',(-103.901040007542,0.,117.));
#1817=CARTESIAN_POINT('',(-120.,0.,117.));
#1818=CARTESIAN_POINT('',(-103.901040007542,12.,117.));
#1819=CARTESIAN_POINT('',(-120.,12.,117.));
#1820=CARTESIAN_POINT('',(-103.901040007542,0.,117.));
#1821=CARTESIAN_POINT('Origin',(-103.901040007542,0.,111.));
#1822=CARTESIAN_POINT('',(-103.901040007542,0.,105.));
#1823=CARTESIAN_POINT('Origin',(-103.901040007542,0.,111.));
#1824=CARTESIAN_POINT('',(-103.901040007542,12.,105.));
#1825=CARTESIAN_POINT('Origin',(-103.901040007542,12.,111.));
#1826=CARTESIAN_POINT('',(-103.901040007542,0.,105.));
#1827=CARTESIAN_POINT('Origin',(-120.,0.,105.));
#1828=CARTESIAN_POINT('',(-120.,0.,105.));
#1829=CARTESIAN_POINT('',(-103.901040007542,0.,105.));
#1830=CARTESIAN_POINT('',(-120.,12.,105.));
#1831=CARTESIAN_POINT('',(-103.901040007542,12.,105.));
#1832=CARTESIAN_POINT('',(-120.,0.,105.));
#1833=CARTESIAN_POINT('Origin',(-120.,0.,99.));
#1834=CARTESIAN_POINT('',(-120.,0.,99.));
#1835=CARTESIAN_POINT('',(-120.,0.,105.));
#1836=CARTESIAN_POINT('',(-120.,12.,98.9999999999999));
#1837=CARTESIAN_POINT('',(-120.,12.,105.));
#1838=CARTESIAN_POINT('',(-120.,0.,99.));
#1839=CARTESIAN_POINT('Origin',(-117.,0.,99.));
#1840=CARTESIAN_POINT('',(-117.,0.,96.));
#1841=CARTESIAN_POINT('Origin',(-117.,0.,99.));
#1842=CARTESIAN_POINT('',(-117.,12.,96.));
#1843=CARTESIAN_POINT('Origin',(-117.,12.,99.));
#1844=CARTESIAN_POINT('',(-117.,0.,96.));
#1845=CARTESIAN_POINT('Origin',(-103.,0.,96.));
#1846=CARTESIAN_POINT('',(-103.,0.,96.));
#1847=CARTESIAN_POINT('',(-117.,0.,96.));
#1848=CARTESIAN_POINT('',(-103.,12.,96.));
#1849=CARTESIAN_POINT('',(-117.,12.,96.));
#1850=CARTESIAN_POINT('',(-103.,0.,96.));
#1851=CARTESIAN_POINT('Origin',(-103.,0.,92.9999999999999));
#1852=CARTESIAN_POINT('',(-100.,0.,92.9999999999999));
#1853=CARTESIAN_POINT('Origin',(-103.,0.,92.9999999999999));
#1854=CARTESIAN_POINT('',(-100.,12.,92.9999999999999));
#1855=CARTESIAN_POINT('Origin',(-103.,12.,92.9999999999999));
#1856=CARTESIAN_POINT('',(-100.,0.,92.9999999999999));
#1857=CARTESIAN_POINT('Origin',(-100.,0.,-92.9999999999999));
#1858=CARTESIAN_POINT('',(-100.,0.,-92.9999999999999));
#1859=CARTESIAN_POINT('',(-100.,0.,-92.9999999999999));
#1860=CARTESIAN_POINT('',(-100.,12.,-92.9999999999999));
#1861=CARTESIAN_POINT('',(-100.,12.,-92.9999999999999));
#1862=CARTESIAN_POINT('',(-100.,0.,-92.9999999999999));
#1863=CARTESIAN_POINT('Origin',(-103.,0.,-92.9999999999999));
#1864=CARTESIAN_POINT('',(-103.,0.,-95.9999999999999));
#1865=CARTESIAN_POINT('Origin',(-103.,0.,-92.9999999999999));
#1866=CARTESIAN_POINT('',(-103.,12.,-95.9999999999999));
#1867=CARTESIAN_POINT('Origin',(-103.,12.,-92.9999999999999));
#1868=CARTESIAN_POINT('',(-103.,0.,-95.9999999999999));
#1869=CARTESIAN_POINT('Origin',(-117.,0.,-95.9999999999999));
#1870=CARTESIAN_POINT('',(-117.,0.,-95.9999999999999));
#1871=CARTESIAN_POINT('',(-117.,0.,-95.9999999999999));
#1872=CARTESIAN_POINT('',(-117.,12.,-95.9999999999999));
#1873=CARTESIAN_POINT('',(-117.,12.,-95.9999999999999));
#1874=CARTESIAN_POINT('',(-117.,0.,-95.9999999999999));
#1875=CARTESIAN_POINT('Origin',(-117.,0.,-99.));
#1876=CARTESIAN_POINT('',(-120.,0.,-98.9999999999999));
#1877=CARTESIAN_POINT('Origin',(-117.,0.,-99.));
#1878=CARTESIAN_POINT('',(-120.,12.,-98.9999999999999));
#1879=CARTESIAN_POINT('Origin',(-117.,12.,-99.));
#1880=CARTESIAN_POINT('',(-120.,0.,-98.9999999999999));
#1881=CARTESIAN_POINT('Origin',(-120.,0.,-105.));
#1882=CARTESIAN_POINT('',(-120.,0.,-105.));
#1883=CARTESIAN_POINT('',(-120.,0.,-105.));
#1884=CARTESIAN_POINT('',(-120.,12.,-105.));
#1885=CARTESIAN_POINT('',(-120.,12.,-105.));
#1886=CARTESIAN_POINT('',(-120.,0.,-105.));
#1887=CARTESIAN_POINT('Origin',(-103.901040007542,0.,-105.));
#1888=CARTESIAN_POINT('',(-103.901040007542,0.,-105.));
#1889=CARTESIAN_POINT('',(-103.901040007542,0.,-105.));
#1890=CARTESIAN_POINT('',(-103.901040007542,12.,-105.));
#1891=CARTESIAN_POINT('',(-103.901040007542,12.,-105.));
#1892=CARTESIAN_POINT('',(-103.901040007542,0.,-105.));
#1893=CARTESIAN_POINT('Origin',(-103.901040007542,0.,-111.));
#1894=CARTESIAN_POINT('',(-103.901040007542,0.,-117.));
#1895=CARTESIAN_POINT('Origin',(-103.901040007542,0.,-111.));
#1896=CARTESIAN_POINT('',(-103.901040007542,12.,-117.));
#1897=CARTESIAN_POINT('Origin',(-103.901040007542,12.,-111.));
#1898=CARTESIAN_POINT('',(-103.901040007542,0.,-117.));
#1899=CARTESIAN_POINT('Origin',(-120.,0.,-117.));
#1900=CARTESIAN_POINT('',(-120.,0.,-117.));
#1901=CARTESIAN_POINT('',(-120.,0.,-117.));
#1902=CARTESIAN_POINT('',(-120.,12.,-117.));
#1903=CARTESIAN_POINT('',(-120.,12.,-117.));
#1904=CARTESIAN_POINT('',(-120.,0.,-117.));
#1905=CARTESIAN_POINT('Origin',(-120.,0.,-123.));
#1906=CARTESIAN_POINT('',(-120.,0.,-123.));
#1907=CARTESIAN_POINT('',(-120.,0.,-123.));
#1908=CARTESIAN_POINT('',(-120.,12.,-123.));
#1909=CARTESIAN_POINT('',(-120.,12.,-123.));
#1910=CARTESIAN_POINT('',(-120.,0.,-123.));
#1911=CARTESIAN_POINT('Origin',(-117.,0.,-123.));
#1912=CARTESIAN_POINT('',(-117.,0.,-126.));
#1913=CARTESIAN_POINT('Origin',(-117.,0.,-123.));
#1914=CARTESIAN_POINT('',(-117.,12.,-126.));
#1915=CARTESIAN_POINT('Origin',(-117.,12.,-123.));
#1916=CARTESIAN_POINT('',(-117.,0.,-126.));
#1917=CARTESIAN_POINT('Origin',(-103.,0.,-126.));
#1918=CARTESIAN_POINT('',(-103.,0.,-126.));
#1919=CARTESIAN_POINT('',(-103.,0.,-126.));
#1920=CARTESIAN_POINT('',(-103.,12.,-126.));
#1921=CARTESIAN_POINT('',(-103.,12.,-126.));
#1922=CARTESIAN_POINT('',(-103.,0.,-126.));
#1923=CARTESIAN_POINT('Origin',(-103.,0.,-129.));
#1924=CARTESIAN_POINT('',(-100.,0.,-129.));
#1925=CARTESIAN_POINT('Origin',(-103.,0.,-129.));
#1926=CARTESIAN_POINT('',(-100.,12.,-129.));
#1927=CARTESIAN_POINT('Origin',(-103.,12.,-129.));
#1928=CARTESIAN_POINT('',(-100.,0.,-129.));
#1929=CARTESIAN_POINT('Origin',(-100.,0.,-165.));
#1930=CARTESIAN_POINT('',(-100.,0.,-165.));
#1931=CARTESIAN_POINT('',(-100.,0.,-165.));
#1932=CARTESIAN_POINT('',(-100.,12.,-165.));
#1933=CARTESIAN_POINT('',(-100.,12.,-165.));
#1934=CARTESIAN_POINT('',(-100.,0.,-165.));
#1935=CARTESIAN_POINT('Origin',(100.,0.,-165.));
#1936=CARTESIAN_POINT('',(100.,0.,-165.));
#1937=CARTESIAN_POINT('',(100.,12.,-165.));
#1938=CARTESIAN_POINT('Origin',(0.,12.,0.));
#1939=CARTESIAN_POINT('Origin',(0.,0.,0.));
#1940=UNCERTAINTY_MEASURE_WITH_UNIT(LENGTH_MEASURE(0.01),#1944,
'DISTANCE_ACCURACY_VALUE',
'Maximum model space distance between geometric entities at asserted c
onnectivities');
#1941=UNCERTAINTY_MEASURE_WITH_UNIT(LENGTH_MEASURE(0.01),#1944,
'DISTANCE_ACCURACY_VALUE',
'Maximum model space distance between geometric entities at asserted c
onnectivities');
#1942=(
GEOMETRIC_REPRESENTATION_CONTEXT(3)
GLOBAL_UNCERTAINTY_ASSIGNED_CONTEXT((#1940))
GLOBAL_UNIT_ASSIGNED_CONTEXT((#1944,#1946,#1947))
REPRESENTATION_CONTEXT('','3D')
);
#1943=(
GEOMETRIC_REPRESENTATION_CONTEXT(3)
GLOBAL_UNCERTAINTY_ASSIGNED_CONTEXT((#1941))
GLOBAL_UNIT_ASSIGNED_CONTEXT((#1944,#1946,#1947))
REPRESENTATION_CONTEXT('','3D')
);
#1944=(
LENGTH_UNIT()
NAMED_UNIT(*)
SI_UNIT(.MILLI.,.METRE.)
);
#1945=(
LENGTH_UNIT()
NAMED_UNIT(*)
SI_UNIT($,.METRE.)
);
#1946=(
NAMED_UNIT(*)
PLANE_ANGLE_UNIT()
SI_UNIT($,.RADIAN.)
);
#1947=(
NAMED_UNIT(*)
SI_UNIT($,.STERADIAN.)
SOLID_ANGLE_UNIT()
);
#1948=SHAPE_DEFINITION_REPRESENTATION(#1949,#1950);
#1949=PRODUCT_DEFINITION_SHAPE('',$,#1952);
#1950=SHAPE_REPRESENTATION('',(#1176),#1942);
#1951=PRODUCT_DEFINITION_CONTEXT('part definition',#1956,'design');
#1952=PRODUCT_DEFINITION('Hopper Flange','Hopper Flange',#1953,#1951);
#1953=PRODUCT_DEFINITION_FORMATION('',$,#1958);
#1954=PRODUCT_RELATED_PRODUCT_CATEGORY('Hopper Flange','Hopper Flange',
(#1958));
#1955=APPLICATION_PROTOCOL_DEFINITION('international standard',
'automotive_design',2009,#1956);
#1956=APPLICATION_CONTEXT(
'Core Data for Automotive Mechanical Design Process');
#1957=PRODUCT_CONTEXT('part definition',#1956,'mechanical');
#1958=PRODUCT('Hopper Flange','Hopper Flange',$,(#1957));
#1959=PRESENTATION_STYLE_ASSIGNMENT((#1961));
#1960=PRESENTATION_STYLE_ASSIGNMENT((#1962));
#1961=SURFACE_STYLE_USAGE(.BOTH.,#1963);
#1962=SURFACE_STYLE_USAGE(.BOTH.,#1964);
#1963=SURFACE_SIDE_STYLE('',(#1965));
#1964=SURFACE_SIDE_STYLE('',(#1966));
#1965=SURFACE_STYLE_FILL_AREA(#1967);
#1966=SURFACE_STYLE_FILL_AREA(#1968);
#1967=FILL_AREA_STYLE('Steel - Satin',(#1969));
#1968=FILL_AREA_STYLE('Polymide (Kapton)',(#1970));
#1969=FILL_AREA_STYLE_COLOUR('Steel - Satin',#1971);
#1970=FILL_AREA_STYLE_COLOUR('Polymide (Kapton)',#1972);
#1971=COLOUR_RGB('Steel - Satin',0.627450980392157,0.627450980392157,0.627450980392157);
#1972=COLOUR_RGB('Polymide (Kapton)',0.784313725490196,0.556862745098039,
0.0274509803921569);
ENDSEC;
END-ISO-10303-21;
