ISO-10303-21;
HEADER;
/* Generated by software containing ST-Developer
 * from STEP Tools, Inc. (www.steptools.com) 
 */

FILE_DESCRIPTION(
/* description */ (''),
/* implementation_level */ '2;1');

FILE_NAME(
/* name */ 'Model.step',
/* time_stamp */ '2026-08-11T01:31:59+05:30',
/* author */ (''),
/* organization */ (''),
/* preprocessor_version */ 'ST-DEVELOPER v20.1',
/* originating_system */ 'Autodesk Translation Framework v15.8.0.0',
/* authorisation */ '');

FILE_SCHEMA (('AUTOMOTIVE_DESIGN { 1 0 10303 214 3 1 1 }'));
ENDSEC;

DATA;
#10=MECHANICAL_DESIGN_GEOMETRIC_PRESENTATION_REPRESENTATION('',(#13),#323);
#11=SHAPE_REPRESENTATION_RELATIONSHIP('SRR','None',#330,#12);
#12=ADVANCED_BREP_SHAPE_REPRESENTATION('',(#14),#322);
#13=STYLED_ITEM('',(#340),#14);
#14=MANIFOLD_SOLID_BREP('Body1',#167);
#15=FACE_BOUND('',#49,.T.);
#16=FACE_BOUND('',#52,.T.);
#17=PLANE('',#199);
#18=PLANE('',#203);
#19=LINE('',#291,#23);
#20=LINE('',#302,#24);
#21=LINE('',#309,#25);
#22=LINE('',#319,#26);
#23=VECTOR('',#233,2.);
#24=VECTOR('',#248,3.);
#25=VECTOR('',#257,3.5);
#26=VECTOR('',#270,3.);
#27=CYLINDRICAL_SURFACE('',#190,2.);
#28=CYLINDRICAL_SURFACE('',#197,3.);
#29=CYLINDRICAL_SURFACE('',#201,3.5);
#30=CYLINDRICAL_SURFACE('',#208,3.);
#31=TOROIDAL_SURFACE('',#184,2.99999999999999,0.999999999999996);
#32=TOROIDAL_SURFACE('',#193,3.,1.);
#33=FACE_OUTER_BOUND('',#43,.T.);
#34=FACE_OUTER_BOUND('',#44,.T.);
#35=FACE_OUTER_BOUND('',#45,.T.);
#36=FACE_OUTER_BOUND('',#46,.T.);
#37=FACE_OUTER_BOUND('',#47,.T.);
#38=FACE_OUTER_BOUND('',#48,.T.);
#39=FACE_OUTER_BOUND('',#50,.T.);
#40=FACE_OUTER_BOUND('',#51,.T.);
#41=FACE_OUTER_BOUND('',#53,.T.);
#42=FACE_OUTER_BOUND('',#54,.T.);
#43=EDGE_LOOP('',(#111,#112,#113));
#44=EDGE_LOOP('',(#114,#115,#116,#117,#118,#119));
#45=EDGE_LOOP('',(#120,#121,#122,#123,#124,#125));
#46=EDGE_LOOP('',(#126,#127,#128,#129,#130,#131));
#47=EDGE_LOOP('',(#132,#133,#134,#135,#136));
#48=EDGE_LOOP('',(#137));
#49=EDGE_LOOP('',(#138));
#50=EDGE_LOOP('',(#139,#140,#141,#142));
#51=EDGE_LOOP('',(#143));
#52=EDGE_LOOP('',(#144));
#53=EDGE_LOOP('',(#145,#146,#147,#148));
#54=EDGE_LOOP('',(#149,#150,#151,#152,#153,#154));
#55=CIRCLE('',#182,1.5);
#56=CIRCLE('',#183,1.5);
#57=CIRCLE('',#185,3.);
#58=CIRCLE('',#186,0.999999999999996);
#59=CIRCLE('',#187,2.);
#60=CIRCLE('',#188,2.);
#61=CIRCLE('',#189,3.);
#62=CIRCLE('',#191,2.);
#63=CIRCLE('',#192,2.);
#64=CIRCLE('',#194,1.);
#65=CIRCLE('',#195,3.);
#66=CIRCLE('',#196,3.);
#67=CIRCLE('',#198,3.);
#68=CIRCLE('',#200,3.5);
#69=CIRCLE('',#202,3.5);
#70=CIRCLE('',#205,3.);
#71=CIRCLE('',#206,3.);
#72=CIRCLE('',#207,3.);
#73=VERTEX_POINT('',#273);
#74=VERTEX_POINT('',#275);
#75=VERTEX_POINT('',#278);
#76=VERTEX_POINT('',#279);
#77=VERTEX_POINT('',#281);
#78=VERTEX_POINT('',#283);
#79=VERTEX_POINT('',#288);
#80=VERTEX_POINT('',#289);
#81=VERTEX_POINT('',#294);
#82=VERTEX_POINT('',#296);
#83=VERTEX_POINT('',#300);
#84=VERTEX_POINT('',#304);
#85=VERTEX_POINT('',#307);
#86=VERTEX_POINT('',#312);
#87=VERTEX_POINT('',#313);
#88=VERTEX_POINT('',#316);
#89=EDGE_CURVE('',#73,#73,#55,.T.);
#90=EDGE_CURVE('',#73,#74,#56,.T.);
#91=EDGE_CURVE('',#75,#76,#57,.T.);
#92=EDGE_CURVE('',#76,#77,#58,.T.);
#93=EDGE_CURVE('',#78,#77,#59,.T.);
#94=EDGE_CURVE('',#77,#78,#60,.T.);
#95=EDGE_CURVE('',#76,#75,#61,.T.);
#96=EDGE_CURVE('',#79,#80,#62,.T.);
#97=EDGE_CURVE('',#79,#78,#19,.T.);
#98=EDGE_CURVE('',#80,#79,#63,.T.);
#99=EDGE_CURVE('',#80,#81,#64,.T.);
#100=EDGE_CURVE('',#82,#81,#65,.T.);
#101=EDGE_CURVE('',#81,#82,#66,.T.);
#102=EDGE_CURVE('',#83,#83,#67,.T.);
#103=EDGE_CURVE('',#83,#82,#20,.T.);
#104=EDGE_CURVE('',#84,#84,#68,.T.);
#105=EDGE_CURVE('',#85,#85,#69,.T.);
#106=EDGE_CURVE('',#85,#84,#21,.T.);
#107=EDGE_CURVE('',#86,#87,#70,.T.);
#108=EDGE_CURVE('',#87,#86,#71,.T.);
#109=EDGE_CURVE('',#88,#87,#72,.T.);
#110=EDGE_CURVE('',#75,#86,#22,.T.);
#111=ORIENTED_EDGE('',*,*,#89,.F.);
#112=ORIENTED_EDGE('',*,*,#90,.T.);
#113=ORIENTED_EDGE('',*,*,#90,.F.);
#114=ORIENTED_EDGE('',*,*,#91,.T.);
#115=ORIENTED_EDGE('',*,*,#92,.T.);
#116=ORIENTED_EDGE('',*,*,#93,.F.);
#117=ORIENTED_EDGE('',*,*,#94,.F.);
#118=ORIENTED_EDGE('',*,*,#92,.F.);
#119=ORIENTED_EDGE('',*,*,#95,.T.);
#120=ORIENTED_EDGE('',*,*,#96,.F.);
#121=ORIENTED_EDGE('',*,*,#97,.T.);
#122=ORIENTED_EDGE('',*,*,#93,.T.);
#123=ORIENTED_EDGE('',*,*,#94,.T.);
#124=ORIENTED_EDGE('',*,*,#97,.F.);
#125=ORIENTED_EDGE('',*,*,#98,.F.);
#126=ORIENTED_EDGE('',*,*,#96,.T.);
#127=ORIENTED_EDGE('',*,*,#99,.T.);
#128=ORIENTED_EDGE('',*,*,#100,.F.);
#129=ORIENTED_EDGE('',*,*,#101,.F.);
#130=ORIENTED_EDGE('',*,*,#99,.F.);
#131=ORIENTED_EDGE('',*,*,#98,.T.);
#132=ORIENTED_EDGE('',*,*,#102,.F.);
#133=ORIENTED_EDGE('',*,*,#103,.T.);
#134=ORIENTED_EDGE('',*,*,#100,.T.);
#135=ORIENTED_EDGE('',*,*,#101,.T.);
#136=ORIENTED_EDGE('',*,*,#103,.F.);
#137=ORIENTED_EDGE('',*,*,#104,.F.);
#138=ORIENTED_EDGE('',*,*,#102,.T.);
#139=ORIENTED_EDGE('',*,*,#105,.F.);
#140=ORIENTED_EDGE('',*,*,#106,.T.);
#141=ORIENTED_EDGE('',*,*,#104,.T.);
#142=ORIENTED_EDGE('',*,*,#106,.F.);
#143=ORIENTED_EDGE('',*,*,#105,.T.);
#144=ORIENTED_EDGE('',*,*,#89,.T.);
#145=ORIENTED_EDGE('',*,*,#107,.F.);
#146=ORIENTED_EDGE('',*,*,#108,.F.);
#147=ORIENTED_EDGE('',*,*,#109,.F.);
#148=ORIENTED_EDGE('',*,*,#109,.T.);
#149=ORIENTED_EDGE('',*,*,#91,.F.);
#150=ORIENTED_EDGE('',*,*,#110,.T.);
#151=ORIENTED_EDGE('',*,*,#107,.T.);
#152=ORIENTED_EDGE('',*,*,#108,.T.);
#153=ORIENTED_EDGE('',*,*,#110,.F.);
#154=ORIENTED_EDGE('',*,*,#95,.F.);
#155=SPHERICAL_SURFACE('',#181,1.5);
#156=SPHERICAL_SURFACE('',#204,3.);
#157=ADVANCED_FACE('',(#33),#155,.F.);
#158=ADVANCED_FACE('',(#34),#31,.F.);
#159=ADVANCED_FACE('',(#35),#27,.T.);
#160=ADVANCED_FACE('',(#36),#32,.F.);
#161=ADVANCED_FACE('',(#37),#28,.T.);
#162=ADVANCED_FACE('',(#38,#15),#17,.T.);
#163=ADVANCED_FACE('',(#39),#29,.T.);
#164=ADVANCED_FACE('',(#40,#16),#18,.T.);
#165=ADVANCED_FACE('',(#41),#156,.T.);
#166=ADVANCED_FACE('',(#42),#30,.T.);
#167=CLOSED_SHELL('',(#157,#158,#159,#160,#161,#162,#163,#164,#165,#166));
#168=DERIVED_UNIT_ELEMENT(#170,1.);
#169=DERIVED_UNIT_ELEMENT(#325,-3.);
#170=(
MASS_UNIT()
NAMED_UNIT(*)
SI_UNIT(.KILO.,.GRAM.)
);
#171=DERIVED_UNIT((#168,#169));
#172=MEASURE_REPRESENTATION_ITEM('density measure',
POSITIVE_RATIO_MEASURE(7850.),#171);
#173=PROPERTY_DEFINITION_REPRESENTATION(#178,#175);
#174=PROPERTY_DEFINITION_REPRESENTATION(#179,#176);
#175=REPRESENTATION('material name',(#177),#322);
#176=REPRESENTATION('density',(#172),#322);
#177=DESCRIPTIVE_REPRESENTATION_ITEM('Steel','Steel');
#178=PROPERTY_DEFINITION('material property','material name',#332);
#179=PROPERTY_DEFINITION('material property','density of part',#332);
#180=AXIS2_PLACEMENT_3D('',#271,#209,#210);
#181=AXIS2_PLACEMENT_3D('',#272,#211,#212);
#182=AXIS2_PLACEMENT_3D('',#274,#213,#214);
#183=AXIS2_PLACEMENT_3D('',#276,#215,#216);
#184=AXIS2_PLACEMENT_3D('',#277,#217,#218);
#185=AXIS2_PLACEMENT_3D('',#280,#219,#220);
#186=AXIS2_PLACEMENT_3D('',#282,#221,#222);
#187=AXIS2_PLACEMENT_3D('',#284,#223,#224);
#188=AXIS2_PLACEMENT_3D('',#285,#225,#226);
#189=AXIS2_PLACEMENT_3D('',#286,#227,#228);
#190=AXIS2_PLACEMENT_3D('',#287,#229,#230);
#191=AXIS2_PLACEMENT_3D('',#290,#231,#232);
#192=AXIS2_PLACEMENT_3D('',#292,#234,#235);
#193=AXIS2_PLACEMENT_3D('',#293,#236,#237);
#194=AXIS2_PLACEMENT_3D('',#295,#238,#239);
#195=AXIS2_PLACEMENT_3D('',#297,#240,#241);
#196=AXIS2_PLACEMENT_3D('',#298,#242,#243);
#197=AXIS2_PLACEMENT_3D('',#299,#244,#245);
#198=AXIS2_PLACEMENT_3D('',#301,#246,#247);
#199=AXIS2_PLACEMENT_3D('',#303,#249,#250);
#200=AXIS2_PLACEMENT_3D('',#305,#251,#252);
#201=AXIS2_PLACEMENT_3D('',#306,#253,#254);
#202=AXIS2_PLACEMENT_3D('',#308,#255,#256);
#203=AXIS2_PLACEMENT_3D('',#310,#258,#259);
#204=AXIS2_PLACEMENT_3D('',#311,#260,#261);
#205=AXIS2_PLACEMENT_3D('',#314,#262,#263);
#206=AXIS2_PLACEMENT_3D('',#315,#264,#265);
#207=AXIS2_PLACEMENT_3D('',#317,#266,#267);
#208=AXIS2_PLACEMENT_3D('',#318,#268,#269);
#209=DIRECTION('axis',(0.,0.,1.));
#210=DIRECTION('refdir',(1.,0.,0.));
#211=DIRECTION('center_axis',(0.,1.,-6.12323399573677E-17));
#212=DIRECTION('ref_axis',(0.,0.,-1.));
#213=DIRECTION('center_axis',(0.,1.,0.));
#214=DIRECTION('ref_axis',(0.,0.,1.));
#215=DIRECTION('center_axis',(-1.,0.,1.22464679914735E-16));
#216=DIRECTION('ref_axis',(1.22464679914735E-16,0.,1.));
#217=DIRECTION('center_axis',(0.,-1.,0.));
#218=DIRECTION('ref_axis',(0.,0.,-1.));
#219=DIRECTION('center_axis',(0.,-1.,0.));
#220=DIRECTION('ref_axis',(1.,0.,0.));
#221=DIRECTION('center_axis',(-1.,0.,-1.22464679914735E-16));
#222=DIRECTION('ref_axis',(-1.22464679914735E-16,0.,1.));
#223=DIRECTION('center_axis',(0.,-1.,0.));
#224=DIRECTION('ref_axis',(1.,0.,0.));
#225=DIRECTION('center_axis',(0.,-1.,0.));
#226=DIRECTION('ref_axis',(1.,0.,0.));
#227=DIRECTION('center_axis',(0.,-1.,0.));
#228=DIRECTION('ref_axis',(1.,0.,0.));
#229=DIRECTION('center_axis',(0.,-1.,0.));
#230=DIRECTION('ref_axis',(1.,0.,0.));
#231=DIRECTION('center_axis',(0.,-1.,0.));
#232=DIRECTION('ref_axis',(1.,0.,0.));
#233=DIRECTION('',(0.,1.,0.));
#234=DIRECTION('center_axis',(0.,-1.,0.));
#235=DIRECTION('ref_axis',(1.,0.,0.));
#236=DIRECTION('center_axis',(0.,-1.,0.));
#237=DIRECTION('ref_axis',(0.,0.,-1.));
#238=DIRECTION('center_axis',(-1.,0.,-1.22464679914735E-16));
#239=DIRECTION('ref_axis',(-1.22464679914735E-16,0.,1.));
#240=DIRECTION('center_axis',(0.,-1.,0.));
#241=DIRECTION('ref_axis',(1.,0.,0.));
#242=DIRECTION('center_axis',(0.,-1.,0.));
#243=DIRECTION('ref_axis',(1.,0.,0.));
#244=DIRECTION('center_axis',(0.,-1.,0.));
#245=DIRECTION('ref_axis',(1.,0.,0.));
#246=DIRECTION('center_axis',(0.,-1.,0.));
#247=DIRECTION('ref_axis',(1.,0.,0.));
#248=DIRECTION('',(0.,1.,0.));
#249=DIRECTION('center_axis',(0.,1.,0.));
#250=DIRECTION('ref_axis',(0.,0.,1.));
#251=DIRECTION('center_axis',(0.,-1.,0.));
#252=DIRECTION('ref_axis',(1.,0.,0.));
#253=DIRECTION('center_axis',(0.,-1.,0.));
#254=DIRECTION('ref_axis',(1.,0.,0.));
#255=DIRECTION('center_axis',(0.,-1.,0.));
#256=DIRECTION('ref_axis',(1.,0.,0.));
#257=DIRECTION('',(0.,1.,0.));
#258=DIRECTION('center_axis',(0.,-1.,0.));
#259=DIRECTION('ref_axis',(0.,0.,-1.));
#260=DIRECTION('center_axis',(0.,1.,-6.12323399573677E-17));
#261=DIRECTION('ref_axis',(0.,0.,-1.));
#262=DIRECTION('center_axis',(0.,-1.,0.));
#263=DIRECTION('ref_axis',(1.,0.,0.));
#264=DIRECTION('center_axis',(0.,-1.,0.));
#265=DIRECTION('ref_axis',(1.,0.,0.));
#266=DIRECTION('center_axis',(1.,0.,-1.22464679914735E-16));
#267=DIRECTION('ref_axis',(1.22464679914735E-16,0.,1.));
#268=DIRECTION('center_axis',(0.,-1.,0.));
#269=DIRECTION('ref_axis',(1.,0.,0.));
#270=DIRECTION('',(0.,1.,0.));
#271=CARTESIAN_POINT('',(0.,0.,0.));
#272=CARTESIAN_POINT('Origin',(0.,27.0000007301569,0.));
#273=CARTESIAN_POINT('',(0.,27.0000007301569,1.5));
#274=CARTESIAN_POINT('Origin',(0.,27.0000007301569,0.));
#275=CARTESIAN_POINT('',(1.12481983699639E-32,28.5000007301569,9.18485099360515E-17));
#276=CARTESIAN_POINT('Origin',(0.,27.0000007301569,0.));
#277=CARTESIAN_POINT('Origin',(0.,44.0000007301569,0.));
#278=CARTESIAN_POINT('',(-3.,45.0000007301569,-3.67394039744206E-16));
#279=CARTESIAN_POINT('',(-3.67394039744206E-16,45.0000007301569,3.));
#280=CARTESIAN_POINT('Origin',(0.,45.0000007301569,0.));
#281=CARTESIAN_POINT('',(-2.4492935982947E-16,44.0000007301569,2.));
#282=CARTESIAN_POINT('Origin',(-3.67394039744205E-16,44.0000007301569,2.99999999999999));
#283=CARTESIAN_POINT('',(-2.,44.0000007301569,-2.44929359829471E-16));
#284=CARTESIAN_POINT('Origin',(0.,44.0000007301569,0.));
#285=CARTESIAN_POINT('Origin',(0.,44.0000007301569,0.));
#286=CARTESIAN_POINT('Origin',(0.,45.0000007301569,0.));
#287=CARTESIAN_POINT('Origin',(0.,39.5000007301569,0.));
#288=CARTESIAN_POINT('',(-2.,35.0000007301569,-2.44929359829471E-16));
#289=CARTESIAN_POINT('',(-2.44929359829471E-16,35.0000007301569,2.));
#290=CARTESIAN_POINT('Origin',(0.,35.0000007301569,0.));
#291=CARTESIAN_POINT('',(-2.,39.5000007301569,-2.44929359829471E-16));
#292=CARTESIAN_POINT('Origin',(0.,35.0000007301569,0.));
#293=CARTESIAN_POINT('Origin',(0.,35.0000007301569,0.));
#294=CARTESIAN_POINT('',(-3.67394039744206E-16,34.0000007301569,3.));
#295=CARTESIAN_POINT('Origin',(-3.67394039744206E-16,35.0000007301569,3.));
#296=CARTESIAN_POINT('',(-3.,34.0000007301569,-3.67394039744206E-16));
#297=CARTESIAN_POINT('Origin',(0.,34.0000007301569,0.));
#298=CARTESIAN_POINT('Origin',(0.,34.0000007301569,0.));
#299=CARTESIAN_POINT('Origin',(0.,32.0000007301569,0.));
#300=CARTESIAN_POINT('',(-3.,30.0000007301569,-3.67394039744206E-16));
#301=CARTESIAN_POINT('Origin',(0.,30.0000007301569,0.));
#302=CARTESIAN_POINT('',(-3.,32.0000007301569,-3.67394039744206E-16));
#303=CARTESIAN_POINT('Origin',(3.5,30.0000007301569,0.));
#304=CARTESIAN_POINT('',(-3.5,30.0000007301569,-4.28626379701573E-16));
#305=CARTESIAN_POINT('Origin',(0.,30.0000007301569,0.));
#306=CARTESIAN_POINT('Origin',(0.,28.5000007301569,0.));
#307=CARTESIAN_POINT('',(-3.5,27.0000007301569,-4.28626379701573E-16));
#308=CARTESIAN_POINT('Origin',(0.,27.0000007301569,0.));
#309=CARTESIAN_POINT('',(-3.5,28.5000007301569,-4.28626379701573E-16));
#310=CARTESIAN_POINT('Origin',(-1.66533453693773E-15,27.0000007301569,0.));
#311=CARTESIAN_POINT('Origin',(0.,49.0000007301569,0.));
#312=CARTESIAN_POINT('',(-3.,49.0000007301569,-3.67394039744206E-16));
#313=CARTESIAN_POINT('',(3.67394039744206E-16,49.0000007301569,3.));
#314=CARTESIAN_POINT('Origin',(0.,49.0000007301569,0.));
#315=CARTESIAN_POINT('Origin',(0.,49.0000007301569,0.));
#316=CARTESIAN_POINT('',(2.24963967399279E-32,52.0000007301569,1.83697019872103E-16));
#317=CARTESIAN_POINT('Origin',(0.,49.0000007301569,0.));
#318=CARTESIAN_POINT('Origin',(0.,47.0000007301569,0.));
#319=CARTESIAN_POINT('',(-3.,47.0000007301569,-3.67394039744206E-16));
#320=UNCERTAINTY_MEASURE_WITH_UNIT(LENGTH_MEASURE(0.01),#324,
'DISTANCE_ACCURACY_VALUE',
'Maximum model space distance between geometric entities at asserted c
onnectivities');
#321=UNCERTAINTY_MEASURE_WITH_UNIT(LENGTH_MEASURE(0.01),#324,
'DISTANCE_ACCURACY_VALUE',
'Maximum model space distance between geometric entities at asserted c
onnectivities');
#322=(
GEOMETRIC_REPRESENTATION_CONTEXT(3)
GLOBAL_UNCERTAINTY_ASSIGNED_CONTEXT((#320))
GLOBAL_UNIT_ASSIGNED_CONTEXT((#324,#326,#327))
REPRESENTATION_CONTEXT('','3D')
);
#323=(
GEOMETRIC_REPRESENTATION_CONTEXT(3)
GLOBAL_UNCERTAINTY_ASSIGNED_CONTEXT((#321))
GLOBAL_UNIT_ASSIGNED_CONTEXT((#324,#326,#327))
REPRESENTATION_CONTEXT('','3D')
);
#324=(
LENGTH_UNIT()
NAMED_UNIT(*)
SI_UNIT(.MILLI.,.METRE.)
);
#325=(
LENGTH_UNIT()
NAMED_UNIT(*)
SI_UNIT($,.METRE.)
);
#326=(
NAMED_UNIT(*)
PLANE_ANGLE_UNIT()
SI_UNIT($,.RADIAN.)
);
#327=(
NAMED_UNIT(*)
SI_UNIT($,.STERADIAN.)
SOLID_ANGLE_UNIT()
);
#328=SHAPE_DEFINITION_REPRESENTATION(#329,#330);
#329=PRODUCT_DEFINITION_SHAPE('',$,#332);
#330=SHAPE_REPRESENTATION('',(#180),#322);
#331=PRODUCT_DEFINITION_CONTEXT('part definition',#336,'design');
#332=PRODUCT_DEFINITION('Valve Lifter','Valve Lifter',#333,#331);
#333=PRODUCT_DEFINITION_FORMATION('',$,#338);
#334=PRODUCT_RELATED_PRODUCT_CATEGORY('Valve Lifter','Valve Lifter',(#338));
#335=APPLICATION_PROTOCOL_DEFINITION('international standard',
'automotive_design',2009,#336);
#336=APPLICATION_CONTEXT(
'Core Data for Automotive Mechanical Design Process');
#337=PRODUCT_CONTEXT('part definition',#336,'mechanical');
#338=PRODUCT('Valve Lifter','Valve Lifter',$,(#337));
#339=PRESENTATION_STYLE_ASSIGNMENT((#341));
#340=PRESENTATION_STYLE_ASSIGNMENT((#342));
#341=SURFACE_STYLE_USAGE(.BOTH.,#343);
#342=SURFACE_STYLE_USAGE(.BOTH.,#344);
#343=SURFACE_SIDE_STYLE('',(#345));
#344=SURFACE_SIDE_STYLE('',(#346));
#345=SURFACE_STYLE_FILL_AREA(#347);
#346=SURFACE_STYLE_FILL_AREA(#348);
#347=FILL_AREA_STYLE(
'EPX 150 - Air Baked (with Carbon M2 M3 L1 3D Printers)',(#349));
#348=FILL_AREA_STYLE('Polymide (Kapton)',(#350));
#349=FILL_AREA_STYLE_COLOUR(
'EPX 150 - Air Baked (with Carbon M2 M3 L1 3D Printers)',#351);
#350=FILL_AREA_STYLE_COLOUR('Polymide (Kapton)',#352);
#351=COLOUR_RGB(
'EPX 150 - Air Baked (with Carbon M2 M3 L1 3D Printers)',0.247058823529412,
0.247058823529412,0.247058823529412);
#352=COLOUR_RGB('Polymide (Kapton)',0.784313725490196,0.556862745098039,
0.0274509803921569);
ENDSEC;
END-ISO-10303-21;
