ISO-10303-21;
HEADER;
/* Generated by software containing ST-Developer
 * from STEP Tools, Inc. (www.steptools.com) 
 */

FILE_DESCRIPTION(
/* description */ (''),
/* implementation_level */ '2;1');

FILE_NAME(
/* name */ 'Model.step',
/* time_stamp */ '2026-08-22T00:16:13+05:30',
/* author */ (''),
/* organization */ (''),
/* preprocessor_version */ 'ST-DEVELOPER v20.1',
/* originating_system */ 'Autodesk Translation Framework v15.8.0.0',
/* authorisation */ '');

FILE_SCHEMA (('AUTOMOTIVE_DESIGN { 1 0 10303 214 3 1 1 }'));
ENDSEC;

DATA;
#10=MECHANICAL_DESIGN_GEOMETRIC_PRESENTATION_REPRESENTATION('',(#13),#781);
#11=SHAPE_REPRESENTATION_RELATIONSHIP('SRR','None',#788,#12);
#12=ADVANCED_BREP_SHAPE_REPRESENTATION('',(#14),#780);
#13=STYLED_ITEM('',(#798),#14);
#14=MANIFOLD_SOLID_BREP('Body1',#467);
#15=CONICAL_SURFACE('',#499,1.5,1.02974425867665);
#16=CONICAL_SURFACE('',#506,1.5,1.02974425867665);
#17=FACE_BOUND('',#75,.T.);
#18=FACE_BOUND('',#76,.T.);
#19=FACE_BOUND('',#81,.T.);
#20=FACE_BOUND('',#86,.T.);
#21=CIRCLE('',#489,6.);
#22=CIRCLE('',#490,6.);
#23=CIRCLE('',#493,6.);
#24=CIRCLE('',#494,6.);
#25=CIRCLE('',#495,6.);
#26=CIRCLE('',#497,6.);
#27=CIRCLE('',#500,3.);
#28=CIRCLE('',#502,6.);
#29=CIRCLE('',#503,3.);
#30=CIRCLE('',#507,3.);
#31=CIRCLE('',#509,6.);
#32=CIRCLE('',#510,3.);
#33=CYLINDRICAL_SURFACE('',#488,6.);
#34=CYLINDRICAL_SURFACE('',#496,6.);
#35=CYLINDRICAL_SURFACE('',#504,6.);
#36=CYLINDRICAL_SURFACE('',#505,3.);
#37=CYLINDRICAL_SURFACE('',#511,6.);
#38=CYLINDRICAL_SURFACE('',#512,3.);
#39=FACE_OUTER_BOUND('',#65,.T.);
#40=FACE_OUTER_BOUND('',#66,.T.);
#41=FACE_OUTER_BOUND('',#67,.T.);
#42=FACE_OUTER_BOUND('',#68,.T.);
#43=FACE_OUTER_BOUND('',#69,.T.);
#44=FACE_OUTER_BOUND('',#70,.T.);
#45=FACE_OUTER_BOUND('',#71,.T.);
#46=FACE_OUTER_BOUND('',#72,.T.);
#47=FACE_OUTER_BOUND('',#73,.T.);
#48=FACE_OUTER_BOUND('',#74,.T.);
#49=FACE_OUTER_BOUND('',#77,.T.);
#50=FACE_OUTER_BOUND('',#78,.T.);
#51=FACE_OUTER_BOUND('',#79,.T.);
#52=FACE_OUTER_BOUND('',#80,.T.);
#53=FACE_OUTER_BOUND('',#82,.T.);
#54=FACE_OUTER_BOUND('',#83,.T.);
#55=FACE_OUTER_BOUND('',#84,.T.);
#56=FACE_OUTER_BOUND('',#85,.T.);
#57=FACE_OUTER_BOUND('',#87,.T.);
#58=FACE_OUTER_BOUND('',#88,.T.);
#59=FACE_OUTER_BOUND('',#89,.T.);
#60=FACE_OUTER_BOUND('',#90,.T.);
#61=FACE_OUTER_BOUND('',#91,.T.);
#62=FACE_OUTER_BOUND('',#92,.T.);
#63=FACE_OUTER_BOUND('',#93,.T.);
#64=FACE_OUTER_BOUND('',#94,.T.);
#65=EDGE_LOOP('',(#299,#300,#301,#302));
#66=EDGE_LOOP('',(#303,#304,#305,#306,#307,#308,#309,#310,#311,#312,#313,
#314));
#67=EDGE_LOOP('',(#315,#316,#317,#318));
#68=EDGE_LOOP('',(#319,#320,#321,#322));
#69=EDGE_LOOP('',(#323,#324,#325,#326));
#70=EDGE_LOOP('',(#327,#328,#329,#330));
#71=EDGE_LOOP('',(#331,#332,#333,#334));
#72=EDGE_LOOP('',(#335,#336,#337,#338));
#73=EDGE_LOOP('',(#339,#340,#341,#342));
#74=EDGE_LOOP('',(#343,#344,#345,#346,#347,#348));
#75=EDGE_LOOP('',(#349));
#76=EDGE_LOOP('',(#350));
#77=EDGE_LOOP('',(#351,#352,#353,#354));
#78=EDGE_LOOP('',(#355,#356,#357,#358,#359,#360));
#79=EDGE_LOOP('',(#361,#362,#363));
#80=EDGE_LOOP('',(#364));
#81=EDGE_LOOP('',(#365));
#82=EDGE_LOOP('',(#366,#367,#368,#369));
#83=EDGE_LOOP('',(#370,#371,#372,#373));
#84=EDGE_LOOP('',(#374,#375,#376));
#85=EDGE_LOOP('',(#377));
#86=EDGE_LOOP('',(#378));
#87=EDGE_LOOP('',(#379,#380,#381,#382));
#88=EDGE_LOOP('',(#383,#384,#385,#386));
#89=EDGE_LOOP('',(#387,#388,#389,#390));
#90=EDGE_LOOP('',(#391,#392,#393,#394,#395,#396));
#91=EDGE_LOOP('',(#397,#398,#399,#400,#401,#402));
#92=EDGE_LOOP('',(#403,#404,#405,#406));
#93=EDGE_LOOP('',(#407,#408,#409,#410));
#94=EDGE_LOOP('',(#411,#412,#413,#414,#415,#416,#417,#418,#419,#420,#421,
#422));
#95=LINE('',#651,#145);
#96=LINE('',#653,#146);
#97=LINE('',#655,#147);
#98=LINE('',#656,#148);
#99=LINE('',#659,#149);
#100=LINE('',#661,#150);
#101=LINE('',#663,#151);
#102=LINE('',#665,#152);
#103=LINE('',#667,#153);
#104=LINE('',#669,#154);
#105=LINE('',#671,#155);
#106=LINE('',#673,#156);
#107=LINE('',#675,#157);
#108=LINE('',#677,#158);
#109=LINE('',#678,#159);
#110=LINE('',#681,#160);
#111=LINE('',#682,#161);
#112=LINE('',#685,#162);
#113=LINE('',#686,#163);
#114=LINE('',#689,#164);
#115=LINE('',#691,#165);
#116=LINE('',#692,#166);
#117=LINE('',#695,#167);
#118=LINE('',#696,#168);
#119=LINE('',#699,#169);
#120=LINE('',#700,#170);
#121=LINE('',#706,#171);
#122=LINE('',#709,#172);
#123=LINE('',#712,#173);
#124=LINE('',#714,#174);
#125=LINE('',#715,#175);
#126=LINE('',#717,#176);
#127=LINE('',#719,#177);
#128=LINE('',#728,#178);
#129=LINE('',#731,#179);
#130=LINE('',#732,#180);
#131=LINE('',#737,#181);
#132=LINE('',#744,#182);
#133=LINE('',#746,#183);
#134=LINE('',#751,#184);
#135=LINE('',#758,#185);
#136=LINE('',#760,#186);
#137=LINE('',#763,#187);
#138=LINE('',#764,#188);
#139=LINE('',#767,#189);
#140=LINE('',#768,#190);
#141=LINE('',#770,#191);
#142=LINE('',#773,#192);
#143=LINE('',#774,#193);
#144=LINE('',#776,#194);
#145=VECTOR('',#523,10.);
#146=VECTOR('',#524,10.);
#147=VECTOR('',#525,10.);
#148=VECTOR('',#526,10.);
#149=VECTOR('',#529,10.);
#150=VECTOR('',#530,10.);
#151=VECTOR('',#531,10.);
#152=VECTOR('',#532,10.);
#153=VECTOR('',#533,10.);
#154=VECTOR('',#534,10.);
#155=VECTOR('',#535,10.);
#156=VECTOR('',#536,10.);
#157=VECTOR('',#537,10.);
#158=VECTOR('',#538,10.);
#159=VECTOR('',#539,10.);
#160=VECTOR('',#542,10.);
#161=VECTOR('',#543,10.);
#162=VECTOR('',#546,10.);
#163=VECTOR('',#547,10.);
#164=VECTOR('',#550,10.);
#165=VECTOR('',#551,10.);
#166=VECTOR('',#552,10.);
#167=VECTOR('',#555,10.);
#168=VECTOR('',#556,10.);
#169=VECTOR('',#559,10.);
#170=VECTOR('',#560,10.);
#171=VECTOR('',#565,10.);
#172=VECTOR('',#568,10.);
#173=VECTOR('',#571,10.);
#174=VECTOR('',#572,10.);
#175=VECTOR('',#573,10.);
#176=VECTOR('',#576,10.);
#177=VECTOR('',#577,10.);
#178=VECTOR('',#588,10.);
#179=VECTOR('',#591,10.);
#180=VECTOR('',#592,10.);
#181=VECTOR('',#597,1.5);
#182=VECTOR('',#606,6.);
#183=VECTOR('',#609,3.);
#184=VECTOR('',#614,1.5);
#185=VECTOR('',#623,6.);
#186=VECTOR('',#626,3.);
#187=VECTOR('',#629,10.);
#188=VECTOR('',#630,10.);
#189=VECTOR('',#633,10.);
#190=VECTOR('',#634,10.);
#191=VECTOR('',#637,10.);
#192=VECTOR('',#640,10.);
#193=VECTOR('',#641,10.);
#194=VECTOR('',#644,10.);
#195=VERTEX_POINT('',#649);
#196=VERTEX_POINT('',#650);
#197=VERTEX_POINT('',#652);
#198=VERTEX_POINT('',#654);
#199=VERTEX_POINT('',#658);
#200=VERTEX_POINT('',#660);
#201=VERTEX_POINT('',#662);
#202=VERTEX_POINT('',#664);
#203=VERTEX_POINT('',#666);
#204=VERTEX_POINT('',#668);
#205=VERTEX_POINT('',#670);
#206=VERTEX_POINT('',#672);
#207=VERTEX_POINT('',#674);
#208=VERTEX_POINT('',#676);
#209=VERTEX_POINT('',#680);
#210=VERTEX_POINT('',#684);
#211=VERTEX_POINT('',#688);
#212=VERTEX_POINT('',#690);
#213=VERTEX_POINT('',#694);
#214=VERTEX_POINT('',#698);
#215=VERTEX_POINT('',#702);
#216=VERTEX_POINT('',#703);
#217=VERTEX_POINT('',#705);
#218=VERTEX_POINT('',#707);
#219=VERTEX_POINT('',#711);
#220=VERTEX_POINT('',#713);
#221=VERTEX_POINT('',#718);
#222=VERTEX_POINT('',#721);
#223=VERTEX_POINT('',#723);
#224=VERTEX_POINT('',#726);
#225=VERTEX_POINT('',#730);
#226=VERTEX_POINT('',#734);
#227=VERTEX_POINT('',#736);
#228=VERTEX_POINT('',#739);
#229=VERTEX_POINT('',#741);
#230=VERTEX_POINT('',#748);
#231=VERTEX_POINT('',#750);
#232=VERTEX_POINT('',#753);
#233=VERTEX_POINT('',#755);
#234=VERTEX_POINT('',#762);
#235=VERTEX_POINT('',#766);
#236=VERTEX_POINT('',#772);
#237=EDGE_CURVE('',#195,#196,#95,.T.);
#238=EDGE_CURVE('',#196,#197,#96,.T.);
#239=EDGE_CURVE('',#197,#198,#97,.T.);
#240=EDGE_CURVE('',#198,#195,#98,.T.);
#241=EDGE_CURVE('',#195,#199,#99,.T.);
#242=EDGE_CURVE('',#200,#199,#100,.T.);
#243=EDGE_CURVE('',#200,#201,#101,.T.);
#244=EDGE_CURVE('',#201,#202,#102,.T.);
#245=EDGE_CURVE('',#202,#203,#103,.T.);
#246=EDGE_CURVE('',#204,#203,#104,.T.);
#247=EDGE_CURVE('',#204,#205,#105,.T.);
#248=EDGE_CURVE('',#206,#205,#106,.T.);
#249=EDGE_CURVE('',#206,#207,#107,.T.);
#250=EDGE_CURVE('',#207,#208,#108,.T.);
#251=EDGE_CURVE('',#208,#196,#109,.T.);
#252=EDGE_CURVE('',#198,#209,#110,.T.);
#253=EDGE_CURVE('',#199,#209,#111,.T.);
#254=EDGE_CURVE('',#209,#210,#112,.T.);
#255=EDGE_CURVE('',#210,#200,#113,.T.);
#256=EDGE_CURVE('',#203,#211,#114,.T.);
#257=EDGE_CURVE('',#211,#212,#115,.T.);
#258=EDGE_CURVE('',#212,#204,#116,.T.);
#259=EDGE_CURVE('',#213,#212,#117,.T.);
#260=EDGE_CURVE('',#205,#213,#118,.T.);
#261=EDGE_CURVE('',#213,#214,#119,.T.);
#262=EDGE_CURVE('',#214,#206,#120,.T.);
#263=EDGE_CURVE('',#215,#216,#21,.T.);
#264=EDGE_CURVE('',#216,#217,#121,.T.);
#265=EDGE_CURVE('',#217,#218,#22,.T.);
#266=EDGE_CURVE('',#218,#215,#122,.T.);
#267=EDGE_CURVE('',#216,#219,#123,.T.);
#268=EDGE_CURVE('',#220,#219,#124,.T.);
#269=EDGE_CURVE('',#220,#217,#125,.T.);
#270=EDGE_CURVE('',#202,#215,#126,.T.);
#271=EDGE_CURVE('',#201,#221,#127,.T.);
#272=EDGE_CURVE('',#219,#221,#23,.T.);
#273=EDGE_CURVE('',#222,#222,#24,.T.);
#274=EDGE_CURVE('',#223,#223,#25,.T.);
#275=EDGE_CURVE('',#224,#220,#26,.T.);
#276=EDGE_CURVE('',#221,#224,#128,.T.);
#277=EDGE_CURVE('',#210,#225,#129,.T.);
#278=EDGE_CURVE('',#225,#224,#130,.T.);
#279=EDGE_CURVE('',#226,#226,#27,.T.);
#280=EDGE_CURVE('',#226,#227,#131,.T.);
#281=EDGE_CURVE('',#228,#228,#28,.T.);
#282=EDGE_CURVE('',#229,#229,#29,.T.);
#283=EDGE_CURVE('',#222,#228,#132,.T.);
#284=EDGE_CURVE('',#229,#226,#133,.T.);
#285=EDGE_CURVE('',#230,#230,#30,.T.);
#286=EDGE_CURVE('',#230,#231,#134,.T.);
#287=EDGE_CURVE('',#232,#232,#31,.T.);
#288=EDGE_CURVE('',#233,#233,#32,.T.);
#289=EDGE_CURVE('',#223,#232,#135,.T.);
#290=EDGE_CURVE('',#233,#230,#136,.T.);
#291=EDGE_CURVE('',#234,#214,#137,.T.);
#292=EDGE_CURVE('',#234,#207,#138,.T.);
#293=EDGE_CURVE('',#235,#218,#139,.T.);
#294=EDGE_CURVE('',#211,#235,#140,.T.);
#295=EDGE_CURVE('',#225,#235,#141,.T.);
#296=EDGE_CURVE('',#236,#208,#142,.T.);
#297=EDGE_CURVE('',#236,#197,#143,.T.);
#298=EDGE_CURVE('',#236,#234,#144,.T.);
#299=ORIENTED_EDGE('',*,*,#237,.T.);
#300=ORIENTED_EDGE('',*,*,#238,.T.);
#301=ORIENTED_EDGE('',*,*,#239,.T.);
#302=ORIENTED_EDGE('',*,*,#240,.T.);
#303=ORIENTED_EDGE('',*,*,#237,.F.);
#304=ORIENTED_EDGE('',*,*,#241,.T.);
#305=ORIENTED_EDGE('',*,*,#242,.F.);
#306=ORIENTED_EDGE('',*,*,#243,.T.);
#307=ORIENTED_EDGE('',*,*,#244,.T.);
#308=ORIENTED_EDGE('',*,*,#245,.T.);
#309=ORIENTED_EDGE('',*,*,#246,.F.);
#310=ORIENTED_EDGE('',*,*,#247,.T.);
#311=ORIENTED_EDGE('',*,*,#248,.F.);
#312=ORIENTED_EDGE('',*,*,#249,.T.);
#313=ORIENTED_EDGE('',*,*,#250,.T.);
#314=ORIENTED_EDGE('',*,*,#251,.T.);
#315=ORIENTED_EDGE('',*,*,#240,.F.);
#316=ORIENTED_EDGE('',*,*,#252,.T.);
#317=ORIENTED_EDGE('',*,*,#253,.F.);
#318=ORIENTED_EDGE('',*,*,#241,.F.);
#319=ORIENTED_EDGE('',*,*,#242,.T.);
#320=ORIENTED_EDGE('',*,*,#253,.T.);
#321=ORIENTED_EDGE('',*,*,#254,.T.);
#322=ORIENTED_EDGE('',*,*,#255,.T.);
#323=ORIENTED_EDGE('',*,*,#246,.T.);
#324=ORIENTED_EDGE('',*,*,#256,.T.);
#325=ORIENTED_EDGE('',*,*,#257,.T.);
#326=ORIENTED_EDGE('',*,*,#258,.T.);
#327=ORIENTED_EDGE('',*,*,#258,.F.);
#328=ORIENTED_EDGE('',*,*,#259,.F.);
#329=ORIENTED_EDGE('',*,*,#260,.F.);
#330=ORIENTED_EDGE('',*,*,#247,.F.);
#331=ORIENTED_EDGE('',*,*,#248,.T.);
#332=ORIENTED_EDGE('',*,*,#260,.T.);
#333=ORIENTED_EDGE('',*,*,#261,.T.);
#334=ORIENTED_EDGE('',*,*,#262,.T.);
#335=ORIENTED_EDGE('',*,*,#263,.T.);
#336=ORIENTED_EDGE('',*,*,#264,.T.);
#337=ORIENTED_EDGE('',*,*,#265,.T.);
#338=ORIENTED_EDGE('',*,*,#266,.T.);
#339=ORIENTED_EDGE('',*,*,#264,.F.);
#340=ORIENTED_EDGE('',*,*,#267,.T.);
#341=ORIENTED_EDGE('',*,*,#268,.F.);
#342=ORIENTED_EDGE('',*,*,#269,.T.);
#343=ORIENTED_EDGE('',*,*,#263,.F.);
#344=ORIENTED_EDGE('',*,*,#270,.F.);
#345=ORIENTED_EDGE('',*,*,#244,.F.);
#346=ORIENTED_EDGE('',*,*,#271,.T.);
#347=ORIENTED_EDGE('',*,*,#272,.F.);
#348=ORIENTED_EDGE('',*,*,#267,.F.);
#349=ORIENTED_EDGE('',*,*,#273,.T.);
#350=ORIENTED_EDGE('',*,*,#274,.T.);
#351=ORIENTED_EDGE('',*,*,#275,.T.);
#352=ORIENTED_EDGE('',*,*,#268,.T.);
#353=ORIENTED_EDGE('',*,*,#272,.T.);
#354=ORIENTED_EDGE('',*,*,#276,.T.);
#355=ORIENTED_EDGE('',*,*,#255,.F.);
#356=ORIENTED_EDGE('',*,*,#277,.T.);
#357=ORIENTED_EDGE('',*,*,#278,.T.);
#358=ORIENTED_EDGE('',*,*,#276,.F.);
#359=ORIENTED_EDGE('',*,*,#271,.F.);
#360=ORIENTED_EDGE('',*,*,#243,.F.);
#361=ORIENTED_EDGE('',*,*,#279,.T.);
#362=ORIENTED_EDGE('',*,*,#280,.T.);
#363=ORIENTED_EDGE('',*,*,#280,.F.);
#364=ORIENTED_EDGE('',*,*,#281,.T.);
#365=ORIENTED_EDGE('',*,*,#282,.F.);
#366=ORIENTED_EDGE('',*,*,#273,.F.);
#367=ORIENTED_EDGE('',*,*,#283,.T.);
#368=ORIENTED_EDGE('',*,*,#281,.F.);
#369=ORIENTED_EDGE('',*,*,#283,.F.);
#370=ORIENTED_EDGE('',*,*,#282,.T.);
#371=ORIENTED_EDGE('',*,*,#284,.T.);
#372=ORIENTED_EDGE('',*,*,#279,.F.);
#373=ORIENTED_EDGE('',*,*,#284,.F.);
#374=ORIENTED_EDGE('',*,*,#285,.F.);
#375=ORIENTED_EDGE('',*,*,#286,.T.);
#376=ORIENTED_EDGE('',*,*,#286,.F.);
#377=ORIENTED_EDGE('',*,*,#287,.F.);
#378=ORIENTED_EDGE('',*,*,#288,.T.);
#379=ORIENTED_EDGE('',*,*,#274,.F.);
#380=ORIENTED_EDGE('',*,*,#289,.T.);
#381=ORIENTED_EDGE('',*,*,#287,.T.);
#382=ORIENTED_EDGE('',*,*,#289,.F.);
#383=ORIENTED_EDGE('',*,*,#288,.F.);
#384=ORIENTED_EDGE('',*,*,#290,.T.);
#385=ORIENTED_EDGE('',*,*,#285,.T.);
#386=ORIENTED_EDGE('',*,*,#290,.F.);
#387=ORIENTED_EDGE('',*,*,#262,.F.);
#388=ORIENTED_EDGE('',*,*,#291,.F.);
#389=ORIENTED_EDGE('',*,*,#292,.T.);
#390=ORIENTED_EDGE('',*,*,#249,.F.);
#391=ORIENTED_EDGE('',*,*,#256,.F.);
#392=ORIENTED_EDGE('',*,*,#245,.F.);
#393=ORIENTED_EDGE('',*,*,#270,.T.);
#394=ORIENTED_EDGE('',*,*,#266,.F.);
#395=ORIENTED_EDGE('',*,*,#293,.F.);
#396=ORIENTED_EDGE('',*,*,#294,.F.);
#397=ORIENTED_EDGE('',*,*,#265,.F.);
#398=ORIENTED_EDGE('',*,*,#269,.F.);
#399=ORIENTED_EDGE('',*,*,#275,.F.);
#400=ORIENTED_EDGE('',*,*,#278,.F.);
#401=ORIENTED_EDGE('',*,*,#295,.T.);
#402=ORIENTED_EDGE('',*,*,#293,.T.);
#403=ORIENTED_EDGE('',*,*,#238,.F.);
#404=ORIENTED_EDGE('',*,*,#251,.F.);
#405=ORIENTED_EDGE('',*,*,#296,.F.);
#406=ORIENTED_EDGE('',*,*,#297,.T.);
#407=ORIENTED_EDGE('',*,*,#298,.F.);
#408=ORIENTED_EDGE('',*,*,#296,.T.);
#409=ORIENTED_EDGE('',*,*,#250,.F.);
#410=ORIENTED_EDGE('',*,*,#292,.F.);
#411=ORIENTED_EDGE('',*,*,#239,.F.);
#412=ORIENTED_EDGE('',*,*,#297,.F.);
#413=ORIENTED_EDGE('',*,*,#298,.T.);
#414=ORIENTED_EDGE('',*,*,#291,.T.);
#415=ORIENTED_EDGE('',*,*,#261,.F.);
#416=ORIENTED_EDGE('',*,*,#259,.T.);
#417=ORIENTED_EDGE('',*,*,#257,.F.);
#418=ORIENTED_EDGE('',*,*,#294,.T.);
#419=ORIENTED_EDGE('',*,*,#295,.F.);
#420=ORIENTED_EDGE('',*,*,#277,.F.);
#421=ORIENTED_EDGE('',*,*,#254,.F.);
#422=ORIENTED_EDGE('',*,*,#252,.F.);
#423=PLANE('',#481);
#424=PLANE('',#482);
#425=PLANE('',#483);
#426=PLANE('',#484);
#427=PLANE('',#485);
#428=PLANE('',#486);
#429=PLANE('',#487);
#430=PLANE('',#491);
#431=PLANE('',#492);
#432=PLANE('',#498);
#433=PLANE('',#501);
#434=PLANE('',#508);
#435=PLANE('',#513);
#436=PLANE('',#514);
#437=PLANE('',#515);
#438=PLANE('',#516);
#439=PLANE('',#517);
#440=PLANE('',#518);
#441=ADVANCED_FACE('',(#39),#423,.T.);
#442=ADVANCED_FACE('',(#40),#424,.T.);
#443=ADVANCED_FACE('',(#41),#425,.T.);
#444=ADVANCED_FACE('',(#42),#426,.T.);
#445=ADVANCED_FACE('',(#43),#427,.T.);
#446=ADVANCED_FACE('',(#44),#428,.T.);
#447=ADVANCED_FACE('',(#45),#429,.T.);
#448=ADVANCED_FACE('',(#46),#33,.T.);
#449=ADVANCED_FACE('',(#47),#430,.T.);
#450=ADVANCED_FACE('',(#48,#17,#18),#431,.T.);
#451=ADVANCED_FACE('',(#49),#34,.T.);
#452=ADVANCED_FACE('',(#50),#432,.T.);
#453=ADVANCED_FACE('',(#51),#15,.F.);
#454=ADVANCED_FACE('',(#52,#19),#433,.T.);
#455=ADVANCED_FACE('',(#53),#35,.F.);
#456=ADVANCED_FACE('',(#54),#36,.F.);
#457=ADVANCED_FACE('',(#55),#16,.F.);
#458=ADVANCED_FACE('',(#56,#20),#434,.F.);
#459=ADVANCED_FACE('',(#57),#37,.F.);
#460=ADVANCED_FACE('',(#58),#38,.F.);
#461=ADVANCED_FACE('',(#59),#435,.T.);
#462=ADVANCED_FACE('',(#60),#436,.T.);
#463=ADVANCED_FACE('',(#61),#437,.T.);
#464=ADVANCED_FACE('',(#62),#438,.T.);
#465=ADVANCED_FACE('',(#63),#439,.T.);
#466=ADVANCED_FACE('',(#64),#440,.F.);
#467=CLOSED_SHELL('',(#441,#442,#443,#444,#445,#446,#447,#448,#449,#450,
#451,#452,#453,#454,#455,#456,#457,#458,#459,#460,#461,#462,#463,#464,#465,
#466));
#468=DERIVED_UNIT_ELEMENT(#470,1.);
#469=DERIVED_UNIT_ELEMENT(#783,-3.);
#470=(
MASS_UNIT()
NAMED_UNIT(*)
SI_UNIT(.KILO.,.GRAM.)
);
#471=DERIVED_UNIT((#468,#469));
#472=MEASURE_REPRESENTATION_ITEM('density measure',
POSITIVE_RATIO_MEASURE(7850.),#471);
#473=PROPERTY_DEFINITION_REPRESENTATION(#478,#475);
#474=PROPERTY_DEFINITION_REPRESENTATION(#479,#476);
#475=REPRESENTATION('material name',(#477),#780);
#476=REPRESENTATION('density',(#472),#780);
#477=DESCRIPTIVE_REPRESENTATION_ITEM('Steel','Steel');
#478=PROPERTY_DEFINITION('material property','material name',#790);
#479=PROPERTY_DEFINITION('material property','density of part',#790);
#480=AXIS2_PLACEMENT_3D('',#647,#519,#520);
#481=AXIS2_PLACEMENT_3D('',#648,#521,#522);
#482=AXIS2_PLACEMENT_3D('',#657,#527,#528);
#483=AXIS2_PLACEMENT_3D('',#679,#540,#541);
#484=AXIS2_PLACEMENT_3D('',#683,#544,#545);
#485=AXIS2_PLACEMENT_3D('',#687,#548,#549);
#486=AXIS2_PLACEMENT_3D('',#693,#553,#554);
#487=AXIS2_PLACEMENT_3D('',#697,#557,#558);
#488=AXIS2_PLACEMENT_3D('',#701,#561,#562);
#489=AXIS2_PLACEMENT_3D('',#704,#563,#564);
#490=AXIS2_PLACEMENT_3D('',#708,#566,#567);
#491=AXIS2_PLACEMENT_3D('',#710,#569,#570);
#492=AXIS2_PLACEMENT_3D('',#716,#574,#575);
#493=AXIS2_PLACEMENT_3D('',#720,#578,#579);
#494=AXIS2_PLACEMENT_3D('',#722,#580,#581);
#495=AXIS2_PLACEMENT_3D('',#724,#582,#583);
#496=AXIS2_PLACEMENT_3D('',#725,#584,#585);
#497=AXIS2_PLACEMENT_3D('',#727,#586,#587);
#498=AXIS2_PLACEMENT_3D('',#729,#589,#590);
#499=AXIS2_PLACEMENT_3D('',#733,#593,#594);
#500=AXIS2_PLACEMENT_3D('',#735,#595,#596);
#501=AXIS2_PLACEMENT_3D('',#738,#598,#599);
#502=AXIS2_PLACEMENT_3D('',#740,#600,#601);
#503=AXIS2_PLACEMENT_3D('',#742,#602,#603);
#504=AXIS2_PLACEMENT_3D('',#743,#604,#605);
#505=AXIS2_PLACEMENT_3D('',#745,#607,#608);
#506=AXIS2_PLACEMENT_3D('',#747,#610,#611);
#507=AXIS2_PLACEMENT_3D('',#749,#612,#613);
#508=AXIS2_PLACEMENT_3D('',#752,#615,#616);
#509=AXIS2_PLACEMENT_3D('',#754,#617,#618);
#510=AXIS2_PLACEMENT_3D('',#756,#619,#620);
#511=AXIS2_PLACEMENT_3D('',#757,#621,#622);
#512=AXIS2_PLACEMENT_3D('',#759,#624,#625);
#513=AXIS2_PLACEMENT_3D('',#761,#627,#628);
#514=AXIS2_PLACEMENT_3D('',#765,#631,#632);
#515=AXIS2_PLACEMENT_3D('',#769,#635,#636);
#516=AXIS2_PLACEMENT_3D('',#771,#638,#639);
#517=AXIS2_PLACEMENT_3D('',#775,#642,#643);
#518=AXIS2_PLACEMENT_3D('',#777,#645,#646);
#519=DIRECTION('axis',(0.,0.,1.));
#520=DIRECTION('refdir',(1.,0.,0.));
#521=DIRECTION('center_axis',(-0.707106781186548,-0.707106781186548,0.));
#522=DIRECTION('ref_axis',(0.,0.,1.));
#523=DIRECTION('',(-0.707106781186547,0.707106781186547,0.));
#524=DIRECTION('',(0.,0.,-1.));
#525=DIRECTION('',(0.707106781186547,-0.707106781186547,0.));
#526=DIRECTION('',(0.,0.,1.));
#527=DIRECTION('center_axis',(0.,0.,1.));
#528=DIRECTION('ref_axis',(1.,0.,0.));
#529=DIRECTION('',(1.,0.,0.));
#530=DIRECTION('',(-0.707106781186547,-0.707106781186547,0.));
#531=DIRECTION('',(0.,1.,0.));
#532=DIRECTION('',(-1.,0.,0.));
#533=DIRECTION('',(0.,-1.,0.));
#534=DIRECTION('',(-0.707106781186549,0.707106781186546,0.));
#535=DIRECTION('',(1.,0.,0.));
#536=DIRECTION('',(-0.707106781186547,-0.707106781186547,0.));
#537=DIRECTION('',(0.,1.,0.));
#538=DIRECTION('',(1.,0.,0.));
#539=DIRECTION('',(0.,-1.,0.));
#540=DIRECTION('center_axis',(0.,-1.,0.));
#541=DIRECTION('ref_axis',(1.,0.,0.));
#542=DIRECTION('',(1.,0.,0.));
#543=DIRECTION('',(0.,0.,-1.));
#544=DIRECTION('center_axis',(0.707106781186548,-0.707106781186548,0.));
#545=DIRECTION('ref_axis',(0.,0.,-1.));
#546=DIRECTION('',(0.707106781186547,0.707106781186547,0.));
#547=DIRECTION('',(0.,0.,1.));
#548=DIRECTION('center_axis',(-0.707106781186546,-0.707106781186549,0.));
#549=DIRECTION('ref_axis',(0.,0.,1.));
#550=DIRECTION('',(0.,0.,-1.));
#551=DIRECTION('',(0.707106781186549,-0.707106781186546,0.));
#552=DIRECTION('',(0.,0.,1.));
#553=DIRECTION('center_axis',(0.,-1.,0.));
#554=DIRECTION('ref_axis',(1.,0.,0.));
#555=DIRECTION('',(-1.,0.,0.));
#556=DIRECTION('',(0.,0.,-1.));
#557=DIRECTION('center_axis',(0.707106781186548,-0.707106781186548,0.));
#558=DIRECTION('ref_axis',(0.,0.,-1.));
#559=DIRECTION('',(0.707106781186547,0.707106781186547,0.));
#560=DIRECTION('',(0.,0.,1.));
#561=DIRECTION('center_axis',(0.,-1.,0.));
#562=DIRECTION('ref_axis',(-0.707106781186547,0.,0.707106781186547));
#563=DIRECTION('center_axis',(0.,1.,0.));
#564=DIRECTION('ref_axis',(-0.707106781186547,0.,0.707106781186547));
#565=DIRECTION('',(0.,1.,0.));
#566=DIRECTION('center_axis',(0.,-1.,0.));
#567=DIRECTION('ref_axis',(-0.707106781186547,0.,0.707106781186547));
#568=DIRECTION('',(0.,-1.,0.));
#569=DIRECTION('center_axis',(0.,0.,1.));
#570=DIRECTION('ref_axis',(1.,0.,0.));
#571=DIRECTION('',(1.,0.,0.));
#572=DIRECTION('',(0.,-1.,0.));
#573=DIRECTION('',(-1.,0.,0.));
#574=DIRECTION('center_axis',(0.,-1.,0.));
#575=DIRECTION('ref_axis',(1.,0.,0.));
#576=DIRECTION('',(0.,0.,1.));
#577=DIRECTION('',(0.,0.,1.));
#578=DIRECTION('center_axis',(0.,1.,0.));
#579=DIRECTION('ref_axis',(0.707106781186547,0.,0.707106781186547));
#580=DIRECTION('center_axis',(0.,1.,0.));
#581=DIRECTION('ref_axis',(0.,0.,-1.));
#582=DIRECTION('center_axis',(0.,1.,0.));
#583=DIRECTION('ref_axis',(0.,0.,-1.));
#584=DIRECTION('center_axis',(0.,1.,0.));
#585=DIRECTION('ref_axis',(0.707106781186547,0.,0.707106781186547));
#586=DIRECTION('center_axis',(0.,-1.,0.));
#587=DIRECTION('ref_axis',(0.707106781186547,0.,0.707106781186547));
#588=DIRECTION('',(0.,1.,0.));
#589=DIRECTION('center_axis',(1.,0.,0.));
#590=DIRECTION('ref_axis',(0.,1.,0.));
#591=DIRECTION('',(0.,1.,0.));
#592=DIRECTION('',(0.,0.,1.));
#593=DIRECTION('center_axis',(0.,-1.,0.));
#594=DIRECTION('ref_axis',(0.,0.,-1.));
#595=DIRECTION('center_axis',(0.,-1.,0.));
#596=DIRECTION('ref_axis',(0.,0.,-1.));
#597=DIRECTION('',(1.04972719113862E-16,0.515038074910054,-0.857167300702112));
#598=DIRECTION('center_axis',(0.,-1.,0.));
#599=DIRECTION('ref_axis',(0.,0.,-1.));
#600=DIRECTION('center_axis',(0.,-1.,0.));
#601=DIRECTION('ref_axis',(0.,0.,-1.));
#602=DIRECTION('center_axis',(0.,-1.,0.));
#603=DIRECTION('ref_axis',(0.,0.,-1.));
#604=DIRECTION('center_axis',(0.,-1.,0.));
#605=DIRECTION('ref_axis',(0.,0.,-1.));
#606=DIRECTION('',(0.,1.,0.));
#607=DIRECTION('center_axis',(0.,-1.,0.));
#608=DIRECTION('ref_axis',(0.,0.,-1.));
#609=DIRECTION('',(0.,1.,0.));
#610=DIRECTION('center_axis',(0.,-1.,0.));
#611=DIRECTION('ref_axis',(0.,0.,-1.));
#612=DIRECTION('center_axis',(0.,1.,0.));
#613=DIRECTION('ref_axis',(0.,0.,-1.));
#614=DIRECTION('',(-1.04972719113862E-16,0.515038074910054,-0.857167300702112));
#615=DIRECTION('center_axis',(0.,1.,0.));
#616=DIRECTION('ref_axis',(0.,0.,-1.));
#617=DIRECTION('center_axis',(0.,1.,0.));
#618=DIRECTION('ref_axis',(0.,0.,-1.));
#619=DIRECTION('center_axis',(0.,1.,0.));
#620=DIRECTION('ref_axis',(0.,0.,-1.));
#621=DIRECTION('center_axis',(0.,1.,0.));
#622=DIRECTION('ref_axis',(0.,0.,-1.));
#623=DIRECTION('',(0.,1.,0.));
#624=DIRECTION('center_axis',(0.,1.,0.));
#625=DIRECTION('ref_axis',(0.,0.,-1.));
#626=DIRECTION('',(0.,1.,0.));
#627=DIRECTION('center_axis',(1.,0.,0.));
#628=DIRECTION('ref_axis',(0.,1.,0.));
#629=DIRECTION('',(0.,-1.,0.));
#630=DIRECTION('',(0.,0.,1.));
#631=DIRECTION('center_axis',(-1.,0.,0.));
#632=DIRECTION('ref_axis',(0.,-1.,0.));
#633=DIRECTION('',(0.,0.,1.));
#634=DIRECTION('',(0.,1.,0.));
#635=DIRECTION('center_axis',(0.,1.,0.));
#636=DIRECTION('ref_axis',(-1.,0.,0.));
#637=DIRECTION('',(-1.,0.,0.));
#638=DIRECTION('center_axis',(-1.,0.,0.));
#639=DIRECTION('ref_axis',(0.,-1.,0.));
#640=DIRECTION('',(0.,0.,1.));
#641=DIRECTION('',(0.,-1.,0.));
#642=DIRECTION('center_axis',(0.,-1.,0.));
#643=DIRECTION('ref_axis',(1.,0.,0.));
#644=DIRECTION('',(-1.,0.,0.));
#645=DIRECTION('center_axis',(0.,0.,1.));
#646=DIRECTION('ref_axis',(1.,0.,0.));
#647=CARTESIAN_POINT('',(0.,0.,0.));
#648=CARTESIAN_POINT('Origin',(21.5,-23.5,0.));
#649=CARTESIAN_POINT('',(23.,-25.,30.));
#650=CARTESIAN_POINT('',(20.,-22.,30.));
#651=CARTESIAN_POINT('',(9.,-11.,30.));
#652=CARTESIAN_POINT('',(20.,-22.,0.));
#653=CARTESIAN_POINT('',(20.,-22.,0.));
#654=CARTESIAN_POINT('',(23.,-25.,0.));
#655=CARTESIAN_POINT('',(9.,-11.,0.));
#656=CARTESIAN_POINT('',(23.,-25.,0.));
#657=CARTESIAN_POINT('Origin',(0.,5.,30.));
#658=CARTESIAN_POINT('',(52.,-25.,30.));
#659=CARTESIAN_POINT('',(20.,-25.,30.));
#660=CARTESIAN_POINT('',(55.,-22.,30.));
#661=CARTESIAN_POINT('',(47.25,-29.75,30.));
#662=CARTESIAN_POINT('',(55.,10.,30.));
#663=CARTESIAN_POINT('',(55.,-25.,30.));
#664=CARTESIAN_POINT('',(-55.,10.,30.));
#665=CARTESIAN_POINT('',(-27.5,10.,30.));
#666=CARTESIAN_POINT('',(-55.,-22.,30.));
#667=CARTESIAN_POINT('',(-55.,-25.,30.));
#668=CARTESIAN_POINT('',(-52.,-25.,30.));
#669=CARTESIAN_POINT('',(-47.25,-29.75,30.));
#670=CARTESIAN_POINT('',(-23.,-25.,30.));
#671=CARTESIAN_POINT('',(-20.,-25.,30.));
#672=CARTESIAN_POINT('',(-20.,-22.,30.));
#673=CARTESIAN_POINT('',(-9.,-11.,30.));
#674=CARTESIAN_POINT('',(-20.,0.,30.));
#675=CARTESIAN_POINT('',(-20.,0.,30.));
#676=CARTESIAN_POINT('',(20.,0.,30.));
#677=CARTESIAN_POINT('',(0.,0.,30.));
#678=CARTESIAN_POINT('',(20.,0.,30.));
#679=CARTESIAN_POINT('Origin',(20.,-25.,0.));
#680=CARTESIAN_POINT('',(52.,-25.,0.));
#681=CARTESIAN_POINT('',(20.,-25.,0.));
#682=CARTESIAN_POINT('',(52.,-25.,0.));
#683=CARTESIAN_POINT('Origin',(53.5,-23.5,0.));
#684=CARTESIAN_POINT('',(55.,-22.,0.));
#685=CARTESIAN_POINT('',(47.25,-29.75,0.));
#686=CARTESIAN_POINT('',(55.,-22.,0.));
#687=CARTESIAN_POINT('Origin',(-53.5,-23.5,0.));
#688=CARTESIAN_POINT('',(-55.,-22.,0.));
#689=CARTESIAN_POINT('',(-55.,-22.,0.));
#690=CARTESIAN_POINT('',(-52.,-25.,0.));
#691=CARTESIAN_POINT('',(-47.25,-29.75,0.));
#692=CARTESIAN_POINT('',(-52.,-25.,0.));
#693=CARTESIAN_POINT('Origin',(-55.,-25.,0.));
#694=CARTESIAN_POINT('',(-23.,-25.,0.));
#695=CARTESIAN_POINT('',(-20.,-25.,0.));
#696=CARTESIAN_POINT('',(-23.,-25.,0.));
#697=CARTESIAN_POINT('Origin',(-21.5,-23.5,0.));
#698=CARTESIAN_POINT('',(-20.,-22.,0.));
#699=CARTESIAN_POINT('',(-9.,-11.,0.));
#700=CARTESIAN_POINT('',(-20.,-22.,0.));
#701=CARTESIAN_POINT('Origin',(-49.,28.75,74.));
#702=CARTESIAN_POINT('',(-55.,10.,74.));
#703=CARTESIAN_POINT('',(-49.,10.,80.));
#704=CARTESIAN_POINT('Origin',(-49.,10.,74.));
#705=CARTESIAN_POINT('',(-49.,35.,80.));
#706=CARTESIAN_POINT('',(-49.,28.75,80.));
#707=CARTESIAN_POINT('',(-55.,35.,74.));
#708=CARTESIAN_POINT('Origin',(-49.,35.,74.));
#709=CARTESIAN_POINT('',(-55.,28.75,74.));
#710=CARTESIAN_POINT('Origin',(0.,22.5,80.));
#711=CARTESIAN_POINT('',(49.,10.,80.));
#712=CARTESIAN_POINT('',(-55.,10.,80.));
#713=CARTESIAN_POINT('',(49.,35.,80.));
#714=CARTESIAN_POINT('',(49.,-1.25,80.));
#715=CARTESIAN_POINT('',(55.,35.,80.));
#716=CARTESIAN_POINT('Origin',(-55.,10.,30.));
#717=CARTESIAN_POINT('',(-55.,10.,30.));
#718=CARTESIAN_POINT('',(55.,10.,74.));
#719=CARTESIAN_POINT('',(55.,10.,30.));
#720=CARTESIAN_POINT('Origin',(49.,10.,74.));
#721=CARTESIAN_POINT('',(25.,10.,61.));
#722=CARTESIAN_POINT('Origin',(25.,10.,55.));
#723=CARTESIAN_POINT('',(-25.,10.,61.));
#724=CARTESIAN_POINT('Origin',(-25.,10.,55.));
#725=CARTESIAN_POINT('Origin',(49.,-1.25,74.));
#726=CARTESIAN_POINT('',(55.,35.,74.));
#727=CARTESIAN_POINT('Origin',(49.,35.,74.));
#728=CARTESIAN_POINT('',(55.,-1.25,74.));
#729=CARTESIAN_POINT('Origin',(55.,-25.,0.));
#730=CARTESIAN_POINT('',(55.,35.,0.));
#731=CARTESIAN_POINT('',(55.,-25.,0.));
#732=CARTESIAN_POINT('',(55.,35.,0.));
#733=CARTESIAN_POINT('Origin',(25.,15.9012909285413,55.));
#734=CARTESIAN_POINT('',(25.,15.,58.));
#735=CARTESIAN_POINT('Origin',(25.,15.,55.));
#736=CARTESIAN_POINT('',(25.,16.8025818570827,55.));
#737=CARTESIAN_POINT('',(25.,15.9012909285413,56.5));
#738=CARTESIAN_POINT('Origin',(25.,11.,55.));
#739=CARTESIAN_POINT('',(25.,11.,61.));
#740=CARTESIAN_POINT('Origin',(25.,11.,55.));
#741=CARTESIAN_POINT('',(25.,11.,58.));
#742=CARTESIAN_POINT('Origin',(25.,11.,55.));
#743=CARTESIAN_POINT('Origin',(25.,10.5,55.));
#744=CARTESIAN_POINT('',(25.,10.5,61.));
#745=CARTESIAN_POINT('Origin',(25.,12.5,55.));
#746=CARTESIAN_POINT('',(25.,12.5,58.));
#747=CARTESIAN_POINT('Origin',(-25.,15.9012909285413,55.));
#748=CARTESIAN_POINT('',(-25.,15.,58.));
#749=CARTESIAN_POINT('Origin',(-25.,15.,55.));
#750=CARTESIAN_POINT('',(-25.,16.8025818570827,55.));
#751=CARTESIAN_POINT('',(-25.,15.9012909285413,56.5));
#752=CARTESIAN_POINT('Origin',(-25.,11.,55.));
#753=CARTESIAN_POINT('',(-25.,11.,61.));
#754=CARTESIAN_POINT('Origin',(-25.,11.,55.));
#755=CARTESIAN_POINT('',(-25.,11.,58.));
#756=CARTESIAN_POINT('Origin',(-25.,11.,55.));
#757=CARTESIAN_POINT('Origin',(-25.,10.5,55.));
#758=CARTESIAN_POINT('',(-25.,10.5,61.));
#759=CARTESIAN_POINT('Origin',(-25.,12.5,55.));
#760=CARTESIAN_POINT('',(-25.,12.5,58.));
#761=CARTESIAN_POINT('Origin',(-20.,-25.,0.));
#762=CARTESIAN_POINT('',(-20.,0.,0.));
#763=CARTESIAN_POINT('',(-20.,0.,0.));
#764=CARTESIAN_POINT('',(-20.,0.,0.));
#765=CARTESIAN_POINT('Origin',(-55.,35.,0.));
#766=CARTESIAN_POINT('',(-55.,35.,0.));
#767=CARTESIAN_POINT('',(-55.,35.,0.));
#768=CARTESIAN_POINT('',(-55.,-25.,0.));
#769=CARTESIAN_POINT('Origin',(55.,35.,0.));
#770=CARTESIAN_POINT('',(55.,35.,0.));
#771=CARTESIAN_POINT('Origin',(20.,0.,0.));
#772=CARTESIAN_POINT('',(20.,0.,0.));
#773=CARTESIAN_POINT('',(20.,0.,0.));
#774=CARTESIAN_POINT('',(20.,0.,0.));
#775=CARTESIAN_POINT('Origin',(-20.,0.,0.));
#776=CARTESIAN_POINT('',(0.,0.,0.));
#777=CARTESIAN_POINT('Origin',(0.,5.,0.));
#778=UNCERTAINTY_MEASURE_WITH_UNIT(LENGTH_MEASURE(0.01),#782,
'DISTANCE_ACCURACY_VALUE',
'Maximum model space distance between geometric entities at asserted c
onnectivities');
#779=UNCERTAINTY_MEASURE_WITH_UNIT(LENGTH_MEASURE(0.01),#782,
'DISTANCE_ACCURACY_VALUE',
'Maximum model space distance between geometric entities at asserted c
onnectivities');
#780=(
GEOMETRIC_REPRESENTATION_CONTEXT(3)
GLOBAL_UNCERTAINTY_ASSIGNED_CONTEXT((#778))
GLOBAL_UNIT_ASSIGNED_CONTEXT((#782,#784,#785))
REPRESENTATION_CONTEXT('','3D')
);
#781=(
GEOMETRIC_REPRESENTATION_CONTEXT(3)
GLOBAL_UNCERTAINTY_ASSIGNED_CONTEXT((#779))
GLOBAL_UNIT_ASSIGNED_CONTEXT((#782,#784,#785))
REPRESENTATION_CONTEXT('','3D')
);
#782=(
LENGTH_UNIT()
NAMED_UNIT(*)
SI_UNIT(.MILLI.,.METRE.)
);
#783=(
LENGTH_UNIT()
NAMED_UNIT(*)
SI_UNIT($,.METRE.)
);
#784=(
NAMED_UNIT(*)
PLANE_ANGLE_UNIT()
SI_UNIT($,.RADIAN.)
);
#785=(
NAMED_UNIT(*)
SI_UNIT($,.STERADIAN.)
SOLID_ANGLE_UNIT()
);
#786=SHAPE_DEFINITION_REPRESENTATION(#787,#788);
#787=PRODUCT_DEFINITION_SHAPE('',$,#790);
#788=SHAPE_REPRESENTATION('',(#480),#780);
#789=PRODUCT_DEFINITION_CONTEXT('part definition',#794,'design');
#790=PRODUCT_DEFINITION('2026-08-09-05-06-48-397','Mount Bracket',#791,
#789);
#791=PRODUCT_DEFINITION_FORMATION('',$,#796);
#792=PRODUCT_RELATED_PRODUCT_CATEGORY('Mount Bracket','Mount Bracket',(#796));
#793=APPLICATION_PROTOCOL_DEFINITION('international standard',
'automotive_design',2009,#794);
#794=APPLICATION_CONTEXT(
'Core Data for Automotive Mechanical Design Process');
#795=PRODUCT_CONTEXT('part definition',#794,'mechanical');
#796=PRODUCT('2026-08-09-05-06-48-397','Mount Bracket',$,(#795));
#797=PRESENTATION_STYLE_ASSIGNMENT((#799));
#798=PRESENTATION_STYLE_ASSIGNMENT((#800));
#799=SURFACE_STYLE_USAGE(.BOTH.,#801);
#800=SURFACE_STYLE_USAGE(.BOTH.,#802);
#801=SURFACE_SIDE_STYLE('',(#803));
#802=SURFACE_SIDE_STYLE('',(#804));
#803=SURFACE_STYLE_FILL_AREA(#805);
#804=SURFACE_STYLE_FILL_AREA(#806);
#805=FILL_AREA_STYLE('Steel - Satin',(#807));
#806=FILL_AREA_STYLE('Powder Coat - Rough (Red)',(#808));
#807=FILL_AREA_STYLE_COLOUR('Steel - Satin',#809);
#808=FILL_AREA_STYLE_COLOUR('Powder Coat - Rough (Red)',#810);
#809=COLOUR_RGB('Steel - Satin',0.627450980392157,0.627450980392157,0.627450980392157);
#810=COLOUR_RGB('Powder Coat - Rough (Red)',0.768627450980392,0.207843137254902,
0.152941176470588);
ENDSEC;
END-ISO-10303-21;
