# WaveFront *.obj file (generated by Autodesk ATF)

mtllib Model.mtl

g Body1

v 2.300000 -2.500000 3.000000
v 2.000000 -2.200000 3.000000
v 2.000000 -2.200000 0.000000
v 2.300000 -2.500000 0.000000
v 5.200000 -2.500000 3.000000
v 5.500000 -2.200000 3.000000
v 5.500000 1.000000 3.000000
v -5.500000 1.000000 3.000000
v -5.500000 -2.200000 3.000000
v -5.200000 -2.500000 3.000000
v -2.300000 -2.500000 3.000000
v -2.000000 -2.200000 3.000000
v -2.000000 0.000000 3.000000
v 2.000000 0.000000 3.000000
v 5.200000 -2.500000 0.000000
v 5.500000 -2.200000 0.000000
v -5.500000 -2.200000 0.000000
v -5.200000 -2.500000 0.000000
v -2.300000 -2.500000 0.000000
v -2.000000 -2.200000 0.000000
v -5.500000 1.000000 7.400000
v -5.479555 1.000000 7.555291
v -5.419615 1.000000 7.700000
v -5.324264 1.000000 7.824264
v -5.200000 1.000000 7.919615
v -5.055291 1.000000 7.979555
v -4.900000 1.000000 8.000000
v -4.900000 3.500000 8.000000
v -5.055291 3.500000 7.979555
v -5.200000 3.500000 7.919615
v -5.324264 3.500000 7.824264
v -5.419615 3.500000 7.700000
v -5.479555 3.500000 7.555291
v -5.500000 3.500000 7.400000
v 4.900000 1.000000 8.000000
v 4.900000 3.500000 8.000000
v 2.500000 1.000000 4.900000
v 2.344709 1.000000 4.920445
v 2.200000 1.000000 4.980385
v 2.075736 1.000000 5.075736
v 1.980385 1.000000 5.200000
v 1.920445 1.000000 5.344709
v 1.900000 1.000000 5.500000
v 1.920445 1.000000 5.655291
v 1.980385 1.000000 5.800000
v 2.075736 1.000000 5.924264
v 2.200000 1.000000 6.019615
v 2.344709 1.000000 6.079555
v 2.500000 1.000000 6.100000
v 2.655291 1.000000 6.079555
v 2.800000 1.000000 6.019615
v 2.924264 1.000000 5.924264
v 3.019615 1.000000 5.800000
v 3.079555 1.000000 5.655291
v 3.100000 1.000000 5.500000
v 3.079555 1.000000 5.344709
v 3.019615 1.000000 5.200000
v 2.924264 1.000000 5.075736
v 2.800000 1.000000 4.980385
v 2.655291 1.000000 4.920445
v -2.500000 1.000000 4.900000
v -2.655291 1.000000 4.920445
v -2.800000 1.000000 4.980385
v -2.924264 1.000000 5.075736
v -3.019615 1.000000 5.200000
v -3.079555 1.000000 5.344709
v -3.100000 1.000000 5.500000
v -3.079555 1.000000 5.655291
v -3.019615 1.000000 5.800000
v -2.924264 1.000000 5.924264
v -2.800000 1.000000 6.019615
v -2.655291 1.000000 6.079555
v -2.500000 1.000000 6.100000
v -2.344709 1.000000 6.079555
v -2.200000 1.000000 6.019615
v -2.075736 1.000000 5.924264
v -1.980385 1.000000 5.800000
v -1.920445 1.000000 5.655291
v -1.900000 1.000000 5.500000
v -1.920445 1.000000 5.344709
v -1.980385 1.000000 5.200000
v -2.075736 1.000000 5.075736
v -2.200000 1.000000 4.980385
v -2.344709 1.000000 4.920445
v 5.500000 1.000000 7.400000
v 5.479555 1.000000 7.555291
v 5.419615 1.000000 7.700000
v 5.324264 1.000000 7.824264
v 5.200000 1.000000 7.919615
v 5.055291 1.000000 7.979555
v 5.500000 3.500000 7.400000
v 5.479555 3.500000 7.555291
v 5.419615 3.500000 7.700000
v 5.324264 3.500000 7.824264
v 5.200000 3.500000 7.919615
v 5.055291 3.500000 7.979555
v 5.500000 3.500000 0.000000
v 2.500000 1.500000 5.200000
v 2.577646 1.500000 5.210222
v 2.650000 1.500000 5.240192
v 2.712132 1.500000 5.287868
v 2.759808 1.500000 5.350000
v 2.789778 1.500000 5.422354
v 2.800000 1.500000 5.500000
v 2.789778 1.500000 5.577646
v 2.759808 1.500000 5.650000
v 2.712132 1.500000 5.712132
v 2.650000 1.500000 5.759808
v 2.577646 1.500000 5.789778
v 2.500000 1.500000 5.800000
v 2.422354 1.500000 5.789778
v 2.350000 1.500000 5.759808
v 2.287868 1.500000 5.712132
v 2.240192 1.500000 5.650000
v 2.210222 1.500000 5.577646
v 2.200000 1.500000 5.500000
v 2.210222 1.500000 5.422354
v 2.240192 1.500000 5.350000
v 2.287868 1.500000 5.287868
v 2.350000 1.500000 5.240192
v 2.422354 1.500000 5.210222
v 2.500000 1.680258 5.500000
v 2.500000 1.100000 4.900000
v 2.655291 1.100000 4.920445
v 2.800000 1.100000 4.980385
v 2.924264 1.100000 5.075736
v 3.019615 1.100000 5.200000
v 3.079555 1.100000 5.344709
v 3.100000 1.100000 5.500000
v 3.079555 1.100000 5.655291
v 3.019615 1.100000 5.800000
v 2.924264 1.100000 5.924264
v 2.800000 1.100000 6.019615
v 2.655291 1.100000 6.079555
v 2.500000 1.100000 6.100000
v 2.344709 1.100000 6.079555
v 2.200000 1.100000 6.019615
v 2.075736 1.100000 5.924264
v 1.980385 1.100000 5.800000
v 1.920445 1.100000 5.655291
v 1.900000 1.100000 5.500000
v 1.920445 1.100000 5.344709
v 1.980385 1.100000 5.200000
v 2.075736 1.100000 5.075736
v 2.200000 1.100000 4.980385
v 2.344709 1.100000 4.920445
v 2.500000 1.100000 5.800000
v 2.577646 1.100000 5.789778
v 2.650000 1.100000 5.759808
v 2.712132 1.100000 5.712132
v 2.759808 1.100000 5.650000
v 2.789778 1.100000 5.577646
v 2.800000 1.100000 5.500000
v 2.789778 1.100000 5.422354
v 2.759808 1.100000 5.350000
v 2.712132 1.100000 5.287868
v 2.650000 1.100000 5.240192
v 2.577646 1.100000 5.210222
v 2.500000 1.100000 5.200000
v 2.422354 1.100000 5.210222
v 2.350000 1.100000 5.240192
v 2.287868 1.100000 5.287868
v 2.240192 1.100000 5.350000
v 2.210222 1.100000 5.422354
v 2.200000 1.100000 5.500000
v 2.210222 1.100000 5.577646
v 2.240192 1.100000 5.650000
v 2.287868 1.100000 5.712132
v 2.350000 1.100000 5.759808
v 2.422354 1.100000 5.789778
v -2.500000 1.500000 5.200000
v -2.422354 1.500000 5.210222
v -2.350000 1.500000 5.240192
v -2.287868 1.500000 5.287868
v -2.240192 1.500000 5.350000
v -2.210222 1.500000 5.422354
v -2.200000 1.500000 5.500000
v -2.210222 1.500000 5.577646
v -2.240192 1.500000 5.650000
v -2.287868 1.500000 5.712132
v -2.350000 1.500000 5.759808
v -2.422354 1.500000 5.789778
v -2.500000 1.500000 5.800000
v -2.577646 1.500000 5.789778
v -2.650000 1.500000 5.759808
v -2.712132 1.500000 5.712132
v -2.759808 1.500000 5.650000
v -2.789778 1.500000 5.577646
v -2.800000 1.500000 5.500000
v -2.789778 1.500000 5.422354
v -2.759808 1.500000 5.350000
v -2.712132 1.500000 5.287868
v -2.650000 1.500000 5.240192
v -2.577646 1.500000 5.210222
v -2.500000 1.680258 5.500000
v -2.500000 1.100000 4.900000
v -2.344709 1.100000 4.920445
v -2.200000 1.100000 4.980385
v -2.075736 1.100000 5.075736
v -1.980385 1.100000 5.200000
v -1.920445 1.100000 5.344709
v -1.900000 1.100000 5.500000
v -1.920445 1.100000 5.655291
v -1.980385 1.100000 5.800000
v -2.075736 1.100000 5.924264
v -2.200000 1.100000 6.019615
v -2.344709 1.100000 6.079555
v -2.500000 1.100000 6.100000
v -2.655291 1.100000 6.079555
v -2.800000 1.100000 6.019615
v -2.924264 1.100000 5.924264
v -3.019615 1.100000 5.800000
v -3.079555 1.100000 5.655291
v -3.100000 1.100000 5.500000
v -3.079555 1.100000 5.344709
v -3.019615 1.100000 5.200000
v -2.924264 1.100000 5.075736
v -2.800000 1.100000 4.980385
v -2.655291 1.100000 4.920445
v -2.500000 1.100000 5.800000
v -2.422354 1.100000 5.789778
v -2.350000 1.100000 5.759808
v -2.287868 1.100000 5.712132
v -2.240192 1.100000 5.650000
v -2.210222 1.100000 5.577646
v -2.200000 1.100000 5.500000
v -2.210222 1.100000 5.422354
v -2.240192 1.100000 5.350000
v -2.287868 1.100000 5.287868
v -2.350000 1.100000 5.240192
v -2.422354 1.100000 5.210222
v -2.500000 1.100000 5.200000
v -2.577646 1.100000 5.210222
v -2.650000 1.100000 5.240192
v -2.712132 1.100000 5.287868
v -2.759808 1.100000 5.350000
v -2.789778 1.100000 5.422354
v -2.800000 1.100000 5.500000
v -2.789778 1.100000 5.577646
v -2.759808 1.100000 5.650000
v -2.712132 1.100000 5.712132
v -2.650000 1.100000 5.759808
v -2.577646 1.100000 5.789778
v -2.000000 0.000000 0.000000
v -5.500000 3.500000 0.000000
v 2.000000 0.000000 0.000000
vt 3.000000 0.212132 0.000000
vt 0.000000 0.212132 0.000000
vt 3.000000 -0.212132 0.000000
vt 0.000000 -0.212132 0.000000
vt 2.300000 -3.000000 0.000000
vt 5.200000 -3.000000 0.000000
vt 2.000000 -2.700000 0.000000
vt 5.500000 -2.700000 0.000000
vt 2.000000 -0.500000 0.000000
vt 5.500000 0.500000 0.000000
vt -5.500000 0.500000 0.000000
vt -2.000000 -0.500000 0.000000
vt -5.500000 -2.700000 0.000000
vt -2.000000 -2.700000 0.000000
vt -2.300000 -3.000000 0.000000
vt -5.200000 -3.000000 0.000000
vt 0.300000 0.000000 0.000000
vt 3.200000 0.000000 0.000000
vt 0.300000 3.000000 0.000000
vt 3.200000 3.000000 0.000000
vt -3.000000 -0.212132 0.000000
vt -0.000000 -0.212132 0.000000
vt -3.000000 0.212132 0.000000
vt 0.000000 0.212132 0.000000
vt 3.000000 0.212132 0.000000
vt 0.000000 0.212132 0.000000
vt 3.000000 -0.212132 0.000000
vt 0.000000 -0.212132 0.000000
vt 0.300000 0.000000 0.000000
vt 3.200000 0.000000 0.000000
vt 0.300000 3.000000 0.000000
vt 3.200000 3.000000 0.000000
vt -3.000000 -0.212132 0.000000
vt -0.000000 -0.212132 0.000000
vt -3.000000 0.212132 0.000000
vt 0.000000 0.212132 0.000000
vt 0.625000 0.471239 0.000000
vt -1.875000 0.471239 0.000000
vt 0.625000 0.314159 0.000000
vt -1.875000 0.314159 0.000000
vt 0.625000 0.157080 0.000000
vt -1.875000 0.157080 0.000000
vt 0.625000 0.000000 0.000000
vt -1.875000 0.000000 0.000000
vt 0.625000 -0.157080 0.000000
vt -1.875000 -0.157080 0.000000
vt 0.625000 -0.314159 0.000000
vt -1.875000 -0.314159 0.000000
vt 0.625000 -0.471239 0.000000
vt -1.875000 -0.471239 0.000000
vt -4.900000 -1.250000 0.000000
vt 4.900000 -1.250000 0.000000
vt -4.900000 1.250000 0.000000
vt 4.900000 1.250000 0.000000
vt 8.155291 1.920445 0.000000
vt 8.000000 1.900000 0.000000
vt 11.000000 0.000000 0.000000
vt 7.844709 1.920445 0.000000
vt 3.155291 1.920445 0.000000
vt 3.300000 1.980385 0.000000
vt 7.700000 1.980385 0.000000
vt 3.424264 2.075736 0.000000
vt 7.575736 2.075736 0.000000
vt 3.519615 2.200000 0.000000
vt 7.480385 2.200000 0.000000
vt 3.579555 2.344709 0.000000
vt 7.420445 2.344709 0.000000
vt 3.600000 2.500000 0.000000
vt 7.400000 2.500000 0.000000
vt 3.579555 2.655291 0.000000
vt 7.420445 2.655291 0.000000
vt 3.519615 2.800000 0.000000
vt 7.480385 2.800000 0.000000
vt 3.424264 2.924264 0.000000
vt 7.575736 2.924264 0.000000
vt 3.300000 3.019615 0.000000
vt 7.700000 3.019615 0.000000
vt 3.155291 3.079555 0.000000
vt 7.844709 3.079555 0.000000
vt 0.600000 5.000000 0.000000
vt 10.400000 5.000000 0.000000
vt 8.000000 3.100000 0.000000
vt 11.000000 4.400000 0.000000
vt 8.155291 3.079555 0.000000
vt 8.300000 3.019615 0.000000
vt 8.424264 2.924264 0.000000
vt 8.519615 2.800000 0.000000
vt 8.579555 2.655291 0.000000
vt 8.600000 2.500000 0.000000
vt 8.579555 2.344709 0.000000
vt 8.519615 2.200000 0.000000
vt 8.424264 2.075736 0.000000
vt 8.300000 1.980385 0.000000
vt 3.000000 1.900000 0.000000
vt 0.000000 0.000000 0.000000
vt 2.844709 1.920445 0.000000
vt 2.700000 1.980385 0.000000
vt 2.575736 2.075736 0.000000
vt 2.480385 2.200000 0.000000
vt 2.420445 2.344709 0.000000
vt 0.000000 4.400000 0.000000
vt 2.400000 2.500000 0.000000
vt 2.420445 2.655291 0.000000
vt 2.480385 2.800000 0.000000
vt 2.575736 2.924264 0.000000
vt 2.700000 3.019615 0.000000
vt 2.844709 3.079555 0.000000
vt 3.000000 3.100000 0.000000
vt 0.444709 4.979555 0.000000
vt 0.300000 4.919615 0.000000
vt 0.175736 4.824264 0.000000
vt 0.080385 4.700000 0.000000
vt 0.020445 4.555291 0.000000
vt 10.979555 4.555291 0.000000
vt 10.919615 4.700000 0.000000
vt 10.824264 4.824264 0.000000
vt 10.700000 4.919615 0.000000
vt 10.555291 4.979555 0.000000
vt -1.125000 0.471239 0.000000
vt -3.625000 0.471239 0.000000
vt -1.125000 0.314159 0.000000
vt -3.625000 0.314159 0.000000
vt -1.125000 0.157080 0.000000
vt -3.625000 0.157080 0.000000
vt -1.125000 0.000000 0.000000
vt -3.625000 0.000000 0.000000
vt -1.125000 -0.157080 0.000000
vt -3.625000 -0.157080 0.000000
vt -1.125000 -0.314159 0.000000
vt -3.625000 -0.314159 0.000000
vt -1.125000 -0.471239 0.000000
vt -3.625000 -0.471239 0.000000
vt 0.300000 3.000000 0.000000
vt 0.300000 0.000000 0.000000
vt 3.500000 3.000000 0.000000
vt 6.000000 0.000000 0.000000
vt 6.000000 7.400000 0.000000
vt 3.500000 7.400000 0.000000
vt 0.174995 0.039270 0.000000
vt -0.174995 0.039270 0.000000
vt 0.174995 0.000000 0.000000
vt 0.174995 0.117810 0.000000
vt -0.174995 0.117810 0.000000
vt 0.174995 0.078540 0.000000
vt 0.174995 0.196350 0.000000
vt -0.174995 0.196350 0.000000
vt 0.174995 0.157080 0.000000
vt 0.174995 0.274889 0.000000
vt -0.174995 0.274889 0.000000
vt 0.174995 0.235619 0.000000
vt 0.174995 0.353429 0.000000
vt -0.174995 0.353429 0.000000
vt 0.174995 0.314159 0.000000
vt 0.174995 0.431969 0.000000
vt -0.174995 0.431969 0.000000
vt 0.174995 0.392699 0.000000
vt 0.174995 -0.431969 0.000000
vt -0.174995 -0.431969 0.000000
vt 0.174995 -0.471239 0.000000
vt 0.174995 -0.353429 0.000000
vt -0.174995 -0.353429 0.000000
vt 0.174995 -0.392699 0.000000
vt 0.174995 -0.274889 0.000000
vt -0.174995 -0.274889 0.000000
vt 0.174995 -0.314159 0.000000
vt 0.174995 -0.196350 0.000000
vt -0.174995 -0.196350 0.000000
vt 0.174995 -0.235619 0.000000
vt 0.174995 -0.117810 0.000000
vt -0.174995 -0.117810 0.000000
vt 0.174995 -0.157080 0.000000
vt 0.174995 -0.039270 0.000000
vt -0.174995 -0.039270 0.000000
vt 0.174995 -0.078540 0.000000
vt 0.174995 0.471239 0.000000
vt -0.174995 0.471239 0.000000
vt -0.174995 0.157080 0.000000
vt -0.174995 -0.157080 0.000000
vt -0.174995 0.392699 0.000000
vt -0.174995 0.314159 0.000000
vt -0.174995 0.235619 0.000000
vt -0.174995 0.078540 0.000000
vt -0.174995 0.000000 0.000000
vt -0.174995 -0.078540 0.000000
vt -0.174995 -0.235619 0.000000
vt -0.174995 -0.314159 0.000000
vt -0.174995 -0.392699 0.000000
vt 0.579555 0.155291 0.000000
vt 0.289778 0.077646 0.000000
vt 0.600000 0.000000 0.000000
vt 0.300000 0.000000 0.000000
vt 0.579555 -0.155291 0.000000
vt 0.289778 -0.077646 0.000000
vt 0.259808 -0.150000 0.000000
vt 0.259808 0.150000 0.000000
vt 0.519615 0.300000 0.000000
vt 0.212132 0.212132 0.000000
vt 0.424264 0.424264 0.000000
vt 0.150000 0.259808 0.000000
vt 0.300000 0.519615 0.000000
vt 0.077646 0.289778 0.000000
vt 0.155291 0.579555 0.000000
vt 0.000000 0.300000 0.000000
vt 0.000000 0.600000 0.000000
vt -0.155291 0.579555 0.000000
vt -0.077646 0.289778 0.000000
vt -0.300000 0.519615 0.000000
vt -0.150000 0.259808 0.000000
vt -0.424264 0.424264 0.000000
vt -0.212132 0.212132 0.000000
vt -0.519615 0.300000 0.000000
vt -0.259808 0.150000 0.000000
vt -0.579555 0.155291 0.000000
vt -0.289778 0.077646 0.000000
vt -0.600000 0.000000 0.000000
vt -0.300000 0.000000 0.000000
vt -0.289778 -0.077646 0.000000
vt -0.579555 -0.155291 0.000000
vt -0.259808 -0.150000 0.000000
vt -0.519615 -0.300000 0.000000
vt -0.212132 -0.212132 0.000000
vt -0.424264 -0.424264 0.000000
vt -0.150000 -0.259808 0.000000
vt -0.300000 -0.519615 0.000000
vt -0.077646 -0.289778 0.000000
vt -0.155291 -0.579555 0.000000
vt 0.000000 -0.300000 0.000000
vt 0.000000 -0.600000 0.000000
vt 0.155291 -0.579555 0.000000
vt 0.077646 -0.289778 0.000000
vt 0.300000 -0.519615 0.000000
vt 0.150000 -0.259808 0.000000
vt 0.424264 -0.424264 0.000000
vt 0.212132 -0.212132 0.000000
vt 0.519615 -0.300000 0.000000
vt 0.050000 0.157080 0.000000
vt -0.050000 0.157080 0.000000
vt 0.050000 0.000000 0.000000
vt -0.050000 0.000000 0.000000
vt 0.050000 -0.157080 0.000000
vt -0.050000 -0.157080 0.000000
vt 0.050000 -0.314159 0.000000
vt -0.050000 -0.314159 0.000000
vt 0.050000 -0.471239 0.000000
vt -0.050000 -0.471239 0.000000
vt 0.050000 -0.628319 0.000000
vt -0.050000 -0.628319 0.000000
vt 0.050000 -0.785398 0.000000
vt -0.050000 -0.785398 0.000000
vt 0.050000 -0.942478 0.000000
vt -0.050000 -0.942478 0.000000
vt 0.050000 -1.099557 0.000000
vt -0.050000 -1.099557 0.000000
vt 0.050000 -1.256637 0.000000
vt -0.050000 -1.256637 0.000000
vt 0.050000 -1.413717 0.000000
vt -0.050000 -1.413717 0.000000
vt 0.050000 -1.570796 0.000000
vt -0.050000 -1.570796 0.000000
vt 0.050000 -1.727876 0.000000
vt -0.050000 -1.727876 0.000000
vt 0.050000 -1.884956 0.000000
vt -0.050000 -1.884956 0.000000
vt 0.050000 1.884956 0.000000
vt -0.050000 1.884956 0.000000
vt 0.050000 1.727876 0.000000
vt -0.050000 1.727876 0.000000
vt 0.050000 1.570796 0.000000
vt -0.050000 1.570796 0.000000
vt 0.050000 1.413717 0.000000
vt -0.050000 1.413717 0.000000
vt 0.050000 1.256637 0.000000
vt -0.050000 1.256637 0.000000
vt 0.050000 1.099557 0.000000
vt -0.050000 1.099557 0.000000
vt 0.050000 0.942478 0.000000
vt -0.050000 0.942478 0.000000
vt 0.050000 0.785398 0.000000
vt -0.050000 0.785398 0.000000
vt 0.050000 0.628319 0.000000
vt -0.050000 0.628319 0.000000
vt 0.050000 0.471239 0.000000
vt -0.050000 0.471239 0.000000
vt 0.050000 0.314159 0.000000
vt -0.050000 0.314159 0.000000
vt 0.150000 -0.863938 0.000000
vt -0.250000 -0.863938 0.000000
vt 0.150000 -0.942478 0.000000
vt -0.250000 -0.942478 0.000000
vt 0.150000 0.942478 0.000000
vt -0.250000 0.942478 0.000000
vt 0.150000 0.863938 0.000000
vt -0.250000 0.863938 0.000000
vt 0.150000 0.785398 0.000000
vt -0.250000 0.785398 0.000000
vt 0.150000 0.706858 0.000000
vt -0.250000 0.706858 0.000000
vt 0.150000 0.628319 0.000000
vt -0.250000 0.628319 0.000000
vt 0.150000 0.549779 0.000000
vt -0.250000 0.549779 0.000000
vt 0.150000 0.471239 0.000000
vt -0.250000 0.471239 0.000000
vt 0.150000 0.392699 0.000000
vt -0.250000 0.392699 0.000000
vt 0.150000 0.314159 0.000000
vt -0.250000 0.314159 0.000000
vt 0.150000 0.235619 0.000000
vt -0.250000 0.235619 0.000000
vt 0.150000 0.157080 0.000000
vt -0.250000 0.157080 0.000000
vt 0.150000 0.078540 0.000000
vt -0.250000 0.078540 0.000000
vt 0.150000 0.000000 0.000000
vt -0.250000 0.000000 0.000000
vt 0.150000 -0.078540 0.000000
vt -0.250000 -0.078540 0.000000
vt 0.150000 -0.157080 0.000000
vt -0.250000 -0.157080 0.000000
vt 0.150000 -0.235619 0.000000
vt -0.250000 -0.235619 0.000000
vt 0.150000 -0.314159 0.000000
vt -0.250000 -0.314159 0.000000
vt 0.150000 -0.392699 0.000000
vt -0.250000 -0.392699 0.000000
vt 0.150000 -0.471239 0.000000
vt -0.250000 -0.471239 0.000000
vt 0.150000 -0.549779 0.000000
vt -0.250000 -0.549779 0.000000
vt 0.150000 -0.628319 0.000000
vt -0.250000 -0.628319 0.000000
vt 0.150000 -0.706858 0.000000
vt -0.250000 -0.706858 0.000000
vt 0.150000 -0.785398 0.000000
vt -0.250000 -0.785398 0.000000
vt -0.174995 -0.039270 0.000000
vt 0.174995 -0.039270 0.000000
vt -0.174995 -0.000000 0.000000
vt -0.174995 -0.117810 0.000000
vt 0.174995 -0.117810 0.000000
vt -0.174995 -0.078540 0.000000
vt -0.174995 -0.196350 0.000000
vt 0.174995 -0.196350 0.000000
vt -0.174995 -0.157080 0.000000
vt -0.174995 -0.274889 0.000000
vt 0.174995 -0.274889 0.000000
vt -0.174995 -0.235619 0.000000
vt -0.174995 -0.353429 0.000000
vt 0.174995 -0.353429 0.000000
vt -0.174995 -0.314159 0.000000
vt -0.174995 -0.431969 0.000000
vt 0.174995 -0.431969 0.000000
vt -0.174995 -0.392699 0.000000
vt -0.174995 0.431969 0.000000
vt 0.174995 0.431969 0.000000
vt -0.174995 0.471239 0.000000
vt -0.174995 0.353429 0.000000
vt 0.174995 0.353429 0.000000
vt -0.174995 0.392699 0.000000
vt -0.174995 0.274889 0.000000
vt 0.174995 0.274889 0.000000
vt -0.174995 0.314159 0.000000
vt -0.174995 0.196350 0.000000
vt 0.174995 0.196350 0.000000
vt -0.174995 0.235619 0.000000
vt -0.174995 0.117810 0.000000
vt 0.174995 0.117810 0.000000
vt -0.174995 0.157080 0.000000
vt -0.174995 0.039270 0.000000
vt 0.174995 0.039270 0.000000
vt -0.174995 0.078540 0.000000
vt -0.174995 -0.471239 0.000000
vt 0.174995 -0.471239 0.000000
vt 0.174995 -0.157080 0.000000
vt 0.174995 0.157080 0.000000
vt 0.174995 -0.392699 0.000000
vt 0.174995 -0.314159 0.000000
vt 0.174995 -0.235619 0.000000
vt 0.174995 -0.078540 0.000000
vt 0.174995 0.000000 0.000000
vt 0.174995 0.078540 0.000000
vt 0.174995 0.235619 0.000000
vt 0.174995 0.314159 0.000000
vt 0.174995 0.392699 0.000000
vt -0.579555 -0.155291 0.000000
vt -0.289778 -0.077646 0.000000
vt -0.600000 0.000000 0.000000
vt -0.300000 0.000000 0.000000
vt -0.289778 0.077646 0.000000
vt -0.259808 -0.150000 0.000000
vt -0.519615 -0.300000 0.000000
vt -0.212132 -0.212132 0.000000
vt -0.424264 -0.424264 0.000000
vt -0.150000 -0.259808 0.000000
vt -0.300000 -0.519615 0.000000
vt -0.077646 -0.289778 0.000000
vt -0.155291 -0.579555 0.000000
vt -0.000000 -0.300000 0.000000
vt -0.000000 -0.600000 0.000000
vt 0.155291 -0.579555 0.000000
vt 0.077646 -0.289778 0.000000
vt 0.300000 -0.519615 0.000000
vt 0.150000 -0.259808 0.000000
vt 0.424264 -0.424264 0.000000
vt 0.212132 -0.212132 0.000000
vt 0.519615 -0.300000 0.000000
vt 0.259808 -0.150000 0.000000
vt 0.579555 -0.155291 0.000000
vt 0.289778 -0.077646 0.000000
vt 0.300000 0.000000 0.000000
vt 0.600000 0.000000 0.000000
vt 0.289778 0.077646 0.000000
vt 0.579555 0.155291 0.000000
vt 0.259808 0.150000 0.000000
vt 0.519615 0.300000 0.000000
vt 0.212132 0.212132 0.000000
vt 0.424264 0.424264 0.000000
vt 0.150000 0.259808 0.000000
vt 0.300000 0.519615 0.000000
vt 0.077646 0.289778 0.000000
vt 0.155291 0.579555 0.000000
vt -0.000000 0.300000 0.000000
vt -0.000000 0.600000 0.000000
vt -0.155291 0.579555 0.000000
vt -0.077646 0.289778 0.000000
vt -0.300000 0.519615 0.000000
vt -0.150000 0.259808 0.000000
vt -0.424264 0.424264 0.000000
vt -0.212132 0.212132 0.000000
vt -0.519615 0.300000 0.000000
vt -0.259808 0.150000 0.000000
vt -0.579555 0.155291 0.000000
vt -0.050000 -0.157080 0.000000
vt 0.050000 -0.157080 0.000000
vt -0.050000 -0.000000 0.000000
vt 0.050000 0.000000 0.000000
vt -0.050000 0.157080 0.000000
vt 0.050000 0.157080 0.000000
vt -0.050000 0.314159 0.000000
vt 0.050000 0.314159 0.000000
vt -0.050000 0.471239 0.000000
vt 0.050000 0.471239 0.000000
vt -0.050000 0.628319 0.000000
vt 0.050000 0.628319 0.000000
vt -0.050000 0.785398 0.000000
vt 0.050000 0.785398 0.000000
vt -0.050000 0.942478 0.000000
vt 0.050000 0.942478 0.000000
vt -0.050000 1.099557 0.000000
vt 0.050000 1.099557 0.000000
vt -0.050000 1.256637 0.000000
vt 0.050000 1.256637 0.000000
vt -0.050000 1.413717 0.000000
vt 0.050000 1.413717 0.000000
vt -0.050000 1.570796 0.000000
vt 0.050000 1.570796 0.000000
vt -0.050000 1.727876 0.000000
vt 0.050000 1.727876 0.000000
vt -0.050000 1.884956 0.000000
vt 0.050000 1.884956 0.000000
vt -0.050000 -1.884956 0.000000
vt 0.050000 -1.884956 0.000000
vt -0.050000 -1.727876 0.000000
vt 0.050000 -1.727876 0.000000
vt -0.050000 -1.570796 0.000000
vt 0.050000 -1.570796 0.000000
vt -0.050000 -1.413717 0.000000
vt 0.050000 -1.413717 0.000000
vt -0.050000 -1.256637 0.000000
vt 0.050000 -1.256637 0.000000
vt -0.050000 -1.099557 0.000000
vt 0.050000 -1.099557 0.000000
vt -0.050000 -0.942478 0.000000
vt 0.050000 -0.942478 0.000000
vt -0.050000 -0.785398 0.000000
vt 0.050000 -0.785398 0.000000
vt -0.050000 -0.628319 0.000000
vt 0.050000 -0.628319 0.000000
vt -0.050000 -0.471239 0.000000
vt 0.050000 -0.471239 0.000000
vt -0.050000 -0.314159 0.000000
vt 0.050000 -0.314159 0.000000
vt -0.150000 0.863938 0.000000
vt 0.250000 0.863938 0.000000
vt -0.150000 0.942478 0.000000
vt 0.250000 0.942478 0.000000
vt -0.150000 -0.942478 0.000000
vt 0.250000 -0.942478 0.000000
vt -0.150000 -0.863938 0.000000
vt 0.250000 -0.863938 0.000000
vt -0.150000 -0.785398 0.000000
vt 0.250000 -0.785398 0.000000
vt -0.150000 -0.706858 0.000000
vt 0.250000 -0.706858 0.000000
vt -0.150000 -0.628319 0.000000
vt 0.250000 -0.628319 0.000000
vt -0.150000 -0.549779 0.000000
vt 0.250000 -0.549779 0.000000
vt -0.150000 -0.471239 0.000000
vt 0.250000 -0.471239 0.000000
vt -0.150000 -0.392699 0.000000
vt 0.250000 -0.392699 0.000000
vt -0.150000 -0.314159 0.000000
vt 0.250000 -0.314159 0.000000
vt -0.150000 -0.235619 0.000000
vt 0.250000 -0.235619 0.000000
vt -0.150000 -0.157080 0.000000
vt 0.250000 -0.157080 0.000000
vt -0.150000 -0.078540 0.000000
vt 0.250000 -0.078540 0.000000
vt -0.150000 -0.000000 0.000000
vt 0.250000 0.000000 0.000000
vt -0.150000 0.078540 0.000000
vt 0.250000 0.078540 0.000000
vt -0.150000 0.157080 0.000000
vt 0.250000 0.157080 0.000000
vt -0.150000 0.235619 0.000000
vt 0.250000 0.235619 0.000000
vt -0.150000 0.314159 0.000000
vt 0.250000 0.314159 0.000000
vt -0.150000 0.392699 0.000000
vt 0.250000 0.392699 0.000000
vt -0.150000 0.471239 0.000000
vt 0.250000 0.471239 0.000000
vt -0.150000 0.549779 0.000000
vt 0.250000 0.549779 0.000000
vt -0.150000 0.628319 0.000000
vt 0.250000 0.628319 0.000000
vt -0.150000 0.706858 0.000000
vt 0.250000 0.706858 0.000000
vt -0.150000 0.785398 0.000000
vt 0.250000 0.785398 0.000000
vt 0.300000 0.000000 0.000000
vt 2.500000 0.000000 0.000000
vt 0.300000 3.000000 0.000000
vt 2.500000 3.000000 0.000000
vt 5.700000 3.000000 0.000000
vt 2.500000 3.000000 0.000000
vt 5.700000 0.000000 0.000000
vt -0.000000 0.000000 0.000000
vt -0.000000 7.400000 0.000000
vt 2.500000 7.400000 0.000000
vt 10.979555 7.555291 0.000000
vt 10.400000 8.000000 0.000000
vt 11.000000 7.400000 0.000000
vt 0.600000 8.000000 0.000000
vt 0.000000 7.400000 0.000000
vt 0.020445 7.555291 0.000000
vt 0.080385 7.700000 0.000000
vt 0.175736 7.824264 0.000000
vt 0.300000 7.919615 0.000000
vt 0.444709 7.979555 0.000000
vt 10.919615 7.700000 0.000000
vt 10.824264 7.824264 0.000000
vt 10.700000 7.919615 0.000000
vt 10.555291 7.979555 0.000000
vt 0.000000 0.000000 0.000000
vt 11.000000 0.000000 0.000000
vt 2.200000 3.000000 0.000000
vt 0.000000 3.000000 0.000000
vt 2.200000 0.000000 0.000000
vt 0.000000 0.000000 0.000000
vt 0.000000 0.000000 0.000000
vt 4.000000 0.000000 0.000000
vt 0.000000 3.000000 0.000000
vt 4.000000 3.000000 0.000000
vt -5.200000 -3.000000 0.000000
vt -2.300000 -3.000000 0.000000
vt -5.500000 -2.700000 0.000000
vt -2.000000 -2.700000 0.000000
vt -2.000000 -0.500000 0.000000
vt -5.500000 3.000000 0.000000
vt 2.000000 -0.500000 0.000000
vt 5.500000 3.000000 0.000000
vt 5.500000 -2.700000 0.000000
vt 2.000000 -2.700000 0.000000
vt 5.200000 -3.000000 0.000000
vt 2.300000 -3.000000 0.000000
vn -0.707107 -0.707107 0.000000
vn -0.707107 -0.707107 0.000000
vn -0.707107 -0.707107 0.000000
vn -0.707107 -0.707107 0.000000
vn 0.000000 0.000000 1.000000
vn 0.000000 0.000000 1.000000
vn 0.000000 0.000000 1.000000
vn 0.000000 0.000000 1.000000
vn 0.000000 0.000000 1.000000
vn 0.000000 0.000000 1.000000
vn 0.000000 0.000000 1.000000
vn 0.000000 0.000000 1.000000
vn 0.000000 0.000000 1.000000
vn 0.000000 0.000000 1.000000
vn 0.000000 0.000000 1.000000
vn 0.000000 0.000000 1.000000
vn 0.000000 -1.000000 0.000000
vn 0.000000 -1.000000 0.000000
vn 0.000000 -1.000000 0.000000
vn 0.000000 -1.000000 0.000000
vn 0.707107 -0.707107 0.000000
vn 0.707107 -0.707107 0.000000
vn 0.707107 -0.707107 0.000000
vn 0.707107 -0.707107 0.000000
vn -0.707107 -0.707107 0.000000
vn -0.707107 -0.707107 0.000000
vn -0.707107 -0.707107 0.000000
vn -0.707107 -0.707107 0.000000
vn 0.000000 -1.000000 0.000000
vn 0.000000 -1.000000 0.000000
vn 0.000000 -1.000000 0.000000
vn 0.000000 -1.000000 0.000000
vn 0.707107 -0.707107 0.000000
vn 0.707107 -0.707107 0.000000
vn 0.707107 -0.707107 0.000000
vn 0.707107 -0.707107 0.000000
vn -1.000000 -0.000000 -0.000000
vn -1.000000 -0.000000 -0.000000
vn -0.965926 -0.000000 0.258819
vn -0.965926 -0.000000 0.258819
vn -0.866025 -0.000000 0.500000
vn -0.866025 -0.000000 0.500000
vn -0.707107 -0.000000 0.707107
vn -0.707107 -0.000000 0.707107
vn -0.500000 -0.000000 0.866025
vn -0.500000 -0.000000 0.866025
vn -0.258819 -0.000000 0.965926
vn -0.258819 -0.000000 0.965926
vn 0.000000 0.000000 1.000000
vn 0.000000 0.000000 1.000000
vn 0.000000 0.000000 1.000000
vn 0.000000 0.000000 1.000000
vn 0.000000 -1.000000 0.000000
vn 0.000000 -1.000000 0.000000
vn 0.000000 -1.000000 0.000000
vn 0.000000 -1.000000 0.000000
vn 0.000000 -1.000000 0.000000
vn 0.000000 -1.000000 0.000000
vn 0.000000 -1.000000 0.000000
vn 0.000000 -1.000000 0.000000
vn 0.000000 -1.000000 0.000000
vn 0.000000 -1.000000 0.000000
vn 0.000000 -1.000000 0.000000
vn 0.000000 -1.000000 0.000000
vn 0.000000 -1.000000 0.000000
vn 0.000000 -1.000000 0.000000
vn 0.000000 -1.000000 0.000000
vn 0.000000 -1.000000 0.000000
vn 0.000000 -1.000000 0.000000
vn 0.000000 -1.000000 0.000000
vn 0.000000 -1.000000 0.000000
vn 0.000000 -1.000000 0.000000
vn 0.000000 -1.000000 0.000000
vn 0.000000 -1.000000 0.000000
vn 0.000000 -1.000000 0.000000
vn 0.000000 -1.000000 0.000000
vn 0.000000 -1.000000 0.000000
vn 0.000000 -1.000000 0.000000
vn 0.000000 -1.000000 0.000000
vn 0.000000 -1.000000 0.000000
vn 0.000000 -1.000000 0.000000
vn 0.000000 -1.000000 0.000000
vn 0.000000 -1.000000 0.000000
vn 0.000000 -1.000000 0.000000
vn 0.000000 -1.000000 0.000000
vn 0.000000 -1.000000 0.000000
vn 0.000000 -1.000000 0.000000
vn 0.000000 -1.000000 0.000000
vn 0.000000 -1.000000 0.000000
vn 0.000000 -1.000000 0.000000
vn 0.000000 -1.000000 0.000000
vn 0.000000 -1.000000 0.000000
vn 0.000000 -1.000000 0.000000
vn 0.000000 -1.000000 0.000000
vn 0.000000 -1.000000 0.000000
vn 0.000000 -1.000000 0.000000
vn 0.000000 -1.000000 0.000000
vn 0.000000 -1.000000 0.000000
vn 0.000000 -1.000000 0.000000
vn 0.000000 -1.000000 0.000000
vn 0.000000 -1.000000 0.000000
vn 0.000000 -1.000000 0.000000
vn 0.000000 -1.000000 0.000000
vn 0.000000 -1.000000 0.000000
vn 0.000000 -1.000000 0.000000
vn 0.000000 -1.000000 0.000000
vn 0.000000 -1.000000 0.000000
vn 0.000000 -1.000000 0.000000
vn 0.000000 -1.000000 0.000000
vn 0.000000 -1.000000 0.000000
vn 0.000000 -1.000000 0.000000
vn 0.000000 -1.000000 0.000000
vn 0.000000 -1.000000 0.000000
vn 0.000000 -1.000000 0.000000
vn 0.000000 -1.000000 0.000000
vn 0.000000 -1.000000 0.000000
vn 1.000000 -0.000000 -0.000000
vn 1.000000 -0.000000 -0.000000
vn 0.965926 -0.000000 0.258819
vn 0.965926 -0.000000 0.258819
vn 0.866025 -0.000000 0.500000
vn 0.866025 -0.000000 0.500000
vn 0.707107 -0.000000 0.707107
vn 0.707107 -0.000000 0.707107
vn 0.500000 -0.000000 0.866025
vn 0.500000 -0.000000 0.866025
vn 0.258819 -0.000000 0.965926
vn 0.258819 -0.000000 0.965926
vn 1.000000 0.000000 0.000000
vn 1.000000 0.000000 0.000000
vn 1.000000 0.000000 0.000000
vn 1.000000 0.000000 0.000000
vn -0.133302 -0.857167 0.497489
vn -0.133302 -0.857167 0.497489
vn -0.000000 -0.857167 0.515038
vn -0.364187 -0.857167 0.364187
vn -0.364187 -0.857167 0.364187
vn -0.257519 -0.857167 0.446036
vn -0.497489 -0.857167 0.133302
vn -0.497489 -0.857167 0.133302
vn -0.446036 -0.857167 0.257519
vn -0.497489 -0.857167 -0.133302
vn -0.497489 -0.857167 -0.133302
vn -0.515038 -0.857167 0.000000
vn -0.364187 -0.857167 -0.364187
vn -0.364187 -0.857167 -0.364187
vn -0.446036 -0.857167 -0.257519
vn -0.133302 -0.857167 -0.497489
vn -0.133302 -0.857167 -0.497489
vn -0.257519 -0.857167 -0.446036
vn 0.133302 -0.857167 -0.497489
vn 0.133302 -0.857167 -0.497489
vn 0.000000 -0.857167 -0.515038
vn 0.364187 -0.857167 -0.364187
vn 0.364187 -0.857167 -0.364187
vn 0.257519 -0.857167 -0.446036
vn 0.497489 -0.857167 -0.133302
vn 0.497489 -0.857167 -0.133302
vn 0.446036 -0.857167 -0.257519
vn 0.497489 -0.857167 0.133302
vn 0.497489 -0.857167 0.133302
vn 0.515038 -0.857167 0.000000
vn 0.364187 -0.857167 0.364187
vn 0.364187 -0.857167 0.364187
vn 0.446036 -0.857167 0.257519
vn 0.133302 -0.857167 0.497489
vn 0.133302 -0.857167 0.497489
vn 0.257519 -0.857167 0.446036
vn -0.000000 -0.857167 -0.515038
vn -0.446036 -0.857167 0.257519
vn 0.446036 -0.857167 0.257519
vn -0.257519 -0.857167 -0.446036
vn -0.446036 -0.857167 -0.257519
vn -0.515038 -0.857167 0.000000
vn -0.257519 -0.857167 0.446036
vn -0.000000 -0.857167 0.515038
vn 0.257519 -0.857167 0.446036
vn 0.515038 -0.857167 0.000000
vn 0.446036 -0.857167 -0.257519
vn 0.257519 -0.857167 -0.446036
vn 0.000000 -1.000000 -0.000000
vn 0.000000 -1.000000 -0.000000
vn 0.000000 -1.000000 -0.000000
vn 0.000000 -1.000000 -0.000000
vn 0.000000 -1.000000 -0.000000
vn 0.000000 -1.000000 -0.000000
vn 0.000000 -1.000000 -0.000000
vn 0.000000 -1.000000 -0.000000
vn 0.000000 -1.000000 -0.000000
vn 0.000000 -1.000000 -0.000000
vn 0.000000 -1.000000 -0.000000
vn 0.000000 -1.000000 -0.000000
vn 0.000000 -1.000000 -0.000000
vn 0.000000 -1.000000 -0.000000
vn 0.000000 -1.000000 -0.000000
vn 0.000000 -1.000000 -0.000000
vn 0.000000 -1.000000 -0.000000
vn 0.000000 -1.000000 -0.000000
vn 0.000000 -1.000000 -0.000000
vn 0.000000 -1.000000 -0.000000
vn 0.000000 -1.000000 -0.000000
vn 0.000000 -1.000000 -0.000000
vn 0.000000 -1.000000 -0.000000
vn 0.000000 -1.000000 -0.000000
vn 0.000000 -1.000000 -0.000000
vn 0.000000 -1.000000 -0.000000
vn 0.000000 -1.000000 -0.000000
vn 0.000000 -1.000000 -0.000000
vn 0.000000 -1.000000 -0.000000
vn 0.000000 -1.000000 -0.000000
vn 0.000000 -1.000000 -0.000000
vn 0.000000 -1.000000 -0.000000
vn 0.000000 -1.000000 -0.000000
vn 0.000000 -1.000000 -0.000000
vn 0.000000 -1.000000 -0.000000
vn 0.000000 -1.000000 -0.000000
vn 0.000000 -1.000000 -0.000000
vn 0.000000 -1.000000 -0.000000
vn 0.000000 -1.000000 -0.000000
vn 0.000000 -1.000000 -0.000000
vn 0.000000 -1.000000 -0.000000
vn 0.000000 -1.000000 -0.000000
vn 0.000000 -1.000000 -0.000000
vn 0.000000 -1.000000 -0.000000
vn 0.000000 -1.000000 -0.000000
vn 0.000000 -1.000000 -0.000000
vn 0.000000 -1.000000 -0.000000
vn 0.000000 -1.000000 -0.000000
vn -0.258819 -0.000000 0.965926
vn -0.258819 -0.000000 0.965926
vn -0.000000 -0.000000 1.000000
vn -0.000000 -0.000000 1.000000
vn 0.258819 -0.000000 0.965926
vn 0.258819 -0.000000 0.965926
vn 0.500000 -0.000000 0.866025
vn 0.500000 -0.000000 0.866025
vn 0.707107 -0.000000 0.707107
vn 0.707107 -0.000000 0.707107
vn 0.866025 -0.000000 0.500000
vn 0.866025 -0.000000 0.500000
vn 0.965926 -0.000000 0.258819
vn 0.965926 -0.000000 0.258819
vn 1.000000 -0.000000 0.000000
vn 1.000000 -0.000000 0.000000
vn 0.965926 0.000000 -0.258819
vn 0.965926 0.000000 -0.258819
vn 0.866025 0.000000 -0.500000
vn 0.866025 0.000000 -0.500000
vn 0.707107 0.000000 -0.707107
vn 0.707107 0.000000 -0.707107
vn 0.500000 0.000000 -0.866025
vn 0.500000 0.000000 -0.866025
vn 0.258819 0.000000 -0.965926
vn 0.258819 0.000000 -0.965926
vn 0.000000 0.000000 -1.000000
vn 0.000000 0.000000 -1.000000
vn -0.258819 0.000000 -0.965926
vn -0.258819 0.000000 -0.965926
vn -0.500000 0.000000 -0.866025
vn -0.500000 0.000000 -0.866025
vn -0.707107 0.000000 -0.707107
vn -0.707107 0.000000 -0.707107
vn -0.866025 0.000000 -0.500000
vn -0.866025 0.000000 -0.500000
vn -0.965926 0.000000 -0.258819
vn -0.965926 0.000000 -0.258819
vn -1.000000 -0.000000 0.000000
vn -1.000000 -0.000000 0.000000
vn -0.965926 -0.000000 0.258819
vn -0.965926 -0.000000 0.258819
vn -0.866025 -0.000000 0.500000
vn -0.866025 -0.000000 0.500000
vn -0.707107 -0.000000 0.707107
vn -0.707107 -0.000000 0.707107
vn -0.500000 -0.000000 0.866025
vn -0.500000 -0.000000 0.866025
vn 0.258819 0.000000 -0.965926
vn 0.258819 0.000000 -0.965926
vn 0.000000 0.000000 -1.000000
vn 0.000000 0.000000 -1.000000
vn -0.258819 0.000000 -0.965926
vn -0.258819 0.000000 -0.965926
vn -0.500000 0.000000 -0.866025
vn -0.500000 0.000000 -0.866025
vn -0.707107 0.000000 -0.707107
vn -0.707107 0.000000 -0.707107
vn -0.866025 0.000000 -0.500000
vn -0.866025 0.000000 -0.500000
vn -0.965926 0.000000 -0.258819
vn -0.965926 0.000000 -0.258819
vn -1.000000 -0.000000 0.000000
vn -1.000000 -0.000000 0.000000
vn -0.965926 -0.000000 0.258819
vn -0.965926 -0.000000 0.258819
vn -0.866025 -0.000000 0.500000
vn -0.866025 -0.000000 0.500000
vn -0.707107 -0.000000 0.707107
vn -0.707107 -0.000000 0.707107
vn -0.500000 -0.000000 0.866025
vn -0.500000 -0.000000 0.866025
vn -0.258819 -0.000000 0.965926
vn -0.258819 -0.000000 0.965926
vn -0.000000 -0.000000 1.000000
vn -0.000000 -0.000000 1.000000
vn 0.258819 -0.000000 0.965926
vn 0.258819 -0.000000 0.965926
vn 0.500000 -0.000000 0.866025
vn 0.500000 -0.000000 0.866025
vn 0.707107 -0.000000 0.707107
vn 0.707107 -0.000000 0.707107
vn 0.866025 -0.000000 0.500000
vn 0.866025 -0.000000 0.500000
vn 0.965926 -0.000000 0.258819
vn 0.965926 -0.000000 0.258819
vn 1.000000 -0.000000 0.000000
vn 1.000000 -0.000000 0.000000
vn 0.965926 0.000000 -0.258819
vn 0.965926 0.000000 -0.258819
vn 0.866025 0.000000 -0.500000
vn 0.866025 0.000000 -0.500000
vn 0.707107 0.000000 -0.707107
vn 0.707107 0.000000 -0.707107
vn 0.500000 0.000000 -0.866025
vn 0.500000 0.000000 -0.866025
vn -0.133302 -0.857167 0.497489
vn -0.133302 -0.857167 0.497489
vn 0.000000 -0.857167 0.515038
vn -0.364187 -0.857167 0.364187
vn -0.364187 -0.857167 0.364187
vn -0.257519 -0.857167 0.446036
vn -0.497489 -0.857167 0.133302
vn -0.497489 -0.857167 0.133302
vn -0.446036 -0.857167 0.257519
vn -0.497489 -0.857167 -0.133302
vn -0.497489 -0.857167 -0.133302
vn -0.515038 -0.857167 0.000000
vn -0.364187 -0.857167 -0.364187
vn -0.364187 -0.857167 -0.364187
vn -0.446036 -0.857167 -0.257519
vn -0.133302 -0.857167 -0.497489
vn -0.133302 -0.857167 -0.497489
vn -0.257519 -0.857167 -0.446036
vn 0.133302 -0.857167 -0.497489
vn 0.133302 -0.857167 -0.497489
vn 0.000000 -0.857167 -0.515038
vn 0.364187 -0.857167 -0.364187
vn 0.364187 -0.857167 -0.364187
vn 0.257519 -0.857167 -0.446036
vn 0.497489 -0.857167 -0.133302
vn 0.497489 -0.857167 -0.133302
vn 0.446036 -0.857167 -0.257519
vn 0.497489 -0.857167 0.133302
vn 0.497489 -0.857167 0.133302
vn 0.515038 -0.857167 0.000000
vn 0.364187 -0.857167 0.364187
vn 0.364187 -0.857167 0.364187
vn 0.446036 -0.857167 0.257519
vn 0.133302 -0.857167 0.497489
vn 0.133302 -0.857167 0.497489
vn 0.257519 -0.857167 0.446036
vn -0.000000 -0.857167 -0.515038
vn -0.446036 -0.857167 0.257519
vn 0.446036 -0.857167 0.257519
vn -0.257519 -0.857167 -0.446036
vn -0.446036 -0.857167 -0.257519
vn -0.515038 -0.857167 0.000000
vn -0.257519 -0.857167 0.446036
vn -0.000000 -0.857167 0.515038
vn 0.257519 -0.857167 0.446036
vn 0.515038 -0.857167 0.000000
vn 0.446036 -0.857167 -0.257519
vn 0.257519 -0.857167 -0.446036
vn -0.000000 -1.000000 -0.000000
vn -0.000000 -1.000000 -0.000000
vn -0.000000 -1.000000 -0.000000
vn -0.000000 -1.000000 -0.000000
vn -0.000000 -1.000000 -0.000000
vn -0.000000 -1.000000 -0.000000
vn -0.000000 -1.000000 -0.000000
vn -0.000000 -1.000000 -0.000000
vn -0.000000 -1.000000 -0.000000
vn -0.000000 -1.000000 -0.000000
vn -0.000000 -1.000000 -0.000000
vn -0.000000 -1.000000 -0.000000
vn -0.000000 -1.000000 -0.000000
vn -0.000000 -1.000000 -0.000000
vn -0.000000 -1.000000 -0.000000
vn -0.000000 -1.000000 -0.000000
vn -0.000000 -1.000000 -0.000000
vn -0.000000 -1.000000 -0.000000
vn -0.000000 -1.000000 -0.000000
vn -0.000000 -1.000000 -0.000000
vn -0.000000 -1.000000 -0.000000
vn -0.000000 -1.000000 -0.000000
vn -0.000000 -1.000000 -0.000000
vn -0.000000 -1.000000 -0.000000
vn -0.000000 -1.000000 -0.000000
vn -0.000000 -1.000000 -0.000000
vn -0.000000 -1.000000 -0.000000
vn -0.000000 -1.000000 -0.000000
vn -0.000000 -1.000000 -0.000000
vn -0.000000 -1.000000 -0.000000
vn -0.000000 -1.000000 -0.000000
vn -0.000000 -1.000000 -0.000000
vn -0.000000 -1.000000 -0.000000
vn -0.000000 -1.000000 -0.000000
vn -0.000000 -1.000000 -0.000000
vn -0.000000 -1.000000 -0.000000
vn -0.000000 -1.000000 -0.000000
vn -0.000000 -1.000000 -0.000000
vn -0.000000 -1.000000 -0.000000
vn -0.000000 -1.000000 -0.000000
vn -0.000000 -1.000000 -0.000000
vn -0.000000 -1.000000 -0.000000
vn -0.000000 -1.000000 -0.000000
vn -0.000000 -1.000000 -0.000000
vn -0.000000 -1.000000 -0.000000
vn -0.000000 -1.000000 -0.000000
vn -0.000000 -1.000000 -0.000000
vn -0.000000 -1.000000 -0.000000
vn -0.258819 0.000000 0.965926
vn -0.258819 0.000000 0.965926
vn 0.000000 -0.000000 1.000000
vn 0.000000 -0.000000 1.000000
vn 0.258819 -0.000000 0.965926
vn 0.258819 -0.000000 0.965926
vn 0.500000 -0.000000 0.866025
vn 0.500000 -0.000000 0.866025
vn 0.707107 -0.000000 0.707107
vn 0.707107 -0.000000 0.707107
vn 0.866025 -0.000000 0.500000
vn 0.866025 -0.000000 0.500000
vn 0.965926 -0.000000 0.258819
vn 0.965926 -0.000000 0.258819
vn 1.000000 -0.000000 0.000000
vn 1.000000 -0.000000 0.000000
vn 0.965926 0.000000 -0.258819
vn 0.965926 0.000000 -0.258819
vn 0.866025 0.000000 -0.500000
vn 0.866025 0.000000 -0.500000
vn 0.707107 0.000000 -0.707107
vn 0.707107 0.000000 -0.707107
vn 0.500000 0.000000 -0.866025
vn 0.500000 0.000000 -0.866025
vn 0.258819 0.000000 -0.965926
vn 0.258819 0.000000 -0.965926
vn 0.000000 0.000000 -1.000000
vn 0.000000 0.000000 -1.000000
vn -0.258819 0.000000 -0.965926
vn -0.258819 0.000000 -0.965926
vn -0.500000 0.000000 -0.866025
vn -0.500000 0.000000 -0.866025
vn -0.707107 0.000000 -0.707107
vn -0.707107 0.000000 -0.707107
vn -0.866025 0.000000 -0.500000
vn -0.866025 0.000000 -0.500000
vn -0.965926 0.000000 -0.258819
vn -0.965926 0.000000 -0.258819
vn -1.000000 0.000000 0.000000
vn -1.000000 0.000000 0.000000
vn -0.965926 0.000000 0.258819
vn -0.965926 0.000000 0.258819
vn -0.866025 0.000000 0.500000
vn -0.866025 0.000000 0.500000
vn -0.707107 0.000000 0.707107
vn -0.707107 0.000000 0.707107
vn -0.500000 0.000000 0.866025
vn -0.500000 0.000000 0.866025
vn 0.258819 0.000000 -0.965926
vn 0.258819 0.000000 -0.965926
vn 0.000000 0.000000 -1.000000
vn 0.000000 0.000000 -1.000000
vn -0.258819 0.000000 -0.965926
vn -0.258819 0.000000 -0.965926
vn -0.500000 0.000000 -0.866025
vn -0.500000 0.000000 -0.866025
vn -0.707107 0.000000 -0.707107
vn -0.707107 0.000000 -0.707107
vn -0.866025 0.000000 -0.500000
vn -0.866025 0.000000 -0.500000
vn -0.965926 0.000000 -0.258819
vn -0.965926 0.000000 -0.258819
vn -1.000000 0.000000 0.000000
vn -1.000000 0.000000 0.000000
vn -0.965926 0.000000 0.258819
vn -0.965926 0.000000 0.258819
vn -0.866025 0.000000 0.500000
vn -0.866025 0.000000 0.500000
vn -0.707107 0.000000 0.707107
vn -0.707107 0.000000 0.707107
vn -0.500000 0.000000 0.866025
vn -0.500000 0.000000 0.866025
vn -0.258819 0.000000 0.965926
vn -0.258819 0.000000 0.965926
vn 0.000000 -0.000000 1.000000
vn 0.000000 -0.000000 1.000000
vn 0.258819 -0.000000 0.965926
vn 0.258819 -0.000000 0.965926
vn 0.500000 -0.000000 0.866025
vn 0.500000 -0.000000 0.866025
vn 0.707107 -0.000000 0.707107
vn 0.707107 -0.000000 0.707107
vn 0.866025 -0.000000 0.500000
vn 0.866025 -0.000000 0.500000
vn 0.965926 -0.000000 0.258819
vn 0.965926 -0.000000 0.258819
vn 1.000000 -0.000000 0.000000
vn 1.000000 -0.000000 0.000000
vn 0.965926 0.000000 -0.258819
vn 0.965926 0.000000 -0.258819
vn 0.866025 0.000000 -0.500000
vn 0.866025 0.000000 -0.500000
vn 0.707107 0.000000 -0.707107
vn 0.707107 0.000000 -0.707107
vn 0.500000 0.000000 -0.866025
vn 0.500000 0.000000 -0.866025
vn 1.000000 0.000000 -0.000000
vn 1.000000 0.000000 -0.000000
vn 1.000000 0.000000 -0.000000
vn 1.000000 0.000000 -0.000000
vn -1.000000 0.000000 0.000000
vn -1.000000 0.000000 0.000000
vn -1.000000 0.000000 0.000000
vn -1.000000 0.000000 0.000000
vn 0.000000 1.000000 -0.000000
vn 0.000000 1.000000 -0.000000
vn 0.000000 1.000000 -0.000000
vn 0.000000 1.000000 -0.000000
vn 0.000000 1.000000 -0.000000
vn 0.000000 1.000000 -0.000000
vn 0.000000 1.000000 -0.000000
vn 0.000000 1.000000 -0.000000
vn 0.000000 1.000000 -0.000000
vn 0.000000 1.000000 -0.000000
vn 0.000000 1.000000 -0.000000
vn 0.000000 1.000000 -0.000000
vn 0.000000 1.000000 -0.000000
vn 0.000000 1.000000 -0.000000
vn 0.000000 1.000000 -0.000000
vn 0.000000 1.000000 -0.000000
vn -1.000000 0.000000 0.000000
vn -1.000000 0.000000 0.000000
vn -1.000000 0.000000 0.000000
vn -1.000000 0.000000 0.000000
vn 0.000000 -1.000000 0.000000
vn 0.000000 -1.000000 0.000000
vn 0.000000 -1.000000 0.000000
vn 0.000000 -1.000000 0.000000
vn -0.000000 -0.000000 -1.000000
vn -0.000000 -0.000000 -1.000000
vn -0.000000 -0.000000 -1.000000
vn -0.000000 -0.000000 -1.000000
vn -0.000000 -0.000000 -1.000000
vn -0.000000 -0.000000 -1.000000
vn -0.000000 -0.000000 -1.000000
vn -0.000000 -0.000000 -1.000000
vn -0.000000 -0.000000 -1.000000
vn -0.000000 -0.000000 -1.000000
vn -0.000000 -0.000000 -1.000000
vn -0.000000 -0.000000 -1.000000
usemtl Powder_Coat_-_Rough_(Red)
f 2/1/1 3/2/2 1/3/3
f 1/3/3 3/2/2 4/4/4
f 1/5/5 5/6/6 2/7/7
f 2/7/7 5/6/6 6/8/8
f 2/7/7 6/8/8 14/9/9
f 14/9/9 6/8/8 7/10/10
f 14/9/9 7/10/10 8/11/11
f 14/9/9 8/11/11 13/12/12
f 13/12/12 8/11/11 9/13/13
f 13/12/12 9/13/13 12/14/14
f 12/14/14 9/13/13 11/15/15
f 11/15/15 9/13/13 10/16/16
f 4/17/17 15/18/18 1/19/19
f 1/19/19 15/18/18 5/20/20
f 5/21/21 15/22/22 6/23/23
f 6/23/23 15/22/22 16/24/24
f 9/25/25 17/26/26 10/27/27
f 10/27/27 17/26/26 18/28/28
f 18/29/29 19/30/30 10/31/31
f 10/31/31 19/30/30 11/32/32
f 11/33/33 19/34/34 12/35/35
f 12/35/35 19/34/34 20/36/36
f 34/37/37 21/38/38 33/39/39
f 33/39/39 21/38/38 22/40/40
f 33/39/39 22/40/40 32/41/41
f 32/41/41 22/40/40 23/42/42
f 32/41/41 23/42/42 31/43/43
f 31/43/43 23/42/42 24/44/44
f 31/43/43 24/44/44 30/45/45
f 30/45/45 24/44/44 25/46/46
f 30/45/45 25/46/46 29/47/47
f 29/47/47 25/46/46 26/48/48
f 29/47/47 26/48/48 28/49/49
f 28/49/49 26/48/48 27/50/50
f 27/51/50 35/52/51 28/53/49
f 28/53/49 35/52/51 36/54/52
f 60/55/53 37/56/54 7/57/55
f 7/57/55 37/56/54 38/58/56
f 7/57/55 38/58/56 84/59/57
f 84/59/57 38/58/56 83/60/58
f 83/60/58 38/58/56 39/61/59
f 83/60/58 39/61/59 82/62/60
f 82/62/60 39/61/59 40/63/61
f 82/62/60 40/63/61 81/64/62
f 81/64/62 40/63/61 41/65/63
f 81/64/62 41/65/63 80/66/64
f 80/66/64 41/65/63 42/67/65
f 80/66/64 42/67/65 79/68/66
f 79/68/66 42/67/65 43/69/67
f 79/68/66 43/69/67 78/70/68
f 78/70/68 43/69/67 44/71/69
f 78/70/68 44/71/69 77/72/70
f 77/72/70 44/71/69 45/73/71
f 77/72/70 45/73/71 76/74/72
f 76/74/72 45/73/71 46/75/73
f 76/74/72 46/75/73 75/76/74
f 75/76/74 46/75/73 47/77/75
f 75/76/74 47/77/75 74/78/76
f 74/78/76 47/77/75 48/79/77
f 74/78/76 48/79/77 27/80/78
f 27/80/78 48/79/77 35/81/79
f 35/81/79 48/79/77 49/82/80
f 35/81/79 49/82/80 85/83/81
f 85/83/81 49/82/80 50/84/82
f 85/83/81 50/84/82 51/85/83
f 51/85/83 52/86/84 85/83/81
f 85/83/81 52/86/84 53/87/85
f 85/83/81 53/87/85 54/88/86
f 54/88/86 55/89/87 85/83/81
f 85/83/81 55/89/87 56/90/88
f 85/83/81 56/90/88 7/57/55
f 7/57/55 56/90/88 57/91/89
f 7/57/55 57/91/89 58/92/90
f 58/92/90 59/93/91 7/57/55
f 7/57/55 59/93/91 60/55/53
f 84/59/57 61/94/92 8/95/93
f 8/95/93 61/94/92 62/96/94
f 8/95/93 62/96/94 63/97/95
f 63/97/95 64/98/96 8/95/93
f 8/95/93 64/98/96 65/99/97
f 8/95/93 65/99/97 66/100/98
f 8/95/93 66/100/98 21/101/99
f 21/101/99 66/100/98 67/102/100
f 21/101/99 67/102/100 68/103/101
f 68/103/101 69/104/102 21/101/99
f 21/101/99 69/104/102 70/105/103
f 21/101/99 70/105/103 71/106/104
f 71/106/104 72/107/105 21/101/99
f 21/101/99 72/107/105 73/108/106
f 21/101/99 73/108/106 27/80/78
f 27/80/78 73/108/106 74/78/76
f 7/57/55 84/59/57 8/95/93
f 26/109/107 25/110/108 27/80/78
f 27/80/78 25/110/108 24/111/109
f 27/80/78 24/111/109 23/112/110
f 23/112/110 22/113/111 27/80/78
f 27/80/78 22/113/111 21/101/99
f 85/83/81 86/114/112 35/81/79
f 35/81/79 86/114/112 87/115/113
f 35/81/79 87/115/113 88/116/114
f 88/116/114 89/117/115 35/81/79
f 35/81/79 89/117/115 90/118/116
f 85/119/117 91/120/118 86/121/119
f 86/121/119 91/120/118 92/122/120
f 86/121/119 92/122/120 87/123/121
f 87/123/121 92/122/120 93/124/122
f 87/123/121 93/124/122 88/125/123
f 88/125/123 93/124/122 94/126/124
f 88/125/123 94/126/124 89/127/125
f 89/127/125 94/126/124 95/128/126
f 89/127/125 95/128/126 90/129/127
f 90/129/127 95/128/126 96/130/128
f 90/129/127 96/130/128 35/131/51
f 35/131/51 96/130/128 36/132/52
f 6/133/129 16/134/130 7/135/131
f 7/135/131 16/134/130 97/136/132
f 7/135/131 97/136/132 91/137/118
f 91/137/118 85/138/117 7/135/131
f 99/139/133 122/140/134 98/141/135
f 101/142/136 122/143/137 100/144/138
f 103/145/139 122/146/140 102/147/141
f 105/148/142 122/149/143 104/150/144
f 107/151/145 122/152/146 106/153/147
f 109/154/148 122/155/149 108/156/150
f 111/157/151 122/158/152 110/159/153
f 113/160/154 122/161/155 112/162/156
f 115/163/157 122/164/158 114/165/159
f 117/166/160 122/167/161 116/168/162
f 119/169/163 122/170/164 118/171/165
f 121/172/166 122/173/167 120/174/168
f 110/175/153 122/176/169 109/154/148
f 102/147/141 122/177/170 101/142/136
f 118/171/165 122/178/171 117/166/160
f 108/156/150 122/179/172 107/151/145
f 106/153/147 122/180/173 105/148/142
f 104/150/144 122/181/174 103/145/139
f 100/144/138 122/182/175 99/139/133
f 98/141/135 122/183/176 121/172/166
f 120/174/168 122/184/177 119/169/163
f 116/168/162 122/185/178 115/163/157
f 114/165/159 122/186/179 113/160/154
f 112/162/156 122/187/180 111/157/151
f 124/188/181 158/189/182 123/190/183
f 123/190/183 158/189/182 159/191/184
f 123/190/183 159/191/184 146/192/185
f 146/192/185 159/191/184 160/193/186
f 146/192/185 160/193/186 161/194/187
f 158/189/182 124/188/181 157/195/188
f 157/195/188 124/188/181 125/196/189
f 157/195/188 125/196/189 156/197/190
f 156/197/190 125/196/189 126/198/191
f 156/197/190 126/198/191 155/199/192
f 155/199/192 126/198/191 127/200/193
f 155/199/192 127/200/193 154/201/194
f 154/201/194 127/200/193 128/202/195
f 154/201/194 128/202/195 153/203/196
f 153/203/196 128/202/195 129/204/197
f 153/203/196 129/204/197 130/205/198
f 153/203/196 130/205/198 152/206/199
f 152/206/199 130/205/198 131/207/200
f 152/206/199 131/207/200 151/208/201
f 151/208/201 131/207/200 132/209/202
f 151/208/201 132/209/202 150/210/203
f 150/210/203 132/209/202 133/211/204
f 150/210/203 133/211/204 149/212/205
f 149/212/205 133/211/204 134/213/206
f 149/212/205 134/213/206 148/214/207
f 148/214/207 134/213/206 135/215/208
f 148/214/207 135/215/208 147/216/209
f 147/216/209 135/215/208 170/217/210
f 170/217/210 135/215/208 136/218/211
f 170/217/210 136/218/211 169/219/212
f 169/219/212 136/218/211 137/220/213
f 169/219/212 137/220/213 168/221/214
f 168/221/214 137/220/213 138/222/215
f 168/221/214 138/222/215 167/223/216
f 167/223/216 138/222/215 139/224/217
f 167/223/216 139/224/217 166/225/218
f 166/225/218 139/224/217 140/226/219
f 166/225/218 140/226/219 165/227/220
f 165/227/220 140/226/219 141/228/221
f 165/227/220 141/228/221 142/229/222
f 165/227/220 142/229/222 164/230/223
f 164/230/223 142/229/222 143/231/224
f 164/230/223 143/231/224 163/232/225
f 163/232/225 143/231/224 144/233/226
f 163/232/225 144/233/226 162/234/227
f 162/234/227 144/233/226 145/235/228
f 162/234/227 145/235/228 161/194/187
f 161/194/187 145/235/228 146/192/185
f 60/236/229 124/237/230 37/238/231
f 37/238/231 124/237/230 123/239/232
f 37/238/231 123/239/232 38/240/233
f 38/240/233 123/239/232 146/241/234
f 38/240/233 146/241/234 39/242/235
f 39/242/235 146/241/234 145/243/236
f 39/242/235 145/243/236 40/244/237
f 40/244/237 145/243/236 144/245/238
f 40/244/237 144/245/238 41/246/239
f 41/246/239 144/245/238 143/247/240
f 41/246/239 143/247/240 42/248/241
f 42/248/241 143/247/240 142/249/242
f 42/248/241 142/249/242 43/250/243
f 43/250/243 142/249/242 141/251/244
f 43/250/243 141/251/244 44/252/245
f 44/252/245 141/251/244 140/253/246
f 44/252/245 140/253/246 45/254/247
f 45/254/247 140/253/246 139/255/248
f 45/254/247 139/255/248 46/256/249
f 46/256/249 139/255/248 138/257/250
f 46/256/249 138/257/250 47/258/251
f 47/258/251 138/257/250 137/259/252
f 47/258/251 137/259/252 48/260/253
f 48/260/253 137/259/252 136/261/254
f 48/260/253 136/261/254 49/262/255
f 49/262/255 136/261/254 135/263/256
f 49/264/255 135/265/256 50/266/257
f 50/266/257 135/265/256 134/267/258
f 50/266/257 134/267/258 51/268/259
f 51/268/259 134/267/258 133/269/260
f 51/268/259 133/269/260 52/270/261
f 52/270/261 133/269/260 132/271/262
f 52/270/261 132/271/262 53/272/263
f 53/272/263 132/271/262 131/273/264
f 53/272/263 131/273/264 54/274/265
f 54/274/265 131/273/264 130/275/266
f 54/274/265 130/275/266 55/276/267
f 55/276/267 130/275/266 129/277/268
f 55/276/267 129/277/268 56/278/269
f 56/278/269 129/277/268 128/279/270
f 56/278/269 128/279/270 57/280/271
f 57/280/271 128/279/270 127/281/272
f 57/280/271 127/281/272 58/282/273
f 58/282/273 127/281/272 126/283/274
f 58/282/273 126/283/274 59/284/275
f 59/284/275 126/283/274 125/285/276
f 59/284/275 125/285/276 60/236/229
f 60/236/229 125/285/276 124/237/230
f 170/286/277 111/287/278 147/288/279
f 147/288/279 111/287/278 110/289/280
f 147/290/279 110/291/280 148/292/281
f 148/292/281 110/291/280 109/293/282
f 148/292/281 109/293/282 149/294/283
f 149/294/283 109/293/282 108/295/284
f 149/294/283 108/295/284 150/296/285
f 150/296/285 108/295/284 107/297/286
f 150/296/285 107/297/286 151/298/287
f 151/298/287 107/297/286 106/299/288
f 151/298/287 106/299/288 152/300/289
f 152/300/289 106/299/288 105/301/290
f 152/300/289 105/301/290 153/302/291
f 153/302/291 105/301/290 104/303/292
f 153/302/291 104/303/292 154/304/293
f 154/304/293 104/303/292 103/305/294
f 154/304/293 103/305/294 155/306/295
f 155/306/295 103/305/294 102/307/296
f 155/306/295 102/307/296 156/308/297
f 156/308/297 102/307/296 101/309/298
f 156/308/297 101/309/298 157/310/299
f 157/310/299 101/309/298 100/311/300
f 157/310/299 100/311/300 158/312/301
f 158/312/301 100/311/300 99/313/302
f 158/312/301 99/313/302 159/314/303
f 159/314/303 99/313/302 98/315/304
f 159/314/303 98/315/304 160/316/305
f 160/316/305 98/315/304 121/317/306
f 160/316/305 121/317/306 161/318/307
f 161/318/307 121/317/306 120/319/308
f 161/318/307 120/319/308 162/320/309
f 162/320/309 120/319/308 119/321/310
f 162/320/309 119/321/310 163/322/311
f 163/322/311 119/321/310 118/323/312
f 163/322/311 118/323/312 164/324/313
f 164/324/313 118/323/312 117/325/314
f 164/324/313 117/325/314 165/326/315
f 165/326/315 117/325/314 116/327/316
f 165/326/315 116/327/316 166/328/317
f 166/328/317 116/327/316 115/329/318
f 166/328/317 115/329/318 167/330/319
f 167/330/319 115/329/318 114/331/320
f 167/330/319 114/331/320 168/332/321
f 168/332/321 114/331/320 113/333/322
f 168/332/321 113/333/322 169/334/323
f 169/334/323 113/333/322 112/335/324
f 169/334/323 112/335/324 170/286/277
f 170/286/277 112/335/324 111/287/278
f 172/336/325 195/337/326 171/338/327
f 174/339/328 195/340/329 173/341/330
f 176/342/331 195/343/332 175/344/333
f 178/345/334 195/346/335 177/347/336
f 180/348/337 195/349/338 179/350/339
f 182/351/340 195/352/341 181/353/342
f 184/354/343 195/355/344 183/356/345
f 186/357/346 195/358/347 185/359/348
f 188/360/349 195/361/350 187/362/351
f 190/363/352 195/364/353 189/365/354
f 192/366/355 195/367/356 191/368/357
f 194/369/358 195/370/359 193/371/360
f 183/372/345 195/373/361 182/351/340
f 175/344/333 195/374/362 174/339/328
f 191/368/357 195/375/363 190/363/352
f 181/353/342 195/376/364 180/348/337
f 179/350/339 195/377/365 178/345/334
f 177/347/336 195/378/366 176/342/331
f 173/341/330 195/379/367 172/336/325
f 171/338/327 195/380/368 194/369/358
f 193/371/360 195/381/369 192/366/355
f 189/365/354 195/382/370 188/360/349
f 187/362/351 195/383/371 186/357/346
f 185/359/348 195/384/372 184/354/343
f 197/385/373 231/386/374 196/387/375
f 196/387/375 231/386/374 232/388/376
f 196/387/375 232/388/376 233/389/377
f 231/386/374 197/385/373 230/390/378
f 230/390/378 197/385/373 198/391/379
f 230/390/378 198/391/379 229/392/380
f 229/392/380 198/391/379 199/393/381
f 229/392/380 199/393/381 228/394/382
f 228/394/382 199/393/381 200/395/383
f 228/394/382 200/395/383 227/396/384
f 227/396/384 200/395/383 201/397/385
f 227/396/384 201/397/385 226/398/386
f 226/398/386 201/397/385 202/399/387
f 226/398/386 202/399/387 203/400/388
f 226/398/386 203/400/388 225/401/389
f 225/401/389 203/400/388 204/402/390
f 225/401/389 204/402/390 224/403/391
f 224/403/391 204/402/390 205/404/392
f 224/403/391 205/404/392 223/405/393
f 223/405/393 205/404/392 206/406/394
f 223/405/393 206/406/394 222/407/395
f 222/407/395 206/406/394 207/408/396
f 222/407/395 207/408/396 221/409/397
f 221/409/397 207/408/396 220/410/398
f 220/410/398 207/408/396 208/411/399
f 220/410/398 208/411/399 243/412/400
f 243/412/400 208/411/399 209/413/401
f 243/412/400 209/413/401 242/414/402
f 242/414/402 209/413/401 210/415/403
f 242/414/402 210/415/403 241/416/404
f 241/416/404 210/415/403 211/417/405
f 241/416/404 211/417/405 240/418/406
f 240/418/406 211/417/405 212/419/407
f 240/418/406 212/419/407 239/420/408
f 239/420/408 212/419/407 213/421/409
f 239/420/408 213/421/409 238/422/410
f 238/422/410 213/421/409 214/423/411
f 238/422/410 214/423/411 215/424/412
f 238/422/410 215/424/412 237/425/413
f 237/425/413 215/424/412 216/426/414
f 237/425/413 216/426/414 236/427/415
f 236/427/415 216/426/414 217/428/416
f 236/427/415 217/428/416 235/429/417
f 235/429/417 217/428/416 218/430/418
f 235/429/417 218/430/418 234/431/419
f 234/431/419 218/430/418 219/432/420
f 234/431/419 219/432/420 233/389/377
f 233/389/377 219/432/420 196/387/375
f 84/433/421 197/434/422 61/435/423
f 61/435/423 197/434/422 196/436/424
f 61/435/423 196/436/424 62/437/425
f 62/437/425 196/436/424 219/438/426
f 62/437/425 219/438/426 63/439/427
f 63/439/427 219/438/426 218/440/428
f 63/439/427 218/440/428 64/441/429
f 64/441/429 218/440/428 217/442/430
f 64/441/429 217/442/430 65/443/431
f 65/443/431 217/442/430 216/444/432
f 65/443/431 216/444/432 66/445/433
f 66/445/433 216/444/432 215/446/434
f 66/445/433 215/446/434 67/447/435
f 67/447/435 215/446/434 214/448/436
f 67/447/435 214/448/436 68/449/437
f 68/449/437 214/448/436 213/450/438
f 68/449/437 213/450/438 69/451/439
f 69/451/439 213/450/438 212/452/440
f 69/451/439 212/452/440 70/453/441
f 70/453/441 212/452/440 211/454/442
f 70/453/441 211/454/442 71/455/443
f 71/455/443 211/454/442 210/456/444
f 71/455/443 210/456/444 72/457/445
f 72/457/445 210/456/444 209/458/446
f 72/457/445 209/458/446 73/459/447
f 73/459/447 209/458/446 208/460/448
f 73/461/447 208/462/448 74/463/449
f 74/463/449 208/462/448 207/464/450
f 74/463/449 207/464/450 75/465/451
f 75/465/451 207/464/450 206/466/452
f 75/465/451 206/466/452 76/467/453
f 76/467/453 206/466/452 205/468/454
f 76/467/453 205/468/454 77/469/455
f 77/469/455 205/468/454 204/470/456
f 77/469/455 204/470/456 78/471/457
f 78/471/457 204/470/456 203/472/458
f 78/471/457 203/472/458 79/473/459
f 79/473/459 203/472/458 202/474/460
f 79/473/459 202/474/460 80/475/461
f 80/475/461 202/474/460 201/476/462
f 80/475/461 201/476/462 81/477/463
f 81/477/463 201/476/462 200/478/464
f 81/477/463 200/478/464 82/479/465
f 82/479/465 200/478/464 199/480/466
f 82/479/465 199/480/466 83/481/467
f 83/481/467 199/480/466 198/482/468
f 83/481/467 198/482/468 84/433/421
f 84/433/421 198/482/468 197/434/422
f 243/483/469 184/484/470 220/485/471
f 220/485/471 184/484/470 183/486/472
f 220/487/471 183/488/472 221/489/473
f 221/489/473 183/488/472 182/490/474
f 221/489/473 182/490/474 222/491/475
f 222/491/475 182/490/474 181/492/476
f 222/491/475 181/492/476 223/493/477
f 223/493/477 181/492/476 180/494/478
f 223/493/477 180/494/478 224/495/479
f 224/495/479 180/494/478 179/496/480
f 224/495/479 179/496/480 225/497/481
f 225/497/481 179/496/480 178/498/482
f 225/497/481 178/498/482 226/499/483
f 226/499/483 178/498/482 177/500/484
f 226/499/483 177/500/484 227/501/485
f 227/501/485 177/500/484 176/502/486
f 227/501/485 176/502/486 228/503/487
f 228/503/487 176/502/486 175/504/488
f 228/503/487 175/504/488 229/505/489
f 229/505/489 175/504/488 174/506/490
f 229/505/489 174/506/490 230/507/491
f 230/507/491 174/506/490 173/508/492
f 230/507/491 173/508/492 231/509/493
f 231/509/493 173/508/492 172/510/494
f 231/509/493 172/510/494 232/511/495
f 232/511/495 172/510/494 171/512/496
f 232/511/495 171/512/496 233/513/497
f 233/513/497 171/512/496 194/514/498
f 233/513/497 194/514/498 234/515/499
f 234/515/499 194/514/498 193/516/500
f 234/515/499 193/516/500 235/517/501
f 235/517/501 193/516/500 192/518/502
f 235/517/501 192/518/502 236/519/503
f 236/519/503 192/518/502 191/520/504
f 236/519/503 191/520/504 237/521/505
f 237/521/505 191/520/504 190/522/506
f 237/521/505 190/522/506 238/523/507
f 238/523/507 190/522/506 189/524/508
f 238/523/507 189/524/508 239/525/509
f 239/525/509 189/524/508 188/526/510
f 239/525/509 188/526/510 240/527/511
f 240/527/511 188/526/510 187/528/512
f 240/527/511 187/528/512 241/529/513
f 241/529/513 187/528/512 186/530/514
f 241/529/513 186/530/514 242/531/515
f 242/531/515 186/530/514 185/532/516
f 242/531/515 185/532/516 243/483/469
f 243/483/469 185/532/516 184/484/470
f 20/533/517 244/534/518 12/535/519
f 12/535/519 244/534/518 13/536/520
f 9/537/521 8/538/522 17/539/523
f 17/539/523 8/538/522 245/540/524
f 245/540/524 8/538/522 34/541/37
f 34/541/37 8/538/522 21/542/38
f 33/543/525 28/544/526 34/545/527
f 34/545/527 28/544/526 36/546/528
f 34/545/527 36/546/528 91/547/529
f 91/547/529 36/546/528 92/548/530
f 92/548/530 36/546/528 93/549/531
f 93/549/531 36/546/528 94/550/532
f 94/550/532 36/546/528 95/551/533
f 95/551/533 36/546/528 96/552/534
f 33/543/525 32/553/535 28/544/526
f 28/544/526 32/553/535 31/554/536
f 28/544/526 31/554/536 30/555/537
f 30/555/537 29/556/538 28/544/526
f 97/557/539 245/558/540 91/547/529
f 91/547/529 245/558/540 34/545/527
f 2/559/541 14/560/542 3/561/543
f 3/561/543 14/560/542 246/562/544
f 244/563/545 246/564/546 13/565/547
f 13/565/547 246/564/546 14/566/548
f 15/567/549 4/568/550 16/569/551
f 16/569/551 4/568/550 3/570/552
f 16/569/551 3/570/552 246/571/553
f 16/569/551 246/571/553 97/572/554
f 97/572/554 246/571/553 244/573/555
f 97/572/554 244/573/555 245/574/556
f 245/574/556 244/573/555 17/575/557
f 17/575/557 244/573/555 20/576/558
f 17/575/557 20/576/558 18/577/559
f 18/577/559 20/576/558 19/578/560
# 246 vertices
# 578 texture params
# 560 normals
# 488 facets

# 1 groups
