ISO-10303-21;
HEADER;
/* Generated by software containing ST-Developer
 * from STEP Tools, Inc. (www.steptools.com) 
 */

FILE_DESCRIPTION(
/* description */ (''),
/* implementation_level */ '2;1');

FILE_NAME(
/* name */ 'Model.step',
/* time_stamp */ '2026-08-19T00:57:24+05:30',
/* author */ (''),
/* organization */ (''),
/* preprocessor_version */ 'ST-DEVELOPER v20.1',
/* originating_system */ 'Autodesk Translation Framework v15.8.0.0',
/* authorisation */ '');

FILE_SCHEMA (('AUTOMOTIVE_DESIGN { 1 0 10303 214 3 1 1 }'));
ENDSEC;

DATA;
#10=MECHANICAL_DESIGN_GEOMETRIC_PRESENTATION_REPRESENTATION('',(#13),#1008);
#11=SHAPE_REPRESENTATION_RELATIONSHIP('SRR','None',#1015,#12);
#12=ADVANCED_BREP_SHAPE_REPRESENTATION('',(#14),#1007);
#13=STYLED_ITEM('',(#1025),#14);
#14=MANIFOLD_SOLID_BREP('Body1',#564);
#15=FACE_BOUND('',#63,.T.);
#16=FACE_BOUND('',#66,.T.);
#17=FACE_BOUND('',#80,.T.);
#18=FACE_BOUND('',#85,.T.);
#19=PLANE('',#584);
#20=PLANE('',#588);
#21=PLANE('',#592);
#22=PLANE('',#596);
#23=PLANE('',#600);
#24=PLANE('',#604);
#25=PLANE('',#617);
#26=PLANE('',#628);
#27=PLANE('',#633);
#28=PLANE('',#648);
#29=FACE_OUTER_BOUND('',#60,.T.);
#30=FACE_OUTER_BOUND('',#61,.T.);
#31=FACE_OUTER_BOUND('',#62,.T.);
#32=FACE_OUTER_BOUND('',#64,.T.);
#33=FACE_OUTER_BOUND('',#65,.T.);
#34=FACE_OUTER_BOUND('',#67,.T.);
#35=FACE_OUTER_BOUND('',#68,.T.);
#36=FACE_OUTER_BOUND('',#69,.T.);
#37=FACE_OUTER_BOUND('',#70,.T.);
#38=FACE_OUTER_BOUND('',#71,.T.);
#39=FACE_OUTER_BOUND('',#72,.T.);
#40=FACE_OUTER_BOUND('',#73,.T.);
#41=FACE_OUTER_BOUND('',#74,.T.);
#42=FACE_OUTER_BOUND('',#75,.T.);
#43=FACE_OUTER_BOUND('',#76,.T.);
#44=FACE_OUTER_BOUND('',#77,.T.);
#45=FACE_OUTER_BOUND('',#78,.T.);
#46=FACE_OUTER_BOUND('',#79,.T.);
#47=FACE_OUTER_BOUND('',#81,.T.);
#48=FACE_OUTER_BOUND('',#82,.T.);
#49=FACE_OUTER_BOUND('',#83,.T.);
#50=FACE_OUTER_BOUND('',#84,.T.);
#51=FACE_OUTER_BOUND('',#86,.T.);
#52=FACE_OUTER_BOUND('',#87,.T.);
#53=FACE_OUTER_BOUND('',#88,.T.);
#54=FACE_OUTER_BOUND('',#89,.T.);
#55=FACE_OUTER_BOUND('',#90,.T.);
#56=FACE_OUTER_BOUND('',#91,.T.);
#57=FACE_OUTER_BOUND('',#92,.T.);
#58=FACE_OUTER_BOUND('',#93,.T.);
#59=FACE_OUTER_BOUND('',#94,.T.);
#60=EDGE_LOOP('',(#350,#351,#352,#353));
#61=EDGE_LOOP('',(#354,#355,#356,#357));
#62=EDGE_LOOP('',(#358));
#63=EDGE_LOOP('',(#359));
#64=EDGE_LOOP('',(#360,#361,#362,#363));
#65=EDGE_LOOP('',(#364));
#66=EDGE_LOOP('',(#365));
#67=EDGE_LOOP('',(#366,#367,#368,#369));
#68=EDGE_LOOP('',(#370,#371,#372,#373));
#69=EDGE_LOOP('',(#374,#375,#376,#377));
#70=EDGE_LOOP('',(#378,#379,#380,#381));
#71=EDGE_LOOP('',(#382,#383,#384,#385));
#72=EDGE_LOOP('',(#386,#387,#388,#389));
#73=EDGE_LOOP('',(#390,#391,#392,#393));
#74=EDGE_LOOP('',(#394,#395,#396,#397));
#75=EDGE_LOOP('',(#398,#399,#400,#401));
#76=EDGE_LOOP('',(#402,#403,#404,#405));
#77=EDGE_LOOP('',(#406,#407,#408,#409));
#78=EDGE_LOOP('',(#410,#411,#412,#413));
#79=EDGE_LOOP('',(#414,#415,#416,#417,#418,#419,#420,#421,#422,#423,#424,
#425,#426,#427,#428,#429,#430,#431,#432,#433,#434,#435,#436,#437));
#80=EDGE_LOOP('',(#438));
#81=EDGE_LOOP('',(#439,#440,#441,#442));
#82=EDGE_LOOP('',(#443,#444,#445,#446));
#83=EDGE_LOOP('',(#447,#448,#449,#450));
#84=EDGE_LOOP('',(#451,#452,#453,#454,#455,#456,#457,#458,#459,#460,#461,
#462,#463,#464,#465,#466,#467,#468,#469,#470,#471,#472,#473,#474));
#85=EDGE_LOOP('',(#475));
#86=EDGE_LOOP('',(#476,#477,#478,#479));
#87=EDGE_LOOP('',(#480,#481,#482,#483));
#88=EDGE_LOOP('',(#484,#485,#486,#487));
#89=EDGE_LOOP('',(#488,#489,#490,#491));
#90=EDGE_LOOP('',(#492,#493,#494,#495));
#91=EDGE_LOOP('',(#496,#497,#498,#499));
#92=EDGE_LOOP('',(#500,#501,#502,#503));
#93=EDGE_LOOP('',(#504,#505,#506,#507));
#94=EDGE_LOOP('',(#508,#509,#510,#511));
#95=LINE('',#843,#134);
#96=LINE('',#849,#135);
#97=LINE('',#856,#136);
#98=LINE('',#864,#137);
#99=LINE('',#867,#138);
#100=LINE('',#870,#139);
#101=LINE('',#872,#140);
#102=LINE('',#873,#141);
#103=LINE('',#879,#142);
#104=LINE('',#882,#143);
#105=LINE('',#885,#144);
#106=LINE('',#887,#145);
#107=LINE('',#888,#146);
#108=LINE('',#894,#147);
#109=LINE('',#897,#148);
#110=LINE('',#900,#149);
#111=LINE('',#902,#150);
#112=LINE('',#903,#151);
#113=LINE('',#909,#152);
#114=LINE('',#912,#153);
#115=LINE('',#915,#154);
#116=LINE('',#917,#155);
#117=LINE('',#918,#156);
#118=LINE('',#924,#157);
#119=LINE('',#927,#158);
#120=LINE('',#932,#159);
#121=LINE('',#939,#160);
#122=LINE('',#942,#161);
#123=LINE('',#947,#162);
#124=LINE('',#954,#163);
#125=LINE('',#957,#164);
#126=LINE('',#970,#165);
#127=LINE('',#971,#166);
#128=LINE('',#975,#167);
#129=LINE('',#984,#168);
#130=LINE('',#993,#169);
#131=LINE('',#996,#170);
#132=LINE('',#999,#171);
#133=LINE('',#1002,#172);
#134=VECTOR('',#657,3.);
#135=VECTOR('',#664,6.);
#136=VECTOR('',#673,6.);
#137=VECTOR('',#682,10.);
#138=VECTOR('',#685,10.);
#139=VECTOR('',#688,10.);
#140=VECTOR('',#689,10.);
#141=VECTOR('',#690,10.);
#142=VECTOR('',#695,10.);
#143=VECTOR('',#698,10.);
#144=VECTOR('',#701,10.);
#145=VECTOR('',#702,10.);
#146=VECTOR('',#703,10.);
#147=VECTOR('',#708,10.);
#148=VECTOR('',#711,10.);
#149=VECTOR('',#714,10.);
#150=VECTOR('',#715,10.);
#151=VECTOR('',#716,10.);
#152=VECTOR('',#721,10.);
#153=VECTOR('',#724,10.);
#154=VECTOR('',#727,10.);
#155=VECTOR('',#728,10.);
#156=VECTOR('',#729,10.);
#157=VECTOR('',#734,10.);
#158=VECTOR('',#737,10.);
#159=VECTOR('',#742,10.);
#160=VECTOR('',#749,10.);
#161=VECTOR('',#752,10.);
#162=VECTOR('',#757,10.);
#163=VECTOR('',#766,10.);
#164=VECTOR('',#769,10.);
#165=VECTOR('',#786,10.);
#166=VECTOR('',#787,10.);
#167=VECTOR('',#792,10.);
#168=VECTOR('',#805,10.);
#169=VECTOR('',#818,10.);
#170=VECTOR('',#823,10.);
#171=VECTOR('',#828,10.);
#172=VECTOR('',#833,10.);
#173=CIRCLE('',#579,3.);
#174=CIRCLE('',#580,3.);
#175=CIRCLE('',#582,6.);
#176=CIRCLE('',#583,6.);
#177=CIRCLE('',#586,6.);
#178=CIRCLE('',#587,6.);
#179=CIRCLE('',#590,0.5);
#180=CIRCLE('',#591,0.5);
#181=CIRCLE('',#594,0.5);
#182=CIRCLE('',#595,0.5);
#183=CIRCLE('',#598,0.5);
#184=CIRCLE('',#599,0.5);
#185=CIRCLE('',#602,0.5);
#186=CIRCLE('',#603,0.5);
#187=CIRCLE('',#606,0.5);
#188=CIRCLE('',#607,0.5);
#189=CIRCLE('',#609,23.);
#190=CIRCLE('',#610,23.);
#191=CIRCLE('',#612,0.5);
#192=CIRCLE('',#613,0.5);
#193=CIRCLE('',#615,23.);
#194=CIRCLE('',#616,23.);
#195=CIRCLE('',#618,23.);
#196=CIRCLE('',#619,0.499999999999995);
#197=CIRCLE('',#620,0.499999999999995);
#198=CIRCLE('',#621,0.499999999999995);
#199=CIRCLE('',#622,23.);
#200=CIRCLE('',#623,0.499999999999996);
#201=CIRCLE('',#624,23.);
#202=CIRCLE('',#625,0.499999999999995);
#203=CIRCLE('',#626,23.);
#204=CIRCLE('',#627,0.499999999999995);
#205=CIRCLE('',#630,0.499999999999995);
#206=CIRCLE('',#632,23.);
#207=CIRCLE('',#634,0.499999999999996);
#208=CIRCLE('',#635,23.);
#209=CIRCLE('',#636,0.499999999999995);
#210=CIRCLE('',#637,0.499999999999995);
#211=CIRCLE('',#638,0.499999999999995);
#212=CIRCLE('',#639,23.);
#213=CIRCLE('',#640,0.499999999999995);
#214=CIRCLE('',#641,23.);
#215=VERTEX_POINT('',#840);
#216=VERTEX_POINT('',#842);
#217=VERTEX_POINT('',#846);
#218=VERTEX_POINT('',#848);
#219=VERTEX_POINT('',#853);
#220=VERTEX_POINT('',#855);
#221=VERTEX_POINT('',#860);
#222=VERTEX_POINT('',#861);
#223=VERTEX_POINT('',#863);
#224=VERTEX_POINT('',#865);
#225=VERTEX_POINT('',#869);
#226=VERTEX_POINT('',#871);
#227=VERTEX_POINT('',#875);
#228=VERTEX_POINT('',#876);
#229=VERTEX_POINT('',#878);
#230=VERTEX_POINT('',#880);
#231=VERTEX_POINT('',#884);
#232=VERTEX_POINT('',#886);
#233=VERTEX_POINT('',#890);
#234=VERTEX_POINT('',#891);
#235=VERTEX_POINT('',#893);
#236=VERTEX_POINT('',#895);
#237=VERTEX_POINT('',#899);
#238=VERTEX_POINT('',#901);
#239=VERTEX_POINT('',#905);
#240=VERTEX_POINT('',#906);
#241=VERTEX_POINT('',#908);
#242=VERTEX_POINT('',#910);
#243=VERTEX_POINT('',#914);
#244=VERTEX_POINT('',#916);
#245=VERTEX_POINT('',#920);
#246=VERTEX_POINT('',#921);
#247=VERTEX_POINT('',#923);
#248=VERTEX_POINT('',#925);
#249=VERTEX_POINT('',#929);
#250=VERTEX_POINT('',#931);
#251=VERTEX_POINT('',#935);
#252=VERTEX_POINT('',#936);
#253=VERTEX_POINT('',#938);
#254=VERTEX_POINT('',#940);
#255=VERTEX_POINT('',#944);
#256=VERTEX_POINT('',#946);
#257=VERTEX_POINT('',#950);
#258=VERTEX_POINT('',#952);
#259=VERTEX_POINT('',#955);
#260=VERTEX_POINT('',#959);
#261=VERTEX_POINT('',#962);
#262=VERTEX_POINT('',#965);
#263=VERTEX_POINT('',#969);
#264=VERTEX_POINT('',#973);
#265=VERTEX_POINT('',#979);
#266=VERTEX_POINT('',#983);
#267=VERTEX_POINT('',#986);
#268=VERTEX_POINT('',#989);
#269=EDGE_CURVE('',#215,#215,#173,.T.);
#270=EDGE_CURVE('',#215,#216,#95,.T.);
#271=EDGE_CURVE('',#216,#216,#174,.T.);
#272=EDGE_CURVE('',#217,#217,#175,.T.);
#273=EDGE_CURVE('',#217,#218,#96,.T.);
#274=EDGE_CURVE('',#218,#218,#176,.T.);
#275=EDGE_CURVE('',#219,#219,#177,.T.);
#276=EDGE_CURVE('',#219,#220,#97,.T.);
#277=EDGE_CURVE('',#220,#220,#178,.T.);
#278=EDGE_CURVE('',#221,#222,#179,.T.);
#279=EDGE_CURVE('',#222,#223,#98,.T.);
#280=EDGE_CURVE('',#223,#224,#180,.T.);
#281=EDGE_CURVE('',#224,#221,#99,.T.);
#282=EDGE_CURVE('',#225,#222,#100,.T.);
#283=EDGE_CURVE('',#226,#225,#101,.T.);
#284=EDGE_CURVE('',#223,#226,#102,.T.);
#285=EDGE_CURVE('',#227,#228,#181,.T.);
#286=EDGE_CURVE('',#228,#229,#103,.T.);
#287=EDGE_CURVE('',#229,#230,#182,.T.);
#288=EDGE_CURVE('',#230,#227,#104,.T.);
#289=EDGE_CURVE('',#231,#228,#105,.T.);
#290=EDGE_CURVE('',#232,#231,#106,.T.);
#291=EDGE_CURVE('',#229,#232,#107,.T.);
#292=EDGE_CURVE('',#233,#234,#183,.T.);
#293=EDGE_CURVE('',#234,#235,#108,.T.);
#294=EDGE_CURVE('',#235,#236,#184,.T.);
#295=EDGE_CURVE('',#236,#233,#109,.T.);
#296=EDGE_CURVE('',#237,#234,#110,.T.);
#297=EDGE_CURVE('',#238,#237,#111,.T.);
#298=EDGE_CURVE('',#235,#238,#112,.T.);
#299=EDGE_CURVE('',#239,#240,#185,.T.);
#300=EDGE_CURVE('',#240,#241,#113,.T.);
#301=EDGE_CURVE('',#241,#242,#186,.T.);
#302=EDGE_CURVE('',#242,#239,#114,.T.);
#303=EDGE_CURVE('',#243,#240,#115,.T.);
#304=EDGE_CURVE('',#244,#243,#116,.T.);
#305=EDGE_CURVE('',#241,#244,#117,.T.);
#306=EDGE_CURVE('',#245,#246,#187,.T.);
#307=EDGE_CURVE('',#246,#247,#118,.T.);
#308=EDGE_CURVE('',#247,#248,#188,.T.);
#309=EDGE_CURVE('',#248,#245,#119,.T.);
#310=EDGE_CURVE('',#246,#249,#189,.T.);
#311=EDGE_CURVE('',#249,#250,#120,.T.);
#312=EDGE_CURVE('',#247,#250,#190,.T.);
#313=EDGE_CURVE('',#251,#252,#191,.T.);
#314=EDGE_CURVE('',#252,#253,#121,.T.);
#315=EDGE_CURVE('',#253,#254,#192,.T.);
#316=EDGE_CURVE('',#254,#251,#122,.T.);
#317=EDGE_CURVE('',#252,#255,#193,.T.);
#318=EDGE_CURVE('',#255,#256,#123,.T.);
#319=EDGE_CURVE('',#253,#256,#194,.T.);
#320=EDGE_CURVE('',#221,#257,#195,.T.);
#321=EDGE_CURVE('',#257,#258,#196,.T.);
#322=EDGE_CURVE('',#258,#254,#124,.T.);
#323=EDGE_CURVE('',#256,#259,#197,.T.);
#324=EDGE_CURVE('',#259,#248,#125,.T.);
#325=EDGE_CURVE('',#250,#243,#198,.T.);
#326=EDGE_CURVE('',#239,#260,#199,.T.);
#327=EDGE_CURVE('',#260,#237,#200,.T.);
#328=EDGE_CURVE('',#233,#261,#201,.T.);
#329=EDGE_CURVE('',#261,#231,#202,.T.);
#330=EDGE_CURVE('',#227,#262,#203,.T.);
#331=EDGE_CURVE('',#262,#225,#204,.T.);
#332=EDGE_CURVE('',#263,#258,#126,.T.);
#333=EDGE_CURVE('',#251,#263,#127,.T.);
#334=EDGE_CURVE('',#264,#263,#205,.T.);
#335=EDGE_CURVE('',#264,#257,#128,.T.);
#336=EDGE_CURVE('',#224,#264,#206,.T.);
#337=EDGE_CURVE('',#265,#238,#207,.T.);
#338=EDGE_CURVE('',#242,#265,#208,.T.);
#339=EDGE_CURVE('',#249,#244,#209,.T.);
#340=EDGE_CURVE('',#245,#266,#129,.T.);
#341=EDGE_CURVE('',#255,#266,#210,.T.);
#342=EDGE_CURVE('',#267,#226,#211,.T.);
#343=EDGE_CURVE('',#230,#267,#212,.T.);
#344=EDGE_CURVE('',#268,#232,#213,.T.);
#345=EDGE_CURVE('',#236,#268,#214,.T.);
#346=EDGE_CURVE('',#267,#262,#130,.T.);
#347=EDGE_CURVE('',#268,#261,#131,.T.);
#348=EDGE_CURVE('',#265,#260,#132,.T.);
#349=EDGE_CURVE('',#266,#259,#133,.T.);
#350=ORIENTED_EDGE('',*,*,#269,.F.);
#351=ORIENTED_EDGE('',*,*,#270,.T.);
#352=ORIENTED_EDGE('',*,*,#271,.F.);
#353=ORIENTED_EDGE('',*,*,#270,.F.);
#354=ORIENTED_EDGE('',*,*,#272,.F.);
#355=ORIENTED_EDGE('',*,*,#273,.T.);
#356=ORIENTED_EDGE('',*,*,#274,.T.);
#357=ORIENTED_EDGE('',*,*,#273,.F.);
#358=ORIENTED_EDGE('',*,*,#274,.F.);
#359=ORIENTED_EDGE('',*,*,#271,.T.);
#360=ORIENTED_EDGE('',*,*,#275,.F.);
#361=ORIENTED_EDGE('',*,*,#276,.T.);
#362=ORIENTED_EDGE('',*,*,#277,.F.);
#363=ORIENTED_EDGE('',*,*,#276,.F.);
#364=ORIENTED_EDGE('',*,*,#275,.T.);
#365=ORIENTED_EDGE('',*,*,#269,.T.);
#366=ORIENTED_EDGE('',*,*,#278,.T.);
#367=ORIENTED_EDGE('',*,*,#279,.T.);
#368=ORIENTED_EDGE('',*,*,#280,.T.);
#369=ORIENTED_EDGE('',*,*,#281,.T.);
#370=ORIENTED_EDGE('',*,*,#279,.F.);
#371=ORIENTED_EDGE('',*,*,#282,.F.);
#372=ORIENTED_EDGE('',*,*,#283,.F.);
#373=ORIENTED_EDGE('',*,*,#284,.F.);
#374=ORIENTED_EDGE('',*,*,#285,.T.);
#375=ORIENTED_EDGE('',*,*,#286,.T.);
#376=ORIENTED_EDGE('',*,*,#287,.T.);
#377=ORIENTED_EDGE('',*,*,#288,.T.);
#378=ORIENTED_EDGE('',*,*,#286,.F.);
#379=ORIENTED_EDGE('',*,*,#289,.F.);
#380=ORIENTED_EDGE('',*,*,#290,.F.);
#381=ORIENTED_EDGE('',*,*,#291,.F.);
#382=ORIENTED_EDGE('',*,*,#292,.T.);
#383=ORIENTED_EDGE('',*,*,#293,.T.);
#384=ORIENTED_EDGE('',*,*,#294,.T.);
#385=ORIENTED_EDGE('',*,*,#295,.T.);
#386=ORIENTED_EDGE('',*,*,#293,.F.);
#387=ORIENTED_EDGE('',*,*,#296,.F.);
#388=ORIENTED_EDGE('',*,*,#297,.F.);
#389=ORIENTED_EDGE('',*,*,#298,.F.);
#390=ORIENTED_EDGE('',*,*,#299,.T.);
#391=ORIENTED_EDGE('',*,*,#300,.T.);
#392=ORIENTED_EDGE('',*,*,#301,.T.);
#393=ORIENTED_EDGE('',*,*,#302,.T.);
#394=ORIENTED_EDGE('',*,*,#300,.F.);
#395=ORIENTED_EDGE('',*,*,#303,.F.);
#396=ORIENTED_EDGE('',*,*,#304,.F.);
#397=ORIENTED_EDGE('',*,*,#305,.F.);
#398=ORIENTED_EDGE('',*,*,#306,.T.);
#399=ORIENTED_EDGE('',*,*,#307,.T.);
#400=ORIENTED_EDGE('',*,*,#308,.T.);
#401=ORIENTED_EDGE('',*,*,#309,.T.);
#402=ORIENTED_EDGE('',*,*,#307,.F.);
#403=ORIENTED_EDGE('',*,*,#310,.T.);
#404=ORIENTED_EDGE('',*,*,#311,.T.);
#405=ORIENTED_EDGE('',*,*,#312,.F.);
#406=ORIENTED_EDGE('',*,*,#313,.T.);
#407=ORIENTED_EDGE('',*,*,#314,.T.);
#408=ORIENTED_EDGE('',*,*,#315,.T.);
#409=ORIENTED_EDGE('',*,*,#316,.T.);
#410=ORIENTED_EDGE('',*,*,#314,.F.);
#411=ORIENTED_EDGE('',*,*,#317,.T.);
#412=ORIENTED_EDGE('',*,*,#318,.T.);
#413=ORIENTED_EDGE('',*,*,#319,.F.);
#414=ORIENTED_EDGE('',*,*,#320,.T.);
#415=ORIENTED_EDGE('',*,*,#321,.T.);
#416=ORIENTED_EDGE('',*,*,#322,.T.);
#417=ORIENTED_EDGE('',*,*,#315,.F.);
#418=ORIENTED_EDGE('',*,*,#319,.T.);
#419=ORIENTED_EDGE('',*,*,#323,.T.);
#420=ORIENTED_EDGE('',*,*,#324,.T.);
#421=ORIENTED_EDGE('',*,*,#308,.F.);
#422=ORIENTED_EDGE('',*,*,#312,.T.);
#423=ORIENTED_EDGE('',*,*,#325,.T.);
#424=ORIENTED_EDGE('',*,*,#303,.T.);
#425=ORIENTED_EDGE('',*,*,#299,.F.);
#426=ORIENTED_EDGE('',*,*,#326,.T.);
#427=ORIENTED_EDGE('',*,*,#327,.T.);
#428=ORIENTED_EDGE('',*,*,#296,.T.);
#429=ORIENTED_EDGE('',*,*,#292,.F.);
#430=ORIENTED_EDGE('',*,*,#328,.T.);
#431=ORIENTED_EDGE('',*,*,#329,.T.);
#432=ORIENTED_EDGE('',*,*,#289,.T.);
#433=ORIENTED_EDGE('',*,*,#285,.F.);
#434=ORIENTED_EDGE('',*,*,#330,.T.);
#435=ORIENTED_EDGE('',*,*,#331,.T.);
#436=ORIENTED_EDGE('',*,*,#282,.T.);
#437=ORIENTED_EDGE('',*,*,#278,.F.);
#438=ORIENTED_EDGE('',*,*,#272,.T.);
#439=ORIENTED_EDGE('',*,*,#316,.F.);
#440=ORIENTED_EDGE('',*,*,#322,.F.);
#441=ORIENTED_EDGE('',*,*,#332,.F.);
#442=ORIENTED_EDGE('',*,*,#333,.F.);
#443=ORIENTED_EDGE('',*,*,#334,.T.);
#444=ORIENTED_EDGE('',*,*,#332,.T.);
#445=ORIENTED_EDGE('',*,*,#321,.F.);
#446=ORIENTED_EDGE('',*,*,#335,.F.);
#447=ORIENTED_EDGE('',*,*,#281,.F.);
#448=ORIENTED_EDGE('',*,*,#336,.T.);
#449=ORIENTED_EDGE('',*,*,#335,.T.);
#450=ORIENTED_EDGE('',*,*,#320,.F.);
#451=ORIENTED_EDGE('',*,*,#298,.T.);
#452=ORIENTED_EDGE('',*,*,#337,.F.);
#453=ORIENTED_EDGE('',*,*,#338,.F.);
#454=ORIENTED_EDGE('',*,*,#301,.F.);
#455=ORIENTED_EDGE('',*,*,#305,.T.);
#456=ORIENTED_EDGE('',*,*,#339,.F.);
#457=ORIENTED_EDGE('',*,*,#310,.F.);
#458=ORIENTED_EDGE('',*,*,#306,.F.);
#459=ORIENTED_EDGE('',*,*,#340,.T.);
#460=ORIENTED_EDGE('',*,*,#341,.F.);
#461=ORIENTED_EDGE('',*,*,#317,.F.);
#462=ORIENTED_EDGE('',*,*,#313,.F.);
#463=ORIENTED_EDGE('',*,*,#333,.T.);
#464=ORIENTED_EDGE('',*,*,#334,.F.);
#465=ORIENTED_EDGE('',*,*,#336,.F.);
#466=ORIENTED_EDGE('',*,*,#280,.F.);
#467=ORIENTED_EDGE('',*,*,#284,.T.);
#468=ORIENTED_EDGE('',*,*,#342,.F.);
#469=ORIENTED_EDGE('',*,*,#343,.F.);
#470=ORIENTED_EDGE('',*,*,#287,.F.);
#471=ORIENTED_EDGE('',*,*,#291,.T.);
#472=ORIENTED_EDGE('',*,*,#344,.F.);
#473=ORIENTED_EDGE('',*,*,#345,.F.);
#474=ORIENTED_EDGE('',*,*,#294,.F.);
#475=ORIENTED_EDGE('',*,*,#277,.T.);
#476=ORIENTED_EDGE('',*,*,#342,.T.);
#477=ORIENTED_EDGE('',*,*,#283,.T.);
#478=ORIENTED_EDGE('',*,*,#331,.F.);
#479=ORIENTED_EDGE('',*,*,#346,.F.);
#480=ORIENTED_EDGE('',*,*,#288,.F.);
#481=ORIENTED_EDGE('',*,*,#343,.T.);
#482=ORIENTED_EDGE('',*,*,#346,.T.);
#483=ORIENTED_EDGE('',*,*,#330,.F.);
#484=ORIENTED_EDGE('',*,*,#295,.F.);
#485=ORIENTED_EDGE('',*,*,#345,.T.);
#486=ORIENTED_EDGE('',*,*,#347,.T.);
#487=ORIENTED_EDGE('',*,*,#328,.F.);
#488=ORIENTED_EDGE('',*,*,#344,.T.);
#489=ORIENTED_EDGE('',*,*,#290,.T.);
#490=ORIENTED_EDGE('',*,*,#329,.F.);
#491=ORIENTED_EDGE('',*,*,#347,.F.);
#492=ORIENTED_EDGE('',*,*,#337,.T.);
#493=ORIENTED_EDGE('',*,*,#297,.T.);
#494=ORIENTED_EDGE('',*,*,#327,.F.);
#495=ORIENTED_EDGE('',*,*,#348,.F.);
#496=ORIENTED_EDGE('',*,*,#302,.F.);
#497=ORIENTED_EDGE('',*,*,#338,.T.);
#498=ORIENTED_EDGE('',*,*,#348,.T.);
#499=ORIENTED_EDGE('',*,*,#326,.F.);
#500=ORIENTED_EDGE('',*,*,#309,.F.);
#501=ORIENTED_EDGE('',*,*,#324,.F.);
#502=ORIENTED_EDGE('',*,*,#349,.F.);
#503=ORIENTED_EDGE('',*,*,#340,.F.);
#504=ORIENTED_EDGE('',*,*,#339,.T.);
#505=ORIENTED_EDGE('',*,*,#304,.T.);
#506=ORIENTED_EDGE('',*,*,#325,.F.);
#507=ORIENTED_EDGE('',*,*,#311,.F.);
#508=ORIENTED_EDGE('',*,*,#341,.T.);
#509=ORIENTED_EDGE('',*,*,#349,.T.);
#510=ORIENTED_EDGE('',*,*,#323,.F.);
#511=ORIENTED_EDGE('',*,*,#318,.F.);
#512=CYLINDRICAL_SURFACE('',#578,3.);
#513=CYLINDRICAL_SURFACE('',#581,6.);
#514=CYLINDRICAL_SURFACE('',#585,6.);
#515=CYLINDRICAL_SURFACE('',#589,0.5);
#516=CYLINDRICAL_SURFACE('',#593,0.5);
#517=CYLINDRICAL_SURFACE('',#597,0.5);
#518=CYLINDRICAL_SURFACE('',#601,0.5);
#519=CYLINDRICAL_SURFACE('',#605,0.5);
#520=CYLINDRICAL_SURFACE('',#608,23.);
#521=CYLINDRICAL_SURFACE('',#611,0.5);
#522=CYLINDRICAL_SURFACE('',#614,23.);
#523=CYLINDRICAL_SURFACE('',#629,0.499999999999995);
#524=CYLINDRICAL_SURFACE('',#631,23.);
#525=CYLINDRICAL_SURFACE('',#642,0.499999999999995);
#526=CYLINDRICAL_SURFACE('',#643,23.);
#527=CYLINDRICAL_SURFACE('',#644,23.);
#528=CYLINDRICAL_SURFACE('',#645,0.499999999999995);
#529=CYLINDRICAL_SURFACE('',#646,0.499999999999996);
#530=CYLINDRICAL_SURFACE('',#647,23.);
#531=CYLINDRICAL_SURFACE('',#649,0.499999999999995);
#532=CYLINDRICAL_SURFACE('',#650,0.499999999999995);
#533=ADVANCED_FACE('',(#29),#512,.F.);
#534=ADVANCED_FACE('',(#30),#513,.F.);
#535=ADVANCED_FACE('',(#31,#15),#19,.T.);
#536=ADVANCED_FACE('',(#32),#514,.T.);
#537=ADVANCED_FACE('',(#33,#16),#20,.T.);
#538=ADVANCED_FACE('',(#34),#515,.F.);
#539=ADVANCED_FACE('',(#35),#21,.T.);
#540=ADVANCED_FACE('',(#36),#516,.F.);
#541=ADVANCED_FACE('',(#37),#22,.T.);
#542=ADVANCED_FACE('',(#38),#517,.F.);
#543=ADVANCED_FACE('',(#39),#23,.T.);
#544=ADVANCED_FACE('',(#40),#518,.F.);
#545=ADVANCED_FACE('',(#41),#24,.T.);
#546=ADVANCED_FACE('',(#42),#519,.F.);
#547=ADVANCED_FACE('',(#43),#520,.T.);
#548=ADVANCED_FACE('',(#44),#521,.F.);
#549=ADVANCED_FACE('',(#45),#522,.T.);
#550=ADVANCED_FACE('',(#46,#17),#25,.T.);
#551=ADVANCED_FACE('',(#47),#26,.T.);
#552=ADVANCED_FACE('',(#48),#523,.T.);
#553=ADVANCED_FACE('',(#49),#524,.T.);
#554=ADVANCED_FACE('',(#50,#18),#27,.F.);
#555=ADVANCED_FACE('',(#51),#525,.T.);
#556=ADVANCED_FACE('',(#52),#526,.T.);
#557=ADVANCED_FACE('',(#53),#527,.T.);
#558=ADVANCED_FACE('',(#54),#528,.T.);
#559=ADVANCED_FACE('',(#55),#529,.T.);
#560=ADVANCED_FACE('',(#56),#530,.T.);
#561=ADVANCED_FACE('',(#57),#28,.T.);
#562=ADVANCED_FACE('',(#58),#531,.T.);
#563=ADVANCED_FACE('',(#59),#532,.T.);
#564=CLOSED_SHELL('',(#533,#534,#535,#536,#537,#538,#539,#540,#541,#542,
#543,#544,#545,#546,#547,#548,#549,#550,#551,#552,#553,#554,#555,#556,#557,
#558,#559,#560,#561,#562,#563));
#565=DERIVED_UNIT_ELEMENT(#567,1.);
#566=DERIVED_UNIT_ELEMENT(#1010,-3.);
#567=(
MASS_UNIT()
NAMED_UNIT(*)
SI_UNIT(.KILO.,.GRAM.)
);
#568=DERIVED_UNIT((#565,#566));
#569=MEASURE_REPRESENTATION_ITEM('density measure',
POSITIVE_RATIO_MEASURE(7850.),#568);
#570=PROPERTY_DEFINITION_REPRESENTATION(#575,#572);
#571=PROPERTY_DEFINITION_REPRESENTATION(#576,#573);
#572=REPRESENTATION('material name',(#574),#1007);
#573=REPRESENTATION('density',(#569),#1007);
#574=DESCRIPTIVE_REPRESENTATION_ITEM('Steel','Steel');
#575=PROPERTY_DEFINITION('material property','material name',#1017);
#576=PROPERTY_DEFINITION('material property','density of part',#1017);
#577=AXIS2_PLACEMENT_3D('',#838,#651,#652);
#578=AXIS2_PLACEMENT_3D('',#839,#653,#654);
#579=AXIS2_PLACEMENT_3D('',#841,#655,#656);
#580=AXIS2_PLACEMENT_3D('',#844,#658,#659);
#581=AXIS2_PLACEMENT_3D('',#845,#660,#661);
#582=AXIS2_PLACEMENT_3D('',#847,#662,#663);
#583=AXIS2_PLACEMENT_3D('',#850,#665,#666);
#584=AXIS2_PLACEMENT_3D('',#851,#667,#668);
#585=AXIS2_PLACEMENT_3D('',#852,#669,#670);
#586=AXIS2_PLACEMENT_3D('',#854,#671,#672);
#587=AXIS2_PLACEMENT_3D('',#857,#674,#675);
#588=AXIS2_PLACEMENT_3D('',#858,#676,#677);
#589=AXIS2_PLACEMENT_3D('',#859,#678,#679);
#590=AXIS2_PLACEMENT_3D('',#862,#680,#681);
#591=AXIS2_PLACEMENT_3D('',#866,#683,#684);
#592=AXIS2_PLACEMENT_3D('',#868,#686,#687);
#593=AXIS2_PLACEMENT_3D('',#874,#691,#692);
#594=AXIS2_PLACEMENT_3D('',#877,#693,#694);
#595=AXIS2_PLACEMENT_3D('',#881,#696,#697);
#596=AXIS2_PLACEMENT_3D('',#883,#699,#700);
#597=AXIS2_PLACEMENT_3D('',#889,#704,#705);
#598=AXIS2_PLACEMENT_3D('',#892,#706,#707);
#599=AXIS2_PLACEMENT_3D('',#896,#709,#710);
#600=AXIS2_PLACEMENT_3D('',#898,#712,#713);
#601=AXIS2_PLACEMENT_3D('',#904,#717,#718);
#602=AXIS2_PLACEMENT_3D('',#907,#719,#720);
#603=AXIS2_PLACEMENT_3D('',#911,#722,#723);
#604=AXIS2_PLACEMENT_3D('',#913,#725,#726);
#605=AXIS2_PLACEMENT_3D('',#919,#730,#731);
#606=AXIS2_PLACEMENT_3D('',#922,#732,#733);
#607=AXIS2_PLACEMENT_3D('',#926,#735,#736);
#608=AXIS2_PLACEMENT_3D('',#928,#738,#739);
#609=AXIS2_PLACEMENT_3D('',#930,#740,#741);
#610=AXIS2_PLACEMENT_3D('',#933,#743,#744);
#611=AXIS2_PLACEMENT_3D('',#934,#745,#746);
#612=AXIS2_PLACEMENT_3D('',#937,#747,#748);
#613=AXIS2_PLACEMENT_3D('',#941,#750,#751);
#614=AXIS2_PLACEMENT_3D('',#943,#753,#754);
#615=AXIS2_PLACEMENT_3D('',#945,#755,#756);
#616=AXIS2_PLACEMENT_3D('',#948,#758,#759);
#617=AXIS2_PLACEMENT_3D('',#949,#760,#761);
#618=AXIS2_PLACEMENT_3D('',#951,#762,#763);
#619=AXIS2_PLACEMENT_3D('',#953,#764,#765);
#620=AXIS2_PLACEMENT_3D('',#956,#767,#768);
#621=AXIS2_PLACEMENT_3D('',#958,#770,#771);
#622=AXIS2_PLACEMENT_3D('',#960,#772,#773);
#623=AXIS2_PLACEMENT_3D('',#961,#774,#775);
#624=AXIS2_PLACEMENT_3D('',#963,#776,#777);
#625=AXIS2_PLACEMENT_3D('',#964,#778,#779);
#626=AXIS2_PLACEMENT_3D('',#966,#780,#781);
#627=AXIS2_PLACEMENT_3D('',#967,#782,#783);
#628=AXIS2_PLACEMENT_3D('',#968,#784,#785);
#629=AXIS2_PLACEMENT_3D('',#972,#788,#789);
#630=AXIS2_PLACEMENT_3D('',#974,#790,#791);
#631=AXIS2_PLACEMENT_3D('',#976,#793,#794);
#632=AXIS2_PLACEMENT_3D('',#977,#795,#796);
#633=AXIS2_PLACEMENT_3D('',#978,#797,#798);
#634=AXIS2_PLACEMENT_3D('',#980,#799,#800);
#635=AXIS2_PLACEMENT_3D('',#981,#801,#802);
#636=AXIS2_PLACEMENT_3D('',#982,#803,#804);
#637=AXIS2_PLACEMENT_3D('',#985,#806,#807);
#638=AXIS2_PLACEMENT_3D('',#987,#808,#809);
#639=AXIS2_PLACEMENT_3D('',#988,#810,#811);
#640=AXIS2_PLACEMENT_3D('',#990,#812,#813);
#641=AXIS2_PLACEMENT_3D('',#991,#814,#815);
#642=AXIS2_PLACEMENT_3D('',#992,#816,#817);
#643=AXIS2_PLACEMENT_3D('',#994,#819,#820);
#644=AXIS2_PLACEMENT_3D('',#995,#821,#822);
#645=AXIS2_PLACEMENT_3D('',#997,#824,#825);
#646=AXIS2_PLACEMENT_3D('',#998,#826,#827);
#647=AXIS2_PLACEMENT_3D('',#1000,#829,#830);
#648=AXIS2_PLACEMENT_3D('',#1001,#831,#832);
#649=AXIS2_PLACEMENT_3D('',#1003,#834,#835);
#650=AXIS2_PLACEMENT_3D('',#1004,#836,#837);
#651=DIRECTION('axis',(0.,0.,1.));
#652=DIRECTION('refdir',(1.,0.,0.));
#653=DIRECTION('center_axis',(0.,1.,0.));
#654=DIRECTION('ref_axis',(0.,0.,-1.));
#655=DIRECTION('center_axis',(0.,1.,0.));
#656=DIRECTION('ref_axis',(0.,0.,-1.));
#657=DIRECTION('',(0.,1.,0.));
#658=DIRECTION('center_axis',(0.,-1.,0.));
#659=DIRECTION('ref_axis',(0.,0.,-1.));
#660=DIRECTION('center_axis',(0.,-1.,0.));
#661=DIRECTION('ref_axis',(-1.,0.,0.));
#662=DIRECTION('center_axis',(0.,-1.,0.));
#663=DIRECTION('ref_axis',(-1.,0.,0.));
#664=DIRECTION('',(0.,-1.,0.));
#665=DIRECTION('center_axis',(0.,-1.,0.));
#666=DIRECTION('ref_axis',(-1.,0.,0.));
#667=DIRECTION('center_axis',(0.,1.,0.));
#668=DIRECTION('ref_axis',(-1.,0.,0.));
#669=DIRECTION('center_axis',(0.,-1.,0.));
#670=DIRECTION('ref_axis',(1.,0.,0.));
#671=DIRECTION('center_axis',(0.,-1.,0.));
#672=DIRECTION('ref_axis',(1.,0.,0.));
#673=DIRECTION('',(0.,1.,0.));
#674=DIRECTION('center_axis',(0.,1.,0.));
#675=DIRECTION('ref_axis',(1.,0.,0.));
#676=DIRECTION('center_axis',(0.,-1.,0.));
#677=DIRECTION('ref_axis',(1.,0.,0.));
#678=DIRECTION('center_axis',(0.,-1.,0.));
#679=DIRECTION('ref_axis',(0.28453402953917,0.,-0.958665940791788));
#680=DIRECTION('center_axis',(0.,1.,0.));
#681=DIRECTION('ref_axis',(0.28453402953917,0.,-0.958665940791788));
#682=DIRECTION('',(0.,-1.,0.));
#683=DIRECTION('center_axis',(0.,-1.,0.));
#684=DIRECTION('ref_axis',(0.28453402953917,0.,-0.958665940791788));
#685=DIRECTION('',(0.,1.,0.));
#686=DIRECTION('center_axis',(0.499999999999999,0.,0.866025403784439));
#687=DIRECTION('ref_axis',(0.866025403784439,0.,-0.499999999999999));
#688=DIRECTION('',(0.866025403784439,0.,-0.499999999999999));
#689=DIRECTION('',(0.,1.,0.));
#690=DIRECTION('',(-0.866025403784439,0.,0.499999999999999));
#691=DIRECTION('center_axis',(0.,-1.,0.));
#692=DIRECTION('ref_axis',(0.972496073238182,0.,-0.232919272573817));
#693=DIRECTION('center_axis',(0.,1.,0.));
#694=DIRECTION('ref_axis',(0.972496073238182,0.,-0.232919272573817));
#695=DIRECTION('',(0.,-1.,0.));
#696=DIRECTION('center_axis',(0.,-1.,0.));
#697=DIRECTION('ref_axis',(0.972496073238182,0.,-0.232919272573817));
#698=DIRECTION('',(0.,1.,0.));
#699=DIRECTION('center_axis',(-0.5,0.,0.866025403784438));
#700=DIRECTION('ref_axis',(0.866025403784438,0.,0.5));
#701=DIRECTION('',(0.866025403784438,0.,0.5));
#702=DIRECTION('',(0.,1.,0.));
#703=DIRECTION('',(-0.866025403784438,0.,-0.5));
#704=DIRECTION('center_axis',(0.,-1.,0.));
#705=DIRECTION('ref_axis',(0.687962043699009,0.,0.725746668217969));
#706=DIRECTION('center_axis',(0.,1.,0.));
#707=DIRECTION('ref_axis',(0.687962043699009,0.,0.725746668217969));
#708=DIRECTION('',(0.,-1.,0.));
#709=DIRECTION('center_axis',(0.,-1.,0.));
#710=DIRECTION('ref_axis',(0.687962043699009,0.,0.725746668217969));
#711=DIRECTION('',(0.,1.,0.));
#712=DIRECTION('center_axis',(-1.,0.,-4.44089209850063E-16));
#713=DIRECTION('ref_axis',(-4.44089209850063E-16,0.,1.));
#714=DIRECTION('',(-4.44089209850063E-16,0.,1.));
#715=DIRECTION('',(0.,1.,0.));
#716=DIRECTION('',(4.44089209850063E-16,0.,-1.));
#717=DIRECTION('center_axis',(0.,-1.,0.));
#718=DIRECTION('ref_axis',(-0.284534029539176,0.,0.958665940791785));
#719=DIRECTION('center_axis',(0.,1.,0.));
#720=DIRECTION('ref_axis',(-0.284534029539176,0.,0.958665940791785));
#721=DIRECTION('',(0.,-1.,0.));
#722=DIRECTION('center_axis',(0.,-1.,0.));
#723=DIRECTION('ref_axis',(-0.284534029539176,0.,0.958665940791785));
#724=DIRECTION('',(0.,1.,0.));
#725=DIRECTION('center_axis',(-0.5,0.,-0.866025403784439));
#726=DIRECTION('ref_axis',(-0.866025403784439,0.,0.5));
#727=DIRECTION('',(-0.866025403784439,0.,0.5));
#728=DIRECTION('',(0.,1.,0.));
#729=DIRECTION('',(0.866025403784439,0.,-0.5));
#730=DIRECTION('center_axis',(0.,1.,0.));
#731=DIRECTION('ref_axis',(-0.972496073238181,0.,0.232919272573822));
#732=DIRECTION('center_axis',(0.,-1.,0.));
#733=DIRECTION('ref_axis',(-0.972496073238181,0.,0.232919272573822));
#734=DIRECTION('',(0.,1.,0.));
#735=DIRECTION('center_axis',(0.,1.,0.));
#736=DIRECTION('ref_axis',(-0.972496073238181,0.,0.232919272573822));
#737=DIRECTION('',(0.,-1.,0.));
#738=DIRECTION('center_axis',(0.,1.,0.));
#739=DIRECTION('ref_axis',(0.825341338986888,0.,0.564634106443571));
#740=DIRECTION('center_axis',(0.,1.,0.));
#741=DIRECTION('ref_axis',(0.825341338986888,0.,0.564634106443571));
#742=DIRECTION('',(0.,1.,0.));
#743=DIRECTION('center_axis',(0.,1.,0.));
#744=DIRECTION('ref_axis',(0.825341338986888,0.,0.564634106443571));
#745=DIRECTION('center_axis',(0.,1.,0.));
#746=DIRECTION('ref_axis',(-0.687962043699012,0.,-0.725746668217966));
#747=DIRECTION('center_axis',(0.,-1.,0.));
#748=DIRECTION('ref_axis',(-0.687962043699012,0.,-0.725746668217966));
#749=DIRECTION('',(0.,1.,0.));
#750=DIRECTION('center_axis',(0.,1.,0.));
#751=DIRECTION('ref_axis',(-0.687962043699012,0.,-0.725746668217966));
#752=DIRECTION('',(0.,-1.,0.));
#753=DIRECTION('center_axis',(0.,1.,0.));
#754=DIRECTION('ref_axis',(-0.0763168105298153,0.,0.997083619577895));
#755=DIRECTION('center_axis',(0.,1.,0.));
#756=DIRECTION('ref_axis',(-0.0763168105298153,0.,0.997083619577895));
#757=DIRECTION('',(0.,1.,0.));
#758=DIRECTION('center_axis',(0.,1.,0.));
#759=DIRECTION('ref_axis',(-0.0763168105298153,0.,0.997083619577895));
#760=DIRECTION('center_axis',(0.,1.,0.));
#761=DIRECTION('ref_axis',(0.499999999999999,0.,0.866025403784439));
#762=DIRECTION('center_axis',(0.,1.,0.));
#763=DIRECTION('ref_axis',(-0.901658149516704,0.,0.432449513134323));
#764=DIRECTION('center_axis',(0.,1.,0.));
#765=DIRECTION('ref_axis',(-0.32807692319365,0.,0.944651010938848));
#766=DIRECTION('',(9.99200722162641E-16,0.,-1.));
#767=DIRECTION('center_axis',(0.,1.,0.));
#768=DIRECTION('ref_axis',(0.65405331158687,0.,0.75644845535056));
#769=DIRECTION('',(-0.866025403784439,0.,-0.5));
#770=DIRECTION('center_axis',(0.,1.,0.));
#771=DIRECTION('ref_axis',(0.982130234780519,0.,-0.188202555588288));
#772=DIRECTION('center_axis',(0.,1.,0.));
#773=DIRECTION('ref_axis',(0.901658149516704,0.,-0.432449513134324));
#774=DIRECTION('center_axis',(0.,1.,0.));
#775=DIRECTION('ref_axis',(0.328076923193649,0.,-0.944651010938849));
#776=DIRECTION('center_axis',(0.,1.,0.));
#777=DIRECTION('ref_axis',(0.0763168105298154,0.,-0.997083619577895));
#778=DIRECTION('center_axis',(0.,1.,0.));
#779=DIRECTION('ref_axis',(-0.65405331158687,0.,-0.75644845535056));
#780=DIRECTION('center_axis',(0.,1.,0.));
#781=DIRECTION('ref_axis',(-0.825341338986888,0.,-0.564634106443572));
#782=DIRECTION('center_axis',(0.,1.,0.));
#783=DIRECTION('ref_axis',(-0.982130234780519,0.,0.188202555588288));
#784=DIRECTION('center_axis',(1.,0.,9.99200722162641E-16));
#785=DIRECTION('ref_axis',(9.99200722162641E-16,0.,-1.));
#786=DIRECTION('',(0.,1.,0.));
#787=DIRECTION('',(-9.99200722162641E-16,0.,1.));
#788=DIRECTION('center_axis',(0.,1.,0.));
#789=DIRECTION('ref_axis',(-0.32807692319365,0.,0.944651010938848));
#790=DIRECTION('center_axis',(0.,1.,0.));
#791=DIRECTION('ref_axis',(-0.32807692319365,0.,0.944651010938848));
#792=DIRECTION('',(0.,1.,0.));
#793=DIRECTION('center_axis',(0.,1.,0.));
#794=DIRECTION('ref_axis',(-0.901658149516704,0.,0.432449513134323));
#795=DIRECTION('center_axis',(0.,1.,0.));
#796=DIRECTION('ref_axis',(-0.901658149516704,0.,0.432449513134323));
#797=DIRECTION('center_axis',(0.,1.,0.));
#798=DIRECTION('ref_axis',(1.,0.,0.));
#799=DIRECTION('center_axis',(0.,1.,0.));
#800=DIRECTION('ref_axis',(0.328076923193649,0.,-0.944651010938849));
#801=DIRECTION('center_axis',(0.,1.,0.));
#802=DIRECTION('ref_axis',(0.901658149516704,0.,-0.432449513134324));
#803=DIRECTION('center_axis',(0.,1.,0.));
#804=DIRECTION('ref_axis',(0.982130234780519,0.,-0.188202555588288));
#805=DIRECTION('',(0.866025403784439,0.,0.5));
#806=DIRECTION('center_axis',(0.,1.,0.));
#807=DIRECTION('ref_axis',(0.65405331158687,0.,0.75644845535056));
#808=DIRECTION('center_axis',(0.,1.,0.));
#809=DIRECTION('ref_axis',(-0.982130234780519,0.,0.188202555588288));
#810=DIRECTION('center_axis',(0.,1.,0.));
#811=DIRECTION('ref_axis',(-0.825341338986888,0.,-0.564634106443572));
#812=DIRECTION('center_axis',(0.,1.,0.));
#813=DIRECTION('ref_axis',(-0.65405331158687,0.,-0.75644845535056));
#814=DIRECTION('center_axis',(0.,1.,0.));
#815=DIRECTION('ref_axis',(0.0763168105298154,0.,-0.997083619577895));
#816=DIRECTION('center_axis',(0.,1.,0.));
#817=DIRECTION('ref_axis',(-0.982130234780519,0.,0.188202555588288));
#818=DIRECTION('',(0.,1.,0.));
#819=DIRECTION('center_axis',(0.,1.,0.));
#820=DIRECTION('ref_axis',(-0.825341338986888,0.,-0.564634106443572));
#821=DIRECTION('center_axis',(0.,1.,0.));
#822=DIRECTION('ref_axis',(0.0763168105298154,0.,-0.997083619577895));
#823=DIRECTION('',(0.,1.,0.));
#824=DIRECTION('center_axis',(0.,1.,0.));
#825=DIRECTION('ref_axis',(-0.65405331158687,0.,-0.75644845535056));
#826=DIRECTION('center_axis',(0.,1.,0.));
#827=DIRECTION('ref_axis',(0.328076923193649,0.,-0.944651010938849));
#828=DIRECTION('',(0.,1.,0.));
#829=DIRECTION('center_axis',(0.,1.,0.));
#830=DIRECTION('ref_axis',(0.901658149516704,0.,-0.432449513134324));
#831=DIRECTION('center_axis',(0.5,0.,-0.866025403784439));
#832=DIRECTION('ref_axis',(-0.866025403784439,0.,-0.5));
#833=DIRECTION('',(0.,1.,0.));
#834=DIRECTION('center_axis',(0.,1.,0.));
#835=DIRECTION('ref_axis',(0.982130234780519,0.,-0.188202555588288));
#836=DIRECTION('center_axis',(0.,1.,0.));
#837=DIRECTION('ref_axis',(0.65405331158687,0.,0.75644845535056));
#838=CARTESIAN_POINT('',(0.,0.,0.));
#839=CARTESIAN_POINT('Origin',(2.33890309951163E-16,2.3,0.));
#840=CARTESIAN_POINT('',(6.01284349695369E-16,-1.,3.));
#841=CARTESIAN_POINT('Origin',(2.33890309951163E-16,-1.,0.));
#842=CARTESIAN_POINT('',(-1.33503729793043E-16,5.,3.));
#843=CARTESIAN_POINT('',(6.01284349695369E-16,2.3,3.));
#844=CARTESIAN_POINT('Origin',(2.33890309951163E-16,5.,0.));
#845=CARTESIAN_POINT('Origin',(0.,6.,0.));
#846=CARTESIAN_POINT('',(6.,6.,-7.34788079488412E-16));
#847=CARTESIAN_POINT('Origin',(0.,6.,0.));
#848=CARTESIAN_POINT('',(6.,5.,-7.34788079488412E-16));
#849=CARTESIAN_POINT('',(6.,6.,7.34788079488412E-16));
#850=CARTESIAN_POINT('Origin',(0.,5.,0.));
#851=CARTESIAN_POINT('Origin',(0.,5.,0.));
#852=CARTESIAN_POINT('Origin',(0.,0.,0.));
#853=CARTESIAN_POINT('',(-6.,-1.,-7.34788079488412E-16));
#854=CARTESIAN_POINT('Origin',(0.,-1.,0.));
#855=CARTESIAN_POINT('',(-6.,0.,-7.34788079488412E-16));
#856=CARTESIAN_POINT('',(-6.,0.,-7.34788079488412E-16));
#857=CARTESIAN_POINT('Origin',(0.,0.,0.));
#858=CARTESIAN_POINT('Origin',(0.,-1.,0.));
#859=CARTESIAN_POINT('Origin',(-14.0684540139365,0.,8.69977598121775));
#860=CARTESIAN_POINT('',(-13.6227054014729,6.,8.47326290325822));
#861=CARTESIAN_POINT('',(-14.3184540139365,6.,8.26676327932553));
#862=CARTESIAN_POINT('Origin',(-14.0684540139365,6.,8.69977598121775));
#863=CARTESIAN_POINT('',(-14.3184540139365,0.,8.26676327932553));
#864=CARTESIAN_POINT('',(-14.3184540139365,0.,8.26676327932553));
#865=CARTESIAN_POINT('',(-13.6227054014729,0.,8.47326290325822));
#866=CARTESIAN_POINT('Origin',(-14.0684540139365,0.,8.69977598121775));
#867=CARTESIAN_POINT('',(-13.6227054014729,0.,8.47326290325822));
#868=CARTESIAN_POINT('Origin',(-16.7214861528907,0.,9.65415453162204));
#869=CARTESIAN_POINT('',(-16.7214861528907,6.,9.65415453162204));
#870=CARTESIAN_POINT('',(-13.856406460551,6.,7.99999999999999));
#871=CARTESIAN_POINT('',(-16.7214861528907,0.,9.65415453162204));
#872=CARTESIAN_POINT('',(-16.7214861528907,0.,9.65415453162204));
#873=CARTESIAN_POINT('',(-13.856406460551,0.,7.99999999999999));
#874=CARTESIAN_POINT('Origin',(-14.5684540139365,0.,-7.83375057743333));
#875=CARTESIAN_POINT('',(-14.1494136279023,6.,-7.56097749431788));
#876=CARTESIAN_POINT('',(-14.3184540139365,6.,-8.26676327932554));
#877=CARTESIAN_POINT('Origin',(-14.5684540139365,6.,-7.83375057743333));
#878=CARTESIAN_POINT('',(-14.3184540139365,0.,-8.26676327932554));
#879=CARTESIAN_POINT('',(-14.3184540139365,0.,-8.26676327932554));
#880=CARTESIAN_POINT('',(-14.1494136279023,0.,-7.56097749431788));
#881=CARTESIAN_POINT('Origin',(-14.5684540139365,0.,-7.83375057743333));
#882=CARTESIAN_POINT('',(-14.1494136279023,0.,-7.56097749431788));
#883=CARTESIAN_POINT('Origin',(-16.7214861528907,0.,-9.65415453162206));
#884=CARTESIAN_POINT('',(-16.7214861528907,6.,-9.65415453162205));
#885=CARTESIAN_POINT('',(-13.856406460551,6.,-8.00000000000001));
#886=CARTESIAN_POINT('',(-16.7214861528907,0.,-9.65415453162205));
#887=CARTESIAN_POINT('',(-16.7214861528907,0.,-9.65415453162205));
#888=CARTESIAN_POINT('',(-13.856406460551,0.,-8.00000000000001));
#889=CARTESIAN_POINT('Origin',(-0.499999999999994,0.,-16.5335265586511));
#890=CARTESIAN_POINT('',(-0.526708226429478,6.,-16.0342403975761));
#891=CARTESIAN_POINT('',(5.78804851099116E-15,6.,-16.5335265586511));
#892=CARTESIAN_POINT('Origin',(-0.499999999999994,6.,-16.5335265586511));
#893=CARTESIAN_POINT('',(5.78804851099116E-15,0.,-16.5335265586511));
#894=CARTESIAN_POINT('',(6.52256026967279E-15,0.,-16.5335265586511));
#895=CARTESIAN_POINT('',(-0.526708226429478,0.,-16.0342403975761));
#896=CARTESIAN_POINT('Origin',(-0.499999999999994,0.,-16.5335265586511));
#897=CARTESIAN_POINT('',(-0.526708226429478,0.,-16.0342403975761));
#898=CARTESIAN_POINT('Origin',(7.7715611723761E-15,0.,-19.3083090632441));
#899=CARTESIAN_POINT('',(5.55111512312578E-15,6.,-19.3083090632441));
#900=CARTESIAN_POINT('',(5.55111512312578E-15,6.,-16.));
#901=CARTESIAN_POINT('',(5.55111512312578E-15,0.,-19.3083090632441));
#902=CARTESIAN_POINT('',(5.55111512312578E-15,0.,-19.3083090632441));
#903=CARTESIAN_POINT('',(5.55111512312578E-15,0.,-16.));
#904=CARTESIAN_POINT('Origin',(14.0684540139365,0.,-8.69977598121775));
#905=CARTESIAN_POINT('',(13.6227054014729,6.,-8.47326290325822));
#906=CARTESIAN_POINT('',(14.3184540139365,6.,-8.26676327932553));
#907=CARTESIAN_POINT('Origin',(14.0684540139365,6.,-8.69977598121775));
#908=CARTESIAN_POINT('',(14.3184540139365,0.,-8.26676327932553));
#909=CARTESIAN_POINT('',(14.3184540139365,0.,-8.26676327932554));
#910=CARTESIAN_POINT('',(13.6227054014729,0.,-8.47326290325822));
#911=CARTESIAN_POINT('Origin',(14.0684540139365,0.,-8.69977598121775));
#912=CARTESIAN_POINT('',(13.6227054014729,0.,-8.47326290325822));
#913=CARTESIAN_POINT('Origin',(16.7214861528907,0.,-9.65415453162205));
#914=CARTESIAN_POINT('',(16.7214861528907,6.,-9.65415453162205));
#915=CARTESIAN_POINT('',(13.856406460551,6.,-8.));
#916=CARTESIAN_POINT('',(16.7214861528907,0.,-9.65415453162205));
#917=CARTESIAN_POINT('',(16.7214861528907,0.,-9.65415453162205));
#918=CARTESIAN_POINT('',(13.856406460551,0.,-8.));
#919=CARTESIAN_POINT('Origin',(14.5684540139365,0.,7.83375057743332));
#920=CARTESIAN_POINT('',(14.3184540139365,0.,8.26676327932554));
#921=CARTESIAN_POINT('',(14.1494136279023,0.,7.56097749431788));
#922=CARTESIAN_POINT('Origin',(14.5684540139365,0.,7.83375057743332));
#923=CARTESIAN_POINT('',(14.1494136279023,6.,7.56097749431788));
#924=CARTESIAN_POINT('',(14.1494136279023,0.,7.56097749431788));
#925=CARTESIAN_POINT('',(14.3184540139365,6.,8.26676327932554));
#926=CARTESIAN_POINT('Origin',(14.5684540139365,6.,7.83375057743332));
#927=CARTESIAN_POINT('',(14.3184540139365,0.,8.26676327932554));
#928=CARTESIAN_POINT('Origin',(-5.12644412967087,0.,-4.98658432899285));
#929=CARTESIAN_POINT('',(17.462551270281,0.,-9.31524310752398));
#930=CARTESIAN_POINT('Origin',(-5.12644412967087,0.,-4.98658432899285));
#931=CARTESIAN_POINT('',(17.462551270281,6.,-9.31524310752398));
#932=CARTESIAN_POINT('',(17.462551270281,0.,-9.31524310752398));
#933=CARTESIAN_POINT('Origin',(-5.12644412967087,6.,-4.98658432899285));
#934=CARTESIAN_POINT('Origin',(0.499999999999984,0.,16.5335265586511));
#935=CARTESIAN_POINT('',(-1.60762224674493E-14,0.,16.5335265586511));
#936=CARTESIAN_POINT('',(0.526708226429468,0.,16.0342403975761));
#937=CARTESIAN_POINT('Origin',(0.499999999999984,0.,16.5335265586511));
#938=CARTESIAN_POINT('',(0.526708226429468,6.,16.0342403975761));
#939=CARTESIAN_POINT('',(0.526708226429468,0.,16.0342403975761));
#940=CARTESIAN_POINT('',(-1.60762224674493E-14,6.,16.5335265586511));
#941=CARTESIAN_POINT('Origin',(0.499999999999984,6.,16.5335265586511));
#942=CARTESIAN_POINT('',(-1.60982338570648E-14,0.,16.5335265586511));
#943=CARTESIAN_POINT('Origin',(1.75528664218575,0.,-6.932923011873));
#944=CARTESIAN_POINT('',(16.7985128086842,0.,10.4653914611895));
#945=CARTESIAN_POINT('Origin',(1.75528664218575,0.,-6.932923011873));
#946=CARTESIAN_POINT('',(16.7985128086842,6.,10.4653914611895));
#947=CARTESIAN_POINT('',(16.7985128086842,0.,10.4653914611895));
#948=CARTESIAN_POINT('Origin',(1.75528664218575,6.,-6.932923011873));
#949=CARTESIAN_POINT('Origin',(0.213826350359012,6.,0.437435090945835));
#950=CARTESIAN_POINT('',(-0.664038461596836,6.,19.7806345687135));
#951=CARTESIAN_POINT('Origin',(6.88173077185662,6.,-1.94633868288015));
#952=CARTESIAN_POINT('',(-1.66533453693773E-14,6.,19.3083090632441));
#953=CARTESIAN_POINT('Origin',(-0.500000000000014,6.,19.3083090632441));
#954=CARTESIAN_POINT('',(-1.55431223447522E-14,6.,16.));
#955=CARTESIAN_POINT('',(16.7214861528907,6.,9.65415453162205));
#956=CARTESIAN_POINT('Origin',(16.4714861528907,6.,10.0871672335143));
#957=CARTESIAN_POINT('',(13.856406460551,6.,8.));
#958=CARTESIAN_POINT('Origin',(16.9714861528907,6.,-9.22114182972983));
#959=CARTESIAN_POINT('',(0.664038461596825,6.,-19.7806345687135));
#960=CARTESIAN_POINT('Origin',(-6.88173077185662,6.,1.94633868288015));
#961=CARTESIAN_POINT('Origin',(0.500000000000002,6.,-19.3083090632441));
#962=CARTESIAN_POINT('',(-16.7985128086841,6.,-10.4653914611896));
#963=CARTESIAN_POINT('Origin',(-1.75528664218575,6.,6.932923011873));
#964=CARTESIAN_POINT('Origin',(-16.4714861528907,6.,-10.0871672335143));
#965=CARTESIAN_POINT('',(-17.462551270281,6.,9.31524310752397));
#966=CARTESIAN_POINT('Origin',(5.12644412967086,6.,4.98658432899285));
#967=CARTESIAN_POINT('Origin',(-16.9714861528907,6.,9.22114182972983));
#968=CARTESIAN_POINT('Origin',(-1.88737914186277E-14,0.,19.3083090632441));
#969=CARTESIAN_POINT('',(-1.66533453693773E-14,0.,19.3083090632441));
#970=CARTESIAN_POINT('',(-1.66533453693773E-14,0.,19.3083090632441));
#971=CARTESIAN_POINT('',(-1.55431223447522E-14,0.,16.));
#972=CARTESIAN_POINT('Origin',(-0.500000000000014,0.,19.3083090632441));
#973=CARTESIAN_POINT('',(-0.664038461596836,0.,19.7806345687135));
#974=CARTESIAN_POINT('Origin',(-0.500000000000014,0.,19.3083090632441));
#975=CARTESIAN_POINT('',(-0.664038461596836,0.,19.7806345687135));
#976=CARTESIAN_POINT('Origin',(6.88173077185662,0.,-1.94633868288015));
#977=CARTESIAN_POINT('Origin',(6.88173077185662,0.,-1.94633868288015));
#978=CARTESIAN_POINT('Origin',(0.485743076445355,0.,0.0335384940635008));
#979=CARTESIAN_POINT('',(0.664038461596825,0.,-19.7806345687135));
#980=CARTESIAN_POINT('Origin',(0.500000000000002,0.,-19.3083090632441));
#981=CARTESIAN_POINT('Origin',(-6.88173077185662,0.,1.94633868288015));
#982=CARTESIAN_POINT('Origin',(16.9714861528907,0.,-9.22114182972983));
#983=CARTESIAN_POINT('',(16.7214861528907,0.,9.65415453162205));
#984=CARTESIAN_POINT('',(13.856406460551,0.,8.));
#985=CARTESIAN_POINT('Origin',(16.4714861528907,0.,10.0871672335143));
#986=CARTESIAN_POINT('',(-17.462551270281,0.,9.31524310752397));
#987=CARTESIAN_POINT('Origin',(-16.9714861528907,0.,9.22114182972983));
#988=CARTESIAN_POINT('Origin',(5.12644412967086,0.,4.98658432899285));
#989=CARTESIAN_POINT('',(-16.7985128086841,0.,-10.4653914611896));
#990=CARTESIAN_POINT('Origin',(-16.4714861528907,0.,-10.0871672335143));
#991=CARTESIAN_POINT('Origin',(-1.75528664218575,0.,6.932923011873));
#992=CARTESIAN_POINT('Origin',(-16.9714861528907,0.,9.22114182972983));
#993=CARTESIAN_POINT('',(-17.462551270281,0.,9.31524310752397));
#994=CARTESIAN_POINT('Origin',(5.12644412967086,0.,4.98658432899285));
#995=CARTESIAN_POINT('Origin',(-1.75528664218575,0.,6.932923011873));
#996=CARTESIAN_POINT('',(-16.7985128086841,0.,-10.4653914611896));
#997=CARTESIAN_POINT('Origin',(-16.4714861528907,0.,-10.0871672335143));
#998=CARTESIAN_POINT('Origin',(0.500000000000002,0.,-19.3083090632441));
#999=CARTESIAN_POINT('',(0.664038461596825,0.,-19.7806345687135));
#1000=CARTESIAN_POINT('Origin',(-6.88173077185662,0.,1.94633868288015));
#1001=CARTESIAN_POINT('Origin',(16.7214861528907,0.,9.65415453162205));
#1002=CARTESIAN_POINT('',(16.7214861528907,0.,9.65415453162205));
#1003=CARTESIAN_POINT('Origin',(16.9714861528907,0.,-9.22114182972983));
#1004=CARTESIAN_POINT('Origin',(16.4714861528907,0.,10.0871672335143));
#1005=UNCERTAINTY_MEASURE_WITH_UNIT(LENGTH_MEASURE(0.01),#1009,
'DISTANCE_ACCURACY_VALUE',
'Maximum model space distance between geometric entities at asserted c
onnectivities');
#1006=UNCERTAINTY_MEASURE_WITH_UNIT(LENGTH_MEASURE(0.01),#1009,
'DISTANCE_ACCURACY_VALUE',
'Maximum model space distance between geometric entities at asserted c
onnectivities');
#1007=(
GEOMETRIC_REPRESENTATION_CONTEXT(3)
GLOBAL_UNCERTAINTY_ASSIGNED_CONTEXT((#1005))
GLOBAL_UNIT_ASSIGNED_CONTEXT((#1009,#1011,#1012))
REPRESENTATION_CONTEXT('','3D')
);
#1008=(
GEOMETRIC_REPRESENTATION_CONTEXT(3)
GLOBAL_UNCERTAINTY_ASSIGNED_CONTEXT((#1006))
GLOBAL_UNIT_ASSIGNED_CONTEXT((#1009,#1011,#1012))
REPRESENTATION_CONTEXT('','3D')
);
#1009=(
LENGTH_UNIT()
NAMED_UNIT(*)
SI_UNIT(.MILLI.,.METRE.)
);
#1010=(
LENGTH_UNIT()
NAMED_UNIT(*)
SI_UNIT($,.METRE.)
);
#1011=(
NAMED_UNIT(*)
PLANE_ANGLE_UNIT()
SI_UNIT($,.RADIAN.)
);
#1012=(
NAMED_UNIT(*)
SI_UNIT($,.STERADIAN.)
SOLID_ANGLE_UNIT()
);
#1013=SHAPE_DEFINITION_REPRESENTATION(#1014,#1015);
#1014=PRODUCT_DEFINITION_SHAPE('',$,#1017);
#1015=SHAPE_REPRESENTATION('',(#577),#1007);
#1016=PRODUCT_DEFINITION_CONTEXT('part definition',#1021,'design');
#1017=PRODUCT_DEFINITION('2026-08-19-00-35-44-656','Rachet Wheel',#1018,
#1016);
#1018=PRODUCT_DEFINITION_FORMATION('',$,#1023);
#1019=PRODUCT_RELATED_PRODUCT_CATEGORY('Rachet Wheel','Rachet Wheel',(#1023));
#1020=APPLICATION_PROTOCOL_DEFINITION('international standard',
'automotive_design',2009,#1021);
#1021=APPLICATION_CONTEXT(
'Core Data for Automotive Mechanical Design Process');
#1022=PRODUCT_CONTEXT('part definition',#1021,'mechanical');
#1023=PRODUCT('2026-08-19-00-35-44-656','Rachet Wheel',$,(#1022));
#1024=PRESENTATION_STYLE_ASSIGNMENT((#1026));
#1025=PRESENTATION_STYLE_ASSIGNMENT((#1027));
#1026=SURFACE_STYLE_USAGE(.BOTH.,#1028);
#1027=SURFACE_STYLE_USAGE(.BOTH.,#1029);
#1028=SURFACE_SIDE_STYLE('',(#1030));
#1029=SURFACE_SIDE_STYLE('',(#1031));
#1030=SURFACE_STYLE_FILL_AREA(#1032);
#1031=SURFACE_STYLE_FILL_AREA(#1033);
#1032=FILL_AREA_STYLE('Steel - Satin',(#1034));
#1033=FILL_AREA_STYLE('Paint - Metal Flake (Dark Grey)',(#1035));
#1034=FILL_AREA_STYLE_COLOUR('Steel - Satin',#1036);
#1035=FILL_AREA_STYLE_COLOUR('Paint - Metal Flake (Dark Grey)',#1037);
#1036=COLOUR_RGB('Steel - Satin',0.627450980392157,0.627450980392157,0.627450980392157);
#1037=COLOUR_RGB('Paint - Metal Flake (Dark Grey)',0.349019607843137,0.349019607843137,
0.349019607843137);
ENDSEC;
END-ISO-10303-21;
