ISO-10303-21;
HEADER;
/* Generated by software containing ST-Developer
 * from STEP Tools, Inc. (www.steptools.com) 
 */

FILE_DESCRIPTION(
/* description */ (''),
/* implementation_level */ '2;1');

FILE_NAME(
/* name */ 'Model.step',
/* time_stamp */ '2026-08-19T09:11:21+05:30',
/* author */ (''),
/* organization */ (''),
/* preprocessor_version */ 'ST-DEVELOPER v20.1',
/* originating_system */ 'Autodesk Translation Framework v15.8.0.0',
/* authorisation */ '');

FILE_SCHEMA (('AUTOMOTIVE_DESIGN { 1 0 10303 214 3 1 1 }'));
ENDSEC;

DATA;
#10=MECHANICAL_DESIGN_GEOMETRIC_PRESENTATION_REPRESENTATION('',(#77,#78,
#79,#80,#81,#82,#83),#1054);
#11=CONTEXT_DEPENDENT_OVER_RIDING_STYLED_ITEM('',(#1103),#1076,#83,(#20));
#12=MAPPED_ITEM('',#13,#700);
#13=REPRESENTATION_MAP(#700,#1073);
#14=ITEM_DEFINED_TRANSFORMATION($,$,#636,#696);
#15=ITEM_DEFINED_TRANSFORMATION($,$,#648,#697);
#16=ITEM_DEFINED_TRANSFORMATION($,$,#665,#698);
#17=ITEM_DEFINED_TRANSFORMATION($,$,#679,#699);
#18=(
REPRESENTATION_RELATIONSHIP($,$,#1074,#1073)
REPRESENTATION_RELATIONSHIP_WITH_TRANSFORMATION(#14)
SHAPE_REPRESENTATION_RELATIONSHIP()
);
#19=(
REPRESENTATION_RELATIONSHIP($,$,#1075,#1073)
REPRESENTATION_RELATIONSHIP_WITH_TRANSFORMATION(#15)
SHAPE_REPRESENTATION_RELATIONSHIP()
);
#20=(
REPRESENTATION_RELATIONSHIP($,$,#1076,#1073)
REPRESENTATION_RELATIONSHIP_WITH_TRANSFORMATION(#16)
SHAPE_REPRESENTATION_RELATIONSHIP()
);
#21=(
REPRESENTATION_RELATIONSHIP($,$,#1077,#1073)
REPRESENTATION_RELATIONSHIP_WITH_TRANSFORMATION(#17)
SHAPE_REPRESENTATION_RELATIONSHIP()
);
#22=CONTEXT_DEPENDENT_SHAPE_REPRESENTATION(#18,#1069);
#23=CONTEXT_DEPENDENT_SHAPE_REPRESENTATION(#19,#1070);
#24=CONTEXT_DEPENDENT_SHAPE_REPRESENTATION(#20,#1071);
#25=CONTEXT_DEPENDENT_SHAPE_REPRESENTATION(#21,#1072);
#26=NEXT_ASSEMBLY_USAGE_OCCURRENCE('Slider:1','Slider:1','Slider:1',#1079,
#1080,'Slider:1');
#27=NEXT_ASSEMBLY_USAGE_OCCURRENCE('Link:1','Link:1','Link:1',#1079,#1081,
'Link:1');
#28=NEXT_ASSEMBLY_USAGE_OCCURRENCE('Crank:1','Crank:1','Crank:1',#1079,
#1082,'Crank:1');
#29=NEXT_ASSEMBLY_USAGE_OCCURRENCE('Slider outlet:1','Slider outlet:1',
'Slider outlet:1',#1079,#1083,'Slider outlet:1');
#30=FACE_BOUND('',#142,.T.);
#31=FACE_BOUND('',#143,.T.);
#32=FACE_BOUND('',#145,.T.);
#33=FACE_BOUND('',#146,.T.);
#34=FACE_BOUND('',#150,.T.);
#35=FACE_BOUND('',#152,.T.);
#36=FACE_BOUND('',#167,.T.);
#37=FACE_BOUND('',#169,.T.);
#38=FACE_BOUND('',#170,.T.);
#39=SHAPE_REPRESENTATION_RELATIONSHIP('SRR','None',#1074,#43);
#40=SHAPE_REPRESENTATION_RELATIONSHIP('SRR','None',#1075,#44);
#41=SHAPE_REPRESENTATION_RELATIONSHIP('SRR','None',#1076,#45);
#42=SHAPE_REPRESENTATION_RELATIONSHIP('SRR','None',#1077,#46);
#43=ADVANCED_BREP_SHAPE_REPRESENTATION('',(#84,#85),#1050);
#44=ADVANCED_BREP_SHAPE_REPRESENTATION('',(#86),#1051);
#45=ADVANCED_BREP_SHAPE_REPRESENTATION('',(#87,#88),#1052);
#46=ADVANCED_BREP_SHAPE_REPRESENTATION('',(#89),#1053);
#47=CIRCLE('',#644,2.5);
#48=CIRCLE('',#645,2.5);
#49=CIRCLE('',#650,2.5);
#50=CIRCLE('',#651,2.5);
#51=CIRCLE('',#653,2.5);
#52=CIRCLE('',#654,2.5);
#53=CIRCLE('',#657,4.00000005960464);
#54=CIRCLE('',#658,4.00000005960464);
#55=CIRCLE('',#661,4.00000005960464);
#56=CIRCLE('',#662,4.00000005960464);
#57=CIRCLE('',#667,2.5);
#58=CIRCLE('',#668,2.5);
#59=CIRCLE('',#670,25.);
#60=CIRCLE('',#671,25.);
#61=CIRCLE('',#675,2.5);
#62=CIRCLE('',#676,2.5);
#63=CIRCLE('',#681,2.5);
#64=CIRCLE('',#682,2.5);
#65=CIRCLE('',#686,25.);
#66=CIRCLE('',#687,25.);
#67=CYLINDRICAL_SURFACE('',#643,2.5);
#68=CYLINDRICAL_SURFACE('',#649,2.5);
#69=CYLINDRICAL_SURFACE('',#652,2.5);
#70=CYLINDRICAL_SURFACE('',#656,4.00000005960464);
#71=CYLINDRICAL_SURFACE('',#660,4.00000005960464);
#72=CYLINDRICAL_SURFACE('',#666,2.5);
#73=CYLINDRICAL_SURFACE('',#669,25.);
#74=CYLINDRICAL_SURFACE('',#674,2.5);
#75=CYLINDRICAL_SURFACE('',#680,2.5);
#76=CYLINDRICAL_SURFACE('',#685,25.);
#77=STYLED_ITEM('',(#1104),#84);
#78=STYLED_ITEM('',(#1102),#85);
#79=STYLED_ITEM('',(#1105),#86);
#80=STYLED_ITEM('',(#1103),#87);
#81=STYLED_ITEM('',(#1103),#88);
#82=STYLED_ITEM('',(#1106),#89);
#83=STYLED_ITEM('',(#1107),#12);
#84=MANIFOLD_SOLID_BREP('Body1',#584);
#85=MANIFOLD_SOLID_BREP('Body2',#585);
#86=MANIFOLD_SOLID_BREP('Body1',#586);
#87=MANIFOLD_SOLID_BREP('Body1',#587);
#88=MANIFOLD_SOLID_BREP('Body2',#588);
#89=MANIFOLD_SOLID_BREP('Body4',#589);
#90=FACE_OUTER_BOUND('',#126,.T.);
#91=FACE_OUTER_BOUND('',#127,.T.);
#92=FACE_OUTER_BOUND('',#128,.T.);
#93=FACE_OUTER_BOUND('',#129,.T.);
#94=FACE_OUTER_BOUND('',#130,.T.);
#95=FACE_OUTER_BOUND('',#131,.T.);
#96=FACE_OUTER_BOUND('',#132,.T.);
#97=FACE_OUTER_BOUND('',#133,.T.);
#98=FACE_OUTER_BOUND('',#134,.T.);
#99=FACE_OUTER_BOUND('',#135,.T.);
#100=FACE_OUTER_BOUND('',#136,.T.);
#101=FACE_OUTER_BOUND('',#137,.T.);
#102=FACE_OUTER_BOUND('',#138,.T.);
#103=FACE_OUTER_BOUND('',#139,.T.);
#104=FACE_OUTER_BOUND('',#140,.T.);
#105=FACE_OUTER_BOUND('',#141,.T.);
#106=FACE_OUTER_BOUND('',#144,.T.);
#107=FACE_OUTER_BOUND('',#147,.T.);
#108=FACE_OUTER_BOUND('',#148,.T.);
#109=FACE_OUTER_BOUND('',#149,.T.);
#110=FACE_OUTER_BOUND('',#151,.T.);
#111=FACE_OUTER_BOUND('',#153,.T.);
#112=FACE_OUTER_BOUND('',#154,.T.);
#113=FACE_OUTER_BOUND('',#155,.T.);
#114=FACE_OUTER_BOUND('',#156,.T.);
#115=FACE_OUTER_BOUND('',#157,.T.);
#116=FACE_OUTER_BOUND('',#158,.T.);
#117=FACE_OUTER_BOUND('',#159,.T.);
#118=FACE_OUTER_BOUND('',#160,.T.);
#119=FACE_OUTER_BOUND('',#161,.T.);
#120=FACE_OUTER_BOUND('',#162,.T.);
#121=FACE_OUTER_BOUND('',#163,.T.);
#122=FACE_OUTER_BOUND('',#164,.T.);
#123=FACE_OUTER_BOUND('',#165,.T.);
#124=FACE_OUTER_BOUND('',#166,.T.);
#125=FACE_OUTER_BOUND('',#168,.T.);
#126=EDGE_LOOP('',(#384,#385,#386,#387));
#127=EDGE_LOOP('',(#388,#389,#390,#391));
#128=EDGE_LOOP('',(#392,#393,#394,#395));
#129=EDGE_LOOP('',(#396,#397,#398,#399));
#130=EDGE_LOOP('',(#400,#401,#402,#403));
#131=EDGE_LOOP('',(#404,#405,#406,#407));
#132=EDGE_LOOP('',(#408,#409,#410,#411));
#133=EDGE_LOOP('',(#412));
#134=EDGE_LOOP('',(#413));
#135=EDGE_LOOP('',(#414,#415,#416,#417));
#136=EDGE_LOOP('',(#418,#419,#420,#421));
#137=EDGE_LOOP('',(#422,#423,#424,#425));
#138=EDGE_LOOP('',(#426,#427,#428,#429));
#139=EDGE_LOOP('',(#430,#431,#432,#433));
#140=EDGE_LOOP('',(#434,#435,#436,#437));
#141=EDGE_LOOP('',(#438,#439,#440,#441));
#142=EDGE_LOOP('',(#442));
#143=EDGE_LOOP('',(#443));
#144=EDGE_LOOP('',(#444,#445,#446,#447));
#145=EDGE_LOOP('',(#448));
#146=EDGE_LOOP('',(#449));
#147=EDGE_LOOP('',(#450,#451,#452,#453));
#148=EDGE_LOOP('',(#454,#455,#456,#457));
#149=EDGE_LOOP('',(#458));
#150=EDGE_LOOP('',(#459));
#151=EDGE_LOOP('',(#460));
#152=EDGE_LOOP('',(#461));
#153=EDGE_LOOP('',(#462,#463,#464,#465));
#154=EDGE_LOOP('',(#466));
#155=EDGE_LOOP('',(#467));
#156=EDGE_LOOP('',(#468,#469,#470,#471));
#157=EDGE_LOOP('',(#472));
#158=EDGE_LOOP('',(#473,#474,#475,#476));
#159=EDGE_LOOP('',(#477,#478,#479,#480));
#160=EDGE_LOOP('',(#481,#482,#483,#484));
#161=EDGE_LOOP('',(#485,#486,#487,#488));
#162=EDGE_LOOP('',(#489,#490,#491,#492));
#163=EDGE_LOOP('',(#493,#494,#495,#496));
#164=EDGE_LOOP('',(#497,#498,#499,#500));
#165=EDGE_LOOP('',(#501,#502,#503,#504));
#166=EDGE_LOOP('',(#505,#506,#507,#508));
#167=EDGE_LOOP('',(#509,#510,#511,#512));
#168=EDGE_LOOP('',(#513,#514,#515,#516));
#169=EDGE_LOOP('',(#517));
#170=EDGE_LOOP('',(#518,#519,#520,#521));
#171=LINE('',#887,#220);
#172=LINE('',#889,#221);
#173=LINE('',#891,#222);
#174=LINE('',#892,#223);
#175=LINE('',#895,#224);
#176=LINE('',#897,#225);
#177=LINE('',#898,#226);
#178=LINE('',#901,#227);
#179=LINE('',#903,#228);
#180=LINE('',#904,#229);
#181=LINE('',#906,#230);
#182=LINE('',#907,#231);
#183=LINE('',#914,#232);
#184=LINE('',#923,#233);
#185=LINE('',#929,#234);
#186=LINE('',#934,#235);
#187=LINE('',#936,#236);
#188=LINE('',#938,#237);
#189=LINE('',#939,#238);
#190=LINE('',#945,#239);
#191=LINE('',#948,#240);
#192=LINE('',#950,#241);
#193=LINE('',#951,#242);
#194=LINE('',#962,#243);
#195=LINE('',#968,#244);
#196=LINE('',#976,#245);
#197=LINE('',#985,#246);
#198=LINE('',#991,#247);
#199=LINE('',#993,#248);
#200=LINE('',#995,#249);
#201=LINE('',#996,#250);
#202=LINE('',#1002,#251);
#203=LINE('',#1005,#252);
#204=LINE('',#1007,#253);
#205=LINE('',#1008,#254);
#206=LINE('',#1010,#255);
#207=LINE('',#1011,#256);
#208=LINE('',#1015,#257);
#209=LINE('',#1017,#258);
#210=LINE('',#1019,#259);
#211=LINE('',#1020,#260);
#212=LINE('',#1023,#261);
#213=LINE('',#1025,#262);
#214=LINE('',#1026,#263);
#215=LINE('',#1029,#264);
#216=LINE('',#1031,#265);
#217=LINE('',#1032,#266);
#218=LINE('',#1034,#267);
#219=LINE('',#1035,#268);
#220=VECTOR('',#707,10.);
#221=VECTOR('',#708,10.);
#222=VECTOR('',#709,10.);
#223=VECTOR('',#710,10.);
#224=VECTOR('',#713,10.);
#225=VECTOR('',#714,10.);
#226=VECTOR('',#715,10.);
#227=VECTOR('',#718,10.);
#228=VECTOR('',#719,10.);
#229=VECTOR('',#720,10.);
#230=VECTOR('',#723,10.);
#231=VECTOR('',#724,10.);
#232=VECTOR('',#733,2.5);
#233=VECTOR('',#746,2.5);
#234=VECTOR('',#753,2.5);
#235=VECTOR('',#758,10.);
#236=VECTOR('',#759,10.);
#237=VECTOR('',#760,10.);
#238=VECTOR('',#761,10.);
#239=VECTOR('',#768,10.);
#240=VECTOR('',#771,10.);
#241=VECTOR('',#772,10.);
#242=VECTOR('',#773,10.);
#243=VECTOR('',#790,2.5);
#244=VECTOR('',#797,25.);
#245=VECTOR('',#808,2.5);
#246=VECTOR('',#821,2.5);
#247=VECTOR('',#828,10.);
#248=VECTOR('',#829,10.);
#249=VECTOR('',#830,10.);
#250=VECTOR('',#831,10.);
#251=VECTOR('',#838,10.);
#252=VECTOR('',#841,10.);
#253=VECTOR('',#842,10.);
#254=VECTOR('',#843,10.);
#255=VECTOR('',#846,10.);
#256=VECTOR('',#847,10.);
#257=VECTOR('',#850,10.);
#258=VECTOR('',#851,10.);
#259=VECTOR('',#852,10.);
#260=VECTOR('',#853,10.);
#261=VECTOR('',#856,10.);
#262=VECTOR('',#857,10.);
#263=VECTOR('',#858,10.);
#264=VECTOR('',#861,10.);
#265=VECTOR('',#862,10.);
#266=VECTOR('',#863,10.);
#267=VECTOR('',#866,10.);
#268=VECTOR('',#867,10.);
#269=VERTEX_POINT('',#885);
#270=VERTEX_POINT('',#886);
#271=VERTEX_POINT('',#888);
#272=VERTEX_POINT('',#890);
#273=VERTEX_POINT('',#894);
#274=VERTEX_POINT('',#896);
#275=VERTEX_POINT('',#900);
#276=VERTEX_POINT('',#902);
#277=VERTEX_POINT('',#911);
#278=VERTEX_POINT('',#913);
#279=VERTEX_POINT('',#920);
#280=VERTEX_POINT('',#922);
#281=VERTEX_POINT('',#926);
#282=VERTEX_POINT('',#928);
#283=VERTEX_POINT('',#932);
#284=VERTEX_POINT('',#933);
#285=VERTEX_POINT('',#935);
#286=VERTEX_POINT('',#937);
#287=VERTEX_POINT('',#941);
#288=VERTEX_POINT('',#943);
#289=VERTEX_POINT('',#947);
#290=VERTEX_POINT('',#949);
#291=VERTEX_POINT('',#959);
#292=VERTEX_POINT('',#961);
#293=VERTEX_POINT('',#965);
#294=VERTEX_POINT('',#967);
#295=VERTEX_POINT('',#973);
#296=VERTEX_POINT('',#975);
#297=VERTEX_POINT('',#982);
#298=VERTEX_POINT('',#984);
#299=VERTEX_POINT('',#989);
#300=VERTEX_POINT('',#990);
#301=VERTEX_POINT('',#992);
#302=VERTEX_POINT('',#994);
#303=VERTEX_POINT('',#998);
#304=VERTEX_POINT('',#1000);
#305=VERTEX_POINT('',#1004);
#306=VERTEX_POINT('',#1006);
#307=VERTEX_POINT('',#1013);
#308=VERTEX_POINT('',#1014);
#309=VERTEX_POINT('',#1016);
#310=VERTEX_POINT('',#1018);
#311=VERTEX_POINT('',#1022);
#312=VERTEX_POINT('',#1024);
#313=VERTEX_POINT('',#1028);
#314=VERTEX_POINT('',#1030);
#315=EDGE_CURVE('',#269,#270,#171,.T.);
#316=EDGE_CURVE('',#270,#271,#172,.T.);
#317=EDGE_CURVE('',#272,#271,#173,.T.);
#318=EDGE_CURVE('',#269,#272,#174,.T.);
#319=EDGE_CURVE('',#273,#269,#175,.T.);
#320=EDGE_CURVE('',#274,#272,#176,.T.);
#321=EDGE_CURVE('',#273,#274,#177,.T.);
#322=EDGE_CURVE('',#275,#273,#178,.T.);
#323=EDGE_CURVE('',#276,#274,#179,.T.);
#324=EDGE_CURVE('',#275,#276,#180,.T.);
#325=EDGE_CURVE('',#270,#275,#181,.T.);
#326=EDGE_CURVE('',#271,#276,#182,.T.);
#327=EDGE_CURVE('',#277,#277,#47,.T.);
#328=EDGE_CURVE('',#277,#278,#183,.T.);
#329=EDGE_CURVE('',#278,#278,#48,.T.);
#330=EDGE_CURVE('',#279,#279,#49,.T.);
#331=EDGE_CURVE('',#279,#280,#184,.T.);
#332=EDGE_CURVE('',#280,#280,#50,.T.);
#333=EDGE_CURVE('',#281,#281,#51,.T.);
#334=EDGE_CURVE('',#281,#282,#185,.T.);
#335=EDGE_CURVE('',#282,#282,#52,.T.);
#336=EDGE_CURVE('',#283,#284,#186,.T.);
#337=EDGE_CURVE('',#283,#285,#187,.T.);
#338=EDGE_CURVE('',#286,#285,#188,.T.);
#339=EDGE_CURVE('',#284,#286,#189,.T.);
#340=EDGE_CURVE('',#284,#287,#53,.T.);
#341=EDGE_CURVE('',#288,#286,#54,.T.);
#342=EDGE_CURVE('',#287,#288,#190,.T.);
#343=EDGE_CURVE('',#287,#289,#191,.T.);
#344=EDGE_CURVE('',#290,#288,#192,.T.);
#345=EDGE_CURVE('',#289,#290,#193,.T.);
#346=EDGE_CURVE('',#289,#283,#55,.T.);
#347=EDGE_CURVE('',#285,#290,#56,.T.);
#348=EDGE_CURVE('',#291,#291,#57,.T.);
#349=EDGE_CURVE('',#291,#292,#194,.T.);
#350=EDGE_CURVE('',#292,#292,#58,.T.);
#351=EDGE_CURVE('',#293,#293,#59,.T.);
#352=EDGE_CURVE('',#293,#294,#195,.T.);
#353=EDGE_CURVE('',#294,#294,#60,.T.);
#354=EDGE_CURVE('',#295,#295,#61,.T.);
#355=EDGE_CURVE('',#295,#296,#196,.T.);
#356=EDGE_CURVE('',#296,#296,#62,.T.);
#357=EDGE_CURVE('',#297,#297,#63,.T.);
#358=EDGE_CURVE('',#297,#298,#197,.T.);
#359=EDGE_CURVE('',#298,#298,#64,.T.);
#360=EDGE_CURVE('',#299,#300,#198,.T.);
#361=EDGE_CURVE('',#300,#301,#199,.T.);
#362=EDGE_CURVE('',#302,#301,#200,.T.);
#363=EDGE_CURVE('',#299,#302,#201,.T.);
#364=EDGE_CURVE('',#303,#299,#65,.T.);
#365=EDGE_CURVE('',#304,#302,#66,.T.);
#366=EDGE_CURVE('',#303,#304,#202,.T.);
#367=EDGE_CURVE('',#305,#303,#203,.T.);
#368=EDGE_CURVE('',#306,#304,#204,.T.);
#369=EDGE_CURVE('',#305,#306,#205,.T.);
#370=EDGE_CURVE('',#300,#305,#206,.T.);
#371=EDGE_CURVE('',#301,#306,#207,.T.);
#372=EDGE_CURVE('',#307,#308,#208,.T.);
#373=EDGE_CURVE('',#307,#309,#209,.T.);
#374=EDGE_CURVE('',#310,#309,#210,.T.);
#375=EDGE_CURVE('',#308,#310,#211,.T.);
#376=EDGE_CURVE('',#308,#311,#212,.T.);
#377=EDGE_CURVE('',#312,#310,#213,.T.);
#378=EDGE_CURVE('',#311,#312,#214,.T.);
#379=EDGE_CURVE('',#311,#313,#215,.T.);
#380=EDGE_CURVE('',#314,#312,#216,.T.);
#381=EDGE_CURVE('',#313,#314,#217,.T.);
#382=EDGE_CURVE('',#313,#307,#218,.T.);
#383=EDGE_CURVE('',#309,#314,#219,.T.);
#384=ORIENTED_EDGE('',*,*,#315,.T.);
#385=ORIENTED_EDGE('',*,*,#316,.T.);
#386=ORIENTED_EDGE('',*,*,#317,.F.);
#387=ORIENTED_EDGE('',*,*,#318,.F.);
#388=ORIENTED_EDGE('',*,*,#319,.T.);
#389=ORIENTED_EDGE('',*,*,#318,.T.);
#390=ORIENTED_EDGE('',*,*,#320,.F.);
#391=ORIENTED_EDGE('',*,*,#321,.F.);
#392=ORIENTED_EDGE('',*,*,#322,.T.);
#393=ORIENTED_EDGE('',*,*,#321,.T.);
#394=ORIENTED_EDGE('',*,*,#323,.F.);
#395=ORIENTED_EDGE('',*,*,#324,.F.);
#396=ORIENTED_EDGE('',*,*,#325,.T.);
#397=ORIENTED_EDGE('',*,*,#324,.T.);
#398=ORIENTED_EDGE('',*,*,#326,.F.);
#399=ORIENTED_EDGE('',*,*,#316,.F.);
#400=ORIENTED_EDGE('',*,*,#326,.T.);
#401=ORIENTED_EDGE('',*,*,#323,.T.);
#402=ORIENTED_EDGE('',*,*,#320,.T.);
#403=ORIENTED_EDGE('',*,*,#317,.T.);
#404=ORIENTED_EDGE('',*,*,#325,.F.);
#405=ORIENTED_EDGE('',*,*,#315,.F.);
#406=ORIENTED_EDGE('',*,*,#319,.F.);
#407=ORIENTED_EDGE('',*,*,#322,.F.);
#408=ORIENTED_EDGE('',*,*,#327,.F.);
#409=ORIENTED_EDGE('',*,*,#328,.T.);
#410=ORIENTED_EDGE('',*,*,#329,.F.);
#411=ORIENTED_EDGE('',*,*,#328,.F.);
#412=ORIENTED_EDGE('',*,*,#329,.T.);
#413=ORIENTED_EDGE('',*,*,#327,.T.);
#414=ORIENTED_EDGE('',*,*,#330,.F.);
#415=ORIENTED_EDGE('',*,*,#331,.T.);
#416=ORIENTED_EDGE('',*,*,#332,.F.);
#417=ORIENTED_EDGE('',*,*,#331,.F.);
#418=ORIENTED_EDGE('',*,*,#333,.F.);
#419=ORIENTED_EDGE('',*,*,#334,.T.);
#420=ORIENTED_EDGE('',*,*,#335,.F.);
#421=ORIENTED_EDGE('',*,*,#334,.F.);
#422=ORIENTED_EDGE('',*,*,#336,.F.);
#423=ORIENTED_EDGE('',*,*,#337,.T.);
#424=ORIENTED_EDGE('',*,*,#338,.F.);
#425=ORIENTED_EDGE('',*,*,#339,.F.);
#426=ORIENTED_EDGE('',*,*,#340,.F.);
#427=ORIENTED_EDGE('',*,*,#339,.T.);
#428=ORIENTED_EDGE('',*,*,#341,.F.);
#429=ORIENTED_EDGE('',*,*,#342,.F.);
#430=ORIENTED_EDGE('',*,*,#343,.F.);
#431=ORIENTED_EDGE('',*,*,#342,.T.);
#432=ORIENTED_EDGE('',*,*,#344,.F.);
#433=ORIENTED_EDGE('',*,*,#345,.F.);
#434=ORIENTED_EDGE('',*,*,#346,.F.);
#435=ORIENTED_EDGE('',*,*,#345,.T.);
#436=ORIENTED_EDGE('',*,*,#347,.F.);
#437=ORIENTED_EDGE('',*,*,#337,.F.);
#438=ORIENTED_EDGE('',*,*,#346,.T.);
#439=ORIENTED_EDGE('',*,*,#336,.T.);
#440=ORIENTED_EDGE('',*,*,#340,.T.);
#441=ORIENTED_EDGE('',*,*,#343,.T.);
#442=ORIENTED_EDGE('',*,*,#335,.T.);
#443=ORIENTED_EDGE('',*,*,#332,.T.);
#444=ORIENTED_EDGE('',*,*,#347,.T.);
#445=ORIENTED_EDGE('',*,*,#344,.T.);
#446=ORIENTED_EDGE('',*,*,#341,.T.);
#447=ORIENTED_EDGE('',*,*,#338,.T.);
#448=ORIENTED_EDGE('',*,*,#333,.T.);
#449=ORIENTED_EDGE('',*,*,#330,.T.);
#450=ORIENTED_EDGE('',*,*,#348,.F.);
#451=ORIENTED_EDGE('',*,*,#349,.T.);
#452=ORIENTED_EDGE('',*,*,#350,.T.);
#453=ORIENTED_EDGE('',*,*,#349,.F.);
#454=ORIENTED_EDGE('',*,*,#351,.F.);
#455=ORIENTED_EDGE('',*,*,#352,.T.);
#456=ORIENTED_EDGE('',*,*,#353,.T.);
#457=ORIENTED_EDGE('',*,*,#352,.F.);
#458=ORIENTED_EDGE('',*,*,#351,.T.);
#459=ORIENTED_EDGE('',*,*,#348,.T.);
#460=ORIENTED_EDGE('',*,*,#353,.F.);
#461=ORIENTED_EDGE('',*,*,#350,.F.);
#462=ORIENTED_EDGE('',*,*,#354,.F.);
#463=ORIENTED_EDGE('',*,*,#355,.T.);
#464=ORIENTED_EDGE('',*,*,#356,.F.);
#465=ORIENTED_EDGE('',*,*,#355,.F.);
#466=ORIENTED_EDGE('',*,*,#356,.T.);
#467=ORIENTED_EDGE('',*,*,#354,.T.);
#468=ORIENTED_EDGE('',*,*,#357,.T.);
#469=ORIENTED_EDGE('',*,*,#358,.T.);
#470=ORIENTED_EDGE('',*,*,#359,.F.);
#471=ORIENTED_EDGE('',*,*,#358,.F.);
#472=ORIENTED_EDGE('',*,*,#357,.F.);
#473=ORIENTED_EDGE('',*,*,#360,.T.);
#474=ORIENTED_EDGE('',*,*,#361,.T.);
#475=ORIENTED_EDGE('',*,*,#362,.F.);
#476=ORIENTED_EDGE('',*,*,#363,.F.);
#477=ORIENTED_EDGE('',*,*,#364,.T.);
#478=ORIENTED_EDGE('',*,*,#363,.T.);
#479=ORIENTED_EDGE('',*,*,#365,.F.);
#480=ORIENTED_EDGE('',*,*,#366,.F.);
#481=ORIENTED_EDGE('',*,*,#367,.T.);
#482=ORIENTED_EDGE('',*,*,#366,.T.);
#483=ORIENTED_EDGE('',*,*,#368,.F.);
#484=ORIENTED_EDGE('',*,*,#369,.F.);
#485=ORIENTED_EDGE('',*,*,#370,.T.);
#486=ORIENTED_EDGE('',*,*,#369,.T.);
#487=ORIENTED_EDGE('',*,*,#371,.F.);
#488=ORIENTED_EDGE('',*,*,#361,.F.);
#489=ORIENTED_EDGE('',*,*,#372,.F.);
#490=ORIENTED_EDGE('',*,*,#373,.T.);
#491=ORIENTED_EDGE('',*,*,#374,.F.);
#492=ORIENTED_EDGE('',*,*,#375,.F.);
#493=ORIENTED_EDGE('',*,*,#376,.F.);
#494=ORIENTED_EDGE('',*,*,#375,.T.);
#495=ORIENTED_EDGE('',*,*,#377,.F.);
#496=ORIENTED_EDGE('',*,*,#378,.F.);
#497=ORIENTED_EDGE('',*,*,#379,.F.);
#498=ORIENTED_EDGE('',*,*,#378,.T.);
#499=ORIENTED_EDGE('',*,*,#380,.F.);
#500=ORIENTED_EDGE('',*,*,#381,.F.);
#501=ORIENTED_EDGE('',*,*,#382,.F.);
#502=ORIENTED_EDGE('',*,*,#381,.T.);
#503=ORIENTED_EDGE('',*,*,#383,.F.);
#504=ORIENTED_EDGE('',*,*,#373,.F.);
#505=ORIENTED_EDGE('',*,*,#383,.T.);
#506=ORIENTED_EDGE('',*,*,#380,.T.);
#507=ORIENTED_EDGE('',*,*,#377,.T.);
#508=ORIENTED_EDGE('',*,*,#374,.T.);
#509=ORIENTED_EDGE('',*,*,#371,.T.);
#510=ORIENTED_EDGE('',*,*,#368,.T.);
#511=ORIENTED_EDGE('',*,*,#365,.T.);
#512=ORIENTED_EDGE('',*,*,#362,.T.);
#513=ORIENTED_EDGE('',*,*,#382,.T.);
#514=ORIENTED_EDGE('',*,*,#372,.T.);
#515=ORIENTED_EDGE('',*,*,#376,.T.);
#516=ORIENTED_EDGE('',*,*,#379,.T.);
#517=ORIENTED_EDGE('',*,*,#359,.T.);
#518=ORIENTED_EDGE('',*,*,#370,.F.);
#519=ORIENTED_EDGE('',*,*,#360,.F.);
#520=ORIENTED_EDGE('',*,*,#364,.F.);
#521=ORIENTED_EDGE('',*,*,#367,.F.);
#522=PLANE('',#637);
#523=PLANE('',#638);
#524=PLANE('',#639);
#525=PLANE('',#640);
#526=PLANE('',#641);
#527=PLANE('',#642);
#528=PLANE('',#646);
#529=PLANE('',#647);
#530=PLANE('',#655);
#531=PLANE('',#659);
#532=PLANE('',#663);
#533=PLANE('',#664);
#534=PLANE('',#672);
#535=PLANE('',#673);
#536=PLANE('',#677);
#537=PLANE('',#678);
#538=PLANE('',#683);
#539=PLANE('',#684);
#540=PLANE('',#688);
#541=PLANE('',#689);
#542=PLANE('',#690);
#543=PLANE('',#691);
#544=PLANE('',#692);
#545=PLANE('',#693);
#546=PLANE('',#694);
#547=PLANE('',#695);
#548=ADVANCED_FACE('',(#90),#522,.T.);
#549=ADVANCED_FACE('',(#91),#523,.T.);
#550=ADVANCED_FACE('',(#92),#524,.T.);
#551=ADVANCED_FACE('',(#93),#525,.T.);
#552=ADVANCED_FACE('',(#94),#526,.T.);
#553=ADVANCED_FACE('',(#95),#527,.F.);
#554=ADVANCED_FACE('',(#96),#67,.T.);
#555=ADVANCED_FACE('',(#97),#528,.T.);
#556=ADVANCED_FACE('',(#98),#529,.F.);
#557=ADVANCED_FACE('',(#99),#68,.F.);
#558=ADVANCED_FACE('',(#100),#69,.F.);
#559=ADVANCED_FACE('',(#101),#530,.T.);
#560=ADVANCED_FACE('',(#102),#70,.T.);
#561=ADVANCED_FACE('',(#103),#531,.T.);
#562=ADVANCED_FACE('',(#104),#71,.T.);
#563=ADVANCED_FACE('',(#105,#30,#31),#532,.T.);
#564=ADVANCED_FACE('',(#106,#32,#33),#533,.F.);
#565=ADVANCED_FACE('',(#107),#72,.F.);
#566=ADVANCED_FACE('',(#108),#73,.T.);
#567=ADVANCED_FACE('',(#109,#34),#534,.T.);
#568=ADVANCED_FACE('',(#110,#35),#535,.F.);
#569=ADVANCED_FACE('',(#111),#74,.T.);
#570=ADVANCED_FACE('',(#112),#536,.T.);
#571=ADVANCED_FACE('',(#113),#537,.F.);
#572=ADVANCED_FACE('',(#114),#75,.T.);
#573=ADVANCED_FACE('',(#115),#538,.T.);
#574=ADVANCED_FACE('',(#116),#539,.T.);
#575=ADVANCED_FACE('',(#117),#76,.T.);
#576=ADVANCED_FACE('',(#118),#540,.T.);
#577=ADVANCED_FACE('',(#119),#541,.T.);
#578=ADVANCED_FACE('',(#120),#542,.T.);
#579=ADVANCED_FACE('',(#121),#543,.T.);
#580=ADVANCED_FACE('',(#122),#544,.T.);
#581=ADVANCED_FACE('',(#123),#545,.T.);
#582=ADVANCED_FACE('',(#124,#36),#546,.T.);
#583=ADVANCED_FACE('',(#125,#37,#38),#547,.F.);
#584=CLOSED_SHELL('',(#548,#549,#550,#551,#552,#553));
#585=CLOSED_SHELL('',(#554,#555,#556));
#586=CLOSED_SHELL('',(#557,#558,#559,#560,#561,#562,#563,#564));
#587=CLOSED_SHELL('',(#565,#566,#567,#568));
#588=CLOSED_SHELL('',(#569,#570,#571));
#589=CLOSED_SHELL('',(#572,#573,#574,#575,#576,#577,#578,#579,#580,#581,
#582,#583));
#590=DERIVED_UNIT_ELEMENT(#598,1.);
#591=DERIVED_UNIT_ELEMENT(#1056,-3.);
#592=DERIVED_UNIT_ELEMENT(#598,1.);
#593=DERIVED_UNIT_ELEMENT(#1056,-3.);
#594=DERIVED_UNIT_ELEMENT(#598,1.);
#595=DERIVED_UNIT_ELEMENT(#1056,-3.);
#596=DERIVED_UNIT_ELEMENT(#598,1.);
#597=DERIVED_UNIT_ELEMENT(#1056,-3.);
#598=(
MASS_UNIT()
NAMED_UNIT(*)
SI_UNIT(.KILO.,.GRAM.)
);
#599=DERIVED_UNIT((#590,#591));
#600=DERIVED_UNIT((#592,#593));
#601=DERIVED_UNIT((#594,#595));
#602=DERIVED_UNIT((#596,#597));
#603=MEASURE_REPRESENTATION_ITEM('density measure',
POSITIVE_RATIO_MEASURE(7850.),#599);
#604=MEASURE_REPRESENTATION_ITEM('density measure',
POSITIVE_RATIO_MEASURE(7850.),#600);
#605=MEASURE_REPRESENTATION_ITEM('density measure',
POSITIVE_RATIO_MEASURE(7850.),#601);
#606=MEASURE_REPRESENTATION_ITEM('density measure',
POSITIVE_RATIO_MEASURE(7850.),#602);
#607=PROPERTY_DEFINITION_REPRESENTATION(#627,#615);
#608=PROPERTY_DEFINITION_REPRESENTATION(#628,#616);
#609=PROPERTY_DEFINITION_REPRESENTATION(#629,#617);
#610=PROPERTY_DEFINITION_REPRESENTATION(#630,#618);
#611=PROPERTY_DEFINITION_REPRESENTATION(#631,#619);
#612=PROPERTY_DEFINITION_REPRESENTATION(#632,#620);
#613=PROPERTY_DEFINITION_REPRESENTATION(#633,#621);
#614=PROPERTY_DEFINITION_REPRESENTATION(#634,#622);
#615=REPRESENTATION('material name',(#623),#1050);
#616=REPRESENTATION('density',(#603),#1050);
#617=REPRESENTATION('material name',(#624),#1051);
#618=REPRESENTATION('density',(#604),#1051);
#619=REPRESENTATION('material name',(#625),#1052);
#620=REPRESENTATION('density',(#605),#1052);
#621=REPRESENTATION('material name',(#626),#1053);
#622=REPRESENTATION('density',(#606),#1053);
#623=DESCRIPTIVE_REPRESENTATION_ITEM('Steel','Steel');
#624=DESCRIPTIVE_REPRESENTATION_ITEM('Steel','Steel');
#625=DESCRIPTIVE_REPRESENTATION_ITEM('Steel','Steel');
#626=DESCRIPTIVE_REPRESENTATION_ITEM('Steel','Steel');
#627=PROPERTY_DEFINITION('material property','material name',#1080);
#628=PROPERTY_DEFINITION('material property','density of part',#1080);
#629=PROPERTY_DEFINITION('material property','material name',#1081);
#630=PROPERTY_DEFINITION('material property','density of part',#1081);
#631=PROPERTY_DEFINITION('material property','material name',#1082);
#632=PROPERTY_DEFINITION('material property','density of part',#1082);
#633=PROPERTY_DEFINITION('material property','material name',#1083);
#634=PROPERTY_DEFINITION('material property','density of part',#1083);
#635=AXIS2_PLACEMENT_3D('',#882,#701,#702);
#636=AXIS2_PLACEMENT_3D('',#883,#703,#704);
#637=AXIS2_PLACEMENT_3D('',#884,#705,#706);
#638=AXIS2_PLACEMENT_3D('',#893,#711,#712);
#639=AXIS2_PLACEMENT_3D('',#899,#716,#717);
#640=AXIS2_PLACEMENT_3D('',#905,#721,#722);
#641=AXIS2_PLACEMENT_3D('',#908,#725,#726);
#642=AXIS2_PLACEMENT_3D('',#909,#727,#728);
#643=AXIS2_PLACEMENT_3D('',#910,#729,#730);
#644=AXIS2_PLACEMENT_3D('',#912,#731,#732);
#645=AXIS2_PLACEMENT_3D('',#915,#734,#735);
#646=AXIS2_PLACEMENT_3D('',#916,#736,#737);
#647=AXIS2_PLACEMENT_3D('',#917,#738,#739);
#648=AXIS2_PLACEMENT_3D('',#918,#740,#741);
#649=AXIS2_PLACEMENT_3D('',#919,#742,#743);
#650=AXIS2_PLACEMENT_3D('',#921,#744,#745);
#651=AXIS2_PLACEMENT_3D('',#924,#747,#748);
#652=AXIS2_PLACEMENT_3D('',#925,#749,#750);
#653=AXIS2_PLACEMENT_3D('',#927,#751,#752);
#654=AXIS2_PLACEMENT_3D('',#930,#754,#755);
#655=AXIS2_PLACEMENT_3D('',#931,#756,#757);
#656=AXIS2_PLACEMENT_3D('',#940,#762,#763);
#657=AXIS2_PLACEMENT_3D('',#942,#764,#765);
#658=AXIS2_PLACEMENT_3D('',#944,#766,#767);
#659=AXIS2_PLACEMENT_3D('',#946,#769,#770);
#660=AXIS2_PLACEMENT_3D('',#952,#774,#775);
#661=AXIS2_PLACEMENT_3D('',#953,#776,#777);
#662=AXIS2_PLACEMENT_3D('',#954,#778,#779);
#663=AXIS2_PLACEMENT_3D('',#955,#780,#781);
#664=AXIS2_PLACEMENT_3D('',#956,#782,#783);
#665=AXIS2_PLACEMENT_3D('',#957,#784,#785);
#666=AXIS2_PLACEMENT_3D('',#958,#786,#787);
#667=AXIS2_PLACEMENT_3D('',#960,#788,#789);
#668=AXIS2_PLACEMENT_3D('',#963,#791,#792);
#669=AXIS2_PLACEMENT_3D('',#964,#793,#794);
#670=AXIS2_PLACEMENT_3D('',#966,#795,#796);
#671=AXIS2_PLACEMENT_3D('',#969,#798,#799);
#672=AXIS2_PLACEMENT_3D('',#970,#800,#801);
#673=AXIS2_PLACEMENT_3D('',#971,#802,#803);
#674=AXIS2_PLACEMENT_3D('',#972,#804,#805);
#675=AXIS2_PLACEMENT_3D('',#974,#806,#807);
#676=AXIS2_PLACEMENT_3D('',#977,#809,#810);
#677=AXIS2_PLACEMENT_3D('',#978,#811,#812);
#678=AXIS2_PLACEMENT_3D('',#979,#813,#814);
#679=AXIS2_PLACEMENT_3D('',#980,#815,#816);
#680=AXIS2_PLACEMENT_3D('',#981,#817,#818);
#681=AXIS2_PLACEMENT_3D('',#983,#819,#820);
#682=AXIS2_PLACEMENT_3D('',#986,#822,#823);
#683=AXIS2_PLACEMENT_3D('',#987,#824,#825);
#684=AXIS2_PLACEMENT_3D('',#988,#826,#827);
#685=AXIS2_PLACEMENT_3D('',#997,#832,#833);
#686=AXIS2_PLACEMENT_3D('',#999,#834,#835);
#687=AXIS2_PLACEMENT_3D('',#1001,#836,#837);
#688=AXIS2_PLACEMENT_3D('',#1003,#839,#840);
#689=AXIS2_PLACEMENT_3D('',#1009,#844,#845);
#690=AXIS2_PLACEMENT_3D('',#1012,#848,#849);
#691=AXIS2_PLACEMENT_3D('',#1021,#854,#855);
#692=AXIS2_PLACEMENT_3D('',#1027,#859,#860);
#693=AXIS2_PLACEMENT_3D('',#1033,#864,#865);
#694=AXIS2_PLACEMENT_3D('',#1036,#868,#869);
#695=AXIS2_PLACEMENT_3D('',#1037,#870,#871);
#696=AXIS2_PLACEMENT_3D('',#1038,#872,#873);
#697=AXIS2_PLACEMENT_3D('',#1039,#874,#875);
#698=AXIS2_PLACEMENT_3D('',#1040,#876,#877);
#699=AXIS2_PLACEMENT_3D('',#1041,#878,#879);
#700=AXIS2_PLACEMENT_3D('',#1042,#880,#881);
#701=DIRECTION('axis',(0.,0.,1.));
#702=DIRECTION('refdir',(1.,0.,0.));
#703=DIRECTION('axis',(0.,0.,1.));
#704=DIRECTION('refdir',(1.,0.,0.));
#705=DIRECTION('center_axis',(0.,0.,1.));
#706=DIRECTION('ref_axis',(1.,0.,0.));
#707=DIRECTION('',(1.,0.,0.));
#708=DIRECTION('',(0.,1.,0.));
#709=DIRECTION('',(1.,0.,0.));
#710=DIRECTION('',(0.,1.,0.));
#711=DIRECTION('center_axis',(-1.,0.,0.));
#712=DIRECTION('ref_axis',(0.,0.,1.));
#713=DIRECTION('',(0.,0.,1.));
#714=DIRECTION('',(0.,0.,1.));
#715=DIRECTION('',(0.,1.,0.));
#716=DIRECTION('center_axis',(0.,0.,-1.));
#717=DIRECTION('ref_axis',(-1.,0.,0.));
#718=DIRECTION('',(-1.,0.,0.));
#719=DIRECTION('',(-1.,0.,0.));
#720=DIRECTION('',(0.,1.,0.));
#721=DIRECTION('center_axis',(1.,0.,0.));
#722=DIRECTION('ref_axis',(0.,0.,-1.));
#723=DIRECTION('',(0.,0.,-1.));
#724=DIRECTION('',(0.,0.,-1.));
#725=DIRECTION('center_axis',(0.,1.,0.));
#726=DIRECTION('ref_axis',(0.,0.,1.));
#727=DIRECTION('center_axis',(0.,1.,0.));
#728=DIRECTION('ref_axis',(1.,0.,0.));
#729=DIRECTION('center_axis',(0.,-1.,0.));
#730=DIRECTION('ref_axis',(1.,0.,0.));
#731=DIRECTION('center_axis',(0.,-1.,0.));
#732=DIRECTION('ref_axis',(1.,0.,0.));
#733=DIRECTION('',(0.,1.,0.));
#734=DIRECTION('center_axis',(0.,1.,0.));
#735=DIRECTION('ref_axis',(1.,0.,0.));
#736=DIRECTION('center_axis',(0.,1.,0.));
#737=DIRECTION('ref_axis',(1.,0.,0.));
#738=DIRECTION('center_axis',(0.,1.,0.));
#739=DIRECTION('ref_axis',(1.,0.,0.));
#740=DIRECTION('axis',(0.,0.,1.));
#741=DIRECTION('refdir',(1.,0.,0.));
#742=DIRECTION('center_axis',(0.,1.,0.));
#743=DIRECTION('ref_axis',(1.,0.,0.));
#744=DIRECTION('center_axis',(0.,-1.,0.));
#745=DIRECTION('ref_axis',(1.,0.,0.));
#746=DIRECTION('',(0.,-1.,0.));
#747=DIRECTION('center_axis',(0.,1.,0.));
#748=DIRECTION('ref_axis',(1.,0.,0.));
#749=DIRECTION('center_axis',(0.,1.,0.));
#750=DIRECTION('ref_axis',(1.,0.,0.));
#751=DIRECTION('center_axis',(0.,-1.,0.));
#752=DIRECTION('ref_axis',(1.,0.,0.));
#753=DIRECTION('',(0.,-1.,0.));
#754=DIRECTION('center_axis',(0.,1.,0.));
#755=DIRECTION('ref_axis',(1.,0.,0.));
#756=DIRECTION('center_axis',(0.,0.,-1.));
#757=DIRECTION('ref_axis',(-1.,0.,0.));
#758=DIRECTION('',(1.,0.,0.));
#759=DIRECTION('',(0.,1.,0.));
#760=DIRECTION('',(-1.,0.,0.));
#761=DIRECTION('',(0.,1.,0.));
#762=DIRECTION('center_axis',(0.,1.,0.));
#763=DIRECTION('ref_axis',(0.,0.,-1.));
#764=DIRECTION('center_axis',(0.,-1.,0.));
#765=DIRECTION('ref_axis',(0.,0.,-1.));
#766=DIRECTION('center_axis',(0.,1.,0.));
#767=DIRECTION('ref_axis',(0.,0.,-1.));
#768=DIRECTION('',(0.,1.,0.));
#769=DIRECTION('center_axis',(0.,0.,1.));
#770=DIRECTION('ref_axis',(1.,0.,0.));
#771=DIRECTION('',(-1.,0.,0.));
#772=DIRECTION('',(1.,0.,0.));
#773=DIRECTION('',(0.,1.,0.));
#774=DIRECTION('center_axis',(0.,1.,0.));
#775=DIRECTION('ref_axis',(0.,0.,1.));
#776=DIRECTION('center_axis',(0.,-1.,0.));
#777=DIRECTION('ref_axis',(0.,0.,1.));
#778=DIRECTION('center_axis',(0.,1.,0.));
#779=DIRECTION('ref_axis',(0.,0.,1.));
#780=DIRECTION('center_axis',(0.,-1.,0.));
#781=DIRECTION('ref_axis',(1.,0.,0.));
#782=DIRECTION('center_axis',(0.,-1.,0.));
#783=DIRECTION('ref_axis',(1.,0.,0.));
#784=DIRECTION('axis',(0.,0.,1.));
#785=DIRECTION('refdir',(1.,0.,0.));
#786=DIRECTION('center_axis',(0.,1.,0.));
#787=DIRECTION('ref_axis',(1.,0.,0.));
#788=DIRECTION('center_axis',(0.,-1.,0.));
#789=DIRECTION('ref_axis',(1.,0.,0.));
#790=DIRECTION('',(0.,-1.,0.));
#791=DIRECTION('center_axis',(0.,-1.,0.));
#792=DIRECTION('ref_axis',(1.,0.,0.));
#793=DIRECTION('center_axis',(0.,1.,0.));
#794=DIRECTION('ref_axis',(1.,0.,0.));
#795=DIRECTION('center_axis',(0.,1.,0.));
#796=DIRECTION('ref_axis',(1.,0.,0.));
#797=DIRECTION('',(0.,-1.,0.));
#798=DIRECTION('center_axis',(0.,1.,0.));
#799=DIRECTION('ref_axis',(1.,0.,0.));
#800=DIRECTION('center_axis',(0.,1.,0.));
#801=DIRECTION('ref_axis',(1.,0.,0.));
#802=DIRECTION('center_axis',(0.,1.,0.));
#803=DIRECTION('ref_axis',(1.,0.,0.));
#804=DIRECTION('center_axis',(0.,-1.,0.));
#805=DIRECTION('ref_axis',(1.,0.,0.));
#806=DIRECTION('center_axis',(0.,-1.,0.));
#807=DIRECTION('ref_axis',(1.,0.,0.));
#808=DIRECTION('',(0.,1.,0.));
#809=DIRECTION('center_axis',(0.,1.,0.));
#810=DIRECTION('ref_axis',(1.,0.,0.));
#811=DIRECTION('center_axis',(0.,1.,0.));
#812=DIRECTION('ref_axis',(1.,0.,0.));
#813=DIRECTION('center_axis',(0.,1.,0.));
#814=DIRECTION('ref_axis',(1.,0.,0.));
#815=DIRECTION('axis',(0.,0.,1.));
#816=DIRECTION('refdir',(1.,0.,0.));
#817=DIRECTION('center_axis',(0.,-1.,0.));
#818=DIRECTION('ref_axis',(-1.,0.,0.));
#819=DIRECTION('center_axis',(0.,1.,0.));
#820=DIRECTION('ref_axis',(-1.,0.,0.));
#821=DIRECTION('',(0.,1.,0.));
#822=DIRECTION('center_axis',(0.,1.,0.));
#823=DIRECTION('ref_axis',(-1.,0.,0.));
#824=DIRECTION('center_axis',(0.,-1.,0.));
#825=DIRECTION('ref_axis',(0.,0.,-1.));
#826=DIRECTION('center_axis',(0.,0.,1.));
#827=DIRECTION('ref_axis',(1.,0.,0.));
#828=DIRECTION('',(1.,0.,0.));
#829=DIRECTION('',(0.,1.,0.));
#830=DIRECTION('',(1.,0.,0.));
#831=DIRECTION('',(0.,1.,0.));
#832=DIRECTION('center_axis',(0.,1.,0.));
#833=DIRECTION('ref_axis',(1.,0.,1.22464679914735E-16));
#834=DIRECTION('center_axis',(0.,1.,0.));
#835=DIRECTION('ref_axis',(-1.,0.,0.));
#836=DIRECTION('center_axis',(0.,1.,0.));
#837=DIRECTION('ref_axis',(-1.,0.,0.));
#838=DIRECTION('',(0.,1.,0.));
#839=DIRECTION('center_axis',(0.,0.,-1.));
#840=DIRECTION('ref_axis',(-1.,0.,0.));
#841=DIRECTION('',(-1.,0.,0.));
#842=DIRECTION('',(-1.,0.,0.));
#843=DIRECTION('',(0.,1.,0.));
#844=DIRECTION('center_axis',(-1.,0.,0.));
#845=DIRECTION('ref_axis',(0.,0.,1.));
#846=DIRECTION('',(0.,0.,1.));
#847=DIRECTION('',(0.,0.,1.));
#848=DIRECTION('center_axis',(-1.,0.,1.38777878078145E-16));
#849=DIRECTION('ref_axis',(1.38777878078145E-16,0.,1.));
#850=DIRECTION('',(-1.38777878078145E-16,0.,-1.));
#851=DIRECTION('',(0.,1.,0.));
#852=DIRECTION('',(1.38777878078145E-16,0.,1.));
#853=DIRECTION('',(0.,1.,0.));
#854=DIRECTION('center_axis',(0.,0.,-1.));
#855=DIRECTION('ref_axis',(-1.,0.,0.));
#856=DIRECTION('',(1.,0.,0.));
#857=DIRECTION('',(-1.,0.,0.));
#858=DIRECTION('',(0.,1.,0.));
#859=DIRECTION('center_axis',(1.,0.,0.));
#860=DIRECTION('ref_axis',(0.,0.,-1.));
#861=DIRECTION('',(0.,0.,1.));
#862=DIRECTION('',(0.,0.,-1.));
#863=DIRECTION('',(0.,1.,0.));
#864=DIRECTION('center_axis',(0.,0.,1.));
#865=DIRECTION('ref_axis',(1.,0.,0.));
#866=DIRECTION('',(-1.,0.,0.));
#867=DIRECTION('',(1.,0.,0.));
#868=DIRECTION('center_axis',(0.,1.,0.));
#869=DIRECTION('ref_axis',(-1.,0.,0.));
#870=DIRECTION('center_axis',(0.,1.,0.));
#871=DIRECTION('ref_axis',(-1.,0.,0.));
#872=DIRECTION('',(6.12323399573677E-17,0.,1.));
#873=DIRECTION('',(1.,-3.74939945665464E-33,-6.12323399573677E-17));
#874=DIRECTION('',(0.30940061192236,-2.61164512387034E-32,0.950931785851144));
#875=DIRECTION('',(0.950931785851151,6.95399134472062E-21,-0.309400611922362));
#876=DIRECTION('',(0.928201835767079,-3.71992010117375E-32,-0.372077078141843));
#877=DIRECTION('',(-0.37207707814185,7.54508628313823E-32,-0.928201835767096));
#878=DIRECTION('',(0.,0.,1.));
#879=DIRECTION('',(1.,0.,0.));
#880=DIRECTION('center_axis',(0.,0.,1.));
#881=DIRECTION('ref_axis',(1.,0.,0.));
#882=CARTESIAN_POINT('',(0.,0.,0.));
#883=CARTESIAN_POINT('',(0.,0.,0.));
#884=CARTESIAN_POINT('Origin',(35.,0.,5.));
#885=CARTESIAN_POINT('',(35.,0.,5.));
#886=CARTESIAN_POINT('',(45.,0.,5.));
#887=CARTESIAN_POINT('',(35.,0.,5.));
#888=CARTESIAN_POINT('',(45.,10.,5.));
#889=CARTESIAN_POINT('',(45.,0.,5.));
#890=CARTESIAN_POINT('',(35.,10.,5.));
#891=CARTESIAN_POINT('',(35.,10.,5.));
#892=CARTESIAN_POINT('',(35.,0.,5.));
#893=CARTESIAN_POINT('Origin',(35.,0.,-5.));
#894=CARTESIAN_POINT('',(35.,0.,-5.));
#895=CARTESIAN_POINT('',(35.,0.,-5.));
#896=CARTESIAN_POINT('',(35.,10.,-5.));
#897=CARTESIAN_POINT('',(35.,10.,-5.));
#898=CARTESIAN_POINT('',(35.,0.,-5.));
#899=CARTESIAN_POINT('Origin',(45.,0.,-5.));
#900=CARTESIAN_POINT('',(45.,0.,-5.));
#901=CARTESIAN_POINT('',(45.,0.,-5.));
#902=CARTESIAN_POINT('',(45.,10.,-5.));
#903=CARTESIAN_POINT('',(45.,10.,-5.));
#904=CARTESIAN_POINT('',(45.,0.,-5.));
#905=CARTESIAN_POINT('Origin',(45.,0.,5.));
#906=CARTESIAN_POINT('',(45.,0.,5.));
#907=CARTESIAN_POINT('',(45.,10.,5.));
#908=CARTESIAN_POINT('Origin',(40.,10.,0.));
#909=CARTESIAN_POINT('Origin',(40.,0.,0.));
#910=CARTESIAN_POINT('Origin',(40.,0.,0.));
#911=CARTESIAN_POINT('',(37.5,-5.,3.06161699786838E-16));
#912=CARTESIAN_POINT('Origin',(40.,-5.,0.));
#913=CARTESIAN_POINT('',(37.5,0.,3.06161699786838E-16));
#914=CARTESIAN_POINT('',(37.5,0.,-3.06161699786838E-16));
#915=CARTESIAN_POINT('Origin',(40.,0.,0.));
#916=CARTESIAN_POINT('Origin',(40.,0.,0.));
#917=CARTESIAN_POINT('Origin',(40.,-5.,0.));
#918=CARTESIAN_POINT('',(0.,0.,0.));
#919=CARTESIAN_POINT('Origin',(40.,-5.,0.));
#920=CARTESIAN_POINT('',(37.5,-2.,-3.06161699786838E-16));
#921=CARTESIAN_POINT('Origin',(40.,-2.,0.));
#922=CARTESIAN_POINT('',(37.5,-5.,-3.06161699786838E-16));
#923=CARTESIAN_POINT('',(37.5,-5.,3.06161699786838E-16));
#924=CARTESIAN_POINT('Origin',(40.,-5.,0.));
#925=CARTESIAN_POINT('Origin',(-20.,-5.,0.));
#926=CARTESIAN_POINT('',(-22.5,-2.,-3.06161699786838E-16));
#927=CARTESIAN_POINT('Origin',(-20.,-2.,0.));
#928=CARTESIAN_POINT('',(-22.5,-5.,-3.06161699786838E-16));
#929=CARTESIAN_POINT('',(-22.5,-5.,3.06161699786838E-16));
#930=CARTESIAN_POINT('Origin',(-20.,-5.,0.));
#931=CARTESIAN_POINT('Origin',(40.,-5.,-4.00000005960464));
#932=CARTESIAN_POINT('',(-20.,-5.,-4.00000005960464));
#933=CARTESIAN_POINT('',(40.,-5.,-4.00000005960464));
#934=CARTESIAN_POINT('',(-20.,-5.,-4.00000005960464));
#935=CARTESIAN_POINT('',(-20.,-2.,-4.00000005960464));
#936=CARTESIAN_POINT('',(-20.,-5.,-4.00000005960464));
#937=CARTESIAN_POINT('',(40.,-2.,-4.00000005960464));
#938=CARTESIAN_POINT('',(-20.,-2.,-4.00000005960464));
#939=CARTESIAN_POINT('',(40.,-5.,-4.00000005960464));
#940=CARTESIAN_POINT('Origin',(40.,-5.,0.));
#941=CARTESIAN_POINT('',(40.,-5.,4.00000005960464));
#942=CARTESIAN_POINT('Origin',(40.,-5.,0.));
#943=CARTESIAN_POINT('',(40.,-2.,4.00000005960464));
#944=CARTESIAN_POINT('Origin',(40.,-2.,0.));
#945=CARTESIAN_POINT('',(40.,-5.,4.00000005960464));
#946=CARTESIAN_POINT('Origin',(-20.,-5.,4.00000005960464));
#947=CARTESIAN_POINT('',(-20.,-5.,4.00000005960464));
#948=CARTESIAN_POINT('',(40.,-5.,4.00000005960464));
#949=CARTESIAN_POINT('',(-20.,-2.,4.00000005960464));
#950=CARTESIAN_POINT('',(40.,-2.,4.00000005960464));
#951=CARTESIAN_POINT('',(-20.,-5.,4.00000005960464));
#952=CARTESIAN_POINT('Origin',(-20.,-5.,0.));
#953=CARTESIAN_POINT('Origin',(-20.,-5.,0.));
#954=CARTESIAN_POINT('Origin',(-20.,-2.,0.));
#955=CARTESIAN_POINT('Origin',(10.,-5.,0.));
#956=CARTESIAN_POINT('Origin',(10.,-2.,0.));
#957=CARTESIAN_POINT('',(0.,0.,0.));
#958=CARTESIAN_POINT('Origin',(0.,0.,0.));
#959=CARTESIAN_POINT('',(-2.5,5.,3.06161699786838E-16));
#960=CARTESIAN_POINT('Origin',(0.,5.,0.));
#961=CARTESIAN_POINT('',(-2.5,0.,3.06161699786838E-16));
#962=CARTESIAN_POINT('',(-2.5,0.,3.06161699786838E-16));
#963=CARTESIAN_POINT('Origin',(0.,0.,0.));
#964=CARTESIAN_POINT('Origin',(0.,0.,0.));
#965=CARTESIAN_POINT('',(-25.,5.,3.06161699786838E-15));
#966=CARTESIAN_POINT('Origin',(0.,5.,0.));
#967=CARTESIAN_POINT('',(-25.,0.,3.06161699786838E-15));
#968=CARTESIAN_POINT('',(-25.,0.,3.06161699786838E-15));
#969=CARTESIAN_POINT('Origin',(0.,0.,0.));
#970=CARTESIAN_POINT('Origin',(0.,5.,0.));
#971=CARTESIAN_POINT('Origin',(0.,0.,0.));
#972=CARTESIAN_POINT('Origin',(-20.,0.,0.));
#973=CARTESIAN_POINT('',(-22.5,-5.,3.06161699786838E-16));
#974=CARTESIAN_POINT('Origin',(-20.,-5.,0.));
#975=CARTESIAN_POINT('',(-22.5,0.,3.06161699786838E-16));
#976=CARTESIAN_POINT('',(-22.5,0.,-3.06161699786838E-16));
#977=CARTESIAN_POINT('Origin',(-20.,0.,0.));
#978=CARTESIAN_POINT('Origin',(-20.,0.,0.));
#979=CARTESIAN_POINT('Origin',(-20.,-5.,0.));
#980=CARTESIAN_POINT('',(0.,0.,0.));
#981=CARTESIAN_POINT('Origin',(0.,5.,0.));
#982=CARTESIAN_POINT('',(2.5,0.,-3.06161699786838E-16));
#983=CARTESIAN_POINT('Origin',(0.,0.,0.));
#984=CARTESIAN_POINT('',(2.5,5.,-3.06161699786838E-16));
#985=CARTESIAN_POINT('',(2.5,5.,3.06161699786838E-16));
#986=CARTESIAN_POINT('Origin',(0.,5.,0.));
#987=CARTESIAN_POINT('Origin',(0.,0.,0.));
#988=CARTESIAN_POINT('Origin',(24.4948974278318,5.,-5.));
#989=CARTESIAN_POINT('',(24.4948974278318,5.,-5.));
#990=CARTESIAN_POINT('',(92.4999999999999,5.,-5.));
#991=CARTESIAN_POINT('',(-12.5000000000001,5.,-5.));
#992=CARTESIAN_POINT('',(92.4999999999999,10.,-5.));
#993=CARTESIAN_POINT('',(92.4999999999999,5.,-5.));
#994=CARTESIAN_POINT('',(24.4948974278318,10.,-5.));
#995=CARTESIAN_POINT('',(-12.5000000000001,10.,-5.));
#996=CARTESIAN_POINT('',(24.4948974278318,5.,-5.));
#997=CARTESIAN_POINT('Origin',(0.,5.,0.));
#998=CARTESIAN_POINT('',(24.4948974278318,5.,5.));
#999=CARTESIAN_POINT('Origin',(0.,5.,0.));
#1000=CARTESIAN_POINT('',(24.4948974278318,10.,5.));
#1001=CARTESIAN_POINT('Origin',(0.,10.,0.));
#1002=CARTESIAN_POINT('',(24.4948974278318,5.,5.));
#1003=CARTESIAN_POINT('Origin',(92.4999999999999,5.,5.));
#1004=CARTESIAN_POINT('',(92.4999999999999,5.,5.));
#1005=CARTESIAN_POINT('',(92.4999999999999,5.,5.));
#1006=CARTESIAN_POINT('',(92.4999999999999,10.,5.));
#1007=CARTESIAN_POINT('',(92.4999999999999,10.,5.));
#1008=CARTESIAN_POINT('',(92.4999999999999,5.,5.));
#1009=CARTESIAN_POINT('Origin',(92.4999999999999,5.,-5.));
#1010=CARTESIAN_POINT('',(92.4999999999999,5.,-5.));
#1011=CARTESIAN_POINT('',(92.4999999999999,10.,-5.));
#1012=CARTESIAN_POINT('Origin',(-15.5000000000001,5.,-8.));
#1013=CARTESIAN_POINT('',(-15.5000000000001,5.,8.));
#1014=CARTESIAN_POINT('',(-15.5000000000001,5.,-8.));
#1015=CARTESIAN_POINT('',(-15.5000000000001,5.,8.));
#1016=CARTESIAN_POINT('',(-15.5000000000001,10.,8.));
#1017=CARTESIAN_POINT('',(-15.5000000000001,5.,8.));
#1018=CARTESIAN_POINT('',(-15.5000000000001,10.,-8.));
#1019=CARTESIAN_POINT('',(-15.5000000000001,10.,8.));
#1020=CARTESIAN_POINT('',(-15.5000000000001,5.,-8.));
#1021=CARTESIAN_POINT('Origin',(95.4999999999999,5.,-8.));
#1022=CARTESIAN_POINT('',(95.4999999999999,5.,-8.));
#1023=CARTESIAN_POINT('',(-15.5000000000001,5.,-8.));
#1024=CARTESIAN_POINT('',(95.4999999999999,10.,-8.));
#1025=CARTESIAN_POINT('',(-15.5000000000001,10.,-8.));
#1026=CARTESIAN_POINT('',(95.4999999999999,5.,-8.));
#1027=CARTESIAN_POINT('Origin',(95.4999999999999,5.,8.));
#1028=CARTESIAN_POINT('',(95.4999999999999,5.,8.));
#1029=CARTESIAN_POINT('',(95.4999999999999,5.,-8.));
#1030=CARTESIAN_POINT('',(95.4999999999999,10.,8.));
#1031=CARTESIAN_POINT('',(95.4999999999999,10.,-8.));
#1032=CARTESIAN_POINT('',(95.4999999999999,5.,8.));
#1033=CARTESIAN_POINT('Origin',(-15.5000000000001,5.,8.));
#1034=CARTESIAN_POINT('',(95.4999999999999,5.,8.));
#1035=CARTESIAN_POINT('',(95.4999999999999,10.,8.));
#1036=CARTESIAN_POINT('Origin',(39.9999999999999,10.,0.));
#1037=CARTESIAN_POINT('Origin',(39.9999999999999,5.,0.));
#1038=CARTESIAN_POINT('',(24.4974487139055,-1.34330102098255E-15,1.02981397069737E-15));
#1039=CARTESIAN_POINT('',(26.4601772798597,-2.0517041923386E-16,12.3760244768944));
#1040=CARTESIAN_POINT('',(0.,0.,0.));
#1041=CARTESIAN_POINT('',(0.,0.,0.));
#1042=CARTESIAN_POINT('Origin',(0.,0.,0.));
#1043=UNCERTAINTY_MEASURE_WITH_UNIT(LENGTH_MEASURE(0.01),#1055,
'DISTANCE_ACCURACY_VALUE',
'Maximum model space distance between geometric entities at asserted c
onnectivities');
#1044=UNCERTAINTY_MEASURE_WITH_UNIT(LENGTH_MEASURE(0.01),#1055,
'DISTANCE_ACCURACY_VALUE',
'Maximum model space distance between geometric entities at asserted c
onnectivities');
#1045=UNCERTAINTY_MEASURE_WITH_UNIT(LENGTH_MEASURE(0.01),#1055,
'DISTANCE_ACCURACY_VALUE',
'Maximum model space distance between geometric entities at asserted c
onnectivities');
#1046=UNCERTAINTY_MEASURE_WITH_UNIT(LENGTH_MEASURE(0.01),#1055,
'DISTANCE_ACCURACY_VALUE',
'Maximum model space distance between geometric entities at asserted c
onnectivities');
#1047=UNCERTAINTY_MEASURE_WITH_UNIT(LENGTH_MEASURE(0.01),#1055,
'DISTANCE_ACCURACY_VALUE',
'Maximum model space distance between geometric entities at asserted c
onnectivities');
#1048=UNCERTAINTY_MEASURE_WITH_UNIT(LENGTH_MEASURE(0.01),#1055,
'DISTANCE_ACCURACY_VALUE',
'Maximum model space distance between geometric entities at asserted c
onnectivities');
#1049=(
GEOMETRIC_REPRESENTATION_CONTEXT(3)
GLOBAL_UNCERTAINTY_ASSIGNED_CONTEXT((#1043))
GLOBAL_UNIT_ASSIGNED_CONTEXT((#1055,#1057,#1058))
REPRESENTATION_CONTEXT('','3D')
);
#1050=(
GEOMETRIC_REPRESENTATION_CONTEXT(3)
GLOBAL_UNCERTAINTY_ASSIGNED_CONTEXT((#1044))
GLOBAL_UNIT_ASSIGNED_CONTEXT((#1055,#1057,#1058))
REPRESENTATION_CONTEXT('','3D')
);
#1051=(
GEOMETRIC_REPRESENTATION_CONTEXT(3)
GLOBAL_UNCERTAINTY_ASSIGNED_CONTEXT((#1045))
GLOBAL_UNIT_ASSIGNED_CONTEXT((#1055,#1057,#1058))
REPRESENTATION_CONTEXT('','3D')
);
#1052=(
GEOMETRIC_REPRESENTATION_CONTEXT(3)
GLOBAL_UNCERTAINTY_ASSIGNED_CONTEXT((#1046))
GLOBAL_UNIT_ASSIGNED_CONTEXT((#1055,#1057,#1058))
REPRESENTATION_CONTEXT('','3D')
);
#1053=(
GEOMETRIC_REPRESENTATION_CONTEXT(3)
GLOBAL_UNCERTAINTY_ASSIGNED_CONTEXT((#1047))
GLOBAL_UNIT_ASSIGNED_CONTEXT((#1055,#1057,#1058))
REPRESENTATION_CONTEXT('','3D')
);
#1054=(
GEOMETRIC_REPRESENTATION_CONTEXT(3)
GLOBAL_UNCERTAINTY_ASSIGNED_CONTEXT((#1048))
GLOBAL_UNIT_ASSIGNED_CONTEXT((#1055,#1057,#1058))
REPRESENTATION_CONTEXT('','3D')
);
#1055=(
LENGTH_UNIT()
NAMED_UNIT(*)
SI_UNIT(.MILLI.,.METRE.)
);
#1056=(
LENGTH_UNIT()
NAMED_UNIT(*)
SI_UNIT($,.METRE.)
);
#1057=(
NAMED_UNIT(*)
PLANE_ANGLE_UNIT()
SI_UNIT($,.RADIAN.)
);
#1058=(
NAMED_UNIT(*)
SI_UNIT($,.STERADIAN.)
SOLID_ANGLE_UNIT()
);
#1059=SHAPE_DEFINITION_REPRESENTATION(#1064,#1073);
#1060=SHAPE_DEFINITION_REPRESENTATION(#1065,#1074);
#1061=SHAPE_DEFINITION_REPRESENTATION(#1066,#1075);
#1062=SHAPE_DEFINITION_REPRESENTATION(#1067,#1076);
#1063=SHAPE_DEFINITION_REPRESENTATION(#1068,#1077);
#1064=PRODUCT_DEFINITION_SHAPE('',$,#1079);
#1065=PRODUCT_DEFINITION_SHAPE('',$,#1080);
#1066=PRODUCT_DEFINITION_SHAPE('',$,#1081);
#1067=PRODUCT_DEFINITION_SHAPE('',$,#1082);
#1068=PRODUCT_DEFINITION_SHAPE('',$,#1083);
#1069=PRODUCT_DEFINITION_SHAPE($,$,#26);
#1070=PRODUCT_DEFINITION_SHAPE($,$,#27);
#1071=PRODUCT_DEFINITION_SHAPE($,$,#28);
#1072=PRODUCT_DEFINITION_SHAPE($,$,#29);
#1073=SHAPE_REPRESENTATION('',(#635,#696,#697,#698,#699),#1049);
#1074=SHAPE_REPRESENTATION('',(#636),#1050);
#1075=SHAPE_REPRESENTATION('',(#648),#1051);
#1076=SHAPE_REPRESENTATION('',(#665),#1052);
#1077=SHAPE_REPRESENTATION('',(#679),#1053);
#1078=PRODUCT_DEFINITION_CONTEXT('part definition',#1095,'design');
#1079=PRODUCT_DEFINITION('2026-08-19-08-08-11-952',
'Slinder and Crank Mechanism (Trial2 )',#1084,#1078);
#1080=PRODUCT_DEFINITION('2026-08-19-08-10-52-738','Slider',#1085,#1078);
#1081=PRODUCT_DEFINITION('2026-08-19-08-22-09-038','Link',#1086,#1078);
#1082=PRODUCT_DEFINITION('2026-08-19-08-08-19-899','Crank',#1087,#1078);
#1083=PRODUCT_DEFINITION('2026-08-19-08-13-02-419','Slider outlet',#1088,
#1078);
#1084=PRODUCT_DEFINITION_FORMATION('',$,#1097);
#1085=PRODUCT_DEFINITION_FORMATION('',$,#1098);
#1086=PRODUCT_DEFINITION_FORMATION('',$,#1099);
#1087=PRODUCT_DEFINITION_FORMATION('',$,#1100);
#1088=PRODUCT_DEFINITION_FORMATION('',$,#1101);
#1089=PRODUCT_RELATED_PRODUCT_CATEGORY(
'Slinder and Crank Mechanism (Trial2 )',
'Slinder and Crank Mechanism (Trial2 )',(#1097));
#1090=PRODUCT_RELATED_PRODUCT_CATEGORY('Slider','Slider',(#1098));
#1091=PRODUCT_RELATED_PRODUCT_CATEGORY('Link','Link',(#1099));
#1092=PRODUCT_RELATED_PRODUCT_CATEGORY('Crank','Crank',(#1100));
#1093=PRODUCT_RELATED_PRODUCT_CATEGORY('Slider outlet','Slider outlet',
(#1101));
#1094=APPLICATION_PROTOCOL_DEFINITION('international standard',
'automotive_design',2009,#1095);
#1095=APPLICATION_CONTEXT(
'Core Data for Automotive Mechanical Design Process');
#1096=PRODUCT_CONTEXT('part definition',#1095,'mechanical');
#1097=PRODUCT('2026-08-19-08-08-11-952',
'Slinder and Crank Mechanism (Trial2 )',$,(#1096));
#1098=PRODUCT('2026-08-19-08-10-52-738','Slider',$,(#1096));
#1099=PRODUCT('2026-08-19-08-22-09-038','Link',$,(#1096));
#1100=PRODUCT('2026-08-19-08-08-19-899','Crank',$,(#1096));
#1101=PRODUCT('2026-08-19-08-13-02-419','Slider outlet',$,(#1096));
#1102=PRESENTATION_STYLE_ASSIGNMENT((#1108));
#1103=PRESENTATION_STYLE_ASSIGNMENT((#1109));
#1104=PRESENTATION_STYLE_ASSIGNMENT((#1110));
#1105=PRESENTATION_STYLE_ASSIGNMENT((#1111));
#1106=PRESENTATION_STYLE_ASSIGNMENT((#1112));
#1107=PRESENTATION_STYLE_ASSIGNMENT((NULL_STYLE(.NULL.)));
#1108=SURFACE_STYLE_USAGE(.BOTH.,#1113);
#1109=SURFACE_STYLE_USAGE(.BOTH.,#1114);
#1110=SURFACE_STYLE_USAGE(.BOTH.,#1115);
#1111=SURFACE_STYLE_USAGE(.BOTH.,#1116);
#1112=SURFACE_STYLE_USAGE(.BOTH.,#1117);
#1113=SURFACE_SIDE_STYLE('',(#1118));
#1114=SURFACE_SIDE_STYLE('',(#1119));
#1115=SURFACE_SIDE_STYLE('',(#1120));
#1116=SURFACE_SIDE_STYLE('',(#1121));
#1117=SURFACE_SIDE_STYLE('',(#1122));
#1118=SURFACE_STYLE_FILL_AREA(#1123);
#1119=SURFACE_STYLE_FILL_AREA(#1124);
#1120=SURFACE_STYLE_FILL_AREA(#1125);
#1121=SURFACE_STYLE_FILL_AREA(#1126);
#1122=SURFACE_STYLE_FILL_AREA(#1127);
#1123=FILL_AREA_STYLE('Steel - Satin',(#1128));
#1124=FILL_AREA_STYLE('Paint - Metal Flake (Red)',(#1129));
#1125=FILL_AREA_STYLE('Paint - Metal Flake (Green)',(#1130));
#1126=FILL_AREA_STYLE('Paint - Metal Flake (Blue)',(#1131));
#1127=FILL_AREA_STYLE('Paint - Metal Flake (Yellow)',(#1132));
#1128=FILL_AREA_STYLE_COLOUR('Steel - Satin',#1133);
#1129=FILL_AREA_STYLE_COLOUR('Paint - Metal Flake (Red)',#1134);
#1130=FILL_AREA_STYLE_COLOUR('Paint - Metal Flake (Green)',#1135);
#1131=FILL_AREA_STYLE_COLOUR('Paint - Metal Flake (Blue)',#1136);
#1132=FILL_AREA_STYLE_COLOUR('Paint - Metal Flake (Yellow)',#1137);
#1133=COLOUR_RGB('Steel - Satin',0.627450980392157,0.627450980392157,0.627450980392157);
#1134=COLOUR_RGB('Paint - Metal Flake (Red)',0.768627450980392,0.207843137254902,
0.152941176470588);
#1135=COLOUR_RGB('Paint - Metal Flake (Green)',0.266666666666667,0.588235294117647,
0.282352941176471);
#1136=COLOUR_RGB('Paint - Metal Flake (Blue)',0.188235294117647,0.231372549019608,
0.588235294117647);
#1137=COLOUR_RGB('Paint - Metal Flake (Yellow)',0.909803921568627,0.67843137254902,
0.137254901960784);
ENDSEC;
END-ISO-10303-21;
