ISO-10303-21;
HEADER;
/* Generated by software containing ST-Developer
 * from STEP Tools, Inc. (www.steptools.com) 
 */

FILE_DESCRIPTION(
/* description */ (''),
/* implementation_level */ '2;1');

FILE_NAME(
/* name */ 'Model.step',
/* time_stamp */ '2026-08-12T00:19:31+05:30',
/* author */ (''),
/* organization */ (''),
/* preprocessor_version */ 'ST-DEVELOPER v20.1',
/* originating_system */ 'Autodesk Translation Framework v15.8.0.0',
/* authorisation */ '');

FILE_SCHEMA (('AUTOMOTIVE_DESIGN { 1 0 10303 214 3 1 1 }'));
ENDSEC;

DATA;
#10=MECHANICAL_DESIGN_GEOMETRIC_PRESENTATION_REPRESENTATION('',(#113),#933);
#11=ITEM_DEFINED_TRANSFORMATION($,$,#554,#589);
#12=ITEM_DEFINED_TRANSFORMATION($,$,#554,#590);
#13=ITEM_DEFINED_TRANSFORMATION($,$,#554,#591);
#14=ITEM_DEFINED_TRANSFORMATION($,$,#554,#592);
#15=ITEM_DEFINED_TRANSFORMATION($,$,#554,#593);
#16=ITEM_DEFINED_TRANSFORMATION($,$,#554,#594);
#17=ITEM_DEFINED_TRANSFORMATION($,$,#554,#595);
#18=ITEM_DEFINED_TRANSFORMATION($,$,#554,#596);
#19=ITEM_DEFINED_TRANSFORMATION($,$,#554,#597);
#20=ITEM_DEFINED_TRANSFORMATION($,$,#554,#598);
#21=ITEM_DEFINED_TRANSFORMATION($,$,#554,#599);
#22=ITEM_DEFINED_TRANSFORMATION($,$,#554,#600);
#23=ITEM_DEFINED_TRANSFORMATION($,$,#554,#601);
#24=ITEM_DEFINED_TRANSFORMATION($,$,#554,#602);
#25=ITEM_DEFINED_TRANSFORMATION($,$,#554,#603);
#26=ITEM_DEFINED_TRANSFORMATION($,$,#554,#604);
#27=ITEM_DEFINED_TRANSFORMATION($,$,#554,#605);
#28=ITEM_DEFINED_TRANSFORMATION($,$,#554,#606);
#29=ITEM_DEFINED_TRANSFORMATION($,$,#554,#607);
#30=ITEM_DEFINED_TRANSFORMATION($,$,#554,#608);
#31=ITEM_DEFINED_TRANSFORMATION($,$,#554,#609);
#32=ITEM_DEFINED_TRANSFORMATION($,$,#554,#610);
#33=ITEM_DEFINED_TRANSFORMATION($,$,#554,#611);
#34=ITEM_DEFINED_TRANSFORMATION($,$,#554,#612);
#35=ITEM_DEFINED_TRANSFORMATION($,$,#554,#613);
#36=(
REPRESENTATION_RELATIONSHIP($,$,#968,#967)
REPRESENTATION_RELATIONSHIP_WITH_TRANSFORMATION(#11)
SHAPE_REPRESENTATION_RELATIONSHIP()
);
#37=(
REPRESENTATION_RELATIONSHIP($,$,#968,#967)
REPRESENTATION_RELATIONSHIP_WITH_TRANSFORMATION(#12)
SHAPE_REPRESENTATION_RELATIONSHIP()
);
#38=(
REPRESENTATION_RELATIONSHIP($,$,#968,#967)
REPRESENTATION_RELATIONSHIP_WITH_TRANSFORMATION(#13)
SHAPE_REPRESENTATION_RELATIONSHIP()
);
#39=(
REPRESENTATION_RELATIONSHIP($,$,#968,#967)
REPRESENTATION_RELATIONSHIP_WITH_TRANSFORMATION(#14)
SHAPE_REPRESENTATION_RELATIONSHIP()
);
#40=(
REPRESENTATION_RELATIONSHIP($,$,#968,#967)
REPRESENTATION_RELATIONSHIP_WITH_TRANSFORMATION(#15)
SHAPE_REPRESENTATION_RELATIONSHIP()
);
#41=(
REPRESENTATION_RELATIONSHIP($,$,#968,#967)
REPRESENTATION_RELATIONSHIP_WITH_TRANSFORMATION(#16)
SHAPE_REPRESENTATION_RELATIONSHIP()
);
#42=(
REPRESENTATION_RELATIONSHIP($,$,#968,#967)
REPRESENTATION_RELATIONSHIP_WITH_TRANSFORMATION(#17)
SHAPE_REPRESENTATION_RELATIONSHIP()
);
#43=(
REPRESENTATION_RELATIONSHIP($,$,#968,#967)
REPRESENTATION_RELATIONSHIP_WITH_TRANSFORMATION(#18)
SHAPE_REPRESENTATION_RELATIONSHIP()
);
#44=(
REPRESENTATION_RELATIONSHIP($,$,#968,#967)
REPRESENTATION_RELATIONSHIP_WITH_TRANSFORMATION(#19)
SHAPE_REPRESENTATION_RELATIONSHIP()
);
#45=(
REPRESENTATION_RELATIONSHIP($,$,#968,#967)
REPRESENTATION_RELATIONSHIP_WITH_TRANSFORMATION(#20)
SHAPE_REPRESENTATION_RELATIONSHIP()
);
#46=(
REPRESENTATION_RELATIONSHIP($,$,#968,#967)
REPRESENTATION_RELATIONSHIP_WITH_TRANSFORMATION(#21)
SHAPE_REPRESENTATION_RELATIONSHIP()
);
#47=(
REPRESENTATION_RELATIONSHIP($,$,#968,#967)
REPRESENTATION_RELATIONSHIP_WITH_TRANSFORMATION(#22)
SHAPE_REPRESENTATION_RELATIONSHIP()
);
#48=(
REPRESENTATION_RELATIONSHIP($,$,#968,#967)
REPRESENTATION_RELATIONSHIP_WITH_TRANSFORMATION(#23)
SHAPE_REPRESENTATION_RELATIONSHIP()
);
#49=(
REPRESENTATION_RELATIONSHIP($,$,#968,#967)
REPRESENTATION_RELATIONSHIP_WITH_TRANSFORMATION(#24)
SHAPE_REPRESENTATION_RELATIONSHIP()
);
#50=(
REPRESENTATION_RELATIONSHIP($,$,#968,#967)
REPRESENTATION_RELATIONSHIP_WITH_TRANSFORMATION(#25)
SHAPE_REPRESENTATION_RELATIONSHIP()
);
#51=(
REPRESENTATION_RELATIONSHIP($,$,#968,#967)
REPRESENTATION_RELATIONSHIP_WITH_TRANSFORMATION(#26)
SHAPE_REPRESENTATION_RELATIONSHIP()
);
#52=(
REPRESENTATION_RELATIONSHIP($,$,#968,#967)
REPRESENTATION_RELATIONSHIP_WITH_TRANSFORMATION(#27)
SHAPE_REPRESENTATION_RELATIONSHIP()
);
#53=(
REPRESENTATION_RELATIONSHIP($,$,#968,#967)
REPRESENTATION_RELATIONSHIP_WITH_TRANSFORMATION(#28)
SHAPE_REPRESENTATION_RELATIONSHIP()
);
#54=(
REPRESENTATION_RELATIONSHIP($,$,#968,#967)
REPRESENTATION_RELATIONSHIP_WITH_TRANSFORMATION(#29)
SHAPE_REPRESENTATION_RELATIONSHIP()
);
#55=(
REPRESENTATION_RELATIONSHIP($,$,#968,#967)
REPRESENTATION_RELATIONSHIP_WITH_TRANSFORMATION(#30)
SHAPE_REPRESENTATION_RELATIONSHIP()
);
#56=(
REPRESENTATION_RELATIONSHIP($,$,#968,#967)
REPRESENTATION_RELATIONSHIP_WITH_TRANSFORMATION(#31)
SHAPE_REPRESENTATION_RELATIONSHIP()
);
#57=(
REPRESENTATION_RELATIONSHIP($,$,#968,#967)
REPRESENTATION_RELATIONSHIP_WITH_TRANSFORMATION(#32)
SHAPE_REPRESENTATION_RELATIONSHIP()
);
#58=(
REPRESENTATION_RELATIONSHIP($,$,#968,#967)
REPRESENTATION_RELATIONSHIP_WITH_TRANSFORMATION(#33)
SHAPE_REPRESENTATION_RELATIONSHIP()
);
#59=(
REPRESENTATION_RELATIONSHIP($,$,#968,#967)
REPRESENTATION_RELATIONSHIP_WITH_TRANSFORMATION(#34)
SHAPE_REPRESENTATION_RELATIONSHIP()
);
#60=(
REPRESENTATION_RELATIONSHIP($,$,#968,#967)
REPRESENTATION_RELATIONSHIP_WITH_TRANSFORMATION(#35)
SHAPE_REPRESENTATION_RELATIONSHIP()
);
#61=CONTEXT_DEPENDENT_SHAPE_REPRESENTATION(#36,#942);
#62=CONTEXT_DEPENDENT_SHAPE_REPRESENTATION(#37,#943);
#63=CONTEXT_DEPENDENT_SHAPE_REPRESENTATION(#38,#944);
#64=CONTEXT_DEPENDENT_SHAPE_REPRESENTATION(#39,#945);
#65=CONTEXT_DEPENDENT_SHAPE_REPRESENTATION(#40,#946);
#66=CONTEXT_DEPENDENT_SHAPE_REPRESENTATION(#41,#947);
#67=CONTEXT_DEPENDENT_SHAPE_REPRESENTATION(#42,#948);
#68=CONTEXT_DEPENDENT_SHAPE_REPRESENTATION(#43,#949);
#69=CONTEXT_DEPENDENT_SHAPE_REPRESENTATION(#44,#950);
#70=CONTEXT_DEPENDENT_SHAPE_REPRESENTATION(#45,#951);
#71=CONTEXT_DEPENDENT_SHAPE_REPRESENTATION(#46,#952);
#72=CONTEXT_DEPENDENT_SHAPE_REPRESENTATION(#47,#953);
#73=CONTEXT_DEPENDENT_SHAPE_REPRESENTATION(#48,#954);
#74=CONTEXT_DEPENDENT_SHAPE_REPRESENTATION(#49,#955);
#75=CONTEXT_DEPENDENT_SHAPE_REPRESENTATION(#50,#956);
#76=CONTEXT_DEPENDENT_SHAPE_REPRESENTATION(#51,#957);
#77=CONTEXT_DEPENDENT_SHAPE_REPRESENTATION(#52,#958);
#78=CONTEXT_DEPENDENT_SHAPE_REPRESENTATION(#53,#959);
#79=CONTEXT_DEPENDENT_SHAPE_REPRESENTATION(#54,#960);
#80=CONTEXT_DEPENDENT_SHAPE_REPRESENTATION(#55,#961);
#81=CONTEXT_DEPENDENT_SHAPE_REPRESENTATION(#56,#962);
#82=CONTEXT_DEPENDENT_SHAPE_REPRESENTATION(#57,#963);
#83=CONTEXT_DEPENDENT_SHAPE_REPRESENTATION(#58,#964);
#84=CONTEXT_DEPENDENT_SHAPE_REPRESENTATION(#59,#965);
#85=CONTEXT_DEPENDENT_SHAPE_REPRESENTATION(#60,#966);
#86=NEXT_ASSEMBLY_USAGE_OCCURRENCE('Painter''s Tripod:1',
'Painter''s Tripod:1','Painter''s Tripod:1',#970,#971,
'Painter''s Tripod:1');
#87=NEXT_ASSEMBLY_USAGE_OCCURRENCE('Painter''s Tripod:2',
'Painter''s Tripod:2','Painter''s Tripod:2',#970,#971,
'Painter''s Tripod:2');
#88=NEXT_ASSEMBLY_USAGE_OCCURRENCE('Painter''s Tripod:3',
'Painter''s Tripod:3','Painter''s Tripod:3',#970,#971,
'Painter''s Tripod:3');
#89=NEXT_ASSEMBLY_USAGE_OCCURRENCE('Painter''s Tripod:4',
'Painter''s Tripod:4','Painter''s Tripod:4',#970,#971,
'Painter''s Tripod:4');
#90=NEXT_ASSEMBLY_USAGE_OCCURRENCE('Painter''s Tripod:5',
'Painter''s Tripod:5','Painter''s Tripod:5',#970,#971,
'Painter''s Tripod:5');
#91=NEXT_ASSEMBLY_USAGE_OCCURRENCE('Painter''s Tripod:6',
'Painter''s Tripod:6','Painter''s Tripod:6',#970,#971,
'Painter''s Tripod:6');
#92=NEXT_ASSEMBLY_USAGE_OCCURRENCE('Painter''s Tripod:7',
'Painter''s Tripod:7','Painter''s Tripod:7',#970,#971,
'Painter''s Tripod:7');
#93=NEXT_ASSEMBLY_USAGE_OCCURRENCE('Painter''s Tripod:8',
'Painter''s Tripod:8','Painter''s Tripod:8',#970,#971,
'Painter''s Tripod:8');
#94=NEXT_ASSEMBLY_USAGE_OCCURRENCE('Painter''s Tripod:9',
'Painter''s Tripod:9','Painter''s Tripod:9',#970,#971,
'Painter''s Tripod:9');
#95=NEXT_ASSEMBLY_USAGE_OCCURRENCE('Painter''s Tripod:10',
'Painter''s Tripod:10','Painter''s Tripod:10',#970,#971,
'Painter''s Tripod:10');
#96=NEXT_ASSEMBLY_USAGE_OCCURRENCE('Painter''s Tripod:11',
'Painter''s Tripod:11','Painter''s Tripod:11',#970,#971,
'Painter''s Tripod:11');
#97=NEXT_ASSEMBLY_USAGE_OCCURRENCE('Painter''s Tripod:12',
'Painter''s Tripod:12','Painter''s Tripod:12',#970,#971,
'Painter''s Tripod:12');
#98=NEXT_ASSEMBLY_USAGE_OCCURRENCE('Painter''s Tripod:13',
'Painter''s Tripod:13','Painter''s Tripod:13',#970,#971,
'Painter''s Tripod:13');
#99=NEXT_ASSEMBLY_USAGE_OCCURRENCE('Painter''s Tripod:14',
'Painter''s Tripod:14','Painter''s Tripod:14',#970,#971,
'Painter''s Tripod:14');
#100=NEXT_ASSEMBLY_USAGE_OCCURRENCE('Painter''s Tripod:15',
'Painter''s Tripod:15','Painter''s Tripod:15',#970,#971,
'Painter''s Tripod:15');
#101=NEXT_ASSEMBLY_USAGE_OCCURRENCE('Painter''s Tripod:16',
'Painter''s Tripod:16','Painter''s Tripod:16',#970,#971,
'Painter''s Tripod:16');
#102=NEXT_ASSEMBLY_USAGE_OCCURRENCE('Painter''s Tripod:17',
'Painter''s Tripod:17','Painter''s Tripod:17',#970,#971,
'Painter''s Tripod:17');
#103=NEXT_ASSEMBLY_USAGE_OCCURRENCE('Painter''s Tripod:18',
'Painter''s Tripod:18','Painter''s Tripod:18',#970,#971,
'Painter''s Tripod:18');
#104=NEXT_ASSEMBLY_USAGE_OCCURRENCE('Painter''s Tripod:19',
'Painter''s Tripod:19','Painter''s Tripod:19',#970,#971,
'Painter''s Tripod:19');
#105=NEXT_ASSEMBLY_USAGE_OCCURRENCE('Painter''s Tripod:20',
'Painter''s Tripod:20','Painter''s Tripod:20',#970,#971,
'Painter''s Tripod:20');
#106=NEXT_ASSEMBLY_USAGE_OCCURRENCE('Painter''s Tripod:21',
'Painter''s Tripod:21','Painter''s Tripod:21',#970,#971,
'Painter''s Tripod:21');
#107=NEXT_ASSEMBLY_USAGE_OCCURRENCE('Painter''s Tripod:22',
'Painter''s Tripod:22','Painter''s Tripod:22',#970,#971,
'Painter''s Tripod:22');
#108=NEXT_ASSEMBLY_USAGE_OCCURRENCE('Painter''s Tripod:23',
'Painter''s Tripod:23','Painter''s Tripod:23',#970,#971,
'Painter''s Tripod:23');
#109=NEXT_ASSEMBLY_USAGE_OCCURRENCE('Painter''s Tripod:24',
'Painter''s Tripod:24','Painter''s Tripod:24',#970,#971,
'Painter''s Tripod:24');
#110=NEXT_ASSEMBLY_USAGE_OCCURRENCE('Painter''s Tripod:25',
'Painter''s Tripod:25','Painter''s Tripod:25',#970,#971,
'Painter''s Tripod:25');
#111=SHAPE_REPRESENTATION_RELATIONSHIP('SRR','None',#968,#112);
#112=ADVANCED_BREP_SHAPE_REPRESENTATION('',(#114),#932);
#113=STYLED_ITEM('',(#981),#114);
#114=MANIFOLD_SOLID_BREP('Body1',#540);
#115=FACE_BOUND('',#169,.T.);
#116=FACE_BOUND('',#176,.T.);
#117=FACE_BOUND('',#183,.T.);
#118=FACE_BOUND('',#186,.T.);
#119=FACE_BOUND('',#188,.T.);
#120=FACE_BOUND('',#191,.T.);
#121=FACE_BOUND('',#194,.T.);
#122=PLANE('',#561);
#123=PLANE('',#562);
#124=PLANE('',#563);
#125=PLANE('',#570);
#126=PLANE('',#571);
#127=PLANE('',#572);
#128=PLANE('',#579);
#129=PLANE('',#580);
#130=PLANE('',#581);
#131=PLANE('',#582);
#132=PLANE('',#583);
#133=PLANE('',#584);
#134=PLANE('',#585);
#135=PLANE('',#586);
#136=PLANE('',#587);
#137=PLANE('',#588);
#138=FACE_OUTER_BOUND('',#163,.T.);
#139=FACE_OUTER_BOUND('',#164,.T.);
#140=FACE_OUTER_BOUND('',#165,.T.);
#141=FACE_OUTER_BOUND('',#166,.T.);
#142=FACE_OUTER_BOUND('',#167,.T.);
#143=FACE_OUTER_BOUND('',#168,.T.);
#144=FACE_OUTER_BOUND('',#170,.T.);
#145=FACE_OUTER_BOUND('',#171,.T.);
#146=FACE_OUTER_BOUND('',#172,.T.);
#147=FACE_OUTER_BOUND('',#173,.T.);
#148=FACE_OUTER_BOUND('',#174,.T.);
#149=FACE_OUTER_BOUND('',#175,.T.);
#150=FACE_OUTER_BOUND('',#177,.T.);
#151=FACE_OUTER_BOUND('',#178,.T.);
#152=FACE_OUTER_BOUND('',#179,.T.);
#153=FACE_OUTER_BOUND('',#180,.T.);
#154=FACE_OUTER_BOUND('',#181,.T.);
#155=FACE_OUTER_BOUND('',#182,.T.);
#156=FACE_OUTER_BOUND('',#184,.T.);
#157=FACE_OUTER_BOUND('',#185,.T.);
#158=FACE_OUTER_BOUND('',#187,.T.);
#159=FACE_OUTER_BOUND('',#189,.T.);
#160=FACE_OUTER_BOUND('',#190,.T.);
#161=FACE_OUTER_BOUND('',#192,.T.);
#162=FACE_OUTER_BOUND('',#193,.T.);
#163=EDGE_LOOP('',(#392,#393,#394,#395));
#164=EDGE_LOOP('',(#396,#397,#398,#399));
#165=EDGE_LOOP('',(#400,#401,#402,#403));
#166=EDGE_LOOP('',(#404,#405,#406,#407));
#167=EDGE_LOOP('',(#408,#409,#410,#411));
#168=EDGE_LOOP('',(#412,#413,#414));
#169=EDGE_LOOP('',(#415,#416,#417));
#170=EDGE_LOOP('',(#418,#419,#420,#421));
#171=EDGE_LOOP('',(#422,#423,#424,#425));
#172=EDGE_LOOP('',(#426,#427,#428,#429));
#173=EDGE_LOOP('',(#430,#431,#432,#433));
#174=EDGE_LOOP('',(#434,#435,#436,#437));
#175=EDGE_LOOP('',(#438,#439,#440));
#176=EDGE_LOOP('',(#441,#442,#443));
#177=EDGE_LOOP('',(#444,#445,#446,#447));
#178=EDGE_LOOP('',(#448,#449,#450,#451));
#179=EDGE_LOOP('',(#452,#453,#454,#455));
#180=EDGE_LOOP('',(#456,#457,#458,#459));
#181=EDGE_LOOP('',(#460,#461,#462,#463));
#182=EDGE_LOOP('',(#464,#465,#466));
#183=EDGE_LOOP('',(#467,#468,#469));
#184=EDGE_LOOP('',(#470,#471,#472,#473));
#185=EDGE_LOOP('',(#474,#475,#476));
#186=EDGE_LOOP('',(#477,#478,#479));
#187=EDGE_LOOP('',(#480,#481,#482));
#188=EDGE_LOOP('',(#483,#484,#485));
#189=EDGE_LOOP('',(#486,#487,#488,#489));
#190=EDGE_LOOP('',(#490,#491,#492));
#191=EDGE_LOOP('',(#493,#494,#495));
#192=EDGE_LOOP('',(#496,#497,#498,#499));
#193=EDGE_LOOP('',(#500,#501,#502));
#194=EDGE_LOOP('',(#503,#504,#505));
#195=ELLIPSE('',#556,2.00000000000001,1.);
#196=ELLIPSE('',#557,2.00000000000001,1.);
#197=ELLIPSE('',#559,2.,1.);
#198=ELLIPSE('',#565,1.99999999999999,1.);
#199=ELLIPSE('',#566,1.99999999999999,1.);
#200=ELLIPSE('',#568,1.99999999999999,1.);
#201=ELLIPSE('',#574,2.,1.);
#202=ELLIPSE('',#575,1.99999999999999,1.);
#203=ELLIPSE('',#577,2.,1.);
#204=LINE('',#789,#252);
#205=LINE('',#793,#253);
#206=LINE('',#797,#254);
#207=LINE('',#800,#255);
#208=LINE('',#802,#256);
#209=LINE('',#803,#257);
#210=LINE('',#806,#258);
#211=LINE('',#808,#259);
#212=LINE('',#809,#260);
#213=LINE('',#812,#261);
#214=LINE('',#813,#262);
#215=LINE('',#817,#263);
#216=LINE('',#819,#264);
#217=LINE('',#820,#265);
#218=LINE('',#824,#266);
#219=LINE('',#828,#267);
#220=LINE('',#832,#268);
#221=LINE('',#834,#269);
#222=LINE('',#837,#270);
#223=LINE('',#838,#271);
#224=LINE('',#841,#272);
#225=LINE('',#843,#273);
#226=LINE('',#844,#274);
#227=LINE('',#847,#275);
#228=LINE('',#848,#276);
#229=LINE('',#851,#277);
#230=LINE('',#852,#278);
#231=LINE('',#856,#279);
#232=LINE('',#860,#280);
#233=LINE('',#864,#281);
#234=LINE('',#866,#282);
#235=LINE('',#869,#283);
#236=LINE('',#870,#284);
#237=LINE('',#873,#285);
#238=LINE('',#875,#286);
#239=LINE('',#876,#287);
#240=LINE('',#879,#288);
#241=LINE('',#880,#289);
#242=LINE('',#882,#290);
#243=LINE('',#884,#291);
#244=LINE('',#888,#292);
#245=LINE('',#890,#293);
#246=LINE('',#891,#294);
#247=LINE('',#894,#295);
#248=LINE('',#895,#296);
#249=LINE('',#896,#297);
#250=LINE('',#899,#298);
#251=LINE('',#901,#299);
#252=VECTOR('',#620,10.);
#253=VECTOR('',#623,10.);
#254=VECTOR('',#628,10.);
#255=VECTOR('',#631,10.);
#256=VECTOR('',#634,10.);
#257=VECTOR('',#635,10.);
#258=VECTOR('',#638,10.);
#259=VECTOR('',#639,10.);
#260=VECTOR('',#640,10.);
#261=VECTOR('',#643,10.);
#262=VECTOR('',#644,10.);
#263=VECTOR('',#647,10.);
#264=VECTOR('',#648,10.);
#265=VECTOR('',#649,10.);
#266=VECTOR('',#652,10.);
#267=VECTOR('',#655,10.);
#268=VECTOR('',#660,10.);
#269=VECTOR('',#661,10.);
#270=VECTOR('',#666,10.);
#271=VECTOR('',#667,10.);
#272=VECTOR('',#670,10.);
#273=VECTOR('',#671,10.);
#274=VECTOR('',#672,10.);
#275=VECTOR('',#675,10.);
#276=VECTOR('',#676,10.);
#277=VECTOR('',#679,10.);
#278=VECTOR('',#680,10.);
#279=VECTOR('',#683,10.);
#280=VECTOR('',#686,10.);
#281=VECTOR('',#691,10.);
#282=VECTOR('',#692,10.);
#283=VECTOR('',#697,10.);
#284=VECTOR('',#698,10.);
#285=VECTOR('',#701,10.);
#286=VECTOR('',#702,10.);
#287=VECTOR('',#703,10.);
#288=VECTOR('',#706,10.);
#289=VECTOR('',#707,10.);
#290=VECTOR('',#710,10.);
#291=VECTOR('',#713,10.);
#292=VECTOR('',#716,10.);
#293=VECTOR('',#717,10.);
#294=VECTOR('',#718,10.);
#295=VECTOR('',#721,10.);
#296=VECTOR('',#722,10.);
#297=VECTOR('',#723,10.);
#298=VECTOR('',#728,10.);
#299=VECTOR('',#731,10.);
#300=VERTEX_POINT('',#787);
#301=VERTEX_POINT('',#788);
#302=VERTEX_POINT('',#790);
#303=VERTEX_POINT('',#792);
#304=VERTEX_POINT('',#796);
#305=VERTEX_POINT('',#798);
#306=VERTEX_POINT('',#805);
#307=VERTEX_POINT('',#807);
#308=VERTEX_POINT('',#811);
#309=VERTEX_POINT('',#815);
#310=VERTEX_POINT('',#816);
#311=VERTEX_POINT('',#818);
#312=VERTEX_POINT('',#822);
#313=VERTEX_POINT('',#823);
#314=VERTEX_POINT('',#825);
#315=VERTEX_POINT('',#827);
#316=VERTEX_POINT('',#831);
#317=VERTEX_POINT('',#833);
#318=VERTEX_POINT('',#840);
#319=VERTEX_POINT('',#842);
#320=VERTEX_POINT('',#846);
#321=VERTEX_POINT('',#850);
#322=VERTEX_POINT('',#854);
#323=VERTEX_POINT('',#855);
#324=VERTEX_POINT('',#857);
#325=VERTEX_POINT('',#859);
#326=VERTEX_POINT('',#863);
#327=VERTEX_POINT('',#865);
#328=VERTEX_POINT('',#872);
#329=VERTEX_POINT('',#874);
#330=VERTEX_POINT('',#878);
#331=VERTEX_POINT('',#886);
#332=VERTEX_POINT('',#887);
#333=VERTEX_POINT('',#889);
#334=VERTEX_POINT('',#893);
#335=EDGE_CURVE('',#300,#301,#204,.T.);
#336=EDGE_CURVE('',#301,#302,#195,.T.);
#337=EDGE_CURVE('',#302,#303,#205,.T.);
#338=EDGE_CURVE('',#303,#300,#196,.T.);
#339=EDGE_CURVE('',#303,#304,#206,.T.);
#340=EDGE_CURVE('',#304,#305,#197,.T.);
#341=EDGE_CURVE('',#305,#300,#207,.T.);
#342=EDGE_CURVE('',#301,#305,#208,.T.);
#343=EDGE_CURVE('',#304,#302,#209,.T.);
#344=EDGE_CURVE('',#301,#306,#210,.T.);
#345=EDGE_CURVE('',#306,#307,#211,.T.);
#346=EDGE_CURVE('',#305,#307,#212,.T.);
#347=EDGE_CURVE('',#300,#308,#213,.T.);
#348=EDGE_CURVE('',#308,#306,#214,.T.);
#349=EDGE_CURVE('',#309,#310,#215,.T.);
#350=EDGE_CURVE('',#311,#310,#216,.T.);
#351=EDGE_CURVE('',#311,#309,#217,.T.);
#352=EDGE_CURVE('',#312,#313,#218,.T.);
#353=EDGE_CURVE('',#313,#314,#198,.T.);
#354=EDGE_CURVE('',#314,#315,#219,.T.);
#355=EDGE_CURVE('',#315,#312,#199,.T.);
#356=EDGE_CURVE('',#316,#314,#220,.T.);
#357=EDGE_CURVE('',#313,#317,#221,.T.);
#358=EDGE_CURVE('',#317,#316,#200,.T.);
#359=EDGE_CURVE('',#315,#316,#222,.T.);
#360=EDGE_CURVE('',#317,#312,#223,.T.);
#361=EDGE_CURVE('',#315,#318,#224,.T.);
#362=EDGE_CURVE('',#318,#319,#225,.T.);
#363=EDGE_CURVE('',#316,#319,#226,.T.);
#364=EDGE_CURVE('',#314,#320,#227,.T.);
#365=EDGE_CURVE('',#320,#318,#228,.T.);
#366=EDGE_CURVE('',#321,#311,#229,.T.);
#367=EDGE_CURVE('',#321,#310,#230,.T.);
#368=EDGE_CURVE('',#322,#323,#231,.T.);
#369=EDGE_CURVE('',#323,#324,#201,.T.);
#370=EDGE_CURVE('',#324,#325,#232,.T.);
#371=EDGE_CURVE('',#325,#322,#202,.T.);
#372=EDGE_CURVE('',#326,#324,#233,.T.);
#373=EDGE_CURVE('',#323,#327,#234,.T.);
#374=EDGE_CURVE('',#327,#326,#203,.T.);
#375=EDGE_CURVE('',#327,#322,#235,.T.);
#376=EDGE_CURVE('',#325,#326,#236,.T.);
#377=EDGE_CURVE('',#325,#328,#237,.T.);
#378=EDGE_CURVE('',#329,#328,#238,.T.);
#379=EDGE_CURVE('',#326,#329,#239,.T.);
#380=EDGE_CURVE('',#324,#330,#240,.T.);
#381=EDGE_CURVE('',#328,#330,#241,.T.);
#382=EDGE_CURVE('',#309,#321,#242,.T.);
#383=EDGE_CURVE('',#307,#308,#243,.T.);
#384=EDGE_CURVE('',#331,#332,#244,.T.);
#385=EDGE_CURVE('',#332,#333,#245,.T.);
#386=EDGE_CURVE('',#333,#331,#246,.T.);
#387=EDGE_CURVE('',#331,#334,#247,.T.);
#388=EDGE_CURVE('',#332,#334,#248,.F.);
#389=EDGE_CURVE('',#330,#329,#249,.T.);
#390=EDGE_CURVE('',#333,#334,#250,.T.);
#391=EDGE_CURVE('',#319,#320,#251,.T.);
#392=ORIENTED_EDGE('',*,*,#335,.T.);
#393=ORIENTED_EDGE('',*,*,#336,.T.);
#394=ORIENTED_EDGE('',*,*,#337,.T.);
#395=ORIENTED_EDGE('',*,*,#338,.T.);
#396=ORIENTED_EDGE('',*,*,#339,.T.);
#397=ORIENTED_EDGE('',*,*,#340,.T.);
#398=ORIENTED_EDGE('',*,*,#341,.T.);
#399=ORIENTED_EDGE('',*,*,#338,.F.);
#400=ORIENTED_EDGE('',*,*,#342,.T.);
#401=ORIENTED_EDGE('',*,*,#340,.F.);
#402=ORIENTED_EDGE('',*,*,#343,.T.);
#403=ORIENTED_EDGE('',*,*,#336,.F.);
#404=ORIENTED_EDGE('',*,*,#342,.F.);
#405=ORIENTED_EDGE('',*,*,#344,.T.);
#406=ORIENTED_EDGE('',*,*,#345,.T.);
#407=ORIENTED_EDGE('',*,*,#346,.F.);
#408=ORIENTED_EDGE('',*,*,#335,.F.);
#409=ORIENTED_EDGE('',*,*,#347,.T.);
#410=ORIENTED_EDGE('',*,*,#348,.T.);
#411=ORIENTED_EDGE('',*,*,#344,.F.);
#412=ORIENTED_EDGE('',*,*,#349,.T.);
#413=ORIENTED_EDGE('',*,*,#350,.F.);
#414=ORIENTED_EDGE('',*,*,#351,.T.);
#415=ORIENTED_EDGE('',*,*,#337,.F.);
#416=ORIENTED_EDGE('',*,*,#343,.F.);
#417=ORIENTED_EDGE('',*,*,#339,.F.);
#418=ORIENTED_EDGE('',*,*,#352,.T.);
#419=ORIENTED_EDGE('',*,*,#353,.T.);
#420=ORIENTED_EDGE('',*,*,#354,.T.);
#421=ORIENTED_EDGE('',*,*,#355,.T.);
#422=ORIENTED_EDGE('',*,*,#356,.T.);
#423=ORIENTED_EDGE('',*,*,#353,.F.);
#424=ORIENTED_EDGE('',*,*,#357,.T.);
#425=ORIENTED_EDGE('',*,*,#358,.T.);
#426=ORIENTED_EDGE('',*,*,#359,.T.);
#427=ORIENTED_EDGE('',*,*,#358,.F.);
#428=ORIENTED_EDGE('',*,*,#360,.T.);
#429=ORIENTED_EDGE('',*,*,#355,.F.);
#430=ORIENTED_EDGE('',*,*,#359,.F.);
#431=ORIENTED_EDGE('',*,*,#361,.T.);
#432=ORIENTED_EDGE('',*,*,#362,.T.);
#433=ORIENTED_EDGE('',*,*,#363,.F.);
#434=ORIENTED_EDGE('',*,*,#354,.F.);
#435=ORIENTED_EDGE('',*,*,#364,.T.);
#436=ORIENTED_EDGE('',*,*,#365,.T.);
#437=ORIENTED_EDGE('',*,*,#361,.F.);
#438=ORIENTED_EDGE('',*,*,#366,.T.);
#439=ORIENTED_EDGE('',*,*,#350,.T.);
#440=ORIENTED_EDGE('',*,*,#367,.F.);
#441=ORIENTED_EDGE('',*,*,#352,.F.);
#442=ORIENTED_EDGE('',*,*,#360,.F.);
#443=ORIENTED_EDGE('',*,*,#357,.F.);
#444=ORIENTED_EDGE('',*,*,#368,.T.);
#445=ORIENTED_EDGE('',*,*,#369,.T.);
#446=ORIENTED_EDGE('',*,*,#370,.T.);
#447=ORIENTED_EDGE('',*,*,#371,.T.);
#448=ORIENTED_EDGE('',*,*,#372,.T.);
#449=ORIENTED_EDGE('',*,*,#369,.F.);
#450=ORIENTED_EDGE('',*,*,#373,.T.);
#451=ORIENTED_EDGE('',*,*,#374,.T.);
#452=ORIENTED_EDGE('',*,*,#375,.T.);
#453=ORIENTED_EDGE('',*,*,#371,.F.);
#454=ORIENTED_EDGE('',*,*,#376,.T.);
#455=ORIENTED_EDGE('',*,*,#374,.F.);
#456=ORIENTED_EDGE('',*,*,#376,.F.);
#457=ORIENTED_EDGE('',*,*,#377,.T.);
#458=ORIENTED_EDGE('',*,*,#378,.F.);
#459=ORIENTED_EDGE('',*,*,#379,.F.);
#460=ORIENTED_EDGE('',*,*,#370,.F.);
#461=ORIENTED_EDGE('',*,*,#380,.T.);
#462=ORIENTED_EDGE('',*,*,#381,.F.);
#463=ORIENTED_EDGE('',*,*,#377,.F.);
#464=ORIENTED_EDGE('',*,*,#382,.T.);
#465=ORIENTED_EDGE('',*,*,#367,.T.);
#466=ORIENTED_EDGE('',*,*,#349,.F.);
#467=ORIENTED_EDGE('',*,*,#368,.F.);
#468=ORIENTED_EDGE('',*,*,#375,.F.);
#469=ORIENTED_EDGE('',*,*,#373,.F.);
#470=ORIENTED_EDGE('',*,*,#341,.F.);
#471=ORIENTED_EDGE('',*,*,#346,.T.);
#472=ORIENTED_EDGE('',*,*,#383,.T.);
#473=ORIENTED_EDGE('',*,*,#347,.F.);
#474=ORIENTED_EDGE('',*,*,#382,.F.);
#475=ORIENTED_EDGE('',*,*,#351,.F.);
#476=ORIENTED_EDGE('',*,*,#366,.F.);
#477=ORIENTED_EDGE('',*,*,#384,.T.);
#478=ORIENTED_EDGE('',*,*,#385,.T.);
#479=ORIENTED_EDGE('',*,*,#386,.T.);
#480=ORIENTED_EDGE('',*,*,#384,.F.);
#481=ORIENTED_EDGE('',*,*,#387,.T.);
#482=ORIENTED_EDGE('',*,*,#388,.F.);
#483=ORIENTED_EDGE('',*,*,#389,.T.);
#484=ORIENTED_EDGE('',*,*,#378,.T.);
#485=ORIENTED_EDGE('',*,*,#381,.T.);
#486=ORIENTED_EDGE('',*,*,#372,.F.);
#487=ORIENTED_EDGE('',*,*,#379,.T.);
#488=ORIENTED_EDGE('',*,*,#389,.F.);
#489=ORIENTED_EDGE('',*,*,#380,.F.);
#490=ORIENTED_EDGE('',*,*,#387,.F.);
#491=ORIENTED_EDGE('',*,*,#386,.F.);
#492=ORIENTED_EDGE('',*,*,#390,.T.);
#493=ORIENTED_EDGE('',*,*,#348,.F.);
#494=ORIENTED_EDGE('',*,*,#383,.F.);
#495=ORIENTED_EDGE('',*,*,#345,.F.);
#496=ORIENTED_EDGE('',*,*,#356,.F.);
#497=ORIENTED_EDGE('',*,*,#363,.T.);
#498=ORIENTED_EDGE('',*,*,#391,.T.);
#499=ORIENTED_EDGE('',*,*,#364,.F.);
#500=ORIENTED_EDGE('',*,*,#385,.F.);
#501=ORIENTED_EDGE('',*,*,#388,.T.);
#502=ORIENTED_EDGE('',*,*,#390,.F.);
#503=ORIENTED_EDGE('',*,*,#391,.F.);
#504=ORIENTED_EDGE('',*,*,#362,.F.);
#505=ORIENTED_EDGE('',*,*,#365,.F.);
#506=CYLINDRICAL_SURFACE('',#555,1.);
#507=CYLINDRICAL_SURFACE('',#558,1.);
#508=CYLINDRICAL_SURFACE('',#560,1.);
#509=CYLINDRICAL_SURFACE('',#564,1.);
#510=CYLINDRICAL_SURFACE('',#567,1.);
#511=CYLINDRICAL_SURFACE('',#569,1.);
#512=CYLINDRICAL_SURFACE('',#573,1.);
#513=CYLINDRICAL_SURFACE('',#576,1.);
#514=CYLINDRICAL_SURFACE('',#578,1.);
#515=ADVANCED_FACE('',(#138),#506,.T.);
#516=ADVANCED_FACE('',(#139),#507,.T.);
#517=ADVANCED_FACE('',(#140),#508,.T.);
#518=ADVANCED_FACE('',(#141),#122,.F.);
#519=ADVANCED_FACE('',(#142),#123,.F.);
#520=ADVANCED_FACE('',(#143,#115),#124,.T.);
#521=ADVANCED_FACE('',(#144),#509,.T.);
#522=ADVANCED_FACE('',(#145),#510,.T.);
#523=ADVANCED_FACE('',(#146),#511,.T.);
#524=ADVANCED_FACE('',(#147),#125,.F.);
#525=ADVANCED_FACE('',(#148),#126,.F.);
#526=ADVANCED_FACE('',(#149,#116),#127,.T.);
#527=ADVANCED_FACE('',(#150),#512,.T.);
#528=ADVANCED_FACE('',(#151),#513,.T.);
#529=ADVANCED_FACE('',(#152),#514,.T.);
#530=ADVANCED_FACE('',(#153),#128,.F.);
#531=ADVANCED_FACE('',(#154),#129,.F.);
#532=ADVANCED_FACE('',(#155,#117),#130,.T.);
#533=ADVANCED_FACE('',(#156),#131,.F.);
#534=ADVANCED_FACE('',(#157,#118),#132,.F.);
#535=ADVANCED_FACE('',(#158,#119),#133,.F.);
#536=ADVANCED_FACE('',(#159),#134,.F.);
#537=ADVANCED_FACE('',(#160,#120),#135,.F.);
#538=ADVANCED_FACE('',(#161),#136,.F.);
#539=ADVANCED_FACE('',(#162,#121),#137,.F.);
#540=CLOSED_SHELL('',(#515,#516,#517,#518,#519,#520,#521,#522,#523,#524,
#525,#526,#527,#528,#529,#530,#531,#532,#533,#534,#535,#536,#537,#538,#539));
#541=DERIVED_UNIT_ELEMENT(#543,1.);
#542=DERIVED_UNIT_ELEMENT(#935,-3.);
#543=(
MASS_UNIT()
NAMED_UNIT(*)
SI_UNIT(.KILO.,.GRAM.)
);
#544=DERIVED_UNIT((#541,#542));
#545=MEASURE_REPRESENTATION_ITEM('density measure',
POSITIVE_RATIO_MEASURE(7850.),#544);
#546=PROPERTY_DEFINITION_REPRESENTATION(#551,#548);
#547=PROPERTY_DEFINITION_REPRESENTATION(#552,#549);
#548=REPRESENTATION('material name',(#550),#932);
#549=REPRESENTATION('density',(#545),#932);
#550=DESCRIPTIVE_REPRESENTATION_ITEM('Steel','Steel');
#551=PROPERTY_DEFINITION('material property','material name',#971);
#552=PROPERTY_DEFINITION('material property','density of part',#971);
#553=AXIS2_PLACEMENT_3D('',#784,#614,#615);
#554=AXIS2_PLACEMENT_3D('',#785,#616,#617);
#555=AXIS2_PLACEMENT_3D('',#786,#618,#619);
#556=AXIS2_PLACEMENT_3D('',#791,#621,#622);
#557=AXIS2_PLACEMENT_3D('',#794,#624,#625);
#558=AXIS2_PLACEMENT_3D('',#795,#626,#627);
#559=AXIS2_PLACEMENT_3D('',#799,#629,#630);
#560=AXIS2_PLACEMENT_3D('',#801,#632,#633);
#561=AXIS2_PLACEMENT_3D('',#804,#636,#637);
#562=AXIS2_PLACEMENT_3D('',#810,#641,#642);
#563=AXIS2_PLACEMENT_3D('',#814,#645,#646);
#564=AXIS2_PLACEMENT_3D('',#821,#650,#651);
#565=AXIS2_PLACEMENT_3D('',#826,#653,#654);
#566=AXIS2_PLACEMENT_3D('',#829,#656,#657);
#567=AXIS2_PLACEMENT_3D('',#830,#658,#659);
#568=AXIS2_PLACEMENT_3D('',#835,#662,#663);
#569=AXIS2_PLACEMENT_3D('',#836,#664,#665);
#570=AXIS2_PLACEMENT_3D('',#839,#668,#669);
#571=AXIS2_PLACEMENT_3D('',#845,#673,#674);
#572=AXIS2_PLACEMENT_3D('',#849,#677,#678);
#573=AXIS2_PLACEMENT_3D('',#853,#681,#682);
#574=AXIS2_PLACEMENT_3D('',#858,#684,#685);
#575=AXIS2_PLACEMENT_3D('',#861,#687,#688);
#576=AXIS2_PLACEMENT_3D('',#862,#689,#690);
#577=AXIS2_PLACEMENT_3D('',#867,#693,#694);
#578=AXIS2_PLACEMENT_3D('',#868,#695,#696);
#579=AXIS2_PLACEMENT_3D('',#871,#699,#700);
#580=AXIS2_PLACEMENT_3D('',#877,#704,#705);
#581=AXIS2_PLACEMENT_3D('',#881,#708,#709);
#582=AXIS2_PLACEMENT_3D('',#883,#711,#712);
#583=AXIS2_PLACEMENT_3D('',#885,#714,#715);
#584=AXIS2_PLACEMENT_3D('',#892,#719,#720);
#585=AXIS2_PLACEMENT_3D('',#897,#724,#725);
#586=AXIS2_PLACEMENT_3D('',#898,#726,#727);
#587=AXIS2_PLACEMENT_3D('',#900,#729,#730);
#588=AXIS2_PLACEMENT_3D('',#902,#732,#733);
#589=AXIS2_PLACEMENT_3D('',#903,#734,#735);
#590=AXIS2_PLACEMENT_3D('',#904,#736,#737);
#591=AXIS2_PLACEMENT_3D('',#905,#738,#739);
#592=AXIS2_PLACEMENT_3D('',#906,#740,#741);
#593=AXIS2_PLACEMENT_3D('',#907,#742,#743);
#594=AXIS2_PLACEMENT_3D('',#908,#744,#745);
#595=AXIS2_PLACEMENT_3D('',#909,#746,#747);
#596=AXIS2_PLACEMENT_3D('',#910,#748,#749);
#597=AXIS2_PLACEMENT_3D('',#911,#750,#751);
#598=AXIS2_PLACEMENT_3D('',#912,#752,#753);
#599=AXIS2_PLACEMENT_3D('',#913,#754,#755);
#600=AXIS2_PLACEMENT_3D('',#914,#756,#757);
#601=AXIS2_PLACEMENT_3D('',#915,#758,#759);
#602=AXIS2_PLACEMENT_3D('',#916,#760,#761);
#603=AXIS2_PLACEMENT_3D('',#917,#762,#763);
#604=AXIS2_PLACEMENT_3D('',#918,#764,#765);
#605=AXIS2_PLACEMENT_3D('',#919,#766,#767);
#606=AXIS2_PLACEMENT_3D('',#920,#768,#769);
#607=AXIS2_PLACEMENT_3D('',#921,#770,#771);
#608=AXIS2_PLACEMENT_3D('',#922,#772,#773);
#609=AXIS2_PLACEMENT_3D('',#923,#774,#775);
#610=AXIS2_PLACEMENT_3D('',#924,#776,#777);
#611=AXIS2_PLACEMENT_3D('',#925,#778,#779);
#612=AXIS2_PLACEMENT_3D('',#926,#780,#781);
#613=AXIS2_PLACEMENT_3D('',#927,#782,#783);
#614=DIRECTION('axis',(0.,0.,1.));
#615=DIRECTION('refdir',(1.,0.,0.));
#616=DIRECTION('axis',(0.,0.,1.));
#617=DIRECTION('refdir',(1.,0.,0.));
#618=DIRECTION('center_axis',(0.,0.577350269189626,-0.816496580927726));
#619=DIRECTION('ref_axis',(-0.985598559653489,-0.138071187457699,-0.097631072937816));
#620=DIRECTION('',(0.,-0.577350269189626,0.816496580927726));
#621=DIRECTION('center_axis',(0.500000000000003,0.866025403784437,4.9960036108132E-16));
#622=DIRECTION('ref_axis',(0.288675134594814,-0.166666666666669,0.942809041582063));
#623=DIRECTION('',(-4.53246651836839E-17,0.577350269189626,-0.816496580927726));
#624=DIRECTION('center_axis',(0.500000000000006,0.288675134594811,0.816496580927723));
#625=DIRECTION('ref_axis',(-0.288675134594815,-0.833333333333331,0.471404520791034));
#626=DIRECTION('center_axis',(-0.5,-0.866025403784439,-1.66533453693774E-16));
#627=DIRECTION('ref_axis',(-0.373226123957693,0.215482203135576,0.902368927062183));
#628=DIRECTION('',(-0.5,-0.866025403784439,-1.48029736616688E-16));
#629=DIRECTION('center_axis',(-1.38777878078145E-16,0.577350269189627,-0.816496580927725));
#630=DIRECTION('ref_axis',(0.577350269189626,0.666666666666666,0.471404520791033));
#631=DIRECTION('',(0.5,0.866025403784439,1.75512962945463E-16));
#632=DIRECTION('center_axis',(0.5,0.288675134594813,0.816496580927726));
#633=DIRECTION('ref_axis',(-0.373226123957695,0.922588984322123,-0.0976310729378156));
#634=DIRECTION('',(-0.5,-0.288675134594813,-0.816496580927726));
#635=DIRECTION('',(0.5,0.288675134594813,0.816496580927726));
#636=DIRECTION('center_axis',(-0.288675134594813,-0.833333333333333,0.471404520791032));
#637=DIRECTION('ref_axis',(-0.5,-0.288675134594812,-0.816496580927726));
#638=DIRECTION('',(0.816496580927726,-0.471404520791032,-0.333333333333334));
#639=DIRECTION('',(-0.5,-0.288675134594813,-0.816496580927726));
#640=DIRECTION('',(0.816496580927726,-0.471404520791032,-0.333333333333334));
#641=DIRECTION('center_axis',(0.577350269189626,0.666666666666666,0.471404520791032));
#642=DIRECTION('ref_axis',(-1.94289029309402E-16,-0.577350269189626,0.816496580927726));
#643=DIRECTION('',(0.816496580927726,-0.471404520791032,-0.333333333333334));
#644=DIRECTION('',(0.,-0.577350269189626,0.816496580927726));
#645=DIRECTION('center_axis',(-0.816496580927726,0.471404520791032,0.333333333333333));
#646=DIRECTION('ref_axis',(0.377964473009227,0.,0.925820099772551));
#647=DIRECTION('',(0.5,0.288675134594813,0.816496580927726));
#648=DIRECTION('',(-1.66533453693773E-17,-0.577350269189626,0.816496580927726));
#649=DIRECTION('',(-0.5,-0.866025403784439,0.));
#650=DIRECTION('center_axis',(0.5,-0.288675134594813,-0.816496580927726));
#651=DIRECTION('ref_axis',(0.373226123957696,0.922588984322122,-0.0976310729378173));
#652=DIRECTION('',(0.5,-0.288675134594813,-0.816496580927726));
#653=DIRECTION('center_axis',(-3.05311331771918E-16,-0.577350269189624,
0.816496580927728));
#654=DIRECTION('ref_axis',(-0.577350269189626,0.666666666666668,0.471404520791029));
#655=DIRECTION('',(-0.5,0.288675134594813,0.816496580927726));
#656=DIRECTION('center_axis',(0.500000000000002,-0.866025403784438,-1.9151347174784E-15));
#657=DIRECTION('ref_axis',(-0.288675134594811,-0.166666666666668,0.942809041582064));
#658=DIRECTION('center_axis',(-0.5,0.866025403784439,-2.77555756156289E-17));
#659=DIRECTION('ref_axis',(0.373226123957696,0.215482203135576,0.902368927062182));
#660=DIRECTION('',(0.5,-0.866025403784439,3.08395284618099E-18));
#661=DIRECTION('',(-0.5,0.866025403784439,-2.46716227694479E-17));
#662=DIRECTION('center_axis',(0.500000000000001,-0.288675134594815,-0.816496580927725));
#663=DIRECTION('ref_axis',(0.288675134594811,-0.833333333333333,0.471404520791034));
#664=DIRECTION('center_axis',(-1.66533453693774E-16,-0.577350269189626,
0.816496580927726));
#665=DIRECTION('ref_axis',(0.985598559653489,-0.138071187457698,-0.0976310729378158));
#666=DIRECTION('',(1.34484075587381E-16,0.577350269189626,-0.816496580927726));
#667=DIRECTION('',(-2.11858118877457E-16,-0.577350269189626,0.816496580927726));
#668=DIRECTION('center_axis',(-0.577350269189626,0.666666666666667,0.471404520791032));
#669=DIRECTION('ref_axis',(2.22044604925031E-16,0.577350269189626,-0.816496580927726));
#670=DIRECTION('',(-0.816496580927726,-0.471404520791031,-0.333333333333334));
#671=DIRECTION('',(1.66533453693773E-16,0.577350269189626,-0.816496580927726));
#672=DIRECTION('',(-0.816496580927726,-0.471404520791031,-0.333333333333334));
#673=DIRECTION('center_axis',(0.288675134594813,-0.833333333333334,0.471404520791032));
#674=DIRECTION('ref_axis',(-0.5,0.288675134594813,0.816496580927726));
#675=DIRECTION('',(-0.816496580927726,-0.471404520791031,-0.333333333333334));
#676=DIRECTION('',(-0.5,0.288675134594813,0.816496580927726));
#677=DIRECTION('center_axis',(0.816496580927726,0.471404520791032,0.333333333333333));
#678=DIRECTION('ref_axis',(0.377964473009227,0.,-0.925820099772552));
#679=DIRECTION('',(-0.5,0.866025403784439,0.));
#680=DIRECTION('',(-0.5,0.288675134594813,0.816496580927726));
#681=DIRECTION('center_axis',(0.5,0.288675134594813,0.816496580927726));
#682=DIRECTION('ref_axis',(0.612372435695794,-0.784517796864425,-0.0976310729378172));
#683=DIRECTION('',(-0.5,-0.288675134594813,-0.816496580927726));
#684=DIRECTION('center_axis',(-0.500000000000001,0.288675134594816,0.816496580927724));
#685=DIRECTION('ref_axis',(-0.866025403784438,-0.166666666666665,-0.471404520791033));
#686=DIRECTION('',(0.5,0.288675134594813,0.816496580927726));
#687=DIRECTION('center_axis',(-1.,-5.82050040067649E-15,-1.47485038042981E-15));
#688=DIRECTION('ref_axis',(3.33066907387546E-15,-0.333333333333331,-0.942809041582064));
#689=DIRECTION('center_axis',(-1.,0.,0.));
#690=DIRECTION('ref_axis',(0.,-0.430964406271152,0.902368927062182));
#691=DIRECTION('',(-1.,0.,0.));
#692=DIRECTION('',(1.,0.,0.));
#693=DIRECTION('center_axis',(-0.5,-0.288675134594812,-0.816496580927726));
#694=DIRECTION('ref_axis',(0.866025403784439,-0.166666666666666,-0.471404520791032));
#695=DIRECTION('center_axis',(0.5,-0.288675134594813,-0.816496580927726));
#696=DIRECTION('ref_axis',(-0.612372435695795,-0.784517796864423,-0.0976310729378217));
#697=DIRECTION('',(-0.5,0.288675134594813,0.816496580927726));
#698=DIRECTION('',(0.5,-0.288675134594813,-0.816496580927726));
#699=DIRECTION('center_axis',(0.866025403784439,0.166666666666667,0.471404520791032));
#700=DIRECTION('ref_axis',(0.5,-0.288675134594813,-0.816496580927726));
#701=DIRECTION('',(0.,0.942809041582063,-0.333333333333334));
#702=DIRECTION('',(-0.5,0.288675134594813,0.816496580927726));
#703=DIRECTION('',(0.,0.942809041582063,-0.333333333333334));
#704=DIRECTION('center_axis',(-0.866025403784439,0.166666666666667,0.471404520791032));
#705=DIRECTION('ref_axis',(0.5,0.288675134594813,0.816496580927726));
#706=DIRECTION('',(0.,0.942809041582063,-0.333333333333334));
#707=DIRECTION('',(-0.5,-0.288675134594813,-0.816496580927726));
#708=DIRECTION('center_axis',(0.,-0.942809041582063,0.333333333333333));
#709=DIRECTION('ref_axis',(0.,-0.333333333333333,-0.942809041582063));
#710=DIRECTION('',(1.,0.,0.));
#711=DIRECTION('center_axis',(-0.288675134594813,0.166666666666667,-0.942809041582063));
#712=DIRECTION('ref_axis',(0.5,0.866025403784438,0.));
#713=DIRECTION('',(0.5,0.866025403784439,1.66533453693774E-16));
#714=DIRECTION('center_axis',(0.,0.,1.));
#715=DIRECTION('ref_axis',(1.,0.,0.));
#716=DIRECTION('',(1.,0.,0.));
#717=DIRECTION('',(-0.5,0.866025403784439,0.));
#718=DIRECTION('',(-0.5,-0.866025403784439,0.));
#719=DIRECTION('center_axis',(0.,-0.942809041582063,0.333333333333333));
#720=DIRECTION('ref_axis',(0.,-0.333333333333333,-0.942809041582063));
#721=DIRECTION('',(0.5,0.288675134594813,0.816496580927726));
#722=DIRECTION('',(0.5,-0.288675134594813,-0.816496580927726));
#723=DIRECTION('',(1.,0.,0.));
#724=DIRECTION('center_axis',(0.,-0.333333333333334,-0.942809041582063));
#725=DIRECTION('ref_axis',(-1.,0.,0.));
#726=DIRECTION('center_axis',(-0.816496580927726,0.471404520791032,0.333333333333333));
#727=DIRECTION('ref_axis',(0.377964473009227,0.,0.925820099772551));
#728=DIRECTION('',(0.,-0.577350269189626,0.816496580927726));
#729=DIRECTION('center_axis',(0.288675134594813,0.166666666666667,-0.942809041582063));
#730=DIRECTION('ref_axis',(0.5,-0.866025403784439,0.));
#731=DIRECTION('',(0.5,-0.866025403784439,2.77555756156289E-17));
#732=DIRECTION('center_axis',(0.816496580927726,0.471404520791032,0.333333333333333));
#733=DIRECTION('ref_axis',(0.377964473009227,0.,-0.925820099772552));
#734=DIRECTION('',(0.,0.,1.));
#735=DIRECTION('',(1.,0.,0.));
#736=DIRECTION('',(0.,0.,1.));
#737=DIRECTION('',(1.,0.,0.));
#738=DIRECTION('',(0.,0.,1.));
#739=DIRECTION('',(1.,0.,0.));
#740=DIRECTION('',(0.,0.,1.));
#741=DIRECTION('',(1.,0.,0.));
#742=DIRECTION('',(0.,0.,1.));
#743=DIRECTION('',(1.,0.,0.));
#744=DIRECTION('',(0.,0.,1.));
#745=DIRECTION('',(1.,0.,0.));
#746=DIRECTION('',(0.,0.,1.));
#747=DIRECTION('',(1.,0.,0.));
#748=DIRECTION('',(0.,0.,1.));
#749=DIRECTION('',(1.,0.,0.));
#750=DIRECTION('',(0.,0.,1.));
#751=DIRECTION('',(1.,0.,0.));
#752=DIRECTION('',(0.,0.,1.));
#753=DIRECTION('',(1.,0.,0.));
#754=DIRECTION('',(0.,0.,1.));
#755=DIRECTION('',(1.,0.,0.));
#756=DIRECTION('',(0.,0.,1.));
#757=DIRECTION('',(1.,0.,0.));
#758=DIRECTION('',(0.,0.,1.));
#759=DIRECTION('',(1.,0.,0.));
#760=DIRECTION('',(0.,0.,1.));
#761=DIRECTION('',(1.,0.,0.));
#762=DIRECTION('',(0.,0.,1.));
#763=DIRECTION('',(1.,0.,0.));
#764=DIRECTION('',(0.,0.,1.));
#765=DIRECTION('',(1.,0.,0.));
#766=DIRECTION('',(0.,0.,1.));
#767=DIRECTION('',(1.,0.,0.));
#768=DIRECTION('',(0.,0.,1.));
#769=DIRECTION('',(1.,0.,0.));
#770=DIRECTION('',(0.,0.,1.));
#771=DIRECTION('',(1.,0.,0.));
#772=DIRECTION('',(0.,0.,1.));
#773=DIRECTION('',(1.,0.,0.));
#774=DIRECTION('',(0.,0.,1.));
#775=DIRECTION('',(1.,0.,0.));
#776=DIRECTION('',(0.,0.,1.));
#777=DIRECTION('',(1.,0.,0.));
#778=DIRECTION('',(0.,0.,1.));
#779=DIRECTION('',(1.,0.,0.));
#780=DIRECTION('',(0.,0.,1.));
#781=DIRECTION('',(1.,0.,0.));
#782=DIRECTION('',(0.,0.,1.));
#783=DIRECTION('',(1.,0.,0.));
#784=CARTESIAN_POINT('',(0.,0.,0.));
#785=CARTESIAN_POINT('',(0.,0.,0.));
#786=CARTESIAN_POINT('Origin',(-2.0702547650204,22.0627756053569,1.5522847498308));
#787=CARTESIAN_POINT('',(-2.64760503421003,18.3961089386903,5.32352091615905));
#788=CARTESIAN_POINT('',(-2.64760503421002,1.52859547920897,29.1777872140682));
#789=CARTESIAN_POINT('',(-2.64760503421002,21.3961089386903,1.08088022903977));
#790=CARTESIAN_POINT('',(-2.88675134594812,1.66666666666667,31.3967386305657));
#791=CARTESIAN_POINT('Origin',(-2.0702547650204,1.19526214587563,31.0634052972323));
#792=CARTESIAN_POINT('',(-2.88675134594812,20.534180126148,4.71404520791032));
#793=CARTESIAN_POINT('',(-2.88675134594813,22.534180126148,1.88561808316413));
#794=CARTESIAN_POINT('Origin',(-2.0702547650204,20.0627756053569,4.38071187457698));
#795=CARTESIAN_POINT('Origin',(-7.64205153474489,10.412140510746,4.38071187457698));
#796=CARTESIAN_POINT('',(-19.2264973081037,-7.76709006307397,4.71404520791032));
#797=CARTESIAN_POINT('',(-8.45854811567262,10.883545031537,4.71404520791032));
#798=CARTESIAN_POINT('',(-17.2553001887968,-6.90516125053167,5.32352091615905));
#799=CARTESIAN_POINT('Origin',(-18.410000727176,-8.238494583865,4.38071187457698));
#800=CARTESIAN_POINT('',(-7.35337640015008,10.2454738440793,5.32352091615905));
#801=CARTESIAN_POINT('Origin',(-6.58820395745153,-1.41317703655952,23.6856251603819));
#802=CARTESIAN_POINT('',(-6.29952882285671,-0.579843703226193,23.2142206395909));
#803=CARTESIAN_POINT('',(-7.40470053837925,-0.941772515768492,24.0189584937153));
#804=CARTESIAN_POINT('Origin',(-3.46410161513775,2.,29.5111205474015));
#805=CARTESIAN_POINT('',(-1.42286016281843,0.821488698022422,28.6777872140682));
#806=CARTESIAN_POINT('',(-3.46410161513775,2.,29.5111205474016));
#807=CARTESIAN_POINT('',(-16.0305553174052,-7.61226803171821,4.82352091615905));
#808=CARTESIAN_POINT('',(-5.07478395146512,-1.28695048441274,22.7142206395909));
#809=CARTESIAN_POINT('',(-18.0717967697245,-6.43375672974063,5.65685424949238));
#810=CARTESIAN_POINT('Origin',(-3.46410161513774,18.8675134594813,5.65685424949238));
#811=CARTESIAN_POINT('',(-1.42286016281843,17.6890021575037,4.82352091615904));
#812=CARTESIAN_POINT('',(-3.46410161513774,18.8675134594813,5.65685424949238));
#813=CARTESIAN_POINT('',(-1.42286016281844,20.6890021575037,0.580880229039766));
#814=CARTESIAN_POINT('Origin',(8.32667268468867E-16,28.8675134594813,0.));
#815=CARTESIAN_POINT('',(-25.,-14.4337567297406,0.));
#816=CARTESIAN_POINT('',(0.,0.,40.8248290463863));
#817=CARTESIAN_POINT('',(-25.,-14.4337567297406,0.));
#818=CARTESIAN_POINT('',(8.32667268468867E-16,28.8675134594813,0.));
#819=CARTESIAN_POINT('',(8.32667268468867E-16,28.8675134594813,0.));
#820=CARTESIAN_POINT('',(1.11022302462516E-15,28.8675134594813,0.));
#821=CARTESIAN_POINT('Origin',(20.1420515347449,-9.23849458386502,1.5522847498308));
#822=CARTESIAN_POINT('',(2.88675134594813,1.66666666666666,31.3967386305657));
#823=CARTESIAN_POINT('',(19.2264973081037,-7.76709006307399,4.71404520791032));
#824=CARTESIAN_POINT('',(20.9585481156726,-8.76709006307399,1.88561808316413));
#825=CARTESIAN_POINT('',(17.2553001887968,-6.90516125053168,5.32352091615904));
#826=CARTESIAN_POINT('Origin',(18.410000727176,-8.23849458386502,4.38071187457699));
#827=CARTESIAN_POINT('',(2.64760503421003,1.52859547920896,29.1777872140682));
#828=CARTESIAN_POINT('',(19.8533764001501,-8.40516125053168,1.08088022903976));
#829=CARTESIAN_POINT('Origin',(2.07025476502041,1.19526214587563,31.0634052972323));
#830=CARTESIAN_POINT('Origin',(12.8382039574515,1.41214051074596,4.38071187457698));
#831=CARTESIAN_POINT('',(2.64760503421003,18.3961089386903,5.32352091615905));
#832=CARTESIAN_POINT('',(12.5495288228567,1.24547384407929,5.32352091615905));
#833=CARTESIAN_POINT('',(2.88675134594814,20.534180126148,4.71404520791031));
#834=CARTESIAN_POINT('',(13.6547005383792,1.88354503153699,4.71404520791032));
#835=CARTESIAN_POINT('Origin',(2.07025476502041,20.0627756053569,4.38071187457698));
#836=CARTESIAN_POINT('Origin',(2.07025476502041,6.41214051074596,23.6856251603819));
#837=CARTESIAN_POINT('',(2.64760503421003,5.74547384407929,23.2142206395909));
#838=CARTESIAN_POINT('',(2.88675134594813,6.88354503153699,24.0189584937153));
#839=CARTESIAN_POINT('Origin',(3.46410161513775,1.99999999999999,29.5111205474015));
#840=CARTESIAN_POINT('',(1.42286016281844,0.821488698022417,28.6777872140682));
#841=CARTESIAN_POINT('',(3.46410161513775,1.99999999999999,29.5111205474016));
#842=CARTESIAN_POINT('',(1.42286016281844,17.6890021575037,4.82352091615905));
#843=CARTESIAN_POINT('',(1.42286016281844,5.03836706289274,22.7142206395909));
#844=CARTESIAN_POINT('',(3.46410161513776,18.8675134594813,5.65685424949238));
#845=CARTESIAN_POINT('Origin',(18.0717967697245,-6.43375672974065,5.65685424949238));
#846=CARTESIAN_POINT('',(16.0305553174052,-7.61226803171823,4.82352091615904));
#847=CARTESIAN_POINT('',(18.0717967697245,-6.43375672974065,5.65685424949238));
#848=CARTESIAN_POINT('',(18.6286315287585,-9.11226803171823,0.580880229039766));
#849=CARTESIAN_POINT('Origin',(25.,-14.4337567297406,0.));
#850=CARTESIAN_POINT('',(25.,-14.4337567297406,0.));
#851=CARTESIAN_POINT('',(25.,-14.4337567297406,0.));
#852=CARTESIAN_POINT('',(25.,-14.4337567297406,0.));
#853=CARTESIAN_POINT('Origin',(-18.0717967697245,-12.8242810214919,1.5522847498308));
#854=CARTESIAN_POINT('',(-2.22044604925031E-15,-3.33333333333333,31.3967386305657));
#855=CARTESIAN_POINT('',(-16.3397459621556,-12.767090063074,4.71404520791032));
#856=CARTESIAN_POINT('',(-18.0717967697245,-13.767090063074,1.88561808316413));
#857=CARTESIAN_POINT('',(-14.6076951545867,-11.4909476881586,5.32352091615904));
#858=CARTESIAN_POINT('Origin',(-16.3397459621556,-11.8242810214919,4.38071187457698));
#859=CARTESIAN_POINT('',(-2.22044604925031E-15,-3.05719095841793,29.1777872140682));
#860=CARTESIAN_POINT('',(-17.2057713659401,-12.9909476881586,1.08088022903976));
#861=CARTESIAN_POINT('Origin',(-8.88178419700125E-15,-2.39052429175126,
31.0634052972323));
#862=CARTESIAN_POINT('Origin',(-5.19615242270663,-11.8242810214919,4.38071187457698));
#863=CARTESIAN_POINT('',(14.6076951545867,-11.4909476881586,5.32352091615905));
#864=CARTESIAN_POINT('',(-5.19615242270663,-11.4909476881586,5.32352091615905));
#865=CARTESIAN_POINT('',(16.3397459621556,-12.767090063074,4.71404520791032));
#866=CARTESIAN_POINT('',(-5.19615242270663,-12.767090063074,4.71404520791032));
#867=CARTESIAN_POINT('Origin',(16.3397459621556,-11.8242810214919,4.38071187457698));
#868=CARTESIAN_POINT('Origin',(4.51794919243113,-4.99896347418643,23.685625160382));
#869=CARTESIAN_POINT('',(4.51794919243113,-5.94177251576849,24.0189584937153));
#870=CARTESIAN_POINT('',(3.65192378864668,-5.1656301408531,23.2142206395909));
#871=CARTESIAN_POINT('Origin',(-2.22044604925031E-15,-3.99999999999999,
29.5111205474015));
#872=CARTESIAN_POINT('',(-2.22044604925031E-15,-1.64297739604484,28.6777872140682));
#873=CARTESIAN_POINT('',(-2.22044604925031E-15,-3.99999999999999,29.5111205474016));
#874=CARTESIAN_POINT('',(14.6076951545867,-10.0767341257855,4.82352091615905));
#875=CARTESIAN_POINT('',(3.65192378864668,-3.75141657848,22.7142206395909));
#876=CARTESIAN_POINT('',(14.6076951545867,-12.4337567297406,5.65685424949238));
#877=CARTESIAN_POINT('Origin',(-14.6076951545867,-12.4337567297406,5.65685424949238));
#878=CARTESIAN_POINT('',(-14.6076951545867,-10.0767341257855,4.82352091615904));
#879=CARTESIAN_POINT('',(-14.6076951545867,-12.4337567297406,5.65685424949238));
#880=CARTESIAN_POINT('',(-17.2057713659401,-11.5767341257855,0.580880229039763));
#881=CARTESIAN_POINT('Origin',(-25.,-14.4337567297406,0.));
#882=CARTESIAN_POINT('',(-25.,-14.4337567297406,0.));
#883=CARTESIAN_POINT('Origin',(-18.0717967697245,-6.43375672974063,5.65685424949238));
#884=CARTESIAN_POINT('',(-6.12863152875849,9.53836706289275,4.82352091615905));
#885=CARTESIAN_POINT('Origin',(-1.66533453693773E-15,6.66133814775094E-15,
0.));
#886=CARTESIAN_POINT('',(-20.4072067322815,-11.7821063002911,0.));
#887=CARTESIAN_POINT('',(20.4072067322815,-11.7821063002911,4.62592926927149E-17));
#888=CARTESIAN_POINT('',(-12.5,-11.7821063002911,2.77555756156289E-16));
#889=CARTESIAN_POINT('',(1.29526019539602E-15,23.5642126005822,0.));
#890=CARTESIAN_POINT('',(16.4536033661408,-4.93426439715994,0.));
#891=CARTESIAN_POINT('',(-3.95360336614077,16.716370697451,0.));
#892=CARTESIAN_POINT('Origin',(-25.,-12.0767341257855,-0.833333333333333));
#893=CARTESIAN_POINT('',(-1.11022302462516E-15,1.48029736616688E-15,33.3248290463863));
#894=CARTESIAN_POINT('',(-15.688137821521,-9.05755059433911,7.70620726159657));
#895=CARTESIAN_POINT('',(15.688137821521,-9.05755059433911,7.70620726159657));
#896=CARTESIAN_POINT('',(-5.19615242270663,-10.0767341257855,4.82352091615905));
#897=CARTESIAN_POINT('Origin',(14.6076951545867,-12.4337567297406,5.65685424949238));
#898=CARTESIAN_POINT('Origin',(2.04124145231932,27.6890021575037,-0.833333333333333));
#899=CARTESIAN_POINT('',(-2.22044604925031E-15,18.1151011886782,7.70620726159658));
#900=CARTESIAN_POINT('Origin',(3.46410161513776,18.8675134594813,5.65685424949238));
#901=CARTESIAN_POINT('',(11.3247839514651,0.538367062892745,4.82352091615905));
#902=CARTESIAN_POINT('Origin',(22.9587585476807,-15.6122680317182,-0.833333333333333));
#903=CARTESIAN_POINT('',(0.,0.,0.));
#904=CARTESIAN_POINT('',(0.,50.,0.));
#905=CARTESIAN_POINT('',(0.,100.,0.));
#906=CARTESIAN_POINT('',(0.,150.,0.));
#907=CARTESIAN_POINT('',(0.,200.,0.));
#908=CARTESIAN_POINT('',(-50.,0.,0.));
#909=CARTESIAN_POINT('',(-50.,50.,0.));
#910=CARTESIAN_POINT('',(-50.,100.,0.));
#911=CARTESIAN_POINT('',(-50.,150.,0.));
#912=CARTESIAN_POINT('',(-50.,200.,0.));
#913=CARTESIAN_POINT('',(-100.,0.,0.));
#914=CARTESIAN_POINT('',(-100.,50.,0.));
#915=CARTESIAN_POINT('',(-100.,100.,0.));
#916=CARTESIAN_POINT('',(-100.,150.,0.));
#917=CARTESIAN_POINT('',(-100.,200.,0.));
#918=CARTESIAN_POINT('',(-150.,0.,0.));
#919=CARTESIAN_POINT('',(-150.,50.,0.));
#920=CARTESIAN_POINT('',(-150.,100.,0.));
#921=CARTESIAN_POINT('',(-150.,150.,0.));
#922=CARTESIAN_POINT('',(-150.,200.,0.));
#923=CARTESIAN_POINT('',(-200.,0.,0.));
#924=CARTESIAN_POINT('',(-200.,50.,0.));
#925=CARTESIAN_POINT('',(-200.,100.,0.));
#926=CARTESIAN_POINT('',(-200.,150.,0.));
#927=CARTESIAN_POINT('',(-200.,200.,0.));
#928=UNCERTAINTY_MEASURE_WITH_UNIT(LENGTH_MEASURE(0.01),#934,
'DISTANCE_ACCURACY_VALUE',
'Maximum model space distance between geometric entities at asserted c
onnectivities');
#929=UNCERTAINTY_MEASURE_WITH_UNIT(LENGTH_MEASURE(0.01),#934,
'DISTANCE_ACCURACY_VALUE',
'Maximum model space distance between geometric entities at asserted c
onnectivities');
#930=UNCERTAINTY_MEASURE_WITH_UNIT(LENGTH_MEASURE(0.01),#934,
'DISTANCE_ACCURACY_VALUE',
'Maximum model space distance between geometric entities at asserted c
onnectivities');
#931=(
GEOMETRIC_REPRESENTATION_CONTEXT(3)
GLOBAL_UNCERTAINTY_ASSIGNED_CONTEXT((#928))
GLOBAL_UNIT_ASSIGNED_CONTEXT((#934,#936,#937))
REPRESENTATION_CONTEXT('','3D')
);
#932=(
GEOMETRIC_REPRESENTATION_CONTEXT(3)
GLOBAL_UNCERTAINTY_ASSIGNED_CONTEXT((#929))
GLOBAL_UNIT_ASSIGNED_CONTEXT((#934,#936,#937))
REPRESENTATION_CONTEXT('','3D')
);
#933=(
GEOMETRIC_REPRESENTATION_CONTEXT(3)
GLOBAL_UNCERTAINTY_ASSIGNED_CONTEXT((#930))
GLOBAL_UNIT_ASSIGNED_CONTEXT((#934,#936,#937))
REPRESENTATION_CONTEXT('','3D')
);
#934=(
LENGTH_UNIT()
NAMED_UNIT(*)
SI_UNIT(.MILLI.,.METRE.)
);
#935=(
LENGTH_UNIT()
NAMED_UNIT(*)
SI_UNIT($,.METRE.)
);
#936=(
NAMED_UNIT(*)
PLANE_ANGLE_UNIT()
SI_UNIT($,.RADIAN.)
);
#937=(
NAMED_UNIT(*)
SI_UNIT($,.STERADIAN.)
SOLID_ANGLE_UNIT()
);
#938=SHAPE_DEFINITION_REPRESENTATION(#940,#967);
#939=SHAPE_DEFINITION_REPRESENTATION(#941,#968);
#940=PRODUCT_DEFINITION_SHAPE('',$,#970);
#941=PRODUCT_DEFINITION_SHAPE('',$,#971);
#942=PRODUCT_DEFINITION_SHAPE($,$,#86);
#943=PRODUCT_DEFINITION_SHAPE($,$,#87);
#944=PRODUCT_DEFINITION_SHAPE($,$,#88);
#945=PRODUCT_DEFINITION_SHAPE($,$,#89);
#946=PRODUCT_DEFINITION_SHAPE($,$,#90);
#947=PRODUCT_DEFINITION_SHAPE($,$,#91);
#948=PRODUCT_DEFINITION_SHAPE($,$,#92);
#949=PRODUCT_DEFINITION_SHAPE($,$,#93);
#950=PRODUCT_DEFINITION_SHAPE($,$,#94);
#951=PRODUCT_DEFINITION_SHAPE($,$,#95);
#952=PRODUCT_DEFINITION_SHAPE($,$,#96);
#953=PRODUCT_DEFINITION_SHAPE($,$,#97);
#954=PRODUCT_DEFINITION_SHAPE($,$,#98);
#955=PRODUCT_DEFINITION_SHAPE($,$,#99);
#956=PRODUCT_DEFINITION_SHAPE($,$,#100);
#957=PRODUCT_DEFINITION_SHAPE($,$,#101);
#958=PRODUCT_DEFINITION_SHAPE($,$,#102);
#959=PRODUCT_DEFINITION_SHAPE($,$,#103);
#960=PRODUCT_DEFINITION_SHAPE($,$,#104);
#961=PRODUCT_DEFINITION_SHAPE($,$,#105);
#962=PRODUCT_DEFINITION_SHAPE($,$,#106);
#963=PRODUCT_DEFINITION_SHAPE($,$,#107);
#964=PRODUCT_DEFINITION_SHAPE($,$,#108);
#965=PRODUCT_DEFINITION_SHAPE($,$,#109);
#966=PRODUCT_DEFINITION_SHAPE($,$,#110);
#967=SHAPE_REPRESENTATION('',(#553,#589,#590,#591,#592,#593,#594,#595,#596,
#597,#598,#599,#600,#601,#602,#603,#604,#605,#606,#607,#608,#609,#610,#611,
#612,#613),#931);
#968=SHAPE_REPRESENTATION('',(#554),#932);
#969=PRODUCT_DEFINITION_CONTEXT('part definition',#977,'design');
#970=PRODUCT_DEFINITION('2026-08-12-00-05-49-280',
'Day15: Painter''s Tripod',#972,#969);
#971=PRODUCT_DEFINITION('2026-08-12-00-06-31-135','Painter''s Tripod',#973,
#969);
#972=PRODUCT_DEFINITION_FORMATION('',$,#979);
#973=PRODUCT_DEFINITION_FORMATION('',$,#980);
#974=PRODUCT_RELATED_PRODUCT_CATEGORY('Day15: Painter''s Tripod',
'Day15: Painter''s Tripod',(#979));
#975=PRODUCT_RELATED_PRODUCT_CATEGORY('Painter''s Tripod',
'Painter''s Tripod',(#980));
#976=APPLICATION_PROTOCOL_DEFINITION('international standard',
'automotive_design',2009,#977);
#977=APPLICATION_CONTEXT(
'Core Data for Automotive Mechanical Design Process');
#978=PRODUCT_CONTEXT('part definition',#977,'mechanical');
#979=PRODUCT('2026-08-12-00-05-49-280','Day15: Painter''s Tripod',$,(#978));
#980=PRODUCT('2026-08-12-00-06-31-135','Painter''s Tripod',$,(#978));
#981=PRESENTATION_STYLE_ASSIGNMENT((#982));
#982=SURFACE_STYLE_USAGE(.BOTH.,#983);
#983=SURFACE_SIDE_STYLE('',(#984));
#984=SURFACE_STYLE_FILL_AREA(#985);
#985=FILL_AREA_STYLE('Steel - Satin',(#986));
#986=FILL_AREA_STYLE_COLOUR('Steel - Satin',#987);
#987=COLOUR_RGB('Steel - Satin',0.627450980392157,0.627450980392157,0.627450980392157);
ENDSEC;
END-ISO-10303-21;
