# WaveFront *.obj file (generated by Autodesk ATF)

mtllib Model.mtl

g Body1

v 0.275000 1.400000 2.620000
v 0.265630 1.471175 2.620000
v 0.238157 1.537500 2.620000
v 0.194454 1.594454 2.620000
v 0.137500 1.638157 2.620000
v 0.071175 1.665630 2.620000
v 0.000000 1.675000 2.620000
v -0.071175 1.665630 2.620000
v -0.137500 1.638157 2.620000
v -0.194454 1.594454 2.620000
v -0.238157 1.537500 2.620000
v -0.265630 1.471175 2.620000
v -0.275000 1.400000 2.620000
v -0.265630 1.328825 2.620000
v -0.238157 1.262500 2.620000
v -0.194454 1.205546 2.620000
v -0.137500 1.161843 2.620000
v -0.071175 1.134370 2.620000
v 0.000000 1.125000 2.620000
v 0.071175 1.134370 2.620000
v 0.137500 1.161843 2.620000
v 0.194454 1.205546 2.620000
v 0.238157 1.262500 2.620000
v 0.265630 1.328825 2.620000
v 0.000000 1.400000 2.454763
v 0.520000 1.400000 5.000000
v 0.502281 1.534586 5.000000
v 0.450333 1.660000 5.000000
v 0.367696 1.767696 5.000000
v 0.260000 1.850333 5.000000
v 0.134586 1.902281 5.000000
v 0.000000 1.920000 5.000000
v -0.134586 1.902281 5.000000
v -0.260000 1.850333 5.000000
v -0.367696 1.767696 5.000000
v -0.450333 1.660000 5.000000
v -0.502281 1.534586 5.000000
v -0.520000 1.400000 5.000000
v -0.502281 1.265414 5.000000
v -0.450333 1.140000 5.000000
v -0.367696 1.032304 5.000000
v -0.260000 0.949667 5.000000
v -0.134586 0.897719 5.000000
v 0.000000 0.880000 5.000000
v 0.134586 0.897719 5.000000
v 0.260000 0.949667 5.000000
v 0.367696 1.032304 5.000000
v 0.450333 1.140000 5.000000
v 0.502281 1.265414 5.000000
v 0.275000 1.400000 4.755000
v 0.265630 1.328825 4.755000
v 0.238157 1.262500 4.755000
v 0.194454 1.205546 4.755000
v 0.137500 1.161843 4.755000
v 0.071175 1.134370 4.755000
v 0.000000 1.125000 4.755000
v -0.071175 1.134370 4.755000
v -0.137500 1.161843 4.755000
v -0.194454 1.205546 4.755000
v -0.238157 1.262500 4.755000
v -0.265630 1.328825 4.755000
v -0.275000 1.400000 4.755000
v -0.265630 1.471175 4.755000
v -0.238157 1.537500 4.755000
v -0.194454 1.594454 4.755000
v -0.137500 1.638157 4.755000
v -0.071175 1.665630 4.755000
v 0.000000 1.675000 4.755000
v 0.071175 1.665630 4.755000
v 0.137500 1.638157 4.755000
v 0.194454 1.594454 4.755000
v 0.238157 1.537500 4.755000
v 0.265630 1.471175 4.755000
v -0.275000 1.400000 3.687500
v 0.265630 1.471175 3.687500
v 0.275000 1.400000 3.687500
v 0.238157 1.537500 3.687500
v 0.194454 1.594454 3.687500
v 0.137500 1.638157 3.687500
v 0.071175 1.665630 3.687500
v 0.000000 1.675000 3.687500
v -0.071175 1.665630 3.687500
v -0.137500 1.638157 3.687500
v -0.194454 1.594454 3.687500
v -0.238157 1.537500 3.687500
v -0.265630 1.471175 3.687500
v -0.265630 1.328825 3.687500
v -0.238157 1.262500 3.687500
v -0.194454 1.205546 3.687500
v -0.137500 1.161843 3.687500
v -0.071175 1.134370 3.687500
v 0.000000 1.125000 3.687500
v 0.071175 1.134370 3.687500
v 0.137500 1.161843 3.687500
v 0.194454 1.205546 3.687500
v 0.238157 1.262500 3.687500
v 0.265630 1.328825 3.687500
v -1.550000 0.000000 -0.000000
v -1.497185 0.000000 -0.401170
v -1.342339 0.000000 -0.775000
v -1.096016 0.000000 -1.096016
v -0.775000 0.000000 -1.342339
v -0.401170 0.000000 -1.497185
v 0.000000 0.000000 -1.550000
v 0.401170 0.000000 -1.497185
v 0.775000 0.000000 -1.342339
v 1.096016 0.000000 -1.096016
v 1.342339 0.000000 -0.775000
v 1.497185 0.000000 -0.401170
v 1.550000 0.000000 0.000000
v 1.497185 0.000000 0.401170
v 1.342339 0.000000 0.775000
v 1.096016 0.000000 1.096016
v 0.775000 0.000000 1.342339
v 0.401170 0.000000 1.497185
v 0.000000 0.000000 1.550000
v -0.401170 0.000000 1.497185
v -0.775000 0.000000 1.342339
v -1.096016 0.000000 1.096016
v -1.342339 0.000000 0.775000
v -1.497185 0.000000 0.401170
v -1.250000 0.300000 0.000000
v -1.207407 0.300000 0.323524
v -1.082532 0.300000 0.625000
v -0.883883 0.300000 0.883883
v -0.625000 0.300000 1.082532
v -0.323524 0.300000 1.207407
v 0.000000 0.300000 1.250000
v 0.323524 0.300000 1.207407
v 0.625000 0.300000 1.082532
v 0.883883 0.300000 0.883883
v 1.082532 0.300000 0.625000
v 1.207407 0.300000 0.323524
v 1.250000 0.300000 0.000000
v 1.207407 0.300000 -0.323524
v 1.082532 0.300000 -0.625000
v 0.883883 0.300000 -0.883883
v 0.625000 0.300000 -1.082532
v 0.323524 0.300000 -1.207407
v 0.000000 0.300000 -1.250000
v -0.323524 0.300000 -1.207407
v -0.625000 0.300000 -1.082532
v -0.883883 0.300000 -0.883883
v -1.082532 0.300000 -0.625000
v -1.207407 0.300000 -0.323524
v -2.000000 0.000000 0.500000
v -6.700000 0.000000 0.500000
v -6.700000 0.000000 -1.000000
v -1.959592 0.000000 -1.000000
v -1.694430 0.000000 -1.403177
v -1.347746 0.000000 -1.738845
v -0.936218 0.000000 -1.990853
v -0.479648 0.000000 -2.147077
v -0.000000 0.000000 -2.200000
v 0.479648 0.000000 -2.147077
v 0.936218 0.000000 -1.990853
v 1.347746 0.000000 -1.738845
v 1.694430 0.000000 -1.403177
v 1.959592 0.000000 -1.000000
v 6.700000 0.000000 -1.000000
v 6.700000 0.000000 0.500000
v 2.000000 0.000000 0.500000
v 2.000000 0.000000 5.000000
v -2.000000 0.000000 5.000000
v 1.250000 3.710618 0.000000
v 1.226128 3.703177 -0.241376
v 1.154326 3.682036 -0.479616
v 1.036601 3.650270 -0.697958
v 0.883979 3.614374 -0.883788
v 0.698153 3.578798 -1.036468
v 0.479745 3.547783 -1.154273
v 0.241417 3.527404 -1.226119
v 0.000000 3.520294 -1.250000
v -0.241417 3.527404 -1.226119
v -0.479745 3.547783 -1.154273
v -0.698153 3.578798 -1.036468
v -0.883979 3.614374 -0.883788
v -1.036601 3.650270 -0.697958
v -1.154326 3.682036 -0.479616
v -1.226128 3.703177 -0.241376
v -1.250000 3.710618 0.000000
v -1.226128 3.703177 0.241376
v -1.154326 3.682036 0.479616
v -1.036601 3.650270 0.697958
v -0.883979 3.614374 0.883788
v -0.698153 3.578798 1.036468
v -0.479745 3.547783 1.154273
v -0.241417 3.527404 1.226119
v 0.000000 3.520294 1.250000
v 0.241417 3.527404 1.226119
v 0.479745 3.547783 1.154273
v 0.698153 3.578798 1.036468
v 0.883979 3.614374 0.883788
v 1.036601 3.650270 0.697958
v 1.154326 3.682036 0.479616
v 1.226128 3.703177 0.241376
v -2.300000 0.300000 0.800000
v -6.400000 0.300000 0.800000
v -2.300000 0.300000 5.000000
v -6.700000 3.300000 0.500000
v -6.400000 3.000000 0.800000
v -6.700000 3.300000 2.000000
v -6.400000 3.000000 1.700000
v -3.200000 3.000000 1.700000
v -3.200000 3.300000 2.000000
v -3.200000 5.000000 2.000000
v -6.700000 5.000000 2.000000
v -3.200000 3.000000 0.800000
v -3.200000 5.000000 0.800000
v -2.300000 4.206037 0.800000
v -2.624876 4.441571 0.800000
v -2.925791 4.707033 0.800000
v 6.700000 3.300000 2.000000
v 3.200000 3.300000 2.000000
v 3.200000 3.000000 1.700000
v 6.400000 3.000000 1.700000
v 6.400000 3.000000 0.800000
v 6.400000 0.300000 0.800000
v 6.700000 3.300000 0.500000
v 2.300000 0.300000 0.800000
v 2.300000 0.300000 5.000000
v 6.700000 5.000000 -1.000000
v 6.700000 5.000000 2.000000
v 2.300000 4.206037 5.000000
v 1.689323 3.875013 5.000000
v 1.032438 3.649167 5.000000
v 0.347313 3.534679 5.000000
v -0.347313 3.534679 5.000000
v -1.032438 3.649167 5.000000
v -1.689323 3.875013 5.000000
v -2.300000 4.206037 5.000000
v 2.300000 4.206037 0.800000
v -3.200000 5.000000 -1.000000
v 2.624876 4.441571 0.800000
v 2.925791 4.707033 0.800000
v 3.200000 5.000000 0.800000
v 3.200000 5.000000 -1.000000
v 2.829844 4.616750 -1.000000
v 2.414144 4.283449 -1.000000
v 1.959592 4.005459 -1.000000
v 1.803413 3.927184 -1.260035
v 1.618153 3.844537 -1.490473
v 1.407945 3.763324 -1.690425
v 1.164855 3.685068 -1.866296
v 0.893998 3.616547 -2.010161
v 0.603137 3.563853 -2.115674
v 0.301509 3.531153 -2.179213
v -0.000000 3.520294 -2.200000
v -0.301509 3.531153 -2.179213
v -0.603137 3.563853 -2.115674
v -0.893998 3.616547 -2.010161
v -1.164855 3.685068 -1.866296
v -1.407945 3.763324 -1.690425
v -1.618153 3.844537 -1.490473
v -1.803413 3.927184 -1.260035
v -1.959592 4.005459 -1.000000
v -2.414144 4.283449 -1.000000
v -2.829844 4.616750 -1.000000
v -6.700000 5.000000 -1.000000
v 3.200000 5.000000 2.000000
v 3.200000 3.000000 0.800000
vt -0.160412 -0.035997 0.000000
vt 0.160412 -0.035997 0.000000
vt -0.160412 0.000000 0.000000
vt -0.160412 -0.107992 0.000000
vt 0.160412 -0.107992 0.000000
vt -0.160412 -0.071995 0.000000
vt -0.160412 -0.179987 0.000000
vt 0.160412 -0.179987 0.000000
vt -0.160412 -0.143990 0.000000
vt -0.160412 -0.251982 0.000000
vt 0.160412 -0.251982 0.000000
vt -0.160412 -0.215984 0.000000
vt -0.160412 -0.323977 0.000000
vt 0.160412 -0.323977 0.000000
vt -0.160412 -0.287979 0.000000
vt -0.160412 -0.395972 0.000000
vt 0.160412 -0.395972 0.000000
vt -0.160412 -0.359974 0.000000
vt -0.160412 0.395972 0.000000
vt 0.160412 0.395972 0.000000
vt -0.160412 0.431969 0.000000
vt -0.160412 0.323977 0.000000
vt 0.160412 0.323977 0.000000
vt -0.160412 0.359974 0.000000
vt -0.160412 0.251982 0.000000
vt 0.160412 0.251982 0.000000
vt -0.160412 0.287979 0.000000
vt -0.160412 0.179987 0.000000
vt 0.160412 0.179987 0.000000
vt -0.160412 0.215984 0.000000
vt -0.160412 0.107992 0.000000
vt 0.160412 0.107992 0.000000
vt -0.160412 0.143990 0.000000
vt -0.160412 0.035997 0.000000
vt 0.160412 0.035997 0.000000
vt -0.160412 0.071995 0.000000
vt -0.160412 -0.431969 0.000000
vt 0.160412 -0.431969 0.000000
vt 0.160412 -0.143990 0.000000
vt 0.160412 0.143990 0.000000
vt 0.160412 -0.359974 0.000000
vt 0.160412 -0.287979 0.000000
vt 0.160412 -0.215984 0.000000
vt 0.160412 -0.071995 0.000000
vt 0.160412 0.000000 0.000000
vt 0.160412 0.071995 0.000000
vt 0.160412 0.215984 0.000000
vt 0.160412 0.287979 0.000000
vt 0.160412 0.359974 0.000000
vt -0.173241 -0.104065 0.000000
vt 0.173241 -0.104065 0.000000
vt -0.173241 0.000000 0.000000
vt 0.173241 0.000000 0.000000
vt -0.173241 0.104065 0.000000
vt 0.173241 0.104065 0.000000
vt -0.173241 0.208131 0.000000
vt 0.173241 0.208131 0.000000
vt -0.173241 0.312196 0.000000
vt 0.173241 0.312196 0.000000
vt -0.173241 0.416261 0.000000
vt 0.173241 0.416261 0.000000
vt -0.173241 0.520326 0.000000
vt 0.173241 0.520326 0.000000
vt -0.173241 0.624392 0.000000
vt 0.173241 0.624392 0.000000
vt -0.173241 0.728457 0.000000
vt 0.173241 0.728457 0.000000
vt -0.173241 0.832522 0.000000
vt 0.173241 0.832522 0.000000
vt -0.173241 0.936587 0.000000
vt 0.173241 0.936587 0.000000
vt -0.173241 1.040653 0.000000
vt 0.173241 1.040653 0.000000
vt -0.173241 1.144718 0.000000
vt 0.173241 1.144718 0.000000
vt -0.173241 1.248783 0.000000
vt 0.173241 1.248783 0.000000
vt -0.173241 -1.248783 0.000000
vt 0.173241 -1.248783 0.000000
vt -0.173241 -1.144718 0.000000
vt 0.173241 -1.144718 0.000000
vt -0.173241 -1.040653 0.000000
vt 0.173241 -1.040653 0.000000
vt -0.173241 -0.936587 0.000000
vt 0.173241 -0.936587 0.000000
vt -0.173241 -0.832522 0.000000
vt 0.173241 -0.832522 0.000000
vt -0.173241 -0.728457 0.000000
vt 0.173241 -0.728457 0.000000
vt -0.173241 -0.624392 0.000000
vt 0.173241 -0.624392 0.000000
vt -0.173241 -0.520326 0.000000
vt 0.173241 -0.520326 0.000000
vt -0.173241 -0.416261 0.000000
vt 0.173241 -0.416261 0.000000
vt -0.173241 -0.312196 0.000000
vt 0.173241 -0.312196 0.000000
vt -0.173241 -0.208131 0.000000
vt 0.173241 -0.208131 0.000000
vt -0.945000 -0.071995 0.000000
vt 0.122500 -0.071995 0.000000
vt -0.945000 0.000000 0.000000
vt 0.122500 0.000000 0.000000
vt -0.945000 0.071995 0.000000
vt 0.122500 0.071995 0.000000
vt -0.945000 0.143990 0.000000
vt 0.122500 0.143990 0.000000
vt -0.945000 0.215984 0.000000
vt 0.122500 0.215984 0.000000
vt -0.945000 0.287979 0.000000
vt 0.122500 0.287979 0.000000
vt -0.945000 0.359974 0.000000
vt 0.122500 0.359974 0.000000
vt -0.945000 0.431969 0.000000
vt 0.122500 0.431969 0.000000
vt -0.945000 0.503964 0.000000
vt 0.122500 0.503964 0.000000
vt -0.945000 0.575959 0.000000
vt 0.122500 0.575959 0.000000
vt -0.945000 0.647953 0.000000
vt 0.122500 0.647953 0.000000
vt -0.945000 0.719948 0.000000
vt 0.122500 0.719948 0.000000
vt -0.945000 0.791943 0.000000
vt 0.122500 0.791943 0.000000
vt -0.945000 0.863938 0.000000
vt 0.122500 0.863938 0.000000
vt -0.945000 -0.863938 0.000000
vt 0.122500 -0.863938 0.000000
vt -0.945000 -0.791943 0.000000
vt 0.122500 -0.791943 0.000000
vt -0.945000 -0.719948 0.000000
vt 0.122500 -0.719948 0.000000
vt -0.945000 -0.647953 0.000000
vt 0.122500 -0.647953 0.000000
vt -0.945000 -0.575959 0.000000
vt 0.122500 -0.575959 0.000000
vt -0.945000 -0.503964 0.000000
vt 0.122500 -0.503964 0.000000
vt -0.945000 -0.431969 0.000000
vt 0.122500 -0.431969 0.000000
vt -0.945000 -0.359974 0.000000
vt 0.122500 -0.359974 0.000000
vt -0.945000 -0.287979 0.000000
vt 0.122500 -0.287979 0.000000
vt -0.945000 -0.215984 0.000000
vt 0.122500 -0.215984 0.000000
vt -0.945000 -0.143990 0.000000
vt 0.122500 -0.143990 0.000000
vt 1.190000 0.071995 0.000000
vt 1.190000 0.000000 0.000000
vt 1.190000 -0.071995 0.000000
vt 1.190000 -0.143990 0.000000
vt 1.190000 -0.215984 0.000000
vt 1.190000 -0.287979 0.000000
vt 1.190000 -0.359974 0.000000
vt 1.190000 -0.431969 0.000000
vt 1.190000 -0.503964 0.000000
vt 1.190000 -0.575959 0.000000
vt 1.190000 -0.647953 0.000000
vt 1.190000 -0.719948 0.000000
vt 1.190000 -0.791943 0.000000
vt 1.190000 -0.863938 0.000000
vt 1.190000 0.863938 0.000000
vt 1.190000 0.791943 0.000000
vt 1.190000 0.719948 0.000000
vt 1.190000 0.647953 0.000000
vt 1.190000 0.575959 0.000000
vt 1.190000 0.503964 0.000000
vt 1.190000 0.431969 0.000000
vt 1.190000 0.359974 0.000000
vt 1.190000 0.287979 0.000000
vt 1.190000 0.215984 0.000000
vt 1.190000 0.143990 0.000000
vt -0.212132 4.031711 0.000000
vt 0.212132 4.031711 0.000000
vt -0.212132 4.398230 0.000000
vt 0.212132 4.398230 0.000000
vt -0.212132 -4.398230 0.000000
vt 0.212132 -4.398230 0.000000
vt -0.212132 -4.031711 0.000000
vt 0.212132 -4.031711 0.000000
vt -0.212132 -3.665191 0.000000
vt 0.212132 -3.665191 0.000000
vt -0.212132 -3.298672 0.000000
vt 0.212132 -3.298672 0.000000
vt -0.212132 -2.932153 0.000000
vt 0.212132 -2.932153 0.000000
vt -0.212132 -2.565634 0.000000
vt 0.212132 -2.565634 0.000000
vt -0.212132 -2.199115 0.000000
vt 0.212132 -2.199115 0.000000
vt -0.212132 -1.832596 0.000000
vt 0.212132 -1.832596 0.000000
vt -0.212132 -1.466077 0.000000
vt 0.212132 -1.466077 0.000000
vt -0.212132 -1.099557 0.000000
vt 0.212132 -1.099557 0.000000
vt -0.212132 -0.733038 0.000000
vt 0.212132 -0.733038 0.000000
vt -0.212132 -0.366519 0.000000
vt 0.212132 -0.366519 0.000000
vt -0.212132 0.000000 0.000000
vt 0.212132 0.000000 0.000000
vt -0.212132 0.366519 0.000000
vt 0.212132 0.366519 0.000000
vt -0.212132 0.733038 0.000000
vt 0.212132 0.733038 0.000000
vt -0.212132 1.099557 0.000000
vt 0.212132 1.099557 0.000000
vt -0.212132 1.466077 0.000000
vt 0.212132 1.466077 0.000000
vt -0.212132 1.832596 0.000000
vt 0.212132 1.832596 0.000000
vt -0.212132 2.199115 0.000000
vt 0.212132 2.199115 0.000000
vt -0.212132 2.565634 0.000000
vt 0.212132 2.565634 0.000000
vt -0.212132 2.932153 0.000000
vt 0.212132 2.932153 0.000000
vt -0.212132 3.298672 0.000000
vt 0.212132 3.298672 0.000000
vt -0.212132 3.665191 0.000000
vt 0.212132 3.665191 0.000000
vt 6.700000 0.900000 0.000000
vt 6.700000 2.400000 0.000000
vt 2.000000 0.900000 0.000000
vt 1.959592 2.400000 0.000000
vt 1.550000 1.400000 0.000000
vt 1.497185 1.801170 0.000000
vt 1.342339 2.175000 0.000000
vt 1.694430 2.803177 0.000000
vt 1.096016 2.496016 0.000000
vt 1.347746 3.138845 0.000000
vt 0.775000 2.742339 0.000000
vt 0.936218 3.390853 0.000000
vt 0.401170 2.897185 0.000000
vt 0.479648 3.547077 0.000000
vt -0.000000 2.950000 0.000000
vt 0.000000 3.600000 0.000000
vt -0.479648 3.547077 0.000000
vt -0.401170 2.897185 0.000000
vt -0.936218 3.390853 0.000000
vt -0.775000 2.742339 0.000000
vt -1.347746 3.138845 0.000000
vt -1.096016 2.496016 0.000000
vt -1.694430 2.803177 0.000000
vt -1.342339 2.175000 0.000000
vt -1.959592 2.400000 0.000000
vt -1.497185 1.801170 0.000000
vt -1.550000 1.400000 0.000000
vt -2.000000 0.900000 0.000000
vt -1.497185 0.998830 0.000000
vt -1.342339 0.625000 0.000000
vt -1.096016 0.303984 0.000000
vt -2.000000 -3.600000 0.000000
vt -0.775000 0.057661 0.000000
vt -0.401170 -0.097185 0.000000
vt -0.000000 -0.150000 0.000000
vt 2.000000 -3.600000 0.000000
vt 0.401170 -0.097185 0.000000
vt 0.775000 0.057661 0.000000
vt 1.096016 0.303984 0.000000
vt 1.342339 0.625000 0.000000
vt 1.497185 0.998830 0.000000
vt -6.700000 2.400000 0.000000
vt -6.700000 0.900000 0.000000
vt 3.703177 -0.242968 0.000000
vt 3.710618 0.000000 0.000000
vt 0.300000 0.000000 0.000000
vt 3.703177 0.242968 0.000000
vt 0.300000 0.327249 0.000000
vt 3.682036 0.492240 0.000000
vt 0.300000 0.654498 0.000000
vt 3.650270 0.740739 0.000000
vt 0.300000 0.981748 0.000000
vt 3.614374 0.981613 0.000000
vt 3.578798 1.222521 0.000000
vt 0.300000 1.308997 0.000000
vt 3.547783 1.471116 0.000000
vt 0.300000 1.636246 0.000000
vt 3.527404 1.720485 0.000000
vt 0.300000 1.963495 0.000000
vt 3.520294 1.963495 0.000000
vt 3.527404 2.206506 0.000000
vt 0.300000 2.290745 0.000000
vt 3.547783 2.455875 0.000000
vt 0.300000 2.617994 0.000000
vt 3.578798 2.704470 0.000000
vt 0.300000 2.945243 0.000000
vt 3.614374 2.945378 0.000000
vt 3.650270 3.186252 0.000000
vt 0.300000 3.272492 0.000000
vt 3.682036 3.434751 0.000000
vt 0.300000 3.599742 0.000000
vt 3.703177 3.684023 0.000000
vt 0.300000 3.926991 0.000000
vt 3.710618 3.926991 0.000000
vt 0.300000 -3.926991 0.000000
vt 3.710618 -3.926991 0.000000
vt 3.703177 -3.684023 0.000000
vt 0.300000 -3.599742 0.000000
vt 3.682036 -3.434751 0.000000
vt 0.300000 -3.272492 0.000000
vt 3.650270 -3.186252 0.000000
vt 0.300000 -2.945243 0.000000
vt 3.614374 -2.945378 0.000000
vt 3.578798 -2.704470 0.000000
vt 0.300000 -2.617994 0.000000
vt 3.547783 -2.455875 0.000000
vt 0.300000 -2.290745 0.000000
vt 3.527404 -2.206506 0.000000
vt 0.300000 -1.963495 0.000000
vt 3.520294 -1.963495 0.000000
vt 3.527404 -1.720485 0.000000
vt 0.300000 -1.636246 0.000000
vt 3.547783 -1.471116 0.000000
vt 0.300000 -1.308997 0.000000
vt 3.578798 -1.222521 0.000000
vt 0.300000 -0.981748 0.000000
vt 3.614374 -0.981613 0.000000
vt 3.650270 -0.740739 0.000000
vt 0.300000 -0.654498 0.000000
vt 3.682036 -0.492240 0.000000
vt 0.300000 -0.327249 0.000000
vt -5.100000 -0.212132 0.000000
vt -0.400000 -0.212132 0.000000
vt -4.800000 0.212132 0.000000
vt -0.700000 0.212132 0.000000
vt -0.600000 -0.212132 0.000000
vt 3.900000 -0.212132 0.000000
vt -0.300000 0.212132 0.000000
vt 3.900000 0.212132 0.000000
vt -0.212132 3.300000 0.000000
vt -0.212132 0.000000 0.000000
vt 0.212132 3.000000 0.000000
vt 0.212132 0.300000 0.000000
vt 1.800000 0.212132 0.000000
vt 0.300000 0.212132 0.000000
vt 1.500000 -0.212132 0.000000
vt 0.600000 -0.212132 0.000000
vt 2.625000 -0.212132 0.000000
vt 2.625000 0.212132 0.000000
vt -0.575000 -0.212132 0.000000
vt -0.875000 0.212132 0.000000
vt 0.000000 3.300000 0.000000
vt 3.500000 3.300000 0.000000
vt 0.000000 5.000000 0.000000
vt 3.500000 5.000000 0.000000
vt 0.000000 3.300000 0.000000
vt 0.300000 3.000000 0.000000
vt 0.000000 5.000000 0.000000
vt 1.200000 5.000000 0.000000
vt 1.200000 3.000000 0.000000
vt 0.300000 1.450000 0.000000
vt -0.600000 1.450000 0.000000
vt 0.300000 -1.750000 0.000000
vt -0.600000 -1.750000 0.000000
vt -3.200000 3.000000 0.000000
vt -3.200000 0.300000 0.000000
vt -0.000000 3.000000 0.000000
vt 0.900000 0.300000 0.000000
vt 0.900000 4.206037 0.000000
vt 0.575124 4.441571 0.000000
vt 0.274209 4.707033 0.000000
vt 0.000000 5.000000 0.000000
vt 2.625000 0.212132 0.000000
vt -0.875000 0.212132 0.000000
vt 2.325000 -0.212132 0.000000
vt -0.875000 -0.212132 0.000000
vt -0.212132 0.300000 0.000000
vt 0.212132 0.000000 0.000000
vt -0.212132 3.000000 0.000000
vt 0.212132 3.300000 0.000000
vt -1.800000 0.212132 0.000000
vt -1.800000 -0.212132 0.000000
vt 2.400000 0.212132 0.000000
vt 2.700000 -0.212132 0.000000
vt 5.250000 0.212132 0.000000
vt 1.150000 0.212132 0.000000
vt 5.550000 -0.212132 0.000000
vt 0.850000 -0.212132 0.000000
vt -0.000000 -0.212132 0.000000
vt 0.900000 -0.212132 0.000000
vt -0.300000 0.212132 0.000000
vt 1.200000 0.212132 0.000000
vt 0.000000 3.300000 0.000000
vt 1.500000 3.300000 0.000000
vt 0.000000 5.000000 0.000000
vt 3.000000 5.000000 0.000000
vt 3.000000 0.000000 0.000000
vt 1.500000 0.000000 0.000000
vt 2.802281 1.534586 0.000000
vt 2.820000 1.400000 0.000000
vt 4.600000 0.300000 0.000000
vt 2.802281 1.265414 0.000000
vt 2.750333 1.140000 0.000000
vt 4.300000 0.000000 0.000000
vt 2.667696 1.032304 0.000000
vt 2.560000 0.949667 0.000000
vt 2.434586 0.897719 0.000000
vt 2.300000 0.880000 0.000000
vt 0.300000 0.000000 0.000000
vt 2.165414 0.897719 0.000000
vt 2.040000 0.949667 0.000000
vt 1.932304 1.032304 0.000000
vt 1.849667 1.140000 0.000000
vt 0.000000 0.300000 0.000000
vt 1.797719 1.265414 0.000000
vt 1.780000 1.400000 0.000000
vt 1.797719 1.534586 0.000000
vt 0.610677 3.875013 0.000000
vt 0.000000 4.206037 0.000000
vt 1.849667 1.660000 0.000000
vt 1.267562 3.649167 0.000000
vt 1.932304 1.767696 0.000000
vt 2.040000 1.850333 0.000000
vt 1.952687 3.534679 0.000000
vt 2.165414 1.902281 0.000000
vt 2.300000 1.920000 0.000000
vt 2.647313 3.534679 0.000000
vt 2.434586 1.902281 0.000000
vt 2.560000 1.850333 0.000000
vt 3.332438 3.649167 0.000000
vt 2.667696 1.767696 0.000000
vt 2.750333 1.660000 0.000000
vt 3.989323 3.875013 0.000000
vt 4.600000 4.206037 0.000000
vt 0.000000 0.300000 0.000000
vt 4.200000 0.300000 0.000000
vt 0.000000 4.206037 0.000000
vt 4.200000 4.206037 0.000000
vt 0.241376 -5.353119 0.000000
vt 5.000000 -5.554216 0.000000
vt 0.000000 -5.328114 0.000000
vt -1.690425 -5.161596 0.000000
vt -1.866296 -5.417012 0.000000
vt 0.479616 -5.427969 0.000000
vt 0.697958 -5.549909 0.000000
vt 0.883788 -5.706706 0.000000
vt 1.036468 -5.895924 0.000000
vt 5.000000 -6.249635 0.000000
vt 1.154273 -6.116551 0.000000
vt 1.226119 -6.355785 0.000000
vt 1.250000 -6.597345 0.000000
vt 5.000000 -6.945054 0.000000
vt 1.226119 -6.838905 0.000000
vt 1.154273 -7.078139 0.000000
vt 1.036468 -7.298765 0.000000
vt 5.000000 -7.640473 0.000000
vt 0.883788 -7.487984 0.000000
vt 0.697958 -7.644780 0.000000
vt 0.479616 -7.766720 0.000000
vt 0.241376 -7.841571 0.000000
vt 0.000000 -7.866575 0.000000
vt -1.690425 -8.033093 0.000000
vt -0.241376 -7.841571 0.000000
vt -1.866296 -7.777677 0.000000
vt -0.479616 -7.766720 0.000000
vt -0.697958 -7.644780 0.000000
vt -2.010161 -7.498235 0.000000
vt -0.883788 -7.487984 0.000000
vt -1.036468 -7.298765 0.000000
vt -2.115674 -7.202578 0.000000
vt -1.154273 -7.078139 0.000000
vt -2.179213 -6.899114 0.000000
vt -1.226119 -6.838905 0.000000
vt -2.200000 -6.597345 0.000000
vt -1.250000 -6.597345 0.000000
vt -1.226119 -6.355785 0.000000
vt -2.179213 -6.295575 0.000000
vt -1.154273 -6.116551 0.000000
vt -2.115674 -5.992111 0.000000
vt -1.036468 -5.895924 0.000000
vt -2.010161 -5.696454 0.000000
vt -0.883788 -5.706706 0.000000
vt -0.697958 -5.549909 0.000000
vt -0.479616 -5.427969 0.000000
vt -0.241376 -5.353119 0.000000
vt 0.800000 -10.235590 0.000000
vt 0.800000 -9.834164 0.000000
vt -1.000000 -10.235590 0.000000
vt -1.000000 -9.702413 0.000000
vt 0.800000 -9.432738 0.000000
vt -1.000000 -9.169236 0.000000
vt 0.800000 -9.031312 0.000000
vt -1.000000 -8.636059 0.000000
vt 5.000000 -8.335893 0.000000
vt -1.260035 -8.461350 0.000000
vt -1.490473 -8.258471 0.000000
vt 5.000000 -9.031312 0.000000
vt 5.000000 -4.858796 0.000000
vt -1.490473 -4.936218 0.000000
vt -1.260035 -4.733339 0.000000
vt -1.000000 -4.558630 0.000000
vt 5.000000 -4.163377 0.000000
vt 0.800000 -4.163377 0.000000
vt -1.000000 -4.025453 0.000000
vt 0.800000 -3.761951 0.000000
vt -1.000000 -3.492276 0.000000
vt 0.800000 -3.360525 0.000000
vt -1.000000 -2.959099 0.000000
vt 0.800000 -2.959099 0.000000
vt 1.240408 5.000000 0.000000
vt 0.870252 4.616750 0.000000
vt 4.740408 5.000000 0.000000
vt 4.740408 0.000000 0.000000
vt 0.454552 4.283449 0.000000
vt -0.000000 0.000000 0.000000
vt -0.000000 4.005459 0.000000
vt -4.005459 4.835312 0.000000
vt -3.927184 4.531739 0.000000
vt -0.000000 4.835312 0.000000
vt -0.000000 4.351781 0.000000
vt -3.844537 4.235842 0.000000
vt -0.000000 3.868249 0.000000
vt -3.763324 3.945510 0.000000
vt -3.685068 3.645235 0.000000
vt -0.000000 3.384718 0.000000
vt -3.616547 3.338291 0.000000
vt -3.563853 3.028625 0.000000
vt -0.000000 2.901187 0.000000
vt -3.531153 2.720120 0.000000
vt -0.000000 2.417656 0.000000
vt -3.520294 2.417656 0.000000
vt -3.531153 2.115191 0.000000
vt -0.000000 1.934125 0.000000
vt -3.563853 1.806686 0.000000
vt -0.000000 1.450594 0.000000
vt -3.616547 1.497020 0.000000
vt -3.685068 1.190077 0.000000
vt -0.000000 0.967062 0.000000
vt -3.763324 0.889802 0.000000
vt -3.844537 0.599470 0.000000
vt -0.000000 0.483531 0.000000
vt -3.927184 0.303573 0.000000
vt -0.000000 0.000000 0.000000
vt -4.005459 0.000000 0.000000
vt 4.740408 4.005459 0.000000
vt 4.285856 4.283449 0.000000
vt 4.740408 0.000000 0.000000
vt 0.000000 0.000000 0.000000
vt 3.870156 4.616750 0.000000
vt 0.000000 5.000000 0.000000
vt 3.500000 5.000000 0.000000
vt 3.200000 2.400000 0.000000
vt 3.200000 0.600000 0.000000
vt 6.700000 2.400000 0.000000
vt 6.700000 -0.600000 0.000000
vt 3.200000 -0.600000 0.000000
vt -0.300000 -1.750000 0.000000
vt 0.600000 -1.750000 0.000000
vt -0.300000 1.450000 0.000000
vt 0.600000 1.450000 0.000000
vt 0.000000 0.300000 0.000000
vt 4.200000 0.300000 0.000000
vt 0.000000 4.206037 0.000000
vt 4.200000 4.206037 0.000000
vt 3.000000 3.300000 0.000000
vt 3.000000 5.000000 0.000000
vt 1.500000 3.300000 0.000000
vt 0.000000 5.000000 0.000000
vt 0.000000 0.000000 0.000000
vt 1.500000 0.000000 0.000000
vt 0.000000 3.300000 0.000000
vt 3.500000 3.300000 0.000000
vt 0.000000 5.000000 0.000000
vt 3.500000 5.000000 0.000000
vt 1.200000 3.300000 0.000000
vt 1.200000 5.000000 0.000000
vt 0.900000 3.000000 0.000000
vt 0.000000 5.000000 0.000000
vt 0.000000 3.000000 0.000000
vt 4.100000 3.000000 0.000000
vt 0.900000 3.000000 0.000000
vt 4.100000 0.300000 0.000000
vt 0.000000 0.300000 0.000000
vt 0.000000 4.206037 0.000000
vt 0.324876 4.441571 0.000000
vt 0.625791 4.707033 0.000000
vt 0.900000 5.000000 0.000000
vt -3.200000 2.400000 0.000000
vt -6.700000 2.400000 0.000000
vt -3.200000 0.600000 0.000000
vt -6.700000 -0.600000 0.000000
vt -3.200000 -0.600000 0.000000
vn -0.497489 -0.133302 0.857167
vn -0.497489 -0.133302 0.857167
vn -0.515038 0.000000 0.857167
vn -0.364187 -0.364187 0.857167
vn -0.364187 -0.364187 0.857167
vn -0.446036 -0.257519 0.857167
vn -0.133302 -0.497489 0.857167
vn -0.133302 -0.497489 0.857167
vn -0.257519 -0.446036 0.857167
vn 0.133302 -0.497489 0.857167
vn 0.133302 -0.497489 0.857167
vn 0.000000 -0.515038 0.857167
vn 0.364187 -0.364187 0.857167
vn 0.364187 -0.364187 0.857167
vn 0.257519 -0.446036 0.857167
vn 0.497489 -0.133302 0.857167
vn 0.497489 -0.133302 0.857167
vn 0.446036 -0.257519 0.857167
vn 0.497489 0.133302 0.857167
vn 0.497489 0.133302 0.857167
vn 0.515038 0.000000 0.857167
vn 0.364187 0.364187 0.857167
vn 0.364187 0.364187 0.857167
vn 0.446036 0.257519 0.857167
vn 0.133302 0.497489 0.857167
vn 0.133302 0.497489 0.857167
vn 0.257519 0.446036 0.857167
vn -0.133302 0.497489 0.857167
vn -0.133302 0.497489 0.857167
vn -0.000000 0.515038 0.857167
vn -0.364187 0.364187 0.857167
vn -0.364187 0.364187 0.857167
vn -0.257519 0.446036 0.857167
vn -0.497489 0.133302 0.857167
vn -0.497489 0.133302 0.857167
vn -0.446036 0.257519 0.857167
vn 0.515038 -0.000000 0.857167
vn -0.257519 -0.446036 0.857167
vn -0.257519 0.446036 0.857167
vn 0.446036 -0.257519 0.857167
vn 0.257519 -0.446036 0.857167
vn -0.000000 -0.515038 0.857167
vn -0.446036 -0.257519 0.857167
vn -0.515038 -0.000000 0.857167
vn -0.446036 0.257519 0.857167
vn -0.000000 0.515038 0.857167
vn 0.257519 0.446036 0.857167
vn 0.446036 0.257519 0.857167
vn -0.683013 -0.183013 0.707107
vn -0.683013 -0.183013 0.707107
vn -0.707107 0.000000 0.707107
vn -0.707107 0.000000 0.707107
vn -0.683013 0.183013 0.707107
vn -0.683013 0.183013 0.707107
vn -0.612372 0.353553 0.707107
vn -0.612372 0.353553 0.707107
vn -0.500000 0.500000 0.707107
vn -0.500000 0.500000 0.707107
vn -0.353553 0.612372 0.707107
vn -0.353553 0.612372 0.707107
vn -0.183013 0.683013 0.707107
vn -0.183013 0.683013 0.707107
vn -0.000000 0.707107 0.707107
vn -0.000000 0.707107 0.707107
vn 0.183013 0.683013 0.707107
vn 0.183013 0.683013 0.707107
vn 0.353553 0.612372 0.707107
vn 0.353553 0.612372 0.707107
vn 0.500000 0.500000 0.707107
vn 0.500000 0.500000 0.707107
vn 0.612372 0.353553 0.707107
vn 0.612372 0.353553 0.707107
vn 0.683013 0.183013 0.707107
vn 0.683013 0.183013 0.707107
vn 0.707107 0.000000 0.707107
vn 0.707107 0.000000 0.707107
vn 0.683013 -0.183013 0.707107
vn 0.683013 -0.183013 0.707107
vn 0.612372 -0.353553 0.707107
vn 0.612372 -0.353553 0.707107
vn 0.500000 -0.500000 0.707107
vn 0.500000 -0.500000 0.707107
vn 0.353553 -0.612372 0.707107
vn 0.353553 -0.612372 0.707107
vn 0.183013 -0.683013 0.707107
vn 0.183013 -0.683013 0.707107
vn 0.000000 -0.707107 0.707107
vn 0.000000 -0.707107 0.707107
vn -0.183013 -0.683013 0.707107
vn -0.183013 -0.683013 0.707107
vn -0.353553 -0.612372 0.707107
vn -0.353553 -0.612372 0.707107
vn -0.500000 -0.500000 0.707107
vn -0.500000 -0.500000 0.707107
vn -0.612372 -0.353553 0.707107
vn -0.612372 -0.353553 0.707107
vn -0.965926 -0.258819 -0.000000
vn -0.965926 -0.258819 -0.000000
vn -1.000000 -0.000000 -0.000000
vn -1.000000 -0.000000 -0.000000
vn -0.965926 0.258819 0.000000
vn -0.965926 0.258819 0.000000
vn -0.866025 0.500000 0.000000
vn -0.866025 0.500000 0.000000
vn -0.707107 0.707107 0.000000
vn -0.707107 0.707107 0.000000
vn -0.500000 0.866025 0.000000
vn -0.500000 0.866025 0.000000
vn -0.258819 0.965926 0.000000
vn -0.258819 0.965926 0.000000
vn -0.000000 1.000000 0.000000
vn -0.000000 1.000000 0.000000
vn 0.258819 0.965926 0.000000
vn 0.258819 0.965926 0.000000
vn 0.500000 0.866025 0.000000
vn 0.500000 0.866025 0.000000
vn 0.707107 0.707107 0.000000
vn 0.707107 0.707107 0.000000
vn 0.866025 0.500000 0.000000
vn 0.866025 0.500000 0.000000
vn 0.965926 0.258819 0.000000
vn 0.965926 0.258819 0.000000
vn 1.000000 0.000000 0.000000
vn 1.000000 0.000000 0.000000
vn 0.965926 -0.258819 0.000000
vn 0.965926 -0.258819 0.000000
vn 0.866025 -0.500000 0.000000
vn 0.866025 -0.500000 0.000000
vn 0.707107 -0.707107 0.000000
vn 0.707107 -0.707107 0.000000
vn 0.500000 -0.866025 0.000000
vn 0.500000 -0.866025 0.000000
vn 0.258819 -0.965926 0.000000
vn 0.258819 -0.965926 0.000000
vn 0.000000 -1.000000 0.000000
vn 0.000000 -1.000000 0.000000
vn -0.258819 -0.965926 -0.000000
vn -0.258819 -0.965926 -0.000000
vn -0.500000 -0.866025 -0.000000
vn -0.500000 -0.866025 -0.000000
vn -0.707107 -0.707107 -0.000000
vn -0.707107 -0.707107 -0.000000
vn -0.866025 -0.500000 -0.000000
vn -0.866025 -0.500000 -0.000000
vn -0.965926 0.258819 0.000000
vn -1.000000 -0.000000 -0.000000
vn -0.965926 -0.258819 -0.000000
vn -0.866025 -0.500000 -0.000000
vn -0.707107 -0.707107 -0.000000
vn -0.500000 -0.866025 -0.000000
vn -0.258819 -0.965926 -0.000000
vn 0.000000 -1.000000 0.000000
vn 0.258819 -0.965926 0.000000
vn 0.500000 -0.866025 0.000000
vn 0.707107 -0.707107 0.000000
vn 0.866025 -0.500000 0.000000
vn 0.965926 -0.258819 0.000000
vn 1.000000 -0.000000 0.000000
vn 0.965926 0.258819 0.000000
vn 0.866025 0.500000 0.000000
vn 0.707107 0.707107 0.000000
vn 0.500000 0.866025 0.000000
vn 0.258819 0.965926 0.000000
vn -0.000000 1.000000 0.000000
vn -0.258819 0.965926 0.000000
vn -0.500000 0.866025 0.000000
vn -0.707107 0.707107 0.000000
vn -0.866025 0.500000 0.000000
vn 0.683013 -0.707107 0.183013
vn 0.683013 -0.707107 0.183013
vn 0.707107 -0.707107 0.000000
vn 0.707107 -0.707107 0.000000
vn 0.683013 -0.707107 -0.183013
vn 0.683013 -0.707107 -0.183013
vn 0.612372 -0.707107 -0.353553
vn 0.612372 -0.707107 -0.353553
vn 0.500000 -0.707107 -0.500000
vn 0.500000 -0.707107 -0.500000
vn 0.353553 -0.707107 -0.612372
vn 0.353553 -0.707107 -0.612372
vn 0.183013 -0.707107 -0.683013
vn 0.183013 -0.707107 -0.683013
vn -0.000000 -0.707107 -0.707107
vn -0.000000 -0.707107 -0.707107
vn -0.183013 -0.707107 -0.683013
vn -0.183013 -0.707107 -0.683013
vn -0.353553 -0.707107 -0.612372
vn -0.353553 -0.707107 -0.612372
vn -0.500000 -0.707107 -0.500000
vn -0.500000 -0.707107 -0.500000
vn -0.612372 -0.707107 -0.353553
vn -0.612372 -0.707107 -0.353553
vn -0.683013 -0.707107 -0.183013
vn -0.683013 -0.707107 -0.183013
vn -0.707107 -0.707107 -0.000000
vn -0.707107 -0.707107 -0.000000
vn -0.683013 -0.707107 0.183013
vn -0.683013 -0.707107 0.183013
vn -0.612372 -0.707107 0.353553
vn -0.612372 -0.707107 0.353553
vn -0.500000 -0.707107 0.500000
vn -0.500000 -0.707107 0.500000
vn -0.353553 -0.707107 0.612372
vn -0.353553 -0.707107 0.612372
vn -0.183013 -0.707107 0.683013
vn -0.183013 -0.707107 0.683013
vn -0.000000 -0.707107 0.707107
vn -0.000000 -0.707107 0.707107
vn 0.183013 -0.707107 0.683013
vn 0.183013 -0.707107 0.683013
vn 0.353553 -0.707107 0.612372
vn 0.353553 -0.707107 0.612372
vn 0.500000 -0.707107 0.500000
vn 0.500000 -0.707107 0.500000
vn 0.612372 -0.707107 0.353553
vn 0.612372 -0.707107 0.353553
vn -0.000000 -1.000000 -0.000000
vn -0.000000 -1.000000 -0.000000
vn -0.000000 -1.000000 -0.000000
vn -0.000000 -1.000000 -0.000000
vn -0.000000 -1.000000 -0.000000
vn -0.000000 -1.000000 -0.000000
vn -0.000000 -1.000000 -0.000000
vn -0.000000 -1.000000 -0.000000
vn -0.000000 -1.000000 -0.000000
vn -0.000000 -1.000000 -0.000000
vn -0.000000 -1.000000 -0.000000
vn -0.000000 -1.000000 -0.000000
vn -0.000000 -1.000000 -0.000000
vn -0.000000 -1.000000 -0.000000
vn -0.000000 -1.000000 -0.000000
vn -0.000000 -1.000000 -0.000000
vn -0.000000 -1.000000 -0.000000
vn -0.000000 -1.000000 -0.000000
vn -0.000000 -1.000000 -0.000000
vn -0.000000 -1.000000 -0.000000
vn -0.000000 -1.000000 -0.000000
vn -0.000000 -1.000000 -0.000000
vn -0.000000 -1.000000 -0.000000
vn -0.000000 -1.000000 -0.000000
vn -0.000000 -1.000000 -0.000000
vn -0.000000 -1.000000 -0.000000
vn -0.000000 -1.000000 -0.000000
vn -0.000000 -1.000000 -0.000000
vn -0.000000 -1.000000 -0.000000
vn -0.000000 -1.000000 -0.000000
vn -0.000000 -1.000000 -0.000000
vn -0.000000 -1.000000 -0.000000
vn -0.000000 -1.000000 -0.000000
vn -0.000000 -1.000000 -0.000000
vn -0.000000 -1.000000 -0.000000
vn -0.000000 -1.000000 -0.000000
vn -0.000000 -1.000000 -0.000000
vn -0.000000 -1.000000 -0.000000
vn -0.000000 -1.000000 -0.000000
vn -0.000000 -1.000000 -0.000000
vn -0.000000 -1.000000 -0.000000
vn -0.000000 -1.000000 -0.000000
vn -0.000000 -1.000000 -0.000000
vn -0.981169 0.000000 -0.193153
vn -1.000000 0.000000 0.000000
vn -1.000000 0.000000 0.000000
vn -0.981169 0.000000 0.193153
vn -0.965926 0.000000 0.258819
vn -0.923461 0.000000 0.383693
vn -0.866025 0.000000 0.500000
vn -0.829496 0.000000 0.558512
vn -0.707107 0.000000 0.707107
vn -0.707183 0.000000 0.707030
vn -0.558669 0.000000 0.829391
vn -0.500000 0.000000 0.866025
vn -0.383796 0.000000 0.923418
vn -0.258819 0.000000 0.965926
vn -0.193186 0.000000 0.981162
vn -0.000000 0.000000 1.000000
vn -0.000000 0.000000 1.000000
vn 0.193186 -0.000000 0.981162
vn 0.258819 -0.000000 0.965926
vn 0.383796 -0.000000 0.923418
vn 0.500000 -0.000000 0.866025
vn 0.558669 -0.000000 0.829391
vn 0.707107 -0.000000 0.707107
vn 0.707183 -0.000000 0.707030
vn 0.829496 -0.000000 0.558512
vn 0.866025 -0.000000 0.500000
vn 0.923461 -0.000000 0.383693
vn 0.965926 -0.000000 0.258819
vn 0.981169 -0.000000 0.193153
vn 1.000000 -0.000000 0.000000
vn 1.000000 -0.000000 0.000000
vn 0.981169 0.000000 -0.193153
vn 0.965926 0.000000 -0.258819
vn 0.923461 0.000000 -0.383693
vn 0.866025 0.000000 -0.500000
vn 0.829496 0.000000 -0.558512
vn 0.707107 0.000000 -0.707107
vn 0.707183 0.000000 -0.707030
vn 0.558669 0.000000 -0.829391
vn 0.500000 0.000000 -0.866025
vn 0.383796 0.000000 -0.923418
vn 0.258819 0.000000 -0.965926
vn 0.193186 0.000000 -0.981162
vn -0.000000 0.000000 -1.000000
vn -0.000000 0.000000 -1.000000
vn -0.193186 0.000000 -0.981162
vn -0.258819 0.000000 -0.965926
vn -0.383796 0.000000 -0.923418
vn -0.500000 0.000000 -0.866025
vn -0.558669 0.000000 -0.829391
vn -0.707107 0.000000 -0.707107
vn -0.707183 0.000000 -0.707030
vn -0.829496 0.000000 -0.558512
vn -0.866025 0.000000 -0.500000
vn -0.923461 0.000000 -0.383693
vn -0.965926 0.000000 -0.258819
vn -0.000000 -0.707107 0.707107
vn -0.000000 -0.707107 0.707107
vn -0.000000 -0.707107 0.707107
vn -0.000000 -0.707107 0.707107
vn -0.707107 -0.707107 -0.000000
vn -0.707107 -0.707107 -0.000000
vn -0.707107 -0.707107 -0.000000
vn -0.707107 -0.707107 -0.000000
vn -0.707107 0.000000 0.707107
vn -0.707107 0.000000 0.707107
vn -0.707107 0.000000 0.707107
vn -0.707107 0.000000 0.707107
vn -0.707107 -0.707107 0.000000
vn -0.707107 -0.707107 0.000000
vn -0.707107 -0.707107 0.000000
vn -0.707107 -0.707107 0.000000
vn -0.000000 -0.707107 0.707107
vn -0.000000 -0.707107 0.707107
vn -0.000000 -0.707107 0.707107
vn -0.000000 -0.707107 0.707107
vn -0.000000 0.000000 1.000000
vn -0.000000 0.000000 1.000000
vn -0.000000 0.000000 1.000000
vn -0.000000 0.000000 1.000000
vn 1.000000 -0.000000 0.000000
vn 1.000000 -0.000000 0.000000
vn 1.000000 -0.000000 0.000000
vn 1.000000 -0.000000 0.000000
vn 1.000000 -0.000000 0.000000
vn 0.000000 -1.000000 -0.000000
vn 0.000000 -1.000000 -0.000000
vn 0.000000 -1.000000 -0.000000
vn 0.000000 -1.000000 -0.000000
vn -0.000000 0.000000 1.000000
vn -0.000000 0.000000 1.000000
vn -0.000000 0.000000 1.000000
vn -0.000000 0.000000 1.000000
vn -0.000000 0.000000 1.000000
vn -0.000000 0.000000 1.000000
vn -0.000000 0.000000 1.000000
vn -0.000000 0.000000 1.000000
vn 0.000000 -0.707107 0.707107
vn 0.000000 -0.707107 0.707107
vn 0.000000 -0.707107 0.707107
vn 0.000000 -0.707107 0.707107
vn 0.707107 0.000000 0.707107
vn 0.707107 0.000000 0.707107
vn 0.707107 0.000000 0.707107
vn 0.707107 0.000000 0.707107
vn 0.707107 -0.707107 -0.000000
vn 0.707107 -0.707107 -0.000000
vn 0.707107 -0.707107 -0.000000
vn 0.707107 -0.707107 -0.000000
vn 0.000000 -0.707107 0.707107
vn 0.000000 -0.707107 0.707107
vn 0.000000 -0.707107 0.707107
vn 0.000000 -0.707107 0.707107
vn 0.707107 -0.707107 -0.000000
vn 0.707107 -0.707107 -0.000000
vn 0.707107 -0.707107 -0.000000
vn 0.707107 -0.707107 -0.000000
vn 1.000000 0.000000 -0.000000
vn 1.000000 0.000000 -0.000000
vn 1.000000 0.000000 -0.000000
vn 1.000000 0.000000 -0.000000
vn 1.000000 0.000000 -0.000000
vn 1.000000 0.000000 -0.000000
vn 0.000000 0.000000 1.000000
vn 0.000000 0.000000 1.000000
vn 0.000000 0.000000 1.000000
vn 0.000000 0.000000 1.000000
vn 0.000000 0.000000 1.000000
vn 0.000000 0.000000 1.000000
vn 0.000000 0.000000 1.000000
vn 0.000000 0.000000 1.000000
vn 0.000000 0.000000 1.000000
vn 0.000000 0.000000 1.000000
vn 0.000000 0.000000 1.000000
vn 0.000000 0.000000 1.000000
vn 0.000000 0.000000 1.000000
vn 0.000000 0.000000 1.000000
vn 0.000000 0.000000 1.000000
vn 0.000000 0.000000 1.000000
vn 0.000000 0.000000 1.000000
vn 0.000000 0.000000 1.000000
vn 0.000000 0.000000 1.000000
vn 0.000000 0.000000 1.000000
vn 0.000000 0.000000 1.000000
vn 0.000000 0.000000 1.000000
vn 0.000000 0.000000 1.000000
vn 0.000000 0.000000 1.000000
vn 0.000000 0.000000 1.000000
vn 0.000000 0.000000 1.000000
vn 0.000000 0.000000 1.000000
vn 0.000000 0.000000 1.000000
vn 0.000000 0.000000 1.000000
vn 0.000000 0.000000 1.000000
vn 0.000000 0.000000 1.000000
vn 0.000000 0.000000 1.000000
vn 0.000000 0.000000 1.000000
vn 0.000000 0.000000 1.000000
vn 0.000000 0.000000 1.000000
vn 0.000000 0.000000 1.000000
vn 1.000000 0.000000 -0.000000
vn 1.000000 0.000000 -0.000000
vn 1.000000 0.000000 -0.000000
vn 1.000000 0.000000 -0.000000
vn -0.291930 0.956440 0.000000
vn -0.245818 0.969316 0.000000
vn -0.297619 0.954685 0.000000
vn -0.335226 0.942138 0.000000
vn -0.277347 0.960770 0.000000
vn -0.274839 0.961490 0.000000
vn -0.246812 0.969063 0.000000
vn -0.210471 0.977600 0.000000
vn -0.166230 0.986087 0.000000
vn -0.082693 0.996575 0.000000
vn -0.114225 0.993455 0.000000
vn -0.057483 0.998347 0.000000
vn -0.000000 1.000000 0.000000
vn 0.082693 0.996575 -0.000000
vn 0.057483 0.998347 -0.000000
vn 0.114225 0.993455 -0.000000
vn 0.166230 0.986087 -0.000000
vn 0.245818 0.969316 -0.000000
vn 0.210471 0.977600 -0.000000
vn 0.246812 0.969063 -0.000000
vn 0.274839 0.961490 -0.000000
vn 0.291930 0.956440 -0.000000
vn 0.297619 0.954685 -0.000000
vn 0.335226 0.942138 -0.000000
vn 0.291930 0.956440 -0.000000
vn 0.277347 0.960770 -0.000000
vn 0.274839 0.961490 -0.000000
vn 0.246812 0.969063 -0.000000
vn 0.212857 0.977083 -0.000000
vn 0.210471 0.977600 -0.000000
vn 0.166230 0.986087 -0.000000
vn 0.143605 0.989635 -0.000000
vn 0.114225 0.993455 -0.000000
vn 0.071788 0.997420 -0.000000
vn 0.057483 0.998347 -0.000000
vn -0.000000 1.000000 0.000000
vn -0.000000 1.000000 0.000000
vn -0.057483 0.998347 0.000000
vn -0.071788 0.997420 0.000000
vn -0.114225 0.993455 0.000000
vn -0.143605 0.989635 0.000000
vn -0.166230 0.986087 0.000000
vn -0.212857 0.977083 0.000000
vn -0.210471 0.977600 0.000000
vn -0.246812 0.969063 0.000000
vn -0.274839 0.961490 0.000000
vn -0.291930 0.956440 0.000000
vn 0.761905 0.647689 -0.000000
vn 0.696617 0.717443 -0.000000
vn 0.761905 0.647689 -0.000000
vn 0.673772 0.738939 -0.000000
vn 0.624970 0.780648 -0.000000
vn 0.574796 0.818297 -0.000000
vn 0.547619 0.836728 -0.000000
vn 0.466569 0.884485 -0.000000
vn 0.402220 0.915543 -0.000000
vn 0.429384 0.903122 -0.000000
vn 0.385275 0.922802 -0.000000
vn 0.547619 0.836728 -0.000000
vn -0.402220 0.915543 0.000000
vn -0.385275 0.922802 0.000000
vn -0.429384 0.903122 0.000000
vn -0.466569 0.884485 0.000000
vn -0.547619 0.836728 0.000000
vn -0.547619 0.836728 0.000000
vn -0.574796 0.818297 0.000000
vn -0.624970 0.780648 0.000000
vn -0.673772 0.738939 0.000000
vn -0.696617 0.717443 0.000000
vn -0.761905 0.647689 0.000000
vn -0.761905 0.647689 0.000000
vn -0.000000 0.000000 -1.000000
vn -0.000000 0.000000 -1.000000
vn -0.000000 0.000000 -1.000000
vn -0.000000 0.000000 -1.000000
vn -0.000000 0.000000 -1.000000
vn -0.000000 0.000000 -1.000000
vn -0.000000 0.000000 -1.000000
vn -0.890724 0.000000 -0.454545
vn -0.819734 0.000000 -0.572744
vn -0.890724 0.000000 -0.454545
vn -0.770195 0.000000 -0.637808
vn -0.735530 0.000000 -0.677493
vn -0.612612 0.000000 -0.790384
vn -0.639985 0.000000 -0.768387
vn -0.529482 0.000000 -0.848321
vn -0.425554 0.000000 -0.904933
vn -0.406364 0.000000 -0.913711
vn -0.274157 0.000000 -0.961685
vn -0.218022 0.000000 -0.975944
vn -0.137051 0.000000 -0.990564
vn -0.000000 0.000000 -1.000000
vn -0.000000 0.000000 -1.000000
vn 0.137051 -0.000000 -0.990564
vn 0.218022 -0.000000 -0.975944
vn 0.274157 -0.000000 -0.961685
vn 0.425554 -0.000000 -0.904933
vn 0.406364 -0.000000 -0.913711
vn 0.529482 -0.000000 -0.848321
vn 0.612612 -0.000000 -0.790384
vn 0.639985 -0.000000 -0.768387
vn 0.735530 -0.000000 -0.677493
vn 0.770195 -0.000000 -0.637808
vn 0.819734 -0.000000 -0.572744
vn 0.890724 -0.000000 -0.454545
vn 0.890724 -0.000000 -0.454545
vn -0.000000 0.000000 -1.000000
vn -0.000000 0.000000 -1.000000
vn -0.000000 0.000000 -1.000000
vn -0.000000 0.000000 -1.000000
vn -0.000000 0.000000 -1.000000
vn -0.000000 0.000000 -1.000000
vn -0.000000 0.000000 -1.000000
vn 0.000000 1.000000 0.000000
vn 0.000000 1.000000 0.000000
vn 0.000000 1.000000 0.000000
vn 0.000000 1.000000 0.000000
vn 0.000000 1.000000 0.000000
vn -0.000000 -1.000000 -0.000000
vn -0.000000 -1.000000 -0.000000
vn -0.000000 -1.000000 -0.000000
vn -0.000000 -1.000000 -0.000000
vn -1.000000 0.000000 -0.000000
vn -1.000000 0.000000 -0.000000
vn -1.000000 0.000000 -0.000000
vn -1.000000 0.000000 -0.000000
vn -1.000000 0.000000 0.000000
vn -1.000000 0.000000 0.000000
vn -1.000000 0.000000 0.000000
vn -1.000000 0.000000 0.000000
vn -1.000000 0.000000 0.000000
vn -1.000000 0.000000 0.000000
vn 0.000000 -0.000000 1.000000
vn 0.000000 -0.000000 1.000000
vn 0.000000 -0.000000 1.000000
vn 0.000000 -0.000000 1.000000
vn -1.000000 0.000000 0.000000
vn -1.000000 0.000000 0.000000
vn -1.000000 0.000000 0.000000
vn -1.000000 0.000000 0.000000
vn -1.000000 0.000000 0.000000
vn 0.000000 -0.000000 1.000000
vn 0.000000 -0.000000 1.000000
vn 0.000000 -0.000000 1.000000
vn 0.000000 -0.000000 1.000000
vn 0.000000 -0.000000 1.000000
vn 0.000000 -0.000000 1.000000
vn 0.000000 -0.000000 1.000000
vn 0.000000 -0.000000 1.000000
vn 0.000000 1.000000 0.000000
vn 0.000000 1.000000 0.000000
vn 0.000000 1.000000 0.000000
vn 0.000000 1.000000 0.000000
vn 0.000000 1.000000 0.000000
usemtl Aluminum_nitride_(AlN)
f 2/1/1 25/2/2 1/3/3
f 4/4/4 25/5/5 3/6/6
f 6/7/7 25/8/8 5/9/9
f 8/10/10 25/11/11 7/12/12
f 10/13/13 25/14/14 9/15/15
f 12/16/16 25/17/17 11/18/18
f 14/19/19 25/20/20 13/21/21
f 16/22/22 25/23/23 15/24/24
f 18/25/25 25/26/26 17/27/27
f 20/28/28 25/29/29 19/30/30
f 22/31/31 25/32/32 21/33/33
f 24/34/34 25/35/35 23/36/36
f 13/37/21 25/38/37 12/16/16
f 5/9/9 25/39/38 4/4/4
f 21/33/33 25/40/39 20/28/28
f 11/18/18 25/41/40 10/13/13
f 9/15/15 25/42/41 8/10/10
f 7/12/12 25/43/42 6/7/7
f 3/6/6 25/44/43 2/1/1
f 1/3/3 25/45/44 24/34/34
f 23/36/36 25/46/45 22/31/31
f 19/30/30 25/47/46 18/25/25
f 17/27/27 25/48/47 16/22/22
f 15/24/24 25/49/48 14/19/19
f 27/50/49 73/51/50 26/52/51
f 26/52/51 73/51/50 50/53/52
f 26/52/51 50/53/52 49/54/53
f 49/54/53 50/53/52 51/55/54
f 49/54/53 51/55/54 48/56/55
f 48/56/55 51/55/54 52/57/56
f 48/56/55 52/57/56 47/58/57
f 47/58/57 52/57/56 53/59/58
f 47/58/57 53/59/58 46/60/59
f 46/60/59 53/59/58 54/61/60
f 46/60/59 54/61/60 45/62/61
f 45/62/61 54/61/60 55/63/62
f 45/62/61 55/63/62 44/64/63
f 44/64/63 55/63/62 56/65/64
f 44/64/63 56/65/64 43/66/65
f 43/66/65 56/65/64 57/67/66
f 43/66/65 57/67/66 42/68/67
f 42/68/67 57/67/66 58/69/68
f 42/68/67 58/69/68 41/70/69
f 41/70/69 58/69/68 59/71/70
f 41/70/69 59/71/70 40/72/71
f 40/72/71 59/71/70 60/73/72
f 40/72/71 60/73/72 39/74/73
f 39/74/73 60/73/72 61/75/74
f 39/74/73 61/75/74 38/76/75
f 38/76/75 61/75/74 62/77/76
f 38/78/75 62/79/76 37/80/77
f 37/80/77 62/79/76 63/81/78
f 37/80/77 63/81/78 36/82/79
f 36/82/79 63/81/78 64/83/80
f 36/82/79 64/83/80 35/84/81
f 35/84/81 64/83/80 65/85/82
f 35/84/81 65/85/82 34/86/83
f 34/86/83 65/85/82 66/87/84
f 34/86/83 66/87/84 33/88/85
f 33/88/85 66/87/84 67/89/86
f 33/88/85 67/89/86 32/90/87
f 32/90/87 67/89/86 68/91/88
f 32/90/87 68/91/88 31/92/89
f 31/92/89 68/91/88 69/93/90
f 31/92/89 69/93/90 30/94/91
f 30/94/91 69/93/90 70/95/92
f 30/94/91 70/95/92 29/96/93
f 29/96/93 70/95/92 71/97/94
f 29/96/93 71/97/94 28/98/95
f 28/98/95 71/97/94 72/99/96
f 28/98/95 72/99/96 27/50/49
f 27/50/49 72/99/96 73/51/50
f 73/100/97 75/101/98 50/102/99
f 50/102/99 75/101/98 76/103/100
f 50/102/99 76/103/100 51/104/101
f 51/104/101 76/103/100 97/105/102
f 51/104/101 97/105/102 52/106/103
f 52/106/103 97/105/102 96/107/104
f 52/106/103 96/107/104 53/108/105
f 53/108/105 96/107/104 95/109/106
f 53/108/105 95/109/106 54/110/107
f 54/110/107 95/109/106 94/111/108
f 54/110/107 94/111/108 55/112/109
f 55/112/109 94/111/108 93/113/110
f 55/112/109 93/113/110 56/114/111
f 56/114/111 93/113/110 92/115/112
f 56/114/111 92/115/112 57/116/113
f 57/116/113 92/115/112 91/117/114
f 57/116/113 91/117/114 58/118/115
f 58/118/115 91/117/114 90/119/116
f 58/118/115 90/119/116 59/120/117
f 59/120/117 90/119/116 89/121/118
f 59/120/117 89/121/118 60/122/119
f 60/122/119 89/121/118 88/123/120
f 60/122/119 88/123/120 61/124/121
f 61/124/121 88/123/120 87/125/122
f 61/124/121 87/125/122 62/126/123
f 62/126/123 87/125/122 74/127/124
f 62/128/123 74/129/124 63/130/125
f 63/130/125 74/129/124 86/131/126
f 63/130/125 86/131/126 64/132/127
f 64/132/127 86/131/126 85/133/128
f 64/132/127 85/133/128 65/134/129
f 65/134/129 85/133/128 84/135/130
f 65/134/129 84/135/130 66/136/131
f 66/136/131 84/135/130 83/137/132
f 66/136/131 83/137/132 67/138/133
f 67/138/133 83/137/132 82/139/134
f 67/138/133 82/139/134 68/140/135
f 68/140/135 82/139/134 81/141/136
f 68/140/135 81/141/136 69/142/137
f 69/142/137 81/141/136 80/143/138
f 69/142/137 80/143/138 70/144/139
f 70/144/139 80/143/138 79/145/140
f 70/144/139 79/145/140 71/146/141
f 71/146/141 79/145/140 78/147/142
f 71/146/141 78/147/142 72/148/143
f 72/148/143 78/147/142 77/149/144
f 72/148/143 77/149/144 73/100/97
f 73/100/97 77/149/144 75/101/98
f 24/150/145 97/105/102 1/151/146
f 1/151/146 97/105/102 76/103/100
f 1/151/146 76/103/100 2/152/147
f 2/152/147 76/103/100 75/101/98
f 2/152/147 75/101/98 3/153/148
f 3/153/148 75/101/98 77/149/144
f 3/153/148 77/149/144 4/154/149
f 4/154/149 77/149/144 78/147/142
f 4/154/149 78/147/142 5/155/150
f 5/155/150 78/147/142 79/145/140
f 5/155/150 79/145/140 6/156/151
f 6/156/151 79/145/140 80/143/138
f 6/156/151 80/143/138 7/157/152
f 7/157/152 80/143/138 81/141/136
f 7/157/152 81/141/136 8/158/153
f 8/158/153 81/141/136 82/139/134
f 8/158/153 82/139/134 9/159/154
f 9/159/154 82/139/134 83/137/132
f 9/159/154 83/137/132 10/160/155
f 10/160/155 83/137/132 84/135/130
f 10/160/155 84/135/130 11/161/156
f 11/161/156 84/135/130 85/133/128
f 11/161/156 85/133/128 12/162/157
f 12/162/157 85/133/128 86/131/126
f 12/162/157 86/131/126 13/163/158
f 13/163/158 86/131/126 74/129/124
f 13/164/158 74/127/124 14/165/159
f 14/165/159 74/127/124 87/125/122
f 14/165/159 87/125/122 15/166/160
f 15/166/160 87/125/122 88/123/120
f 15/166/160 88/123/120 16/167/161
f 16/167/161 88/123/120 89/121/118
f 16/167/161 89/121/118 17/168/162
f 17/168/162 89/121/118 90/119/116
f 17/168/162 90/119/116 18/169/163
f 18/169/163 90/119/116 91/117/114
f 18/169/163 91/117/114 19/170/164
f 19/170/164 91/117/114 92/115/112
f 19/170/164 92/115/112 20/171/165
f 20/171/165 92/115/112 93/113/110
f 20/171/165 93/113/110 21/172/166
f 21/172/166 93/113/110 94/111/108
f 21/172/166 94/111/108 22/173/167
f 22/173/167 94/111/108 95/109/106
f 22/173/167 95/109/106 23/174/168
f 23/174/168 95/109/106 96/107/104
f 23/174/168 96/107/104 24/150/145
f 24/150/145 96/107/104 97/105/102
f 99/175/169 145/176/170 98/177/171
f 98/177/171 145/176/170 122/178/172
f 98/179/171 122/180/172 121/181/173
f 121/181/173 122/180/172 123/182/174
f 121/181/173 123/182/174 120/183/175
f 120/183/175 123/182/174 124/184/176
f 120/183/175 124/184/176 119/185/177
f 119/185/177 124/184/176 125/186/178
f 119/185/177 125/186/178 118/187/179
f 118/187/179 125/186/178 126/188/180
f 118/187/179 126/188/180 117/189/181
f 117/189/181 126/188/180 127/190/182
f 117/189/181 127/190/182 116/191/183
f 116/191/183 127/190/182 128/192/184
f 116/191/183 128/192/184 115/193/185
f 115/193/185 128/192/184 129/194/186
f 115/193/185 129/194/186 114/195/187
f 114/195/187 129/194/186 130/196/188
f 114/195/187 130/196/188 113/197/189
f 113/197/189 130/196/188 131/198/190
f 113/197/189 131/198/190 112/199/191
f 112/199/191 131/198/190 132/200/192
f 112/199/191 132/200/192 111/201/193
f 111/201/193 132/200/192 133/202/194
f 111/201/193 133/202/194 110/203/195
f 110/203/195 133/202/194 134/204/196
f 110/203/195 134/204/196 109/205/197
f 109/205/197 134/204/196 135/206/198
f 109/205/197 135/206/198 108/207/199
f 108/207/199 135/206/198 136/208/200
f 108/207/199 136/208/200 107/209/201
f 107/209/201 136/208/200 137/210/202
f 107/209/201 137/210/202 106/211/203
f 106/211/203 137/210/202 138/212/204
f 106/211/203 138/212/204 105/213/205
f 105/213/205 138/212/204 139/214/206
f 105/213/205 139/214/206 104/215/207
f 104/215/207 139/214/206 140/216/208
f 104/215/207 140/216/208 103/217/209
f 103/217/209 140/216/208 141/218/210
f 103/217/209 141/218/210 102/219/211
f 102/219/211 141/218/210 142/220/212
f 102/219/211 142/220/212 101/221/213
f 101/221/213 142/220/212 143/222/214
f 101/221/213 143/222/214 100/223/215
f 100/223/215 143/222/214 144/224/216
f 100/223/215 144/224/216 99/175/169
f 99/175/169 144/224/216 145/176/170
f 147/225/217 148/226/218 146/227/219
f 146/227/219 148/226/218 149/228/220
f 146/227/219 149/228/220 98/229/221
f 98/229/221 149/228/220 99/230/222
f 99/230/222 149/228/220 100/231/223
f 100/231/223 149/228/220 150/232/224
f 100/231/223 150/232/224 101/233/225
f 101/233/225 150/232/224 151/234/226
f 101/233/225 151/234/226 102/235/227
f 102/235/227 151/234/226 152/236/228
f 102/235/227 152/236/228 103/237/229
f 103/237/229 152/236/228 153/238/230
f 103/237/229 153/238/230 104/239/231
f 104/239/231 153/238/230 154/240/232
f 104/239/231 154/240/232 155/241/233
f 104/239/231 155/241/233 105/242/234
f 105/242/234 155/241/233 156/243/235
f 105/242/234 156/243/235 106/244/236
f 106/244/236 156/243/235 157/245/237
f 106/244/236 157/245/237 107/246/238
f 107/246/238 157/245/237 158/247/239
f 107/246/238 158/247/239 108/248/240
f 108/248/240 158/247/239 159/249/241
f 108/248/240 159/249/241 109/250/242
f 109/250/242 159/249/241 110/251/243
f 110/251/243 159/249/241 162/252/244
f 110/251/243 162/252/244 111/253/245
f 111/253/245 162/252/244 112/254/246
f 112/254/246 162/252/244 113/255/247
f 113/255/247 162/252/244 163/256/248
f 113/255/247 163/256/248 114/257/249
f 114/257/249 163/256/248 115/258/250
f 115/258/250 163/256/248 116/259/251
f 116/259/251 163/256/248 164/260/252
f 116/259/251 164/260/252 117/261/253
f 117/261/253 164/260/252 118/262/254
f 118/262/254 164/260/252 119/263/255
f 119/263/255 164/260/252 146/227/219
f 119/263/255 146/227/219 120/264/256
f 120/264/256 146/227/219 121/265/257
f 121/265/257 146/227/219 98/229/221
f 159/249/241 160/266/258 162/252/244
f 162/252/244 160/266/258 161/267/259
f 196/268/260 165/269/261 134/270/262
f 134/270/262 165/269/261 166/271/263
f 134/270/262 166/271/263 135/272/264
f 135/272/264 166/271/263 167/273/265
f 135/272/264 167/273/265 136/274/266
f 136/274/266 167/273/265 168/275/267
f 136/274/266 168/275/267 137/276/268
f 137/276/268 168/275/267 169/277/269
f 137/276/268 169/277/269 170/278/270
f 137/276/268 170/278/270 138/279/271
f 138/279/271 170/278/270 171/280/272
f 138/279/271 171/280/272 139/281/273
f 139/281/273 171/280/272 172/282/274
f 139/281/273 172/282/274 140/283/275
f 140/283/275 172/282/274 173/284/276
f 140/283/275 173/284/276 174/285/277
f 140/283/275 174/285/277 141/286/278
f 141/286/278 174/285/277 175/287/279
f 141/286/278 175/287/279 142/288/280
f 142/288/280 175/287/279 176/289/281
f 142/288/280 176/289/281 143/290/282
f 143/290/282 176/289/281 177/291/283
f 143/290/282 177/291/283 178/292/284
f 143/290/282 178/292/284 144/293/285
f 144/293/285 178/292/284 179/294/286
f 144/293/285 179/294/286 145/295/287
f 145/295/287 179/294/286 180/296/288
f 145/295/287 180/296/288 122/297/289
f 122/297/289 180/296/288 181/298/290
f 122/299/289 181/300/290 182/301/291
f 122/299/289 182/301/291 123/302/292
f 123/302/292 182/301/291 183/303/293
f 123/302/292 183/303/293 124/304/294
f 124/304/294 183/303/293 184/305/295
f 124/304/294 184/305/295 125/306/296
f 125/306/296 184/305/295 185/307/297
f 125/306/296 185/307/297 186/308/298
f 125/306/296 186/308/298 126/309/299
f 126/309/299 186/308/298 187/310/300
f 126/309/299 187/310/300 127/311/301
f 127/311/301 187/310/300 188/312/302
f 127/311/301 188/312/302 128/313/303
f 128/313/303 188/312/302 189/314/304
f 128/313/303 189/314/304 190/315/305
f 128/313/303 190/315/305 129/316/306
f 129/316/306 190/315/305 191/317/307
f 129/316/306 191/317/307 130/318/308
f 130/318/308 191/317/307 192/319/309
f 130/318/308 192/319/309 131/320/310
f 131/320/310 192/319/309 193/321/311
f 131/320/310 193/321/311 194/322/312
f 131/320/310 194/322/312 132/323/313
f 132/323/313 194/322/312 195/324/314
f 132/323/313 195/324/314 133/325/315
f 133/325/315 195/324/314 196/268/260
f 133/325/315 196/268/260 134/270/262
f 147/326/316 146/327/317 198/328/318
f 198/328/318 146/327/317 197/329/319
f 146/330/320 164/331/321 197/332/322
f 197/332/322 164/331/321 199/333/323
f 200/334/324 147/335/325 201/336/326
f 201/336/326 147/335/325 198/337/327
f 202/338/328 200/339/329 203/340/330
f 203/340/330 200/339/329 201/341/331
f 204/342/332 205/343/333 203/344/334
f 203/344/334 205/343/333 202/345/335
f 202/346/336 205/347/337 207/348/338
f 207/348/338 205/347/337 206/349/339
f 205/350/340 204/351/341 206/352/342
f 206/352/342 204/351/341 209/353/343
f 209/353/343 204/351/341 208/354/344
f 203/355/345 201/356/346 204/357/347
f 204/357/347 201/356/346 208/358/348
f 201/359/349 198/360/350 208/361/351
f 208/361/351 198/360/350 197/362/352
f 208/361/351 197/362/352 210/363/353
f 210/363/353 211/364/354 208/361/351
f 208/361/351 211/364/354 212/365/355
f 208/361/351 212/365/355 209/366/356
f 213/367/357 214/368/358 216/369/359
f 216/369/359 214/368/358 215/370/360
f 218/371/361 161/372/362 217/373/363
f 217/373/363 161/372/362 219/374/364
f 221/375/365 163/376/366 220/377/367
f 220/377/367 163/376/366 162/378/368
f 218/379/369 220/380/370 161/381/371
f 161/381/371 220/380/370 162/382/372
f 216/383/373 217/384/374 213/385/375
f 213/385/375 217/384/374 219/386/376
f 213/387/377 219/388/378 223/389/379
f 223/389/379 219/388/378 222/390/380
f 222/390/380 219/388/378 160/391/381
f 160/391/381 219/388/378 161/392/382
f 27/393/383 26/394/384 221/395/385
f 221/395/385 26/394/384 49/396/386
f 221/395/385 49/396/386 48/397/387
f 221/395/385 48/397/387 163/398/388
f 163/398/388 48/397/387 47/399/389
f 163/398/388 47/399/389 46/400/390
f 46/400/390 45/401/391 163/398/388
f 163/398/388 45/401/391 44/402/392
f 163/398/388 44/402/392 164/403/393
f 164/403/393 44/402/392 43/404/394
f 164/403/393 43/404/394 42/405/395
f 42/405/395 41/406/396 164/403/393
f 164/403/393 41/406/396 40/407/397
f 164/403/393 40/407/397 199/408/398
f 199/408/398 40/407/397 39/409/399
f 199/408/398 39/409/399 38/410/400
f 38/410/400 37/411/401 199/408/398
f 199/408/398 37/411/401 230/412/402
f 199/408/398 230/412/402 231/413/403
f 37/411/401 36/414/404 230/412/402
f 230/412/402 36/414/404 229/415/405
f 229/415/405 36/414/404 35/416/406
f 229/415/405 35/416/406 34/417/407
f 229/415/405 34/417/407 228/418/408
f 228/418/408 34/417/407 33/419/409
f 228/418/408 33/419/409 32/420/410
f 228/418/408 32/420/410 227/421/411
f 227/421/411 32/420/410 31/422/412
f 227/421/411 31/422/412 30/423/413
f 227/421/411 30/423/413 226/424/414
f 226/424/414 30/423/413 29/425/415
f 226/424/414 29/425/415 28/426/416
f 226/424/414 28/426/416 225/427/417
f 225/427/417 28/426/416 27/393/383
f 225/427/417 27/393/383 221/395/385
f 221/395/385 224/428/418 225/427/417
f 221/429/419 220/430/420 224/431/421
f 224/431/421 220/430/420 232/432/422
f 196/433/423 226/434/424 165/435/425
f 165/435/425 226/434/424 243/436/426
f 165/435/425 243/436/426 244/437/427
f 196/433/423 195/438/428 226/434/424
f 226/434/424 195/438/428 194/439/429
f 226/434/424 194/439/429 193/440/430
f 193/440/430 192/441/431 226/434/424
f 226/434/424 192/441/431 227/442/432
f 227/442/432 192/441/431 191/443/433
f 227/442/432 191/443/433 190/444/434
f 190/444/434 189/445/435 227/442/432
f 227/442/432 189/445/435 228/446/436
f 228/446/436 189/445/435 188/447/437
f 228/446/436 188/447/437 187/448/438
f 187/448/438 186/449/439 228/446/436
f 228/446/436 186/449/439 229/450/440
f 229/450/440 186/449/439 185/451/441
f 229/450/440 185/451/441 184/452/442
f 184/452/442 183/453/443 229/450/440
f 229/450/440 183/453/443 182/454/444
f 229/450/440 182/454/444 181/455/445
f 229/450/440 181/455/445 253/456/446
f 253/456/446 181/455/445 180/457/447
f 253/456/446 180/457/447 252/458/448
f 252/458/448 180/457/447 179/459/449
f 252/458/448 179/459/449 178/460/450
f 252/458/448 178/460/450 251/461/451
f 251/461/451 178/460/450 177/462/452
f 251/461/451 177/462/452 176/463/453
f 251/461/451 176/463/453 250/464/454
f 250/464/454 176/463/453 175/465/455
f 250/464/454 175/465/455 249/466/456
f 249/466/456 175/465/455 174/467/457
f 249/466/456 174/467/457 248/468/458
f 248/468/458 174/467/457 173/469/459
f 248/468/458 173/469/459 172/470/460
f 248/468/458 172/470/460 247/471/461
f 247/471/461 172/470/460 171/472/462
f 247/471/461 171/472/462 246/473/463
f 246/473/463 171/472/462 170/474/464
f 246/473/463 170/474/464 245/475/465
f 245/475/465 170/474/464 169/476/466
f 245/475/465 169/476/466 168/477/467
f 245/475/465 168/477/467 244/437/427
f 244/437/427 168/477/467 167/478/468
f 244/437/427 167/478/468 166/479/469
f 166/479/469 165/435/425 244/437/427
f 209/480/470 212/481/471 233/482/472
f 233/482/472 212/481/471 258/483/473
f 258/483/473 212/481/471 211/484/474
f 258/483/473 211/484/474 257/485/475
f 257/485/475 211/484/474 210/486/476
f 257/485/475 210/486/476 256/487/477
f 256/487/477 210/486/476 230/488/478
f 256/487/477 230/488/478 255/489/479
f 255/489/479 230/488/478 254/490/480
f 254/490/480 230/488/478 253/456/446
f 253/456/446 230/488/478 229/450/440
f 210/486/476 231/491/481 230/488/478
f 226/434/424 225/492/482 243/436/426
f 243/436/426 225/492/482 242/493/483
f 242/493/483 225/492/482 241/494/484
f 241/494/484 225/492/482 240/495/485
f 240/495/485 225/492/482 224/496/486
f 240/495/485 224/496/486 232/497/487
f 240/495/485 232/497/487 239/498/488
f 239/498/488 232/497/487 234/499/489
f 239/498/488 234/499/489 238/500/490
f 238/500/490 234/499/489 235/501/491
f 238/500/490 235/501/491 237/502/492
f 237/502/492 235/501/491 236/503/493
f 233/504/494 258/505/495 259/506/496
f 259/506/496 258/505/495 148/507/497
f 148/507/497 258/505/495 257/508/498
f 148/507/497 257/508/498 149/509/499
f 149/509/499 257/508/498 256/510/500
f 256/511/501 255/512/502 149/513/503
f 149/513/503 255/512/502 150/514/504
f 150/514/504 255/512/502 254/515/505
f 150/514/504 254/515/505 151/516/506
f 151/516/506 254/515/505 253/517/507
f 151/516/506 253/517/507 252/518/508
f 151/516/506 252/518/508 152/519/509
f 152/519/509 252/518/508 251/520/510
f 152/519/509 251/520/510 250/521/511
f 152/519/509 250/521/511 153/522/512
f 153/522/512 250/521/511 249/523/513
f 153/522/512 249/523/513 154/524/514
f 154/524/514 249/523/513 248/525/515
f 154/524/514 248/525/515 247/526/516
f 154/524/514 247/526/516 155/527/517
f 155/527/517 247/526/516 246/528/518
f 155/527/517 246/528/518 156/529/519
f 156/529/519 246/528/518 245/530/520
f 156/529/519 245/530/520 244/531/521
f 156/529/519 244/531/521 157/532/522
f 157/532/522 244/531/521 243/533/523
f 157/532/522 243/533/523 242/534/524
f 157/532/522 242/534/524 158/535/525
f 158/535/525 242/534/524 241/536/526
f 158/535/525 241/536/526 159/537/527
f 159/537/527 241/536/526 240/538/528
f 240/539/529 239/540/530 159/541/531
f 159/541/531 239/540/530 160/542/532
f 160/542/532 239/540/530 238/543/533
f 160/542/532 238/543/533 222/544/534
f 222/544/534 238/543/533 237/545/535
f 237/546/536 236/547/537 222/548/538
f 222/548/538 236/547/537 223/549/539
f 223/549/539 236/547/537 260/550/540
f 215/551/541 261/552/542 216/553/543
f 216/553/543 261/552/542 217/554/544
f 197/555/545 199/556/546 210/557/547
f 210/557/547 199/556/546 231/558/548
f 202/559/549 207/560/550 200/561/551
f 200/561/551 207/560/550 259/562/552
f 200/561/551 259/562/552 148/563/553
f 148/563/553 147/564/554 200/561/551
f 214/565/555 213/566/556 260/567/557
f 260/567/557 213/566/556 223/568/558
f 214/569/559 260/570/560 215/571/561
f 215/571/561 260/570/560 236/572/562
f 215/571/561 236/572/562 261/573/563
f 217/574/564 261/575/565 218/576/566
f 218/576/566 261/575/565 220/577/567
f 220/577/567 261/575/565 232/578/568
f 232/578/568 261/575/565 234/579/569
f 234/579/569 261/575/565 235/580/570
f 235/580/570 261/575/565 236/581/571
f 233/582/572 259/583/573 209/584/574
f 209/584/574 259/583/573 207/585/575
f 209/584/574 207/585/575 206/586/576
# 261 vertices
# 586 texture params
# 576 normals
# 522 facets

# 1 groups
