ISO-10303-21;
HEADER;
/* Generated by software containing ST-Developer
 * from STEP Tools, Inc. (www.steptools.com) 
 */

FILE_DESCRIPTION(
/* description */ (''),
/* implementation_level */ '2;1');

FILE_NAME(
/* name */ 'Model.step',
/* time_stamp */ '2026-08-11T05:32:04+05:30',
/* author */ (''),
/* organization */ (''),
/* preprocessor_version */ 'ST-DEVELOPER v20.1',
/* originating_system */ 'Autodesk Translation Framework v15.8.0.0',
/* authorisation */ '');

FILE_SCHEMA (('AUTOMOTIVE_DESIGN { 1 0 10303 214 3 1 1 }'));
ENDSEC;

DATA;
#10=MECHANICAL_DESIGN_GEOMETRIC_PRESENTATION_REPRESENTATION('',(#13),#1095);
#11=SHAPE_REPRESENTATION_RELATIONSHIP('SRR','None',#1102,#12);
#12=ADVANCED_BREP_SHAPE_REPRESENTATION('',(#14),#1094);
#13=STYLED_ITEM('',(#1111),#14);
#14=MANIFOLD_SOLID_BREP('Body1',#631);
#15=B_SPLINE_CURVE_WITH_KNOTS('',3,(#901,#902,#903,#904,#905,#906,#907,
#908,#909,#910,#911,#912,#913,#914,#915,#916,#917,#918),.UNSPECIFIED.,.F.,
 .F.,(4,2,2,2,2,2,2,2,4),(3.79178851417007,4.2658303762179,4.73987223826573,
5.21377750476042,5.68768277125511,6.1615880377498,6.63549330424449,7.10953516629231,
7.58357702834014),.UNSPECIFIED.);
#16=B_SPLINE_CURVE_WITH_KNOTS('',3,(#920,#921,#922,#923,#924,#925,#926,
#927,#928,#929,#930,#931,#932,#933,#934,#935,#936,#937),.UNSPECIFIED.,.F.,
 .F.,(4,2,2,2,2,2,2,2,4),(0.,0.474041862047828,0.948083724095655,1.42198899059035,
1.89589425708504,2.36979952357973,2.84370479007442,3.31774665212224,3.79178851417007),
 .UNSPECIFIED.);
#17=B_SPLINE_CURVE_WITH_KNOTS('',3,(#1039,#1040,#1041,#1042,#1043,#1044,
#1045,#1046,#1047,#1048,#1049,#1050,#1051,#1052,#1053,#1054,#1055,#1056,
#1057,#1058,#1059,#1060,#1061,#1062,#1063,#1064),.UNSPECIFIED.,.F.,.F.,
(4,2,2,2,2,2,2,2,2,2,2,2,4),(1.00976097104387,1.27354424554585,1.69805899406114,
2.12114005778624,2.54422112151134,2.96730218523644,3.39038324896155,3.81346431268665,
4.23654537641175,4.65962644013686,5.08270750386196,5.50722225237724,5.77100552687923),
 .UNSPECIFIED.);
#18=FACE_BOUND('',#93,.T.);
#19=FACE_BOUND('',#111,.T.);
#20=FACE_BOUND('',#114,.T.);
#21=PLANE('',#654);
#22=PLANE('',#657);
#23=PLANE('',#658);
#24=PLANE('',#659);
#25=PLANE('',#660);
#26=PLANE('',#661);
#27=PLANE('',#662);
#28=PLANE('',#663);
#29=PLANE('',#664);
#30=PLANE('',#665);
#31=PLANE('',#667);
#32=PLANE('',#668);
#33=PLANE('',#669);
#34=PLANE('',#670);
#35=PLANE('',#671);
#36=PLANE('',#672);
#37=PLANE('',#673);
#38=PLANE('',#675);
#39=PLANE('',#680);
#40=PLANE('',#682);
#41=PLANE('',#683);
#42=PLANE('',#684);
#43=PLANE('',#685);
#44=PLANE('',#686);
#45=PLANE('',#687);
#46=PLANE('',#688);
#47=PLANE('',#689);
#48=PLANE('',#690);
#49=CYLINDRICAL_SURFACE('',#650,2.75);
#50=CYLINDRICAL_SURFACE('',#656,12.5);
#51=CYLINDRICAL_SURFACE('',#676,42.);
#52=CYLINDRICAL_SURFACE('',#681,22.);
#53=FACE_OUTER_BOUND('',#88,.T.);
#54=FACE_OUTER_BOUND('',#89,.T.);
#55=FACE_OUTER_BOUND('',#90,.T.);
#56=FACE_OUTER_BOUND('',#91,.T.);
#57=FACE_OUTER_BOUND('',#92,.T.);
#58=FACE_OUTER_BOUND('',#94,.T.);
#59=FACE_OUTER_BOUND('',#95,.T.);
#60=FACE_OUTER_BOUND('',#96,.T.);
#61=FACE_OUTER_BOUND('',#97,.T.);
#62=FACE_OUTER_BOUND('',#98,.T.);
#63=FACE_OUTER_BOUND('',#99,.T.);
#64=FACE_OUTER_BOUND('',#100,.T.);
#65=FACE_OUTER_BOUND('',#101,.T.);
#66=FACE_OUTER_BOUND('',#102,.T.);
#67=FACE_OUTER_BOUND('',#103,.T.);
#68=FACE_OUTER_BOUND('',#104,.T.);
#69=FACE_OUTER_BOUND('',#105,.T.);
#70=FACE_OUTER_BOUND('',#106,.T.);
#71=FACE_OUTER_BOUND('',#107,.T.);
#72=FACE_OUTER_BOUND('',#108,.T.);
#73=FACE_OUTER_BOUND('',#109,.T.);
#74=FACE_OUTER_BOUND('',#110,.T.);
#75=FACE_OUTER_BOUND('',#112,.T.);
#76=FACE_OUTER_BOUND('',#113,.T.);
#77=FACE_OUTER_BOUND('',#115,.T.);
#78=FACE_OUTER_BOUND('',#116,.T.);
#79=FACE_OUTER_BOUND('',#117,.T.);
#80=FACE_OUTER_BOUND('',#118,.T.);
#81=FACE_OUTER_BOUND('',#119,.T.);
#82=FACE_OUTER_BOUND('',#120,.T.);
#83=FACE_OUTER_BOUND('',#121,.T.);
#84=FACE_OUTER_BOUND('',#122,.T.);
#85=FACE_OUTER_BOUND('',#123,.T.);
#86=FACE_OUTER_BOUND('',#124,.T.);
#87=FACE_OUTER_BOUND('',#125,.T.);
#88=EDGE_LOOP('',(#421,#422,#423));
#89=EDGE_LOOP('',(#424,#425,#426,#427));
#90=EDGE_LOOP('',(#428,#429,#430,#431));
#91=EDGE_LOOP('',(#432,#433,#434,#435));
#92=EDGE_LOOP('',(#436,#437,#438,#439,#440,#441,#442,#443,#444,#445));
#93=EDGE_LOOP('',(#446));
#94=EDGE_LOOP('',(#447,#448,#449,#450,#451));
#95=EDGE_LOOP('',(#452,#453,#454,#455));
#96=EDGE_LOOP('',(#456,#457,#458,#459));
#97=EDGE_LOOP('',(#460,#461,#462,#463));
#98=EDGE_LOOP('',(#464,#465,#466,#467));
#99=EDGE_LOOP('',(#468,#469,#470,#471));
#100=EDGE_LOOP('',(#472,#473,#474,#475));
#101=EDGE_LOOP('',(#476,#477,#478,#479,#480));
#102=EDGE_LOOP('',(#481,#482,#483,#484));
#103=EDGE_LOOP('',(#485,#486,#487,#488,#489,#490));
#104=EDGE_LOOP('',(#491,#492,#493,#494));
#105=EDGE_LOOP('',(#495,#496,#497,#498));
#106=EDGE_LOOP('',(#499,#500,#501,#502));
#107=EDGE_LOOP('',(#503,#504,#505,#506));
#108=EDGE_LOOP('',(#507,#508,#509,#510));
#109=EDGE_LOOP('',(#511,#512,#513,#514,#515,#516));
#110=EDGE_LOOP('',(#517,#518,#519,#520,#521,#522));
#111=EDGE_LOOP('',(#523));
#112=EDGE_LOOP('',(#524,#525,#526,#527));
#113=EDGE_LOOP('',(#528,#529,#530,#531,#532,#533,#534,#535,#536,#537));
#114=EDGE_LOOP('',(#538,#539));
#115=EDGE_LOOP('',(#540,#541,#542,#543,#544));
#116=EDGE_LOOP('',(#545,#546,#547,#548));
#117=EDGE_LOOP('',(#549,#550,#551,#552,#553));
#118=EDGE_LOOP('',(#554,#555,#556,#557,#558));
#119=EDGE_LOOP('',(#559,#560,#561,#562));
#120=EDGE_LOOP('',(#563,#564,#565,#566));
#121=EDGE_LOOP('',(#567,#568,#569,#570,#571,#572));
#122=EDGE_LOOP('',(#573,#574,#575,#576));
#123=EDGE_LOOP('',(#577,#578,#579,#580,#581));
#124=EDGE_LOOP('',(#582,#583,#584,#585,#586,#587));
#125=EDGE_LOOP('',(#588,#589,#590,#591,#592));
#126=LINE('',#862,#198);
#127=LINE('',#867,#199);
#128=LINE('',#870,#200);
#129=LINE('',#875,#201);
#130=LINE('',#880,#202);
#131=LINE('',#882,#203);
#132=LINE('',#884,#204);
#133=LINE('',#888,#205);
#134=LINE('',#890,#206);
#135=LINE('',#892,#207);
#136=LINE('',#894,#208);
#137=LINE('',#896,#209);
#138=LINE('',#897,#210);
#139=LINE('',#919,#211);
#140=LINE('',#940,#212);
#141=LINE('',#942,#213);
#142=LINE('',#943,#214);
#143=LINE('',#946,#215);
#144=LINE('',#947,#216);
#145=LINE('',#950,#217);
#146=LINE('',#952,#218);
#147=LINE('',#953,#219);
#148=LINE('',#956,#220);
#149=LINE('',#958,#221);
#150=LINE('',#959,#222);
#151=LINE('',#962,#223);
#152=LINE('',#964,#224);
#153=LINE('',#965,#225);
#154=LINE('',#968,#226);
#155=LINE('',#970,#227);
#156=LINE('',#971,#228);
#157=LINE('',#974,#229);
#158=LINE('',#976,#230);
#159=LINE('',#977,#231);
#160=LINE('',#979,#232);
#161=LINE('',#982,#233);
#162=LINE('',#987,#234);
#163=LINE('',#989,#235);
#164=LINE('',#991,#236);
#165=LINE('',#992,#237);
#166=LINE('',#996,#238);
#167=LINE('',#997,#239);
#168=LINE('',#999,#240);
#169=LINE('',#1000,#241);
#170=LINE('',#1004,#242);
#171=LINE('',#1005,#243);
#172=LINE('',#1006,#244);
#173=LINE('',#1008,#245);
#174=LINE('',#1010,#246);
#175=LINE('',#1011,#247);
#176=LINE('',#1014,#248);
#177=LINE('',#1016,#249);
#178=LINE('',#1017,#250);
#179=LINE('',#1020,#251);
#180=LINE('',#1023,#252);
#181=LINE('',#1026,#253);
#182=LINE('',#1027,#254);
#183=LINE('',#1030,#255);
#184=LINE('',#1031,#256);
#185=LINE('',#1035,#257);
#186=LINE('',#1067,#258);
#187=LINE('',#1069,#259);
#188=LINE('',#1070,#260);
#189=LINE('',#1072,#261);
#190=LINE('',#1074,#262);
#191=LINE('',#1077,#263);
#192=LINE('',#1078,#264);
#193=LINE('',#1081,#265);
#194=LINE('',#1082,#266);
#195=LINE('',#1085,#267);
#196=LINE('',#1087,#268);
#197=LINE('',#1089,#269);
#198=VECTOR('',#697,1.375);
#199=VECTOR('',#702,3.975);
#200=VECTOR('',#707,2.75);
#201=VECTOR('',#712,14.);
#202=VECTOR('',#717,10.);
#203=VECTOR('',#718,10.);
#204=VECTOR('',#719,10.);
#205=VECTOR('',#722,10.);
#206=VECTOR('',#723,10.);
#207=VECTOR('',#724,10.);
#208=VECTOR('',#725,10.);
#209=VECTOR('',#726,10.);
#210=VECTOR('',#727,10.);
#211=VECTOR('',#730,12.5);
#212=VECTOR('',#733,10.);
#213=VECTOR('',#734,10.);
#214=VECTOR('',#735,10.);
#215=VECTOR('',#738,10.);
#216=VECTOR('',#739,10.);
#217=VECTOR('',#742,10.);
#218=VECTOR('',#743,10.);
#219=VECTOR('',#744,10.);
#220=VECTOR('',#747,10.);
#221=VECTOR('',#748,10.);
#222=VECTOR('',#749,10.);
#223=VECTOR('',#752,10.);
#224=VECTOR('',#753,10.);
#225=VECTOR('',#754,10.);
#226=VECTOR('',#757,10.);
#227=VECTOR('',#758,10.);
#228=VECTOR('',#759,10.);
#229=VECTOR('',#762,10.);
#230=VECTOR('',#763,10.);
#231=VECTOR('',#764,10.);
#232=VECTOR('',#767,10.);
#233=VECTOR('',#770,10.);
#234=VECTOR('',#775,10.);
#235=VECTOR('',#776,10.);
#236=VECTOR('',#777,10.);
#237=VECTOR('',#778,10.);
#238=VECTOR('',#781,10.);
#239=VECTOR('',#782,10.);
#240=VECTOR('',#783,10.);
#241=VECTOR('',#784,10.);
#242=VECTOR('',#787,10.);
#243=VECTOR('',#788,10.);
#244=VECTOR('',#789,10.);
#245=VECTOR('',#792,10.);
#246=VECTOR('',#795,10.);
#247=VECTOR('',#796,10.);
#248=VECTOR('',#799,10.);
#249=VECTOR('',#800,10.);
#250=VECTOR('',#801,10.);
#251=VECTOR('',#804,10.);
#252=VECTOR('',#807,10.);
#253=VECTOR('',#810,10.);
#254=VECTOR('',#811,10.);
#255=VECTOR('',#814,10.);
#256=VECTOR('',#815,10.);
#257=VECTOR('',#818,10.);
#258=VECTOR('',#825,10.);
#259=VECTOR('',#826,10.);
#260=VECTOR('',#827,10.);
#261=VECTOR('',#830,10.);
#262=VECTOR('',#833,10.);
#263=VECTOR('',#836,10.);
#264=VECTOR('',#837,10.);
#265=VECTOR('',#840,10.);
#266=VECTOR('',#841,10.);
#267=VECTOR('',#846,10.);
#268=VECTOR('',#849,10.);
#269=VECTOR('',#852,10.);
#270=CIRCLE('',#646,2.75);
#271=CIRCLE('',#648,5.2);
#272=CIRCLE('',#649,2.75);
#273=CIRCLE('',#652,12.5);
#274=CIRCLE('',#653,15.5);
#275=CIRCLE('',#655,22.);
#276=CIRCLE('',#666,42.);
#277=CIRCLE('',#674,42.);
#278=CIRCLE('',#677,42.);
#279=CIRCLE('',#678,42.);
#280=CIRCLE('',#679,42.);
#281=VERTEX_POINT('',#859);
#282=VERTEX_POINT('',#861);
#283=VERTEX_POINT('',#864);
#284=VERTEX_POINT('',#866);
#285=VERTEX_POINT('',#872);
#286=VERTEX_POINT('',#874);
#287=VERTEX_POINT('',#878);
#288=VERTEX_POINT('',#879);
#289=VERTEX_POINT('',#881);
#290=VERTEX_POINT('',#883);
#291=VERTEX_POINT('',#885);
#292=VERTEX_POINT('',#887);
#293=VERTEX_POINT('',#889);
#294=VERTEX_POINT('',#891);
#295=VERTEX_POINT('',#893);
#296=VERTEX_POINT('',#895);
#297=VERTEX_POINT('',#899);
#298=VERTEX_POINT('',#900);
#299=VERTEX_POINT('',#939);
#300=VERTEX_POINT('',#941);
#301=VERTEX_POINT('',#945);
#302=VERTEX_POINT('',#949);
#303=VERTEX_POINT('',#951);
#304=VERTEX_POINT('',#955);
#305=VERTEX_POINT('',#957);
#306=VERTEX_POINT('',#961);
#307=VERTEX_POINT('',#963);
#308=VERTEX_POINT('',#967);
#309=VERTEX_POINT('',#969);
#310=VERTEX_POINT('',#973);
#311=VERTEX_POINT('',#975);
#312=VERTEX_POINT('',#981);
#313=VERTEX_POINT('',#985);
#314=VERTEX_POINT('',#986);
#315=VERTEX_POINT('',#988);
#316=VERTEX_POINT('',#990);
#317=VERTEX_POINT('',#994);
#318=VERTEX_POINT('',#995);
#319=VERTEX_POINT('',#998);
#320=VERTEX_POINT('',#1002);
#321=VERTEX_POINT('',#1003);
#322=VERTEX_POINT('',#1013);
#323=VERTEX_POINT('',#1015);
#324=VERTEX_POINT('',#1019);
#325=VERTEX_POINT('',#1021);
#326=VERTEX_POINT('',#1025);
#327=VERTEX_POINT('',#1029);
#328=VERTEX_POINT('',#1032);
#329=VERTEX_POINT('',#1034);
#330=VERTEX_POINT('',#1036);
#331=VERTEX_POINT('',#1038);
#332=VERTEX_POINT('',#1068);
#333=VERTEX_POINT('',#1076);
#334=VERTEX_POINT('',#1080);
#335=EDGE_CURVE('',#281,#281,#270,.T.);
#336=EDGE_CURVE('',#281,#282,#126,.T.);
#337=EDGE_CURVE('',#283,#283,#271,.T.);
#338=EDGE_CURVE('',#283,#284,#127,.T.);
#339=EDGE_CURVE('',#284,#284,#272,.T.);
#340=EDGE_CURVE('',#284,#281,#128,.T.);
#341=EDGE_CURVE('',#285,#285,#273,.T.);
#342=EDGE_CURVE('',#285,#286,#129,.T.);
#343=EDGE_CURVE('',#286,#286,#274,.T.);
#344=EDGE_CURVE('',#287,#288,#130,.T.);
#345=EDGE_CURVE('',#289,#287,#131,.T.);
#346=EDGE_CURVE('',#290,#289,#132,.T.);
#347=EDGE_CURVE('',#291,#290,#275,.T.);
#348=EDGE_CURVE('',#292,#291,#133,.T.);
#349=EDGE_CURVE('',#293,#292,#134,.T.);
#350=EDGE_CURVE('',#294,#293,#135,.T.);
#351=EDGE_CURVE('',#295,#294,#136,.T.);
#352=EDGE_CURVE('',#296,#295,#137,.T.);
#353=EDGE_CURVE('',#288,#296,#138,.T.);
#354=EDGE_CURVE('',#297,#298,#15,.T.);
#355=EDGE_CURVE('',#298,#285,#139,.T.);
#356=EDGE_CURVE('',#298,#297,#16,.T.);
#357=EDGE_CURVE('',#288,#299,#140,.T.);
#358=EDGE_CURVE('',#299,#300,#141,.T.);
#359=EDGE_CURVE('',#300,#287,#142,.T.);
#360=EDGE_CURVE('',#296,#301,#143,.T.);
#361=EDGE_CURVE('',#301,#299,#144,.T.);
#362=EDGE_CURVE('',#302,#287,#145,.T.);
#363=EDGE_CURVE('',#300,#303,#146,.T.);
#364=EDGE_CURVE('',#303,#302,#147,.T.);
#365=EDGE_CURVE('',#304,#302,#148,.T.);
#366=EDGE_CURVE('',#303,#305,#149,.T.);
#367=EDGE_CURVE('',#305,#304,#150,.T.);
#368=EDGE_CURVE('',#305,#306,#151,.T.);
#369=EDGE_CURVE('',#306,#307,#152,.T.);
#370=EDGE_CURVE('',#307,#304,#153,.T.);
#371=EDGE_CURVE('',#307,#308,#154,.T.);
#372=EDGE_CURVE('',#309,#308,#155,.T.);
#373=EDGE_CURVE('',#304,#309,#156,.T.);
#374=EDGE_CURVE('',#306,#310,#157,.T.);
#375=EDGE_CURVE('',#310,#311,#158,.T.);
#376=EDGE_CURVE('',#308,#311,#159,.T.);
#377=EDGE_CURVE('',#303,#310,#160,.T.);
#378=EDGE_CURVE('',#299,#312,#161,.T.);
#379=EDGE_CURVE('',#312,#311,#276,.T.);
#380=EDGE_CURVE('',#313,#314,#162,.T.);
#381=EDGE_CURVE('',#314,#315,#163,.T.);
#382=EDGE_CURVE('',#315,#316,#164,.T.);
#383=EDGE_CURVE('',#316,#313,#165,.T.);
#384=EDGE_CURVE('',#317,#318,#166,.T.);
#385=EDGE_CURVE('',#318,#293,#167,.T.);
#386=EDGE_CURVE('',#293,#319,#168,.T.);
#387=EDGE_CURVE('',#319,#317,#169,.T.);
#388=EDGE_CURVE('',#320,#321,#170,.T.);
#389=EDGE_CURVE('',#321,#295,#171,.T.);
#390=EDGE_CURVE('',#294,#320,#172,.T.);
#391=EDGE_CURVE('',#318,#320,#173,.T.);
#392=EDGE_CURVE('',#316,#317,#174,.T.);
#393=EDGE_CURVE('',#319,#313,#175,.T.);
#394=EDGE_CURVE('',#292,#322,#176,.T.);
#395=EDGE_CURVE('',#323,#322,#177,.T.);
#396=EDGE_CURVE('',#313,#323,#178,.T.);
#397=EDGE_CURVE('',#321,#324,#179,.T.);
#398=EDGE_CURVE('',#324,#325,#277,.T.);
#399=EDGE_CURVE('',#301,#325,#180,.T.);
#400=EDGE_CURVE('',#320,#326,#181,.T.);
#401=EDGE_CURVE('',#326,#324,#182,.T.);
#402=EDGE_CURVE('',#311,#327,#183,.T.);
#403=EDGE_CURVE('',#325,#312,#184,.T.);
#404=EDGE_CURVE('',#328,#326,#278,.T.);
#405=EDGE_CURVE('',#329,#328,#185,.T.);
#406=EDGE_CURVE('',#330,#329,#279,.T.);
#407=EDGE_CURVE('',#331,#330,#17,.T.);
#408=EDGE_CURVE('',#327,#331,#280,.T.);
#409=EDGE_CURVE('',#290,#331,#186,.T.);
#410=EDGE_CURVE('',#289,#332,#187,.T.);
#411=EDGE_CURVE('',#327,#332,#188,.T.);
#412=EDGE_CURVE('',#291,#330,#189,.T.);
#413=EDGE_CURVE('',#322,#329,#190,.T.);
#414=EDGE_CURVE('',#328,#333,#191,.T.);
#415=EDGE_CURVE('',#333,#323,#192,.T.);
#416=EDGE_CURVE('',#334,#315,#193,.T.);
#417=EDGE_CURVE('',#317,#334,#194,.T.);
#418=EDGE_CURVE('',#332,#309,#195,.T.);
#419=EDGE_CURVE('',#314,#333,#196,.T.);
#420=EDGE_CURVE('',#334,#328,#197,.T.);
#421=ORIENTED_EDGE('',*,*,#335,.F.);
#422=ORIENTED_EDGE('',*,*,#336,.T.);
#423=ORIENTED_EDGE('',*,*,#336,.F.);
#424=ORIENTED_EDGE('',*,*,#337,.F.);
#425=ORIENTED_EDGE('',*,*,#338,.T.);
#426=ORIENTED_EDGE('',*,*,#339,.T.);
#427=ORIENTED_EDGE('',*,*,#338,.F.);
#428=ORIENTED_EDGE('',*,*,#339,.F.);
#429=ORIENTED_EDGE('',*,*,#340,.T.);
#430=ORIENTED_EDGE('',*,*,#335,.T.);
#431=ORIENTED_EDGE('',*,*,#340,.F.);
#432=ORIENTED_EDGE('',*,*,#341,.T.);
#433=ORIENTED_EDGE('',*,*,#342,.T.);
#434=ORIENTED_EDGE('',*,*,#343,.T.);
#435=ORIENTED_EDGE('',*,*,#342,.F.);
#436=ORIENTED_EDGE('',*,*,#344,.F.);
#437=ORIENTED_EDGE('',*,*,#345,.F.);
#438=ORIENTED_EDGE('',*,*,#346,.F.);
#439=ORIENTED_EDGE('',*,*,#347,.F.);
#440=ORIENTED_EDGE('',*,*,#348,.F.);
#441=ORIENTED_EDGE('',*,*,#349,.F.);
#442=ORIENTED_EDGE('',*,*,#350,.F.);
#443=ORIENTED_EDGE('',*,*,#351,.F.);
#444=ORIENTED_EDGE('',*,*,#352,.F.);
#445=ORIENTED_EDGE('',*,*,#353,.F.);
#446=ORIENTED_EDGE('',*,*,#343,.F.);
#447=ORIENTED_EDGE('',*,*,#354,.T.);
#448=ORIENTED_EDGE('',*,*,#355,.T.);
#449=ORIENTED_EDGE('',*,*,#341,.F.);
#450=ORIENTED_EDGE('',*,*,#355,.F.);
#451=ORIENTED_EDGE('',*,*,#356,.T.);
#452=ORIENTED_EDGE('',*,*,#344,.T.);
#453=ORIENTED_EDGE('',*,*,#357,.T.);
#454=ORIENTED_EDGE('',*,*,#358,.T.);
#455=ORIENTED_EDGE('',*,*,#359,.T.);
#456=ORIENTED_EDGE('',*,*,#353,.T.);
#457=ORIENTED_EDGE('',*,*,#360,.T.);
#458=ORIENTED_EDGE('',*,*,#361,.T.);
#459=ORIENTED_EDGE('',*,*,#357,.F.);
#460=ORIENTED_EDGE('',*,*,#362,.T.);
#461=ORIENTED_EDGE('',*,*,#359,.F.);
#462=ORIENTED_EDGE('',*,*,#363,.T.);
#463=ORIENTED_EDGE('',*,*,#364,.T.);
#464=ORIENTED_EDGE('',*,*,#365,.T.);
#465=ORIENTED_EDGE('',*,*,#364,.F.);
#466=ORIENTED_EDGE('',*,*,#366,.T.);
#467=ORIENTED_EDGE('',*,*,#367,.T.);
#468=ORIENTED_EDGE('',*,*,#368,.T.);
#469=ORIENTED_EDGE('',*,*,#369,.T.);
#470=ORIENTED_EDGE('',*,*,#370,.T.);
#471=ORIENTED_EDGE('',*,*,#367,.F.);
#472=ORIENTED_EDGE('',*,*,#370,.F.);
#473=ORIENTED_EDGE('',*,*,#371,.T.);
#474=ORIENTED_EDGE('',*,*,#372,.F.);
#475=ORIENTED_EDGE('',*,*,#373,.F.);
#476=ORIENTED_EDGE('',*,*,#369,.F.);
#477=ORIENTED_EDGE('',*,*,#374,.T.);
#478=ORIENTED_EDGE('',*,*,#375,.T.);
#479=ORIENTED_EDGE('',*,*,#376,.F.);
#480=ORIENTED_EDGE('',*,*,#371,.F.);
#481=ORIENTED_EDGE('',*,*,#368,.F.);
#482=ORIENTED_EDGE('',*,*,#366,.F.);
#483=ORIENTED_EDGE('',*,*,#377,.T.);
#484=ORIENTED_EDGE('',*,*,#374,.F.);
#485=ORIENTED_EDGE('',*,*,#363,.F.);
#486=ORIENTED_EDGE('',*,*,#358,.F.);
#487=ORIENTED_EDGE('',*,*,#378,.T.);
#488=ORIENTED_EDGE('',*,*,#379,.T.);
#489=ORIENTED_EDGE('',*,*,#375,.F.);
#490=ORIENTED_EDGE('',*,*,#377,.F.);
#491=ORIENTED_EDGE('',*,*,#380,.T.);
#492=ORIENTED_EDGE('',*,*,#381,.T.);
#493=ORIENTED_EDGE('',*,*,#382,.T.);
#494=ORIENTED_EDGE('',*,*,#383,.T.);
#495=ORIENTED_EDGE('',*,*,#384,.T.);
#496=ORIENTED_EDGE('',*,*,#385,.T.);
#497=ORIENTED_EDGE('',*,*,#386,.T.);
#498=ORIENTED_EDGE('',*,*,#387,.T.);
#499=ORIENTED_EDGE('',*,*,#388,.T.);
#500=ORIENTED_EDGE('',*,*,#389,.T.);
#501=ORIENTED_EDGE('',*,*,#351,.T.);
#502=ORIENTED_EDGE('',*,*,#390,.T.);
#503=ORIENTED_EDGE('',*,*,#391,.T.);
#504=ORIENTED_EDGE('',*,*,#390,.F.);
#505=ORIENTED_EDGE('',*,*,#350,.T.);
#506=ORIENTED_EDGE('',*,*,#385,.F.);
#507=ORIENTED_EDGE('',*,*,#392,.T.);
#508=ORIENTED_EDGE('',*,*,#387,.F.);
#509=ORIENTED_EDGE('',*,*,#393,.T.);
#510=ORIENTED_EDGE('',*,*,#383,.F.);
#511=ORIENTED_EDGE('',*,*,#393,.F.);
#512=ORIENTED_EDGE('',*,*,#386,.F.);
#513=ORIENTED_EDGE('',*,*,#349,.T.);
#514=ORIENTED_EDGE('',*,*,#394,.T.);
#515=ORIENTED_EDGE('',*,*,#395,.F.);
#516=ORIENTED_EDGE('',*,*,#396,.F.);
#517=ORIENTED_EDGE('',*,*,#360,.F.);
#518=ORIENTED_EDGE('',*,*,#352,.T.);
#519=ORIENTED_EDGE('',*,*,#389,.F.);
#520=ORIENTED_EDGE('',*,*,#397,.T.);
#521=ORIENTED_EDGE('',*,*,#398,.T.);
#522=ORIENTED_EDGE('',*,*,#399,.F.);
#523=ORIENTED_EDGE('',*,*,#337,.T.);
#524=ORIENTED_EDGE('',*,*,#388,.F.);
#525=ORIENTED_EDGE('',*,*,#400,.T.);
#526=ORIENTED_EDGE('',*,*,#401,.T.);
#527=ORIENTED_EDGE('',*,*,#397,.F.);
#528=ORIENTED_EDGE('',*,*,#402,.F.);
#529=ORIENTED_EDGE('',*,*,#379,.F.);
#530=ORIENTED_EDGE('',*,*,#403,.F.);
#531=ORIENTED_EDGE('',*,*,#398,.F.);
#532=ORIENTED_EDGE('',*,*,#401,.F.);
#533=ORIENTED_EDGE('',*,*,#404,.F.);
#534=ORIENTED_EDGE('',*,*,#405,.F.);
#535=ORIENTED_EDGE('',*,*,#406,.F.);
#536=ORIENTED_EDGE('',*,*,#407,.F.);
#537=ORIENTED_EDGE('',*,*,#408,.F.);
#538=ORIENTED_EDGE('',*,*,#356,.F.);
#539=ORIENTED_EDGE('',*,*,#354,.F.);
#540=ORIENTED_EDGE('',*,*,#408,.T.);
#541=ORIENTED_EDGE('',*,*,#409,.F.);
#542=ORIENTED_EDGE('',*,*,#346,.T.);
#543=ORIENTED_EDGE('',*,*,#410,.T.);
#544=ORIENTED_EDGE('',*,*,#411,.F.);
#545=ORIENTED_EDGE('',*,*,#407,.T.);
#546=ORIENTED_EDGE('',*,*,#412,.F.);
#547=ORIENTED_EDGE('',*,*,#347,.T.);
#548=ORIENTED_EDGE('',*,*,#409,.T.);
#549=ORIENTED_EDGE('',*,*,#406,.T.);
#550=ORIENTED_EDGE('',*,*,#413,.F.);
#551=ORIENTED_EDGE('',*,*,#394,.F.);
#552=ORIENTED_EDGE('',*,*,#348,.T.);
#553=ORIENTED_EDGE('',*,*,#412,.T.);
#554=ORIENTED_EDGE('',*,*,#405,.T.);
#555=ORIENTED_EDGE('',*,*,#414,.T.);
#556=ORIENTED_EDGE('',*,*,#415,.T.);
#557=ORIENTED_EDGE('',*,*,#395,.T.);
#558=ORIENTED_EDGE('',*,*,#413,.T.);
#559=ORIENTED_EDGE('',*,*,#382,.F.);
#560=ORIENTED_EDGE('',*,*,#416,.F.);
#561=ORIENTED_EDGE('',*,*,#417,.F.);
#562=ORIENTED_EDGE('',*,*,#392,.F.);
#563=ORIENTED_EDGE('',*,*,#361,.F.);
#564=ORIENTED_EDGE('',*,*,#399,.T.);
#565=ORIENTED_EDGE('',*,*,#403,.T.);
#566=ORIENTED_EDGE('',*,*,#378,.F.);
#567=ORIENTED_EDGE('',*,*,#365,.F.);
#568=ORIENTED_EDGE('',*,*,#373,.T.);
#569=ORIENTED_EDGE('',*,*,#418,.F.);
#570=ORIENTED_EDGE('',*,*,#410,.F.);
#571=ORIENTED_EDGE('',*,*,#345,.T.);
#572=ORIENTED_EDGE('',*,*,#362,.F.);
#573=ORIENTED_EDGE('',*,*,#380,.F.);
#574=ORIENTED_EDGE('',*,*,#396,.T.);
#575=ORIENTED_EDGE('',*,*,#415,.F.);
#576=ORIENTED_EDGE('',*,*,#419,.F.);
#577=ORIENTED_EDGE('',*,*,#381,.F.);
#578=ORIENTED_EDGE('',*,*,#419,.T.);
#579=ORIENTED_EDGE('',*,*,#414,.F.);
#580=ORIENTED_EDGE('',*,*,#420,.F.);
#581=ORIENTED_EDGE('',*,*,#416,.T.);
#582=ORIENTED_EDGE('',*,*,#384,.F.);
#583=ORIENTED_EDGE('',*,*,#417,.T.);
#584=ORIENTED_EDGE('',*,*,#420,.T.);
#585=ORIENTED_EDGE('',*,*,#404,.T.);
#586=ORIENTED_EDGE('',*,*,#400,.F.);
#587=ORIENTED_EDGE('',*,*,#391,.F.);
#588=ORIENTED_EDGE('',*,*,#402,.T.);
#589=ORIENTED_EDGE('',*,*,#411,.T.);
#590=ORIENTED_EDGE('',*,*,#418,.T.);
#591=ORIENTED_EDGE('',*,*,#372,.T.);
#592=ORIENTED_EDGE('',*,*,#376,.T.);
#593=CONICAL_SURFACE('',#645,1.375,1.02974425867665);
#594=CONICAL_SURFACE('',#647,3.975,0.785398163397448);
#595=CONICAL_SURFACE('',#651,14.,0.785398163397448);
#596=ADVANCED_FACE('',(#53),#593,.F.);
#597=ADVANCED_FACE('',(#54),#594,.F.);
#598=ADVANCED_FACE('',(#55),#49,.F.);
#599=ADVANCED_FACE('',(#56),#595,.F.);
#600=ADVANCED_FACE('',(#57,#18),#21,.F.);
#601=ADVANCED_FACE('',(#58),#50,.F.);
#602=ADVANCED_FACE('',(#59),#22,.T.);
#603=ADVANCED_FACE('',(#60),#23,.T.);
#604=ADVANCED_FACE('',(#61),#24,.T.);
#605=ADVANCED_FACE('',(#62),#25,.T.);
#606=ADVANCED_FACE('',(#63),#26,.T.);
#607=ADVANCED_FACE('',(#64),#27,.T.);
#608=ADVANCED_FACE('',(#65),#28,.T.);
#609=ADVANCED_FACE('',(#66),#29,.T.);
#610=ADVANCED_FACE('',(#67),#30,.T.);
#611=ADVANCED_FACE('',(#68),#31,.T.);
#612=ADVANCED_FACE('',(#69),#32,.T.);
#613=ADVANCED_FACE('',(#70),#33,.T.);
#614=ADVANCED_FACE('',(#71),#34,.T.);
#615=ADVANCED_FACE('',(#72),#35,.T.);
#616=ADVANCED_FACE('',(#73),#36,.T.);
#617=ADVANCED_FACE('',(#74,#19),#37,.T.);
#618=ADVANCED_FACE('',(#75),#38,.T.);
#619=ADVANCED_FACE('',(#76,#20),#51,.F.);
#620=ADVANCED_FACE('',(#77),#39,.T.);
#621=ADVANCED_FACE('',(#78),#52,.T.);
#622=ADVANCED_FACE('',(#79),#40,.T.);
#623=ADVANCED_FACE('',(#80),#41,.T.);
#624=ADVANCED_FACE('',(#81),#42,.F.);
#625=ADVANCED_FACE('',(#82),#43,.T.);
#626=ADVANCED_FACE('',(#83),#44,.T.);
#627=ADVANCED_FACE('',(#84),#45,.T.);
#628=ADVANCED_FACE('',(#85),#46,.T.);
#629=ADVANCED_FACE('',(#86),#47,.T.);
#630=ADVANCED_FACE('',(#87),#48,.T.);
#631=CLOSED_SHELL('',(#596,#597,#598,#599,#600,#601,#602,#603,#604,#605,
#606,#607,#608,#609,#610,#611,#612,#613,#614,#615,#616,#617,#618,#619,#620,
#621,#622,#623,#624,#625,#626,#627,#628,#629,#630));
#632=DERIVED_UNIT_ELEMENT(#634,1.);
#633=DERIVED_UNIT_ELEMENT(#1097,-3.);
#634=(
MASS_UNIT()
NAMED_UNIT(*)
SI_UNIT(.KILO.,.GRAM.)
);
#635=DERIVED_UNIT((#632,#633));
#636=MEASURE_REPRESENTATION_ITEM('density measure',
POSITIVE_RATIO_MEASURE(7850.),#635);
#637=PROPERTY_DEFINITION_REPRESENTATION(#642,#639);
#638=PROPERTY_DEFINITION_REPRESENTATION(#643,#640);
#639=REPRESENTATION('material name',(#641),#1094);
#640=REPRESENTATION('density',(#636),#1094);
#641=DESCRIPTIVE_REPRESENTATION_ITEM('Steel','Steel');
#642=PROPERTY_DEFINITION('material property','material name',#1104);
#643=PROPERTY_DEFINITION('material property','density of part',#1104);
#644=AXIS2_PLACEMENT_3D('',#857,#691,#692);
#645=AXIS2_PLACEMENT_3D('',#858,#693,#694);
#646=AXIS2_PLACEMENT_3D('',#860,#695,#696);
#647=AXIS2_PLACEMENT_3D('',#863,#698,#699);
#648=AXIS2_PLACEMENT_3D('',#865,#700,#701);
#649=AXIS2_PLACEMENT_3D('',#868,#703,#704);
#650=AXIS2_PLACEMENT_3D('',#869,#705,#706);
#651=AXIS2_PLACEMENT_3D('',#871,#708,#709);
#652=AXIS2_PLACEMENT_3D('',#873,#710,#711);
#653=AXIS2_PLACEMENT_3D('',#876,#713,#714);
#654=AXIS2_PLACEMENT_3D('',#877,#715,#716);
#655=AXIS2_PLACEMENT_3D('',#886,#720,#721);
#656=AXIS2_PLACEMENT_3D('',#898,#728,#729);
#657=AXIS2_PLACEMENT_3D('',#938,#731,#732);
#658=AXIS2_PLACEMENT_3D('',#944,#736,#737);
#659=AXIS2_PLACEMENT_3D('',#948,#740,#741);
#660=AXIS2_PLACEMENT_3D('',#954,#745,#746);
#661=AXIS2_PLACEMENT_3D('',#960,#750,#751);
#662=AXIS2_PLACEMENT_3D('',#966,#755,#756);
#663=AXIS2_PLACEMENT_3D('',#972,#760,#761);
#664=AXIS2_PLACEMENT_3D('',#978,#765,#766);
#665=AXIS2_PLACEMENT_3D('',#980,#768,#769);
#666=AXIS2_PLACEMENT_3D('',#983,#771,#772);
#667=AXIS2_PLACEMENT_3D('',#984,#773,#774);
#668=AXIS2_PLACEMENT_3D('',#993,#779,#780);
#669=AXIS2_PLACEMENT_3D('',#1001,#785,#786);
#670=AXIS2_PLACEMENT_3D('',#1007,#790,#791);
#671=AXIS2_PLACEMENT_3D('',#1009,#793,#794);
#672=AXIS2_PLACEMENT_3D('',#1012,#797,#798);
#673=AXIS2_PLACEMENT_3D('',#1018,#802,#803);
#674=AXIS2_PLACEMENT_3D('',#1022,#805,#806);
#675=AXIS2_PLACEMENT_3D('',#1024,#808,#809);
#676=AXIS2_PLACEMENT_3D('',#1028,#812,#813);
#677=AXIS2_PLACEMENT_3D('',#1033,#816,#817);
#678=AXIS2_PLACEMENT_3D('',#1037,#819,#820);
#679=AXIS2_PLACEMENT_3D('',#1065,#821,#822);
#680=AXIS2_PLACEMENT_3D('',#1066,#823,#824);
#681=AXIS2_PLACEMENT_3D('',#1071,#828,#829);
#682=AXIS2_PLACEMENT_3D('',#1073,#831,#832);
#683=AXIS2_PLACEMENT_3D('',#1075,#834,#835);
#684=AXIS2_PLACEMENT_3D('',#1079,#838,#839);
#685=AXIS2_PLACEMENT_3D('',#1083,#842,#843);
#686=AXIS2_PLACEMENT_3D('',#1084,#844,#845);
#687=AXIS2_PLACEMENT_3D('',#1086,#847,#848);
#688=AXIS2_PLACEMENT_3D('',#1088,#850,#851);
#689=AXIS2_PLACEMENT_3D('',#1090,#853,#854);
#690=AXIS2_PLACEMENT_3D('',#1091,#855,#856);
#691=DIRECTION('axis',(0.,0.,1.));
#692=DIRECTION('refdir',(1.,0.,0.));
#693=DIRECTION('center_axis',(0.,0.,1.));
#694=DIRECTION('ref_axis',(1.,0.,0.));
#695=DIRECTION('center_axis',(0.,0.,-1.));
#696=DIRECTION('ref_axis',(1.,0.,0.));
#697=DIRECTION('',(0.857167300702112,-1.04972719113862E-16,-0.515038074910054));
#698=DIRECTION('center_axis',(0.,0.,1.));
#699=DIRECTION('ref_axis',(1.,0.,0.));
#700=DIRECTION('center_axis',(0.,0.,-1.));
#701=DIRECTION('ref_axis',(1.,0.,0.));
#702=DIRECTION('',(0.707106781186548,-8.65956056235493E-17,-0.707106781186548));
#703=DIRECTION('center_axis',(0.,0.,-1.));
#704=DIRECTION('ref_axis',(1.,0.,0.));
#705=DIRECTION('center_axis',(0.,0.,-1.));
#706=DIRECTION('ref_axis',(1.,0.,0.));
#707=DIRECTION('',(0.,0.,-1.));
#708=DIRECTION('center_axis',(0.,-1.,0.));
#709=DIRECTION('ref_axis',(1.,0.,0.));
#710=DIRECTION('center_axis',(0.,1.,0.));
#711=DIRECTION('ref_axis',(1.,0.,0.));
#712=DIRECTION('',(-0.707106781186548,-0.707106781186548,8.65956056235493E-17));
#713=DIRECTION('center_axis',(0.,-1.,0.));
#714=DIRECTION('ref_axis',(1.,0.,0.));
#715=DIRECTION('center_axis',(0.,1.,0.));
#716=DIRECTION('ref_axis',(1.,0.,0.));
#717=DIRECTION('',(1.,0.,1.23358113847239E-16));
#718=DIRECTION('',(0.,0.,1.));
#719=DIRECTION('',(-1.,0.,2.57624507020363E-16));
#720=DIRECTION('center_axis',(0.,1.,0.));
#721=DIRECTION('ref_axis',(0.890723542830247,0.,-0.454545454545454));
#722=DIRECTION('',(-1.,0.,2.81044916749487E-16));
#723=DIRECTION('',(-5.92118946466749E-16,0.,-1.));
#724=DIRECTION('',(1.,0.,-1.72701359386135E-15));
#725=DIRECTION('',(-1.26882631385732E-15,0.,-1.));
#726=DIRECTION('',(1.,0.,0.));
#727=DIRECTION('',(-7.40148683083437E-16,0.,1.));
#728=DIRECTION('center_axis',(0.,1.,0.));
#729=DIRECTION('ref_axis',(1.,0.,0.));
#730=DIRECTION('',(0.,-1.,0.));
#731=DIRECTION('center_axis',(-8.72273588157649E-17,-0.707106781186548,
0.707106781186548));
#732=DIRECTION('ref_axis',(1.,0.,1.23358113847239E-16));
#733=DIRECTION('',(-0.577350269189626,0.577350269189626,0.577350269189626));
#734=DIRECTION('',(-1.,0.,-1.23358113847239E-16));
#735=DIRECTION('',(-0.577350269189626,-0.577350269189626,-0.577350269189626));
#736=DIRECTION('center_axis',(-0.707106781186548,-0.707106781186547,-5.23364152894591E-16));
#737=DIRECTION('ref_axis',(-7.40148683083437E-16,0.,1.));
#738=DIRECTION('',(-0.707106781186547,0.707106781186548,0.));
#739=DIRECTION('',(7.40148683083437E-16,0.,-1.));
#740=DIRECTION('center_axis',(-0.707106781186548,0.,0.707106781186547));
#741=DIRECTION('ref_axis',(0.707106781186547,0.,0.707106781186548));
#742=DIRECTION('',(0.,-1.,0.));
#743=DIRECTION('',(0.,1.,0.));
#744=DIRECTION('',(-0.577350269189623,0.577350269189623,-0.577350269189632));
#745=DIRECTION('center_axis',(-0.707106781186548,-0.707106781186548,0.));
#746=DIRECTION('ref_axis',(0.,0.,1.));
#747=DIRECTION('',(0.,0.,-1.));
#748=DIRECTION('',(0.,0.,1.));
#749=DIRECTION('',(-0.577350269189626,0.577350269189626,0.577350269189626));
#750=DIRECTION('center_axis',(-4.48597845338222E-16,-0.707106781186547,
0.707106781186548));
#751=DIRECTION('ref_axis',(1.,0.,6.34413156928661E-16));
#752=DIRECTION('',(1.,0.,6.34413156928661E-16));
#753=DIRECTION('',(-5.23364152894589E-16,0.707106781186548,0.707106781186547));
#754=DIRECTION('',(-1.,0.,-6.34413156928661E-16));
#755=DIRECTION('center_axis',(-6.34413156928661E-16,0.,1.));
#756=DIRECTION('ref_axis',(1.,0.,6.34413156928661E-16));
#757=DIRECTION('',(0.,1.,0.));
#758=DIRECTION('',(1.,0.,6.34413156928661E-16));
#759=DIRECTION('',(0.,1.,0.));
#760=DIRECTION('center_axis',(1.,0.,7.40148683083434E-16));
#761=DIRECTION('ref_axis',(7.40148683083434E-16,0.,-1.));
#762=DIRECTION('',(7.40148683083434E-16,0.,-1.));
#763=DIRECTION('',(0.,1.,0.));
#764=DIRECTION('',(7.40148683083434E-16,0.,-1.));
#765=DIRECTION('center_axis',(0.,-1.,0.));
#766=DIRECTION('ref_axis',(0.,0.,1.));
#767=DIRECTION('',(1.,0.,0.));
#768=DIRECTION('center_axis',(-1.23358113847239E-16,0.,1.));
#769=DIRECTION('ref_axis',(1.,0.,1.23358113847239E-16));
#770=DIRECTION('',(0.,1.,0.));
#771=DIRECTION('center_axis',(1.23358113847239E-16,0.,-1.));
#772=DIRECTION('ref_axis',(1.,0.,0.));
#773=DIRECTION('center_axis',(1.79439138135289E-16,-0.707106781186548,0.707106781186548));
#774=DIRECTION('ref_axis',(1.,0.,-2.53765262771464E-16));
#775=DIRECTION('',(-1.,0.,2.53765262771464E-16));
#776=DIRECTION('',(-7.85046229341886E-16,-0.707106781186548,-0.707106781186548));
#777=DIRECTION('',(1.,0.,-2.53765262771464E-16));
#778=DIRECTION('',(0.577350269189626,0.577350269189625,0.577350269189626));
#779=DIRECTION('center_axis',(0.707106781186548,0.,0.707106781186547));
#780=DIRECTION('ref_axis',(0.707106781186547,0.,-0.707106781186548));
#781=DIRECTION('',(0.,-1.,0.));
#782=DIRECTION('',(0.577350269189626,-0.577350269189625,-0.577350269189626));
#783=DIRECTION('',(0.,1.,0.));
#784=DIRECTION('',(-0.577350269189621,-0.57735026918962,0.577350269189636));
#785=DIRECTION('center_axis',(0.707106781186547,-0.707106781186548,-8.97195690676442E-16));
#786=DIRECTION('ref_axis',(-1.26882631385732E-15,0.,-1.));
#787=DIRECTION('',(1.26882631385732E-15,0.,1.));
#788=DIRECTION('',(-0.707106781186548,-0.707106781186547,0.));
#789=DIRECTION('',(0.577350269189627,0.577350269189626,0.577350269189625));
#790=DIRECTION('center_axis',(1.22118302342071E-15,-0.707106781186548,0.707106781186548));
#791=DIRECTION('ref_axis',(1.,0.,-1.72701359386135E-15));
#792=DIRECTION('',(-1.,0.,1.72701359386135E-15));
#793=DIRECTION('center_axis',(0.707106781186547,-0.707106781186548,-4.18691322315672E-16));
#794=DIRECTION('ref_axis',(-5.92118946466749E-16,0.,-1.));
#795=DIRECTION('',(-5.92118946466749E-16,0.,-1.));
#796=DIRECTION('',(5.92118946466749E-16,0.,1.));
#797=DIRECTION('center_axis',(1.,0.,-5.92118946466749E-16));
#798=DIRECTION('ref_axis',(-5.92118946466749E-16,0.,-1.));
#799=DIRECTION('',(0.,1.,0.));
#800=DIRECTION('',(-5.92118946466749E-16,0.,-1.));
#801=DIRECTION('',(0.,1.,0.));
#802=DIRECTION('center_axis',(0.,0.,1.));
#803=DIRECTION('ref_axis',(1.,0.,0.));
#804=DIRECTION('',(0.,1.,0.));
#805=DIRECTION('center_axis',(0.,0.,-1.));
#806=DIRECTION('ref_axis',(1.,0.,0.));
#807=DIRECTION('',(0.,1.,0.));
#808=DIRECTION('center_axis',(1.,0.,-1.26882631385732E-15));
#809=DIRECTION('ref_axis',(-1.26882631385732E-15,0.,-1.));
#810=DIRECTION('',(0.,1.,0.));
#811=DIRECTION('',(0.,0.,1.));
#812=DIRECTION('center_axis',(0.,0.,1.));
#813=DIRECTION('ref_axis',(1.,0.,0.));
#814=DIRECTION('',(0.,0.,-1.));
#815=DIRECTION('',(0.,0.,-1.));
#816=DIRECTION('center_axis',(-1.72701359386135E-15,0.,-1.));
#817=DIRECTION('ref_axis',(1.,0.,0.));
#818=DIRECTION('',(0.,0.,1.));
#819=DIRECTION('center_axis',(2.81044916749487E-16,0.,1.));
#820=DIRECTION('ref_axis',(1.,0.,0.));
#821=DIRECTION('center_axis',(2.57624507020363E-16,0.,1.));
#822=DIRECTION('ref_axis',(1.,0.,0.));
#823=DIRECTION('center_axis',(-2.57624507020363E-16,0.,-1.));
#824=DIRECTION('ref_axis',(-1.,0.,2.57624507020363E-16));
#825=DIRECTION('',(0.,1.,0.));
#826=DIRECTION('',(0.,1.,0.));
#827=DIRECTION('',(-1.,0.,2.57624507020363E-16));
#828=DIRECTION('center_axis',(0.,1.,0.));
#829=DIRECTION('ref_axis',(0.890723542830247,0.,-0.454545454545454));
#830=DIRECTION('',(0.,1.,0.));
#831=DIRECTION('center_axis',(-2.81044916749487E-16,0.,-1.));
#832=DIRECTION('ref_axis',(-1.,0.,2.81044916749487E-16));
#833=DIRECTION('',(-1.,0.,2.81044916749487E-16));
#834=DIRECTION('center_axis',(0.,1.,0.));
#835=DIRECTION('ref_axis',(1.,0.,0.));
#836=DIRECTION('',(1.11022302462515E-15,0.,1.));
#837=DIRECTION('',(1.,0.,-2.53765262771464E-16));
#838=DIRECTION('center_axis',(0.,1.,0.));
#839=DIRECTION('ref_axis',(0.,0.,1.));
#840=DIRECTION('',(1.11022302462515E-15,0.,1.));
#841=DIRECTION('',(-1.,0.,0.));
#842=DIRECTION('center_axis',(-1.,0.,-7.40148683083437E-16));
#843=DIRECTION('ref_axis',(-7.40148683083437E-16,0.,1.));
#844=DIRECTION('center_axis',(-1.,0.,0.));
#845=DIRECTION('ref_axis',(0.,0.,1.));
#846=DIRECTION('',(0.,0.,1.));
#847=DIRECTION('center_axis',(2.53765262771464E-16,0.,1.));
#848=DIRECTION('ref_axis',(1.,0.,-2.53765262771464E-16));
#849=DIRECTION('',(0.,1.,0.));
#850=DIRECTION('center_axis',(-1.,0.,1.11022302462515E-15));
#851=DIRECTION('ref_axis',(1.11022302462515E-15,0.,1.));
#852=DIRECTION('',(0.,1.,0.));
#853=DIRECTION('center_axis',(1.72701359386135E-15,0.,1.));
#854=DIRECTION('ref_axis',(1.,0.,-1.72701359386135E-15));
#855=DIRECTION('center_axis',(0.,1.,0.));
#856=DIRECTION('ref_axis',(1.,0.,0.));
#857=CARTESIAN_POINT('',(0.,0.,0.));
#858=CARTESIAN_POINT('Origin',(1.08801856413265E-14,14.,25.3738166488372));
#859=CARTESIAN_POINT('',(-2.74999999999999,14.,26.2));
#860=CARTESIAN_POINT('Origin',(1.08801856413265E-14,14.,26.2));
#861=CARTESIAN_POINT('',(1.08801856413265E-14,14.,24.5476332976743));
#862=CARTESIAN_POINT('',(-1.37499999999999,14.,25.3738166488372));
#863=CARTESIAN_POINT('Origin',(1.08801856413265E-14,14.,48.7750000000001));
#864=CARTESIAN_POINT('',(-5.19999999999999,14.,50.0000000000001));
#865=CARTESIAN_POINT('Origin',(1.08801856413265E-14,14.,50.0000000000001));
#866=CARTESIAN_POINT('',(-2.74999999999999,14.,47.5500000000001));
#867=CARTESIAN_POINT('',(-3.97499999999999,14.,48.7750000000001));
#868=CARTESIAN_POINT('Origin',(1.08801856413265E-14,14.,47.5500000000001));
#869=CARTESIAN_POINT('Origin',(1.08801856413265E-14,14.,38.1000000000001));
#870=CARTESIAN_POINT('',(-2.74999999999999,14.,38.1000000000001));
#871=CARTESIAN_POINT('Origin',(0.,1.5,0.));
#872=CARTESIAN_POINT('',(-12.5,3.,1.53080849893419E-15));
#873=CARTESIAN_POINT('Origin',(0.,3.,0.));
#874=CARTESIAN_POINT('',(-15.5,0.,-1.8982025386784E-15));
#875=CARTESIAN_POINT('',(-14.,1.5,1.71450551880629E-15));
#876=CARTESIAN_POINT('Origin',(0.,0.,0.));
#877=CARTESIAN_POINT('Origin',(0.,0.,14.));
#878=CARTESIAN_POINT('',(-67.,0.,5.));
#879=CARTESIAN_POINT('',(-20.,0.,5.));
#880=CARTESIAN_POINT('',(-16.,0.,5.));
#881=CARTESIAN_POINT('',(-67.,0.,-9.99999999999996));
#882=CARTESIAN_POINT('',(-67.,0.,-9.99999999999996));
#883=CARTESIAN_POINT('',(-19.5959179422654,0.,-9.99999999999998));
#884=CARTESIAN_POINT('',(-19.5959179422654,0.,-9.99999999999998));
#885=CARTESIAN_POINT('',(19.5959179422654,0.,-9.99999999999999));
#886=CARTESIAN_POINT('Origin',(0.,0.,0.));
#887=CARTESIAN_POINT('',(67.,0.,-10.));
#888=CARTESIAN_POINT('',(67.,0.,-10.));
#889=CARTESIAN_POINT('',(67.,0.,4.99999999999997));
#890=CARTESIAN_POINT('',(67.,0.,20.));
#891=CARTESIAN_POINT('',(20.,0.,5.00000000000005));
#892=CARTESIAN_POINT('',(11.5,0.,5.00000000000007));
#893=CARTESIAN_POINT('',(20.,0.,50.0000000000001));
#894=CARTESIAN_POINT('',(20.,0.,32.));
#895=CARTESIAN_POINT('',(-20.,0.,50.0000000000001));
#896=CARTESIAN_POINT('',(-23.,0.,50.0000000000001));
#897=CARTESIAN_POINT('',(-20.,0.,11.));
#898=CARTESIAN_POINT('Origin',(0.,0.,0.));
#899=CARTESIAN_POINT('',(12.5,37.1061830437893,0.));
#900=CARTESIAN_POINT('',(-12.5,37.1061830437893,0.));
#901=CARTESIAN_POINT('Ctrl Pts',(12.5,37.1061830437893,5.55111512312578E-16));
#902=CARTESIAN_POINT('Ctrl Pts',(12.5,37.1061830437893,-1.58013954015942));
#903=CARTESIAN_POINT('Ctrl Pts',(12.1822397240582,37.0030021841589,-3.2585317007537));
#904=CARTESIAN_POINT('Ctrl Pts',(10.9037253251798,36.6375517839352,-6.33512337671273));
#905=CARTESIAN_POINT('Ctrl Pts',(9.94343834416899,36.3813202045414,-7.7342311854947));
#906=CARTESIAN_POINT('Ctrl Pts',(7.73454947792623,35.9058139912628,-9.94312005173746));
#907=CARTESIAN_POINT('Ctrl Pts',(6.33531216377316,35.6546296106173,-10.903653597587));
#908=CARTESIAN_POINT('Ctrl Pts',(3.25825033053941,35.3008865852958,-12.1823499254942));
#909=CARTESIAN_POINT('Ctrl Pts',(1.57968422164897,35.2029410174709,-12.5));
#910=CARTESIAN_POINT('Ctrl Pts',(-1.57968422164896,35.2029410174709,-12.5));
#911=CARTESIAN_POINT('Ctrl Pts',(-3.25825033053939,35.3008865852958,-12.1823499254942));
#912=CARTESIAN_POINT('Ctrl Pts',(-6.33531216377314,35.6546296106173,-10.903653597587));
#913=CARTESIAN_POINT('Ctrl Pts',(-7.73454947792622,35.9058139912628,-9.94312005173747));
#914=CARTESIAN_POINT('Ctrl Pts',(-9.94343834416898,36.3813202045413,-7.73423118549471));
#915=CARTESIAN_POINT('Ctrl Pts',(-10.9037253251798,36.6375517839352,-6.33512337671274));
#916=CARTESIAN_POINT('Ctrl Pts',(-12.1822397240582,37.0030021841589,-3.25853170075371));
#917=CARTESIAN_POINT('Ctrl Pts',(-12.5,37.1061830437893,-1.58013954015943));
#918=CARTESIAN_POINT('Ctrl Pts',(-12.5,37.1061830437893,5.55111512312578E-16));
#919=CARTESIAN_POINT('',(-12.5,0.,1.53080849893419E-15));
#920=CARTESIAN_POINT('Ctrl Pts',(-12.5,37.1061830437893,-8.32667268468867E-16));
#921=CARTESIAN_POINT('Ctrl Pts',(-12.5,37.1061830437893,1.58013954015942));
#922=CARTESIAN_POINT('Ctrl Pts',(-12.1822397240582,37.0030021841589,3.2585317007537));
#923=CARTESIAN_POINT('Ctrl Pts',(-10.9037253251798,36.6375517839352,6.33512337671273));
#924=CARTESIAN_POINT('Ctrl Pts',(-9.94343834416899,36.3813202045414,7.7342311854947));
#925=CARTESIAN_POINT('Ctrl Pts',(-7.73454947792623,35.9058139912628,9.94312005173746));
#926=CARTESIAN_POINT('Ctrl Pts',(-6.33531216377316,35.6546296106173,10.903653597587));
#927=CARTESIAN_POINT('Ctrl Pts',(-3.2582503305394,35.3008865852958,12.1823499254942));
#928=CARTESIAN_POINT('Ctrl Pts',(-1.57968422164897,35.2029410174709,12.5));
#929=CARTESIAN_POINT('Ctrl Pts',(1.57968422164896,35.2029410174709,12.5));
#930=CARTESIAN_POINT('Ctrl Pts',(3.2582503305394,35.3008865852958,12.1823499254942));
#931=CARTESIAN_POINT('Ctrl Pts',(6.33531216377315,35.6546296106173,10.903653597587));
#932=CARTESIAN_POINT('Ctrl Pts',(7.73454947792622,35.9058139912628,9.94312005173746));
#933=CARTESIAN_POINT('Ctrl Pts',(9.94343834416899,36.3813202045414,7.7342311854947));
#934=CARTESIAN_POINT('Ctrl Pts',(10.9037253251798,36.6375517839352,6.33512337671273));
#935=CARTESIAN_POINT('Ctrl Pts',(12.1822397240582,37.0030021841589,3.2585317007537));
#936=CARTESIAN_POINT('Ctrl Pts',(12.5,37.1061830437893,1.58013954015943));
#937=CARTESIAN_POINT('Ctrl Pts',(12.5,37.1061830437893,2.4980018054066E-15));
#938=CARTESIAN_POINT('Origin',(-16.,1.5,6.5));
#939=CARTESIAN_POINT('',(-23.,3.,8.));
#940=CARTESIAN_POINT('',(-20.,0.,5.));
#941=CARTESIAN_POINT('',(-64.,3.,8.));
#942=CARTESIAN_POINT('',(-16.,3.,8.00000000000001));
#943=CARTESIAN_POINT('',(-64.,3.,8.));
#944=CARTESIAN_POINT('Origin',(-21.5,1.5,11.));
#945=CARTESIAN_POINT('',(-23.,3.,50.0000000000001));
#946=CARTESIAN_POINT('',(-21.5,1.49999999999999,50.0000000000001));
#947=CARTESIAN_POINT('',(-23.,3.,11.));
#948=CARTESIAN_POINT('Origin',(-65.5,0.,6.5));
#949=CARTESIAN_POINT('',(-67.,33.,5.));
#950=CARTESIAN_POINT('',(-67.,0.,5.));
#951=CARTESIAN_POINT('',(-64.,30.,8.00000000000005));
#952=CARTESIAN_POINT('',(-64.,0.,8.));
#953=CARTESIAN_POINT('',(-64.,30.,8.00000000000005));
#954=CARTESIAN_POINT('Origin',(-65.5,31.5,2.00000000000004));
#955=CARTESIAN_POINT('',(-67.,33.,20.));
#956=CARTESIAN_POINT('',(-67.,33.,2.00000000000004));
#957=CARTESIAN_POINT('',(-64.,30.,17.));
#958=CARTESIAN_POINT('',(-64.,30.,2.00000000000004));
#959=CARTESIAN_POINT('',(-64.,30.,17.));
#960=CARTESIAN_POINT('Origin',(-58.25,31.5,18.5));
#961=CARTESIAN_POINT('',(-32.,30.,17.0000000000001));
#962=CARTESIAN_POINT('',(-58.25,30.,17.));
#963=CARTESIAN_POINT('',(-32.,33.,20.0000000000001));
#964=CARTESIAN_POINT('',(-32.,24.,11.0000000000001));
#965=CARTESIAN_POINT('',(-58.25,33.,20.));
#966=CARTESIAN_POINT('Origin',(-67.,0.,20.));
#967=CARTESIAN_POINT('',(-32.,50.,20.0000000000001));
#968=CARTESIAN_POINT('',(-32.,0.,20.0000000000001));
#969=CARTESIAN_POINT('',(-67.,50.,20.));
#970=CARTESIAN_POINT('',(-67.,50.,20.));
#971=CARTESIAN_POINT('',(-67.,0.,20.));
#972=CARTESIAN_POINT('Origin',(-32.,0.,20.0000000000001));
#973=CARTESIAN_POINT('',(-32.,30.,8.00000000000005));
#974=CARTESIAN_POINT('',(-32.,30.,17.0000000000001));
#975=CARTESIAN_POINT('',(-32.,50.,8.));
#976=CARTESIAN_POINT('',(-32.,0.,8.));
#977=CARTESIAN_POINT('',(-32.,50.,20.0000000000001));
#978=CARTESIAN_POINT('Origin',(-49.5,30.,14.));
#979=CARTESIAN_POINT('',(-67.,30.,8.00000000000005));
#980=CARTESIAN_POINT('Origin',(-32.,0.,8.));
#981=CARTESIAN_POINT('',(-23.,42.0603742358597,8.));
#982=CARTESIAN_POINT('',(-23.,0.,8.));
#983=CARTESIAN_POINT('Origin',(-8.88178419700125E-15,77.2029410174709,8.));
#984=CARTESIAN_POINT('Origin',(40.75,31.5,18.5));
#985=CARTESIAN_POINT('',(67.,33.,20.));
#986=CARTESIAN_POINT('',(32.,33.,20.));
#987=CARTESIAN_POINT('',(40.75,33.,20.));
#988=CARTESIAN_POINT('',(32.,30.,17.));
#989=CARTESIAN_POINT('',(32.,21.,8.00000000000004));
#990=CARTESIAN_POINT('',(64.,30.,17.));
#991=CARTESIAN_POINT('',(40.75,30.,17.));
#992=CARTESIAN_POINT('',(64.,30.,17.));
#993=CARTESIAN_POINT('Origin',(65.5,0.,6.49999999999997));
#994=CARTESIAN_POINT('',(64.,30.,8.00000000000005));
#995=CARTESIAN_POINT('',(64.,3.,7.99999999999998));
#996=CARTESIAN_POINT('',(64.,0.,7.99999999999998));
#997=CARTESIAN_POINT('',(64.,3.,7.99999999999998));
#998=CARTESIAN_POINT('',(67.,33.,4.99999999999997));
#999=CARTESIAN_POINT('',(67.,0.,4.99999999999997));
#1000=CARTESIAN_POINT('',(67.,33.,4.99999999999997));
#1001=CARTESIAN_POINT('Origin',(21.5,1.5,32.));
#1002=CARTESIAN_POINT('',(23.,3.,8.00000000000005));
#1003=CARTESIAN_POINT('',(23.,3.,50.0000000000001));
#1004=CARTESIAN_POINT('',(23.,3.,32.));
#1005=CARTESIAN_POINT('',(10.,-10.,50.0000000000001));
#1006=CARTESIAN_POINT('',(20.,0.,5.00000000000005));
#1007=CARTESIAN_POINT('Origin',(11.5,1.5,6.50000000000007));
#1008=CARTESIAN_POINT('',(11.5,3.,8.00000000000007));
#1009=CARTESIAN_POINT('Origin',(65.5,31.5,17.));
#1010=CARTESIAN_POINT('',(64.,30.,17.));
#1011=CARTESIAN_POINT('',(67.,33.,17.));
#1012=CARTESIAN_POINT('Origin',(67.,0.,20.));
#1013=CARTESIAN_POINT('',(67.,50.,-10.));
#1014=CARTESIAN_POINT('',(67.,0.,-10.));
#1015=CARTESIAN_POINT('',(67.,50.,20.));
#1016=CARTESIAN_POINT('',(67.,50.,20.));
#1017=CARTESIAN_POINT('',(67.,0.,20.));
#1018=CARTESIAN_POINT('Origin',(-23.,0.,50.0000000000001));
#1019=CARTESIAN_POINT('',(23.,42.0603742358597,50.0000000000001));
#1020=CARTESIAN_POINT('',(23.,0.,50.0000000000001));
#1021=CARTESIAN_POINT('',(-23.,42.0603742358597,50.0000000000001));
#1022=CARTESIAN_POINT('Origin',(-8.88178419700125E-15,77.2029410174709,
50.0000000000001));
#1023=CARTESIAN_POINT('',(-23.,0.,50.0000000000001));
#1024=CARTESIAN_POINT('Origin',(23.,0.,50.0000000000001));
#1025=CARTESIAN_POINT('',(23.,42.0603742358597,8.00000000000005));
#1026=CARTESIAN_POINT('',(23.,0.,8.00000000000005));
#1027=CARTESIAN_POINT('',(23.,42.0603742358597,0.));
#1028=CARTESIAN_POINT('Origin',(-8.88178419700125E-15,77.2029410174709,
0.));
#1029=CARTESIAN_POINT('',(-32.,50.,-9.99999999999997));
#1030=CARTESIAN_POINT('',(-32.,50.,0.));
#1031=CARTESIAN_POINT('',(-23.,42.0603742358597,0.));
#1032=CARTESIAN_POINT('',(32.,50.,8.00000000000003));
#1033=CARTESIAN_POINT('Origin',(-8.88178419700125E-15,77.2029410174709,
8.00000000000005));
#1034=CARTESIAN_POINT('',(32.,50.,-9.99999999999999));
#1035=CARTESIAN_POINT('',(32.,50.,0.));
#1036=CARTESIAN_POINT('',(19.5959179422654,40.0545897754575,-9.99999999999999));
#1037=CARTESIAN_POINT('Origin',(-8.88178419700125E-15,77.2029410174709,
-10.));
#1038=CARTESIAN_POINT('',(-19.5959179422654,40.0545897754574,-9.99999999999998));
#1039=CARTESIAN_POINT('Ctrl Pts',(-19.5959179422654,40.0545897754574,-9.99999999999998));
#1040=CARTESIAN_POINT('Ctrl Pts',(-19.1848262557078,39.8377371107443,-10.8055718956532));
#1041=CARTESIAN_POINT('Ctrl Pts',(-18.7260930269197,39.6045429796199,-11.5812703129971));
#1042=CARTESIAN_POINT('Ctrl Pts',(-17.4254979662151,38.978017332615,-13.5057117364912));
#1043=CARTESIAN_POINT('Ctrl Pts',(-16.5193908472049,38.5741351735628,-14.5933075250032));
#1044=CARTESIAN_POINT('Ctrl Pts',(-14.5965599401116,37.8074069483656,-16.5161384320965));
#1045=CARTESIAN_POINT('Ctrl Pts',(-13.5105907347504,37.4159302851961,-17.421765946868));
#1046=CARTESIAN_POINT('Ctrl Pts',(-11.1361371461951,36.6871572481679,-19.027360308265));
#1047=CARTESIAN_POINT('Ctrl Pts',(-9.84757076661755,36.3504004823253,-19.7274507707144));
#1048=CARTESIAN_POINT('Ctrl Pts',(-7.1444025862225,35.792045923071,-20.8591583704345));
#1049=CARTESIAN_POINT('Ctrl Pts',(-5.72718430709059,35.5703091195888,-21.2916816839094));
#1050=CARTESIAN_POINT('Ctrl Pts',(-2.86014718679834,35.2756678303538,-21.8622027045679));
#1051=CARTESIAN_POINT('Ctrl Pts',(-1.41027021241701,35.2029410174709,-22.));
#1052=CARTESIAN_POINT('Ctrl Pts',(1.41027021241701,35.2029410174709,-22.));
#1053=CARTESIAN_POINT('Ctrl Pts',(2.86014718679834,35.2756678303538,-21.8622027045679));
#1054=CARTESIAN_POINT('Ctrl Pts',(5.72718430709059,35.5703091195888,-21.2916816839094));
#1055=CARTESIAN_POINT('Ctrl Pts',(7.1444025862225,35.792045923071,-20.8591583704345));
#1056=CARTESIAN_POINT('Ctrl Pts',(9.84757076661756,36.3504004823253,-19.7274507707144));
#1057=CARTESIAN_POINT('Ctrl Pts',(11.1361371461951,36.6871572481679,-19.027360308265));
#1058=CARTESIAN_POINT('Ctrl Pts',(13.5105907347504,37.4159302851961,-17.421765946868));
#1059=CARTESIAN_POINT('Ctrl Pts',(14.5965599401116,37.8074069483656,-16.5161384320965));
#1060=CARTESIAN_POINT('Ctrl Pts',(16.5193908472049,38.5741351735628,-14.5933075250032));
#1061=CARTESIAN_POINT('Ctrl Pts',(17.4254979662151,38.978017332615,-13.5057117364912));
#1062=CARTESIAN_POINT('Ctrl Pts',(18.7260930269197,39.6045429796199,-11.5812703129971));
#1063=CARTESIAN_POINT('Ctrl Pts',(19.1848262557078,39.8377371107443,-10.8055718956532));
#1064=CARTESIAN_POINT('Ctrl Pts',(19.5959179422654,40.0545897754575,-9.99999999999999));
#1065=CARTESIAN_POINT('Origin',(-8.88178419700125E-15,77.2029410174709,
-9.99999999999998));
#1066=CARTESIAN_POINT('Origin',(-19.5959179422654,0.,-9.99999999999998));
#1067=CARTESIAN_POINT('',(-19.5959179422654,0.,-9.99999999999998));
#1068=CARTESIAN_POINT('',(-67.,50.,-9.99999999999996));
#1069=CARTESIAN_POINT('',(-67.,0.,-9.99999999999996));
#1070=CARTESIAN_POINT('',(-19.5959179422654,50.,-9.99999999999998));
#1071=CARTESIAN_POINT('Origin',(0.,0.,0.));
#1072=CARTESIAN_POINT('',(19.5959179422654,0.,-9.99999999999999));
#1073=CARTESIAN_POINT('Origin',(67.,0.,-10.));
#1074=CARTESIAN_POINT('',(67.,50.,-10.));
#1075=CARTESIAN_POINT('Origin',(0.,50.,14.));
#1076=CARTESIAN_POINT('',(32.,50.,20.));
#1077=CARTESIAN_POINT('',(32.,50.,8.00000000000003));
#1078=CARTESIAN_POINT('',(32.,50.,20.));
#1079=CARTESIAN_POINT('Origin',(49.5,30.,14.));
#1080=CARTESIAN_POINT('',(32.,30.,8.00000000000005));
#1081=CARTESIAN_POINT('',(32.,30.,11.));
#1082=CARTESIAN_POINT('',(67.,30.,8.00000000000005));
#1083=CARTESIAN_POINT('Origin',(-23.,0.,8.));
#1084=CARTESIAN_POINT('Origin',(-67.,0.,-9.99999999999996));
#1085=CARTESIAN_POINT('',(-67.,50.,-9.99999999999996));
#1086=CARTESIAN_POINT('Origin',(32.,0.,20.));
#1087=CARTESIAN_POINT('',(32.,0.,20.));
#1088=CARTESIAN_POINT('Origin',(32.,0.,8.00000000000003));
#1089=CARTESIAN_POINT('',(32.,0.,8.00000000000003));
#1090=CARTESIAN_POINT('Origin',(23.,0.,8.00000000000005));
#1091=CARTESIAN_POINT('Origin',(0.,50.,14.));
#1092=UNCERTAINTY_MEASURE_WITH_UNIT(LENGTH_MEASURE(0.01),#1096,
'DISTANCE_ACCURACY_VALUE',
'Maximum model space distance between geometric entities at asserted c
onnectivities');
#1093=UNCERTAINTY_MEASURE_WITH_UNIT(LENGTH_MEASURE(0.01),#1096,
'DISTANCE_ACCURACY_VALUE',
'Maximum model space distance between geometric entities at asserted c
onnectivities');
#1094=(
GEOMETRIC_REPRESENTATION_CONTEXT(3)
GLOBAL_UNCERTAINTY_ASSIGNED_CONTEXT((#1092))
GLOBAL_UNIT_ASSIGNED_CONTEXT((#1096,#1098,#1099))
REPRESENTATION_CONTEXT('','3D')
);
#1095=(
GEOMETRIC_REPRESENTATION_CONTEXT(3)
GLOBAL_UNCERTAINTY_ASSIGNED_CONTEXT((#1093))
GLOBAL_UNIT_ASSIGNED_CONTEXT((#1096,#1098,#1099))
REPRESENTATION_CONTEXT('','3D')
);
#1096=(
LENGTH_UNIT()
NAMED_UNIT(*)
SI_UNIT(.MILLI.,.METRE.)
);
#1097=(
LENGTH_UNIT()
NAMED_UNIT(*)
SI_UNIT($,.METRE.)
);
#1098=(
NAMED_UNIT(*)
PLANE_ANGLE_UNIT()
SI_UNIT($,.RADIAN.)
);
#1099=(
NAMED_UNIT(*)
SI_UNIT($,.STERADIAN.)
SOLID_ANGLE_UNIT()
);
#1100=SHAPE_DEFINITION_REPRESENTATION(#1101,#1102);
#1101=PRODUCT_DEFINITION_SHAPE('',$,#1104);
#1102=SHAPE_REPRESENTATION('',(#644),#1094);
#1103=PRODUCT_DEFINITION_CONTEXT('part definition',#1108,'design');
#1104=PRODUCT_DEFINITION('2026-08-11-04-37-55-623','Alignment Brackets',
#1105,#1103);
#1105=PRODUCT_DEFINITION_FORMATION('',$,#1110);
#1106=PRODUCT_RELATED_PRODUCT_CATEGORY('Alignment Brackets',
'Alignment Brackets',(#1110));
#1107=APPLICATION_PROTOCOL_DEFINITION('international standard',
'automotive_design',2009,#1108);
#1108=APPLICATION_CONTEXT(
'Core Data for Automotive Mechanical Design Process');
#1109=PRODUCT_CONTEXT('part definition',#1108,'mechanical');
#1110=PRODUCT('2026-08-11-04-37-55-623','Alignment Brackets',$,(#1109));
#1111=PRESENTATION_STYLE_ASSIGNMENT((#1112));
#1112=SURFACE_STYLE_USAGE(.BOTH.,#1113);
#1113=SURFACE_SIDE_STYLE('',(#1114));
#1114=SURFACE_STYLE_FILL_AREA(#1115);
#1115=FILL_AREA_STYLE('Aluminum nitride (AlN)',(#1116));
#1116=FILL_AREA_STYLE_COLOUR('Aluminum nitride (AlN)',#1117);
#1117=COLOUR_RGB('Aluminum nitride (AlN)',0.850980392156863,0.827450980392157,
0.788235294117647);
ENDSEC;
END-ISO-10303-21;
