ISO-10303-21;
HEADER;
/* Generated by software containing ST-Developer
 * from STEP Tools, Inc. (www.steptools.com) 
 */

FILE_DESCRIPTION(
/* description */ (''),
/* implementation_level */ '2;1');

FILE_NAME(
/* name */ 'Alignment Catch.step',
/* time_stamp */ '2026-08-13T06:11:27+05:30',
/* author */ (''),
/* organization */ (''),
/* preprocessor_version */ 'ST-DEVELOPER v20.1',
/* originating_system */ 'Autodesk Translation Framework v15.8.0.0',
/* authorisation */ '');

FILE_SCHEMA (('AUTOMOTIVE_DESIGN { 1 0 10303 214 3 1 1 }'));
ENDSEC;

DATA;
#10=MECHANICAL_DESIGN_GEOMETRIC_PRESENTATION_REPRESENTATION('',(#13),#1513);
#11=SHAPE_REPRESENTATION_RELATIONSHIP('SRR','None',#1520,#12);
#12=ADVANCED_BREP_SHAPE_REPRESENTATION('',(#14),#1512);
#13=STYLED_ITEM('',(#1530),#14);
#14=MANIFOLD_SOLID_BREP('Body1',#891);
#15=(
BOUNDED_CURVE()
B_SPLINE_CURVE(2,(#1403,#1404,#1405),.UNSPECIFIED.,.F.,.F.)
B_SPLINE_CURVE_WITH_KNOTS((3,3),(1.50643505162396,3.08951639661393),
 .UNSPECIFIED.)
CURVE()
GEOMETRIC_REPRESENTATION_ITEM()
RATIONAL_B_SPLINE_CURVE((1.20759618065476,1.29758734697815,1.3474599502869))
REPRESENTATION_ITEM('')
);
#16=(
BOUNDED_CURVE()
B_SPLINE_CURVE(2,(#1409,#1410,#1411),.UNSPECIFIED.,.F.,.F.)
B_SPLINE_CURVE_WITH_KNOTS((3,3),(7.02546933168628,8.60855067667627),
 .UNSPECIFIED.)
CURVE()
GEOMETRIC_REPRESENTATION_ITEM()
RATIONAL_B_SPLINE_CURVE((1.3474599502869,1.29758734697815,1.20759618065476))
REPRESENTATION_ITEM('')
);
#17=CONICAL_SURFACE('',#924,0.75,1.02974425867665);
#18=CONICAL_SURFACE('',#928,0.75,1.02974425867665);
#19=CONICAL_SURFACE('',#932,0.75,1.02974425867665);
#20=CONICAL_SURFACE('',#936,0.75,1.02974425867665);
#21=CONICAL_SURFACE('',#958,30.0416345659799,0.54042377231559);
#22=FACE_BOUND('',#108,.T.);
#23=FACE_BOUND('',#126,.T.);
#24=FACE_BOUND('',#127,.T.);
#25=FACE_BOUND('',#133,.T.);
#26=FACE_BOUND('',#134,.T.);
#27=FACE_BOUND('',#147,.T.);
#28=FACE_BOUND('',#150,.T.);
#29=PLANE('',#908);
#30=PLANE('',#912);
#31=PLANE('',#913);
#32=PLANE('',#920);
#33=PLANE('',#923);
#34=PLANE('',#940);
#35=PLANE('',#944);
#36=PLANE('',#948);
#37=PLANE('',#949);
#38=PLANE('',#953);
#39=PLANE('',#957);
#40=PLANE('',#971);
#41=PLANE('',#974);
#42=PLANE('',#975);
#43=PLANE('',#976);
#44=PLANE('',#977);
#45=PLANE('',#978);
#46=PLANE('',#979);
#47=PLANE('',#980);
#48=PLANE('',#981);
#49=PLANE('',#982);
#50=PLANE('',#984);
#51=PLANE('',#986);
#52=PLANE('',#987);
#53=PLANE('',#988);
#54=PLANE('',#989);
#55=FACE_OUTER_BOUND('',#103,.T.);
#56=FACE_OUTER_BOUND('',#104,.T.);
#57=FACE_OUTER_BOUND('',#105,.T.);
#58=FACE_OUTER_BOUND('',#106,.T.);
#59=FACE_OUTER_BOUND('',#107,.T.);
#60=FACE_OUTER_BOUND('',#109,.T.);
#61=FACE_OUTER_BOUND('',#110,.T.);
#62=FACE_OUTER_BOUND('',#111,.T.);
#63=FACE_OUTER_BOUND('',#112,.T.);
#64=FACE_OUTER_BOUND('',#113,.T.);
#65=FACE_OUTER_BOUND('',#114,.T.);
#66=FACE_OUTER_BOUND('',#115,.T.);
#67=FACE_OUTER_BOUND('',#116,.T.);
#68=FACE_OUTER_BOUND('',#117,.T.);
#69=FACE_OUTER_BOUND('',#118,.T.);
#70=FACE_OUTER_BOUND('',#119,.T.);
#71=FACE_OUTER_BOUND('',#120,.T.);
#72=FACE_OUTER_BOUND('',#121,.T.);
#73=FACE_OUTER_BOUND('',#122,.T.);
#74=FACE_OUTER_BOUND('',#123,.T.);
#75=FACE_OUTER_BOUND('',#124,.T.);
#76=FACE_OUTER_BOUND('',#125,.T.);
#77=FACE_OUTER_BOUND('',#128,.T.);
#78=FACE_OUTER_BOUND('',#129,.T.);
#79=FACE_OUTER_BOUND('',#130,.T.);
#80=FACE_OUTER_BOUND('',#131,.T.);
#81=FACE_OUTER_BOUND('',#132,.T.);
#82=FACE_OUTER_BOUND('',#135,.T.);
#83=FACE_OUTER_BOUND('',#136,.T.);
#84=FACE_OUTER_BOUND('',#137,.T.);
#85=FACE_OUTER_BOUND('',#138,.T.);
#86=FACE_OUTER_BOUND('',#139,.T.);
#87=FACE_OUTER_BOUND('',#140,.T.);
#88=FACE_OUTER_BOUND('',#141,.T.);
#89=FACE_OUTER_BOUND('',#142,.T.);
#90=FACE_OUTER_BOUND('',#143,.T.);
#91=FACE_OUTER_BOUND('',#144,.T.);
#92=FACE_OUTER_BOUND('',#145,.T.);
#93=FACE_OUTER_BOUND('',#146,.T.);
#94=FACE_OUTER_BOUND('',#148,.T.);
#95=FACE_OUTER_BOUND('',#149,.T.);
#96=FACE_OUTER_BOUND('',#151,.T.);
#97=FACE_OUTER_BOUND('',#152,.T.);
#98=FACE_OUTER_BOUND('',#153,.T.);
#99=FACE_OUTER_BOUND('',#154,.T.);
#100=FACE_OUTER_BOUND('',#155,.T.);
#101=FACE_OUTER_BOUND('',#156,.T.);
#102=FACE_OUTER_BOUND('',#157,.T.);
#103=EDGE_LOOP('',(#576,#577,#578,#579));
#104=EDGE_LOOP('',(#580,#581,#582,#583));
#105=EDGE_LOOP('',(#584,#585,#586,#587));
#106=EDGE_LOOP('',(#588,#589,#590,#591,#592,#593));
#107=EDGE_LOOP('',(#594,#595,#596,#597,#598,#599,#600,#601));
#108=EDGE_LOOP('',(#602,#603,#604,#605));
#109=EDGE_LOOP('',(#606,#607,#608,#609));
#110=EDGE_LOOP('',(#610,#611,#612,#613));
#111=EDGE_LOOP('',(#614,#615,#616,#617));
#112=EDGE_LOOP('',(#618,#619,#620,#621,#622,#623));
#113=EDGE_LOOP('',(#624,#625,#626));
#114=EDGE_LOOP('',(#627,#628,#629,#630));
#115=EDGE_LOOP('',(#631,#632,#633));
#116=EDGE_LOOP('',(#634,#635,#636,#637));
#117=EDGE_LOOP('',(#638,#639,#640));
#118=EDGE_LOOP('',(#641,#642,#643,#644));
#119=EDGE_LOOP('',(#645,#646,#647));
#120=EDGE_LOOP('',(#648,#649,#650,#651));
#121=EDGE_LOOP('',(#652,#653,#654,#655));
#122=EDGE_LOOP('',(#656,#657,#658,#659));
#123=EDGE_LOOP('',(#660,#661,#662,#663));
#124=EDGE_LOOP('',(#664,#665,#666,#667));
#125=EDGE_LOOP('',(#668,#669,#670,#671));
#126=EDGE_LOOP('',(#672));
#127=EDGE_LOOP('',(#673));
#128=EDGE_LOOP('',(#674,#675,#676,#677));
#129=EDGE_LOOP('',(#678,#679,#680,#681));
#130=EDGE_LOOP('',(#682,#683,#684,#685));
#131=EDGE_LOOP('',(#686,#687,#688,#689));
#132=EDGE_LOOP('',(#690,#691,#692,#693));
#133=EDGE_LOOP('',(#694));
#134=EDGE_LOOP('',(#695));
#135=EDGE_LOOP('',(#696,#697,#698,#699));
#136=EDGE_LOOP('',(#700,#701,#702,#703,#704,#705,#706,#707));
#137=EDGE_LOOP('',(#708,#709,#710,#711));
#138=EDGE_LOOP('',(#712,#713,#714,#715));
#139=EDGE_LOOP('',(#716,#717,#718,#719,#720,#721));
#140=EDGE_LOOP('',(#722,#723,#724,#725));
#141=EDGE_LOOP('',(#726,#727,#728,#729,#730,#731));
#142=EDGE_LOOP('',(#732,#733,#734,#735));
#143=EDGE_LOOP('',(#736,#737,#738,#739,#740));
#144=EDGE_LOOP('',(#741,#742,#743,#744,#745));
#145=EDGE_LOOP('',(#746,#747,#748,#749,#750));
#146=EDGE_LOOP('',(#751,#752,#753,#754));
#147=EDGE_LOOP('',(#755,#756,#757,#758));
#148=EDGE_LOOP('',(#759,#760,#761,#762,#763));
#149=EDGE_LOOP('',(#764,#765,#766,#767));
#150=EDGE_LOOP('',(#768,#769,#770,#771));
#151=EDGE_LOOP('',(#772,#773,#774,#775,#776,#777,#778,#779,#780,#781,#782,
#783));
#152=EDGE_LOOP('',(#784,#785,#786,#787,#788,#789));
#153=EDGE_LOOP('',(#790,#791,#792,#793));
#154=EDGE_LOOP('',(#794,#795,#796,#797,#798,#799));
#155=EDGE_LOOP('',(#800,#801,#802,#803,#804,#805,#806,#807));
#156=EDGE_LOOP('',(#808,#809,#810,#811,#812,#813));
#157=EDGE_LOOP('',(#814,#815,#816,#817,#818,#819,#820,#821,#822,#823,#824,
#825));
#158=LINE('',#1254,#244);
#159=LINE('',#1257,#245);
#160=LINE('',#1260,#246);
#161=LINE('',#1262,#247);
#162=LINE('',#1263,#248);
#163=LINE('',#1269,#249);
#164=LINE('',#1272,#250);
#165=LINE('',#1274,#251);
#166=LINE('',#1275,#252);
#167=LINE('',#1278,#253);
#168=LINE('',#1282,#254);
#169=LINE('',#1285,#255);
#170=LINE('',#1288,#256);
#171=LINE('',#1292,#257);
#172=LINE('',#1296,#258);
#173=LINE('',#1299,#259);
#174=LINE('',#1302,#260);
#175=LINE('',#1303,#261);
#176=LINE('',#1307,#262);
#177=LINE('',#1310,#263);
#178=LINE('',#1312,#264);
#179=LINE('',#1313,#265);
#180=LINE('',#1318,#266);
#181=LINE('',#1322,#267);
#182=LINE('',#1327,#268);
#183=LINE('',#1331,#269);
#184=LINE('',#1336,#270);
#185=LINE('',#1340,#271);
#186=LINE('',#1345,#272);
#187=LINE('',#1349,#273);
#188=LINE('',#1353,#274);
#189=LINE('',#1355,#275);
#190=LINE('',#1357,#276);
#191=LINE('',#1358,#277);
#192=LINE('',#1363,#278);
#193=LINE('',#1367,#279);
#194=LINE('',#1369,#280);
#195=LINE('',#1370,#281);
#196=LINE('',#1378,#282);
#197=LINE('',#1380,#283);
#198=LINE('',#1382,#284);
#199=LINE('',#1383,#285);
#200=LINE('',#1388,#286);
#201=LINE('',#1392,#287);
#202=LINE('',#1394,#288);
#203=LINE('',#1395,#289);
#204=LINE('',#1415,#290);
#205=LINE('',#1419,#291);
#206=LINE('',#1423,#292);
#207=LINE('',#1426,#293);
#208=LINE('',#1432,#294);
#209=LINE('',#1437,#295);
#210=LINE('',#1441,#296);
#211=LINE('',#1443,#297);
#212=LINE('',#1446,#298);
#213=LINE('',#1447,#299);
#214=LINE('',#1450,#300);
#215=LINE('',#1451,#301);
#216=LINE('',#1454,#302);
#217=LINE('',#1456,#303);
#218=LINE('',#1457,#304);
#219=LINE('',#1460,#305);
#220=LINE('',#1462,#306);
#221=LINE('',#1463,#307);
#222=LINE('',#1466,#308);
#223=LINE('',#1468,#309);
#224=LINE('',#1469,#310);
#225=LINE('',#1472,#311);
#226=LINE('',#1474,#312);
#227=LINE('',#1475,#313);
#228=LINE('',#1478,#314);
#229=LINE('',#1479,#315);
#230=LINE('',#1482,#316);
#231=LINE('',#1484,#317);
#232=LINE('',#1485,#318);
#233=LINE('',#1488,#319);
#234=LINE('',#1489,#320);
#235=LINE('',#1492,#321);
#236=LINE('',#1495,#322);
#237=LINE('',#1497,#323);
#238=LINE('',#1498,#324);
#239=LINE('',#1500,#325);
#240=LINE('',#1503,#326);
#241=LINE('',#1504,#327);
#242=LINE('',#1506,#328);
#243=LINE('',#1508,#329);
#244=VECTOR('',#996,10.);
#245=VECTOR('',#999,10.);
#246=VECTOR('',#1002,10.);
#247=VECTOR('',#1003,10.);
#248=VECTOR('',#1004,10.);
#249=VECTOR('',#1011,10.);
#250=VECTOR('',#1014,10.);
#251=VECTOR('',#1015,10.);
#252=VECTOR('',#1016,10.);
#253=VECTOR('',#1019,10.);
#254=VECTOR('',#1022,10.);
#255=VECTOR('',#1025,10.);
#256=VECTOR('',#1026,10.);
#257=VECTOR('',#1029,10.);
#258=VECTOR('',#1034,10.);
#259=VECTOR('',#1037,10.);
#260=VECTOR('',#1040,10.);
#261=VECTOR('',#1041,10.);
#262=VECTOR('',#1046,10.);
#263=VECTOR('',#1049,10.);
#264=VECTOR('',#1050,10.);
#265=VECTOR('',#1051,10.);
#266=VECTOR('',#1056,0.75);
#267=VECTOR('',#1061,1.5);
#268=VECTOR('',#1066,0.75);
#269=VECTOR('',#1071,1.5);
#270=VECTOR('',#1076,0.75);
#271=VECTOR('',#1081,1.5);
#272=VECTOR('',#1086,0.75);
#273=VECTOR('',#1091,1.5);
#274=VECTOR('',#1094,10.);
#275=VECTOR('',#1095,10.);
#276=VECTOR('',#1096,10.);
#277=VECTOR('',#1097,10.);
#278=VECTOR('',#1102,10.);
#279=VECTOR('',#1107,10.);
#280=VECTOR('',#1108,10.);
#281=VECTOR('',#1109,10.);
#282=VECTOR('',#1120,10.);
#283=VECTOR('',#1121,10.);
#284=VECTOR('',#1122,10.);
#285=VECTOR('',#1123,10.);
#286=VECTOR('',#1128,10.);
#287=VECTOR('',#1133,10.);
#288=VECTOR('',#1134,10.);
#289=VECTOR('',#1135,10.);
#290=VECTOR('',#1152,10.);
#291=VECTOR('',#1155,10.);
#292=VECTOR('',#1158,10.);
#293=VECTOR('',#1161,10.);
#294=VECTOR('',#1168,10.);
#295=VECTOR('',#1173,10.);
#296=VECTOR('',#1178,10.);
#297=VECTOR('',#1179,10.);
#298=VECTOR('',#1184,10.);
#299=VECTOR('',#1185,10.);
#300=VECTOR('',#1188,10.);
#301=VECTOR('',#1189,10.);
#302=VECTOR('',#1192,10.);
#303=VECTOR('',#1193,10.);
#304=VECTOR('',#1194,10.);
#305=VECTOR('',#1197,10.);
#306=VECTOR('',#1198,10.);
#307=VECTOR('',#1199,10.);
#308=VECTOR('',#1202,10.);
#309=VECTOR('',#1203,10.);
#310=VECTOR('',#1204,10.);
#311=VECTOR('',#1207,10.);
#312=VECTOR('',#1208,10.);
#313=VECTOR('',#1209,10.);
#314=VECTOR('',#1212,10.);
#315=VECTOR('',#1213,10.);
#316=VECTOR('',#1216,10.);
#317=VECTOR('',#1217,10.);
#318=VECTOR('',#1218,10.);
#319=VECTOR('',#1221,10.);
#320=VECTOR('',#1222,10.);
#321=VECTOR('',#1225,10.);
#322=VECTOR('',#1228,10.);
#323=VECTOR('',#1229,10.);
#324=VECTOR('',#1230,10.);
#325=VECTOR('',#1233,10.);
#326=VECTOR('',#1238,10.);
#327=VECTOR('',#1239,10.);
#328=VECTOR('',#1242,10.);
#329=VECTOR('',#1245,10.);
#330=CIRCLE('',#906,5.99999999999999);
#331=CIRCLE('',#907,5.99999999999999);
#332=CIRCLE('',#910,6.);
#333=CIRCLE('',#911,6.);
#334=CIRCLE('',#914,6.);
#335=CIRCLE('',#915,5.99999999999999);
#336=CIRCLE('',#916,8.);
#337=CIRCLE('',#917,8.);
#338=CIRCLE('',#919,6.);
#339=CIRCLE('',#922,5.99999999999999);
#340=CIRCLE('',#925,1.5);
#341=CIRCLE('',#927,1.5);
#342=CIRCLE('',#929,1.5);
#343=CIRCLE('',#931,1.5);
#344=CIRCLE('',#933,1.5);
#345=CIRCLE('',#935,1.5);
#346=CIRCLE('',#937,1.5);
#347=CIRCLE('',#939,1.5);
#348=CIRCLE('',#942,2.5);
#349=CIRCLE('',#943,2.5);
#350=CIRCLE('',#946,2.50000000000001);
#351=CIRCLE('',#947,2.50000000000001);
#352=CIRCLE('',#951,2.5);
#353=CIRCLE('',#952,2.5);
#354=CIRCLE('',#955,2.5);
#355=CIRCLE('',#956,2.5);
#356=CIRCLE('',#959,33.0416345659799);
#357=CIRCLE('',#960,27.0416345659799);
#358=CIRCLE('',#962,27.0416345659799);
#359=CIRCLE('',#963,27.0416345659799);
#360=CIRCLE('',#964,27.0416345659799);
#361=CIRCLE('',#966,6.);
#362=CIRCLE('',#967,6.);
#363=CIRCLE('',#969,5.99999999999999);
#364=CIRCLE('',#970,5.99999999999999);
#365=CIRCLE('',#972,8.);
#366=CIRCLE('',#983,8.);
#367=VERTEX_POINT('',#1250);
#368=VERTEX_POINT('',#1251);
#369=VERTEX_POINT('',#1253);
#370=VERTEX_POINT('',#1255);
#371=VERTEX_POINT('',#1259);
#372=VERTEX_POINT('',#1261);
#373=VERTEX_POINT('',#1265);
#374=VERTEX_POINT('',#1267);
#375=VERTEX_POINT('',#1271);
#376=VERTEX_POINT('',#1273);
#377=VERTEX_POINT('',#1277);
#378=VERTEX_POINT('',#1279);
#379=VERTEX_POINT('',#1281);
#380=VERTEX_POINT('',#1283);
#381=VERTEX_POINT('',#1286);
#382=VERTEX_POINT('',#1287);
#383=VERTEX_POINT('',#1289);
#384=VERTEX_POINT('',#1291);
#385=VERTEX_POINT('',#1295);
#386=VERTEX_POINT('',#1297);
#387=VERTEX_POINT('',#1301);
#388=VERTEX_POINT('',#1305);
#389=VERTEX_POINT('',#1309);
#390=VERTEX_POINT('',#1311);
#391=VERTEX_POINT('',#1315);
#392=VERTEX_POINT('',#1317);
#393=VERTEX_POINT('',#1320);
#394=VERTEX_POINT('',#1324);
#395=VERTEX_POINT('',#1326);
#396=VERTEX_POINT('',#1329);
#397=VERTEX_POINT('',#1333);
#398=VERTEX_POINT('',#1335);
#399=VERTEX_POINT('',#1338);
#400=VERTEX_POINT('',#1342);
#401=VERTEX_POINT('',#1344);
#402=VERTEX_POINT('',#1347);
#403=VERTEX_POINT('',#1351);
#404=VERTEX_POINT('',#1352);
#405=VERTEX_POINT('',#1354);
#406=VERTEX_POINT('',#1356);
#407=VERTEX_POINT('',#1360);
#408=VERTEX_POINT('',#1362);
#409=VERTEX_POINT('',#1366);
#410=VERTEX_POINT('',#1368);
#411=VERTEX_POINT('',#1376);
#412=VERTEX_POINT('',#1377);
#413=VERTEX_POINT('',#1379);
#414=VERTEX_POINT('',#1381);
#415=VERTEX_POINT('',#1385);
#416=VERTEX_POINT('',#1387);
#417=VERTEX_POINT('',#1391);
#418=VERTEX_POINT('',#1393);
#419=VERTEX_POINT('',#1401);
#420=VERTEX_POINT('',#1402);
#421=VERTEX_POINT('',#1406);
#422=VERTEX_POINT('',#1408);
#423=VERTEX_POINT('',#1414);
#424=VERTEX_POINT('',#1416);
#425=VERTEX_POINT('',#1418);
#426=VERTEX_POINT('',#1420);
#427=VERTEX_POINT('',#1422);
#428=VERTEX_POINT('',#1424);
#429=VERTEX_POINT('',#1428);
#430=VERTEX_POINT('',#1430);
#431=VERTEX_POINT('',#1434);
#432=VERTEX_POINT('',#1436);
#433=VERTEX_POINT('',#1440);
#434=VERTEX_POINT('',#1442);
#435=VERTEX_POINT('',#1449);
#436=VERTEX_POINT('',#1453);
#437=VERTEX_POINT('',#1455);
#438=VERTEX_POINT('',#1459);
#439=VERTEX_POINT('',#1461);
#440=VERTEX_POINT('',#1465);
#441=VERTEX_POINT('',#1467);
#442=VERTEX_POINT('',#1471);
#443=VERTEX_POINT('',#1473);
#444=VERTEX_POINT('',#1477);
#445=VERTEX_POINT('',#1481);
#446=VERTEX_POINT('',#1483);
#447=VERTEX_POINT('',#1487);
#448=VERTEX_POINT('',#1491);
#449=VERTEX_POINT('',#1494);
#450=VERTEX_POINT('',#1496);
#451=EDGE_CURVE('',#367,#368,#330,.T.);
#452=EDGE_CURVE('',#367,#369,#158,.T.);
#453=EDGE_CURVE('',#370,#369,#331,.T.);
#454=EDGE_CURVE('',#368,#370,#159,.T.);
#455=EDGE_CURVE('',#368,#371,#160,.T.);
#456=EDGE_CURVE('',#372,#370,#161,.T.);
#457=EDGE_CURVE('',#371,#372,#162,.T.);
#458=EDGE_CURVE('',#371,#373,#332,.T.);
#459=EDGE_CURVE('',#374,#372,#333,.T.);
#460=EDGE_CURVE('',#373,#374,#163,.T.);
#461=EDGE_CURVE('',#369,#375,#164,.T.);
#462=EDGE_CURVE('',#375,#376,#165,.T.);
#463=EDGE_CURVE('',#376,#374,#166,.T.);
#464=EDGE_CURVE('',#373,#377,#167,.T.);
#465=EDGE_CURVE('',#377,#378,#334,.T.);
#466=EDGE_CURVE('',#378,#379,#168,.T.);
#467=EDGE_CURVE('',#379,#380,#335,.T.);
#468=EDGE_CURVE('',#380,#367,#169,.T.);
#469=EDGE_CURVE('',#381,#382,#170,.T.);
#470=EDGE_CURVE('',#382,#383,#336,.T.);
#471=EDGE_CURVE('',#383,#384,#171,.T.);
#472=EDGE_CURVE('',#384,#381,#337,.T.);
#473=EDGE_CURVE('',#377,#385,#172,.T.);
#474=EDGE_CURVE('',#386,#385,#338,.T.);
#475=EDGE_CURVE('',#378,#386,#173,.T.);
#476=EDGE_CURVE('',#387,#386,#174,.T.);
#477=EDGE_CURVE('',#379,#387,#175,.T.);
#478=EDGE_CURVE('',#388,#387,#339,.T.);
#479=EDGE_CURVE('',#380,#388,#176,.T.);
#480=EDGE_CURVE('',#385,#389,#177,.T.);
#481=EDGE_CURVE('',#389,#390,#178,.T.);
#482=EDGE_CURVE('',#390,#388,#179,.T.);
#483=EDGE_CURVE('',#391,#391,#340,.T.);
#484=EDGE_CURVE('',#391,#392,#180,.T.);
#485=EDGE_CURVE('',#393,#393,#341,.T.);
#486=EDGE_CURVE('',#393,#391,#181,.T.);
#487=EDGE_CURVE('',#394,#394,#342,.T.);
#488=EDGE_CURVE('',#394,#395,#182,.T.);
#489=EDGE_CURVE('',#396,#396,#343,.T.);
#490=EDGE_CURVE('',#396,#394,#183,.T.);
#491=EDGE_CURVE('',#397,#397,#344,.T.);
#492=EDGE_CURVE('',#397,#398,#184,.T.);
#493=EDGE_CURVE('',#399,#399,#345,.T.);
#494=EDGE_CURVE('',#399,#397,#185,.T.);
#495=EDGE_CURVE('',#400,#400,#346,.T.);
#496=EDGE_CURVE('',#400,#401,#186,.T.);
#497=EDGE_CURVE('',#402,#402,#347,.T.);
#498=EDGE_CURVE('',#402,#400,#187,.T.);
#499=EDGE_CURVE('',#403,#404,#188,.T.);
#500=EDGE_CURVE('',#403,#405,#189,.T.);
#501=EDGE_CURVE('',#405,#406,#190,.T.);
#502=EDGE_CURVE('',#404,#406,#191,.T.);
#503=EDGE_CURVE('',#407,#403,#348,.T.);
#504=EDGE_CURVE('',#407,#408,#192,.T.);
#505=EDGE_CURVE('',#408,#405,#349,.T.);
#506=EDGE_CURVE('',#409,#407,#193,.T.);
#507=EDGE_CURVE('',#409,#410,#194,.T.);
#508=EDGE_CURVE('',#410,#408,#195,.T.);
#509=EDGE_CURVE('',#404,#409,#350,.T.);
#510=EDGE_CURVE('',#406,#410,#351,.T.);
#511=EDGE_CURVE('',#411,#412,#196,.T.);
#512=EDGE_CURVE('',#411,#413,#197,.T.);
#513=EDGE_CURVE('',#413,#414,#198,.T.);
#514=EDGE_CURVE('',#412,#414,#199,.T.);
#515=EDGE_CURVE('',#415,#411,#352,.T.);
#516=EDGE_CURVE('',#415,#416,#200,.T.);
#517=EDGE_CURVE('',#416,#413,#353,.T.);
#518=EDGE_CURVE('',#417,#415,#201,.T.);
#519=EDGE_CURVE('',#417,#418,#202,.T.);
#520=EDGE_CURVE('',#418,#416,#203,.T.);
#521=EDGE_CURVE('',#412,#417,#354,.T.);
#522=EDGE_CURVE('',#414,#418,#355,.T.);
#523=EDGE_CURVE('',#419,#420,#15,.F.);
#524=EDGE_CURVE('',#420,#421,#356,.T.);
#525=EDGE_CURVE('',#422,#421,#16,.T.);
#526=EDGE_CURVE('',#422,#419,#357,.T.);
#527=EDGE_CURVE('',#423,#422,#204,.T.);
#528=EDGE_CURVE('',#424,#423,#358,.T.);
#529=EDGE_CURVE('',#424,#425,#205,.T.);
#530=EDGE_CURVE('',#425,#426,#359,.T.);
#531=EDGE_CURVE('',#427,#426,#206,.T.);
#532=EDGE_CURVE('',#428,#427,#360,.T.);
#533=EDGE_CURVE('',#428,#419,#207,.T.);
#534=EDGE_CURVE('',#427,#429,#361,.T.);
#535=EDGE_CURVE('',#426,#430,#362,.T.);
#536=EDGE_CURVE('',#430,#429,#208,.T.);
#537=EDGE_CURVE('',#431,#424,#363,.T.);
#538=EDGE_CURVE('',#432,#431,#209,.T.);
#539=EDGE_CURVE('',#432,#425,#364,.T.);
#540=EDGE_CURVE('',#430,#433,#210,.T.);
#541=EDGE_CURVE('',#434,#432,#211,.T.);
#542=EDGE_CURVE('',#433,#434,#365,.T.);
#543=EDGE_CURVE('',#383,#434,#212,.T.);
#544=EDGE_CURVE('',#382,#433,#213,.T.);
#545=EDGE_CURVE('',#435,#431,#214,.T.);
#546=EDGE_CURVE('',#384,#435,#215,.T.);
#547=EDGE_CURVE('',#436,#420,#216,.T.);
#548=EDGE_CURVE('',#436,#437,#217,.T.);
#549=EDGE_CURVE('',#421,#437,#218,.T.);
#550=EDGE_CURVE('',#419,#438,#219,.T.);
#551=EDGE_CURVE('',#439,#438,#220,.T.);
#552=EDGE_CURVE('',#436,#439,#221,.T.);
#553=EDGE_CURVE('',#437,#440,#222,.T.);
#554=EDGE_CURVE('',#441,#440,#223,.T.);
#555=EDGE_CURVE('',#422,#441,#224,.T.);
#556=EDGE_CURVE('',#423,#442,#225,.T.);
#557=EDGE_CURVE('',#443,#441,#226,.T.);
#558=EDGE_CURVE('',#442,#443,#227,.T.);
#559=EDGE_CURVE('',#444,#443,#228,.T.);
#560=EDGE_CURVE('',#440,#444,#229,.T.);
#561=EDGE_CURVE('',#445,#428,#230,.T.);
#562=EDGE_CURVE('',#445,#446,#231,.T.);
#563=EDGE_CURVE('',#438,#446,#232,.T.);
#564=EDGE_CURVE('',#446,#447,#233,.T.);
#565=EDGE_CURVE('',#447,#439,#234,.T.);
#566=EDGE_CURVE('',#429,#448,#235,.T.);
#567=EDGE_CURVE('',#448,#435,#366,.T.);
#568=EDGE_CURVE('',#442,#449,#236,.T.);
#569=EDGE_CURVE('',#449,#450,#237,.T.);
#570=EDGE_CURVE('',#450,#445,#238,.T.);
#571=EDGE_CURVE('',#381,#448,#239,.T.);
#572=EDGE_CURVE('',#447,#389,#240,.T.);
#573=EDGE_CURVE('',#390,#450,#241,.T.);
#574=EDGE_CURVE('',#375,#449,#242,.T.);
#575=EDGE_CURVE('',#376,#444,#243,.T.);
#576=ORIENTED_EDGE('',*,*,#451,.F.);
#577=ORIENTED_EDGE('',*,*,#452,.T.);
#578=ORIENTED_EDGE('',*,*,#453,.F.);
#579=ORIENTED_EDGE('',*,*,#454,.F.);
#580=ORIENTED_EDGE('',*,*,#455,.F.);
#581=ORIENTED_EDGE('',*,*,#454,.T.);
#582=ORIENTED_EDGE('',*,*,#456,.F.);
#583=ORIENTED_EDGE('',*,*,#457,.F.);
#584=ORIENTED_EDGE('',*,*,#458,.F.);
#585=ORIENTED_EDGE('',*,*,#457,.T.);
#586=ORIENTED_EDGE('',*,*,#459,.F.);
#587=ORIENTED_EDGE('',*,*,#460,.F.);
#588=ORIENTED_EDGE('',*,*,#459,.T.);
#589=ORIENTED_EDGE('',*,*,#456,.T.);
#590=ORIENTED_EDGE('',*,*,#453,.T.);
#591=ORIENTED_EDGE('',*,*,#461,.T.);
#592=ORIENTED_EDGE('',*,*,#462,.T.);
#593=ORIENTED_EDGE('',*,*,#463,.T.);
#594=ORIENTED_EDGE('',*,*,#451,.T.);
#595=ORIENTED_EDGE('',*,*,#455,.T.);
#596=ORIENTED_EDGE('',*,*,#458,.T.);
#597=ORIENTED_EDGE('',*,*,#464,.T.);
#598=ORIENTED_EDGE('',*,*,#465,.T.);
#599=ORIENTED_EDGE('',*,*,#466,.T.);
#600=ORIENTED_EDGE('',*,*,#467,.T.);
#601=ORIENTED_EDGE('',*,*,#468,.T.);
#602=ORIENTED_EDGE('',*,*,#469,.T.);
#603=ORIENTED_EDGE('',*,*,#470,.T.);
#604=ORIENTED_EDGE('',*,*,#471,.T.);
#605=ORIENTED_EDGE('',*,*,#472,.T.);
#606=ORIENTED_EDGE('',*,*,#465,.F.);
#607=ORIENTED_EDGE('',*,*,#473,.T.);
#608=ORIENTED_EDGE('',*,*,#474,.F.);
#609=ORIENTED_EDGE('',*,*,#475,.F.);
#610=ORIENTED_EDGE('',*,*,#466,.F.);
#611=ORIENTED_EDGE('',*,*,#475,.T.);
#612=ORIENTED_EDGE('',*,*,#476,.F.);
#613=ORIENTED_EDGE('',*,*,#477,.F.);
#614=ORIENTED_EDGE('',*,*,#467,.F.);
#615=ORIENTED_EDGE('',*,*,#477,.T.);
#616=ORIENTED_EDGE('',*,*,#478,.F.);
#617=ORIENTED_EDGE('',*,*,#479,.F.);
#618=ORIENTED_EDGE('',*,*,#478,.T.);
#619=ORIENTED_EDGE('',*,*,#476,.T.);
#620=ORIENTED_EDGE('',*,*,#474,.T.);
#621=ORIENTED_EDGE('',*,*,#480,.T.);
#622=ORIENTED_EDGE('',*,*,#481,.T.);
#623=ORIENTED_EDGE('',*,*,#482,.T.);
#624=ORIENTED_EDGE('',*,*,#483,.F.);
#625=ORIENTED_EDGE('',*,*,#484,.T.);
#626=ORIENTED_EDGE('',*,*,#484,.F.);
#627=ORIENTED_EDGE('',*,*,#485,.F.);
#628=ORIENTED_EDGE('',*,*,#486,.T.);
#629=ORIENTED_EDGE('',*,*,#483,.T.);
#630=ORIENTED_EDGE('',*,*,#486,.F.);
#631=ORIENTED_EDGE('',*,*,#487,.F.);
#632=ORIENTED_EDGE('',*,*,#488,.T.);
#633=ORIENTED_EDGE('',*,*,#488,.F.);
#634=ORIENTED_EDGE('',*,*,#489,.F.);
#635=ORIENTED_EDGE('',*,*,#490,.T.);
#636=ORIENTED_EDGE('',*,*,#487,.T.);
#637=ORIENTED_EDGE('',*,*,#490,.F.);
#638=ORIENTED_EDGE('',*,*,#491,.F.);
#639=ORIENTED_EDGE('',*,*,#492,.T.);
#640=ORIENTED_EDGE('',*,*,#492,.F.);
#641=ORIENTED_EDGE('',*,*,#493,.F.);
#642=ORIENTED_EDGE('',*,*,#494,.T.);
#643=ORIENTED_EDGE('',*,*,#491,.T.);
#644=ORIENTED_EDGE('',*,*,#494,.F.);
#645=ORIENTED_EDGE('',*,*,#495,.F.);
#646=ORIENTED_EDGE('',*,*,#496,.T.);
#647=ORIENTED_EDGE('',*,*,#496,.F.);
#648=ORIENTED_EDGE('',*,*,#497,.F.);
#649=ORIENTED_EDGE('',*,*,#498,.T.);
#650=ORIENTED_EDGE('',*,*,#495,.T.);
#651=ORIENTED_EDGE('',*,*,#498,.F.);
#652=ORIENTED_EDGE('',*,*,#499,.F.);
#653=ORIENTED_EDGE('',*,*,#500,.T.);
#654=ORIENTED_EDGE('',*,*,#501,.T.);
#655=ORIENTED_EDGE('',*,*,#502,.F.);
#656=ORIENTED_EDGE('',*,*,#503,.F.);
#657=ORIENTED_EDGE('',*,*,#504,.T.);
#658=ORIENTED_EDGE('',*,*,#505,.T.);
#659=ORIENTED_EDGE('',*,*,#500,.F.);
#660=ORIENTED_EDGE('',*,*,#506,.F.);
#661=ORIENTED_EDGE('',*,*,#507,.T.);
#662=ORIENTED_EDGE('',*,*,#508,.T.);
#663=ORIENTED_EDGE('',*,*,#504,.F.);
#664=ORIENTED_EDGE('',*,*,#509,.F.);
#665=ORIENTED_EDGE('',*,*,#502,.T.);
#666=ORIENTED_EDGE('',*,*,#510,.T.);
#667=ORIENTED_EDGE('',*,*,#507,.F.);
#668=ORIENTED_EDGE('',*,*,#510,.F.);
#669=ORIENTED_EDGE('',*,*,#501,.F.);
#670=ORIENTED_EDGE('',*,*,#505,.F.);
#671=ORIENTED_EDGE('',*,*,#508,.F.);
#672=ORIENTED_EDGE('',*,*,#489,.T.);
#673=ORIENTED_EDGE('',*,*,#493,.T.);
#674=ORIENTED_EDGE('',*,*,#511,.F.);
#675=ORIENTED_EDGE('',*,*,#512,.T.);
#676=ORIENTED_EDGE('',*,*,#513,.T.);
#677=ORIENTED_EDGE('',*,*,#514,.F.);
#678=ORIENTED_EDGE('',*,*,#515,.F.);
#679=ORIENTED_EDGE('',*,*,#516,.T.);
#680=ORIENTED_EDGE('',*,*,#517,.T.);
#681=ORIENTED_EDGE('',*,*,#512,.F.);
#682=ORIENTED_EDGE('',*,*,#518,.F.);
#683=ORIENTED_EDGE('',*,*,#519,.T.);
#684=ORIENTED_EDGE('',*,*,#520,.T.);
#685=ORIENTED_EDGE('',*,*,#516,.F.);
#686=ORIENTED_EDGE('',*,*,#521,.F.);
#687=ORIENTED_EDGE('',*,*,#514,.T.);
#688=ORIENTED_EDGE('',*,*,#522,.T.);
#689=ORIENTED_EDGE('',*,*,#519,.F.);
#690=ORIENTED_EDGE('',*,*,#522,.F.);
#691=ORIENTED_EDGE('',*,*,#513,.F.);
#692=ORIENTED_EDGE('',*,*,#517,.F.);
#693=ORIENTED_EDGE('',*,*,#520,.F.);
#694=ORIENTED_EDGE('',*,*,#485,.T.);
#695=ORIENTED_EDGE('',*,*,#497,.T.);
#696=ORIENTED_EDGE('',*,*,#523,.T.);
#697=ORIENTED_EDGE('',*,*,#524,.T.);
#698=ORIENTED_EDGE('',*,*,#525,.F.);
#699=ORIENTED_EDGE('',*,*,#526,.T.);
#700=ORIENTED_EDGE('',*,*,#526,.F.);
#701=ORIENTED_EDGE('',*,*,#527,.F.);
#702=ORIENTED_EDGE('',*,*,#528,.F.);
#703=ORIENTED_EDGE('',*,*,#529,.T.);
#704=ORIENTED_EDGE('',*,*,#530,.T.);
#705=ORIENTED_EDGE('',*,*,#531,.F.);
#706=ORIENTED_EDGE('',*,*,#532,.F.);
#707=ORIENTED_EDGE('',*,*,#533,.T.);
#708=ORIENTED_EDGE('',*,*,#534,.F.);
#709=ORIENTED_EDGE('',*,*,#531,.T.);
#710=ORIENTED_EDGE('',*,*,#535,.T.);
#711=ORIENTED_EDGE('',*,*,#536,.T.);
#712=ORIENTED_EDGE('',*,*,#537,.F.);
#713=ORIENTED_EDGE('',*,*,#538,.F.);
#714=ORIENTED_EDGE('',*,*,#539,.T.);
#715=ORIENTED_EDGE('',*,*,#529,.F.);
#716=ORIENTED_EDGE('',*,*,#540,.F.);
#717=ORIENTED_EDGE('',*,*,#535,.F.);
#718=ORIENTED_EDGE('',*,*,#530,.F.);
#719=ORIENTED_EDGE('',*,*,#539,.F.);
#720=ORIENTED_EDGE('',*,*,#541,.F.);
#721=ORIENTED_EDGE('',*,*,#542,.F.);
#722=ORIENTED_EDGE('',*,*,#542,.T.);
#723=ORIENTED_EDGE('',*,*,#543,.F.);
#724=ORIENTED_EDGE('',*,*,#470,.F.);
#725=ORIENTED_EDGE('',*,*,#544,.T.);
#726=ORIENTED_EDGE('',*,*,#541,.T.);
#727=ORIENTED_EDGE('',*,*,#538,.T.);
#728=ORIENTED_EDGE('',*,*,#545,.F.);
#729=ORIENTED_EDGE('',*,*,#546,.F.);
#730=ORIENTED_EDGE('',*,*,#471,.F.);
#731=ORIENTED_EDGE('',*,*,#543,.T.);
#732=ORIENTED_EDGE('',*,*,#524,.F.);
#733=ORIENTED_EDGE('',*,*,#547,.F.);
#734=ORIENTED_EDGE('',*,*,#548,.T.);
#735=ORIENTED_EDGE('',*,*,#549,.F.);
#736=ORIENTED_EDGE('',*,*,#547,.T.);
#737=ORIENTED_EDGE('',*,*,#523,.F.);
#738=ORIENTED_EDGE('',*,*,#550,.T.);
#739=ORIENTED_EDGE('',*,*,#551,.F.);
#740=ORIENTED_EDGE('',*,*,#552,.F.);
#741=ORIENTED_EDGE('',*,*,#549,.T.);
#742=ORIENTED_EDGE('',*,*,#553,.T.);
#743=ORIENTED_EDGE('',*,*,#554,.F.);
#744=ORIENTED_EDGE('',*,*,#555,.F.);
#745=ORIENTED_EDGE('',*,*,#525,.T.);
#746=ORIENTED_EDGE('',*,*,#556,.F.);
#747=ORIENTED_EDGE('',*,*,#527,.T.);
#748=ORIENTED_EDGE('',*,*,#555,.T.);
#749=ORIENTED_EDGE('',*,*,#557,.F.);
#750=ORIENTED_EDGE('',*,*,#558,.F.);
#751=ORIENTED_EDGE('',*,*,#559,.T.);
#752=ORIENTED_EDGE('',*,*,#557,.T.);
#753=ORIENTED_EDGE('',*,*,#554,.T.);
#754=ORIENTED_EDGE('',*,*,#560,.T.);
#755=ORIENTED_EDGE('',*,*,#499,.T.);
#756=ORIENTED_EDGE('',*,*,#509,.T.);
#757=ORIENTED_EDGE('',*,*,#506,.T.);
#758=ORIENTED_EDGE('',*,*,#503,.T.);
#759=ORIENTED_EDGE('',*,*,#561,.F.);
#760=ORIENTED_EDGE('',*,*,#562,.T.);
#761=ORIENTED_EDGE('',*,*,#563,.F.);
#762=ORIENTED_EDGE('',*,*,#550,.F.);
#763=ORIENTED_EDGE('',*,*,#533,.F.);
#764=ORIENTED_EDGE('',*,*,#563,.T.);
#765=ORIENTED_EDGE('',*,*,#564,.T.);
#766=ORIENTED_EDGE('',*,*,#565,.T.);
#767=ORIENTED_EDGE('',*,*,#551,.T.);
#768=ORIENTED_EDGE('',*,*,#511,.T.);
#769=ORIENTED_EDGE('',*,*,#521,.T.);
#770=ORIENTED_EDGE('',*,*,#518,.T.);
#771=ORIENTED_EDGE('',*,*,#515,.T.);
#772=ORIENTED_EDGE('',*,*,#534,.T.);
#773=ORIENTED_EDGE('',*,*,#566,.T.);
#774=ORIENTED_EDGE('',*,*,#567,.T.);
#775=ORIENTED_EDGE('',*,*,#545,.T.);
#776=ORIENTED_EDGE('',*,*,#537,.T.);
#777=ORIENTED_EDGE('',*,*,#528,.T.);
#778=ORIENTED_EDGE('',*,*,#556,.T.);
#779=ORIENTED_EDGE('',*,*,#568,.T.);
#780=ORIENTED_EDGE('',*,*,#569,.T.);
#781=ORIENTED_EDGE('',*,*,#570,.T.);
#782=ORIENTED_EDGE('',*,*,#561,.T.);
#783=ORIENTED_EDGE('',*,*,#532,.T.);
#784=ORIENTED_EDGE('',*,*,#540,.T.);
#785=ORIENTED_EDGE('',*,*,#544,.F.);
#786=ORIENTED_EDGE('',*,*,#469,.F.);
#787=ORIENTED_EDGE('',*,*,#571,.T.);
#788=ORIENTED_EDGE('',*,*,#566,.F.);
#789=ORIENTED_EDGE('',*,*,#536,.F.);
#790=ORIENTED_EDGE('',*,*,#567,.F.);
#791=ORIENTED_EDGE('',*,*,#571,.F.);
#792=ORIENTED_EDGE('',*,*,#472,.F.);
#793=ORIENTED_EDGE('',*,*,#546,.T.);
#794=ORIENTED_EDGE('',*,*,#572,.F.);
#795=ORIENTED_EDGE('',*,*,#564,.F.);
#796=ORIENTED_EDGE('',*,*,#562,.F.);
#797=ORIENTED_EDGE('',*,*,#570,.F.);
#798=ORIENTED_EDGE('',*,*,#573,.F.);
#799=ORIENTED_EDGE('',*,*,#481,.F.);
#800=ORIENTED_EDGE('',*,*,#573,.T.);
#801=ORIENTED_EDGE('',*,*,#569,.F.);
#802=ORIENTED_EDGE('',*,*,#574,.F.);
#803=ORIENTED_EDGE('',*,*,#461,.F.);
#804=ORIENTED_EDGE('',*,*,#452,.F.);
#805=ORIENTED_EDGE('',*,*,#468,.F.);
#806=ORIENTED_EDGE('',*,*,#479,.T.);
#807=ORIENTED_EDGE('',*,*,#482,.F.);
#808=ORIENTED_EDGE('',*,*,#574,.T.);
#809=ORIENTED_EDGE('',*,*,#568,.F.);
#810=ORIENTED_EDGE('',*,*,#558,.T.);
#811=ORIENTED_EDGE('',*,*,#559,.F.);
#812=ORIENTED_EDGE('',*,*,#575,.F.);
#813=ORIENTED_EDGE('',*,*,#462,.F.);
#814=ORIENTED_EDGE('',*,*,#575,.T.);
#815=ORIENTED_EDGE('',*,*,#560,.F.);
#816=ORIENTED_EDGE('',*,*,#553,.F.);
#817=ORIENTED_EDGE('',*,*,#548,.F.);
#818=ORIENTED_EDGE('',*,*,#552,.T.);
#819=ORIENTED_EDGE('',*,*,#565,.F.);
#820=ORIENTED_EDGE('',*,*,#572,.T.);
#821=ORIENTED_EDGE('',*,*,#480,.F.);
#822=ORIENTED_EDGE('',*,*,#473,.F.);
#823=ORIENTED_EDGE('',*,*,#464,.F.);
#824=ORIENTED_EDGE('',*,*,#460,.T.);
#825=ORIENTED_EDGE('',*,*,#463,.F.);
#826=CYLINDRICAL_SURFACE('',#905,5.99999999999999);
#827=CYLINDRICAL_SURFACE('',#909,6.);
#828=CYLINDRICAL_SURFACE('',#918,6.);
#829=CYLINDRICAL_SURFACE('',#921,5.99999999999999);
#830=CYLINDRICAL_SURFACE('',#926,1.5);
#831=CYLINDRICAL_SURFACE('',#930,1.5);
#832=CYLINDRICAL_SURFACE('',#934,1.5);
#833=CYLINDRICAL_SURFACE('',#938,1.5);
#834=CYLINDRICAL_SURFACE('',#941,2.5);
#835=CYLINDRICAL_SURFACE('',#945,2.50000000000001);
#836=CYLINDRICAL_SURFACE('',#950,2.5);
#837=CYLINDRICAL_SURFACE('',#954,2.5);
#838=CYLINDRICAL_SURFACE('',#961,27.0416345659799);
#839=CYLINDRICAL_SURFACE('',#965,6.);
#840=CYLINDRICAL_SURFACE('',#968,5.99999999999999);
#841=CYLINDRICAL_SURFACE('',#973,8.);
#842=CYLINDRICAL_SURFACE('',#985,8.);
#843=ADVANCED_FACE('',(#55),#826,.T.);
#844=ADVANCED_FACE('',(#56),#29,.T.);
#845=ADVANCED_FACE('',(#57),#827,.T.);
#846=ADVANCED_FACE('',(#58),#30,.T.);
#847=ADVANCED_FACE('',(#59,#22),#31,.F.);
#848=ADVANCED_FACE('',(#60),#828,.T.);
#849=ADVANCED_FACE('',(#61),#32,.T.);
#850=ADVANCED_FACE('',(#62),#829,.T.);
#851=ADVANCED_FACE('',(#63),#33,.T.);
#852=ADVANCED_FACE('',(#64),#17,.F.);
#853=ADVANCED_FACE('',(#65),#830,.F.);
#854=ADVANCED_FACE('',(#66),#18,.F.);
#855=ADVANCED_FACE('',(#67),#831,.F.);
#856=ADVANCED_FACE('',(#68),#19,.F.);
#857=ADVANCED_FACE('',(#69),#832,.F.);
#858=ADVANCED_FACE('',(#70),#20,.F.);
#859=ADVANCED_FACE('',(#71),#833,.F.);
#860=ADVANCED_FACE('',(#72),#34,.F.);
#861=ADVANCED_FACE('',(#73),#834,.F.);
#862=ADVANCED_FACE('',(#74),#35,.F.);
#863=ADVANCED_FACE('',(#75),#835,.F.);
#864=ADVANCED_FACE('',(#76,#23,#24),#36,.T.);
#865=ADVANCED_FACE('',(#77),#37,.F.);
#866=ADVANCED_FACE('',(#78),#836,.F.);
#867=ADVANCED_FACE('',(#79),#38,.F.);
#868=ADVANCED_FACE('',(#80),#837,.F.);
#869=ADVANCED_FACE('',(#81,#25,#26),#39,.T.);
#870=ADVANCED_FACE('',(#82),#21,.F.);
#871=ADVANCED_FACE('',(#83),#838,.F.);
#872=ADVANCED_FACE('',(#84),#839,.T.);
#873=ADVANCED_FACE('',(#85),#840,.T.);
#874=ADVANCED_FACE('',(#86),#40,.T.);
#875=ADVANCED_FACE('',(#87),#841,.F.);
#876=ADVANCED_FACE('',(#88),#41,.F.);
#877=ADVANCED_FACE('',(#89),#42,.T.);
#878=ADVANCED_FACE('',(#90),#43,.T.);
#879=ADVANCED_FACE('',(#91),#44,.T.);
#880=ADVANCED_FACE('',(#92),#45,.T.);
#881=ADVANCED_FACE('',(#93,#27),#46,.T.);
#882=ADVANCED_FACE('',(#94),#47,.T.);
#883=ADVANCED_FACE('',(#95,#28),#48,.T.);
#884=ADVANCED_FACE('',(#96),#49,.T.);
#885=ADVANCED_FACE('',(#97),#50,.F.);
#886=ADVANCED_FACE('',(#98),#842,.F.);
#887=ADVANCED_FACE('',(#99),#51,.T.);
#888=ADVANCED_FACE('',(#100),#52,.T.);
#889=ADVANCED_FACE('',(#101),#53,.T.);
#890=ADVANCED_FACE('',(#102),#54,.T.);
#891=CLOSED_SHELL('',(#843,#844,#845,#846,#847,#848,#849,#850,#851,#852,
#853,#854,#855,#856,#857,#858,#859,#860,#861,#862,#863,#864,#865,#866,#867,
#868,#869,#870,#871,#872,#873,#874,#875,#876,#877,#878,#879,#880,#881,#882,
#883,#884,#885,#886,#887,#888,#889,#890));
#892=DERIVED_UNIT_ELEMENT(#894,1.);
#893=DERIVED_UNIT_ELEMENT(#1515,-3.);
#894=(
MASS_UNIT()
NAMED_UNIT(*)
SI_UNIT(.KILO.,.GRAM.)
);
#895=DERIVED_UNIT((#892,#893));
#896=MEASURE_REPRESENTATION_ITEM('density measure',
POSITIVE_RATIO_MEASURE(7850.),#895);
#897=PROPERTY_DEFINITION_REPRESENTATION(#902,#899);
#898=PROPERTY_DEFINITION_REPRESENTATION(#903,#900);
#899=REPRESENTATION('material name',(#901),#1512);
#900=REPRESENTATION('density',(#896),#1512);
#901=DESCRIPTIVE_REPRESENTATION_ITEM('Steel','Steel');
#902=PROPERTY_DEFINITION('material property','material name',#1522);
#903=PROPERTY_DEFINITION('material property','density of part',#1522);
#904=AXIS2_PLACEMENT_3D('',#1248,#990,#991);
#905=AXIS2_PLACEMENT_3D('',#1249,#992,#993);
#906=AXIS2_PLACEMENT_3D('',#1252,#994,#995);
#907=AXIS2_PLACEMENT_3D('',#1256,#997,#998);
#908=AXIS2_PLACEMENT_3D('',#1258,#1000,#1001);
#909=AXIS2_PLACEMENT_3D('',#1264,#1005,#1006);
#910=AXIS2_PLACEMENT_3D('',#1266,#1007,#1008);
#911=AXIS2_PLACEMENT_3D('',#1268,#1009,#1010);
#912=AXIS2_PLACEMENT_3D('',#1270,#1012,#1013);
#913=AXIS2_PLACEMENT_3D('',#1276,#1017,#1018);
#914=AXIS2_PLACEMENT_3D('',#1280,#1020,#1021);
#915=AXIS2_PLACEMENT_3D('',#1284,#1023,#1024);
#916=AXIS2_PLACEMENT_3D('',#1290,#1027,#1028);
#917=AXIS2_PLACEMENT_3D('',#1293,#1030,#1031);
#918=AXIS2_PLACEMENT_3D('',#1294,#1032,#1033);
#919=AXIS2_PLACEMENT_3D('',#1298,#1035,#1036);
#920=AXIS2_PLACEMENT_3D('',#1300,#1038,#1039);
#921=AXIS2_PLACEMENT_3D('',#1304,#1042,#1043);
#922=AXIS2_PLACEMENT_3D('',#1306,#1044,#1045);
#923=AXIS2_PLACEMENT_3D('',#1308,#1047,#1048);
#924=AXIS2_PLACEMENT_3D('',#1314,#1052,#1053);
#925=AXIS2_PLACEMENT_3D('',#1316,#1054,#1055);
#926=AXIS2_PLACEMENT_3D('',#1319,#1057,#1058);
#927=AXIS2_PLACEMENT_3D('',#1321,#1059,#1060);
#928=AXIS2_PLACEMENT_3D('',#1323,#1062,#1063);
#929=AXIS2_PLACEMENT_3D('',#1325,#1064,#1065);
#930=AXIS2_PLACEMENT_3D('',#1328,#1067,#1068);
#931=AXIS2_PLACEMENT_3D('',#1330,#1069,#1070);
#932=AXIS2_PLACEMENT_3D('',#1332,#1072,#1073);
#933=AXIS2_PLACEMENT_3D('',#1334,#1074,#1075);
#934=AXIS2_PLACEMENT_3D('',#1337,#1077,#1078);
#935=AXIS2_PLACEMENT_3D('',#1339,#1079,#1080);
#936=AXIS2_PLACEMENT_3D('',#1341,#1082,#1083);
#937=AXIS2_PLACEMENT_3D('',#1343,#1084,#1085);
#938=AXIS2_PLACEMENT_3D('',#1346,#1087,#1088);
#939=AXIS2_PLACEMENT_3D('',#1348,#1089,#1090);
#940=AXIS2_PLACEMENT_3D('',#1350,#1092,#1093);
#941=AXIS2_PLACEMENT_3D('',#1359,#1098,#1099);
#942=AXIS2_PLACEMENT_3D('',#1361,#1100,#1101);
#943=AXIS2_PLACEMENT_3D('',#1364,#1103,#1104);
#944=AXIS2_PLACEMENT_3D('',#1365,#1105,#1106);
#945=AXIS2_PLACEMENT_3D('',#1371,#1110,#1111);
#946=AXIS2_PLACEMENT_3D('',#1372,#1112,#1113);
#947=AXIS2_PLACEMENT_3D('',#1373,#1114,#1115);
#948=AXIS2_PLACEMENT_3D('',#1374,#1116,#1117);
#949=AXIS2_PLACEMENT_3D('',#1375,#1118,#1119);
#950=AXIS2_PLACEMENT_3D('',#1384,#1124,#1125);
#951=AXIS2_PLACEMENT_3D('',#1386,#1126,#1127);
#952=AXIS2_PLACEMENT_3D('',#1389,#1129,#1130);
#953=AXIS2_PLACEMENT_3D('',#1390,#1131,#1132);
#954=AXIS2_PLACEMENT_3D('',#1396,#1136,#1137);
#955=AXIS2_PLACEMENT_3D('',#1397,#1138,#1139);
#956=AXIS2_PLACEMENT_3D('',#1398,#1140,#1141);
#957=AXIS2_PLACEMENT_3D('',#1399,#1142,#1143);
#958=AXIS2_PLACEMENT_3D('',#1400,#1144,#1145);
#959=AXIS2_PLACEMENT_3D('',#1407,#1146,#1147);
#960=AXIS2_PLACEMENT_3D('',#1412,#1148,#1149);
#961=AXIS2_PLACEMENT_3D('',#1413,#1150,#1151);
#962=AXIS2_PLACEMENT_3D('',#1417,#1153,#1154);
#963=AXIS2_PLACEMENT_3D('',#1421,#1156,#1157);
#964=AXIS2_PLACEMENT_3D('',#1425,#1159,#1160);
#965=AXIS2_PLACEMENT_3D('',#1427,#1162,#1163);
#966=AXIS2_PLACEMENT_3D('',#1429,#1164,#1165);
#967=AXIS2_PLACEMENT_3D('',#1431,#1166,#1167);
#968=AXIS2_PLACEMENT_3D('',#1433,#1169,#1170);
#969=AXIS2_PLACEMENT_3D('',#1435,#1171,#1172);
#970=AXIS2_PLACEMENT_3D('',#1438,#1174,#1175);
#971=AXIS2_PLACEMENT_3D('',#1439,#1176,#1177);
#972=AXIS2_PLACEMENT_3D('',#1444,#1180,#1181);
#973=AXIS2_PLACEMENT_3D('',#1445,#1182,#1183);
#974=AXIS2_PLACEMENT_3D('',#1448,#1186,#1187);
#975=AXIS2_PLACEMENT_3D('',#1452,#1190,#1191);
#976=AXIS2_PLACEMENT_3D('',#1458,#1195,#1196);
#977=AXIS2_PLACEMENT_3D('',#1464,#1200,#1201);
#978=AXIS2_PLACEMENT_3D('',#1470,#1205,#1206);
#979=AXIS2_PLACEMENT_3D('',#1476,#1210,#1211);
#980=AXIS2_PLACEMENT_3D('',#1480,#1214,#1215);
#981=AXIS2_PLACEMENT_3D('',#1486,#1219,#1220);
#982=AXIS2_PLACEMENT_3D('',#1490,#1223,#1224);
#983=AXIS2_PLACEMENT_3D('',#1493,#1226,#1227);
#984=AXIS2_PLACEMENT_3D('',#1499,#1231,#1232);
#985=AXIS2_PLACEMENT_3D('',#1501,#1234,#1235);
#986=AXIS2_PLACEMENT_3D('',#1502,#1236,#1237);
#987=AXIS2_PLACEMENT_3D('',#1505,#1240,#1241);
#988=AXIS2_PLACEMENT_3D('',#1507,#1243,#1244);
#989=AXIS2_PLACEMENT_3D('',#1509,#1246,#1247);
#990=DIRECTION('axis',(0.,0.,1.));
#991=DIRECTION('refdir',(1.,0.,0.));
#992=DIRECTION('center_axis',(0.,0.,-1.));
#993=DIRECTION('ref_axis',(1.,5.92118946466751E-15,0.));
#994=DIRECTION('center_axis',(0.,0.,1.));
#995=DIRECTION('ref_axis',(1.,5.92118946466751E-15,0.));
#996=DIRECTION('',(0.,0.,-1.));
#997=DIRECTION('center_axis',(0.,0.,-1.));
#998=DIRECTION('ref_axis',(1.,5.92118946466751E-15,0.));
#999=DIRECTION('',(0.,0.,-1.));
#1000=DIRECTION('center_axis',(1.,-5.04646829375071E-17,0.));
#1001=DIRECTION('ref_axis',(-5.04646829375071E-17,-1.,0.));
#1002=DIRECTION('',(5.04646829375071E-17,1.,0.));
#1003=DIRECTION('',(-5.04646829375071E-17,-1.,0.));
#1004=DIRECTION('',(0.,0.,-1.));
#1005=DIRECTION('center_axis',(0.,0.,-1.));
#1006=DIRECTION('ref_axis',(-7.40148683083438E-16,1.,0.));
#1007=DIRECTION('center_axis',(0.,0.,1.));
#1008=DIRECTION('ref_axis',(-7.40148683083438E-16,1.,0.));
#1009=DIRECTION('center_axis',(0.,0.,-1.));
#1010=DIRECTION('ref_axis',(-7.40148683083438E-16,1.,0.));
#1011=DIRECTION('',(0.,0.,-1.));
#1012=DIRECTION('center_axis',(0.,0.,-1.));
#1013=DIRECTION('ref_axis',(1.,0.,0.));
#1014=DIRECTION('',(-1.,0.,0.));
#1015=DIRECTION('',(0.,1.,0.));
#1016=DIRECTION('',(1.,0.,0.));
#1017=DIRECTION('center_axis',(0.,0.,1.));
#1018=DIRECTION('ref_axis',(1.,0.,0.));
#1019=DIRECTION('',(1.,0.,0.));
#1020=DIRECTION('center_axis',(0.,0.,1.));
#1021=DIRECTION('ref_axis',(-1.,0.,0.));
#1022=DIRECTION('',(5.04646829375071E-17,-1.,0.));
#1023=DIRECTION('center_axis',(0.,0.,1.));
#1024=DIRECTION('ref_axis',(1.48029736616688E-15,-1.,0.));
#1025=DIRECTION('',(-1.,0.,0.));
#1026=DIRECTION('',(-3.00060276925718E-17,1.,0.));
#1027=DIRECTION('center_axis',(0.,0.,1.));
#1028=DIRECTION('ref_axis',(-1.,0.,0.));
#1029=DIRECTION('',(6.00120553851436E-17,-1.,0.));
#1030=DIRECTION('center_axis',(0.,0.,1.));
#1031=DIRECTION('ref_axis',(1.,0.,0.));
#1032=DIRECTION('center_axis',(0.,0.,-1.));
#1033=DIRECTION('ref_axis',(-1.,0.,0.));
#1034=DIRECTION('',(0.,0.,-1.));
#1035=DIRECTION('center_axis',(0.,0.,-1.));
#1036=DIRECTION('ref_axis',(-1.,0.,0.));
#1037=DIRECTION('',(0.,0.,-1.));
#1038=DIRECTION('center_axis',(-1.,-5.04646829375071E-17,0.));
#1039=DIRECTION('ref_axis',(-5.04646829375071E-17,1.,0.));
#1040=DIRECTION('',(-5.04646829375071E-17,1.,0.));
#1041=DIRECTION('',(0.,0.,-1.));
#1042=DIRECTION('center_axis',(0.,0.,-1.));
#1043=DIRECTION('ref_axis',(1.48029736616688E-15,-1.,0.));
#1044=DIRECTION('center_axis',(0.,0.,-1.));
#1045=DIRECTION('ref_axis',(1.48029736616688E-15,-1.,0.));
#1046=DIRECTION('',(0.,0.,-1.));
#1047=DIRECTION('center_axis',(0.,0.,-1.));
#1048=DIRECTION('ref_axis',(1.,0.,0.));
#1049=DIRECTION('',(1.,0.,0.));
#1050=DIRECTION('',(0.,-1.,0.));
#1051=DIRECTION('',(-1.,0.,0.));
#1052=DIRECTION('center_axis',(0.,0.,1.));
#1053=DIRECTION('ref_axis',(1.,0.,0.));
#1054=DIRECTION('center_axis',(0.,0.,-1.));
#1055=DIRECTION('ref_axis',(1.,0.,0.));
#1056=DIRECTION('',(0.857167300702112,-1.04972719113862E-16,-0.515038074910054));
#1057=DIRECTION('center_axis',(0.,0.,-1.));
#1058=DIRECTION('ref_axis',(1.,0.,0.));
#1059=DIRECTION('center_axis',(0.,0.,-1.));
#1060=DIRECTION('ref_axis',(1.,0.,0.));
#1061=DIRECTION('',(0.,0.,-1.));
#1062=DIRECTION('center_axis',(0.,0.,1.));
#1063=DIRECTION('ref_axis',(1.,0.,0.));
#1064=DIRECTION('center_axis',(0.,0.,-1.));
#1065=DIRECTION('ref_axis',(1.,0.,0.));
#1066=DIRECTION('',(0.857167300702112,-1.04972719113862E-16,-0.515038074910054));
#1067=DIRECTION('center_axis',(0.,0.,-1.));
#1068=DIRECTION('ref_axis',(1.,0.,0.));
#1069=DIRECTION('center_axis',(0.,0.,-1.));
#1070=DIRECTION('ref_axis',(1.,0.,0.));
#1071=DIRECTION('',(0.,0.,-1.));
#1072=DIRECTION('center_axis',(0.,0.,1.));
#1073=DIRECTION('ref_axis',(1.,0.,0.));
#1074=DIRECTION('center_axis',(0.,0.,-1.));
#1075=DIRECTION('ref_axis',(1.,0.,0.));
#1076=DIRECTION('',(0.857167300702112,-1.04972719113862E-16,-0.515038074910054));
#1077=DIRECTION('center_axis',(0.,0.,-1.));
#1078=DIRECTION('ref_axis',(1.,0.,0.));
#1079=DIRECTION('center_axis',(0.,0.,-1.));
#1080=DIRECTION('ref_axis',(1.,0.,0.));
#1081=DIRECTION('',(0.,0.,-1.));
#1082=DIRECTION('center_axis',(0.,0.,1.));
#1083=DIRECTION('ref_axis',(1.,0.,0.));
#1084=DIRECTION('center_axis',(0.,0.,-1.));
#1085=DIRECTION('ref_axis',(1.,0.,0.));
#1086=DIRECTION('',(0.857167300702112,-1.04972719113862E-16,-0.515038074910054));
#1087=DIRECTION('center_axis',(0.,0.,-1.));
#1088=DIRECTION('ref_axis',(1.,0.,0.));
#1089=DIRECTION('center_axis',(0.,0.,-1.));
#1090=DIRECTION('ref_axis',(1.,0.,0.));
#1091=DIRECTION('',(0.,0.,-1.));
#1092=DIRECTION('center_axis',(-0.984807753012208,0.173648177666931,0.));
#1093=DIRECTION('ref_axis',(0.173648177666931,0.984807753012208,0.));
#1094=DIRECTION('',(0.173648177666931,0.984807753012208,0.));
#1095=DIRECTION('',(0.,0.,-1.));
#1096=DIRECTION('',(0.173648177666931,0.984807753012208,0.));
#1097=DIRECTION('',(0.,0.,-1.));
#1098=DIRECTION('center_axis',(0.,0.,-1.));
#1099=DIRECTION('ref_axis',(-0.984807753012207,0.173648177666935,0.));
#1100=DIRECTION('center_axis',(0.,0.,-1.));
#1101=DIRECTION('ref_axis',(-0.984807753012207,0.173648177666935,0.));
#1102=DIRECTION('',(0.,0.,-1.));
#1103=DIRECTION('center_axis',(0.,0.,-1.));
#1104=DIRECTION('ref_axis',(-0.984807753012207,0.173648177666935,0.));
#1105=DIRECTION('center_axis',(0.984807753012208,-0.173648177666931,0.));
#1106=DIRECTION('ref_axis',(-0.173648177666931,-0.984807753012208,0.));
#1107=DIRECTION('',(-0.173648177666931,-0.984807753012208,0.));
#1108=DIRECTION('',(0.,0.,-1.));
#1109=DIRECTION('',(-0.173648177666931,-0.984807753012208,0.));
#1110=DIRECTION('center_axis',(0.,0.,-1.));
#1111=DIRECTION('ref_axis',(0.984807753012209,-0.173648177666926,0.));
#1112=DIRECTION('center_axis',(0.,0.,-1.));
#1113=DIRECTION('ref_axis',(0.984807753012209,-0.173648177666926,0.));
#1114=DIRECTION('center_axis',(0.,0.,-1.));
#1115=DIRECTION('ref_axis',(0.984807753012209,-0.173648177666926,0.));
#1116=DIRECTION('center_axis',(0.,0.,1.));
#1117=DIRECTION('ref_axis',(-1.,0.,0.));
#1118=DIRECTION('center_axis',(-0.984807753012208,-0.173648177666931,0.));
#1119=DIRECTION('ref_axis',(-0.173648177666931,0.984807753012208,0.));
#1120=DIRECTION('',(-0.173648177666931,0.984807753012208,0.));
#1121=DIRECTION('',(0.,0.,-1.));
#1122=DIRECTION('',(-0.173648177666931,0.984807753012208,0.));
#1123=DIRECTION('',(0.,0.,-1.));
#1124=DIRECTION('center_axis',(0.,0.,-1.));
#1125=DIRECTION('ref_axis',(-0.984807753012208,-0.173648177666928,0.));
#1126=DIRECTION('center_axis',(0.,0.,-1.));
#1127=DIRECTION('ref_axis',(-0.984807753012208,-0.173648177666928,0.));
#1128=DIRECTION('',(0.,0.,-1.));
#1129=DIRECTION('center_axis',(0.,0.,-1.));
#1130=DIRECTION('ref_axis',(-0.984807753012208,-0.173648177666928,0.));
#1131=DIRECTION('center_axis',(0.984807753012208,0.173648177666931,0.));
#1132=DIRECTION('ref_axis',(0.173648177666931,-0.984807753012208,0.));
#1133=DIRECTION('',(0.173648177666931,-0.984807753012208,0.));
#1134=DIRECTION('',(0.,0.,-1.));
#1135=DIRECTION('',(0.173648177666931,-0.984807753012208,0.));
#1136=DIRECTION('center_axis',(0.,0.,-1.));
#1137=DIRECTION('ref_axis',(0.984807753012207,0.173648177666934,0.));
#1138=DIRECTION('center_axis',(0.,0.,-1.));
#1139=DIRECTION('ref_axis',(0.984807753012207,0.173648177666934,0.));
#1140=DIRECTION('center_axis',(0.,0.,-1.));
#1141=DIRECTION('ref_axis',(0.984807753012207,0.173648177666934,0.));
#1142=DIRECTION('center_axis',(0.,0.,1.));
#1143=DIRECTION('ref_axis',(-1.,0.,0.));
#1144=DIRECTION('center_axis',(0.,0.,1.));
#1145=DIRECTION('ref_axis',(-0.423707851742135,0.905798905040222,0.));
#1146=DIRECTION('center_axis',(0.,0.,1.));
#1147=DIRECTION('ref_axis',(-0.423707851742135,0.905798905040222,0.));
#1148=DIRECTION('center_axis',(0.,0.,-1.));
#1149=DIRECTION('ref_axis',(-0.423707851742135,0.905798905040222,0.));
#1150=DIRECTION('center_axis',(0.,0.,1.));
#1151=DIRECTION('ref_axis',(1.64224247896891E-16,1.,0.));
#1152=DIRECTION('',(0.,0.,1.));
#1153=DIRECTION('center_axis',(0.,0.,-1.));
#1154=DIRECTION('ref_axis',(0.423707851742135,-0.905798905040222,0.));
#1155=DIRECTION('',(0.,0.,-1.));
#1156=DIRECTION('center_axis',(0.,0.,-1.));
#1157=DIRECTION('ref_axis',(0.423707851742135,-0.905798905040222,0.));
#1158=DIRECTION('',(0.,0.,-1.));
#1159=DIRECTION('center_axis',(0.,0.,-1.));
#1160=DIRECTION('ref_axis',(0.423707851742135,-0.905798905040222,0.));
#1161=DIRECTION('',(0.,0.,1.));
#1162=DIRECTION('center_axis',(0.,0.,-1.));
#1163=DIRECTION('ref_axis',(-0.423707851742134,0.905798905040222,0.));
#1164=DIRECTION('center_axis',(0.,0.,1.));
#1165=DIRECTION('ref_axis',(-0.423707851742134,0.905798905040222,0.));
#1166=DIRECTION('center_axis',(0.,0.,1.));
#1167=DIRECTION('ref_axis',(-0.423707851742134,0.905798905040222,0.));
#1168=DIRECTION('',(0.,0.,1.));
#1169=DIRECTION('center_axis',(0.,0.,-1.));
#1170=DIRECTION('ref_axis',(1.,-7.40148683083439E-16,0.));
#1171=DIRECTION('center_axis',(0.,0.,1.));
#1172=DIRECTION('ref_axis',(1.,-7.40148683083439E-16,0.));
#1173=DIRECTION('',(0.,0.,1.));
#1174=DIRECTION('center_axis',(0.,0.,1.));
#1175=DIRECTION('ref_axis',(1.,-7.40148683083439E-16,0.));
#1176=DIRECTION('center_axis',(0.,0.,1.));
#1177=DIRECTION('ref_axis',(-1.,0.,0.));
#1178=DIRECTION('',(-3.00060276925718E-17,1.,0.));
#1179=DIRECTION('',(6.00120553851436E-17,-1.,0.));
#1180=DIRECTION('center_axis',(0.,0.,1.));
#1181=DIRECTION('ref_axis',(-1.,0.,0.));
#1182=DIRECTION('center_axis',(0.,0.,1.));
#1183=DIRECTION('ref_axis',(-1.,0.,0.));
#1184=DIRECTION('',(0.,0.,1.));
#1185=DIRECTION('',(0.,0.,1.));
#1186=DIRECTION('center_axis',(-1.,-6.00120553851436E-17,0.));
#1187=DIRECTION('ref_axis',(6.00120553851436E-17,-1.,0.));
#1188=DIRECTION('',(-6.00120553851436E-17,1.,0.));
#1189=DIRECTION('',(0.,0.,1.));
#1190=DIRECTION('center_axis',(0.,0.,1.));
#1191=DIRECTION('ref_axis',(-1.,0.,0.));
#1192=DIRECTION('',(0.173648177666931,-0.984807753012208,0.));
#1193=DIRECTION('',(-1.,0.,0.));
#1194=DIRECTION('',(0.173648177666931,0.984807753012208,0.));
#1195=DIRECTION('center_axis',(-0.984807753012208,-0.173648177666931,0.));
#1196=DIRECTION('ref_axis',(0.173648177666931,-0.984807753012208,0.));
#1197=DIRECTION('',(0.,0.,1.));
#1198=DIRECTION('',(0.173648177666931,-0.984807753012208,0.));
#1199=DIRECTION('',(0.,0.,1.));
#1200=DIRECTION('center_axis',(0.984807753012208,-0.173648177666931,0.));
#1201=DIRECTION('ref_axis',(0.173648177666931,0.984807753012208,0.));
#1202=DIRECTION('',(0.,0.,1.));
#1203=DIRECTION('',(0.173648177666931,0.984807753012208,0.));
#1204=DIRECTION('',(0.,0.,1.));
#1205=DIRECTION('center_axis',(-2.22044604925031E-16,-1.,0.));
#1206=DIRECTION('ref_axis',(1.,-2.22044604925031E-16,0.));
#1207=DIRECTION('',(-1.,2.22044604925031E-16,0.));
#1208=DIRECTION('',(1.,-2.22044604925031E-16,0.));
#1209=DIRECTION('',(0.,0.,1.));
#1210=DIRECTION('center_axis',(0.,0.,1.));
#1211=DIRECTION('ref_axis',(1.,0.,0.));
#1212=DIRECTION('',(0.,-1.,0.));
#1213=DIRECTION('',(-1.,0.,0.));
#1214=DIRECTION('center_axis',(4.44089209850063E-16,-1.,0.));
#1215=DIRECTION('ref_axis',(1.,4.44089209850063E-16,0.));
#1216=DIRECTION('',(-1.,-4.44089209850063E-16,0.));
#1217=DIRECTION('',(0.,0.,1.));
#1218=DIRECTION('',(1.,4.44089209850063E-16,0.));
#1219=DIRECTION('center_axis',(0.,0.,1.));
#1220=DIRECTION('ref_axis',(1.,0.,0.));
#1221=DIRECTION('',(0.,1.,0.));
#1222=DIRECTION('',(-1.,0.,0.));
#1223=DIRECTION('center_axis',(0.,0.,1.));
#1224=DIRECTION('ref_axis',(1.,0.,0.));
#1225=DIRECTION('',(3.00060276925718E-17,-1.,0.));
#1226=DIRECTION('center_axis',(0.,0.,-1.));
#1227=DIRECTION('ref_axis',(1.,0.,0.));
#1228=DIRECTION('',(0.,-1.,0.));
#1229=DIRECTION('',(1.,0.,0.));
#1230=DIRECTION('',(0.,1.,0.));
#1231=DIRECTION('center_axis',(1.,3.00060276925718E-17,0.));
#1232=DIRECTION('ref_axis',(-3.00060276925718E-17,1.,0.));
#1233=DIRECTION('',(0.,0.,1.));
#1234=DIRECTION('center_axis',(0.,0.,1.));
#1235=DIRECTION('ref_axis',(1.,0.,0.));
#1236=DIRECTION('center_axis',(1.,0.,0.));
#1237=DIRECTION('ref_axis',(0.,1.,0.));
#1238=DIRECTION('',(0.,0.,-1.));
#1239=DIRECTION('',(0.,0.,1.));
#1240=DIRECTION('center_axis',(0.,-1.,0.));
#1241=DIRECTION('ref_axis',(1.,0.,0.));
#1242=DIRECTION('',(0.,0.,1.));
#1243=DIRECTION('center_axis',(-1.,0.,0.));
#1244=DIRECTION('ref_axis',(0.,-1.,0.));
#1245=DIRECTION('',(0.,0.,1.));
#1246=DIRECTION('center_axis',(0.,1.,0.));
#1247=DIRECTION('ref_axis',(-1.,0.,0.));
#1248=CARTESIAN_POINT('',(0.,0.,0.));
#1249=CARTESIAN_POINT('Origin',(-23.5,-44.,0.));
#1250=CARTESIAN_POINT('',(-23.5,-50.,0.));
#1251=CARTESIAN_POINT('',(-17.5,-44.,0.));
#1252=CARTESIAN_POINT('Origin',(-23.5,-44.,0.));
#1253=CARTESIAN_POINT('',(-23.5,-50.,-7.));
#1254=CARTESIAN_POINT('',(-23.5,-50.,0.));
#1255=CARTESIAN_POINT('',(-17.5,-44.,-7.));
#1256=CARTESIAN_POINT('Origin',(-23.5,-44.,-7.));
#1257=CARTESIAN_POINT('',(-17.5,-44.,0.));
#1258=CARTESIAN_POINT('Origin',(-17.5,44.,0.));
#1259=CARTESIAN_POINT('',(-17.5,44.,0.));
#1260=CARTESIAN_POINT('',(-17.5,22.,0.));
#1261=CARTESIAN_POINT('',(-17.5,44.,-7.));
#1262=CARTESIAN_POINT('',(-17.5,44.,-7.));
#1263=CARTESIAN_POINT('',(-17.5,44.,0.));
#1264=CARTESIAN_POINT('Origin',(-23.5,44.,0.));
#1265=CARTESIAN_POINT('',(-23.5,50.,0.));
#1266=CARTESIAN_POINT('Origin',(-23.5,44.,0.));
#1267=CARTESIAN_POINT('',(-23.5,50.,-7.));
#1268=CARTESIAN_POINT('Origin',(-23.5,44.,-7.));
#1269=CARTESIAN_POINT('',(-23.5,50.,0.));
#1270=CARTESIAN_POINT('Origin',(-25.,0.,-7.));
#1271=CARTESIAN_POINT('',(-32.5,-50.,-7.));
#1272=CARTESIAN_POINT('',(-23.5,-50.,-7.));
#1273=CARTESIAN_POINT('',(-32.5,50.,-7.));
#1274=CARTESIAN_POINT('',(-32.5,-50.,-7.));
#1275=CARTESIAN_POINT('',(-32.5,50.,-7.));
#1276=CARTESIAN_POINT('Origin',(0.,0.,0.));
#1277=CARTESIAN_POINT('',(23.5,50.,0.));
#1278=CARTESIAN_POINT('',(-32.5,50.,0.));
#1279=CARTESIAN_POINT('',(17.5,44.,0.));
#1280=CARTESIAN_POINT('Origin',(23.5,44.,0.));
#1281=CARTESIAN_POINT('',(17.5,-44.,0.));
#1282=CARTESIAN_POINT('',(17.5,-22.,0.));
#1283=CARTESIAN_POINT('',(23.5,-50.,0.));
#1284=CARTESIAN_POINT('Origin',(23.5,-44.,0.));
#1285=CARTESIAN_POINT('',(32.5,-50.,0.));
#1286=CARTESIAN_POINT('',(8.,-37.,0.));
#1287=CARTESIAN_POINT('',(8.,0.,0.));
#1288=CARTESIAN_POINT('',(8.,-18.5,0.));
#1289=CARTESIAN_POINT('',(-8.,0.,0.));
#1290=CARTESIAN_POINT('Origin',(0.,0.,0.));
#1291=CARTESIAN_POINT('',(-8.,-37.,0.));
#1292=CARTESIAN_POINT('',(-8.,-2.40048221540574E-16,0.));
#1293=CARTESIAN_POINT('Origin',(0.,-37.,0.));
#1294=CARTESIAN_POINT('Origin',(23.5,44.,0.));
#1295=CARTESIAN_POINT('',(23.5,50.,-7.));
#1296=CARTESIAN_POINT('',(23.5,50.,0.));
#1297=CARTESIAN_POINT('',(17.5,44.,-7.));
#1298=CARTESIAN_POINT('Origin',(23.5,44.,-7.));
#1299=CARTESIAN_POINT('',(17.5,44.,0.));
#1300=CARTESIAN_POINT('Origin',(17.5,-44.,0.));
#1301=CARTESIAN_POINT('',(17.5,-44.,-7.));
#1302=CARTESIAN_POINT('',(17.5,44.,-7.));
#1303=CARTESIAN_POINT('',(17.5,-44.,0.));
#1304=CARTESIAN_POINT('Origin',(23.5,-44.,0.));
#1305=CARTESIAN_POINT('',(23.5,-50.,-7.));
#1306=CARTESIAN_POINT('Origin',(23.5,-44.,-7.));
#1307=CARTESIAN_POINT('',(23.5,-50.,0.));
#1308=CARTESIAN_POINT('Origin',(25.,0.,-7.));
#1309=CARTESIAN_POINT('',(32.5,50.,-7.));
#1310=CARTESIAN_POINT('',(32.5,50.,-7.));
#1311=CARTESIAN_POINT('',(32.5,-50.,-7.));
#1312=CARTESIAN_POINT('',(32.5,-50.,-7.));
#1313=CARTESIAN_POINT('',(23.5,-50.,-7.));
#1314=CARTESIAN_POINT('Origin',(23.8317311921859,42.,27.5493545357293));
#1315=CARTESIAN_POINT('',(22.3317311921859,42.,28.));
#1316=CARTESIAN_POINT('Origin',(23.8317311921859,42.,28.));
#1317=CARTESIAN_POINT('',(23.8317311921859,42.,27.0987090714587));
#1318=CARTESIAN_POINT('',(23.0817311921859,42.,27.5493545357293));
#1319=CARTESIAN_POINT('Origin',(23.8317311921859,42.,31.));
#1320=CARTESIAN_POINT('',(22.3317311921859,42.,34.));
#1321=CARTESIAN_POINT('Origin',(23.8317311921859,42.,34.));
#1322=CARTESIAN_POINT('',(22.3317311921859,42.,31.));
#1323=CARTESIAN_POINT('Origin',(-23.8317311921859,42.,27.5493545357293));
#1324=CARTESIAN_POINT('',(-25.3317311921859,42.,28.));
#1325=CARTESIAN_POINT('Origin',(-23.8317311921859,42.,28.));
#1326=CARTESIAN_POINT('',(-23.8317311921859,42.,27.0987090714587));
#1327=CARTESIAN_POINT('',(-24.5817311921859,42.,27.5493545357293));
#1328=CARTESIAN_POINT('Origin',(-23.8317311921859,42.,31.));
#1329=CARTESIAN_POINT('',(-25.3317311921859,42.,34.));
#1330=CARTESIAN_POINT('Origin',(-23.8317311921859,42.,34.));
#1331=CARTESIAN_POINT('',(-25.3317311921859,42.,31.));
#1332=CARTESIAN_POINT('Origin',(-26.7837502125237,25.2582681987925,27.5493545357293));
#1333=CARTESIAN_POINT('',(-28.2837502125237,25.2582681987925,28.));
#1334=CARTESIAN_POINT('Origin',(-26.7837502125237,25.2582681987925,28.));
#1335=CARTESIAN_POINT('',(-26.7837502125237,25.2582681987925,27.0987090714587));
#1336=CARTESIAN_POINT('',(-27.5337502125237,25.2582681987925,27.5493545357293));
#1337=CARTESIAN_POINT('Origin',(-26.7837502125237,25.2582681987925,31.));
#1338=CARTESIAN_POINT('',(-28.2837502125237,25.2582681987925,34.));
#1339=CARTESIAN_POINT('Origin',(-26.7837502125237,25.2582681987925,34.));
#1340=CARTESIAN_POINT('',(-28.2837502125237,25.2582681987925,31.));
#1341=CARTESIAN_POINT('Origin',(26.7837502125237,25.2582681987925,27.5493545357293));
#1342=CARTESIAN_POINT('',(25.2837502125237,25.2582681987925,28.));
#1343=CARTESIAN_POINT('Origin',(26.7837502125237,25.2582681987925,28.));
#1344=CARTESIAN_POINT('',(26.7837502125237,25.2582681987925,27.0987090714587));
#1345=CARTESIAN_POINT('',(26.0337502125237,25.2582681987925,27.5493545357293));
#1346=CARTESIAN_POINT('Origin',(26.7837502125237,25.2582681987925,31.));
#1347=CARTESIAN_POINT('',(25.2837502125237,25.2582681987925,34.));
#1348=CARTESIAN_POINT('Origin',(26.7837502125237,25.2582681987925,34.));
#1349=CARTESIAN_POINT('',(25.2837502125237,25.2582681987925,31.));
#1350=CARTESIAN_POINT('Origin',(-29.2457695950543,25.6923886429598,36.));
#1351=CARTESIAN_POINT('',(-29.2457695950543,25.6923886429598,36.));
#1352=CARTESIAN_POINT('',(-26.2937505747164,42.4341204441673,36.));
#1353=CARTESIAN_POINT('',(-28.5908408906476,29.4066738974073,36.));
#1354=CARTESIAN_POINT('',(-29.2457695950543,25.6923886429598,34.));
#1355=CARTESIAN_POINT('',(-29.2457695950543,25.6923886429598,36.));
#1356=CARTESIAN_POINT('',(-26.2937505747164,42.4341204441673,34.));
#1357=CARTESIAN_POINT('',(-26.2937505747164,42.4341204441673,34.));
#1358=CARTESIAN_POINT('',(-26.2937505747164,42.4341204441673,36.));
#1359=CARTESIAN_POINT('Origin',(-26.7837502125237,25.2582681987925,36.));
#1360=CARTESIAN_POINT('',(-24.3217308299932,24.8241477546252,36.));
#1361=CARTESIAN_POINT('Origin',(-26.7837502125237,25.2582681987925,36.));
#1362=CARTESIAN_POINT('',(-24.3217308299932,24.8241477546252,34.));
#1363=CARTESIAN_POINT('',(-24.3217308299932,24.8241477546252,36.));
#1364=CARTESIAN_POINT('Origin',(-26.7837502125237,25.2582681987925,34.));
#1365=CARTESIAN_POINT('Origin',(-21.3697118096554,41.5658795558327,36.));
#1366=CARTESIAN_POINT('',(-21.3697118096554,41.5658795558327,36.));
#1367=CARTESIAN_POINT('',(-22.1907926154176,36.9092989096764,36.));
#1368=CARTESIAN_POINT('',(-21.3697118096554,41.5658795558327,34.));
#1369=CARTESIAN_POINT('',(-21.3697118096554,41.5658795558327,36.));
#1370=CARTESIAN_POINT('',(-24.3217308299932,24.8241477546252,34.));
#1371=CARTESIAN_POINT('Origin',(-23.8317311921859,42.,36.));
#1372=CARTESIAN_POINT('Origin',(-23.8317311921859,42.,36.));
#1373=CARTESIAN_POINT('Origin',(-23.8317311921859,42.,34.));
#1374=CARTESIAN_POINT('Origin',(-25.3077407023548,33.6291340993962,34.));
#1375=CARTESIAN_POINT('Origin',(24.3217308299932,24.8241477546252,36.));
#1376=CARTESIAN_POINT('',(24.3217308299932,24.8241477546252,36.));
#1377=CARTESIAN_POINT('',(21.3697118096554,41.5658795558327,36.));
#1378=CARTESIAN_POINT('',(23.6668021255865,28.5384330090726,36.));
#1379=CARTESIAN_POINT('',(24.3217308299932,24.8241477546252,34.));
#1380=CARTESIAN_POINT('',(24.3217308299932,24.8241477546252,36.));
#1381=CARTESIAN_POINT('',(21.3697118096554,41.5658795558327,34.));
#1382=CARTESIAN_POINT('',(24.3217308299932,24.8241477546252,34.));
#1383=CARTESIAN_POINT('',(21.3697118096554,41.5658795558327,36.));
#1384=CARTESIAN_POINT('Origin',(26.7837502125237,25.2582681987925,36.));
#1385=CARTESIAN_POINT('',(29.2457695950543,25.6923886429598,36.));
#1386=CARTESIAN_POINT('Origin',(26.7837502125237,25.2582681987925,36.));
#1387=CARTESIAN_POINT('',(29.2457695950543,25.6923886429598,34.));
#1388=CARTESIAN_POINT('',(29.2457695950543,25.6923886429598,36.));
#1389=CARTESIAN_POINT('Origin',(26.7837502125237,25.2582681987925,34.));
#1390=CARTESIAN_POINT('Origin',(26.2937505747164,42.4341204441673,36.));
#1391=CARTESIAN_POINT('',(26.2937505747164,42.4341204441673,36.));
#1392=CARTESIAN_POINT('',(27.1148313804786,37.777539798011,36.));
#1393=CARTESIAN_POINT('',(26.2937505747164,42.4341204441673,34.));
#1394=CARTESIAN_POINT('',(26.2937505747164,42.4341204441673,36.));
#1395=CARTESIAN_POINT('',(26.2937505747164,42.4341204441673,34.));
#1396=CARTESIAN_POINT('Origin',(23.8317311921859,42.,36.));
#1397=CARTESIAN_POINT('Origin',(23.8317311921859,42.,36.));
#1398=CARTESIAN_POINT('Origin',(23.8317311921859,42.,34.));
#1399=CARTESIAN_POINT('Origin',(25.3077407023548,33.6291340993962,34.));
#1400=CARTESIAN_POINT('Origin',(5.55111512312578E-16,-5.55111512312578E-16,
23.0000484161653));
#1401=CARTESIAN_POINT('',(22.5,15.,18.0000968323307));
#1402=CARTESIAN_POINT('',(20.5880085251653,25.8434424904942,28.));
#1403=CARTESIAN_POINT('Ctrl Pts',(20.5880085251673,25.8434424904825,27.9999999999869));
#1404=CARTESIAN_POINT('Ctrl Pts',(21.6394713453067,19.8803005146222,21.3185655863053));
#1405=CARTESIAN_POINT('Ctrl Pts',(22.5,15.,18.0000968323307));
#1406=CARTESIAN_POINT('',(-20.5880085251653,25.8434424904942,28.));
#1407=CARTESIAN_POINT('Origin',(5.55111512312578E-16,-5.55111512312578E-16,
28.));
#1408=CARTESIAN_POINT('',(-22.5,15.,18.0000968323307));
#1409=CARTESIAN_POINT('Ctrl Pts',(-22.5,14.9999999999999,18.0000968323306));
#1410=CARTESIAN_POINT('Ctrl Pts',(-21.6394713453067,19.8803005146222,21.3185655863053));
#1411=CARTESIAN_POINT('Ctrl Pts',(-20.5880085251673,25.8434424904826,27.999999999987));
#1412=CARTESIAN_POINT('Origin',(5.55111512312578E-16,-5.55111512312578E-16,
18.0000968323307));
#1413=CARTESIAN_POINT('Origin',(5.55111512312578E-16,-5.55111512312578E-16,
18.));
#1414=CARTESIAN_POINT('',(-22.5,15.,18.));
#1415=CARTESIAN_POINT('',(-22.5,15.,18.));
#1416=CARTESIAN_POINT('',(-11.4577528895472,-24.4942829803624,18.));
#1417=CARTESIAN_POINT('Origin',(5.55111512312578E-16,-5.55111512312578E-16,
18.));
#1418=CARTESIAN_POINT('',(-11.4577528895472,-24.4942829803624,14.));
#1419=CARTESIAN_POINT('',(-11.4577528895472,-24.4942829803624,18.));
#1420=CARTESIAN_POINT('',(11.4577528895472,-24.4942829803624,14.));
#1421=CARTESIAN_POINT('Origin',(5.55111512312578E-16,-5.55111512312578E-16,
14.));
#1422=CARTESIAN_POINT('',(11.4577528895472,-24.4942829803624,18.));
#1423=CARTESIAN_POINT('',(11.4577528895472,-24.4942829803624,18.));
#1424=CARTESIAN_POINT('',(22.5,15.,18.));
#1425=CARTESIAN_POINT('Origin',(5.55111512312578E-16,-5.55111512312578E-16,
18.));
#1426=CARTESIAN_POINT('',(22.5,15.,18.));
#1427=CARTESIAN_POINT('Origin',(14.,-29.9290764106038,18.));
#1428=CARTESIAN_POINT('',(8.,-29.9290764106038,18.));
#1429=CARTESIAN_POINT('Origin',(14.,-29.9290764106038,18.));
#1430=CARTESIAN_POINT('',(8.,-29.9290764106038,14.));
#1431=CARTESIAN_POINT('Origin',(14.,-29.9290764106038,14.));
#1432=CARTESIAN_POINT('',(8.,-29.9290764106038,18.));
#1433=CARTESIAN_POINT('Origin',(-14.,-29.9290764106038,18.));
#1434=CARTESIAN_POINT('',(-8.,-29.9290764106038,18.));
#1435=CARTESIAN_POINT('Origin',(-14.,-29.9290764106038,18.));
#1436=CARTESIAN_POINT('',(-8.,-29.9290764106038,14.));
#1437=CARTESIAN_POINT('',(-8.,-29.9290764106038,18.));
#1438=CARTESIAN_POINT('Origin',(-14.,-29.9290764106038,14.));
#1439=CARTESIAN_POINT('Origin',(0.,-1.44372092231192,14.));
#1440=CARTESIAN_POINT('',(8.,0.,14.));
#1441=CARTESIAN_POINT('',(8.,-19.221860461156,14.));
#1442=CARTESIAN_POINT('',(-8.,-1.30505585307274E-16,14.));
#1443=CARTESIAN_POINT('',(-8.,-0.721860461155961,14.));
#1444=CARTESIAN_POINT('Origin',(0.,0.,14.));
#1445=CARTESIAN_POINT('Origin',(0.,0.,0.));
#1446=CARTESIAN_POINT('',(-8.,0.,0.));
#1447=CARTESIAN_POINT('',(8.,0.,0.));
#1448=CARTESIAN_POINT('Origin',(-8.,0.,0.));
#1449=CARTESIAN_POINT('',(-8.,-37.,18.));
#1450=CARTESIAN_POINT('',(-8.,-2.40048221540574E-16,18.));
#1451=CARTESIAN_POINT('',(-8.,-37.,0.));
#1452=CARTESIAN_POINT('Origin',(0.,0.,28.));
#1453=CARTESIAN_POINT('',(16.3285556752037,50.,28.));
#1454=CARTESIAN_POINT('',(20.3576243669939,27.1500159782597,28.));
#1455=CARTESIAN_POINT('',(-16.3285556752037,50.,28.));
#1456=CARTESIAN_POINT('',(-16.3285556752037,50.,28.));
#1457=CARTESIAN_POINT('',(-23.443346529392,9.65001597825973,28.));
#1458=CARTESIAN_POINT('Origin',(16.3285556752037,50.,18.));
#1459=CARTESIAN_POINT('',(22.5,15.,36.));
#1460=CARTESIAN_POINT('',(22.5,15.,18.));
#1461=CARTESIAN_POINT('',(16.3285556752037,50.,36.));
#1462=CARTESIAN_POINT('',(16.3285556752037,50.,36.));
#1463=CARTESIAN_POINT('',(16.3285556752037,50.,18.));
#1464=CARTESIAN_POINT('Origin',(-22.5,15.,18.));
#1465=CARTESIAN_POINT('',(-16.3285556752037,50.,36.));
#1466=CARTESIAN_POINT('',(-16.3285556752037,50.,18.));
#1467=CARTESIAN_POINT('',(-22.5,15.,36.));
#1468=CARTESIAN_POINT('',(-16.3285556752037,50.,36.));
#1469=CARTESIAN_POINT('',(-22.5,15.,18.));
#1470=CARTESIAN_POINT('Origin',(-32.5,15.,18.));
#1471=CARTESIAN_POINT('',(-32.5,15.,18.));
#1472=CARTESIAN_POINT('',(-16.25,15.,18.));
#1473=CARTESIAN_POINT('',(-32.5,15.,36.));
#1474=CARTESIAN_POINT('',(-22.5,15.,36.));
#1475=CARTESIAN_POINT('',(-32.5,15.,18.));
#1476=CARTESIAN_POINT('Origin',(-24.4142778376019,32.5,36.));
#1477=CARTESIAN_POINT('',(-32.5,50.,36.));
#1478=CARTESIAN_POINT('',(-32.5,15.,36.));
#1479=CARTESIAN_POINT('',(-32.5,50.,36.));
#1480=CARTESIAN_POINT('Origin',(22.5,15.,18.));
#1481=CARTESIAN_POINT('',(32.5,15.,18.));
#1482=CARTESIAN_POINT('',(11.25,15.,18.));
#1483=CARTESIAN_POINT('',(32.5,15.,36.));
#1484=CARTESIAN_POINT('',(32.5,15.,18.));
#1485=CARTESIAN_POINT('',(22.5,15.,36.));
#1486=CARTESIAN_POINT('Origin',(24.4142778376019,32.5,36.));
#1487=CARTESIAN_POINT('',(32.5,50.,36.));
#1488=CARTESIAN_POINT('',(32.5,15.,36.));
#1489=CARTESIAN_POINT('',(16.3285556752037,50.,36.));
#1490=CARTESIAN_POINT('Origin',(0.,0.,18.));
#1491=CARTESIAN_POINT('',(8.,-37.,18.));
#1492=CARTESIAN_POINT('',(8.,-18.5,18.));
#1493=CARTESIAN_POINT('Origin',(0.,-37.,18.));
#1494=CARTESIAN_POINT('',(-32.5,-50.,18.));
#1495=CARTESIAN_POINT('',(-32.5,-50.,18.));
#1496=CARTESIAN_POINT('',(32.5,-50.,18.));
#1497=CARTESIAN_POINT('',(32.5,-50.,18.));
#1498=CARTESIAN_POINT('',(32.5,50.,18.));
#1499=CARTESIAN_POINT('Origin',(8.,-37.,0.));
#1500=CARTESIAN_POINT('',(8.,-37.,0.));
#1501=CARTESIAN_POINT('Origin',(0.,-37.,0.));
#1502=CARTESIAN_POINT('Origin',(32.5,-50.,0.));
#1503=CARTESIAN_POINT('',(32.5,50.,0.));
#1504=CARTESIAN_POINT('',(32.5,-50.,0.));
#1505=CARTESIAN_POINT('Origin',(-32.5,-50.,0.));
#1506=CARTESIAN_POINT('',(-32.5,-50.,0.));
#1507=CARTESIAN_POINT('Origin',(-32.5,50.,0.));
#1508=CARTESIAN_POINT('',(-32.5,50.,0.));
#1509=CARTESIAN_POINT('Origin',(32.5,50.,0.));
#1510=UNCERTAINTY_MEASURE_WITH_UNIT(LENGTH_MEASURE(0.01),#1514,
'DISTANCE_ACCURACY_VALUE',
'Maximum model space distance between geometric entities at asserted c
onnectivities');
#1511=UNCERTAINTY_MEASURE_WITH_UNIT(LENGTH_MEASURE(0.01),#1514,
'DISTANCE_ACCURACY_VALUE',
'Maximum model space distance between geometric entities at asserted c
onnectivities');
#1512=(
GEOMETRIC_REPRESENTATION_CONTEXT(3)
GLOBAL_UNCERTAINTY_ASSIGNED_CONTEXT((#1510))
GLOBAL_UNIT_ASSIGNED_CONTEXT((#1514,#1516,#1517))
REPRESENTATION_CONTEXT('','3D')
);
#1513=(
GEOMETRIC_REPRESENTATION_CONTEXT(3)
GLOBAL_UNCERTAINTY_ASSIGNED_CONTEXT((#1511))
GLOBAL_UNIT_ASSIGNED_CONTEXT((#1514,#1516,#1517))
REPRESENTATION_CONTEXT('','3D')
);
#1514=(
LENGTH_UNIT()
NAMED_UNIT(*)
SI_UNIT(.MILLI.,.METRE.)
);
#1515=(
LENGTH_UNIT()
NAMED_UNIT(*)
SI_UNIT($,.METRE.)
);
#1516=(
NAMED_UNIT(*)
PLANE_ANGLE_UNIT()
SI_UNIT($,.RADIAN.)
);
#1517=(
NAMED_UNIT(*)
SI_UNIT($,.STERADIAN.)
SOLID_ANGLE_UNIT()
);
#1518=SHAPE_DEFINITION_REPRESENTATION(#1519,#1520);
#1519=PRODUCT_DEFINITION_SHAPE('',$,#1522);
#1520=SHAPE_REPRESENTATION('',(#904),#1512);
#1521=PRODUCT_DEFINITION_CONTEXT('part definition',#1526,'design');
#1522=PRODUCT_DEFINITION('2026-08-13-04-49-49-679','Alignment Catch',#1523,
#1521);
#1523=PRODUCT_DEFINITION_FORMATION('',$,#1528);
#1524=PRODUCT_RELATED_PRODUCT_CATEGORY('Alignment Catch',
'Alignment Catch',(#1528));
#1525=APPLICATION_PROTOCOL_DEFINITION('international standard',
'automotive_design',2009,#1526);
#1526=APPLICATION_CONTEXT(
'Core Data for Automotive Mechanical Design Process');
#1527=PRODUCT_CONTEXT('part definition',#1526,'mechanical');
#1528=PRODUCT('2026-08-13-04-49-49-679','Alignment Catch',$,(#1527));
#1529=PRESENTATION_STYLE_ASSIGNMENT((#1531));
#1530=PRESENTATION_STYLE_ASSIGNMENT((#1532));
#1531=SURFACE_STYLE_USAGE(.BOTH.,#1533);
#1532=SURFACE_STYLE_USAGE(.BOTH.,#1534);
#1533=SURFACE_SIDE_STYLE('',(#1535));
#1534=SURFACE_SIDE_STYLE('',(#1536));
#1535=SURFACE_STYLE_FILL_AREA(#1537);
#1536=SURFACE_STYLE_FILL_AREA(#1538);
#1537=FILL_AREA_STYLE('Steel - Satin',(#1539));
#1538=FILL_AREA_STYLE('PEEK',(#1540));
#1539=FILL_AREA_STYLE_COLOUR('Steel - Satin',#1541);
#1540=FILL_AREA_STYLE_COLOUR('PEEK',#1542);
#1541=COLOUR_RGB('Steel - Satin',0.627450980392157,0.627450980392157,0.627450980392157);
#1542=COLOUR_RGB('PEEK',0.6,0.509803921568627,0.368627450980392);
ENDSEC;
END-ISO-10303-21;
