ISO-10303-21;
HEADER;
/* Generated by software containing ST-Developer
 * from STEP Tools, Inc. (www.steptools.com) 
 */

FILE_DESCRIPTION(
/* description */ (''),
/* implementation_level */ '2;1');

FILE_NAME(
/* name */ 'Model.step',
/* time_stamp */ '2026-08-23T02:14:41+05:30',
/* author */ (''),
/* organization */ (''),
/* preprocessor_version */ 'ST-DEVELOPER v20.1',
/* originating_system */ 'Autodesk Translation Framework v15.8.0.0',
/* authorisation */ '');

FILE_SCHEMA (('AUTOMOTIVE_DESIGN { 1 0 10303 214 3 1 1 }'));
ENDSEC;

DATA;
#10=MECHANICAL_DESIGN_GEOMETRIC_PRESENTATION_REPRESENTATION('',(#13),#919);
#11=SHAPE_REPRESENTATION_RELATIONSHIP('SRR','None',#926,#12);
#12=ADVANCED_BREP_SHAPE_REPRESENTATION('',(#14),#918);
#13=STYLED_ITEM('',(#935),#14);
#14=MANIFOLD_SOLID_BREP('Body1',#505);
#15=(
BOUNDED_SURFACE()
B_SPLINE_SURFACE(1,2,((#898,#899,#900,#901,#902,#903,#904,#905,#906),(#907,
#908,#909,#910,#911,#912,#913,#914,#915)),.UNSPECIFIED.,.F.,.F.,.F.)
B_SPLINE_SURFACE_WITH_KNOTS((2,2),(3,2,2,2,3),(0.,0.333333333333333),(-7.65262371318415,
-6.18250634678442,-4.71238898038469,-3.24227161398496,-1.77215424758523),
 .UNSPECIFIED.)
GEOMETRIC_REPRESENTATION_ITEM()
RATIONAL_B_SPLINE_SURFACE(((1.,0.741791399924941,1.,0.741791399924941,1.,
0.741791399924941,1.,0.741791399924941,1.),(1.,0.741791399924941,1.,0.741791399924941,
1.,0.741791399924941,1.,0.741791399924941,1.)))
REPRESENTATION_ITEM('')
SURFACE()
);
#16=ELLIPSE('',#564,15.,12.);
#17=ELLIPSE('',#574,15.,12.);
#18=FACE_BOUND('',#72,.T.);
#19=FACE_BOUND('',#73,.T.);
#20=FACE_BOUND('',#74,.T.);
#21=FACE_BOUND('',#75,.T.);
#22=FACE_BOUND('',#76,.T.);
#23=FACE_BOUND('',#78,.T.);
#24=FACE_BOUND('',#79,.T.);
#25=FACE_BOUND('',#80,.T.);
#26=FACE_BOUND('',#81,.T.);
#27=FACE_BOUND('',#82,.T.);
#28=PLANE('',#555);
#29=PLANE('',#565);
#30=PLANE('',#583);
#31=PLANE('',#584);
#32=PLANE('',#585);
#33=FACE_OUTER_BOUND('',#59,.T.);
#34=FACE_OUTER_BOUND('',#60,.T.);
#35=FACE_OUTER_BOUND('',#61,.T.);
#36=FACE_OUTER_BOUND('',#62,.T.);
#37=FACE_OUTER_BOUND('',#63,.T.);
#38=FACE_OUTER_BOUND('',#64,.T.);
#39=FACE_OUTER_BOUND('',#65,.T.);
#40=FACE_OUTER_BOUND('',#66,.T.);
#41=FACE_OUTER_BOUND('',#67,.T.);
#42=FACE_OUTER_BOUND('',#68,.T.);
#43=FACE_OUTER_BOUND('',#69,.T.);
#44=FACE_OUTER_BOUND('',#70,.T.);
#45=FACE_OUTER_BOUND('',#71,.T.);
#46=FACE_OUTER_BOUND('',#77,.T.);
#47=FACE_OUTER_BOUND('',#83,.T.);
#48=FACE_OUTER_BOUND('',#84,.T.);
#49=FACE_OUTER_BOUND('',#85,.T.);
#50=FACE_OUTER_BOUND('',#86,.T.);
#51=FACE_OUTER_BOUND('',#87,.T.);
#52=FACE_OUTER_BOUND('',#88,.T.);
#53=FACE_OUTER_BOUND('',#89,.T.);
#54=FACE_OUTER_BOUND('',#90,.T.);
#55=FACE_OUTER_BOUND('',#91,.T.);
#56=FACE_OUTER_BOUND('',#92,.T.);
#57=FACE_OUTER_BOUND('',#93,.T.);
#58=FACE_OUTER_BOUND('',#94,.T.);
#59=EDGE_LOOP('',(#315,#316,#317,#318));
#60=EDGE_LOOP('',(#319,#320,#321,#322));
#61=EDGE_LOOP('',(#323,#324,#325,#326));
#62=EDGE_LOOP('',(#327,#328,#329,#330));
#63=EDGE_LOOP('',(#331,#332,#333,#334));
#64=EDGE_LOOP('',(#335,#336,#337,#338));
#65=EDGE_LOOP('',(#339,#340,#341,#342));
#66=EDGE_LOOP('',(#343,#344,#345,#346));
#67=EDGE_LOOP('',(#347,#348,#349,#350));
#68=EDGE_LOOP('',(#351,#352,#353,#354));
#69=EDGE_LOOP('',(#355,#356,#357,#358));
#70=EDGE_LOOP('',(#359,#360,#361,#362));
#71=EDGE_LOOP('',(#363,#364,#365,#366,#367,#368,#369,#370,#371,#372,#373,
#374,#375,#376,#377,#378));
#72=EDGE_LOOP('',(#379));
#73=EDGE_LOOP('',(#380));
#74=EDGE_LOOP('',(#381));
#75=EDGE_LOOP('',(#382));
#76=EDGE_LOOP('',(#383,#384,#385,#386));
#77=EDGE_LOOP('',(#387,#388,#389,#390,#391,#392,#393,#394,#395,#396,#397,
#398,#399,#400,#401,#402));
#78=EDGE_LOOP('',(#403));
#79=EDGE_LOOP('',(#404));
#80=EDGE_LOOP('',(#405));
#81=EDGE_LOOP('',(#406));
#82=EDGE_LOOP('',(#407,#408,#409,#410));
#83=EDGE_LOOP('',(#411,#412,#413,#414));
#84=EDGE_LOOP('',(#415,#416,#417,#418));
#85=EDGE_LOOP('',(#419,#420,#421,#422));
#86=EDGE_LOOP('',(#423,#424,#425,#426));
#87=EDGE_LOOP('',(#427,#428,#429,#430));
#88=EDGE_LOOP('',(#431,#432,#433,#434));
#89=EDGE_LOOP('',(#435,#436,#437,#438));
#90=EDGE_LOOP('',(#439,#440,#441,#442));
#91=EDGE_LOOP('',(#443,#444,#445,#446));
#92=EDGE_LOOP('',(#447,#448,#449,#450));
#93=EDGE_LOOP('',(#451,#452,#453,#454));
#94=EDGE_LOOP('',(#455,#456,#457,#458));
#95=LINE('',#758,#125);
#96=LINE('',#761,#126);
#97=LINE('',#767,#127);
#98=LINE('',#770,#128);
#99=LINE('',#776,#129);
#100=LINE('',#779,#130);
#101=LINE('',#785,#131);
#102=LINE('',#788,#132);
#103=LINE('',#794,#133);
#104=LINE('',#797,#134);
#105=LINE('',#806,#135);
#106=LINE('',#809,#136);
#107=LINE('',#818,#137);
#108=LINE('',#821,#138);
#109=LINE('',#830,#139);
#110=LINE('',#833,#140);
#111=LINE('',#854,#141);
#112=LINE('',#856,#142);
#113=LINE('',#857,#143);
#114=LINE('',#875,#144);
#115=LINE('',#877,#145);
#116=LINE('',#878,#146);
#117=LINE('',#882,#147);
#118=LINE('',#884,#148);
#119=LINE('',#886,#149);
#120=LINE('',#888,#150);
#121=LINE('',#892,#151);
#122=LINE('',#893,#152);
#123=LINE('',#895,#153);
#124=LINE('',#897,#154);
#125=VECTOR('',#592,10.);
#126=VECTOR('',#595,10.);
#127=VECTOR('',#600,10.);
#128=VECTOR('',#603,10.);
#129=VECTOR('',#608,10.);
#130=VECTOR('',#611,10.);
#131=VECTOR('',#616,10.);
#132=VECTOR('',#619,10.);
#133=VECTOR('',#624,10.);
#134=VECTOR('',#627,10.);
#135=VECTOR('',#638,10.);
#136=VECTOR('',#641,10.);
#137=VECTOR('',#652,10.);
#138=VECTOR('',#655,10.);
#139=VECTOR('',#666,10.);
#140=VECTOR('',#669,10.);
#141=VECTOR('',#696,10.);
#142=VECTOR('',#697,10.);
#143=VECTOR('',#698,10.);
#144=VECTOR('',#719,10.);
#145=VECTOR('',#720,10.);
#146=VECTOR('',#721,10.);
#147=VECTOR('',#728,2.5);
#148=VECTOR('',#731,2.5);
#149=VECTOR('',#734,2.5);
#150=VECTOR('',#737,2.5);
#151=VECTOR('',#744,10.);
#152=VECTOR('',#745,10.);
#153=VECTOR('',#748,10.);
#154=VECTOR('',#751,10.);
#155=CIRCLE('',#520,50.);
#156=CIRCLE('',#521,50.);
#157=CIRCLE('',#523,50.);
#158=CIRCLE('',#524,50.);
#159=CIRCLE('',#526,50.);
#160=CIRCLE('',#527,50.);
#161=CIRCLE('',#529,50.);
#162=CIRCLE('',#530,50.);
#163=CIRCLE('',#532,6.00000000000128);
#164=CIRCLE('',#533,6.00000000000128);
#165=CIRCLE('',#535,2.50000000000054);
#166=CIRCLE('',#536,2.50000000000054);
#167=CIRCLE('',#538,6.00000000000011);
#168=CIRCLE('',#539,6.00000000000011);
#169=CIRCLE('',#541,2.50000000000005);
#170=CIRCLE('',#542,2.50000000000005);
#171=CIRCLE('',#544,6.00000000000082);
#172=CIRCLE('',#545,6.00000000000082);
#173=CIRCLE('',#547,2.50000000000199);
#174=CIRCLE('',#548,2.50000000000199);
#175=CIRCLE('',#550,6.00000000000002);
#176=CIRCLE('',#551,6.00000000000002);
#177=CIRCLE('',#553,2.5);
#178=CIRCLE('',#554,2.5);
#179=CIRCLE('',#556,2.5);
#180=CIRCLE('',#557,2.5);
#181=CIRCLE('',#558,2.5);
#182=CIRCLE('',#559,2.5);
#183=CIRCLE('',#560,2.5);
#184=CIRCLE('',#561,2.5);
#185=CIRCLE('',#562,2.5);
#186=CIRCLE('',#563,2.5);
#187=CIRCLE('',#566,2.5);
#188=CIRCLE('',#567,2.5);
#189=CIRCLE('',#568,2.5);
#190=CIRCLE('',#569,2.5);
#191=CIRCLE('',#570,2.5);
#192=CIRCLE('',#571,2.5);
#193=CIRCLE('',#572,2.5);
#194=CIRCLE('',#573,2.5);
#195=VERTEX_POINT('',#754);
#196=VERTEX_POINT('',#755);
#197=VERTEX_POINT('',#757);
#198=VERTEX_POINT('',#759);
#199=VERTEX_POINT('',#763);
#200=VERTEX_POINT('',#764);
#201=VERTEX_POINT('',#766);
#202=VERTEX_POINT('',#768);
#203=VERTEX_POINT('',#772);
#204=VERTEX_POINT('',#773);
#205=VERTEX_POINT('',#775);
#206=VERTEX_POINT('',#777);
#207=VERTEX_POINT('',#781);
#208=VERTEX_POINT('',#782);
#209=VERTEX_POINT('',#784);
#210=VERTEX_POINT('',#786);
#211=VERTEX_POINT('',#790);
#212=VERTEX_POINT('',#791);
#213=VERTEX_POINT('',#793);
#214=VERTEX_POINT('',#795);
#215=VERTEX_POINT('',#802);
#216=VERTEX_POINT('',#803);
#217=VERTEX_POINT('',#805);
#218=VERTEX_POINT('',#807);
#219=VERTEX_POINT('',#814);
#220=VERTEX_POINT('',#815);
#221=VERTEX_POINT('',#817);
#222=VERTEX_POINT('',#819);
#223=VERTEX_POINT('',#826);
#224=VERTEX_POINT('',#827);
#225=VERTEX_POINT('',#829);
#226=VERTEX_POINT('',#831);
#227=VERTEX_POINT('',#842);
#228=VERTEX_POINT('',#844);
#229=VERTEX_POINT('',#846);
#230=VERTEX_POINT('',#848);
#231=VERTEX_POINT('',#850);
#232=VERTEX_POINT('',#851);
#233=VERTEX_POINT('',#853);
#234=VERTEX_POINT('',#855);
#235=VERTEX_POINT('',#863);
#236=VERTEX_POINT('',#865);
#237=VERTEX_POINT('',#867);
#238=VERTEX_POINT('',#869);
#239=VERTEX_POINT('',#871);
#240=VERTEX_POINT('',#872);
#241=VERTEX_POINT('',#874);
#242=VERTEX_POINT('',#876);
#243=EDGE_CURVE('',#195,#196,#155,.T.);
#244=EDGE_CURVE('',#196,#197,#95,.T.);
#245=EDGE_CURVE('',#198,#197,#156,.T.);
#246=EDGE_CURVE('',#198,#195,#96,.T.);
#247=EDGE_CURVE('',#199,#200,#157,.T.);
#248=EDGE_CURVE('',#200,#201,#97,.T.);
#249=EDGE_CURVE('',#202,#201,#158,.T.);
#250=EDGE_CURVE('',#202,#199,#98,.T.);
#251=EDGE_CURVE('',#203,#204,#159,.T.);
#252=EDGE_CURVE('',#204,#205,#99,.T.);
#253=EDGE_CURVE('',#206,#205,#160,.T.);
#254=EDGE_CURVE('',#206,#203,#100,.T.);
#255=EDGE_CURVE('',#207,#208,#161,.T.);
#256=EDGE_CURVE('',#208,#209,#101,.T.);
#257=EDGE_CURVE('',#210,#209,#162,.T.);
#258=EDGE_CURVE('',#210,#207,#102,.T.);
#259=EDGE_CURVE('',#211,#212,#163,.T.);
#260=EDGE_CURVE('',#211,#213,#103,.T.);
#261=EDGE_CURVE('',#214,#213,#164,.T.);
#262=EDGE_CURVE('',#214,#212,#104,.T.);
#263=EDGE_CURVE('',#212,#200,#165,.T.);
#264=EDGE_CURVE('',#201,#214,#166,.T.);
#265=EDGE_CURVE('',#215,#216,#167,.T.);
#266=EDGE_CURVE('',#215,#217,#105,.T.);
#267=EDGE_CURVE('',#218,#217,#168,.T.);
#268=EDGE_CURVE('',#218,#216,#106,.T.);
#269=EDGE_CURVE('',#216,#204,#169,.T.);
#270=EDGE_CURVE('',#205,#218,#170,.T.);
#271=EDGE_CURVE('',#219,#220,#171,.T.);
#272=EDGE_CURVE('',#219,#221,#107,.T.);
#273=EDGE_CURVE('',#222,#221,#172,.T.);
#274=EDGE_CURVE('',#222,#220,#108,.T.);
#275=EDGE_CURVE('',#220,#208,#173,.T.);
#276=EDGE_CURVE('',#209,#222,#174,.T.);
#277=EDGE_CURVE('',#223,#224,#175,.T.);
#278=EDGE_CURVE('',#223,#225,#109,.T.);
#279=EDGE_CURVE('',#226,#225,#176,.T.);
#280=EDGE_CURVE('',#226,#224,#110,.T.);
#281=EDGE_CURVE('',#224,#196,#177,.T.);
#282=EDGE_CURVE('',#197,#226,#178,.T.);
#283=EDGE_CURVE('',#213,#210,#179,.T.);
#284=EDGE_CURVE('',#221,#206,#180,.T.);
#285=EDGE_CURVE('',#217,#198,#181,.T.);
#286=EDGE_CURVE('',#225,#202,#182,.T.);
#287=EDGE_CURVE('',#227,#227,#183,.T.);
#288=EDGE_CURVE('',#228,#228,#184,.T.);
#289=EDGE_CURVE('',#229,#229,#185,.T.);
#290=EDGE_CURVE('',#230,#230,#186,.T.);
#291=EDGE_CURVE('',#231,#232,#16,.T.);
#292=EDGE_CURVE('',#233,#231,#111,.T.);
#293=EDGE_CURVE('',#234,#233,#112,.T.);
#294=EDGE_CURVE('',#232,#234,#113,.T.);
#295=EDGE_CURVE('',#199,#223,#187,.T.);
#296=EDGE_CURVE('',#195,#215,#188,.T.);
#297=EDGE_CURVE('',#203,#219,#189,.T.);
#298=EDGE_CURVE('',#207,#211,#190,.T.);
#299=EDGE_CURVE('',#235,#235,#191,.T.);
#300=EDGE_CURVE('',#236,#236,#192,.T.);
#301=EDGE_CURVE('',#237,#237,#193,.T.);
#302=EDGE_CURVE('',#238,#238,#194,.T.);
#303=EDGE_CURVE('',#239,#240,#17,.T.);
#304=EDGE_CURVE('',#240,#241,#114,.T.);
#305=EDGE_CURVE('',#241,#242,#115,.T.);
#306=EDGE_CURVE('',#242,#239,#116,.T.);
#307=EDGE_CURVE('',#227,#235,#117,.T.);
#308=EDGE_CURVE('',#228,#236,#118,.T.);
#309=EDGE_CURVE('',#229,#237,#119,.T.);
#310=EDGE_CURVE('',#230,#238,#120,.T.);
#311=EDGE_CURVE('',#231,#239,#121,.T.);
#312=EDGE_CURVE('',#233,#242,#122,.T.);
#313=EDGE_CURVE('',#234,#241,#123,.T.);
#314=EDGE_CURVE('',#232,#240,#124,.T.);
#315=ORIENTED_EDGE('',*,*,#243,.T.);
#316=ORIENTED_EDGE('',*,*,#244,.T.);
#317=ORIENTED_EDGE('',*,*,#245,.F.);
#318=ORIENTED_EDGE('',*,*,#246,.T.);
#319=ORIENTED_EDGE('',*,*,#247,.T.);
#320=ORIENTED_EDGE('',*,*,#248,.T.);
#321=ORIENTED_EDGE('',*,*,#249,.F.);
#322=ORIENTED_EDGE('',*,*,#250,.T.);
#323=ORIENTED_EDGE('',*,*,#251,.T.);
#324=ORIENTED_EDGE('',*,*,#252,.T.);
#325=ORIENTED_EDGE('',*,*,#253,.F.);
#326=ORIENTED_EDGE('',*,*,#254,.T.);
#327=ORIENTED_EDGE('',*,*,#255,.T.);
#328=ORIENTED_EDGE('',*,*,#256,.T.);
#329=ORIENTED_EDGE('',*,*,#257,.F.);
#330=ORIENTED_EDGE('',*,*,#258,.T.);
#331=ORIENTED_EDGE('',*,*,#259,.F.);
#332=ORIENTED_EDGE('',*,*,#260,.T.);
#333=ORIENTED_EDGE('',*,*,#261,.F.);
#334=ORIENTED_EDGE('',*,*,#262,.T.);
#335=ORIENTED_EDGE('',*,*,#263,.F.);
#336=ORIENTED_EDGE('',*,*,#262,.F.);
#337=ORIENTED_EDGE('',*,*,#264,.F.);
#338=ORIENTED_EDGE('',*,*,#248,.F.);
#339=ORIENTED_EDGE('',*,*,#265,.F.);
#340=ORIENTED_EDGE('',*,*,#266,.T.);
#341=ORIENTED_EDGE('',*,*,#267,.F.);
#342=ORIENTED_EDGE('',*,*,#268,.T.);
#343=ORIENTED_EDGE('',*,*,#269,.F.);
#344=ORIENTED_EDGE('',*,*,#268,.F.);
#345=ORIENTED_EDGE('',*,*,#270,.F.);
#346=ORIENTED_EDGE('',*,*,#252,.F.);
#347=ORIENTED_EDGE('',*,*,#271,.F.);
#348=ORIENTED_EDGE('',*,*,#272,.T.);
#349=ORIENTED_EDGE('',*,*,#273,.F.);
#350=ORIENTED_EDGE('',*,*,#274,.T.);
#351=ORIENTED_EDGE('',*,*,#275,.F.);
#352=ORIENTED_EDGE('',*,*,#274,.F.);
#353=ORIENTED_EDGE('',*,*,#276,.F.);
#354=ORIENTED_EDGE('',*,*,#256,.F.);
#355=ORIENTED_EDGE('',*,*,#277,.F.);
#356=ORIENTED_EDGE('',*,*,#278,.T.);
#357=ORIENTED_EDGE('',*,*,#279,.F.);
#358=ORIENTED_EDGE('',*,*,#280,.T.);
#359=ORIENTED_EDGE('',*,*,#281,.F.);
#360=ORIENTED_EDGE('',*,*,#280,.F.);
#361=ORIENTED_EDGE('',*,*,#282,.F.);
#362=ORIENTED_EDGE('',*,*,#244,.F.);
#363=ORIENTED_EDGE('',*,*,#261,.T.);
#364=ORIENTED_EDGE('',*,*,#283,.T.);
#365=ORIENTED_EDGE('',*,*,#257,.T.);
#366=ORIENTED_EDGE('',*,*,#276,.T.);
#367=ORIENTED_EDGE('',*,*,#273,.T.);
#368=ORIENTED_EDGE('',*,*,#284,.T.);
#369=ORIENTED_EDGE('',*,*,#253,.T.);
#370=ORIENTED_EDGE('',*,*,#270,.T.);
#371=ORIENTED_EDGE('',*,*,#267,.T.);
#372=ORIENTED_EDGE('',*,*,#285,.T.);
#373=ORIENTED_EDGE('',*,*,#245,.T.);
#374=ORIENTED_EDGE('',*,*,#282,.T.);
#375=ORIENTED_EDGE('',*,*,#279,.T.);
#376=ORIENTED_EDGE('',*,*,#286,.T.);
#377=ORIENTED_EDGE('',*,*,#249,.T.);
#378=ORIENTED_EDGE('',*,*,#264,.T.);
#379=ORIENTED_EDGE('',*,*,#287,.T.);
#380=ORIENTED_EDGE('',*,*,#288,.T.);
#381=ORIENTED_EDGE('',*,*,#289,.T.);
#382=ORIENTED_EDGE('',*,*,#290,.T.);
#383=ORIENTED_EDGE('',*,*,#291,.F.);
#384=ORIENTED_EDGE('',*,*,#292,.F.);
#385=ORIENTED_EDGE('',*,*,#293,.F.);
#386=ORIENTED_EDGE('',*,*,#294,.F.);
#387=ORIENTED_EDGE('',*,*,#259,.T.);
#388=ORIENTED_EDGE('',*,*,#263,.T.);
#389=ORIENTED_EDGE('',*,*,#247,.F.);
#390=ORIENTED_EDGE('',*,*,#295,.T.);
#391=ORIENTED_EDGE('',*,*,#277,.T.);
#392=ORIENTED_EDGE('',*,*,#281,.T.);
#393=ORIENTED_EDGE('',*,*,#243,.F.);
#394=ORIENTED_EDGE('',*,*,#296,.T.);
#395=ORIENTED_EDGE('',*,*,#265,.T.);
#396=ORIENTED_EDGE('',*,*,#269,.T.);
#397=ORIENTED_EDGE('',*,*,#251,.F.);
#398=ORIENTED_EDGE('',*,*,#297,.T.);
#399=ORIENTED_EDGE('',*,*,#271,.T.);
#400=ORIENTED_EDGE('',*,*,#275,.T.);
#401=ORIENTED_EDGE('',*,*,#255,.F.);
#402=ORIENTED_EDGE('',*,*,#298,.T.);
#403=ORIENTED_EDGE('',*,*,#299,.T.);
#404=ORIENTED_EDGE('',*,*,#300,.T.);
#405=ORIENTED_EDGE('',*,*,#301,.T.);
#406=ORIENTED_EDGE('',*,*,#302,.T.);
#407=ORIENTED_EDGE('',*,*,#303,.T.);
#408=ORIENTED_EDGE('',*,*,#304,.T.);
#409=ORIENTED_EDGE('',*,*,#305,.T.);
#410=ORIENTED_EDGE('',*,*,#306,.T.);
#411=ORIENTED_EDGE('',*,*,#266,.F.);
#412=ORIENTED_EDGE('',*,*,#296,.F.);
#413=ORIENTED_EDGE('',*,*,#246,.F.);
#414=ORIENTED_EDGE('',*,*,#285,.F.);
#415=ORIENTED_EDGE('',*,*,#258,.F.);
#416=ORIENTED_EDGE('',*,*,#283,.F.);
#417=ORIENTED_EDGE('',*,*,#260,.F.);
#418=ORIENTED_EDGE('',*,*,#298,.F.);
#419=ORIENTED_EDGE('',*,*,#287,.F.);
#420=ORIENTED_EDGE('',*,*,#307,.T.);
#421=ORIENTED_EDGE('',*,*,#299,.F.);
#422=ORIENTED_EDGE('',*,*,#307,.F.);
#423=ORIENTED_EDGE('',*,*,#288,.F.);
#424=ORIENTED_EDGE('',*,*,#308,.T.);
#425=ORIENTED_EDGE('',*,*,#300,.F.);
#426=ORIENTED_EDGE('',*,*,#308,.F.);
#427=ORIENTED_EDGE('',*,*,#289,.F.);
#428=ORIENTED_EDGE('',*,*,#309,.T.);
#429=ORIENTED_EDGE('',*,*,#301,.F.);
#430=ORIENTED_EDGE('',*,*,#309,.F.);
#431=ORIENTED_EDGE('',*,*,#290,.F.);
#432=ORIENTED_EDGE('',*,*,#310,.T.);
#433=ORIENTED_EDGE('',*,*,#302,.F.);
#434=ORIENTED_EDGE('',*,*,#310,.F.);
#435=ORIENTED_EDGE('',*,*,#254,.F.);
#436=ORIENTED_EDGE('',*,*,#284,.F.);
#437=ORIENTED_EDGE('',*,*,#272,.F.);
#438=ORIENTED_EDGE('',*,*,#297,.F.);
#439=ORIENTED_EDGE('',*,*,#278,.F.);
#440=ORIENTED_EDGE('',*,*,#295,.F.);
#441=ORIENTED_EDGE('',*,*,#250,.F.);
#442=ORIENTED_EDGE('',*,*,#286,.F.);
#443=ORIENTED_EDGE('',*,*,#292,.T.);
#444=ORIENTED_EDGE('',*,*,#311,.T.);
#445=ORIENTED_EDGE('',*,*,#306,.F.);
#446=ORIENTED_EDGE('',*,*,#312,.F.);
#447=ORIENTED_EDGE('',*,*,#293,.T.);
#448=ORIENTED_EDGE('',*,*,#312,.T.);
#449=ORIENTED_EDGE('',*,*,#305,.F.);
#450=ORIENTED_EDGE('',*,*,#313,.F.);
#451=ORIENTED_EDGE('',*,*,#294,.T.);
#452=ORIENTED_EDGE('',*,*,#313,.T.);
#453=ORIENTED_EDGE('',*,*,#304,.F.);
#454=ORIENTED_EDGE('',*,*,#314,.F.);
#455=ORIENTED_EDGE('',*,*,#291,.T.);
#456=ORIENTED_EDGE('',*,*,#314,.T.);
#457=ORIENTED_EDGE('',*,*,#303,.F.);
#458=ORIENTED_EDGE('',*,*,#311,.F.);
#459=CYLINDRICAL_SURFACE('',#519,50.);
#460=CYLINDRICAL_SURFACE('',#522,50.);
#461=CYLINDRICAL_SURFACE('',#525,50.);
#462=CYLINDRICAL_SURFACE('',#528,50.);
#463=CYLINDRICAL_SURFACE('',#531,6.00000000000128);
#464=CYLINDRICAL_SURFACE('',#534,2.50000000000054);
#465=CYLINDRICAL_SURFACE('',#537,6.00000000000011);
#466=CYLINDRICAL_SURFACE('',#540,2.50000000000005);
#467=CYLINDRICAL_SURFACE('',#543,6.00000000000082);
#468=CYLINDRICAL_SURFACE('',#546,2.50000000000199);
#469=CYLINDRICAL_SURFACE('',#549,6.00000000000002);
#470=CYLINDRICAL_SURFACE('',#552,2.5);
#471=CYLINDRICAL_SURFACE('',#575,2.5);
#472=CYLINDRICAL_SURFACE('',#576,2.5);
#473=CYLINDRICAL_SURFACE('',#577,2.5);
#474=CYLINDRICAL_SURFACE('',#578,2.5);
#475=CYLINDRICAL_SURFACE('',#579,2.5);
#476=CYLINDRICAL_SURFACE('',#580,2.5);
#477=CYLINDRICAL_SURFACE('',#581,2.5);
#478=CYLINDRICAL_SURFACE('',#582,2.5);
#479=ADVANCED_FACE('',(#33),#459,.T.);
#480=ADVANCED_FACE('',(#34),#460,.T.);
#481=ADVANCED_FACE('',(#35),#461,.T.);
#482=ADVANCED_FACE('',(#36),#462,.T.);
#483=ADVANCED_FACE('',(#37),#463,.T.);
#484=ADVANCED_FACE('',(#38),#464,.F.);
#485=ADVANCED_FACE('',(#39),#465,.T.);
#486=ADVANCED_FACE('',(#40),#466,.F.);
#487=ADVANCED_FACE('',(#41),#467,.T.);
#488=ADVANCED_FACE('',(#42),#468,.F.);
#489=ADVANCED_FACE('',(#43),#469,.T.);
#490=ADVANCED_FACE('',(#44),#470,.F.);
#491=ADVANCED_FACE('',(#45,#18,#19,#20,#21,#22),#28,.F.);
#492=ADVANCED_FACE('',(#46,#23,#24,#25,#26,#27),#29,.T.);
#493=ADVANCED_FACE('',(#47),#471,.F.);
#494=ADVANCED_FACE('',(#48),#472,.F.);
#495=ADVANCED_FACE('',(#49),#473,.F.);
#496=ADVANCED_FACE('',(#50),#474,.F.);
#497=ADVANCED_FACE('',(#51),#475,.F.);
#498=ADVANCED_FACE('',(#52),#476,.F.);
#499=ADVANCED_FACE('',(#53),#477,.F.);
#500=ADVANCED_FACE('',(#54),#478,.F.);
#501=ADVANCED_FACE('',(#55),#30,.T.);
#502=ADVANCED_FACE('',(#56),#31,.T.);
#503=ADVANCED_FACE('',(#57),#32,.T.);
#504=ADVANCED_FACE('',(#58),#15,.T.);
#505=CLOSED_SHELL('',(#479,#480,#481,#482,#483,#484,#485,#486,#487,#488,
#489,#490,#491,#492,#493,#494,#495,#496,#497,#498,#499,#500,#501,#502,#503,
#504));
#506=DERIVED_UNIT_ELEMENT(#508,1.);
#507=DERIVED_UNIT_ELEMENT(#921,-3.);
#508=(
MASS_UNIT()
NAMED_UNIT(*)
SI_UNIT(.KILO.,.GRAM.)
);
#509=DERIVED_UNIT((#506,#507));
#510=MEASURE_REPRESENTATION_ITEM('density measure',
POSITIVE_RATIO_MEASURE(7850.),#509);
#511=PROPERTY_DEFINITION_REPRESENTATION(#516,#513);
#512=PROPERTY_DEFINITION_REPRESENTATION(#517,#514);
#513=REPRESENTATION('material name',(#515),#918);
#514=REPRESENTATION('density',(#510),#918);
#515=DESCRIPTIVE_REPRESENTATION_ITEM('Steel','Steel');
#516=PROPERTY_DEFINITION('material property','material name',#928);
#517=PROPERTY_DEFINITION('material property','density of part',#928);
#518=AXIS2_PLACEMENT_3D('',#752,#586,#587);
#519=AXIS2_PLACEMENT_3D('',#753,#588,#589);
#520=AXIS2_PLACEMENT_3D('',#756,#590,#591);
#521=AXIS2_PLACEMENT_3D('',#760,#593,#594);
#522=AXIS2_PLACEMENT_3D('',#762,#596,#597);
#523=AXIS2_PLACEMENT_3D('',#765,#598,#599);
#524=AXIS2_PLACEMENT_3D('',#769,#601,#602);
#525=AXIS2_PLACEMENT_3D('',#771,#604,#605);
#526=AXIS2_PLACEMENT_3D('',#774,#606,#607);
#527=AXIS2_PLACEMENT_3D('',#778,#609,#610);
#528=AXIS2_PLACEMENT_3D('',#780,#612,#613);
#529=AXIS2_PLACEMENT_3D('',#783,#614,#615);
#530=AXIS2_PLACEMENT_3D('',#787,#617,#618);
#531=AXIS2_PLACEMENT_3D('',#789,#620,#621);
#532=AXIS2_PLACEMENT_3D('',#792,#622,#623);
#533=AXIS2_PLACEMENT_3D('',#796,#625,#626);
#534=AXIS2_PLACEMENT_3D('',#798,#628,#629);
#535=AXIS2_PLACEMENT_3D('',#799,#630,#631);
#536=AXIS2_PLACEMENT_3D('',#800,#632,#633);
#537=AXIS2_PLACEMENT_3D('',#801,#634,#635);
#538=AXIS2_PLACEMENT_3D('',#804,#636,#637);
#539=AXIS2_PLACEMENT_3D('',#808,#639,#640);
#540=AXIS2_PLACEMENT_3D('',#810,#642,#643);
#541=AXIS2_PLACEMENT_3D('',#811,#644,#645);
#542=AXIS2_PLACEMENT_3D('',#812,#646,#647);
#543=AXIS2_PLACEMENT_3D('',#813,#648,#649);
#544=AXIS2_PLACEMENT_3D('',#816,#650,#651);
#545=AXIS2_PLACEMENT_3D('',#820,#653,#654);
#546=AXIS2_PLACEMENT_3D('',#822,#656,#657);
#547=AXIS2_PLACEMENT_3D('',#823,#658,#659);
#548=AXIS2_PLACEMENT_3D('',#824,#660,#661);
#549=AXIS2_PLACEMENT_3D('',#825,#662,#663);
#550=AXIS2_PLACEMENT_3D('',#828,#664,#665);
#551=AXIS2_PLACEMENT_3D('',#832,#667,#668);
#552=AXIS2_PLACEMENT_3D('',#834,#670,#671);
#553=AXIS2_PLACEMENT_3D('',#835,#672,#673);
#554=AXIS2_PLACEMENT_3D('',#836,#674,#675);
#555=AXIS2_PLACEMENT_3D('',#837,#676,#677);
#556=AXIS2_PLACEMENT_3D('',#838,#678,#679);
#557=AXIS2_PLACEMENT_3D('',#839,#680,#681);
#558=AXIS2_PLACEMENT_3D('',#840,#682,#683);
#559=AXIS2_PLACEMENT_3D('',#841,#684,#685);
#560=AXIS2_PLACEMENT_3D('',#843,#686,#687);
#561=AXIS2_PLACEMENT_3D('',#845,#688,#689);
#562=AXIS2_PLACEMENT_3D('',#847,#690,#691);
#563=AXIS2_PLACEMENT_3D('',#849,#692,#693);
#564=AXIS2_PLACEMENT_3D('',#852,#694,#695);
#565=AXIS2_PLACEMENT_3D('',#858,#699,#700);
#566=AXIS2_PLACEMENT_3D('',#859,#701,#702);
#567=AXIS2_PLACEMENT_3D('',#860,#703,#704);
#568=AXIS2_PLACEMENT_3D('',#861,#705,#706);
#569=AXIS2_PLACEMENT_3D('',#862,#707,#708);
#570=AXIS2_PLACEMENT_3D('',#864,#709,#710);
#571=AXIS2_PLACEMENT_3D('',#866,#711,#712);
#572=AXIS2_PLACEMENT_3D('',#868,#713,#714);
#573=AXIS2_PLACEMENT_3D('',#870,#715,#716);
#574=AXIS2_PLACEMENT_3D('',#873,#717,#718);
#575=AXIS2_PLACEMENT_3D('',#879,#722,#723);
#576=AXIS2_PLACEMENT_3D('',#880,#724,#725);
#577=AXIS2_PLACEMENT_3D('',#881,#726,#727);
#578=AXIS2_PLACEMENT_3D('',#883,#729,#730);
#579=AXIS2_PLACEMENT_3D('',#885,#732,#733);
#580=AXIS2_PLACEMENT_3D('',#887,#735,#736);
#581=AXIS2_PLACEMENT_3D('',#889,#738,#739);
#582=AXIS2_PLACEMENT_3D('',#890,#740,#741);
#583=AXIS2_PLACEMENT_3D('',#891,#742,#743);
#584=AXIS2_PLACEMENT_3D('',#894,#746,#747);
#585=AXIS2_PLACEMENT_3D('',#896,#749,#750);
#586=DIRECTION('axis',(0.,0.,1.));
#587=DIRECTION('refdir',(1.,0.,0.));
#588=DIRECTION('center_axis',(0.,1.,0.));
#589=DIRECTION('ref_axis',(-0.25,0.,-0.968245836551854));
#590=DIRECTION('center_axis',(0.,-1.,0.));
#591=DIRECTION('ref_axis',(-0.25,0.,-0.968245836551854));
#592=DIRECTION('',(0.,-1.,0.));
#593=DIRECTION('center_axis',(0.,-1.,0.));
#594=DIRECTION('ref_axis',(-0.25,0.,-0.968245836551854));
#595=DIRECTION('',(0.,1.,0.));
#596=DIRECTION('center_axis',(0.,1.,0.));
#597=DIRECTION('ref_axis',(0.968245836551854,0.,-0.25));
#598=DIRECTION('center_axis',(0.,-1.,0.));
#599=DIRECTION('ref_axis',(0.968245836551854,0.,-0.25));
#600=DIRECTION('',(0.,-1.,0.));
#601=DIRECTION('center_axis',(0.,-1.,0.));
#602=DIRECTION('ref_axis',(0.968245836551854,0.,-0.25));
#603=DIRECTION('',(0.,1.,0.));
#604=DIRECTION('center_axis',(0.,1.,0.));
#605=DIRECTION('ref_axis',(-0.968245836551854,0.,0.25));
#606=DIRECTION('center_axis',(0.,-1.,0.));
#607=DIRECTION('ref_axis',(-0.968245836551854,0.,0.25));
#608=DIRECTION('',(0.,-1.,0.));
#609=DIRECTION('center_axis',(0.,-1.,0.));
#610=DIRECTION('ref_axis',(-0.968245836551854,0.,0.25));
#611=DIRECTION('',(0.,1.,0.));
#612=DIRECTION('center_axis',(0.,1.,0.));
#613=DIRECTION('ref_axis',(0.25,0.,0.968245836551854));
#614=DIRECTION('center_axis',(0.,-1.,0.));
#615=DIRECTION('ref_axis',(0.25,0.,0.968245836551854));
#616=DIRECTION('',(0.,-1.,0.));
#617=DIRECTION('center_axis',(0.,-1.,0.));
#618=DIRECTION('ref_axis',(0.25,0.,0.968245836551854));
#619=DIRECTION('',(0.,1.,0.));
#620=DIRECTION('center_axis',(0.,1.,0.));
#621=DIRECTION('ref_axis',(0.882352941176777,0.,-0.470588235293542));
#622=DIRECTION('center_axis',(0.,1.,0.));
#623=DIRECTION('ref_axis',(0.882352941176777,0.,-0.470588235293542));
#624=DIRECTION('',(0.,-1.,0.));
#625=DIRECTION('center_axis',(0.,-1.,0.));
#626=DIRECTION('ref_axis',(0.882352941176777,0.,-0.470588235293542));
#627=DIRECTION('',(0.,1.,0.));
#628=DIRECTION('center_axis',(0.,1.,0.));
#629=DIRECTION('ref_axis',(-0.882352941176778,0.,0.470588235293542));
#630=DIRECTION('center_axis',(0.,-1.,0.));
#631=DIRECTION('ref_axis',(-0.882352941176778,0.,0.470588235293542));
#632=DIRECTION('center_axis',(0.,1.,0.));
#633=DIRECTION('ref_axis',(-0.882352941176778,0.,0.470588235293542));
#634=DIRECTION('center_axis',(0.,1.,0.));
#635=DIRECTION('ref_axis',(-0.882352941176496,0.,0.470588235294071));
#636=DIRECTION('center_axis',(0.,1.,0.));
#637=DIRECTION('ref_axis',(-0.882352941176496,0.,0.470588235294071));
#638=DIRECTION('',(0.,-1.,0.));
#639=DIRECTION('center_axis',(0.,-1.,0.));
#640=DIRECTION('ref_axis',(-0.882352941176496,0.,0.470588235294071));
#641=DIRECTION('',(0.,1.,0.));
#642=DIRECTION('center_axis',(0.,1.,0.));
#643=DIRECTION('ref_axis',(0.882352941176495,0.,-0.470588235294072));
#644=DIRECTION('center_axis',(0.,-1.,0.));
#645=DIRECTION('ref_axis',(0.882352941176495,0.,-0.470588235294072));
#646=DIRECTION('center_axis',(0.,1.,0.));
#647=DIRECTION('ref_axis',(0.882352941176495,0.,-0.470588235294072));
#648=DIRECTION('center_axis',(0.,1.,0.));
#649=DIRECTION('ref_axis',(0.470587772171389,0.,0.882353188175103));
#650=DIRECTION('center_axis',(0.,1.,0.));
#651=DIRECTION('ref_axis',(0.470587772171389,0.,0.882353188175103));
#652=DIRECTION('',(0.,-1.,0.));
#653=DIRECTION('center_axis',(0.,-1.,0.));
#654=DIRECTION('ref_axis',(0.470587772171389,0.,0.882353188175103));
#655=DIRECTION('',(0.,1.,0.));
#656=DIRECTION('center_axis',(0.,1.,0.));
#657=DIRECTION('ref_axis',(-0.470589346788138,0.,-0.88235234837876));
#658=DIRECTION('center_axis',(0.,-1.,0.));
#659=DIRECTION('ref_axis',(-0.470589346788138,0.,-0.88235234837876));
#660=DIRECTION('center_axis',(0.,1.,0.));
#661=DIRECTION('ref_axis',(-0.470589346788138,0.,-0.88235234837876));
#662=DIRECTION('center_axis',(0.,1.,0.));
#663=DIRECTION('ref_axis',(-0.470588235294117,0.,-0.882352941176471));
#664=DIRECTION('center_axis',(0.,1.,0.));
#665=DIRECTION('ref_axis',(-0.470588235294117,0.,-0.882352941176471));
#666=DIRECTION('',(0.,-1.,0.));
#667=DIRECTION('center_axis',(0.,-1.,0.));
#668=DIRECTION('ref_axis',(-0.470588235294117,0.,-0.882352941176471));
#669=DIRECTION('',(0.,1.,0.));
#670=DIRECTION('center_axis',(0.,1.,0.));
#671=DIRECTION('ref_axis',(0.470588235294118,0.,0.88235294117647));
#672=DIRECTION('center_axis',(0.,-1.,0.));
#673=DIRECTION('ref_axis',(0.470588235294118,0.,0.88235294117647));
#674=DIRECTION('center_axis',(0.,1.,0.));
#675=DIRECTION('ref_axis',(0.470588235294118,0.,0.88235294117647));
#676=DIRECTION('center_axis',(0.,1.,0.));
#677=DIRECTION('ref_axis',(1.,0.,0.));
#678=DIRECTION('center_axis',(0.,1.,0.));
#679=DIRECTION('ref_axis',(0.,0.,-1.));
#680=DIRECTION('center_axis',(0.,1.,0.));
#681=DIRECTION('ref_axis',(0.,0.,-1.));
#682=DIRECTION('center_axis',(0.,1.,0.));
#683=DIRECTION('ref_axis',(0.,0.,-1.));
#684=DIRECTION('center_axis',(0.,1.,0.));
#685=DIRECTION('ref_axis',(0.,0.,-1.));
#686=DIRECTION('center_axis',(0.,1.,0.));
#687=DIRECTION('ref_axis',(0.,0.,-1.));
#688=DIRECTION('center_axis',(0.,1.,0.));
#689=DIRECTION('ref_axis',(0.,0.,-1.));
#690=DIRECTION('center_axis',(0.,1.,0.));
#691=DIRECTION('ref_axis',(0.,0.,-1.));
#692=DIRECTION('center_axis',(0.,1.,0.));
#693=DIRECTION('ref_axis',(0.,0.,-1.));
#694=DIRECTION('center_axis',(0.,-1.,0.));
#695=DIRECTION('ref_axis',(1.,0.,-4.89858719658941E-17));
#696=DIRECTION('',(-1.1119021670984E-16,0.,-1.));
#697=DIRECTION('',(-1.,0.,0.));
#698=DIRECTION('',(0.,0.,1.));
#699=DIRECTION('center_axis',(0.,1.,0.));
#700=DIRECTION('ref_axis',(1.,0.,0.));
#701=DIRECTION('center_axis',(0.,-1.,0.));
#702=DIRECTION('ref_axis',(0.,0.,-1.));
#703=DIRECTION('center_axis',(0.,-1.,0.));
#704=DIRECTION('ref_axis',(0.,0.,-1.));
#705=DIRECTION('center_axis',(0.,-1.,0.));
#706=DIRECTION('ref_axis',(0.,0.,-1.));
#707=DIRECTION('center_axis',(0.,-1.,0.));
#708=DIRECTION('ref_axis',(0.,0.,-1.));
#709=DIRECTION('center_axis',(0.,-1.,0.));
#710=DIRECTION('ref_axis',(0.,0.,-1.));
#711=DIRECTION('center_axis',(0.,-1.,0.));
#712=DIRECTION('ref_axis',(0.,0.,-1.));
#713=DIRECTION('center_axis',(0.,-1.,0.));
#714=DIRECTION('ref_axis',(0.,0.,-1.));
#715=DIRECTION('center_axis',(0.,-1.,0.));
#716=DIRECTION('ref_axis',(0.,0.,-1.));
#717=DIRECTION('center_axis',(0.,-1.,0.));
#718=DIRECTION('ref_axis',(1.,0.,-4.89858719658941E-17));
#719=DIRECTION('',(0.,0.,1.));
#720=DIRECTION('',(-1.,0.,0.));
#721=DIRECTION('',(-1.1119021670984E-16,0.,-1.));
#722=DIRECTION('center_axis',(0.,1.,0.));
#723=DIRECTION('ref_axis',(-1.22464679914735E-16,0.,1.));
#724=DIRECTION('center_axis',(0.,1.,0.));
#725=DIRECTION('ref_axis',(0.,0.,-1.));
#726=DIRECTION('center_axis',(0.,1.,0.));
#727=DIRECTION('ref_axis',(0.,0.,-1.));
#728=DIRECTION('',(0.,1.,0.));
#729=DIRECTION('center_axis',(0.,1.,0.));
#730=DIRECTION('ref_axis',(0.,0.,-1.));
#731=DIRECTION('',(0.,1.,0.));
#732=DIRECTION('center_axis',(0.,1.,0.));
#733=DIRECTION('ref_axis',(0.,0.,-1.));
#734=DIRECTION('',(0.,1.,0.));
#735=DIRECTION('center_axis',(0.,1.,0.));
#736=DIRECTION('ref_axis',(0.,0.,-1.));
#737=DIRECTION('',(0.,1.,0.));
#738=DIRECTION('center_axis',(0.,1.,0.));
#739=DIRECTION('ref_axis',(0.,0.,-1.));
#740=DIRECTION('center_axis',(0.,1.,0.));
#741=DIRECTION('ref_axis',(0.,0.,-1.));
#742=DIRECTION('center_axis',(1.,0.,-1.1119021670984E-16));
#743=DIRECTION('ref_axis',(-1.1119021670984E-16,0.,-1.));
#744=DIRECTION('',(0.,1.,0.));
#745=DIRECTION('',(0.,1.,0.));
#746=DIRECTION('center_axis',(0.,0.,-1.));
#747=DIRECTION('ref_axis',(-1.,0.,0.));
#748=DIRECTION('',(0.,1.,0.));
#749=DIRECTION('center_axis',(-1.,0.,0.));
#750=DIRECTION('ref_axis',(0.,0.,1.));
#751=DIRECTION('',(0.,1.,0.));
#752=CARTESIAN_POINT('',(0.,0.,0.));
#753=CARTESIAN_POINT('Origin',(4.44089209850063E-15,0.,23.4122918275927));
#754=CARTESIAN_POINT('',(-12.5,5.,-25.));
#755=CARTESIAN_POINT('',(12.5,5.,-25.));
#756=CARTESIAN_POINT('Origin',(4.44089209850063E-15,5.,23.4122918275927));
#757=CARTESIAN_POINT('',(12.5,0.,-25.));
#758=CARTESIAN_POINT('',(12.5,0.,-25.));
#759=CARTESIAN_POINT('',(-12.5,0.,-25.));
#760=CARTESIAN_POINT('Origin',(4.44089209850063E-15,0.,23.4122918275927));
#761=CARTESIAN_POINT('',(-12.5,2.75,-25.));
#762=CARTESIAN_POINT('Origin',(-23.4122918275927,0.,7.20749391746815E-15));
#763=CARTESIAN_POINT('',(25.,5.,-12.5));
#764=CARTESIAN_POINT('',(25.,5.,12.4999999999995));
#765=CARTESIAN_POINT('Origin',(-23.4122918275927,5.,7.20749391746815E-15));
#766=CARTESIAN_POINT('',(25.,0.,12.4999999999995));
#767=CARTESIAN_POINT('',(25.,0.,12.4999999999995));
#768=CARTESIAN_POINT('',(25.,0.,-12.5));
#769=CARTESIAN_POINT('Origin',(-23.4122918275927,0.,7.20749391746815E-15));
#770=CARTESIAN_POINT('',(25.,2.75,-12.5));
#771=CARTESIAN_POINT('Origin',(23.4122918275927,0.,8.88178419700125E-15));
#772=CARTESIAN_POINT('',(-25.,5.,12.5));
#773=CARTESIAN_POINT('',(-25.,5.,-12.5));
#774=CARTESIAN_POINT('Origin',(23.4122918275927,5.,8.88178419700125E-15));
#775=CARTESIAN_POINT('',(-25.,0.,-12.5));
#776=CARTESIAN_POINT('',(-25.,0.,-12.5));
#777=CARTESIAN_POINT('',(-25.,0.,12.5));
#778=CARTESIAN_POINT('Origin',(23.4122918275927,0.,8.88178419700125E-15));
#779=CARTESIAN_POINT('',(-25.,2.75,12.5));
#780=CARTESIAN_POINT('Origin',(2.49352393267445E-15,0.,-23.4122918275927));
#781=CARTESIAN_POINT('',(12.5,5.,25.));
#782=CARTESIAN_POINT('',(-12.499999999998,5.,25.));
#783=CARTESIAN_POINT('Origin',(2.49352393267445E-15,5.,-23.4122918275927));
#784=CARTESIAN_POINT('',(-12.499999999998,0.,25.));
#785=CARTESIAN_POINT('',(-12.499999999998,0.,25.));
#786=CARTESIAN_POINT('',(12.5,0.,25.));
#787=CARTESIAN_POINT('Origin',(2.49352393267445E-15,0.,-23.4122918275927));
#788=CARTESIAN_POINT('',(12.5,2.75,25.));
#789=CARTESIAN_POINT('Origin',(17.4999999999958,0.,18.999999999996));
#790=CARTESIAN_POINT('',(17.5,5.,25.));
#791=CARTESIAN_POINT('',(22.7941176470576,5.,16.1764705882341));
#792=CARTESIAN_POINT('Origin',(17.4999999999958,5.,18.999999999996));
#793=CARTESIAN_POINT('',(17.5,0.,25.));
#794=CARTESIAN_POINT('',(17.5,2.75,25.));
#795=CARTESIAN_POINT('',(22.7941176470576,0.,16.1764705882341));
#796=CARTESIAN_POINT('Origin',(17.4999999999958,0.,18.999999999996));
#797=CARTESIAN_POINT('',(22.7941176470576,0.,16.1764705882341));
#798=CARTESIAN_POINT('Origin',(25.,0.,15.));
#799=CARTESIAN_POINT('Origin',(25.,5.,15.));
#800=CARTESIAN_POINT('Origin',(25.,0.,15.));
#801=CARTESIAN_POINT('Origin',(-17.4999999999997,0.,-18.9999999999997));
#802=CARTESIAN_POINT('',(-17.5,5.,-25.));
#803=CARTESIAN_POINT('',(-22.7941176470587,5.,-16.1764705882352));
#804=CARTESIAN_POINT('Origin',(-17.4999999999997,5.,-18.9999999999997));
#805=CARTESIAN_POINT('',(-17.5,0.,-25.));
#806=CARTESIAN_POINT('',(-17.5,2.75,-25.));
#807=CARTESIAN_POINT('',(-22.7941176470587,0.,-16.1764705882352));
#808=CARTESIAN_POINT('Origin',(-17.4999999999997,0.,-18.9999999999997));
#809=CARTESIAN_POINT('',(-22.7941176470587,0.,-16.1764705882352));
#810=CARTESIAN_POINT('Origin',(-25.,0.,-15.));
#811=CARTESIAN_POINT('Origin',(-25.,5.,-15.));
#812=CARTESIAN_POINT('Origin',(-25.,0.,-15.));
#813=CARTESIAN_POINT('Origin',(-19.,0.,17.5));
#814=CARTESIAN_POINT('',(-25.,5.,17.5));
#815=CARTESIAN_POINT('',(-16.1764733669713,5.,22.7941191290513));
#816=CARTESIAN_POINT('Origin',(-19.,5.,17.5));
#817=CARTESIAN_POINT('',(-25.,0.,17.5));
#818=CARTESIAN_POINT('',(-25.,2.75,17.5));
#819=CARTESIAN_POINT('',(-16.1764733669713,0.,22.7941191290513));
#820=CARTESIAN_POINT('Origin',(-19.,0.,17.5));
#821=CARTESIAN_POINT('',(-16.1764733669713,0.,22.7941191290513));
#822=CARTESIAN_POINT('Origin',(-15.,0.,25.));
#823=CARTESIAN_POINT('Origin',(-15.,5.,25.));
#824=CARTESIAN_POINT('Origin',(-15.,0.,25.));
#825=CARTESIAN_POINT('Origin',(19.,0.,-17.5));
#826=CARTESIAN_POINT('',(25.,5.,-17.5));
#827=CARTESIAN_POINT('',(16.1764705882353,5.,-22.7941176470588));
#828=CARTESIAN_POINT('Origin',(19.,5.,-17.5));
#829=CARTESIAN_POINT('',(25.,0.,-17.5));
#830=CARTESIAN_POINT('',(25.,2.75,-17.5));
#831=CARTESIAN_POINT('',(16.1764705882353,0.,-22.7941176470588));
#832=CARTESIAN_POINT('Origin',(19.,0.,-17.5));
#833=CARTESIAN_POINT('',(16.1764705882353,0.,-22.7941176470588));
#834=CARTESIAN_POINT('Origin',(15.,0.,-25.));
#835=CARTESIAN_POINT('Origin',(15.,5.,-25.));
#836=CARTESIAN_POINT('Origin',(15.,0.,-25.));
#837=CARTESIAN_POINT('Origin',(0.,0.,0.));
#838=CARTESIAN_POINT('Origin',(15.,0.,25.));
#839=CARTESIAN_POINT('Origin',(-25.,0.,15.));
#840=CARTESIAN_POINT('Origin',(-15.,0.,-25.));
#841=CARTESIAN_POINT('Origin',(25.,0.,-15.));
#842=CARTESIAN_POINT('',(15.,0.,-12.5));
#843=CARTESIAN_POINT('Origin',(15.,0.,-15.));
#844=CARTESIAN_POINT('',(-15.,0.,17.5));
#845=CARTESIAN_POINT('Origin',(-15.,0.,15.));
#846=CARTESIAN_POINT('',(15.,0.,17.5));
#847=CARTESIAN_POINT('Origin',(15.,0.,15.));
#848=CARTESIAN_POINT('',(-15.,0.,-12.5));
#849=CARTESIAN_POINT('Origin',(-15.,0.,-15.));
#850=CARTESIAN_POINT('',(-3.00000000000002,0.,11.7575507653593));
#851=CARTESIAN_POINT('',(2.99999999999999,0.,11.7575507653593));
#852=CARTESIAN_POINT('Origin',(0.,0.,0.));
#853=CARTESIAN_POINT('',(-3.,0.,16.75));
#854=CARTESIAN_POINT('',(-3.,0.,11.7575507653593));
#855=CARTESIAN_POINT('',(3.,0.,16.75));
#856=CARTESIAN_POINT('',(-3.,0.,16.75));
#857=CARTESIAN_POINT('',(3.,0.,16.75));
#858=CARTESIAN_POINT('Origin',(0.,5.,0.));
#859=CARTESIAN_POINT('Origin',(25.,5.,-15.));
#860=CARTESIAN_POINT('Origin',(-15.,5.,-25.));
#861=CARTESIAN_POINT('Origin',(-25.,5.,15.));
#862=CARTESIAN_POINT('Origin',(15.,5.,25.));
#863=CARTESIAN_POINT('',(15.,5.,-12.5));
#864=CARTESIAN_POINT('Origin',(15.,5.,-15.));
#865=CARTESIAN_POINT('',(-15.,5.,17.5));
#866=CARTESIAN_POINT('Origin',(-15.,5.,15.));
#867=CARTESIAN_POINT('',(15.,5.,17.5));
#868=CARTESIAN_POINT('Origin',(15.,5.,15.));
#869=CARTESIAN_POINT('',(-15.,5.,-12.5));
#870=CARTESIAN_POINT('Origin',(-15.,5.,-15.));
#871=CARTESIAN_POINT('',(-3.00000000000002,5.,11.7575507653593));
#872=CARTESIAN_POINT('',(2.99999999999999,5.,11.7575507653593));
#873=CARTESIAN_POINT('Origin',(0.,5.,0.));
#874=CARTESIAN_POINT('',(3.,5.,16.75));
#875=CARTESIAN_POINT('',(3.,5.,16.75));
#876=CARTESIAN_POINT('',(-3.,5.,16.75));
#877=CARTESIAN_POINT('',(-3.,5.,16.75));
#878=CARTESIAN_POINT('',(-3.,5.,11.7575507653593));
#879=CARTESIAN_POINT('Origin',(-15.,2.75,-25.));
#880=CARTESIAN_POINT('Origin',(15.,2.75,25.));
#881=CARTESIAN_POINT('Origin',(15.,2.75,-15.));
#882=CARTESIAN_POINT('',(15.,2.75,-12.5));
#883=CARTESIAN_POINT('Origin',(-15.,2.75,15.));
#884=CARTESIAN_POINT('',(-15.,2.75,17.5));
#885=CARTESIAN_POINT('Origin',(15.,2.75,15.));
#886=CARTESIAN_POINT('',(15.,2.75,17.5));
#887=CARTESIAN_POINT('Origin',(-15.,2.75,-15.));
#888=CARTESIAN_POINT('',(-15.,2.75,-12.5));
#889=CARTESIAN_POINT('Origin',(-25.,2.75,15.));
#890=CARTESIAN_POINT('Origin',(25.,2.75,-15.));
#891=CARTESIAN_POINT('Origin',(-3.,0.,16.75));
#892=CARTESIAN_POINT('',(-3.00000000000002,0.,11.7575507653593));
#893=CARTESIAN_POINT('',(-3.,0.,16.75));
#894=CARTESIAN_POINT('Origin',(3.,0.,16.75));
#895=CARTESIAN_POINT('',(3.,0.,16.75));
#896=CARTESIAN_POINT('Origin',(3.,0.,11.7575507653593));
#897=CARTESIAN_POINT('',(2.99999999999999,0.,11.7575507653593));
#898=CARTESIAN_POINT('Ctrl Pts',(2.99999999999999,0.,11.7575507653593));
#899=CARTESIAN_POINT('Ctrl Pts',(16.2870480058771,0.,9.58778491187501));
#900=CARTESIAN_POINT('Ctrl Pts',(14.9240422950769,0.,-1.20610754406249));
#901=CARTESIAN_POINT('Ctrl Pts',(13.5610365842766,0.,-12.));
#902=CARTESIAN_POINT('Ctrl Pts',(-5.8783046359073E-16,0.,-12.));
#903=CARTESIAN_POINT('Ctrl Pts',(-13.5610365842766,0.,-12.));
#904=CARTESIAN_POINT('Ctrl Pts',(-14.9240422950769,0.,-1.20610754406251));
#905=CARTESIAN_POINT('Ctrl Pts',(-16.2870480058772,0.,9.58778491187499));
#906=CARTESIAN_POINT('Ctrl Pts',(-3.00000000000001,0.,11.7575507653593));
#907=CARTESIAN_POINT('Ctrl Pts',(2.99999999999999,5.,11.7575507653593));
#908=CARTESIAN_POINT('Ctrl Pts',(16.2870480058771,5.,9.58778491187501));
#909=CARTESIAN_POINT('Ctrl Pts',(14.9240422950769,5.,-1.20610754406249));
#910=CARTESIAN_POINT('Ctrl Pts',(13.5610365842766,5.,-12.));
#911=CARTESIAN_POINT('Ctrl Pts',(-5.8783046359073E-16,5.,-12.));
#912=CARTESIAN_POINT('Ctrl Pts',(-13.5610365842766,5.,-12.));
#913=CARTESIAN_POINT('Ctrl Pts',(-14.9240422950769,5.,-1.20610754406251));
#914=CARTESIAN_POINT('Ctrl Pts',(-16.2870480058772,5.,9.58778491187499));
#915=CARTESIAN_POINT('Ctrl Pts',(-3.00000000000001,5.,11.7575507653593));
#916=UNCERTAINTY_MEASURE_WITH_UNIT(LENGTH_MEASURE(0.01),#920,
'DISTANCE_ACCURACY_VALUE',
'Maximum model space distance between geometric entities at asserted c
onnectivities');
#917=UNCERTAINTY_MEASURE_WITH_UNIT(LENGTH_MEASURE(0.01),#920,
'DISTANCE_ACCURACY_VALUE',
'Maximum model space distance between geometric entities at asserted c
onnectivities');
#918=(
GEOMETRIC_REPRESENTATION_CONTEXT(3)
GLOBAL_UNCERTAINTY_ASSIGNED_CONTEXT((#916))
GLOBAL_UNIT_ASSIGNED_CONTEXT((#920,#922,#923))
REPRESENTATION_CONTEXT('','3D')
);
#919=(
GEOMETRIC_REPRESENTATION_CONTEXT(3)
GLOBAL_UNCERTAINTY_ASSIGNED_CONTEXT((#917))
GLOBAL_UNIT_ASSIGNED_CONTEXT((#920,#922,#923))
REPRESENTATION_CONTEXT('','3D')
);
#920=(
LENGTH_UNIT()
NAMED_UNIT(*)
SI_UNIT(.MILLI.,.METRE.)
);
#921=(
LENGTH_UNIT()
NAMED_UNIT(*)
SI_UNIT($,.METRE.)
);
#922=(
NAMED_UNIT(*)
PLANE_ANGLE_UNIT()
SI_UNIT($,.RADIAN.)
);
#923=(
NAMED_UNIT(*)
SI_UNIT($,.STERADIAN.)
SOLID_ANGLE_UNIT()
);
#924=SHAPE_DEFINITION_REPRESENTATION(#925,#926);
#925=PRODUCT_DEFINITION_SHAPE('',$,#928);
#926=SHAPE_REPRESENTATION('',(#518),#918);
#927=PRODUCT_DEFINITION_CONTEXT('part definition',#932,'design');
#928=PRODUCT_DEFINITION('2026-08-15-01-44-12-095','Slip Nut Insert',#929,
#927);
#929=PRODUCT_DEFINITION_FORMATION('',$,#934);
#930=PRODUCT_RELATED_PRODUCT_CATEGORY('Slip Nut Insert',
'Slip Nut Insert',(#934));
#931=APPLICATION_PROTOCOL_DEFINITION('international standard',
'automotive_design',2009,#932);
#932=APPLICATION_CONTEXT(
'Core Data for Automotive Mechanical Design Process');
#933=PRODUCT_CONTEXT('part definition',#932,'mechanical');
#934=PRODUCT('2026-08-15-01-44-12-095','Slip Nut Insert',$,(#933));
#935=PRESENTATION_STYLE_ASSIGNMENT((#936));
#936=SURFACE_STYLE_USAGE(.BOTH.,#937);
#937=SURFACE_SIDE_STYLE('',(#938));
#938=SURFACE_STYLE_FILL_AREA(#939);
#939=FILL_AREA_STYLE('Steel - Satin',(#940));
#940=FILL_AREA_STYLE_COLOUR('Steel - Satin',#941);
#941=COLOUR_RGB('Steel - Satin',0.627450980392157,0.627450980392157,0.627450980392157);
ENDSEC;
END-ISO-10303-21;
