ISO-10303-21;
HEADER;
/* Generated by software containing ST-Developer
 * from STEP Tools, Inc. (www.steptools.com) 
 */

FILE_DESCRIPTION(
/* description */ (''),
/* implementation_level */ '2;1');

FILE_NAME(
/* name */ 'Model.step',
/* time_stamp */ '2026-08-19T07:09:20+05:30',
/* author */ (''),
/* organization */ (''),
/* preprocessor_version */ 'ST-DEVELOPER v20.1',
/* originating_system */ 'Autodesk Translation Framework v15.8.0.0',
/* authorisation */ '');

FILE_SCHEMA (('AUTOMOTIVE_DESIGN { 1 0 10303 214 3 1 1 }'));
ENDSEC;

DATA;
#10=MECHANICAL_DESIGN_GEOMETRIC_PRESENTATION_REPRESENTATION('',(#13),#485);
#11=SHAPE_REPRESENTATION_RELATIONSHIP('SRR','None',#492,#12);
#12=ADVANCED_BREP_SHAPE_REPRESENTATION('',(#14),#484);
#13=STYLED_ITEM('',(#502),#14);
#14=MANIFOLD_SOLID_BREP('Body1',#293);
#15=FACE_BOUND('',#48,.T.);
#16=FACE_BOUND('',#56,.T.);
#17=CIRCLE('',#314,7.5);
#18=CIRCLE('',#315,7.5);
#19=CIRCLE('',#317,15.);
#20=CIRCLE('',#318,15.);
#21=CYLINDRICAL_SURFACE('',#313,7.5);
#22=CYLINDRICAL_SURFACE('',#316,15.);
#23=FACE_OUTER_BOUND('',#39,.T.);
#24=FACE_OUTER_BOUND('',#40,.T.);
#25=FACE_OUTER_BOUND('',#41,.T.);
#26=FACE_OUTER_BOUND('',#42,.T.);
#27=FACE_OUTER_BOUND('',#43,.T.);
#28=FACE_OUTER_BOUND('',#44,.T.);
#29=FACE_OUTER_BOUND('',#45,.T.);
#30=FACE_OUTER_BOUND('',#46,.T.);
#31=FACE_OUTER_BOUND('',#47,.T.);
#32=FACE_OUTER_BOUND('',#49,.T.);
#33=FACE_OUTER_BOUND('',#50,.T.);
#34=FACE_OUTER_BOUND('',#51,.T.);
#35=FACE_OUTER_BOUND('',#52,.T.);
#36=FACE_OUTER_BOUND('',#53,.T.);
#37=FACE_OUTER_BOUND('',#54,.T.);
#38=FACE_OUTER_BOUND('',#55,.T.);
#39=EDGE_LOOP('',(#187,#188,#189,#190));
#40=EDGE_LOOP('',(#191,#192,#193));
#41=EDGE_LOOP('',(#194,#195,#196));
#42=EDGE_LOOP('',(#197,#198,#199,#200));
#43=EDGE_LOOP('',(#201,#202,#203,#204,#205));
#44=EDGE_LOOP('',(#206,#207,#208,#209));
#45=EDGE_LOOP('',(#210,#211,#212,#213));
#46=EDGE_LOOP('',(#214,#215,#216,#217));
#47=EDGE_LOOP('',(#218,#219,#220,#221,#222,#223));
#48=EDGE_LOOP('',(#224));
#49=EDGE_LOOP('',(#225,#226,#227,#228,#229,#230));
#50=EDGE_LOOP('',(#231,#232,#233,#234));
#51=EDGE_LOOP('',(#235,#236,#237,#238,#239,#240));
#52=EDGE_LOOP('',(#241,#242,#243,#244,#245));
#53=EDGE_LOOP('',(#246,#247,#248,#249));
#54=EDGE_LOOP('',(#250,#251,#252,#253,#254,#255));
#55=EDGE_LOOP('',(#256,#257,#258,#259,#260,#261));
#56=EDGE_LOOP('',(#262));
#57=LINE('',#407,#91);
#58=LINE('',#409,#92);
#59=LINE('',#411,#93);
#60=LINE('',#412,#94);
#61=LINE('',#415,#95);
#62=LINE('',#416,#96);
#63=LINE('',#419,#97);
#64=LINE('',#420,#98);
#65=LINE('',#423,#99);
#66=LINE('',#425,#100);
#67=LINE('',#426,#101);
#68=LINE('',#429,#102);
#69=LINE('',#431,#103);
#70=LINE('',#432,#104);
#71=LINE('',#435,#105);
#72=LINE('',#437,#106);
#73=LINE('',#438,#107);
#74=LINE('',#443,#108);
#75=LINE('',#450,#109);
#76=LINE('',#453,#110);
#77=LINE('',#455,#111);
#78=LINE('',#456,#112);
#79=LINE('',#459,#113);
#80=LINE('',#460,#114);
#81=LINE('',#463,#115);
#82=LINE('',#464,#116);
#83=LINE('',#467,#117);
#84=LINE('',#469,#118);
#85=LINE('',#470,#119);
#86=LINE('',#473,#120);
#87=LINE('',#474,#121);
#88=LINE('',#477,#122);
#89=LINE('',#478,#123);
#90=LINE('',#480,#124);
#91=VECTOR('',#331,10.);
#92=VECTOR('',#332,10.);
#93=VECTOR('',#333,10.);
#94=VECTOR('',#334,10.);
#95=VECTOR('',#337,10.);
#96=VECTOR('',#338,10.);
#97=VECTOR('',#341,10.);
#98=VECTOR('',#342,10.);
#99=VECTOR('',#345,10.);
#100=VECTOR('',#346,10.);
#101=VECTOR('',#347,10.);
#102=VECTOR('',#350,10.);
#103=VECTOR('',#351,10.);
#104=VECTOR('',#352,10.);
#105=VECTOR('',#355,10.);
#106=VECTOR('',#356,10.);
#107=VECTOR('',#357,10.);
#108=VECTOR('',#362,7.5);
#109=VECTOR('',#369,10.);
#110=VECTOR('',#372,10.);
#111=VECTOR('',#375,10.);
#112=VECTOR('',#376,10.);
#113=VECTOR('',#379,10.);
#114=VECTOR('',#380,10.);
#115=VECTOR('',#383,10.);
#116=VECTOR('',#384,10.);
#117=VECTOR('',#387,10.);
#118=VECTOR('',#388,10.);
#119=VECTOR('',#389,10.);
#120=VECTOR('',#392,10.);
#121=VECTOR('',#393,10.);
#122=VECTOR('',#396,10.);
#123=VECTOR('',#397,10.);
#124=VECTOR('',#400,10.);
#125=VERTEX_POINT('',#405);
#126=VERTEX_POINT('',#406);
#127=VERTEX_POINT('',#408);
#128=VERTEX_POINT('',#410);
#129=VERTEX_POINT('',#414);
#130=VERTEX_POINT('',#418);
#131=VERTEX_POINT('',#422);
#132=VERTEX_POINT('',#424);
#133=VERTEX_POINT('',#428);
#134=VERTEX_POINT('',#430);
#135=VERTEX_POINT('',#434);
#136=VERTEX_POINT('',#436);
#137=VERTEX_POINT('',#440);
#138=VERTEX_POINT('',#442);
#139=VERTEX_POINT('',#446);
#140=VERTEX_POINT('',#447);
#141=VERTEX_POINT('',#449);
#142=VERTEX_POINT('',#451);
#143=VERTEX_POINT('',#458);
#144=VERTEX_POINT('',#462);
#145=VERTEX_POINT('',#466);
#146=VERTEX_POINT('',#468);
#147=VERTEX_POINT('',#472);
#148=VERTEX_POINT('',#476);
#149=EDGE_CURVE('',#125,#126,#57,.T.);
#150=EDGE_CURVE('',#126,#127,#58,.T.);
#151=EDGE_CURVE('',#128,#127,#59,.T.);
#152=EDGE_CURVE('',#128,#125,#60,.T.);
#153=EDGE_CURVE('',#129,#126,#61,.T.);
#154=EDGE_CURVE('',#127,#129,#62,.T.);
#155=EDGE_CURVE('',#130,#128,#63,.T.);
#156=EDGE_CURVE('',#125,#130,#64,.T.);
#157=EDGE_CURVE('',#129,#131,#65,.T.);
#158=EDGE_CURVE('',#131,#132,#66,.T.);
#159=EDGE_CURVE('',#127,#132,#67,.T.);
#160=EDGE_CURVE('',#126,#133,#68,.T.);
#161=EDGE_CURVE('',#133,#134,#69,.T.);
#162=EDGE_CURVE('',#134,#131,#70,.T.);
#163=EDGE_CURVE('',#135,#128,#71,.T.);
#164=EDGE_CURVE('',#136,#135,#72,.T.);
#165=EDGE_CURVE('',#136,#130,#73,.T.);
#166=EDGE_CURVE('',#137,#137,#17,.T.);
#167=EDGE_CURVE('',#137,#138,#74,.T.);
#168=EDGE_CURVE('',#138,#138,#18,.T.);
#169=EDGE_CURVE('',#139,#140,#19,.T.);
#170=EDGE_CURVE('',#140,#141,#75,.T.);
#171=EDGE_CURVE('',#142,#141,#20,.T.);
#172=EDGE_CURVE('',#139,#142,#76,.T.);
#173=EDGE_CURVE('',#132,#142,#77,.T.);
#174=EDGE_CURVE('',#141,#135,#78,.T.);
#175=EDGE_CURVE('',#143,#139,#79,.T.);
#176=EDGE_CURVE('',#143,#134,#80,.T.);
#177=EDGE_CURVE('',#144,#143,#81,.T.);
#178=EDGE_CURVE('',#144,#133,#82,.T.);
#179=EDGE_CURVE('',#145,#144,#83,.T.);
#180=EDGE_CURVE('',#146,#125,#84,.T.);
#181=EDGE_CURVE('',#145,#146,#85,.T.);
#182=EDGE_CURVE('',#136,#147,#86,.T.);
#183=EDGE_CURVE('',#147,#146,#87,.T.);
#184=EDGE_CURVE('',#148,#145,#88,.T.);
#185=EDGE_CURVE('',#148,#147,#89,.T.);
#186=EDGE_CURVE('',#140,#148,#90,.T.);
#187=ORIENTED_EDGE('',*,*,#149,.T.);
#188=ORIENTED_EDGE('',*,*,#150,.T.);
#189=ORIENTED_EDGE('',*,*,#151,.F.);
#190=ORIENTED_EDGE('',*,*,#152,.T.);
#191=ORIENTED_EDGE('',*,*,#150,.F.);
#192=ORIENTED_EDGE('',*,*,#153,.F.);
#193=ORIENTED_EDGE('',*,*,#154,.F.);
#194=ORIENTED_EDGE('',*,*,#152,.F.);
#195=ORIENTED_EDGE('',*,*,#155,.F.);
#196=ORIENTED_EDGE('',*,*,#156,.F.);
#197=ORIENTED_EDGE('',*,*,#154,.T.);
#198=ORIENTED_EDGE('',*,*,#157,.T.);
#199=ORIENTED_EDGE('',*,*,#158,.T.);
#200=ORIENTED_EDGE('',*,*,#159,.F.);
#201=ORIENTED_EDGE('',*,*,#153,.T.);
#202=ORIENTED_EDGE('',*,*,#160,.T.);
#203=ORIENTED_EDGE('',*,*,#161,.T.);
#204=ORIENTED_EDGE('',*,*,#162,.T.);
#205=ORIENTED_EDGE('',*,*,#157,.F.);
#206=ORIENTED_EDGE('',*,*,#155,.T.);
#207=ORIENTED_EDGE('',*,*,#163,.F.);
#208=ORIENTED_EDGE('',*,*,#164,.F.);
#209=ORIENTED_EDGE('',*,*,#165,.T.);
#210=ORIENTED_EDGE('',*,*,#166,.F.);
#211=ORIENTED_EDGE('',*,*,#167,.T.);
#212=ORIENTED_EDGE('',*,*,#168,.T.);
#213=ORIENTED_EDGE('',*,*,#167,.F.);
#214=ORIENTED_EDGE('',*,*,#169,.T.);
#215=ORIENTED_EDGE('',*,*,#170,.T.);
#216=ORIENTED_EDGE('',*,*,#171,.F.);
#217=ORIENTED_EDGE('',*,*,#172,.F.);
#218=ORIENTED_EDGE('',*,*,#163,.T.);
#219=ORIENTED_EDGE('',*,*,#151,.T.);
#220=ORIENTED_EDGE('',*,*,#159,.T.);
#221=ORIENTED_EDGE('',*,*,#173,.T.);
#222=ORIENTED_EDGE('',*,*,#171,.T.);
#223=ORIENTED_EDGE('',*,*,#174,.T.);
#224=ORIENTED_EDGE('',*,*,#166,.T.);
#225=ORIENTED_EDGE('',*,*,#175,.T.);
#226=ORIENTED_EDGE('',*,*,#172,.T.);
#227=ORIENTED_EDGE('',*,*,#173,.F.);
#228=ORIENTED_EDGE('',*,*,#158,.F.);
#229=ORIENTED_EDGE('',*,*,#162,.F.);
#230=ORIENTED_EDGE('',*,*,#176,.F.);
#231=ORIENTED_EDGE('',*,*,#177,.T.);
#232=ORIENTED_EDGE('',*,*,#176,.T.);
#233=ORIENTED_EDGE('',*,*,#161,.F.);
#234=ORIENTED_EDGE('',*,*,#178,.F.);
#235=ORIENTED_EDGE('',*,*,#179,.T.);
#236=ORIENTED_EDGE('',*,*,#178,.T.);
#237=ORIENTED_EDGE('',*,*,#160,.F.);
#238=ORIENTED_EDGE('',*,*,#149,.F.);
#239=ORIENTED_EDGE('',*,*,#180,.F.);
#240=ORIENTED_EDGE('',*,*,#181,.F.);
#241=ORIENTED_EDGE('',*,*,#156,.T.);
#242=ORIENTED_EDGE('',*,*,#165,.F.);
#243=ORIENTED_EDGE('',*,*,#182,.T.);
#244=ORIENTED_EDGE('',*,*,#183,.T.);
#245=ORIENTED_EDGE('',*,*,#180,.T.);
#246=ORIENTED_EDGE('',*,*,#184,.T.);
#247=ORIENTED_EDGE('',*,*,#181,.T.);
#248=ORIENTED_EDGE('',*,*,#183,.F.);
#249=ORIENTED_EDGE('',*,*,#185,.F.);
#250=ORIENTED_EDGE('',*,*,#186,.T.);
#251=ORIENTED_EDGE('',*,*,#185,.T.);
#252=ORIENTED_EDGE('',*,*,#182,.F.);
#253=ORIENTED_EDGE('',*,*,#164,.T.);
#254=ORIENTED_EDGE('',*,*,#174,.F.);
#255=ORIENTED_EDGE('',*,*,#170,.F.);
#256=ORIENTED_EDGE('',*,*,#186,.F.);
#257=ORIENTED_EDGE('',*,*,#169,.F.);
#258=ORIENTED_EDGE('',*,*,#175,.F.);
#259=ORIENTED_EDGE('',*,*,#177,.F.);
#260=ORIENTED_EDGE('',*,*,#179,.F.);
#261=ORIENTED_EDGE('',*,*,#184,.F.);
#262=ORIENTED_EDGE('',*,*,#168,.F.);
#263=PLANE('',#307);
#264=PLANE('',#308);
#265=PLANE('',#309);
#266=PLANE('',#310);
#267=PLANE('',#311);
#268=PLANE('',#312);
#269=PLANE('',#319);
#270=PLANE('',#320);
#271=PLANE('',#321);
#272=PLANE('',#322);
#273=PLANE('',#323);
#274=PLANE('',#324);
#275=PLANE('',#325);
#276=PLANE('',#326);
#277=ADVANCED_FACE('',(#23),#263,.T.);
#278=ADVANCED_FACE('',(#24),#264,.T.);
#279=ADVANCED_FACE('',(#25),#265,.T.);
#280=ADVANCED_FACE('',(#26),#266,.T.);
#281=ADVANCED_FACE('',(#27),#267,.T.);
#282=ADVANCED_FACE('',(#28),#268,.T.);
#283=ADVANCED_FACE('',(#29),#21,.F.);
#284=ADVANCED_FACE('',(#30),#22,.T.);
#285=ADVANCED_FACE('',(#31,#15),#269,.T.);
#286=ADVANCED_FACE('',(#32),#270,.T.);
#287=ADVANCED_FACE('',(#33),#271,.T.);
#288=ADVANCED_FACE('',(#34),#272,.T.);
#289=ADVANCED_FACE('',(#35),#273,.T.);
#290=ADVANCED_FACE('',(#36),#274,.T.);
#291=ADVANCED_FACE('',(#37),#275,.T.);
#292=ADVANCED_FACE('',(#38,#16),#276,.F.);
#293=CLOSED_SHELL('',(#277,#278,#279,#280,#281,#282,#283,#284,#285,#286,
#287,#288,#289,#290,#291,#292));
#294=DERIVED_UNIT_ELEMENT(#296,1.);
#295=DERIVED_UNIT_ELEMENT(#487,-3.);
#296=(
MASS_UNIT()
NAMED_UNIT(*)
SI_UNIT(.KILO.,.GRAM.)
);
#297=DERIVED_UNIT((#294,#295));
#298=MEASURE_REPRESENTATION_ITEM('density measure',
POSITIVE_RATIO_MEASURE(7850.),#297);
#299=PROPERTY_DEFINITION_REPRESENTATION(#304,#301);
#300=PROPERTY_DEFINITION_REPRESENTATION(#305,#302);
#301=REPRESENTATION('material name',(#303),#484);
#302=REPRESENTATION('density',(#298),#484);
#303=DESCRIPTIVE_REPRESENTATION_ITEM('Steel','Steel');
#304=PROPERTY_DEFINITION('material property','material name',#494);
#305=PROPERTY_DEFINITION('material property','density of part',#494);
#306=AXIS2_PLACEMENT_3D('',#403,#327,#328);
#307=AXIS2_PLACEMENT_3D('',#404,#329,#330);
#308=AXIS2_PLACEMENT_3D('',#413,#335,#336);
#309=AXIS2_PLACEMENT_3D('',#417,#339,#340);
#310=AXIS2_PLACEMENT_3D('',#421,#343,#344);
#311=AXIS2_PLACEMENT_3D('',#427,#348,#349);
#312=AXIS2_PLACEMENT_3D('',#433,#353,#354);
#313=AXIS2_PLACEMENT_3D('',#439,#358,#359);
#314=AXIS2_PLACEMENT_3D('',#441,#360,#361);
#315=AXIS2_PLACEMENT_3D('',#444,#363,#364);
#316=AXIS2_PLACEMENT_3D('',#445,#365,#366);
#317=AXIS2_PLACEMENT_3D('',#448,#367,#368);
#318=AXIS2_PLACEMENT_3D('',#452,#370,#371);
#319=AXIS2_PLACEMENT_3D('',#454,#373,#374);
#320=AXIS2_PLACEMENT_3D('',#457,#377,#378);
#321=AXIS2_PLACEMENT_3D('',#461,#381,#382);
#322=AXIS2_PLACEMENT_3D('',#465,#385,#386);
#323=AXIS2_PLACEMENT_3D('',#471,#390,#391);
#324=AXIS2_PLACEMENT_3D('',#475,#394,#395);
#325=AXIS2_PLACEMENT_3D('',#479,#398,#399);
#326=AXIS2_PLACEMENT_3D('',#481,#401,#402);
#327=DIRECTION('axis',(0.,0.,1.));
#328=DIRECTION('refdir',(1.,0.,0.));
#329=DIRECTION('center_axis',(-1.91586375483044E-8,-0.447213595499958,0.894427190999916));
#330=DIRECTION('ref_axis',(1.,-8.5680031828577E-9,1.71360063657154E-8));
#331=DIRECTION('',(1.,0.,0.));
#332=DIRECTION('',(0.,0.894427190999916,0.447213595499958));
#333=DIRECTION('',(1.,7.40148683083438E-17,0.));
#334=DIRECTION('',(9.12333624936565E-9,-0.894427190999916,-0.447213595499958));
#335=DIRECTION('center_axis',(1.,0.,0.));
#336=DIRECTION('ref_axis',(0.,0.,1.));
#337=DIRECTION('',(0.,-1.,0.));
#338=DIRECTION('',(0.,0.,-1.));
#339=DIRECTION('center_axis',(-1.,0.,-2.04004000351696E-8));
#340=DIRECTION('ref_axis',(2.04004000351696E-8,0.,-1.));
#341=DIRECTION('',(-2.04004000351696E-8,-1.50993292204061E-24,1.));
#342=DIRECTION('',(0.,1.,0.));
#343=DIRECTION('center_axis',(7.40148683083438E-17,-1.,0.));
#344=DIRECTION('ref_axis',(1.,7.40148683083438E-17,0.));
#345=DIRECTION('',(1.,7.40148683083438E-17,0.));
#346=DIRECTION('',(0.,0.,1.));
#347=DIRECTION('',(1.,7.40148683083438E-17,0.));
#348=DIRECTION('center_axis',(0.,0.,1.));
#349=DIRECTION('ref_axis',(1.,0.,0.));
#350=DIRECTION('',(1.,0.,0.));
#351=DIRECTION('',(0.707106781186547,0.707106781186547,0.));
#352=DIRECTION('',(0.,1.,0.));
#353=DIRECTION('center_axis',(7.40148683083438E-17,-1.,0.));
#354=DIRECTION('ref_axis',(1.,7.40148683083438E-17,0.));
#355=DIRECTION('',(1.,7.40148683083438E-17,0.));
#356=DIRECTION('',(0.,0.,1.));
#357=DIRECTION('',(1.,7.40148683083438E-17,0.));
#358=DIRECTION('center_axis',(0.,0.,1.));
#359=DIRECTION('ref_axis',(1.,0.,0.));
#360=DIRECTION('center_axis',(0.,0.,-1.));
#361=DIRECTION('ref_axis',(1.,0.,0.));
#362=DIRECTION('',(0.,0.,-1.));
#363=DIRECTION('center_axis',(0.,0.,-1.));
#364=DIRECTION('ref_axis',(1.,0.,0.));
#365=DIRECTION('center_axis',(0.,0.,1.));
#366=DIRECTION('ref_axis',(1.,0.,0.));
#367=DIRECTION('center_axis',(0.,0.,1.));
#368=DIRECTION('ref_axis',(1.,0.,0.));
#369=DIRECTION('',(0.,0.,1.));
#370=DIRECTION('center_axis',(0.,0.,1.));
#371=DIRECTION('ref_axis',(1.,0.,0.));
#372=DIRECTION('',(0.,0.,1.));
#373=DIRECTION('center_axis',(0.,0.,1.));
#374=DIRECTION('ref_axis',(1.,0.,0.));
#375=DIRECTION('',(0.,1.,0.));
#376=DIRECTION('',(0.,-1.,0.));
#377=DIRECTION('center_axis',(1.,0.,0.));
#378=DIRECTION('ref_axis',(0.,1.,0.));
#379=DIRECTION('',(0.,1.,0.));
#380=DIRECTION('',(0.,0.,1.));
#381=DIRECTION('center_axis',(0.707106781186548,-0.707106781186548,0.));
#382=DIRECTION('ref_axis',(0.707106781186548,0.707106781186548,0.));
#383=DIRECTION('',(0.707106781186547,0.707106781186547,0.));
#384=DIRECTION('',(0.,0.,1.));
#385=DIRECTION('center_axis',(0.,-1.,0.));
#386=DIRECTION('ref_axis',(1.,0.,0.));
#387=DIRECTION('',(1.,0.,0.));
#388=DIRECTION('',(1.,0.,0.));
#389=DIRECTION('',(0.,0.,1.));
#390=DIRECTION('center_axis',(0.,0.,1.));
#391=DIRECTION('ref_axis',(1.,0.,0.));
#392=DIRECTION('',(0.,-1.,0.));
#393=DIRECTION('',(0.707106781186548,-0.707106781186547,0.));
#394=DIRECTION('center_axis',(-0.707106781186547,-0.707106781186548,0.));
#395=DIRECTION('ref_axis',(0.707106781186548,-0.707106781186547,0.));
#396=DIRECTION('',(0.707106781186548,-0.707106781186547,0.));
#397=DIRECTION('',(0.,0.,1.));
#398=DIRECTION('center_axis',(-1.,0.,0.));
#399=DIRECTION('ref_axis',(0.,-1.,0.));
#400=DIRECTION('',(0.,-1.,0.));
#401=DIRECTION('center_axis',(0.,0.,1.));
#402=DIRECTION('ref_axis',(1.,0.,0.));
#403=CARTESIAN_POINT('',(0.,0.,0.));
#404=CARTESIAN_POINT('Origin',(11.5000001713634,-24.057936094464,8.99999988004796));
#405=CARTESIAN_POINT('',(11.5000001713634,-24.05793615444,9.00000013411045));
#406=CARTESIAN_POINT('',(18.4999995864928,-24.05793615444,9.));
#407=CARTESIAN_POINT('',(9.,-24.05793615444,9.));
#408=CARTESIAN_POINT('',(18.4999995864928,17.94206384556,29.9999993294477));
#409=CARTESIAN_POINT('',(18.4999995864928,-7.25793615443999,17.4));
#410=CARTESIAN_POINT('',(11.499999742955,17.94206384556,29.9999993294477));
#411=CARTESIAN_POINT('',(0.,17.94206384556,30.));
#412=CARTESIAN_POINT('',(11.4999999571592,-3.05793622857442,19.4999998129927));
#413=CARTESIAN_POINT('Origin',(18.4999995864928,17.94206384556,9.));
#414=CARTESIAN_POINT('',(18.4999995864928,17.94206384556,9.));
#415=CARTESIAN_POINT('',(18.4999995864928,7.44206384556002,9.));
#416=CARTESIAN_POINT('',(18.4999995864928,17.94206384556,4.5));
#417=CARTESIAN_POINT('Origin',(11.499999742955,17.94206384556,29.9999993294477));
#418=CARTESIAN_POINT('',(11.5000001713634,17.94206384556,9.00000013411045));
#419=CARTESIAN_POINT('',(11.500000048961,17.94206384556,14.9999997820262));
#420=CARTESIAN_POINT('',(11.5000001713634,7.44206384556002,9.));
#421=CARTESIAN_POINT('Origin',(0.,17.94206384556,0.));
#422=CARTESIAN_POINT('',(30.,17.94206384556,9.));
#423=CARTESIAN_POINT('',(7.5,17.94206384556,9.));
#424=CARTESIAN_POINT('',(30.,17.94206384556,30.));
#425=CARTESIAN_POINT('',(30.,17.94206384556,0.));
#426=CARTESIAN_POINT('',(0.,17.94206384556,30.));
#427=CARTESIAN_POINT('Origin',(24.25,-3.05793615443998,9.));
#428=CARTESIAN_POINT('',(21.,-24.05793615444,9.));
#429=CARTESIAN_POINT('',(9.,-24.05793615444,9.));
#430=CARTESIAN_POINT('',(30.,-15.05793615444,9.));
#431=CARTESIAN_POINT('',(21.,-24.05793615444,9.));
#432=CARTESIAN_POINT('',(30.,-15.05793615444,9.));
#433=CARTESIAN_POINT('Origin',(0.,17.94206384556,0.));
#434=CARTESIAN_POINT('',(0.,17.94206384556,30.));
#435=CARTESIAN_POINT('',(0.,17.94206384556,30.));
#436=CARTESIAN_POINT('',(0.,17.94206384556,9.));
#437=CARTESIAN_POINT('',(0.,17.94206384556,0.));
#438=CARTESIAN_POINT('',(7.5,17.94206384556,9.));
#439=CARTESIAN_POINT('Origin',(15.,35.94206384556,0.));
#440=CARTESIAN_POINT('',(7.5,35.94206384556,30.));
#441=CARTESIAN_POINT('Origin',(15.,35.94206384556,30.));
#442=CARTESIAN_POINT('',(7.5,35.94206384556,0.));
#443=CARTESIAN_POINT('',(7.5,35.94206384556,0.));
#444=CARTESIAN_POINT('Origin',(15.,35.94206384556,0.));
#445=CARTESIAN_POINT('Origin',(15.,35.94206384556,0.));
#446=CARTESIAN_POINT('',(30.,35.94206384556,0.));
#447=CARTESIAN_POINT('',(0.,35.94206384556,0.));
#448=CARTESIAN_POINT('Origin',(15.,35.94206384556,0.));
#449=CARTESIAN_POINT('',(0.,35.94206384556,30.));
#450=CARTESIAN_POINT('',(0.,35.94206384556,0.));
#451=CARTESIAN_POINT('',(30.,35.94206384556,30.));
#452=CARTESIAN_POINT('Origin',(15.,35.94206384556,30.));
#453=CARTESIAN_POINT('',(30.,35.94206384556,0.));
#454=CARTESIAN_POINT('Origin',(15.,34.44206384556,30.));
#455=CARTESIAN_POINT('',(30.,-15.05793615444,30.));
#456=CARTESIAN_POINT('',(0.,35.94206384556,30.));
#457=CARTESIAN_POINT('Origin',(30.,-15.05793615444,0.));
#458=CARTESIAN_POINT('',(30.,-15.05793615444,0.));
#459=CARTESIAN_POINT('',(30.,-15.05793615444,0.));
#460=CARTESIAN_POINT('',(30.,-15.05793615444,0.));
#461=CARTESIAN_POINT('Origin',(21.,-24.05793615444,0.));
#462=CARTESIAN_POINT('',(21.,-24.05793615444,0.));
#463=CARTESIAN_POINT('',(21.,-24.05793615444,0.));
#464=CARTESIAN_POINT('',(21.,-24.05793615444,0.));
#465=CARTESIAN_POINT('Origin',(18.5,-24.05793615444,0.));
#466=CARTESIAN_POINT('',(9.,-24.05793615444,0.));
#467=CARTESIAN_POINT('',(9.,-24.05793615444,0.));
#468=CARTESIAN_POINT('',(9.,-24.05793615444,9.));
#469=CARTESIAN_POINT('',(9.,-24.05793615444,9.));
#470=CARTESIAN_POINT('',(9.,-24.05793615444,0.));
#471=CARTESIAN_POINT('Origin',(24.25,-3.05793615443998,9.));
#472=CARTESIAN_POINT('',(0.,-15.05793615444,9.));
#473=CARTESIAN_POINT('',(0.,35.94206384556,9.));
#474=CARTESIAN_POINT('',(0.,-15.05793615444,9.));
#475=CARTESIAN_POINT('Origin',(0.,-15.05793615444,0.));
#476=CARTESIAN_POINT('',(0.,-15.05793615444,0.));
#477=CARTESIAN_POINT('',(0.,-15.05793615444,0.));
#478=CARTESIAN_POINT('',(0.,-15.05793615444,0.));
#479=CARTESIAN_POINT('Origin',(0.,17.94206384556,0.));
#480=CARTESIAN_POINT('',(0.,35.94206384556,0.));
#481=CARTESIAN_POINT('Origin',(5.75,-3.05793615443998,0.));
#482=UNCERTAINTY_MEASURE_WITH_UNIT(LENGTH_MEASURE(0.01),#486,
'DISTANCE_ACCURACY_VALUE',
'Maximum model space distance between geometric entities at asserted c
onnectivities');
#483=UNCERTAINTY_MEASURE_WITH_UNIT(LENGTH_MEASURE(0.01),#486,
'DISTANCE_ACCURACY_VALUE',
'Maximum model space distance between geometric entities at asserted c
onnectivities');
#484=(
GEOMETRIC_REPRESENTATION_CONTEXT(3)
GLOBAL_UNCERTAINTY_ASSIGNED_CONTEXT((#482))
GLOBAL_UNIT_ASSIGNED_CONTEXT((#486,#488,#489))
REPRESENTATION_CONTEXT('','3D')
);
#485=(
GEOMETRIC_REPRESENTATION_CONTEXT(3)
GLOBAL_UNCERTAINTY_ASSIGNED_CONTEXT((#483))
GLOBAL_UNIT_ASSIGNED_CONTEXT((#486,#488,#489))
REPRESENTATION_CONTEXT('','3D')
);
#486=(
LENGTH_UNIT()
NAMED_UNIT(*)
SI_UNIT(.MILLI.,.METRE.)
);
#487=(
LENGTH_UNIT()
NAMED_UNIT(*)
SI_UNIT($,.METRE.)
);
#488=(
NAMED_UNIT(*)
PLANE_ANGLE_UNIT()
SI_UNIT($,.RADIAN.)
);
#489=(
NAMED_UNIT(*)
SI_UNIT($,.STERADIAN.)
SOLID_ANGLE_UNIT()
);
#490=SHAPE_DEFINITION_REPRESENTATION(#491,#492);
#491=PRODUCT_DEFINITION_SHAPE('',$,#494);
#492=SHAPE_REPRESENTATION('',(#306),#484);
#493=PRODUCT_DEFINITION_CONTEXT('part definition',#498,'design');
#494=PRODUCT_DEFINITION('2026-08-09-04-25-00-986','Fixture Block',#495,
#493);
#495=PRODUCT_DEFINITION_FORMATION('',$,#500);
#496=PRODUCT_RELATED_PRODUCT_CATEGORY('Fixture Block','Fixture Block',(#500));
#497=APPLICATION_PROTOCOL_DEFINITION('international standard',
'automotive_design',2009,#498);
#498=APPLICATION_CONTEXT(
'Core Data for Automotive Mechanical Design Process');
#499=PRODUCT_CONTEXT('part definition',#498,'mechanical');
#500=PRODUCT('2026-08-09-04-25-00-986','Fixture Block',$,(#499));
#501=PRESENTATION_STYLE_ASSIGNMENT((#503));
#502=PRESENTATION_STYLE_ASSIGNMENT((#504));
#503=SURFACE_STYLE_USAGE(.BOTH.,#505);
#504=SURFACE_STYLE_USAGE(.BOTH.,#506);
#505=SURFACE_SIDE_STYLE('',(#507));
#506=SURFACE_SIDE_STYLE('',(#508));
#507=SURFACE_STYLE_FILL_AREA(#509);
#508=SURFACE_STYLE_FILL_AREA(#510);
#509=FILL_AREA_STYLE('Steel - Satin',(#511));
#510=FILL_AREA_STYLE('Steel - Satin',(#512));
#511=FILL_AREA_STYLE_COLOUR('Steel - Satin',#513);
#512=FILL_AREA_STYLE_COLOUR('Steel - Satin',#514);
#513=COLOUR_RGB('Steel - Satin',0.627450980392157,0.627450980392157,0.627450980392157);
#514=COLOUR_RGB('Steel - Satin',0.627450980392157,0.627450980392157,0.627450980392157);
ENDSEC;
END-ISO-10303-21;
