# WaveFront *.obj file (generated by Autodesk ATF)

mtllib Model.mtl

g Body1

v 1.150000 -2.405794 0.900000
v 1.850000 -2.405794 0.900000
v 1.850000 1.794206 3.000000
v 1.150000 1.794206 3.000000
v 1.850000 1.794206 0.900000
v 1.150000 1.794206 0.900000
v 3.000000 1.794206 0.900000
v 3.000000 1.794206 3.000000
v 2.100000 -2.405794 0.900000
v 3.000000 -1.505794 0.900000
v 0.000000 1.794206 3.000000
v 0.000000 1.794206 0.900000
v 0.750000 3.594206 3.000000
v 0.775556 3.400092 3.000000
v 0.850481 3.219206 3.000000
v 0.969670 3.063876 3.000000
v 1.125000 2.944687 3.000000
v 1.305886 2.869762 3.000000
v 1.500000 2.844206 3.000000
v 1.694114 2.869762 3.000000
v 1.875000 2.944687 3.000000
v 2.030330 3.063876 3.000000
v 2.149519 3.219206 3.000000
v 2.224444 3.400092 3.000000
v 2.250000 3.594206 3.000000
v 2.224444 3.788321 3.000000
v 2.149519 3.969206 3.000000
v 2.030330 4.124536 3.000000
v 1.875000 4.243725 3.000000
v 1.694114 4.318651 3.000000
v 1.500000 4.344206 3.000000
v 1.305886 4.318651 3.000000
v 1.125000 4.243725 3.000000
v 0.969670 4.124536 3.000000
v 0.850481 3.969206 3.000000
v 0.775556 3.788321 3.000000
v 0.750000 3.594206 0.000000
v 0.775556 3.788321 0.000000
v 0.850481 3.969206 0.000000
v 0.969670 4.124536 0.000000
v 1.125000 4.243725 0.000000
v 1.305886 4.318651 0.000000
v 1.500000 4.344206 0.000000
v 1.694114 4.318651 0.000000
v 1.875000 4.243725 0.000000
v 2.030330 4.124536 0.000000
v 2.149519 3.969206 0.000000
v 2.224444 3.788321 0.000000
v 2.250000 3.594206 0.000000
v 2.224444 3.400092 0.000000
v 2.149519 3.219206 0.000000
v 2.030330 3.063876 0.000000
v 1.875000 2.944687 0.000000
v 1.694114 2.869762 0.000000
v 1.500000 2.844206 0.000000
v 1.305886 2.869762 0.000000
v 1.125000 2.944687 0.000000
v 0.969670 3.063876 0.000000
v 0.850481 3.219206 0.000000
v 0.775556 3.400092 0.000000
v 3.000000 3.594206 0.000000
v 2.967221 3.906074 0.000000
v 2.870318 4.204311 0.000000
v 2.713525 4.475884 0.000000
v 2.503696 4.708924 0.000000
v 2.250000 4.893244 0.000000
v 1.963525 5.020791 0.000000
v 1.656793 5.085989 0.000000
v 1.343207 5.085989 0.000000
v 1.036475 5.020791 0.000000
v 0.750000 4.893244 0.000000
v 0.496304 4.708924 0.000000
v 0.286475 4.475884 0.000000
v 0.129682 4.204311 0.000000
v 0.032779 3.906074 0.000000
v 0.000000 3.594206 0.000000
v 0.000000 3.594206 3.000000
v 0.032779 3.906074 3.000000
v 0.129682 4.204311 3.000000
v 0.286475 4.475884 3.000000
v 0.496304 4.708924 3.000000
v 0.750000 4.893244 3.000000
v 1.036475 5.020791 3.000000
v 1.343207 5.085989 3.000000
v 1.656793 5.085989 3.000000
v 1.963525 5.020791 3.000000
v 2.250000 4.893244 3.000000
v 2.503696 4.708924 3.000000
v 2.713525 4.475884 3.000000
v 2.870318 4.204311 3.000000
v 2.967221 3.906074 3.000000
v 3.000000 3.594206 3.000000
v 3.000000 -1.505794 0.000000
v 2.100000 -2.405794 0.000000
v 0.900000 -2.405794 0.000000
v 0.900000 -2.405794 0.900000
v 0.000000 -1.505794 0.900000
v 0.000000 -1.505794 0.000000
vt 0.700000 0.000000 0.000000
vt 0.700000 4.695743 0.000000
vt 0.000000 0.000000 0.000000
vt -0.000000 4.695743 0.000000
vt 2.100000 0.000000 0.000000
vt 0.000000 4.200000 0.000000
vt 0.000000 0.000000 0.000000
vt 2.100000 4.200000 0.000000
vt 0.000000 0.000000 0.000000
vt 2.100000 0.000000 0.000000
vt 1.850000 0.900000 0.000000
vt 3.000000 0.900000 0.000000
vt 1.850000 3.000000 0.000000
vt 3.000000 3.000000 0.000000
vt -0.575000 -2.100000 0.000000
vt -0.325000 -2.100000 0.000000
vt -0.575000 2.100000 0.000000
vt 0.575000 -1.200000 0.000000
vt 0.575000 2.100000 0.000000
vt 1.150000 0.900000 0.000000
vt 1.150000 3.000000 0.000000
vt 0.000000 0.900000 0.000000
vt 0.000000 3.000000 0.000000
vt 3.000000 -2.159845 0.000000
vt 0.000000 -2.159845 0.000000
vt 3.000000 -2.356194 0.000000
vt 0.000000 -2.356194 0.000000
vt 3.000000 2.356194 0.000000
vt 0.000000 2.356194 0.000000
vt 3.000000 2.159845 0.000000
vt 0.000000 2.159845 0.000000
vt 3.000000 1.963495 0.000000
vt 0.000000 1.963495 0.000000
vt 3.000000 1.767146 0.000000
vt 0.000000 1.767146 0.000000
vt 3.000000 1.570796 0.000000
vt -0.000000 1.570796 0.000000
vt 3.000000 1.374447 0.000000
vt -0.000000 1.374447 0.000000
vt 3.000000 1.178097 0.000000
vt 0.000000 1.178097 0.000000
vt 3.000000 0.981748 0.000000
vt -0.000000 0.981748 0.000000
vt 3.000000 0.785398 0.000000
vt 0.000000 0.785398 0.000000
vt 3.000000 0.589049 0.000000
vt 0.000000 0.589049 0.000000
vt 3.000000 0.392699 0.000000
vt 0.000000 0.392699 0.000000
vt 3.000000 0.196350 0.000000
vt -0.000000 0.196350 0.000000
vt 3.000000 0.000000 0.000000
vt 0.000000 0.000000 0.000000
vt 3.000000 -0.196350 0.000000
vt 0.000000 -0.196350 0.000000
vt 3.000000 -0.392699 0.000000
vt 0.000000 -0.392699 0.000000
vt 3.000000 -0.589049 0.000000
vt -0.000000 -0.589049 0.000000
vt 3.000000 -0.785398 0.000000
vt -0.000000 -0.785398 0.000000
vt 3.000000 -0.981748 0.000000
vt -0.000000 -0.981748 0.000000
vt 3.000000 -1.178097 0.000000
vt 0.000000 -1.178097 0.000000
vt 3.000000 -1.374447 0.000000
vt 0.000000 -1.374447 0.000000
vt 3.000000 -1.570796 0.000000
vt 0.000000 -1.570796 0.000000
vt 3.000000 -1.767146 0.000000
vt 0.000000 -1.767146 0.000000
vt 3.000000 -1.963495 0.000000
vt 0.000000 -1.963495 0.000000
vt -3.000000 0.000000 0.000000
vt -0.000000 0.000000 0.000000
vt -3.000000 0.314159 0.000000
vt -0.000000 0.314159 0.000000
vt -3.000000 0.628319 0.000000
vt -0.000000 0.628319 0.000000
vt -3.000000 0.942478 0.000000
vt -0.000000 0.942478 0.000000
vt -3.000000 1.256637 0.000000
vt -0.000000 1.256637 0.000000
vt -3.000000 1.570796 0.000000
vt -0.000000 1.570796 0.000000
vt -3.000000 1.884956 0.000000
vt -0.000000 1.884956 0.000000
vt -3.000000 2.199115 0.000000
vt -0.000000 2.199115 0.000000
vt -3.000000 2.513274 0.000000
vt -0.000000 2.513274 0.000000
vt -3.000000 2.827433 0.000000
vt -0.000000 2.827433 0.000000
vt -3.000000 3.141593 0.000000
vt -0.000000 3.141593 0.000000
vt -3.000000 3.455752 0.000000
vt -0.000000 3.455752 0.000000
vt -3.000000 3.769911 0.000000
vt -0.000000 3.769911 0.000000
vt -3.000000 4.084070 0.000000
vt -0.000000 4.084070 0.000000
vt -3.000000 4.398230 0.000000
vt -0.000000 4.398230 0.000000
vt -3.000000 4.712389 0.000000
vt -0.000000 4.712389 0.000000
vt -0.724444 0.344114 0.000000
vt -1.467221 0.461868 0.000000
vt -0.750000 0.150000 0.000000
vt -1.500000 0.150000 0.000000
vt -0.724444 -0.044114 0.000000
vt -0.649519 -0.225000 0.000000
vt -1.500000 -1.650000 0.000000
vt -0.530330 -0.380330 0.000000
vt -0.350000 -1.650000 0.000000
vt -0.375000 -0.499519 0.000000
vt -0.194114 -0.574444 0.000000
vt 0.000000 -0.600000 0.000000
vt 0.350000 -1.650000 0.000000
vt 0.194114 -0.574444 0.000000
vt 0.375000 -0.499519 0.000000
vt 0.530330 -0.380330 0.000000
vt 1.500000 -1.650000 0.000000
vt 0.649519 -0.225000 0.000000
vt 1.500000 0.150000 0.000000
vt 0.724444 -0.044114 0.000000
vt 0.750000 0.150000 0.000000
vt 1.467221 0.461868 0.000000
vt 0.724444 0.344114 0.000000
vt 1.370318 0.760105 0.000000
vt 0.649519 0.525000 0.000000
vt 1.213525 1.031678 0.000000
vt 0.530330 0.680330 0.000000
vt 1.003696 1.264717 0.000000
vt 0.750000 1.449038 0.000000
vt -1.370318 0.760105 0.000000
vt -0.649519 0.525000 0.000000
vt -1.213525 1.031678 0.000000
vt -0.530330 0.680330 0.000000
vt -1.003696 1.264717 0.000000
vt -0.750000 1.449038 0.000000
vt -0.375000 0.799519 0.000000
vt -0.463525 1.576585 0.000000
vt -0.194114 0.874444 0.000000
vt -0.156793 1.641783 0.000000
vt 0.000000 0.900000 0.000000
vt 0.156793 1.641783 0.000000
vt 0.194114 0.874444 0.000000
vt 0.463525 1.576585 0.000000
vt 0.375000 0.799519 0.000000
vt 0.000000 0.900000 0.000000
vt 0.000000 0.000000 0.000000
vt 3.300000 0.900000 0.000000
vt 5.100000 0.000000 0.000000
vt 5.100000 3.000000 0.000000
vt 3.300000 3.000000 0.000000
vt 0.000000 0.000000 0.000000
vt 1.272792 0.000000 0.000000
vt -0.000000 0.900000 0.000000
vt 1.272792 0.900000 0.000000
vt 0.250000 0.000000 0.000000
vt -0.000000 0.900000 0.000000
vt -0.950000 0.000000 0.000000
vt -0.700000 0.900000 0.000000
vt -0.950000 0.900000 0.000000
vt 0.250000 0.900000 0.000000
vt -1.275000 -2.100000 0.000000
vt -1.275000 2.100000 0.000000
vt -1.525000 -2.100000 0.000000
vt -2.425000 -1.200000 0.000000
vt -2.425000 2.100000 0.000000
vt 0.000000 0.000000 0.000000
vt 1.272792 0.000000 0.000000
vt 0.000000 0.900000 0.000000
vt 1.272792 0.900000 0.000000
vt -1.800000 3.000000 0.000000
vt -1.800000 0.000000 0.000000
vt 0.000000 0.900000 0.000000
vt 3.300000 0.000000 0.000000
vt 3.300000 0.900000 0.000000
vt 0.000000 3.000000 0.000000
vt -0.200556 3.705886 0.000000
vt 0.575000 3.900000 0.000000
vt -0.175000 3.900000 0.000000
vt 0.542221 4.211868 0.000000
vt 0.445318 4.510105 0.000000
vt -0.275481 3.525000 0.000000
vt 0.575000 -1.200000 0.000000
vt -0.394670 3.369670 0.000000
vt -0.550000 3.250481 0.000000
vt -0.325000 -2.100000 0.000000
vt -0.730886 3.175556 0.000000
vt -0.925000 3.150000 0.000000
vt -1.525000 -2.100000 0.000000
vt -1.119114 3.175556 0.000000
vt -1.300000 3.250481 0.000000
vt -2.425000 -1.200000 0.000000
vt -1.455330 3.369670 0.000000
vt -1.574519 3.525000 0.000000
vt -2.425000 3.900000 0.000000
vt -1.649444 3.705886 0.000000
vt -1.675000 3.900000 0.000000
vt -1.649444 4.094114 0.000000
vt -2.138525 4.781678 0.000000
vt -2.295318 4.510105 0.000000
vt -2.392221 4.211868 0.000000
vt -1.928696 5.014717 0.000000
vt -1.574519 4.275000 0.000000
vt -1.675000 5.199038 0.000000
vt -1.455330 4.430330 0.000000
vt -1.388525 5.326585 0.000000
vt -1.300000 4.549519 0.000000
vt -1.119114 4.624444 0.000000
vt -1.081793 5.391783 0.000000
vt -0.925000 4.650000 0.000000
vt -0.768207 5.391783 0.000000
vt -0.730886 4.624444 0.000000
vt -0.461475 5.326585 0.000000
vt -0.550000 4.549519 0.000000
vt -0.394670 4.430330 0.000000
vt -0.175000 5.199038 0.000000
vt -0.275481 4.275000 0.000000
vt 0.078696 5.014717 0.000000
vt -0.200556 4.094114 0.000000
vt 0.288525 4.781678 0.000000
vn -0.000000 -0.447214 0.894427
vn -0.000000 -0.447214 0.894427
vn -0.000000 -0.447214 0.894427
vn -0.000000 -0.447214 0.894427
vn 1.000000 0.000000 0.000000
vn 1.000000 0.000000 0.000000
vn 1.000000 0.000000 0.000000
vn -1.000000 -0.000000 -0.000000
vn -1.000000 -0.000000 -0.000000
vn -1.000000 -0.000000 -0.000000
vn 0.000000 -1.000000 0.000000
vn 0.000000 -1.000000 0.000000
vn 0.000000 -1.000000 0.000000
vn 0.000000 -1.000000 0.000000
vn 0.000000 0.000000 1.000000
vn 0.000000 0.000000 1.000000
vn 0.000000 0.000000 1.000000
vn 0.000000 0.000000 1.000000
vn 0.000000 0.000000 1.000000
vn 0.000000 -1.000000 0.000000
vn 0.000000 -1.000000 0.000000
vn 0.000000 -1.000000 0.000000
vn 0.000000 -1.000000 0.000000
vn 0.965926 0.258819 -0.000000
vn 0.965926 0.258819 -0.000000
vn 1.000000 0.000000 -0.000000
vn 1.000000 0.000000 -0.000000
vn 0.965926 -0.258819 0.000000
vn 0.965926 -0.258819 0.000000
vn 0.866025 -0.500000 0.000000
vn 0.866025 -0.500000 0.000000
vn 0.707107 -0.707107 0.000000
vn 0.707107 -0.707107 0.000000
vn 0.500000 -0.866025 0.000000
vn 0.500000 -0.866025 0.000000
vn 0.258819 -0.965926 0.000000
vn 0.258819 -0.965926 0.000000
vn -0.000000 -1.000000 0.000000
vn -0.000000 -1.000000 0.000000
vn -0.258819 -0.965926 0.000000
vn -0.258819 -0.965926 0.000000
vn -0.500000 -0.866025 0.000000
vn -0.500000 -0.866025 0.000000
vn -0.707107 -0.707107 0.000000
vn -0.707107 -0.707107 0.000000
vn -0.866025 -0.500000 0.000000
vn -0.866025 -0.500000 0.000000
vn -0.965926 -0.258819 0.000000
vn -0.965926 -0.258819 0.000000
vn -1.000000 0.000000 0.000000
vn -1.000000 0.000000 0.000000
vn -0.965926 0.258819 0.000000
vn -0.965926 0.258819 0.000000
vn -0.866025 0.500000 0.000000
vn -0.866025 0.500000 0.000000
vn -0.707107 0.707107 0.000000
vn -0.707107 0.707107 0.000000
vn -0.500000 0.866025 0.000000
vn -0.500000 0.866025 0.000000
vn -0.258819 0.965926 0.000000
vn -0.258819 0.965926 0.000000
vn -0.000000 1.000000 0.000000
vn -0.000000 1.000000 0.000000
vn 0.258819 0.965926 -0.000000
vn 0.258819 0.965926 -0.000000
vn 0.500000 0.866025 -0.000000
vn 0.500000 0.866025 -0.000000
vn 0.707107 0.707107 -0.000000
vn 0.707107 0.707107 -0.000000
vn 0.866025 0.500000 -0.000000
vn 0.866025 0.500000 -0.000000
vn 1.000000 -0.000000 -0.000000
vn 1.000000 -0.000000 -0.000000
vn 0.978148 0.207912 -0.000000
vn 0.978148 0.207912 -0.000000
vn 0.913545 0.406737 -0.000000
vn 0.913545 0.406737 -0.000000
vn 0.809017 0.587785 -0.000000
vn 0.809017 0.587785 -0.000000
vn 0.669131 0.743145 -0.000000
vn 0.669131 0.743145 -0.000000
vn 0.500000 0.866025 -0.000000
vn 0.500000 0.866025 -0.000000
vn 0.309017 0.951057 -0.000000
vn 0.309017 0.951057 -0.000000
vn 0.104528 0.994522 -0.000000
vn 0.104528 0.994522 -0.000000
vn -0.104528 0.994522 -0.000000
vn -0.104528 0.994522 -0.000000
vn -0.309017 0.951057 -0.000000
vn -0.309017 0.951057 -0.000000
vn -0.500000 0.866025 -0.000000
vn -0.500000 0.866025 -0.000000
vn -0.669131 0.743145 -0.000000
vn -0.669131 0.743145 -0.000000
vn -0.809017 0.587785 -0.000000
vn -0.809017 0.587785 -0.000000
vn -0.913545 0.406737 -0.000000
vn -0.913545 0.406737 -0.000000
vn -0.978148 0.207912 -0.000000
vn -0.978148 0.207912 -0.000000
vn -1.000000 0.000000 -0.000000
vn -1.000000 0.000000 -0.000000
vn 0.000000 0.000000 1.000000
vn 0.000000 0.000000 1.000000
vn 0.000000 0.000000 1.000000
vn 0.000000 0.000000 1.000000
vn 0.000000 0.000000 1.000000
vn 0.000000 0.000000 1.000000
vn 0.000000 0.000000 1.000000
vn 0.000000 0.000000 1.000000
vn 0.000000 0.000000 1.000000
vn 0.000000 0.000000 1.000000
vn 0.000000 0.000000 1.000000
vn 0.000000 0.000000 1.000000
vn 0.000000 0.000000 1.000000
vn 0.000000 0.000000 1.000000
vn 0.000000 0.000000 1.000000
vn 0.000000 0.000000 1.000000
vn 0.000000 0.000000 1.000000
vn 0.000000 0.000000 1.000000
vn 0.000000 0.000000 1.000000
vn 0.000000 0.000000 1.000000
vn 0.000000 0.000000 1.000000
vn 0.000000 0.000000 1.000000
vn 0.000000 0.000000 1.000000
vn 0.000000 0.000000 1.000000
vn 0.000000 0.000000 1.000000
vn 0.000000 0.000000 1.000000
vn 0.000000 0.000000 1.000000
vn 0.000000 0.000000 1.000000
vn 0.000000 0.000000 1.000000
vn 0.000000 0.000000 1.000000
vn 0.000000 0.000000 1.000000
vn 0.000000 0.000000 1.000000
vn 0.000000 0.000000 1.000000
vn 0.000000 0.000000 1.000000
vn 0.000000 0.000000 1.000000
vn 0.000000 0.000000 1.000000
vn 0.000000 0.000000 1.000000
vn 0.000000 0.000000 1.000000
vn 0.000000 0.000000 1.000000
vn 0.000000 0.000000 1.000000
vn 0.000000 0.000000 1.000000
vn 0.000000 0.000000 1.000000
vn 0.000000 0.000000 1.000000
vn 0.000000 0.000000 1.000000
vn 1.000000 0.000000 0.000000
vn 1.000000 0.000000 0.000000
vn 1.000000 0.000000 0.000000
vn 1.000000 0.000000 0.000000
vn 0.707107 -0.707107 0.000000
vn 0.707107 -0.707107 0.000000
vn 0.707107 -0.707107 0.000000
vn 0.707107 -0.707107 0.000000
vn 0.000000 -1.000000 0.000000
vn 0.000000 -1.000000 0.000000
vn 0.000000 -1.000000 0.000000
vn 0.000000 -1.000000 0.000000
vn 0.000000 -1.000000 0.000000
vn 0.000000 -1.000000 0.000000
vn 0.000000 0.000000 1.000000
vn 0.000000 0.000000 1.000000
vn 0.000000 0.000000 1.000000
vn 0.000000 0.000000 1.000000
vn 0.000000 0.000000 1.000000
vn -0.707107 -0.707107 0.000000
vn -0.707107 -0.707107 0.000000
vn -0.707107 -0.707107 0.000000
vn -0.707107 -0.707107 0.000000
vn -1.000000 0.000000 0.000000
vn -1.000000 0.000000 0.000000
vn -1.000000 0.000000 0.000000
vn -1.000000 0.000000 0.000000
vn -0.000000 -0.000000 -1.000000
vn -0.000000 -0.000000 -1.000000
vn -0.000000 -0.000000 -1.000000
vn -0.000000 -0.000000 -1.000000
vn -0.000000 -0.000000 -1.000000
vn -0.000000 -0.000000 -1.000000
vn -0.000000 -0.000000 -1.000000
vn -0.000000 -0.000000 -1.000000
vn -0.000000 -0.000000 -1.000000
vn -0.000000 -0.000000 -1.000000
vn -0.000000 -0.000000 -1.000000
vn -0.000000 -0.000000 -1.000000
vn -0.000000 -0.000000 -1.000000
vn -0.000000 -0.000000 -1.000000
vn -0.000000 -0.000000 -1.000000
vn -0.000000 -0.000000 -1.000000
vn -0.000000 -0.000000 -1.000000
vn -0.000000 -0.000000 -1.000000
vn -0.000000 -0.000000 -1.000000
vn -0.000000 -0.000000 -1.000000
vn -0.000000 -0.000000 -1.000000
vn -0.000000 -0.000000 -1.000000
vn -0.000000 -0.000000 -1.000000
vn -0.000000 -0.000000 -1.000000
vn -0.000000 -0.000000 -1.000000
vn -0.000000 -0.000000 -1.000000
vn -0.000000 -0.000000 -1.000000
vn -0.000000 -0.000000 -1.000000
vn -0.000000 -0.000000 -1.000000
vn -0.000000 -0.000000 -1.000000
vn -0.000000 -0.000000 -1.000000
vn -0.000000 -0.000000 -1.000000
vn -0.000000 -0.000000 -1.000000
vn -0.000000 -0.000000 -1.000000
vn -0.000000 -0.000000 -1.000000
vn -0.000000 -0.000000 -1.000000
vn -0.000000 -0.000000 -1.000000
vn -0.000000 -0.000000 -1.000000
vn -0.000000 -0.000000 -1.000000
vn -0.000000 -0.000000 -1.000000
vn -0.000000 -0.000000 -1.000000
vn -0.000000 -0.000000 -1.000000
vn -0.000000 -0.000000 -1.000000
vn -0.000000 -0.000000 -1.000000
usemtl Steel_-_Satin
f 2/1/1 3/2/2 1/3/3
f 1/3/3 3/2/2 4/4/4
f 3/5/5 2/6/6 5/7/7
f 1/8/8 4/9/9 6/10/10
f 5/11/11 7/12/12 3/13/13
f 3/13/13 7/12/12 8/14/14
f 2/15/15 9/16/16 5/17/17
f 5/17/17 9/16/16 10/18/18
f 5/17/17 10/18/18 7/19/19
f 6/20/20 4/21/21 12/22/22
f 12/22/22 4/21/21 11/23/23
f 14/24/24 60/25/25 13/26/26
f 13/26/26 60/25/25 37/27/27
f 13/28/26 37/29/27 36/30/28
f 36/30/28 37/29/27 38/31/29
f 36/30/28 38/31/29 35/32/30
f 35/32/30 38/31/29 39/33/31
f 35/32/30 39/33/31 34/34/32
f 34/34/32 39/33/31 40/35/33
f 34/34/32 40/35/33 33/36/34
f 33/36/34 40/35/33 41/37/35
f 33/36/34 41/37/35 32/38/36
f 32/38/36 41/37/35 42/39/37
f 32/38/36 42/39/37 31/40/38
f 31/40/38 42/39/37 43/41/39
f 31/40/38 43/41/39 30/42/40
f 30/42/40 43/41/39 44/43/41
f 30/42/40 44/43/41 29/44/42
f 29/44/42 44/43/41 45/45/43
f 29/44/42 45/45/43 28/46/44
f 28/46/44 45/45/43 46/47/45
f 28/46/44 46/47/45 27/48/46
f 27/48/46 46/47/45 47/49/47
f 27/48/46 47/49/47 26/50/48
f 26/50/48 47/49/47 48/51/49
f 26/50/48 48/51/49 25/52/50
f 25/52/50 48/51/49 49/53/51
f 25/52/50 49/53/51 24/54/52
f 24/54/52 49/53/51 50/55/53
f 24/54/52 50/55/53 23/56/54
f 23/56/54 50/55/53 51/57/55
f 23/56/54 51/57/55 22/58/56
f 22/58/56 51/57/55 52/59/57
f 22/58/56 52/59/57 21/60/58
f 21/60/58 52/59/57 53/61/59
f 21/60/58 53/61/59 20/62/60
f 20/62/60 53/61/59 54/63/61
f 20/62/60 54/63/61 19/64/62
f 19/64/62 54/63/61 55/65/63
f 19/64/62 55/65/63 18/66/64
f 18/66/64 55/65/63 56/67/65
f 18/66/64 56/67/65 17/68/66
f 17/68/66 56/67/65 57/69/67
f 17/68/66 57/69/67 16/70/68
f 16/70/68 57/69/67 58/71/69
f 16/70/68 58/71/69 15/72/70
f 15/72/70 58/71/69 59/73/71
f 15/72/70 59/73/71 14/24/24
f 14/24/24 59/73/71 60/25/25
f 92/74/72 61/75/73 91/76/74
f 91/76/74 61/75/73 62/77/75
f 91/76/74 62/77/75 90/78/76
f 90/78/76 62/77/75 63/79/77
f 90/78/76 63/79/77 89/80/78
f 89/80/78 63/79/77 64/81/79
f 89/80/78 64/81/79 88/82/80
f 88/82/80 64/81/79 65/83/81
f 88/82/80 65/83/81 87/84/82
f 87/84/82 65/83/81 66/85/83
f 87/84/82 66/85/83 86/86/84
f 86/86/84 66/85/83 67/87/85
f 86/86/84 67/87/85 85/88/86
f 85/88/86 67/87/85 68/89/87
f 85/88/86 68/89/87 84/90/88
f 84/90/88 68/89/87 69/91/89
f 84/90/88 69/91/89 83/92/90
f 83/92/90 69/91/89 70/93/91
f 83/92/90 70/93/91 82/94/92
f 82/94/92 70/93/91 71/95/93
f 82/94/92 71/95/93 81/96/94
f 81/96/94 71/95/93 72/97/95
f 81/96/94 72/97/95 80/98/96
f 80/98/96 72/97/95 73/99/97
f 80/98/96 73/99/97 79/100/98
f 79/100/98 73/99/97 74/101/99
f 79/100/98 74/101/99 78/102/100
f 78/102/100 74/101/99 75/103/101
f 78/102/100 75/103/101 77/104/102
f 77/104/102 75/103/101 76/105/103
f 36/106/104 78/107/105 13/108/106
f 13/108/106 78/107/105 77/109/107
f 13/108/106 77/109/107 14/110/108
f 14/110/108 77/109/107 15/111/109
f 15/111/109 77/109/107 11/112/110
f 15/111/109 11/112/110 16/113/111
f 16/113/111 11/112/110 4/114/112
f 16/113/111 4/114/112 17/115/113
f 17/115/113 4/114/112 18/116/114
f 18/116/114 4/114/112 19/117/115
f 19/117/115 4/114/112 3/118/116
f 19/117/115 3/118/116 20/119/117
f 20/119/117 3/118/116 21/120/118
f 21/120/118 3/118/116 22/121/119
f 22/121/119 3/118/116 8/122/120
f 22/121/119 8/122/120 23/123/121
f 23/123/121 8/122/120 92/124/122
f 23/123/121 92/124/122 24/125/123
f 24/125/123 92/124/122 25/126/124
f 25/126/124 92/124/122 91/127/125
f 25/126/124 91/127/125 26/128/126
f 26/128/126 91/127/125 90/129/127
f 26/128/126 90/129/127 27/130/128
f 27/130/128 90/129/127 89/131/129
f 27/130/128 89/131/129 28/132/130
f 28/132/130 89/131/129 88/133/131
f 28/132/130 88/133/131 87/134/132
f 78/107/105 36/106/104 79/135/133
f 79/135/133 36/106/104 35/136/134
f 79/135/133 35/136/134 80/137/135
f 80/137/135 35/136/134 34/138/136
f 80/137/135 34/138/136 81/139/137
f 81/139/137 34/138/136 82/140/138
f 82/140/138 34/138/136 33/141/139
f 82/140/138 33/141/139 83/142/140
f 83/142/140 33/141/139 32/143/141
f 83/142/140 32/143/141 84/144/142
f 84/144/142 32/143/141 31/145/143
f 84/144/142 31/145/143 85/146/144
f 85/146/144 31/145/143 30/147/145
f 85/146/144 30/147/145 86/148/146
f 86/148/146 30/147/145 29/149/147
f 86/148/146 29/149/147 87/134/132
f 87/134/132 29/149/147 28/132/130
f 10/150/148 93/151/149 7/152/150
f 7/152/150 93/151/149 61/153/73
f 7/152/150 61/153/73 92/154/72
f 92/154/72 8/155/151 7/152/150
f 94/156/152 93/157/153 9/158/154
f 9/158/154 93/157/153 10/159/155
f 94/160/156 2/161/157 95/162/158
f 95/162/158 2/161/157 1/163/159
f 95/162/158 1/163/159 96/164/160
f 94/160/156 9/165/161 2/161/157
f 1/166/162 6/167/163 96/168/164
f 96/168/164 6/167/163 97/169/165
f 97/169/165 6/167/163 12/170/166
f 98/171/167 95/172/168 97/173/169
f 97/173/169 95/172/168 96/174/170
f 77/175/102 76/176/103 12/177/171
f 12/177/171 76/176/103 98/178/172
f 12/177/171 98/178/172 97/179/173
f 12/177/171 11/180/174 77/175/102
f 60/181/175 76/182/176 37/183/177
f 37/183/177 76/182/176 75/184/178
f 37/183/177 75/184/178 74/185/179
f 60/181/175 59/186/180 76/182/176
f 76/182/176 59/186/180 98/187/181
f 98/187/181 59/186/180 58/188/182
f 98/187/181 58/188/182 57/189/183
f 98/187/181 57/189/183 95/190/184
f 95/190/184 57/189/183 56/191/185
f 95/190/184 56/191/185 55/192/186
f 95/190/184 55/192/186 94/193/187
f 94/193/187 55/192/186 54/194/188
f 94/193/187 54/194/188 53/195/189
f 94/193/187 53/195/189 93/196/190
f 93/196/190 53/195/189 52/197/191
f 93/196/190 52/197/191 51/198/192
f 93/196/190 51/198/192 61/199/193
f 61/199/193 51/198/192 50/200/194
f 61/199/193 50/200/194 49/201/195
f 48/202/196 64/203/197 49/201/195
f 49/201/195 64/203/197 63/204/198
f 49/201/195 63/204/198 62/205/199
f 64/203/197 48/202/196 65/206/200
f 65/206/200 48/202/196 47/207/201
f 65/206/200 47/207/201 66/208/202
f 66/208/202 47/207/201 46/209/203
f 66/208/202 46/209/203 67/210/204
f 67/210/204 46/209/203 45/211/205
f 67/210/204 45/211/205 44/212/206
f 67/210/204 44/212/206 68/213/207
f 68/213/207 44/212/206 43/214/208
f 68/213/207 43/214/208 69/215/209
f 69/215/209 43/214/208 42/216/210
f 69/215/209 42/216/210 70/217/211
f 70/217/211 42/216/210 41/218/212
f 70/217/211 41/218/212 40/219/213
f 70/217/211 40/219/213 71/220/214
f 71/220/214 40/219/213 39/221/215
f 71/220/214 39/221/215 72/222/216
f 72/222/216 39/221/215 38/223/217
f 72/222/216 38/223/217 73/224/218
f 73/224/218 38/223/217 37/183/177
f 73/224/218 37/183/177 74/185/179
f 62/205/199 61/199/193 49/201/195
# 98 vertices
# 224 texture params
# 218 normals
# 196 facets

# 1 groups
