ISO-10303-21;
HEADER;
/* Generated by software containing ST-Developer
 * from STEP Tools, Inc. (www.steptools.com) 
 */

FILE_DESCRIPTION(
/* description */ (''),
/* implementation_level */ '2;1');

FILE_NAME(
/* name */ 'Model.step',
/* time_stamp */ '2026-08-08T19:49:42+05:30',
/* author */ (''),
/* organization */ (''),
/* preprocessor_version */ 'ST-DEVELOPER v20.1',
/* originating_system */ 'Autodesk Translation Framework v15.8.0.0',
/* authorisation */ '');

FILE_SCHEMA (('AUTOMOTIVE_DESIGN { 1 0 10303 214 3 1 1 }'));
ENDSEC;

DATA;
#10=MECHANICAL_DESIGN_GEOMETRIC_PRESENTATION_REPRESENTATION('',(#27,#28,
#29),#863);
#11=CONTEXT_DEPENDENT_OVER_RIDING_STYLED_ITEM('',(#896),#877,#29,(#17));
#12=CONTEXT_DEPENDENT_OVER_RIDING_STYLED_ITEM('',(#897),#878,#29,(#18));
#13=MAPPED_ITEM('',#14,#550);
#14=REPRESENTATION_MAP(#550,#876);
#15=ITEM_DEFINED_TRANSFORMATION($,$,#467,#548);
#16=ITEM_DEFINED_TRANSFORMATION($,$,#519,#549);
#17=(
REPRESENTATION_RELATIONSHIP($,$,#877,#876)
REPRESENTATION_RELATIONSHIP_WITH_TRANSFORMATION(#15)
SHAPE_REPRESENTATION_RELATIONSHIP()
);
#18=(
REPRESENTATION_RELATIONSHIP($,$,#878,#876)
REPRESENTATION_RELATIONSHIP_WITH_TRANSFORMATION(#16)
SHAPE_REPRESENTATION_RELATIONSHIP()
);
#19=CONTEXT_DEPENDENT_SHAPE_REPRESENTATION(#17,#874);
#20=CONTEXT_DEPENDENT_SHAPE_REPRESENTATION(#18,#875);
#21=NEXT_ASSEMBLY_USAGE_OCCURRENCE('Metal Bowl:1','Metal Bowl:1',
'Metal Bowl:1',#880,#881,'Metal Bowl:1');
#22=NEXT_ASSEMBLY_USAGE_OCCURRENCE('Rubber Grip:1','Rubber Grip:1',
'Rubber Grip:1',#880,#882,'Rubber Grip:1');
#23=SHAPE_REPRESENTATION_RELATIONSHIP('SRR','None',#877,#25);
#24=SHAPE_REPRESENTATION_RELATIONSHIP('SRR','None',#878,#26);
#25=ADVANCED_BREP_SHAPE_REPRESENTATION('',(#30),#861);
#26=ADVANCED_BREP_SHAPE_REPRESENTATION('',(#31),#862);
#27=STYLED_ITEM('',(#896),#30);
#28=STYLED_ITEM('',(#897),#31);
#29=STYLED_ITEM('',(#898),#13);
#30=MANIFOLD_SOLID_BREP('Body2',#441);
#31=MANIFOLD_SOLID_BREP('Body2',#442);
#32=CONICAL_SURFACE('',#484,95.2246751141594,0.174532925199433);
#33=CONICAL_SURFACE('',#494,71.335251520135,0.174532925199433);
#34=CONICAL_SURFACE('',#503,92.7626557316289,0.174532925199433);
#35=CONICAL_SURFACE('',#513,73.7972709026655,0.174532925199433);
#36=FACE_BOUND('',#113,.T.);
#37=FACE_BOUND('',#116,.T.);
#38=FACE_BOUND('',#121,.T.);
#39=FACE_BOUND('',#130,.T.);
#40=FACE_BOUND('',#136,.T.);
#41=FACE_BOUND('',#141,.T.);
#42=FACE_BOUND('',#143,.T.);
#43=FACE_BOUND('',#148,.T.);
#44=PLANE('',#474);
#45=PLANE('',#479);
#46=PLANE('',#489);
#47=PLANE('',#499);
#48=PLANE('',#508);
#49=PLANE('',#518);
#50=PLANE('',#520);
#51=PLANE('',#531);
#52=PLANE('',#533);
#53=PLANE('',#544);
#54=LINE('',#741,#63);
#55=LINE('',#759,#64);
#56=LINE('',#773,#65);
#57=LINE('',#786,#66);
#58=LINE('',#802,#67);
#59=LINE('',#820,#68);
#60=LINE('',#841,#69);
#61=LINE('',#850,#70);
#62=LINE('',#852,#71);
#63=VECTOR('',#567,110.);
#64=VECTOR('',#592,95.2246751141594);
#65=VECTOR('',#611,71.335251520135);
#66=VECTOR('',#630,95.2246751141594);
#67=VECTOR('',#653,71.335251520135);
#68=VECTOR('',#678,110.);
#69=VECTOR('',#707,110.);
#70=VECTOR('',#720,102.097749077943);
#71=VECTOR('',#723,102.097749077943);
#72=CYLINDRICAL_SURFACE('',#472,110.);
#73=CYLINDRICAL_SURFACE('',#526,111.3);
#74=CYLINDRICAL_SURFACE('',#539,110.3);
#75=CYLINDRICAL_SURFACE('',#546,102.097749077943);
#76=CYLINDRICAL_SURFACE('',#547,102.097749077943);
#77=FACE_OUTER_BOUND('',#110,.T.);
#78=FACE_OUTER_BOUND('',#111,.T.);
#79=FACE_OUTER_BOUND('',#112,.T.);
#80=FACE_OUTER_BOUND('',#114,.T.);
#81=FACE_OUTER_BOUND('',#115,.T.);
#82=FACE_OUTER_BOUND('',#117,.T.);
#83=FACE_OUTER_BOUND('',#118,.T.);
#84=FACE_OUTER_BOUND('',#119,.T.);
#85=FACE_OUTER_BOUND('',#120,.T.);
#86=FACE_OUTER_BOUND('',#122,.T.);
#87=FACE_OUTER_BOUND('',#123,.T.);
#88=FACE_OUTER_BOUND('',#124,.T.);
#89=FACE_OUTER_BOUND('',#125,.T.);
#90=FACE_OUTER_BOUND('',#126,.T.);
#91=FACE_OUTER_BOUND('',#127,.T.);
#92=FACE_OUTER_BOUND('',#128,.T.);
#93=FACE_OUTER_BOUND('',#129,.T.);
#94=FACE_OUTER_BOUND('',#131,.T.);
#95=FACE_OUTER_BOUND('',#132,.T.);
#96=FACE_OUTER_BOUND('',#133,.T.);
#97=FACE_OUTER_BOUND('',#134,.T.);
#98=FACE_OUTER_BOUND('',#135,.T.);
#99=FACE_OUTER_BOUND('',#137,.T.);
#100=FACE_OUTER_BOUND('',#138,.T.);
#101=FACE_OUTER_BOUND('',#139,.T.);
#102=FACE_OUTER_BOUND('',#140,.T.);
#103=FACE_OUTER_BOUND('',#142,.T.);
#104=FACE_OUTER_BOUND('',#144,.T.);
#105=FACE_OUTER_BOUND('',#145,.T.);
#106=FACE_OUTER_BOUND('',#146,.T.);
#107=FACE_OUTER_BOUND('',#147,.T.);
#108=FACE_OUTER_BOUND('',#149,.T.);
#109=FACE_OUTER_BOUND('',#150,.T.);
#110=EDGE_LOOP('',(#284,#285,#286,#287));
#111=EDGE_LOOP('',(#288,#289,#290,#291));
#112=EDGE_LOOP('',(#292));
#113=EDGE_LOOP('',(#293));
#114=EDGE_LOOP('',(#294,#295,#296,#297));
#115=EDGE_LOOP('',(#298));
#116=EDGE_LOOP('',(#299));
#117=EDGE_LOOP('',(#300,#301,#302,#303));
#118=EDGE_LOOP('',(#304,#305,#306,#307));
#119=EDGE_LOOP('',(#308,#309,#310,#311));
#120=EDGE_LOOP('',(#312));
#121=EDGE_LOOP('',(#313));
#122=EDGE_LOOP('',(#314,#315,#316,#317));
#123=EDGE_LOOP('',(#318,#319,#320,#321));
#124=EDGE_LOOP('',(#322,#323,#324,#325));
#125=EDGE_LOOP('',(#326));
#126=EDGE_LOOP('',(#327,#328,#329,#330));
#127=EDGE_LOOP('',(#331,#332,#333,#334));
#128=EDGE_LOOP('',(#335,#336,#337,#338));
#129=EDGE_LOOP('',(#339));
#130=EDGE_LOOP('',(#340));
#131=EDGE_LOOP('',(#341,#342,#343,#344));
#132=EDGE_LOOP('',(#345,#346,#347,#348));
#133=EDGE_LOOP('',(#349,#350,#351,#352));
#134=EDGE_LOOP('',(#353));
#135=EDGE_LOOP('',(#354));
#136=EDGE_LOOP('',(#355));
#137=EDGE_LOOP('',(#356,#357,#358,#359));
#138=EDGE_LOOP('',(#360,#361,#362,#363));
#139=EDGE_LOOP('',(#364,#365,#366,#367));
#140=EDGE_LOOP('',(#368));
#141=EDGE_LOOP('',(#369));
#142=EDGE_LOOP('',(#370));
#143=EDGE_LOOP('',(#371));
#144=EDGE_LOOP('',(#372,#373,#374,#375));
#145=EDGE_LOOP('',(#376,#377,#378,#379));
#146=EDGE_LOOP('',(#380,#381,#382,#383));
#147=EDGE_LOOP('',(#384));
#148=EDGE_LOOP('',(#385));
#149=EDGE_LOOP('',(#386,#387,#388,#389));
#150=EDGE_LOOP('',(#390,#391,#392,#393));
#151=CIRCLE('',#469,109.5);
#152=CIRCLE('',#470,0.5);
#153=CIRCLE('',#471,110.);
#154=CIRCLE('',#473,110.);
#155=CIRCLE('',#475,102.097749077943);
#156=CIRCLE('',#477,0.5);
#157=CIRCLE('',#478,109.5);
#158=CIRCLE('',#480,102.097749077943);
#159=CIRCLE('',#482,2.5);
#160=CIRCLE('',#483,99.6357296954127);
#161=CIRCLE('',#485,91.1778908374935);
#162=CIRCLE('',#487,86.2538520724324);
#163=CIRCLE('',#488,5.);
#164=CIRCLE('',#490,79.6448483842052);
#165=CIRCLE('',#492,74.7208096191442);
#166=CIRCLE('',#493,5.);
#167=CIRCLE('',#495,67.9496934211258);
#168=CIRCLE('',#497,5.);
#169=CIRCLE('',#498,63.0256546560648);
#170=CIRCLE('',#501,97.1737103128822);
#171=CIRCLE('',#502,5.);
#172=CIRCLE('',#504,88.715871454963);
#173=CIRCLE('',#506,2.5);
#174=CIRCLE('',#507,86.2538520724324);
#175=CIRCLE('',#509,79.6448483842052);
#176=CIRCLE('',#511,2.5);
#177=CIRCLE('',#512,77.1828290016747);
#178=CIRCLE('',#514,70.4117128036563);
#179=CIRCLE('',#516,63.0256546560648);
#180=CIRCLE('',#517,7.5);
#181=CIRCLE('',#521,109.5);
#182=CIRCLE('',#522,102.097749077943);
#183=CIRCLE('',#524,111.3);
#184=CIRCLE('',#525,1.8);
#185=CIRCLE('',#527,111.3);
#186=CIRCLE('',#529,109.5);
#187=CIRCLE('',#530,1.8);
#188=CIRCLE('',#532,102.097749077943);
#189=CIRCLE('',#534,109.5);
#190=CIRCLE('',#535,102.097749077943);
#191=CIRCLE('',#537,0.8);
#192=CIRCLE('',#538,110.3);
#193=CIRCLE('',#540,110.3);
#194=CIRCLE('',#542,0.8);
#195=CIRCLE('',#543,109.5);
#196=CIRCLE('',#545,102.097749077943);
#197=VERTEX_POINT('',#733);
#198=VERTEX_POINT('',#735);
#199=VERTEX_POINT('',#739);
#200=VERTEX_POINT('',#743);
#201=VERTEX_POINT('',#746);
#202=VERTEX_POINT('',#750);
#203=VERTEX_POINT('',#753);
#204=VERTEX_POINT('',#757);
#205=VERTEX_POINT('',#761);
#206=VERTEX_POINT('',#765);
#207=VERTEX_POINT('',#768);
#208=VERTEX_POINT('',#772);
#209=VERTEX_POINT('',#776);
#210=VERTEX_POINT('',#781);
#211=VERTEX_POINT('',#785);
#212=VERTEX_POINT('',#789);
#213=VERTEX_POINT('',#793);
#214=VERTEX_POINT('',#796);
#215=VERTEX_POINT('',#800);
#216=VERTEX_POINT('',#804);
#217=VERTEX_POINT('',#810);
#218=VERTEX_POINT('',#812);
#219=VERTEX_POINT('',#815);
#220=VERTEX_POINT('',#819);
#221=VERTEX_POINT('',#823);
#222=VERTEX_POINT('',#827);
#223=VERTEX_POINT('',#830);
#224=VERTEX_POINT('',#832);
#225=VERTEX_POINT('',#835);
#226=VERTEX_POINT('',#839);
#227=VERTEX_POINT('',#843);
#228=VERTEX_POINT('',#847);
#229=EDGE_CURVE('',#197,#197,#151,.T.);
#230=EDGE_CURVE('',#197,#198,#152,.T.);
#231=EDGE_CURVE('',#198,#198,#153,.T.);
#232=EDGE_CURVE('',#199,#199,#154,.T.);
#233=EDGE_CURVE('',#199,#198,#54,.T.);
#234=EDGE_CURVE('',#200,#200,#155,.T.);
#235=EDGE_CURVE('',#199,#201,#156,.T.);
#236=EDGE_CURVE('',#201,#201,#157,.T.);
#237=EDGE_CURVE('',#202,#202,#158,.T.);
#238=EDGE_CURVE('',#200,#203,#159,.T.);
#239=EDGE_CURVE('',#203,#203,#160,.T.);
#240=EDGE_CURVE('',#204,#204,#161,.T.);
#241=EDGE_CURVE('',#204,#203,#55,.T.);
#242=EDGE_CURVE('',#205,#205,#162,.T.);
#243=EDGE_CURVE('',#205,#204,#163,.T.);
#244=EDGE_CURVE('',#206,#206,#164,.T.);
#245=EDGE_CURVE('',#207,#207,#165,.T.);
#246=EDGE_CURVE('',#207,#206,#166,.T.);
#247=EDGE_CURVE('',#207,#208,#56,.T.);
#248=EDGE_CURVE('',#208,#208,#167,.T.);
#249=EDGE_CURVE('',#208,#209,#168,.T.);
#250=EDGE_CURVE('',#209,#209,#169,.T.);
#251=EDGE_CURVE('',#210,#210,#170,.T.);
#252=EDGE_CURVE('',#210,#202,#171,.T.);
#253=EDGE_CURVE('',#210,#211,#57,.T.);
#254=EDGE_CURVE('',#211,#211,#172,.T.);
#255=EDGE_CURVE('',#211,#212,#173,.T.);
#256=EDGE_CURVE('',#212,#212,#174,.T.);
#257=EDGE_CURVE('',#213,#213,#175,.T.);
#258=EDGE_CURVE('',#213,#214,#176,.T.);
#259=EDGE_CURVE('',#214,#214,#177,.T.);
#260=EDGE_CURVE('',#215,#215,#178,.T.);
#261=EDGE_CURVE('',#215,#214,#58,.T.);
#262=EDGE_CURVE('',#216,#216,#179,.T.);
#263=EDGE_CURVE('',#216,#215,#180,.T.);
#264=EDGE_CURVE('',#217,#217,#181,.T.);
#265=EDGE_CURVE('',#218,#218,#182,.T.);
#266=EDGE_CURVE('',#219,#219,#183,.T.);
#267=EDGE_CURVE('',#219,#217,#184,.T.);
#268=EDGE_CURVE('',#219,#220,#59,.T.);
#269=EDGE_CURVE('',#220,#220,#185,.T.);
#270=EDGE_CURVE('',#221,#221,#186,.T.);
#271=EDGE_CURVE('',#221,#220,#187,.T.);
#272=EDGE_CURVE('',#222,#222,#188,.T.);
#273=EDGE_CURVE('',#223,#223,#189,.T.);
#274=EDGE_CURVE('',#224,#224,#190,.T.);
#275=EDGE_CURVE('',#223,#225,#191,.T.);
#276=EDGE_CURVE('',#225,#225,#192,.T.);
#277=EDGE_CURVE('',#226,#226,#193,.T.);
#278=EDGE_CURVE('',#226,#225,#60,.T.);
#279=EDGE_CURVE('',#226,#227,#194,.T.);
#280=EDGE_CURVE('',#227,#227,#195,.T.);
#281=EDGE_CURVE('',#228,#228,#196,.T.);
#282=EDGE_CURVE('',#218,#224,#61,.T.);
#283=EDGE_CURVE('',#228,#222,#62,.T.);
#284=ORIENTED_EDGE('',*,*,#229,.T.);
#285=ORIENTED_EDGE('',*,*,#230,.T.);
#286=ORIENTED_EDGE('',*,*,#231,.T.);
#287=ORIENTED_EDGE('',*,*,#230,.F.);
#288=ORIENTED_EDGE('',*,*,#232,.F.);
#289=ORIENTED_EDGE('',*,*,#233,.T.);
#290=ORIENTED_EDGE('',*,*,#231,.F.);
#291=ORIENTED_EDGE('',*,*,#233,.F.);
#292=ORIENTED_EDGE('',*,*,#229,.F.);
#293=ORIENTED_EDGE('',*,*,#234,.F.);
#294=ORIENTED_EDGE('',*,*,#232,.T.);
#295=ORIENTED_EDGE('',*,*,#235,.T.);
#296=ORIENTED_EDGE('',*,*,#236,.T.);
#297=ORIENTED_EDGE('',*,*,#235,.F.);
#298=ORIENTED_EDGE('',*,*,#236,.F.);
#299=ORIENTED_EDGE('',*,*,#237,.T.);
#300=ORIENTED_EDGE('',*,*,#234,.T.);
#301=ORIENTED_EDGE('',*,*,#238,.T.);
#302=ORIENTED_EDGE('',*,*,#239,.T.);
#303=ORIENTED_EDGE('',*,*,#238,.F.);
#304=ORIENTED_EDGE('',*,*,#240,.F.);
#305=ORIENTED_EDGE('',*,*,#241,.T.);
#306=ORIENTED_EDGE('',*,*,#239,.F.);
#307=ORIENTED_EDGE('',*,*,#241,.F.);
#308=ORIENTED_EDGE('',*,*,#242,.T.);
#309=ORIENTED_EDGE('',*,*,#243,.T.);
#310=ORIENTED_EDGE('',*,*,#240,.T.);
#311=ORIENTED_EDGE('',*,*,#243,.F.);
#312=ORIENTED_EDGE('',*,*,#242,.F.);
#313=ORIENTED_EDGE('',*,*,#244,.F.);
#314=ORIENTED_EDGE('',*,*,#245,.T.);
#315=ORIENTED_EDGE('',*,*,#246,.T.);
#316=ORIENTED_EDGE('',*,*,#244,.T.);
#317=ORIENTED_EDGE('',*,*,#246,.F.);
#318=ORIENTED_EDGE('',*,*,#245,.F.);
#319=ORIENTED_EDGE('',*,*,#247,.T.);
#320=ORIENTED_EDGE('',*,*,#248,.F.);
#321=ORIENTED_EDGE('',*,*,#247,.F.);
#322=ORIENTED_EDGE('',*,*,#248,.T.);
#323=ORIENTED_EDGE('',*,*,#249,.T.);
#324=ORIENTED_EDGE('',*,*,#250,.T.);
#325=ORIENTED_EDGE('',*,*,#249,.F.);
#326=ORIENTED_EDGE('',*,*,#250,.F.);
#327=ORIENTED_EDGE('',*,*,#251,.F.);
#328=ORIENTED_EDGE('',*,*,#252,.T.);
#329=ORIENTED_EDGE('',*,*,#237,.F.);
#330=ORIENTED_EDGE('',*,*,#252,.F.);
#331=ORIENTED_EDGE('',*,*,#251,.T.);
#332=ORIENTED_EDGE('',*,*,#253,.T.);
#333=ORIENTED_EDGE('',*,*,#254,.T.);
#334=ORIENTED_EDGE('',*,*,#253,.F.);
#335=ORIENTED_EDGE('',*,*,#254,.F.);
#336=ORIENTED_EDGE('',*,*,#255,.T.);
#337=ORIENTED_EDGE('',*,*,#256,.F.);
#338=ORIENTED_EDGE('',*,*,#255,.F.);
#339=ORIENTED_EDGE('',*,*,#256,.T.);
#340=ORIENTED_EDGE('',*,*,#257,.T.);
#341=ORIENTED_EDGE('',*,*,#257,.F.);
#342=ORIENTED_EDGE('',*,*,#258,.T.);
#343=ORIENTED_EDGE('',*,*,#259,.F.);
#344=ORIENTED_EDGE('',*,*,#258,.F.);
#345=ORIENTED_EDGE('',*,*,#260,.T.);
#346=ORIENTED_EDGE('',*,*,#261,.T.);
#347=ORIENTED_EDGE('',*,*,#259,.T.);
#348=ORIENTED_EDGE('',*,*,#261,.F.);
#349=ORIENTED_EDGE('',*,*,#262,.F.);
#350=ORIENTED_EDGE('',*,*,#263,.T.);
#351=ORIENTED_EDGE('',*,*,#260,.F.);
#352=ORIENTED_EDGE('',*,*,#263,.F.);
#353=ORIENTED_EDGE('',*,*,#262,.T.);
#354=ORIENTED_EDGE('',*,*,#264,.F.);
#355=ORIENTED_EDGE('',*,*,#265,.T.);
#356=ORIENTED_EDGE('',*,*,#266,.T.);
#357=ORIENTED_EDGE('',*,*,#267,.T.);
#358=ORIENTED_EDGE('',*,*,#264,.T.);
#359=ORIENTED_EDGE('',*,*,#267,.F.);
#360=ORIENTED_EDGE('',*,*,#266,.F.);
#361=ORIENTED_EDGE('',*,*,#268,.T.);
#362=ORIENTED_EDGE('',*,*,#269,.F.);
#363=ORIENTED_EDGE('',*,*,#268,.F.);
#364=ORIENTED_EDGE('',*,*,#270,.T.);
#365=ORIENTED_EDGE('',*,*,#271,.T.);
#366=ORIENTED_EDGE('',*,*,#269,.T.);
#367=ORIENTED_EDGE('',*,*,#271,.F.);
#368=ORIENTED_EDGE('',*,*,#270,.F.);
#369=ORIENTED_EDGE('',*,*,#272,.F.);
#370=ORIENTED_EDGE('',*,*,#273,.T.);
#371=ORIENTED_EDGE('',*,*,#274,.F.);
#372=ORIENTED_EDGE('',*,*,#273,.F.);
#373=ORIENTED_EDGE('',*,*,#275,.T.);
#374=ORIENTED_EDGE('',*,*,#276,.F.);
#375=ORIENTED_EDGE('',*,*,#275,.F.);
#376=ORIENTED_EDGE('',*,*,#277,.T.);
#377=ORIENTED_EDGE('',*,*,#278,.T.);
#378=ORIENTED_EDGE('',*,*,#276,.T.);
#379=ORIENTED_EDGE('',*,*,#278,.F.);
#380=ORIENTED_EDGE('',*,*,#277,.F.);
#381=ORIENTED_EDGE('',*,*,#279,.T.);
#382=ORIENTED_EDGE('',*,*,#280,.F.);
#383=ORIENTED_EDGE('',*,*,#279,.F.);
#384=ORIENTED_EDGE('',*,*,#280,.T.);
#385=ORIENTED_EDGE('',*,*,#281,.T.);
#386=ORIENTED_EDGE('',*,*,#265,.F.);
#387=ORIENTED_EDGE('',*,*,#282,.T.);
#388=ORIENTED_EDGE('',*,*,#274,.T.);
#389=ORIENTED_EDGE('',*,*,#282,.F.);
#390=ORIENTED_EDGE('',*,*,#281,.F.);
#391=ORIENTED_EDGE('',*,*,#283,.T.);
#392=ORIENTED_EDGE('',*,*,#272,.T.);
#393=ORIENTED_EDGE('',*,*,#283,.F.);
#394=TOROIDAL_SURFACE('',#468,109.5,0.5);
#395=TOROIDAL_SURFACE('',#476,109.5,0.5);
#396=TOROIDAL_SURFACE('',#481,102.097749077943,2.5);
#397=TOROIDAL_SURFACE('',#486,86.2538520724324,5.);
#398=TOROIDAL_SURFACE('',#491,79.6448483842052,5.);
#399=TOROIDAL_SURFACE('',#496,63.0256546560648,5.);
#400=TOROIDAL_SURFACE('',#500,102.097749077943,5.);
#401=TOROIDAL_SURFACE('',#505,86.2538520724324,2.5);
#402=TOROIDAL_SURFACE('',#510,79.6448483842052,2.5);
#403=TOROIDAL_SURFACE('',#515,63.0256546560648,7.5);
#404=TOROIDAL_SURFACE('',#523,109.5,1.8);
#405=TOROIDAL_SURFACE('',#528,109.5,1.8);
#406=TOROIDAL_SURFACE('',#536,109.5,0.8);
#407=TOROIDAL_SURFACE('',#541,109.5,0.8);
#408=ADVANCED_FACE('',(#77),#394,.T.);
#409=ADVANCED_FACE('',(#78),#72,.T.);
#410=ADVANCED_FACE('',(#79,#36),#44,.T.);
#411=ADVANCED_FACE('',(#80),#395,.T.);
#412=ADVANCED_FACE('',(#81,#37),#45,.F.);
#413=ADVANCED_FACE('',(#82),#396,.F.);
#414=ADVANCED_FACE('',(#83),#32,.T.);
#415=ADVANCED_FACE('',(#84),#397,.T.);
#416=ADVANCED_FACE('',(#85,#38),#46,.T.);
#417=ADVANCED_FACE('',(#86),#398,.T.);
#418=ADVANCED_FACE('',(#87),#33,.F.);
#419=ADVANCED_FACE('',(#88),#399,.F.);
#420=ADVANCED_FACE('',(#89),#47,.T.);
#421=ADVANCED_FACE('',(#90),#400,.T.);
#422=ADVANCED_FACE('',(#91),#34,.F.);
#423=ADVANCED_FACE('',(#92),#401,.F.);
#424=ADVANCED_FACE('',(#93,#39),#48,.F.);
#425=ADVANCED_FACE('',(#94),#402,.F.);
#426=ADVANCED_FACE('',(#95),#35,.T.);
#427=ADVANCED_FACE('',(#96),#403,.T.);
#428=ADVANCED_FACE('',(#97),#49,.F.);
#429=ADVANCED_FACE('',(#98,#40),#50,.F.);
#430=ADVANCED_FACE('',(#99),#404,.T.);
#431=ADVANCED_FACE('',(#100),#73,.T.);
#432=ADVANCED_FACE('',(#101),#405,.T.);
#433=ADVANCED_FACE('',(#102,#41),#51,.T.);
#434=ADVANCED_FACE('',(#103,#42),#52,.T.);
#435=ADVANCED_FACE('',(#104),#406,.F.);
#436=ADVANCED_FACE('',(#105),#74,.F.);
#437=ADVANCED_FACE('',(#106),#407,.F.);
#438=ADVANCED_FACE('',(#107,#43),#53,.F.);
#439=ADVANCED_FACE('',(#108),#75,.F.);
#440=ADVANCED_FACE('',(#109),#76,.F.);
#441=CLOSED_SHELL('',(#408,#409,#410,#411,#412,#413,#414,#415,#416,#417,
#418,#419,#420,#421,#422,#423,#424,#425,#426,#427,#428));
#442=CLOSED_SHELL('',(#429,#430,#431,#432,#433,#434,#435,#436,#437,#438,
#439,#440));
#443=DERIVED_UNIT_ELEMENT(#447,1.);
#444=DERIVED_UNIT_ELEMENT(#865,-3.);
#445=DERIVED_UNIT_ELEMENT(#447,1.);
#446=DERIVED_UNIT_ELEMENT(#865,-3.);
#447=(
MASS_UNIT()
NAMED_UNIT(*)
SI_UNIT(.KILO.,.GRAM.)
);
#448=DERIVED_UNIT((#443,#444));
#449=DERIVED_UNIT((#445,#446));
#450=MEASURE_REPRESENTATION_ITEM('density measure',
POSITIVE_RATIO_MEASURE(7850.),#448);
#451=MEASURE_REPRESENTATION_ITEM('density measure',
POSITIVE_RATIO_MEASURE(7850.),#449);
#452=PROPERTY_DEFINITION_REPRESENTATION(#462,#456);
#453=PROPERTY_DEFINITION_REPRESENTATION(#463,#457);
#454=PROPERTY_DEFINITION_REPRESENTATION(#464,#458);
#455=PROPERTY_DEFINITION_REPRESENTATION(#465,#459);
#456=REPRESENTATION('material name',(#460),#861);
#457=REPRESENTATION('density',(#450),#861);
#458=REPRESENTATION('material name',(#461),#862);
#459=REPRESENTATION('density',(#451),#862);
#460=DESCRIPTIVE_REPRESENTATION_ITEM('Steel','Steel');
#461=DESCRIPTIVE_REPRESENTATION_ITEM('Steel','Steel');
#462=PROPERTY_DEFINITION('material property','material name',#881);
#463=PROPERTY_DEFINITION('material property','density of part',#881);
#464=PROPERTY_DEFINITION('material property','material name',#882);
#465=PROPERTY_DEFINITION('material property','density of part',#882);
#466=AXIS2_PLACEMENT_3D('',#730,#551,#552);
#467=AXIS2_PLACEMENT_3D('',#731,#553,#554);
#468=AXIS2_PLACEMENT_3D('',#732,#555,#556);
#469=AXIS2_PLACEMENT_3D('',#734,#557,#558);
#470=AXIS2_PLACEMENT_3D('',#736,#559,#560);
#471=AXIS2_PLACEMENT_3D('',#737,#561,#562);
#472=AXIS2_PLACEMENT_3D('',#738,#563,#564);
#473=AXIS2_PLACEMENT_3D('',#740,#565,#566);
#474=AXIS2_PLACEMENT_3D('',#742,#568,#569);
#475=AXIS2_PLACEMENT_3D('',#744,#570,#571);
#476=AXIS2_PLACEMENT_3D('',#745,#572,#573);
#477=AXIS2_PLACEMENT_3D('',#747,#574,#575);
#478=AXIS2_PLACEMENT_3D('',#748,#576,#577);
#479=AXIS2_PLACEMENT_3D('',#749,#578,#579);
#480=AXIS2_PLACEMENT_3D('',#751,#580,#581);
#481=AXIS2_PLACEMENT_3D('',#752,#582,#583);
#482=AXIS2_PLACEMENT_3D('',#754,#584,#585);
#483=AXIS2_PLACEMENT_3D('',#755,#586,#587);
#484=AXIS2_PLACEMENT_3D('',#756,#588,#589);
#485=AXIS2_PLACEMENT_3D('',#758,#590,#591);
#486=AXIS2_PLACEMENT_3D('',#760,#593,#594);
#487=AXIS2_PLACEMENT_3D('',#762,#595,#596);
#488=AXIS2_PLACEMENT_3D('',#763,#597,#598);
#489=AXIS2_PLACEMENT_3D('',#764,#599,#600);
#490=AXIS2_PLACEMENT_3D('',#766,#601,#602);
#491=AXIS2_PLACEMENT_3D('',#767,#603,#604);
#492=AXIS2_PLACEMENT_3D('',#769,#605,#606);
#493=AXIS2_PLACEMENT_3D('',#770,#607,#608);
#494=AXIS2_PLACEMENT_3D('',#771,#609,#610);
#495=AXIS2_PLACEMENT_3D('',#774,#612,#613);
#496=AXIS2_PLACEMENT_3D('',#775,#614,#615);
#497=AXIS2_PLACEMENT_3D('',#777,#616,#617);
#498=AXIS2_PLACEMENT_3D('',#778,#618,#619);
#499=AXIS2_PLACEMENT_3D('',#779,#620,#621);
#500=AXIS2_PLACEMENT_3D('',#780,#622,#623);
#501=AXIS2_PLACEMENT_3D('',#782,#624,#625);
#502=AXIS2_PLACEMENT_3D('',#783,#626,#627);
#503=AXIS2_PLACEMENT_3D('',#784,#628,#629);
#504=AXIS2_PLACEMENT_3D('',#787,#631,#632);
#505=AXIS2_PLACEMENT_3D('',#788,#633,#634);
#506=AXIS2_PLACEMENT_3D('',#790,#635,#636);
#507=AXIS2_PLACEMENT_3D('',#791,#637,#638);
#508=AXIS2_PLACEMENT_3D('',#792,#639,#640);
#509=AXIS2_PLACEMENT_3D('',#794,#641,#642);
#510=AXIS2_PLACEMENT_3D('',#795,#643,#644);
#511=AXIS2_PLACEMENT_3D('',#797,#645,#646);
#512=AXIS2_PLACEMENT_3D('',#798,#647,#648);
#513=AXIS2_PLACEMENT_3D('',#799,#649,#650);
#514=AXIS2_PLACEMENT_3D('',#801,#651,#652);
#515=AXIS2_PLACEMENT_3D('',#803,#654,#655);
#516=AXIS2_PLACEMENT_3D('',#805,#656,#657);
#517=AXIS2_PLACEMENT_3D('',#806,#658,#659);
#518=AXIS2_PLACEMENT_3D('',#807,#660,#661);
#519=AXIS2_PLACEMENT_3D('',#808,#662,#663);
#520=AXIS2_PLACEMENT_3D('',#809,#664,#665);
#521=AXIS2_PLACEMENT_3D('',#811,#666,#667);
#522=AXIS2_PLACEMENT_3D('',#813,#668,#669);
#523=AXIS2_PLACEMENT_3D('',#814,#670,#671);
#524=AXIS2_PLACEMENT_3D('',#816,#672,#673);
#525=AXIS2_PLACEMENT_3D('',#817,#674,#675);
#526=AXIS2_PLACEMENT_3D('',#818,#676,#677);
#527=AXIS2_PLACEMENT_3D('',#821,#679,#680);
#528=AXIS2_PLACEMENT_3D('',#822,#681,#682);
#529=AXIS2_PLACEMENT_3D('',#824,#683,#684);
#530=AXIS2_PLACEMENT_3D('',#825,#685,#686);
#531=AXIS2_PLACEMENT_3D('',#826,#687,#688);
#532=AXIS2_PLACEMENT_3D('',#828,#689,#690);
#533=AXIS2_PLACEMENT_3D('',#829,#691,#692);
#534=AXIS2_PLACEMENT_3D('',#831,#693,#694);
#535=AXIS2_PLACEMENT_3D('',#833,#695,#696);
#536=AXIS2_PLACEMENT_3D('',#834,#697,#698);
#537=AXIS2_PLACEMENT_3D('',#836,#699,#700);
#538=AXIS2_PLACEMENT_3D('',#837,#701,#702);
#539=AXIS2_PLACEMENT_3D('',#838,#703,#704);
#540=AXIS2_PLACEMENT_3D('',#840,#705,#706);
#541=AXIS2_PLACEMENT_3D('',#842,#708,#709);
#542=AXIS2_PLACEMENT_3D('',#844,#710,#711);
#543=AXIS2_PLACEMENT_3D('',#845,#712,#713);
#544=AXIS2_PLACEMENT_3D('',#846,#714,#715);
#545=AXIS2_PLACEMENT_3D('',#848,#716,#717);
#546=AXIS2_PLACEMENT_3D('',#849,#718,#719);
#547=AXIS2_PLACEMENT_3D('',#851,#721,#722);
#548=AXIS2_PLACEMENT_3D('',#853,#724,#725);
#549=AXIS2_PLACEMENT_3D('',#854,#726,#727);
#550=AXIS2_PLACEMENT_3D('',#855,#728,#729);
#551=DIRECTION('axis',(0.,0.,1.));
#552=DIRECTION('refdir',(1.,0.,0.));
#553=DIRECTION('axis',(0.,0.,1.));
#554=DIRECTION('refdir',(1.,0.,0.));
#555=DIRECTION('center_axis',(0.,0.,1.));
#556=DIRECTION('ref_axis',(1.,0.,0.));
#557=DIRECTION('center_axis',(0.,0.,-1.));
#558=DIRECTION('ref_axis',(-1.,1.22464679914735E-16,0.));
#559=DIRECTION('center_axis',(1.22464679914735E-16,-1.,0.));
#560=DIRECTION('ref_axis',(-1.,-1.22464679914735E-16,0.));
#561=DIRECTION('center_axis',(0.,0.,1.));
#562=DIRECTION('ref_axis',(-1.,1.22464679914735E-16,0.));
#563=DIRECTION('center_axis',(0.,0.,1.));
#564=DIRECTION('ref_axis',(1.,0.,0.));
#565=DIRECTION('center_axis',(0.,0.,-1.));
#566=DIRECTION('ref_axis',(1.,0.,0.));
#567=DIRECTION('',(0.,0.,1.));
#568=DIRECTION('center_axis',(0.,0.,1.));
#569=DIRECTION('ref_axis',(1.,0.,0.));
#570=DIRECTION('center_axis',(0.,0.,1.));
#571=DIRECTION('ref_axis',(-1.,1.22464679914735E-16,0.));
#572=DIRECTION('center_axis',(0.,0.,1.));
#573=DIRECTION('ref_axis',(1.,0.,0.));
#574=DIRECTION('center_axis',(1.22464679914735E-16,-1.,0.));
#575=DIRECTION('ref_axis',(-1.,-1.22464679914735E-16,0.));
#576=DIRECTION('center_axis',(0.,0.,1.));
#577=DIRECTION('ref_axis',(1.,0.,0.));
#578=DIRECTION('center_axis',(0.,0.,1.));
#579=DIRECTION('ref_axis',(1.,0.,0.));
#580=DIRECTION('center_axis',(0.,0.,1.));
#581=DIRECTION('ref_axis',(-1.,1.22464679914735E-16,0.));
#582=DIRECTION('center_axis',(0.,0.,1.));
#583=DIRECTION('ref_axis',(1.,0.,0.));
#584=DIRECTION('center_axis',(1.22464679914735E-16,-1.,0.));
#585=DIRECTION('ref_axis',(-1.,-1.22464679914735E-16,0.));
#586=DIRECTION('center_axis',(0.,0.,-1.));
#587=DIRECTION('ref_axis',(-1.,0.,0.));
#588=DIRECTION('center_axis',(0.,0.,-1.));
#589=DIRECTION('ref_axis',(1.,0.,0.));
#590=DIRECTION('center_axis',(0.,0.,1.));
#591=DIRECTION('ref_axis',(-1.,0.,0.));
#592=DIRECTION('',(-0.17364817766693,-2.12657684957577E-17,-0.984807753012208));
#593=DIRECTION('center_axis',(0.,0.,1.));
#594=DIRECTION('ref_axis',(1.,0.,0.));
#595=DIRECTION('center_axis',(0.,0.,-1.));
#596=DIRECTION('ref_axis',(-1.,1.22464679914735E-16,0.));
#597=DIRECTION('center_axis',(1.22464679914735E-16,-1.,0.));
#598=DIRECTION('ref_axis',(-1.,-1.22464679914735E-16,0.));
#599=DIRECTION('center_axis',(0.,0.,1.));
#600=DIRECTION('ref_axis',(1.,0.,0.));
#601=DIRECTION('center_axis',(0.,0.,1.));
#602=DIRECTION('ref_axis',(-1.,1.22464679914735E-16,0.));
#603=DIRECTION('center_axis',(0.,0.,1.));
#604=DIRECTION('ref_axis',(1.,0.,0.));
#605=DIRECTION('center_axis',(0.,0.,-1.));
#606=DIRECTION('ref_axis',(-1.,0.,0.));
#607=DIRECTION('center_axis',(1.22464679914735E-16,-1.,0.));
#608=DIRECTION('ref_axis',(-1.,-1.22464679914735E-16,0.));
#609=DIRECTION('center_axis',(0.,0.,1.));
#610=DIRECTION('ref_axis',(1.,0.,0.));
#611=DIRECTION('',(0.17364817766693,2.12657684957577E-17,-0.984807753012208));
#612=DIRECTION('center_axis',(0.,0.,1.));
#613=DIRECTION('ref_axis',(-1.,0.,0.));
#614=DIRECTION('center_axis',(0.,0.,1.));
#615=DIRECTION('ref_axis',(1.,0.,0.));
#616=DIRECTION('center_axis',(1.22464679914735E-16,-1.,0.));
#617=DIRECTION('ref_axis',(-1.,-1.22464679914735E-16,0.));
#618=DIRECTION('center_axis',(0.,0.,-1.));
#619=DIRECTION('ref_axis',(-1.,1.22464679914735E-16,0.));
#620=DIRECTION('center_axis',(0.,0.,1.));
#621=DIRECTION('ref_axis',(1.,0.,0.));
#622=DIRECTION('center_axis',(0.,0.,1.));
#623=DIRECTION('ref_axis',(1.,0.,0.));
#624=DIRECTION('center_axis',(0.,0.,-1.));
#625=DIRECTION('ref_axis',(-1.,0.,0.));
#626=DIRECTION('center_axis',(-1.22464679914735E-16,1.,0.));
#627=DIRECTION('ref_axis',(-1.,-1.22464679914735E-16,0.));
#628=DIRECTION('center_axis',(0.,0.,-1.));
#629=DIRECTION('ref_axis',(1.,0.,0.));
#630=DIRECTION('',(0.17364817766693,2.12657684957577E-17,0.984807753012208));
#631=DIRECTION('center_axis',(0.,0.,1.));
#632=DIRECTION('ref_axis',(-1.,0.,0.));
#633=DIRECTION('center_axis',(0.,0.,1.));
#634=DIRECTION('ref_axis',(1.,0.,0.));
#635=DIRECTION('center_axis',(-1.22464679914735E-16,1.,0.));
#636=DIRECTION('ref_axis',(-1.,-1.22464679914735E-16,0.));
#637=DIRECTION('center_axis',(0.,0.,-1.));
#638=DIRECTION('ref_axis',(-1.,1.22464679914735E-16,0.));
#639=DIRECTION('center_axis',(0.,0.,1.));
#640=DIRECTION('ref_axis',(1.,0.,0.));
#641=DIRECTION('center_axis',(0.,0.,1.));
#642=DIRECTION('ref_axis',(-1.,1.22464679914735E-16,0.));
#643=DIRECTION('center_axis',(0.,0.,1.));
#644=DIRECTION('ref_axis',(1.,0.,0.));
#645=DIRECTION('center_axis',(-1.22464679914735E-16,1.,0.));
#646=DIRECTION('ref_axis',(-1.,-1.22464679914735E-16,0.));
#647=DIRECTION('center_axis',(0.,0.,-1.));
#648=DIRECTION('ref_axis',(-1.,0.,0.));
#649=DIRECTION('center_axis',(0.,0.,1.));
#650=DIRECTION('ref_axis',(1.,0.,0.));
#651=DIRECTION('center_axis',(0.,0.,1.));
#652=DIRECTION('ref_axis',(-1.,0.,0.));
#653=DIRECTION('',(-0.17364817766693,-2.12657684957577E-17,0.984807753012208));
#654=DIRECTION('center_axis',(0.,0.,1.));
#655=DIRECTION('ref_axis',(1.,0.,0.));
#656=DIRECTION('center_axis',(0.,0.,-1.));
#657=DIRECTION('ref_axis',(-1.,1.22464679914735E-16,0.));
#658=DIRECTION('center_axis',(-1.22464679914735E-16,1.,0.));
#659=DIRECTION('ref_axis',(-1.,-1.22464679914735E-16,0.));
#660=DIRECTION('center_axis',(0.,0.,1.));
#661=DIRECTION('ref_axis',(1.,0.,0.));
#662=DIRECTION('axis',(0.,0.,1.));
#663=DIRECTION('refdir',(1.,0.,0.));
#664=DIRECTION('center_axis',(0.,0.,1.));
#665=DIRECTION('ref_axis',(1.,0.,0.));
#666=DIRECTION('center_axis',(0.,0.,1.));
#667=DIRECTION('ref_axis',(1.,0.,0.));
#668=DIRECTION('center_axis',(0.,0.,1.));
#669=DIRECTION('ref_axis',(-1.,1.22464679914735E-16,0.));
#670=DIRECTION('center_axis',(0.,0.,1.));
#671=DIRECTION('ref_axis',(1.,0.,0.));
#672=DIRECTION('center_axis',(0.,0.,-1.));
#673=DIRECTION('ref_axis',(1.,0.,0.));
#674=DIRECTION('center_axis',(1.22464679914735E-16,-1.,0.));
#675=DIRECTION('ref_axis',(-1.,-1.22464679914735E-16,0.));
#676=DIRECTION('center_axis',(0.,0.,1.));
#677=DIRECTION('ref_axis',(1.,0.,0.));
#678=DIRECTION('',(0.,0.,1.));
#679=DIRECTION('center_axis',(0.,0.,1.));
#680=DIRECTION('ref_axis',(-1.,1.22464679914735E-16,0.));
#681=DIRECTION('center_axis',(0.,0.,1.));
#682=DIRECTION('ref_axis',(1.,0.,0.));
#683=DIRECTION('center_axis',(0.,0.,-1.));
#684=DIRECTION('ref_axis',(-1.,1.22464679914735E-16,0.));
#685=DIRECTION('center_axis',(1.22464679914735E-16,-1.,0.));
#686=DIRECTION('ref_axis',(-1.,-1.22464679914735E-16,0.));
#687=DIRECTION('center_axis',(0.,0.,1.));
#688=DIRECTION('ref_axis',(1.,0.,0.));
#689=DIRECTION('center_axis',(0.,0.,1.));
#690=DIRECTION('ref_axis',(-1.,1.22464679914735E-16,0.));
#691=DIRECTION('center_axis',(0.,0.,1.));
#692=DIRECTION('ref_axis',(1.,0.,0.));
#693=DIRECTION('center_axis',(0.,0.,1.));
#694=DIRECTION('ref_axis',(1.,0.,0.));
#695=DIRECTION('center_axis',(0.,0.,1.));
#696=DIRECTION('ref_axis',(-1.,1.22464679914735E-16,0.));
#697=DIRECTION('center_axis',(0.,0.,1.));
#698=DIRECTION('ref_axis',(1.,0.,0.));
#699=DIRECTION('center_axis',(-1.22464679914735E-16,1.,0.));
#700=DIRECTION('ref_axis',(-1.,-1.22464679914735E-16,0.));
#701=DIRECTION('center_axis',(0.,0.,-1.));
#702=DIRECTION('ref_axis',(1.,0.,0.));
#703=DIRECTION('center_axis',(0.,0.,1.));
#704=DIRECTION('ref_axis',(1.,0.,0.));
#705=DIRECTION('center_axis',(0.,0.,1.));
#706=DIRECTION('ref_axis',(-1.,1.22464679914735E-16,0.));
#707=DIRECTION('',(0.,0.,-1.));
#708=DIRECTION('center_axis',(0.,0.,1.));
#709=DIRECTION('ref_axis',(1.,0.,0.));
#710=DIRECTION('center_axis',(-1.22464679914735E-16,1.,0.));
#711=DIRECTION('ref_axis',(-1.,-1.22464679914735E-16,0.));
#712=DIRECTION('center_axis',(0.,0.,-1.));
#713=DIRECTION('ref_axis',(-1.,1.22464679914735E-16,0.));
#714=DIRECTION('center_axis',(0.,0.,1.));
#715=DIRECTION('ref_axis',(1.,0.,0.));
#716=DIRECTION('center_axis',(0.,0.,1.));
#717=DIRECTION('ref_axis',(-1.,1.22464679914735E-16,0.));
#718=DIRECTION('center_axis',(0.,0.,1.));
#719=DIRECTION('ref_axis',(-1.,1.22464679914735E-16,0.));
#720=DIRECTION('',(0.,0.,1.));
#721=DIRECTION('center_axis',(0.,0.,1.));
#722=DIRECTION('ref_axis',(-1.,1.22464679914735E-16,0.));
#723=DIRECTION('',(0.,0.,1.));
#724=DIRECTION('',(0.,0.,1.));
#725=DIRECTION('',(1.,0.,0.));
#726=DIRECTION('',(0.,0.,1.));
#727=DIRECTION('',(1.,0.,0.));
#728=DIRECTION('center_axis',(0.,0.,1.));
#729=DIRECTION('ref_axis',(1.,0.,0.));
#730=CARTESIAN_POINT('',(0.,0.,0.));
#731=CARTESIAN_POINT('',(0.,0.,0.));
#732=CARTESIAN_POINT('Origin',(0.,0.,2.));
#733=CARTESIAN_POINT('',(-109.5,-1.34098824506635E-14,2.5));
#734=CARTESIAN_POINT('Origin',(0.,0.,2.5));
#735=CARTESIAN_POINT('',(-110.,-1.34711147906209E-14,2.));
#736=CARTESIAN_POINT('Origin',(-109.5,-1.34098824506635E-14,2.));
#737=CARTESIAN_POINT('Origin',(0.,0.,2.));
#738=CARTESIAN_POINT('Origin',(0.,0.,2.5));
#739=CARTESIAN_POINT('',(-110.,1.34711147906209E-14,0.5));
#740=CARTESIAN_POINT('Origin',(0.,0.,0.5));
#741=CARTESIAN_POINT('',(-110.,-1.34711147906209E-14,2.5));
#742=CARTESIAN_POINT('Origin',(100.,0.,2.5));
#743=CARTESIAN_POINT('',(-102.097749077943,-1.25033681608453E-14,2.5));
#744=CARTESIAN_POINT('Origin',(0.,0.,2.5));
#745=CARTESIAN_POINT('Origin',(0.,0.,0.5));
#746=CARTESIAN_POINT('',(-109.5,-1.34098824506635E-14,0.));
#747=CARTESIAN_POINT('Origin',(-109.5,-1.34098824506635E-14,0.5));
#748=CARTESIAN_POINT('Origin',(0.,0.,0.));
#749=CARTESIAN_POINT('Origin',(100.,0.,0.));
#750=CARTESIAN_POINT('',(-102.097749077943,-1.25033681608453E-14,0.));
#751=CARTESIAN_POINT('Origin',(0.,0.,0.));
#752=CARTESIAN_POINT('Origin',(0.,0.,5.));
#753=CARTESIAN_POINT('',(-99.6357296954127,-1.22018577452198E-14,4.56587955583267));
#754=CARTESIAN_POINT('Origin',(-102.097749077943,-1.25033681608453E-14,
5.));
#755=CARTESIAN_POINT('Origin',(0.,-1.22018577452198E-14,4.56587955583267));
#756=CARTESIAN_POINT('Origin',(0.,0.,29.5822132078357));
#757=CARTESIAN_POINT('',(-91.1778908374935,-1.11660712167143E-14,52.5326673040061));
#758=CARTESIAN_POINT('Origin',(0.,-1.11660712167143E-14,52.5326673040061));
#759=CARTESIAN_POINT('',(-95.2246751141594,-1.16616593578402E-14,29.5822132078357));
#760=CARTESIAN_POINT('Origin',(0.,0.,51.6644264156714));
#761=CARTESIAN_POINT('',(-86.2538520724324,-1.05630503854634E-14,56.6644264156714));
#762=CARTESIAN_POINT('Origin',(0.,0.,56.6644264156714));
#763=CARTESIAN_POINT('Origin',(-86.2538520724324,-1.05630503854634E-14,
51.6644264156714));
#764=CARTESIAN_POINT('Origin',(75.4493502283188,0.,56.6644264156714));
#765=CARTESIAN_POINT('',(-79.6448483842052,-9.75368086422932E-15,56.6644264156714));
#766=CARTESIAN_POINT('Origin',(0.,0.,56.6644264156714));
#767=CARTESIAN_POINT('Origin',(0.,0.,51.6644264156714));
#768=CARTESIAN_POINT('',(-74.7208096191442,-9.15066003297837E-15,52.5326673040061));
#769=CARTESIAN_POINT('Origin',(0.,-9.15066003297837E-15,52.5326673040061));
#770=CARTESIAN_POINT('Origin',(-79.6448483842052,-9.75368086422932E-15,
51.6644264156714));
#771=CARTESIAN_POINT('Origin',(0.,0.,33.3322132078357));
#772=CARTESIAN_POINT('',(-67.9496934211258,-8.32143745512257E-15,14.1317591116653));
#773=CARTESIAN_POINT('',(-71.335251520135,-8.73604874405047E-15,33.3322132078357));
#774=CARTESIAN_POINT('Origin',(0.,-8.32143745512257E-15,14.1317591116653));
#775=CARTESIAN_POINT('Origin',(0.,0.,15.));
#776=CARTESIAN_POINT('',(-63.0256546560648,-7.71841662387162E-15,10.));
#777=CARTESIAN_POINT('Origin',(-63.0256546560648,-7.71841662387162E-15,
15.));
#778=CARTESIAN_POINT('Origin',(0.,0.,10.));
#779=CARTESIAN_POINT('Origin',(0.,0.,10.));
#780=CARTESIAN_POINT('Origin',(0.,0.,5.));
#781=CARTESIAN_POINT('',(-97.1737103128822,-1.19003473295943E-14,4.13175911166535));
#782=CARTESIAN_POINT('Origin',(0.,-1.22018577452198E-14,4.13175911166535));
#783=CARTESIAN_POINT('Origin',(-102.097749077943,-1.25033681608453E-14,
5.));
#784=CARTESIAN_POINT('Origin',(0.,0.,29.1480927636684));
#785=CARTESIAN_POINT('',(-88.715871454963,-1.08645608010888E-14,52.0985468598388));
#786=CARTESIAN_POINT('',(-92.7626557316289,-1.13601489422147E-14,29.1480927636684));
#787=CARTESIAN_POINT('Origin',(0.,-1.11660712167143E-14,52.0985468598388));
#788=CARTESIAN_POINT('Origin',(0.,0.,51.6644264156714));
#789=CARTESIAN_POINT('',(-86.2538520724324,-1.05630503854634E-14,54.1644264156714));
#790=CARTESIAN_POINT('Origin',(-86.2538520724324,-1.05630503854634E-14,
51.6644264156714));
#791=CARTESIAN_POINT('Origin',(0.,0.,54.1644264156714));
#792=CARTESIAN_POINT('Origin',(75.4493502283188,0.,54.1644264156714));
#793=CARTESIAN_POINT('',(-79.6448483842052,-9.75368086422932E-15,54.1644264156714));
#794=CARTESIAN_POINT('Origin',(0.,0.,54.1644264156714));
#795=CARTESIAN_POINT('Origin',(0.,0.,51.6644264156714));
#796=CARTESIAN_POINT('',(-77.1828290016747,-9.45217044860384E-15,52.0985468598388));
#797=CARTESIAN_POINT('Origin',(-79.6448483842052,-9.75368086422932E-15,
51.6644264156714));
#798=CARTESIAN_POINT('Origin',(0.,-9.15066003297837E-15,52.0985468598388));
#799=CARTESIAN_POINT('Origin',(0.,0.,32.8980927636684));
#800=CARTESIAN_POINT('',(-70.4117128036563,-8.62294787074804E-15,13.697638667498));
#801=CARTESIAN_POINT('Origin',(0.,-8.32143745512257E-15,13.697638667498));
#802=CARTESIAN_POINT('',(-73.7972709026655,-9.03755915967594E-15,32.8980927636684));
#803=CARTESIAN_POINT('Origin',(0.,0.,15.));
#804=CARTESIAN_POINT('',(-63.0256546560648,-7.71841662387162E-15,7.5));
#805=CARTESIAN_POINT('Origin',(0.,0.,7.5));
#806=CARTESIAN_POINT('Origin',(-63.0256546560648,-7.71841662387162E-15,
15.));
#807=CARTESIAN_POINT('Origin',(0.,0.,7.5));
#808=CARTESIAN_POINT('',(0.,0.,0.));
#809=CARTESIAN_POINT('Origin',(100.,0.,-1.3));
#810=CARTESIAN_POINT('',(-109.5,-1.34098824506635E-14,-1.3));
#811=CARTESIAN_POINT('Origin',(0.,0.,-1.3));
#812=CARTESIAN_POINT('',(102.097749077943,0.,-1.3));
#813=CARTESIAN_POINT('Origin',(0.,0.,-1.3));
#814=CARTESIAN_POINT('Origin',(0.,0.,0.5));
#815=CARTESIAN_POINT('',(-111.3,1.363031887451E-14,0.5));
#816=CARTESIAN_POINT('Origin',(0.,0.,0.5));
#817=CARTESIAN_POINT('Origin',(-109.5,-1.34098824506635E-14,0.5));
#818=CARTESIAN_POINT('Origin',(0.,0.,2.5));
#819=CARTESIAN_POINT('',(-111.3,-1.363031887451E-14,2.));
#820=CARTESIAN_POINT('',(-111.3,-1.363031887451E-14,2.5));
#821=CARTESIAN_POINT('Origin',(0.,0.,2.));
#822=CARTESIAN_POINT('Origin',(0.,0.,2.));
#823=CARTESIAN_POINT('',(-109.5,-1.34098824506635E-14,3.8));
#824=CARTESIAN_POINT('Origin',(0.,0.,3.8));
#825=CARTESIAN_POINT('Origin',(-109.5,-1.34098824506635E-14,2.));
#826=CARTESIAN_POINT('Origin',(100.,0.,3.8));
#827=CARTESIAN_POINT('',(102.097749077943,0.,3.8));
#828=CARTESIAN_POINT('Origin',(0.,0.,3.8));
#829=CARTESIAN_POINT('Origin',(100.,0.,-0.3));
#830=CARTESIAN_POINT('',(-109.5,-1.34098824506635E-14,-0.3));
#831=CARTESIAN_POINT('Origin',(0.,0.,-0.3));
#832=CARTESIAN_POINT('',(102.097749077943,0.,-0.3));
#833=CARTESIAN_POINT('Origin',(0.,0.,-0.3));
#834=CARTESIAN_POINT('Origin',(0.,0.,0.5));
#835=CARTESIAN_POINT('',(-110.3,1.35078541945953E-14,0.5));
#836=CARTESIAN_POINT('Origin',(-109.5,-1.34098824506635E-14,0.5));
#837=CARTESIAN_POINT('Origin',(0.,0.,0.5));
#838=CARTESIAN_POINT('Origin',(0.,0.,2.5));
#839=CARTESIAN_POINT('',(-110.3,-1.35078541945953E-14,2.));
#840=CARTESIAN_POINT('Origin',(0.,0.,2.));
#841=CARTESIAN_POINT('',(-110.3,-1.35078541945953E-14,2.5));
#842=CARTESIAN_POINT('Origin',(0.,0.,2.));
#843=CARTESIAN_POINT('',(-109.5,-1.34098824506635E-14,2.8));
#844=CARTESIAN_POINT('Origin',(-109.5,-1.34098824506635E-14,2.));
#845=CARTESIAN_POINT('Origin',(0.,0.,2.8));
#846=CARTESIAN_POINT('Origin',(100.,0.,2.8));
#847=CARTESIAN_POINT('',(102.097749077943,0.,2.8));
#848=CARTESIAN_POINT('Origin',(0.,0.,2.8));
#849=CARTESIAN_POINT('Origin',(0.,0.,-0.3));
#850=CARTESIAN_POINT('',(102.097749077943,0.,-0.3));
#851=CARTESIAN_POINT('Origin',(0.,0.,2.8));
#852=CARTESIAN_POINT('',(102.097749077943,0.,2.8));
#853=CARTESIAN_POINT('',(0.,0.,0.));
#854=CARTESIAN_POINT('',(0.,0.,0.));
#855=CARTESIAN_POINT('Origin',(0.,0.,0.));
#856=UNCERTAINTY_MEASURE_WITH_UNIT(LENGTH_MEASURE(0.01),#864,
'DISTANCE_ACCURACY_VALUE',
'Maximum model space distance between geometric entities at asserted c
onnectivities');
#857=UNCERTAINTY_MEASURE_WITH_UNIT(LENGTH_MEASURE(0.01),#864,
'DISTANCE_ACCURACY_VALUE',
'Maximum model space distance between geometric entities at asserted c
onnectivities');
#858=UNCERTAINTY_MEASURE_WITH_UNIT(LENGTH_MEASURE(0.01),#864,
'DISTANCE_ACCURACY_VALUE',
'Maximum model space distance between geometric entities at asserted c
onnectivities');
#859=UNCERTAINTY_MEASURE_WITH_UNIT(LENGTH_MEASURE(0.01),#864,
'DISTANCE_ACCURACY_VALUE',
'Maximum model space distance between geometric entities at asserted c
onnectivities');
#860=(
GEOMETRIC_REPRESENTATION_CONTEXT(3)
GLOBAL_UNCERTAINTY_ASSIGNED_CONTEXT((#856))
GLOBAL_UNIT_ASSIGNED_CONTEXT((#864,#866,#867))
REPRESENTATION_CONTEXT('','3D')
);
#861=(
GEOMETRIC_REPRESENTATION_CONTEXT(3)
GLOBAL_UNCERTAINTY_ASSIGNED_CONTEXT((#857))
GLOBAL_UNIT_ASSIGNED_CONTEXT((#864,#866,#867))
REPRESENTATION_CONTEXT('','3D')
);
#862=(
GEOMETRIC_REPRESENTATION_CONTEXT(3)
GLOBAL_UNCERTAINTY_ASSIGNED_CONTEXT((#858))
GLOBAL_UNIT_ASSIGNED_CONTEXT((#864,#866,#867))
REPRESENTATION_CONTEXT('','3D')
);
#863=(
GEOMETRIC_REPRESENTATION_CONTEXT(3)
GLOBAL_UNCERTAINTY_ASSIGNED_CONTEXT((#859))
GLOBAL_UNIT_ASSIGNED_CONTEXT((#864,#866,#867))
REPRESENTATION_CONTEXT('','3D')
);
#864=(
LENGTH_UNIT()
NAMED_UNIT(*)
SI_UNIT(.MILLI.,.METRE.)
);
#865=(
LENGTH_UNIT()
NAMED_UNIT(*)
SI_UNIT($,.METRE.)
);
#866=(
NAMED_UNIT(*)
PLANE_ANGLE_UNIT()
SI_UNIT($,.RADIAN.)
);
#867=(
NAMED_UNIT(*)
SI_UNIT($,.STERADIAN.)
SOLID_ANGLE_UNIT()
);
#868=SHAPE_DEFINITION_REPRESENTATION(#871,#876);
#869=SHAPE_DEFINITION_REPRESENTATION(#872,#877);
#870=SHAPE_DEFINITION_REPRESENTATION(#873,#878);
#871=PRODUCT_DEFINITION_SHAPE('',$,#880);
#872=PRODUCT_DEFINITION_SHAPE('',$,#881);
#873=PRODUCT_DEFINITION_SHAPE('',$,#882);
#874=PRODUCT_DEFINITION_SHAPE($,$,#21);
#875=PRODUCT_DEFINITION_SHAPE($,$,#22);
#876=SHAPE_REPRESENTATION('',(#466,#548,#549),#860);
#877=SHAPE_REPRESENTATION('',(#467),#861);
#878=SHAPE_REPRESENTATION('',(#519),#862);
#879=PRODUCT_DEFINITION_CONTEXT('part definition',#890,'design');
#880=PRODUCT_DEFINITION('2026-08-08-19-13-19-462','Day11: Dog bowl',#883,
#879);
#881=PRODUCT_DEFINITION('2026-08-08-19-14-46-309','Metal Bowl',#884,#879);
#882=PRODUCT_DEFINITION('2026-08-08-19-15-24-933','Rubber Grip',#885,#879);
#883=PRODUCT_DEFINITION_FORMATION('',$,#892);
#884=PRODUCT_DEFINITION_FORMATION('',$,#893);
#885=PRODUCT_DEFINITION_FORMATION('',$,#894);
#886=PRODUCT_RELATED_PRODUCT_CATEGORY('Day11: Dog bowl',
'Day11: Dog bowl',(#892));
#887=PRODUCT_RELATED_PRODUCT_CATEGORY('Metal Bowl','Metal Bowl',(#893));
#888=PRODUCT_RELATED_PRODUCT_CATEGORY('Rubber Grip','Rubber Grip',(#894));
#889=APPLICATION_PROTOCOL_DEFINITION('international standard',
'automotive_design',2009,#890);
#890=APPLICATION_CONTEXT(
'Core Data for Automotive Mechanical Design Process');
#891=PRODUCT_CONTEXT('part definition',#890,'mechanical');
#892=PRODUCT('2026-08-08-19-13-19-462','Day11: Dog bowl',$,(#891));
#893=PRODUCT('2026-08-08-19-14-46-309','Metal Bowl',$,(#891));
#894=PRODUCT('2026-08-08-19-15-24-933','Rubber Grip',$,(#891));
#895=PRESENTATION_STYLE_ASSIGNMENT((#899));
#896=PRESENTATION_STYLE_ASSIGNMENT((#900));
#897=PRESENTATION_STYLE_ASSIGNMENT((#901));
#898=PRESENTATION_STYLE_ASSIGNMENT((NULL_STYLE(.NULL.)));
#899=SURFACE_STYLE_USAGE(.BOTH.,#902);
#900=SURFACE_STYLE_USAGE(.BOTH.,#903);
#901=SURFACE_STYLE_USAGE(.BOTH.,#904);
#902=SURFACE_SIDE_STYLE('',(#905));
#903=SURFACE_SIDE_STYLE('',(#906));
#904=SURFACE_SIDE_STYLE('',(#907));
#905=SURFACE_STYLE_FILL_AREA(#908);
#906=SURFACE_STYLE_FILL_AREA(#909);
#907=SURFACE_STYLE_FILL_AREA(#910);
#908=FILL_AREA_STYLE('Steel - Satin',(#911));
#909=FILL_AREA_STYLE('Bronze - Patina',(#912));
#910=FILL_AREA_STYLE('Rubber - Soft',(#913));
#911=FILL_AREA_STYLE_COLOUR('Steel - Satin',#914);
#912=FILL_AREA_STYLE_COLOUR('Bronze - Patina',#915);
#913=FILL_AREA_STYLE_COLOUR('Rubber - Soft',#916);
#914=COLOUR_RGB('Steel - Satin',0.627450980392157,0.627450980392157,0.627450980392157);
#915=COLOUR_RGB('Bronze - Patina',0.517647058823529,0.411764705882353,0.294117647058824);
#916=COLOUR_RGB('Rubber - Soft',0.152941176470588,0.152941176470588,0.152941176470588);
ENDSEC;
END-ISO-10303-21;
